<svg width="72" height="72" viewBox="0 0 72 72" fill="none" xmlns="http://www.w3.org/2000/svg">
<path d="M33.0253 0C34.9459 0 36.8651 0 38.7858 0C38.849 0.181244 39.0092 0.129259 39.1398 0.141904C40.6558 0.280999 42.1578 0.497368 43.6442 0.831756C58.443 4.15878 69.2952 15.8301 71.5769 30.8522C71.6935 31.6208 71.6415 32.4188 71.9436 33.1578C71.9436 33.814 71.9436 34.4687 71.9436 35.1248C71.7568 34.9155 71.5797 34.6977 71.3816 34.4996C65.3289 28.4441 59.2762 22.39 53.2207 16.3387C53.0268 16.1448 52.8624 15.8947 52.5406 15.8849L52.5519 15.8891C52.5083 15.8371 52.4634 15.7837 52.4198 15.7317C52.3988 15.6053 52.3355 15.5111 52.2105 15.4648C49.7925 12.4581 46.6144 11.2596 42.8209 11.4802C42.235 11.5139 41.8135 11.7837 41.4019 12.1321C41.0436 11.6966 40.5771 11.4437 40.0179 11.4465C38.6677 11.4521 37.3161 11.3509 35.9674 11.4999C30.287 11.4971 24.608 11.4999 18.929 11.4788C18.4049 11.4774 18.2588 11.6235 18.2616 12.1476C18.2841 15.5603 18.3389 18.9744 18.2518 22.3844C18.1843 25.0665 18.8587 27.41 20.7667 29.3447C18.2335 30.331 17.0519 32.9204 17.982 35.3974C18.3698 36.4315 19.1693 37.1059 19.9575 37.7999C20.5981 38.7553 21.3877 39.5618 22.3558 40.1898C22.6073 41.8084 22.988 43.3834 23.713 44.8699C24.608 46.7048 25.8809 48.2278 27.4123 49.5541C27.4615 49.6159 27.5093 49.6778 27.5585 49.7396L27.5472 49.7241C27.5978 49.7747 27.6484 49.8267 27.699 49.8773L27.6863 49.8646C27.7875 49.9152 27.8872 49.9658 27.9884 50.0164C28.0305 50.0501 28.0741 50.0838 28.1162 50.1175C28.1162 50.2903 28.1809 50.4365 28.3017 50.5559C29.0351 51.2696 29.7699 51.9819 30.5047 52.6943C30.5581 53.9222 29.8725 54.7905 29.0871 55.6096C28.6979 55.5661 28.5925 54.8804 28.0404 55.1769C27.1075 55.6771 26.1605 56.1478 25.2192 56.6311C23.9982 56.9612 22.8335 57.446 21.6603 57.9124C18.1071 59.1966 14.5553 60.4807 11.002 61.7649C10.839 61.6342 10.6592 61.5219 10.5173 61.3715C1.58154 51.9791 -1.78482 40.8839 0.897311 28.2066C4.00235 13.5315 16.0361 2.51072 30.7942 0.376538C31.5402 0.269759 32.313 0.307694 33.0253 0Z" fill="#3CCB93"/>
<path d="M71.9436 38.9171C71.6233 39.7208 71.6739 40.5863 71.5432 41.4208C70.467 48.3179 67.6191 54.3861 63.0514 59.6506C62.3489 60.4599 61.6535 61.2832 60.8119 61.9604C60.6475 61.8761 60.4901 61.7764 60.3187 61.7117C56.9805 60.4501 53.6422 59.1912 50.3025 57.9323C49.135 57.4771 47.9829 56.9825 46.7774 56.6285C45.9555 56.2098 45.1111 55.829 44.3215 55.3584C43.7918 55.0422 43.3984 55.076 43.0176 55.5354C42.6847 55.4342 42.495 55.1659 42.2814 54.9186C41.437 53.9379 41.4005 52.7563 41.4286 51.5564C41.6267 51.437 41.8192 51.3078 42.0243 51.1996C44.7711 49.744 46.8884 47.6759 48.2681 44.8645C49.2333 42.8961 49.6239 40.8068 49.6928 38.6375C49.8473 38.5251 50.0005 38.4141 50.155 38.3017C50.2084 38.2694 50.2618 38.2371 50.3152 38.2048L50.2969 38.2118C51.5459 38.2961 53.3963 36.9979 53.9892 35.3274C54.5948 33.6189 54.3278 31.326 52.1655 29.7776C53.3008 28.5975 54.103 27.2262 54.1775 25.5725C54.3278 22.2328 54.5133 18.8693 52.5407 15.8809C52.861 15.8907 53.0254 16.1408 53.2207 16.3347C59.2762 22.386 65.3303 28.4401 71.3816 34.4956C71.5797 34.6937 71.7568 34.9115 71.9436 35.1208C71.9436 36.3881 71.9436 37.6526 71.9436 38.9171Z" fill="#4FAD88"/>
<path d="M20.7667 29.3425C18.8601 27.4078 18.1843 25.0643 18.2518 22.3822C18.3375 18.9722 18.2841 15.5581 18.2616 12.1454C18.2588 11.6213 18.4035 11.4738 18.929 11.4766C24.6079 11.4977 30.2883 11.4949 35.9673 11.4977C35.9701 17.7021 35.9701 23.9066 35.9772 30.111C35.9772 30.43 35.8844 30.7714 36.1247 31.0566C36.0741 31.1058 36.0221 31.1535 35.9715 31.2027C35.2072 31.2828 34.4668 31.5104 33.687 31.5062C31.2311 31.4921 28.7738 31.5118 26.3178 31.5006C25.6645 31.4978 25.0013 31.4823 24.3775 31.2519C23.7846 31.0327 23.6694 31.2744 23.6764 31.8265C23.7003 33.8146 23.6863 35.8041 23.6863 37.7921C23.6863 39.1648 23.6863 39.1648 22.3937 38.6773C22.3726 38.6688 22.3487 38.6674 22.3248 38.6618C22.1478 38.5354 21.9708 38.4089 21.7923 38.2839C21.1081 37.5996 20.8622 36.7623 20.8707 35.8097C20.8889 33.9003 20.8791 31.9923 20.8721 30.0829C20.8721 29.8342 20.9508 29.5673 20.7667 29.3425Z" fill="#3F4751"/>
<path d="M36.1261 31.0547C35.8859 30.7695 35.9786 30.4267 35.9786 30.1092C35.9716 23.9047 35.9702 17.7003 35.9687 11.4958C37.3175 11.3469 38.6691 11.4481 40.0193 11.4424C40.5785 11.4396 41.045 11.6925 41.4033 12.1281C41.8163 11.7796 42.2378 11.5099 42.8223 11.4762C46.6158 11.257 49.7953 12.454 52.2133 15.4607C52.2835 15.5506 52.3524 15.6392 52.4226 15.7277C52.4662 15.7797 52.5111 15.833 52.5547 15.885L52.5435 15.8808C54.5161 18.8692 54.3306 22.2328 54.1803 25.5725C54.1058 27.2275 53.3036 28.5974 52.1683 29.7776C51.2804 30.2202 50.9699 30.9058 51.057 31.9118C51.1553 33.0442 51.0499 34.1921 51.0879 35.3301C51.123 36.3825 50.9642 37.3604 50.2983 38.2118L50.3165 38.2048C50.2632 38.2371 50.2098 38.2694 50.1564 38.3017C50.0018 38.4141 49.8487 38.5251 49.6941 38.6375C49.541 38.6909 49.3878 38.7471 49.2347 38.7991C48.3425 39.104 48.2695 39.0548 48.2695 38.1429C48.2681 36.2026 48.2526 34.2623 48.2793 32.3235C48.2877 31.7432 48.2076 31.4861 47.508 31.465C44.4802 31.3737 42.1676 29.4657 41.3836 26.5307C41.3499 26.4028 41.4075 26.1864 41.1419 26.1555C40.1725 28.5075 38.6158 30.2623 36.1261 31.0547Z" fill="#34383F"/>
<path d="M36.1262 31.0546C38.6158 30.2622 40.1726 28.5074 41.1392 26.1582C41.4047 26.1891 41.3471 26.4069 41.3809 26.5333C42.1648 29.4684 44.4775 31.3749 47.5052 31.4677C48.2049 31.4887 48.285 31.7445 48.2766 32.3261C48.2485 34.265 48.2653 36.2053 48.2667 38.1456C48.2667 39.056 48.3398 39.1052 49.232 38.8017C49.3851 38.7498 49.5382 38.6936 49.6914 38.6402C49.6239 40.8081 49.232 42.8987 48.2667 44.8671C46.8884 47.6785 44.7711 49.7466 42.0229 51.2022C41.8192 51.3104 41.6253 51.4397 41.4272 51.5591C40.8076 51.7769 40.2414 52.1028 39.671 52.4231C38.79 52.9163 37.8684 53.3378 36.8455 53.3785C36.1908 53.4038 35.9463 53.6314 35.9576 54.3072C35.9913 56.5271 35.9688 58.747 35.9716 60.9669C35.9716 61.2198 35.9281 61.4868 36.1262 61.7003C36.0292 61.7397 35.9323 61.7804 35.8353 61.8197C34.7465 60.8292 33.6478 59.8513 32.5744 58.8468C31.4166 57.7621 30.1564 56.7885 29.0858 55.6125C29.8711 54.7934 30.5582 53.9251 30.5034 52.6971C30.5427 52.3684 30.5835 52.0396 30.6228 51.7094C31.0218 51.6897 31.3351 51.9188 31.6653 52.086C32.6882 52.603 33.6998 53.1439 34.8434 53.3589C35.8072 53.5401 35.973 53.408 35.973 52.4611C35.973 45.3757 35.9716 38.2903 35.9702 31.2049C36.0236 31.153 36.0756 31.1038 36.1262 31.0546Z" fill="#FEBCA7"/>
<path d="M35.973 31.2011C35.9744 38.2865 35.9744 45.3718 35.9758 52.4572C35.9758 53.4042 35.81 53.5349 34.8462 53.355C33.7025 53.1415 32.6909 52.6005 31.6681 52.0821C31.3379 51.9149 31.026 51.6859 30.6256 51.7055C29.8978 51.0031 28.948 50.6518 28.1163 50.1151C28.0741 50.0814 28.0306 50.0477 27.9884 50.0139C27.9125 49.9142 27.8339 49.8215 27.6863 49.8622L27.699 49.8748C27.7158 49.7568 27.647 49.7245 27.5472 49.7217L27.5585 49.7372C27.5093 49.6753 27.4615 49.6135 27.4124 49.5517C25.8809 48.2254 24.608 46.7038 23.713 44.8674C22.988 43.381 22.6073 41.806 22.3558 40.1874C22.3459 39.6788 22.3361 39.1702 22.3263 38.6602C22.3488 38.6644 22.3726 38.6672 22.3951 38.6756C23.6877 39.1632 23.6877 39.1632 23.6877 37.7905C23.6877 35.8024 23.7018 33.813 23.6779 31.8249C23.6709 31.2727 23.7861 31.0311 24.379 31.2503C25.0028 31.4807 25.6659 31.4961 26.3193 31.4989C28.7752 31.5102 31.2325 31.4905 33.6885 31.5046C34.4682 31.5088 35.2087 31.2812 35.973 31.2011Z" fill="#FECBBC"/>
<path d="M24.7274 70.1153C20.1795 68.6527 16.1218 66.3176 12.5082 63.2056C11.9827 62.7532 11.4067 62.3443 11.0021 61.7626C14.5553 60.4785 18.1071 59.1943 21.6603 57.9102C21.6533 60.692 21.6547 63.4739 21.6322 66.2558C21.628 66.69 21.805 66.8867 22.197 66.9977C22.9838 67.221 23.7552 67.4964 24.5462 67.7002C24.9888 67.814 25.1953 67.9629 25.0506 68.4673C24.896 69.004 24.8314 69.566 24.7274 70.1153Z" fill="#28488F"/>
<path d="M24.7274 70.114C24.8314 69.5647 24.896 69.0027 25.0492 68.4674C25.1939 67.963 24.9873 67.8141 24.5448 67.7003C23.7537 67.4965 22.9824 67.2211 22.1956 66.9978C21.8036 66.8868 21.628 66.6901 21.6308 66.2559C21.6533 63.474 21.6519 60.6921 21.6589 57.9103C22.8321 57.4452 23.9968 56.9591 25.2177 56.6289C25.2711 56.8186 25.2697 57.0279 25.4201 57.1811C25.4566 57.3384 25.4791 57.5 25.5297 57.6517C26.2729 59.9011 27.0246 62.1463 27.7636 64.3971C28.5363 66.7547 29.2978 69.1151 30.0636 71.4755C28.261 71.1186 26.4527 70.78 24.7274 70.114Z" fill="#1A3B69"/>
<path d="M25.4215 57.182C25.2712 57.0289 25.2726 56.8181 25.2192 56.6299C26.1605 56.1465 27.1089 55.6759 28.0404 55.1757C28.5926 54.8792 28.698 55.5649 29.0871 55.6084C30.1577 56.7858 31.418 57.7595 32.5757 58.8427C33.6492 59.8487 34.7493 60.8266 35.8367 61.8157C35.8381 61.8663 35.8381 61.9168 35.8395 61.9674C34.9488 63.2291 34.058 64.4908 33.1672 65.7539C32.9902 65.9702 32.8062 66.181 32.639 66.4058C32.1304 67.09 32.1318 67.0928 31.6625 66.3875C29.7728 63.5508 27.8845 60.7114 25.9905 57.8775C25.8247 57.6288 25.7138 57.3295 25.4215 57.182Z" fill="#FEFEFD"/>
<path d="M20.7667 29.3418C20.9508 29.5666 20.8721 29.8335 20.8735 30.0808C20.8805 31.9902 20.8904 33.8982 20.8721 35.8076C20.8623 36.7602 21.1096 37.5975 21.7924 38.2818C21.1334 38.2958 20.5743 37.9361 19.9575 37.7985C19.1693 37.1044 18.3698 36.43 17.982 35.3959C17.0519 32.9189 18.2349 30.3281 20.7667 29.3418Z" fill="#FEBCA7"/>
<path d="M19.9575 37.7988C20.5743 37.9365 21.1335 38.2962 21.7924 38.2821C21.9708 38.4086 22.1479 38.535 22.3249 38.6615C22.3347 39.1701 22.3446 39.6787 22.3544 40.1887C21.3878 39.5607 20.5982 38.7542 19.9575 37.7988Z" fill="#3CCB93"/>
<path d="M28.1162 50.1172C28.948 50.6539 29.8978 51.0051 30.6256 51.7076C30.5862 52.0364 30.5455 52.3652 30.5061 52.6954C29.7713 51.983 29.0365 51.2707 28.3031 50.557C28.1795 50.4361 28.1162 50.2886 28.1162 50.1172Z" fill="#3CCB93"/>
<path d="M52.4213 15.7298C52.3524 15.6413 52.2822 15.5514 52.2119 15.4629C52.337 15.5093 52.4002 15.602 52.4213 15.7298Z" fill="#EF4500"/>
<path d="M27.6864 49.8634C27.8325 49.8226 27.9126 49.9153 27.9884 50.0151C27.8873 49.9645 27.7875 49.9139 27.6864 49.8634Z" fill="#EF4500"/>
<path d="M52.5533 15.8878C52.5098 15.8358 52.4662 15.7825 52.4212 15.7305C52.4662 15.7825 52.5098 15.8358 52.5533 15.8878Z" fill="#EF4500"/>
<path d="M27.4124 49.5508C27.4615 49.6126 27.5093 49.6744 27.5585 49.7362C27.5093 49.6758 27.4601 49.6126 27.4124 49.5508Z" fill="#EF4500"/>
<path d="M27.5458 49.7227C27.6456 49.7255 27.7144 49.7578 27.6976 49.8758C27.6484 49.8252 27.5978 49.7732 27.5458 49.7227Z" fill="#EF4500"/>
<path d="M50.3039 57.9355C53.6422 59.1944 56.9819 60.4519 60.3201 61.715C60.4915 61.7796 60.6489 61.8794 60.8133 61.9637C56.9046 65.715 52.3875 68.4505 47.2284 70.1154C47.1244 69.5661 47.0626 69.0027 46.9053 68.4688C46.7549 67.9602 46.9685 67.8155 47.4054 67.7003C48.2175 67.4867 49.0128 67.2099 49.8206 66.9795C50.1943 66.8727 50.3363 66.6676 50.3334 66.2742C50.311 63.4951 50.311 60.7146 50.3039 57.9355Z" fill="#28488F"/>
<path d="M50.3039 57.9352C50.3109 60.7157 50.3123 63.4948 50.332 66.2753C50.3348 66.6687 50.1929 66.8738 49.8192 66.9806C49.0113 67.211 48.2161 67.4878 47.404 67.7014C46.967 67.8166 46.7535 67.9613 46.9038 68.4699C47.0612 69.0038 47.123 69.5658 47.227 70.1165C45.5044 70.7769 43.699 71.1211 41.8978 71.4766C42.5202 69.2145 43.3492 67.0185 44.0685 64.7874C44.889 62.243 45.7222 59.7027 46.5497 57.1611C46.6256 56.9855 46.7015 56.8084 46.7788 56.6328C47.9828 56.9855 49.1363 57.48 50.3039 57.9352Z" fill="#12244B"/>
<path d="M25.4215 57.1816C25.7137 57.3292 25.8247 57.6284 25.9905 57.8757C27.8844 60.7096 29.7727 63.5491 31.6624 66.3858C32.1317 67.0911 32.1303 67.0883 32.6389 66.404C32.8061 66.1806 32.9902 65.9699 33.1672 65.7521C33.3611 66.456 33.5536 67.1599 33.7475 67.8638C33.5564 69.169 33.3653 70.4757 33.1728 71.7809C32.1205 71.8399 31.0878 71.6966 30.0636 71.476C29.2978 69.1157 28.5377 66.7553 27.7636 64.3977C27.026 62.1469 26.2729 59.9017 25.5296 57.6523C25.4805 57.5006 25.458 57.339 25.4215 57.1816Z" fill="#C6FDF9"/>
<path d="M46.5498 57.1602C45.7222 59.7018 44.8905 62.242 44.0685 64.7865C43.3478 67.0176 42.5202 69.2136 41.8978 71.4756C40.8609 71.5951 39.8381 71.8466 38.783 71.7861C38.5905 70.4795 38.398 69.1729 38.2055 67.8662C38.3994 67.1623 38.5919 66.4584 38.7858 65.7545C38.974 65.9905 39.1904 66.2097 39.3464 66.4654C39.6639 66.9867 39.8831 67.0345 40.254 66.4668C42.1423 63.581 44.0629 60.7176 45.9793 57.85C46.1437 57.6041 46.2603 57.3077 46.5498 57.1602Z" fill="#98F3EF"/>
<path d="M38.2055 67.8652C38.398 69.1719 38.5905 70.4785 38.783 71.7852C36.9129 72.01 35.0429 71.9833 33.1742 71.7824C33.3653 70.4771 33.5564 69.1705 33.7489 67.8652C35.234 67.8652 36.719 67.8652 38.2055 67.8652Z" fill="#2965EF"/>
<path d="M46.5498 57.1584C46.2604 57.306 46.1438 57.6024 45.9794 57.8497C44.063 60.7173 42.141 63.5807 40.2541 66.4665C39.8831 67.0341 39.664 66.9864 39.3464 66.4651C39.1905 66.2094 38.9755 65.9902 38.7858 65.7542C37.9386 64.5599 37.0914 63.3671 36.2456 62.1729C36.1445 62.031 36.0292 61.9298 35.841 61.9677C35.8396 61.9172 35.8396 61.8666 35.8382 61.816C35.9351 61.7767 36.0321 61.7359 36.129 61.6966C38.4936 59.7198 40.7374 57.608 43.0177 55.5371C43.3984 55.0777 43.7918 55.0439 44.3215 55.3601C45.1111 55.8307 45.9555 56.2115 46.7774 56.6302C46.7016 56.8058 46.6257 56.9828 46.5498 57.1584Z" fill="#E7EAF3"/>
<path d="M43.0176 55.5384C40.7373 57.6094 38.4921 59.7211 36.1289 61.6979C35.9308 61.4843 35.9743 61.2188 35.9743 60.9645C35.9715 58.7446 35.994 56.5247 35.9603 54.3048C35.9505 53.629 36.1935 53.4028 36.8482 53.3761C37.8711 53.3354 38.7914 52.9153 39.6737 52.4207C40.2441 52.1018 40.8103 51.7758 41.4299 51.5566C41.4018 52.7565 41.4384 53.9381 42.2828 54.9188C42.4949 55.1675 42.6846 55.4358 43.0176 55.5384Z" fill="#F9A58C"/>
<path d="M50.2969 38.2154C50.9614 37.3654 51.1216 36.3875 51.0865 35.3338C51.0486 34.1943 51.1539 33.0465 51.0556 31.9154C50.9685 30.9109 51.279 30.2238 52.1669 29.7812C54.3292 31.3296 54.5962 33.6225 53.9906 35.331C53.3977 37.0015 51.5459 38.2997 50.2969 38.2154Z" fill="#FEBCA7"/>
<path d="M50.155 38.304C50.2084 38.2717 50.2617 38.2393 50.3151 38.207C50.2617 38.2393 50.2084 38.2717 50.155 38.304Z" fill="#FEBCA7"/>
<path d="M35.8395 61.9671C36.0278 61.9292 36.143 62.0289 36.2441 62.1722C37.0899 63.3665 37.9371 64.5607 38.7844 65.7535C38.5905 66.4574 38.398 67.1614 38.2041 67.8653C36.7176 67.8653 35.2325 67.8653 33.746 67.8653C33.5522 67.1614 33.3597 66.4574 33.1658 65.7535C34.058 64.4919 34.9487 63.2288 35.8395 61.9671Z" fill="#4B79FE"/>
</svg>
