<svg width="26" height="22" viewBox="0 0 26 22" fill="none" xmlns="http://www.w3.org/2000/svg">
<path d="M16.171 19.0918H10.0991C10.0991 20.5332 11.4653 21.7125 13.135 21.7125C14.8048 21.7125 16.171 20.5332 16.171 19.0918Z" fill="white"/>
<path d="M23.7612 15.1607H23.0022C21.9396 14.2435 20.7252 12.9332 20.7252 11.2297V7.29874C20.7252 3.6298 17.3857 0.74707 13.1354 0.74707C8.88511 0.74707 5.54559 3.6298 5.54559 7.29874V11.2297C5.54559 12.9332 4.33122 14.2435 3.26865 15.1607H2.50966C1.59888 15.1607 0.991699 15.6849 0.991699 16.4711C0.991699 17.2573 1.59888 17.7814 2.50966 17.7814H23.7612C24.6719 17.7814 25.2791 17.2573 25.2791 16.4711C25.2791 15.6849 24.6719 15.1607 23.7612 15.1607Z" fill="white"/>
</svg>
