<svg width="33" height="33" viewBox="0 0 33 33" fill="none" xmlns="http://www.w3.org/2000/svg">
<circle cx="16.3767" cy="16.2698" r="15.3058" stroke="white" stroke-width="1.65468"/>
<path d="M11.985 7C13.2255 7 14.466 7 15.7065 7C15.7069 7.68193 15.7079 8.3634 15.7083 9.04533C15.3906 9.08721 15.1989 9.27613 15.1948 9.55245C15.1903 9.83605 15.3837 10.0332 15.7083 10.0764C15.7083 10.4156 15.7083 10.7547 15.7083 11.0938C15.3906 11.1357 15.1989 11.3246 15.1948 11.601C15.1903 11.8846 15.3837 12.0817 15.7083 12.1249C15.7083 12.4641 15.7083 12.8032 15.7083 13.1424C15.3906 13.1842 15.1989 13.3732 15.1948 13.6495C15.1903 13.9331 15.3837 14.1302 15.7083 14.1734C15.7083 14.5126 15.7083 14.8517 15.7083 15.1909C15.3906 15.2327 15.1989 15.4217 15.1948 15.698C15.1903 15.9816 15.3837 16.1787 15.7083 16.222C15.7083 16.5611 15.7083 16.9002 15.7083 17.2394C15.3906 17.2813 15.1989 17.4702 15.1948 17.7465C15.1903 18.0301 15.3837 18.2272 15.7083 18.2705C15.7083 18.6096 15.7083 18.9488 15.7083 19.2879C15.3906 19.3298 15.1989 19.5187 15.1948 19.795C15.1903 20.0786 15.3837 20.2757 15.7083 20.319C15.7083 20.6577 15.7079 20.9964 15.7079 21.3346C15.0541 21.3364 14.4 21.3382 13.7463 21.3396C13.3457 21.3405 13.1463 21.5367 13.1463 21.9332C13.1458 22.7804 13.1463 23.6276 13.1463 24.4752C12.6337 24.4752 12.1211 24.4752 11.609 24.4752C11.609 20.0149 11.609 15.5541 11.6095 11.0938C11.6099 9.95851 11.6177 8.82272 11.6054 7.68739C11.6013 7.3701 11.6891 7.13611 11.985 7ZM14.1696 9.56292C14.171 9.28614 13.9411 9.05261 13.6639 9.04897C13.3867 9.04578 13.1513 9.27294 13.1458 9.55017C13.1399 9.83378 13.3762 10.0741 13.6598 10.0728C13.937 10.0714 14.1687 9.84015 14.1696 9.56292ZM13.6557 11.0975C13.378 11.0988 13.1472 11.3301 13.1463 11.6073C13.1454 11.8846 13.3748 12.1176 13.6521 12.1213C13.9357 12.1249 14.1737 11.8864 14.1701 11.6028C14.1665 11.3256 13.9329 11.0961 13.6557 11.0975ZM14.1696 15.6984C14.1655 15.4212 13.9316 15.1927 13.6539 15.1945C13.3762 15.1963 13.1458 15.4285 13.1458 15.7057C13.1454 15.9893 13.3862 16.2251 13.6698 16.2183C13.947 16.2115 14.1742 15.9752 14.1696 15.6984ZM14.1696 13.6563C14.1692 13.3791 13.9379 13.1474 13.6607 13.1455C13.3835 13.1437 13.1495 13.3727 13.1458 13.6499C13.1417 13.934 13.3794 14.1721 13.663 14.1693C13.9402 14.1666 14.1706 13.9335 14.1696 13.6563ZM13.6648 18.2668C13.9416 18.2632 14.171 18.0292 14.1701 17.7524C14.1687 17.4752 13.9375 17.2439 13.6598 17.243C13.3757 17.2421 13.1399 17.4816 13.1463 17.7656C13.1522 18.0424 13.388 18.2705 13.6648 18.2668ZM14.1696 19.8059C14.171 19.5292 13.9416 19.2952 13.6643 19.2915C13.3871 19.2879 13.1518 19.5151 13.1458 19.7923C13.1399 20.0759 13.3757 20.3163 13.6593 20.3153C13.9366 20.3144 14.1683 20.0832 14.1696 19.8059Z" fill="#167952"/>
<path d="M15.7082 13.1424C15.7082 12.8032 15.7082 12.4641 15.7082 12.1249L15.7046 12.1181C16.0082 12.1167 16.219 11.9082 16.219 11.6092C16.219 11.3101 16.0087 11.102 15.7046 11.1007L15.7082 11.0938C15.7082 10.7547 15.7082 10.4156 15.7082 10.0764L15.7046 10.0696C16.0082 10.0682 16.219 9.85972 16.219 9.56064C16.219 9.26156 16.0087 9.05352 15.7046 9.05216L15.7082 9.04533C15.7078 8.3634 15.7069 7.68193 15.7064 7C16.9469 7 18.1874 7 19.4279 7C19.716 7.12246 19.8112 7.34096 19.8084 7.65052C19.7975 8.79905 19.8057 9.94758 19.8066 11.0966C19.8057 11.1193 19.8039 11.1421 19.8039 11.1649C19.8043 15.6019 19.8043 20.0386 19.8048 24.4756C19.2922 24.4756 18.7796 24.4756 18.2671 24.4752C18.2671 23.6007 18.268 22.7262 18.2666 21.8517C18.2661 21.5668 18.0576 21.3428 17.7836 21.3414C17.0908 21.3387 16.3984 21.3432 15.7055 21.3446L15.7078 21.3346C15.7078 20.9959 15.7082 20.6572 15.7082 20.319L15.7046 20.3122C16.0082 20.3108 16.219 20.1023 16.219 19.8032C16.219 19.5041 16.0087 19.2961 15.7046 19.2947L15.7082 19.2879C15.7082 18.9488 15.7082 18.6096 15.7082 18.2705L15.7046 18.2636C16.0082 18.2623 16.219 18.0538 16.219 17.7547C16.219 17.4556 16.0087 17.2476 15.7046 17.2462L15.7082 17.2394C15.7082 16.9002 15.7082 16.5611 15.7082 16.222L15.7046 16.2151C16.0082 16.2138 16.219 16.0053 16.219 15.7062C16.219 15.4071 16.0087 15.1991 15.7046 15.1977L15.7082 15.1909C15.7082 14.8517 15.7082 14.5126 15.7082 14.1734L15.7046 14.1666C16.0082 14.1652 16.219 13.9568 16.219 13.6577C16.219 13.3586 16.0087 13.1505 15.7046 13.1492L15.7082 13.1424ZM18.2666 9.56747C18.2707 9.29024 18.0431 9.05489 17.7658 9.04851C17.4886 9.0426 17.251 9.26793 17.2428 9.54471C17.2346 9.82922 17.4677 10.0705 17.7517 10.0723C18.0294 10.0741 18.263 9.84516 18.2666 9.56747ZM17.7517 12.1213C18.029 12.1231 18.263 11.8941 18.2671 11.6169C18.2711 11.3397 18.044 11.1039 17.7668 11.0975C17.4827 11.0911 17.2423 11.3265 17.2433 11.6101C17.2437 11.8882 17.4741 12.1195 17.7517 12.1213ZM18.2666 15.7116C18.2698 15.4344 18.0417 15.1995 17.7645 15.1945C17.4868 15.1895 17.2501 15.4153 17.2428 15.6921C17.2355 15.9761 17.4695 16.2174 17.7536 16.2179C18.0312 16.2188 18.2639 15.9893 18.2666 15.7116ZM18.2666 13.6636C18.2698 13.3864 18.0422 13.1515 17.7649 13.146C17.4877 13.1405 17.2505 13.3663 17.2428 13.6431C17.2351 13.9272 17.469 14.1684 17.7531 14.1693C18.0308 14.1707 18.2634 13.9413 18.2666 13.6636ZM17.7526 18.2668C18.0303 18.2677 18.263 18.0388 18.2666 17.7611C18.2702 17.4838 18.0426 17.2485 17.7654 17.243C17.4813 17.2371 17.2419 17.4729 17.2433 17.757C17.2446 18.0347 17.4754 18.2655 17.7526 18.2668ZM18.2666 19.795C18.262 19.5178 18.0285 19.2893 17.7508 19.2915C17.4736 19.2934 17.2428 19.526 17.2428 19.8028C17.2428 20.0873 17.4832 20.3217 17.7672 20.3149C18.0444 20.3085 18.2712 20.0727 18.2666 19.795Z" fill="#167952"/>
<path d="M8.79115 24.4756C8.36461 24.4774 7.93761 24.4843 7.51106 24.4793C7.22108 24.4761 7.01122 24.2585 7.00075 23.968C6.99939 23.9284 7.0003 23.8884 7.0003 23.8488C7.0003 19.8091 7.0003 15.769 7.0003 11.7293C7.0003 11.2841 7.18648 11.0984 7.63169 11.0979C8.95731 11.097 10.2829 11.0956 11.609 11.0947C11.609 15.555 11.609 20.0158 11.6085 24.4761C11.0122 24.4761 10.4154 24.4761 9.81905 24.4761C9.81905 24.2658 9.81951 24.0554 9.81951 23.8451C9.81951 23.2028 9.8186 22.5609 9.81996 21.9186C9.82042 21.6905 9.74531 21.5057 9.53363 21.3974C9.17627 21.2148 8.79434 21.4707 8.79206 21.9013C8.78751 22.7594 8.7907 23.6175 8.79115 24.4756ZM9.29645 16.2183C9.5746 16.2228 9.8104 15.9943 9.81541 15.7148C9.82042 15.4362 9.59189 15.1995 9.31284 15.1949C9.0347 15.1904 8.79889 15.4189 8.79343 15.698C8.78888 15.9761 9.01831 16.2137 9.29645 16.2183ZM9.81541 13.6595C9.81632 13.3804 9.58461 13.1473 9.30601 13.1464C9.02787 13.1455 8.79434 13.3786 8.79388 13.6567C8.79297 13.9349 9.02559 14.1693 9.30374 14.1698C9.58188 14.1707 9.8145 13.9385 9.81541 13.6595ZM9.29782 17.2435C9.01968 17.2476 8.78933 17.4843 8.79388 17.762C8.79844 18.041 9.03424 18.2709 9.31193 18.2668C9.59053 18.2627 9.81996 18.0264 9.81587 17.7478C9.81131 17.4683 9.57642 17.2394 9.29782 17.2435ZM9.81541 19.7959C9.81086 19.5159 9.57596 19.2874 9.29736 19.292C9.01877 19.2961 8.78933 19.5332 8.79388 19.8109C8.79889 20.0904 9.0347 20.3194 9.31239 20.3153C9.59098 20.3112 9.81996 20.0745 9.81541 19.7959Z" fill="#3CCB93"/>
<path d="M14.1677 24.4773C13.8272 24.4764 13.4862 24.4755 13.1457 24.4746C13.1457 23.6274 13.1453 22.7802 13.1457 21.9326C13.1462 21.5361 13.3451 21.3399 13.7457 21.339C14.3994 21.3372 15.0536 21.3358 15.7073 21.334L15.705 21.344C15.7054 22.3874 15.7059 23.4312 15.7068 24.4746C15.5366 24.4755 15.3668 24.4764 15.1965 24.4773C15.1956 23.8468 15.196 23.2168 15.1938 22.5863C15.1929 22.3332 15.2234 22.366 14.9634 22.3637C14.7759 22.3619 14.5888 22.3619 14.4012 22.3637C14.1408 22.366 14.1713 22.3332 14.1709 22.5863C14.1681 23.2168 14.1686 23.8473 14.1677 24.4773Z" fill="#FEDC54"/>
<path d="M14.1697 9.56281C14.1683 9.84004 13.937 10.0713 13.6598 10.0727C13.3762 10.074 13.1399 9.83367 13.1459 9.55006C13.1513 9.27283 13.3867 9.04567 13.6639 9.04886C13.9416 9.05205 14.171 9.28603 14.1697 9.56281Z" fill="white"/>
<path d="M13.6556 11.0977C13.9329 11.0963 14.1664 11.3257 14.17 11.603C14.1737 11.8866 13.9356 12.1251 13.652 12.1215C13.3748 12.1183 13.1453 11.8847 13.1462 11.6075C13.1472 11.3298 13.378 11.099 13.6556 11.0977Z" fill="white"/>
<path d="M14.1696 15.6983C14.1737 15.9751 13.9465 16.2118 13.6697 16.2182C13.3861 16.225 13.1453 15.9892 13.1458 15.7056C13.1462 15.4283 13.3766 15.1962 13.6538 15.1944C13.9315 15.1921 14.1655 15.4211 14.1696 15.6983Z" fill="white"/>
<path d="M14.1696 13.6563C14.1701 13.9335 13.9402 14.1666 13.6629 14.1693C13.3793 14.1725 13.1417 13.934 13.1458 13.6499C13.1494 13.3727 13.3834 13.1437 13.6607 13.1455C13.9384 13.1473 14.1692 13.3795 14.1696 13.6563Z" fill="white"/>
<path d="M13.6649 18.267C13.3881 18.2706 13.1523 18.0425 13.1463 17.7658C13.1404 17.4817 13.3758 17.2423 13.6598 17.2432C13.9371 17.2441 14.1688 17.4753 14.1702 17.7526C14.1711 18.0293 13.9416 18.2633 13.6649 18.267Z" fill="white"/>
<path d="M14.1697 19.8064C14.1683 20.0837 13.9366 20.3149 13.6594 20.3158C13.3757 20.3167 13.1399 20.0768 13.1459 19.7928C13.1518 19.5156 13.3871 19.2884 13.6644 19.292C13.9416 19.2957 14.1715 19.5292 14.1697 19.8064Z" fill="white"/>
<path d="M15.7084 10.076C15.3834 10.0328 15.1904 9.83519 15.1949 9.55204C15.1995 9.27618 15.3911 9.0868 15.7084 9.04492L15.7048 9.05175C15.7048 9.39089 15.7048 9.73004 15.7048 10.0692L15.7084 10.076Z" fill="white"/>
<path d="M15.7084 12.1248C15.3834 12.0816 15.1904 11.884 15.1949 11.6009C15.1995 11.325 15.3911 11.1356 15.7084 11.0938L15.7048 11.1006C15.7048 11.4397 15.7048 11.7789 15.7048 12.118L15.7084 12.1248Z" fill="white"/>
<path d="M15.7084 20.3192C15.3834 20.2759 15.1904 20.0784 15.1949 19.7952C15.1995 19.5193 15.3911 19.33 15.7084 19.2881L15.7048 19.2949C15.7048 19.6341 15.7048 19.9732 15.7048 20.3123L15.7084 20.3192Z" fill="white"/>
<path d="M15.7084 14.1737C15.3834 14.1304 15.1904 13.9328 15.1949 13.6497C15.1995 13.3738 15.3911 13.1845 15.7084 13.1426L15.7048 13.1494C15.7048 13.4885 15.7048 13.8277 15.7048 14.1668L15.7084 14.1737Z" fill="white"/>
<path d="M15.7084 16.2215C15.3834 16.1783 15.1904 15.9807 15.1949 15.6976C15.1995 15.4217 15.3911 15.2323 15.7084 15.1904L15.7048 15.1973C15.7048 15.5364 15.7048 15.8755 15.7048 16.2147L15.7084 16.2215Z" fill="white"/>
<path d="M15.7084 18.2703C15.3834 18.2271 15.1904 18.0295 15.1949 17.7464C15.1995 17.4705 15.3911 17.2811 15.7084 17.2393L15.7048 17.2461C15.7048 17.5852 15.7048 17.9244 15.7048 18.2635L15.7084 18.2703Z" fill="white"/>
<path d="M19.8062 11.0957C21.1486 11.0962 22.4911 11.0962 23.8335 11.0966C24.2132 11.0966 24.4126 11.2937 24.4126 11.6707C24.4126 15.749 24.4126 19.8278 24.4126 23.9062C24.4126 24.2822 24.2127 24.4807 23.8335 24.4802C23.4298 24.4798 23.026 24.4766 22.6222 24.4748C22.6222 23.6449 22.6222 22.8155 22.6213 21.9856C22.6213 21.9119 22.6204 21.8372 22.6085 21.7648C22.5707 21.5313 22.375 21.356 22.1419 21.3401C21.9175 21.3251 21.6994 21.4685 21.6252 21.682C21.5929 21.7748 21.5938 21.8718 21.5938 21.9688C21.5938 22.8041 21.5938 23.6394 21.5934 24.4752C20.997 24.4752 20.4007 24.4752 19.8039 24.4757C19.8034 20.0386 19.803 15.602 19.803 11.1649C19.8039 11.1412 19.8053 11.1185 19.8062 11.0957ZM22.6185 15.6985C22.6144 15.4199 22.3832 15.1923 22.1055 15.1936C21.8283 15.1955 21.5984 15.4263 21.5975 15.7039C21.5966 15.988 21.8365 16.2238 22.1196 16.217C22.3973 16.2111 22.6222 15.9771 22.6185 15.6985ZM22.1105 14.1694C22.3882 14.168 22.6172 13.9377 22.6185 13.6591C22.6195 13.3809 22.3918 13.1488 22.1142 13.1456C21.8306 13.1424 21.5929 13.38 21.597 13.6641C21.6011 13.9418 21.8337 14.1707 22.1105 14.1694ZM22.1096 18.2664C22.3873 18.2655 22.6167 18.0356 22.6181 17.757C22.6195 17.4789 22.3923 17.2467 22.1146 17.2431C21.831 17.2394 21.5934 17.4771 21.597 17.7607C21.6007 18.0379 21.8328 18.2673 22.1096 18.2664ZM22.1019 20.3149C22.3796 20.3181 22.6122 20.0919 22.6181 19.8133C22.624 19.5351 22.4 19.2993 22.1219 19.2916C21.8378 19.2834 21.5975 19.5169 21.5966 19.8014C21.5961 20.0787 21.8251 20.3113 22.1019 20.3149Z" fill="#3CCB93"/>
<path d="M15.7069 24.4755C15.7064 23.4321 15.706 22.3883 15.7051 21.3449C16.3979 21.3431 17.0908 21.339 17.7832 21.3417C18.0577 21.3426 18.2657 21.5671 18.2662 21.852C18.268 22.7265 18.2666 23.601 18.2666 24.4755C17.9257 24.476 17.5842 24.4764 17.2433 24.4764C17.2428 23.8295 17.2396 23.1822 17.2451 22.5353C17.246 22.4083 17.2214 22.3532 17.0794 22.361C16.8472 22.3733 16.6137 22.3733 16.3815 22.361C16.2395 22.3532 16.2145 22.4083 16.2158 22.5353C16.2213 23.1822 16.2177 23.8295 16.2177 24.4769C16.0474 24.476 15.8772 24.476 15.7069 24.4755Z" fill="#FEB354"/>
<path d="M18.2667 9.56692C18.2626 9.84461 18.0295 10.0731 17.7518 10.0718C17.4678 10.0704 17.2347 9.82868 17.2429 9.54416C17.2511 9.26738 17.4887 9.04205 17.7659 9.04797C18.0436 9.05434 18.2708 9.28969 18.2667 9.56692Z" fill="white"/>
<path d="M17.7519 12.1211C17.4742 12.1193 17.2439 11.8881 17.2434 11.6104C17.2425 11.3263 17.4829 11.091 17.7669 11.0978C18.0442 11.1042 18.2713 11.3395 18.2672 11.6172C18.2627 11.894 18.0291 12.1225 17.7519 12.1211Z" fill="white"/>
<path d="M18.2666 15.7111C18.2635 15.9888 18.0313 16.2182 17.7536 16.2178C17.4695 16.2173 17.2356 15.9761 17.2428 15.692C17.2501 15.4152 17.4868 15.189 17.7645 15.1944C18.0418 15.199 18.2698 15.4339 18.2666 15.7111Z" fill="white"/>
<path d="M18.2666 13.6632C18.2635 13.9409 18.0304 14.1699 17.7531 14.169C17.4691 14.168 17.2356 13.9268 17.2428 13.6427C17.2501 13.3659 17.4873 13.1401 17.765 13.1456C18.0427 13.1511 18.2703 13.386 18.2666 13.6632Z" fill="white"/>
<path d="M17.7528 18.2671C17.4755 18.2662 17.2443 18.0349 17.2429 17.7572C17.2416 17.4732 17.481 17.2374 17.7651 17.2433C18.0423 17.2487 18.2699 17.4841 18.2663 17.7613C18.2635 18.039 18.0305 18.268 17.7528 18.2671Z" fill="white"/>
<path d="M18.2667 19.795C18.2713 20.0723 18.0446 20.3085 17.7673 20.3154C17.4833 20.3222 17.2429 20.0873 17.2429 19.8032C17.2429 19.526 17.4737 19.2938 17.751 19.292C18.0286 19.2893 18.2626 19.5178 18.2667 19.795Z" fill="white"/>
<path d="M15.7046 12.118C15.7046 11.7789 15.7046 11.4397 15.7046 11.1006C16.0087 11.102 16.219 11.31 16.219 11.6091C16.2185 11.9082 16.0082 12.1162 15.7046 12.118Z" fill="white"/>
<path d="M15.7046 14.1668C15.7046 13.8277 15.7046 13.4886 15.7046 13.1494C16.0087 13.1508 16.219 13.3588 16.219 13.6579C16.2185 13.957 16.0082 14.165 15.7046 14.1668Z" fill="white"/>
<path d="M15.7046 16.2157C15.7046 15.8765 15.7046 15.5374 15.7046 15.1982C16.0087 15.1996 16.219 15.4076 16.219 15.7067C16.2185 16.0058 16.0082 16.2139 15.7046 16.2157Z" fill="white"/>
<path d="M15.7046 10.0692C15.7046 9.73004 15.7046 9.3909 15.7046 9.05176C16.0087 9.05312 16.219 9.26116 16.219 9.56024C16.2185 9.85933 16.0082 10.0674 15.7046 10.0692Z" fill="white"/>
<path d="M15.7046 20.3123C15.7046 19.9732 15.7046 19.6341 15.7046 19.2949C16.0087 19.2963 16.219 19.5043 16.219 19.8034C16.2185 20.1025 16.0082 20.3105 15.7046 20.3123Z" fill="white"/>
<path d="M15.7046 18.2635C15.7046 17.9244 15.7046 17.5852 15.7046 17.2461C16.0087 17.2475 16.219 17.4555 16.219 17.7546C16.2185 18.0537 16.0082 18.2617 15.7046 18.2635Z" fill="white"/>
<path d="M8.79117 24.4748C8.79117 23.6167 8.78753 22.7586 8.79208 21.9005C8.79436 21.4699 9.17629 21.214 9.53365 21.3966C9.74533 21.5044 9.82044 21.6897 9.81998 21.9178C9.81862 22.5601 9.81953 23.202 9.81953 23.8443C9.81953 24.0546 9.81907 24.2649 9.81907 24.4752C9.47629 24.4748 9.1335 24.4748 8.79117 24.4748Z" fill="#F9D858"/>
<path d="M21.5938 24.4751C21.5938 23.6397 21.5942 22.8044 21.5942 21.9686C21.5942 21.8716 21.5933 21.7747 21.6256 21.6818C21.6998 21.4683 21.9179 21.3249 22.1423 21.3399C22.3754 21.3554 22.5711 21.5307 22.6089 21.7647C22.6207 21.8371 22.6212 21.9117 22.6216 21.9855C22.6226 22.8153 22.6226 23.6447 22.6226 24.4746C22.2793 24.4751 21.9365 24.4751 21.5938 24.4751Z" fill="#F7B055"/>
<path d="M16.2177 24.476C16.2181 23.8286 16.2213 23.1818 16.2158 22.5344C16.2149 22.4074 16.2395 22.3523 16.3815 22.3601C16.6137 22.3724 16.8472 22.3724 17.0794 22.3601C17.2214 22.3523 17.246 22.4074 17.2451 22.5344C17.2396 23.1813 17.2433 23.8286 17.2433 24.4755C16.9019 24.476 16.5595 24.476 16.2177 24.476Z" fill="white"/>
<path d="M14.1677 24.4783C14.1686 23.8478 14.1682 23.2177 14.1705 22.5873C14.1714 22.3341 14.1409 22.3669 14.4008 22.3646C14.5884 22.3628 14.7755 22.3628 14.963 22.3646C15.2234 22.3669 15.1924 22.3341 15.1933 22.5873C15.1956 23.2177 15.1952 23.8478 15.1961 24.4783C14.8537 24.4783 14.5105 24.4783 14.1677 24.4783Z" fill="white"/>
<path d="M9.29659 16.2173C9.01845 16.2128 8.78902 15.9751 8.79403 15.6974C8.79903 15.4184 9.0353 15.1894 9.31344 15.1944C9.59249 15.199 9.82101 15.4357 9.81601 15.7143C9.81054 15.9938 9.57519 16.2219 9.29659 16.2173Z" fill="white"/>
<path d="M9.81544 13.6591C9.81453 13.9381 9.58191 14.1703 9.30331 14.1698C9.02562 14.1694 8.793 13.9349 8.79346 13.6568C8.79437 13.3782 9.02744 13.1456 9.30559 13.1465C9.58464 13.1465 9.81635 13.38 9.81544 13.6591Z" fill="white"/>
<path d="M9.2979 17.2432C9.5765 17.2391 9.81139 17.4681 9.81549 17.7476C9.81959 18.0262 9.59061 18.2625 9.31156 18.2666C9.03387 18.2707 8.79806 18.0412 8.79351 17.7617C8.78941 17.484 9.01976 17.2473 9.2979 17.2432Z" fill="white"/>
<path d="M9.81554 19.796C9.82009 20.0746 9.59111 20.3108 9.31251 20.3154C9.03483 20.3199 8.79902 20.0905 8.79401 19.811C8.78946 19.5333 9.01889 19.2961 9.29749 19.292C9.57609 19.2879 9.81099 19.5165 9.81554 19.796Z" fill="white"/>
<path d="M22.6187 15.6987C22.6228 15.9769 22.3975 16.2113 22.1198 16.2177C21.8367 16.2241 21.5967 15.9887 21.5977 15.7047C21.5986 15.427 21.8285 15.1957 22.1057 15.1943C22.3829 15.1925 22.6142 15.4201 22.6187 15.6987Z" fill="white"/>
<path d="M22.1107 14.1693C21.8339 14.1707 21.6013 13.9417 21.5972 13.664C21.5931 13.3804 21.8303 13.1424 22.1144 13.1455C22.392 13.1487 22.6197 13.3809 22.6187 13.659C22.6174 13.9376 22.3879 14.168 22.1107 14.1693Z" fill="white"/>
<path d="M22.1098 18.267C21.833 18.2679 21.6009 18.0389 21.5972 17.7608C21.5936 17.4772 21.8312 17.2396 22.1148 17.2432C22.3925 17.2468 22.6201 17.479 22.6183 17.7572C22.6169 18.0358 22.3875 18.2661 22.1098 18.267Z" fill="white"/>
<path d="M22.102 20.3155C21.8252 20.3124 21.5963 20.0793 21.5972 19.8021C21.5981 19.5175 21.8384 19.284 22.1225 19.2922C22.4002 19.2999 22.6246 19.5357 22.6187 19.8139C22.6123 20.0925 22.3797 20.3187 22.102 20.3155Z" fill="white"/>
</svg>
