<svg width="23" height="23" viewBox="0 0 23 23" fill="none" xmlns="http://www.w3.org/2000/svg">
<path d="M22.2312 10.7513C22.2312 11.2995 22.2312 11.8477 22.2312 12.3958C22.165 12.4197 22.192 12.4779 22.1883 12.5218C22.1497 12.9345 22.0936 13.3451 22.0047 13.7493C21.4772 16.1605 20.2925 18.1929 18.3977 19.7744C15.7283 22.002 12.6556 22.7904 9.2481 22.1147C6.85806 21.6412 4.84158 20.4501 3.27643 18.5807C0.739295 15.5505 -0.053329 12.0789 1.17053 8.32108C2.54095 4.11456 5.53684 1.64832 9.90421 0.870515C10.1333 0.829773 10.3725 0.850938 10.5926 0.757812C11.1408 0.757812 11.6889 0.757812 12.2371 0.757812C12.2477 0.804904 12.2858 0.796968 12.3191 0.799613C13.1123 0.856758 13.888 1.0102 14.6446 1.25148C18.6353 2.52402 21.4925 5.88024 22.1185 10.0196C22.1555 10.2635 22.1465 10.5148 22.2312 10.7513ZM11.4424 19.3078C11.618 19.3078 11.7937 19.3136 11.9688 19.3062C12.1228 19.2993 12.2773 19.2839 12.4297 19.2617C14.642 18.9353 16.4098 17.8659 17.7617 16.0886C17.9024 15.9034 17.9231 15.7261 17.8744 15.523C17.8299 15.3383 17.7574 15.1653 17.658 15.0012C17.3415 14.4811 16.8802 14.1181 16.3616 13.8276C14.9161 13.0176 13.3467 12.626 11.7038 12.5345C10.6497 12.4757 9.62166 12.6795 8.61263 12.9678C7.57555 13.2641 6.57657 13.6488 5.75008 14.3716C5.34054 14.7298 5.02571 15.1531 4.97068 15.7219C4.96116 15.8182 4.97597 15.8965 5.03523 15.9764C6.62736 18.1331 8.76025 19.2522 11.4424 19.3078ZM11.4244 10.4688C13.2509 10.482 14.6711 9.07296 14.6774 7.24114C14.6838 5.42202 13.2858 4.01403 11.4588 4.0008C9.62484 3.98704 8.21473 5.37704 8.19515 7.21733C8.1761 9.03751 9.58409 10.4556 11.4244 10.4688Z" fill="#383874"/>
<path d="M11.4426 19.3083C8.76051 19.2527 6.62762 18.1336 5.03443 15.9774C4.9757 15.8976 4.96089 15.8192 4.96988 15.7229C5.02491 15.1536 5.33974 14.7308 5.74928 14.3726C6.57629 13.6493 7.57475 13.2652 8.61182 12.9689C9.62139 12.6805 10.6495 12.4768 11.703 12.5355C13.3459 12.6271 14.9153 13.0186 16.3608 13.8287C16.8794 14.1192 17.3407 14.4822 17.6572 15.0023C17.7572 15.1663 17.8297 15.3393 17.8736 15.524C17.9222 15.7272 17.9016 15.9044 17.7609 16.0896C16.409 17.8669 14.6412 18.9363 12.4289 19.2628C12.2765 19.2855 12.122 19.3009 11.968 19.3072C11.794 19.3141 11.6183 19.3083 11.4426 19.3083Z" fill="#FDFDFD"/>
<path d="M11.4245 10.4681C9.58422 10.4548 8.17623 9.0368 8.1958 7.21662C8.21538 5.37634 9.62549 3.98687 11.4594 4.00009C13.286 4.01385 14.6844 5.42131 14.6781 7.24044C14.6712 9.07225 13.2505 10.4813 11.4245 10.4681Z" fill="#FDFDFD"/>
</svg>
