<svg width="890" height="202" viewBox="0 0 890 202" fill="none" xmlns="http://www.w3.org/2000/svg">
<rect width="890" height="202" rx="19.6362" fill="#3CCB93"/>
<path d="M53.0013 62.6239C53.2481 62.6688 53.5511 62.7137 53.9102 62.7586C54.2692 62.781 54.6058 62.7922 54.92 62.7922C55.683 62.7922 56.3787 62.68 57.0071 62.4556C57.6579 62.2312 58.2077 61.8834 58.6565 61.4121C59.1278 60.9408 59.4868 60.3349 59.7337 59.5944C60.003 58.8313 60.1376 57.9225 60.1376 56.8677C60.1376 54.848 59.6664 53.3332 58.7238 52.3234C57.7813 51.291 56.5246 50.7749 54.9537 50.7749C54.6395 50.7749 54.3141 50.7861 53.9775 50.8086C53.6633 50.831 53.3379 50.8647 53.0013 50.9095V62.6239ZM54.8864 67.5386C54.5049 67.5386 54.0672 67.5274 53.5735 67.5049C53.0798 67.4825 52.5637 67.4376 52.0251 67.3703C51.5089 67.303 50.9816 67.2132 50.443 67.101C49.9268 67.0112 49.4443 66.8766 48.9955 66.697C47.7612 66.2258 47.1441 65.4067 47.1441 64.2397V48.5195C47.1441 48.0483 47.2675 47.6892 47.5144 47.4424C47.7837 47.1731 48.1427 46.9599 48.5916 46.8028C49.5565 46.4886 50.5776 46.2866 51.6548 46.1969C52.732 46.0847 53.697 46.0286 54.5497 46.0286C56.3002 46.0286 57.8823 46.2417 59.2961 46.6681C60.7323 47.0945 61.9554 47.7565 62.9652 48.6542C63.9975 49.5294 64.7942 50.6402 65.3552 51.9867C65.9163 53.3332 66.1968 54.9265 66.1968 56.7667C66.1968 58.562 65.9275 60.1329 65.3889 61.4794C64.8503 62.8035 64.0761 63.9255 63.0662 64.8456C62.0788 65.7433 60.8894 66.4165 59.4981 66.8654C58.1067 67.3142 56.5695 67.5386 54.8864 67.5386ZM86.0579 58.8201C86.0579 60.2115 85.8447 61.457 85.4184 62.5566C84.992 63.6338 84.386 64.5427 83.6006 65.2832C82.8376 66.0238 81.9175 66.5848 80.8403 66.9663C79.7631 67.3478 78.5625 67.5386 77.2385 67.5386C75.9144 67.5386 74.7138 67.3366 73.6366 66.9327C72.5595 66.5287 71.6281 65.9565 70.8427 65.2159C70.0797 64.4529 69.485 63.5328 69.0586 62.4556C68.6322 61.3784 68.419 60.1666 68.419 58.8201C68.419 57.4961 68.6322 56.2955 69.0586 55.2183C69.485 54.1411 70.0797 53.2322 70.8427 52.4917C71.6281 51.7287 72.5595 51.1452 73.6366 50.7412C74.7138 50.3373 75.9144 50.1353 77.2385 50.1353C78.5625 50.1353 79.7631 50.3485 80.8403 50.7749C81.9175 51.1788 82.8376 51.7623 83.6006 52.5253C84.386 53.2659 84.992 54.1748 85.4184 55.2519C85.8447 56.3291 86.0579 57.5185 86.0579 58.8201ZM74.2762 58.8201C74.2762 60.189 74.5343 61.2438 75.0504 61.9844C75.589 62.7025 76.3296 63.0615 77.2721 63.0615C78.2147 63.0615 78.9328 62.6913 79.4265 61.9507C79.9427 61.2101 80.2007 60.1666 80.2007 58.8201C80.2007 57.4736 79.9427 56.4413 79.4265 55.7232C78.9104 54.9827 78.181 54.6124 77.2385 54.6124C76.2959 54.6124 75.5666 54.9827 75.0504 55.7232C74.5343 56.4413 74.2762 57.4736 74.2762 58.8201ZM98.1471 62.8259C97.9002 62.2649 97.6309 61.6365 97.3392 60.9408C97.0699 60.2452 96.7781 59.4485 96.464 58.5508C96.1722 57.6532 95.8581 56.6321 95.5214 55.4876C95.2073 54.3206 94.8706 52.9854 94.5116 51.4818C94.8257 51.1676 95.2409 50.8983 95.7571 50.6739C96.2957 50.4271 96.8791 50.3036 97.5075 50.3036C98.2929 50.3036 98.9437 50.4719 99.4599 50.8086C99.976 51.1227 100.358 51.7287 100.604 52.6263L103.264 61.8834H103.398C103.668 61.1204 103.926 60.29 104.173 59.3924C104.442 58.4947 104.7 57.5746 104.947 56.6321C105.194 55.6671 105.418 54.7134 105.62 53.7708C105.844 52.8058 106.035 51.8633 106.192 50.9432C107 50.5168 107.887 50.3036 108.852 50.3036C109.637 50.3036 110.288 50.4719 110.804 50.8086C111.32 51.1452 111.578 51.7287 111.578 52.559C111.578 53.1649 111.5 53.8718 111.343 54.6797C111.185 55.4651 110.972 56.3067 110.703 57.2043C110.456 58.102 110.153 59.0333 109.794 59.9983C109.458 60.9408 109.098 61.8721 108.717 62.7922C108.335 63.7123 107.943 64.5876 107.539 65.4179C107.135 66.2258 106.742 66.9551 106.361 67.6059C105.732 68.7055 105.149 69.6032 104.61 70.2989C104.072 70.9946 103.555 71.5332 103.062 71.9147C102.568 72.3186 102.074 72.5879 101.581 72.7225C101.087 72.8796 100.571 72.9582 100.032 72.9582C99.0896 72.9582 98.3266 72.6777 97.7431 72.1166C97.1597 71.5556 96.8118 70.8263 96.6996 69.9286C97.4177 69.3676 98.1358 68.7392 98.854 68.0435C99.5721 67.3703 100.223 66.6746 100.806 65.9565C100.425 65.8443 100.01 65.5862 99.5609 65.1822C99.1345 64.7559 98.6632 63.9704 98.1471 62.8259ZM130.897 58.8201C130.897 60.2115 130.684 61.457 130.257 62.5566C129.831 63.6338 129.225 64.5427 128.439 65.2832C127.676 66.0238 126.756 66.5848 125.679 66.9663C124.602 67.3478 123.401 67.5386 122.077 67.5386C120.753 67.5386 119.553 67.3366 118.476 66.9327C117.398 66.5287 116.467 65.9565 115.682 65.2159C114.919 64.4529 114.324 63.5328 113.897 62.4556C113.471 61.3784 113.258 60.1666 113.258 58.8201C113.258 57.4961 113.471 56.2955 113.897 55.2183C114.324 54.1411 114.919 53.2322 115.682 52.4917C116.467 51.7287 117.398 51.1452 118.476 50.7412C119.553 50.3373 120.753 50.1353 122.077 50.1353C123.401 50.1353 124.602 50.3485 125.679 50.7749C126.756 51.1788 127.676 51.7623 128.439 52.5253C129.225 53.2659 129.831 54.1748 130.257 55.2519C130.684 56.3291 130.897 57.5185 130.897 58.8201ZM119.115 58.8201C119.115 60.189 119.373 61.2438 119.889 61.9844C120.428 62.7025 121.168 63.0615 122.111 63.0615C123.054 63.0615 123.772 62.6913 124.265 61.9507C124.782 61.2101 125.04 60.1666 125.04 58.8201C125.04 57.4736 124.782 56.4413 124.265 55.7232C123.749 54.9827 123.02 54.6124 122.077 54.6124C121.135 54.6124 120.405 54.9827 119.889 55.7232C119.373 56.4413 119.115 57.4736 119.115 58.8201ZM133.689 50.8759C133.913 50.8086 134.261 50.7412 134.732 50.6739C135.226 50.6066 135.731 50.5729 136.247 50.5729C136.741 50.5729 137.178 50.6066 137.56 50.6739C137.964 50.7412 138.3 50.8759 138.57 51.0779C138.839 51.2798 139.041 51.5603 139.176 51.9194C139.333 52.256 139.411 52.7049 139.411 53.2659V60.5032C139.411 61.4233 139.636 62.0853 140.084 62.4893C140.533 62.8708 141.184 63.0615 142.037 63.0615C142.553 63.0615 142.968 63.0167 143.282 62.9269C143.619 62.8371 143.877 62.7474 144.057 62.6576V50.8759C144.281 50.8086 144.629 50.7412 145.1 50.6739C145.594 50.6066 146.099 50.5729 146.615 50.5729C147.109 50.5729 147.546 50.6066 147.928 50.6739C148.332 50.7412 148.668 50.8759 148.938 51.0779C149.207 51.2798 149.409 51.5603 149.543 51.9194C149.701 52.256 149.779 52.7049 149.779 53.2659V63.4991C149.779 64.6212 149.308 65.4628 148.365 66.0238C147.58 66.5175 146.637 66.8878 145.538 67.1346C144.461 67.4039 143.282 67.5386 142.003 67.5386C140.791 67.5386 139.669 67.4039 138.637 67.1346C137.627 66.8654 136.752 66.4502 136.011 65.8892C135.271 65.3281 134.699 64.61 134.295 63.7348C133.891 62.8371 133.689 61.7599 133.689 60.5032V50.8759ZM169.344 66.4951C169.03 66.7644 168.604 66.9776 168.065 67.1346C167.527 67.3142 166.887 67.4039 166.146 67.4039C165.226 67.4039 164.43 67.2693 163.756 67C163.083 66.7531 162.634 66.3941 162.41 65.9228C162.163 65.3842 161.871 64.5315 161.535 63.3645C161.221 62.1975 160.906 60.9184 160.592 59.527C160.278 58.1357 159.975 56.7219 159.683 55.2856C159.414 53.8494 159.201 52.5814 159.044 51.4818C159.358 51.1676 159.773 50.8983 160.289 50.6739C160.828 50.4271 161.411 50.3036 162.04 50.3036C162.825 50.3036 163.465 50.4832 163.958 50.8422C164.475 51.1788 164.789 51.7735 164.901 52.6263C165.125 54.3319 165.316 55.7457 165.473 56.8677C165.63 57.9674 165.754 58.8762 165.844 59.5944C165.956 60.29 166.034 60.8286 166.079 61.2101C166.146 61.5692 166.203 61.8609 166.247 62.0853H166.382C166.449 61.7263 166.562 61.2101 166.719 60.5369C166.898 59.8412 167.1 59.0558 167.325 58.1805C167.549 57.3053 167.785 56.3628 168.032 55.3529C168.278 54.3206 168.525 53.2996 168.772 52.2897C169.221 52.0428 169.659 51.8521 170.085 51.7174C170.534 51.5828 171.084 51.5155 171.734 51.5155C172.52 51.5155 173.193 51.6389 173.754 51.8857C174.315 52.1326 174.674 52.5141 174.831 53.0303C175.101 54.0177 175.359 54.9827 175.606 55.9252C175.852 56.8453 176.077 57.7093 176.279 58.5172C176.481 59.3026 176.66 60.0095 176.817 60.6379C176.974 61.2438 177.087 61.7263 177.154 62.0853H177.322C177.569 60.3574 177.805 58.562 178.029 56.6994C178.276 54.8368 178.5 52.9405 178.702 51.0105C179.106 50.7637 179.533 50.5841 179.982 50.4719C180.43 50.3597 180.879 50.3036 181.328 50.3036C182.114 50.3036 182.764 50.4719 183.28 50.8086C183.797 51.1452 184.055 51.7287 184.055 52.559C184.055 52.918 183.999 53.4566 183.886 54.1748C183.774 54.8929 183.628 55.7008 183.449 56.5984C183.269 57.4961 183.056 58.4386 182.809 59.426C182.585 60.4135 182.349 61.3672 182.102 62.2873C181.878 63.2074 181.653 64.0377 181.429 64.7783C181.227 65.5189 181.048 66.0911 180.89 66.4951C180.576 66.7644 180.094 66.9776 179.443 67.1346C178.792 67.3142 178.097 67.4039 177.356 67.4039C175.471 67.4039 174.36 66.9327 174.023 65.9901C173.889 65.5862 173.72 65.0813 173.518 64.4753C173.317 63.847 173.103 63.1625 172.879 62.422C172.654 61.6814 172.441 60.9184 172.239 60.1329C172.037 59.3251 171.869 58.5508 171.734 57.8103C171.577 58.5957 171.387 59.4148 171.162 60.2676C170.938 61.0979 170.702 61.917 170.455 62.7249C170.231 63.5104 170.018 64.2397 169.816 64.913C169.614 65.5638 169.457 66.0911 169.344 66.4951ZM193.649 63.3645C194.03 63.3645 194.446 63.3308 194.894 63.2635C195.366 63.1737 195.714 63.0615 195.938 62.9269V60.2339L193.514 60.4359C192.886 60.4808 192.37 60.6154 191.966 60.8398C191.562 61.0643 191.36 61.4009 191.36 61.8497C191.36 62.2985 191.528 62.6688 191.865 62.9606C192.224 63.2299 192.819 63.3645 193.649 63.3645ZM193.38 50.1353C194.591 50.1353 195.691 50.2587 196.678 50.5056C197.688 50.7525 198.541 51.134 199.237 51.6501C199.955 52.1438 200.505 52.7834 200.886 53.5688C201.268 54.3319 201.458 55.2407 201.458 56.2955V63.8358C201.458 64.4192 201.29 64.9017 200.954 65.2832C200.639 65.6423 200.258 65.9565 199.809 66.2258C198.35 67.101 196.297 67.5386 193.649 67.5386C192.46 67.5386 191.382 67.4264 190.417 67.202C189.475 66.9776 188.656 66.6409 187.96 66.1921C187.287 65.7433 186.759 65.171 186.378 64.4753C186.019 63.7797 185.839 62.9718 185.839 62.0517C185.839 60.5032 186.299 59.3138 187.219 58.4835C188.14 57.6532 189.565 57.137 191.495 56.9351L195.904 56.4638V56.2281C195.904 55.5773 195.613 55.1173 195.029 54.848C194.468 54.5563 193.649 54.4104 192.572 54.4104C191.719 54.4104 190.889 54.5002 190.081 54.6797C189.273 54.8592 188.543 55.0836 187.893 55.3529C187.601 55.151 187.354 54.848 187.152 54.4441C186.95 54.0177 186.849 53.5801 186.849 53.1312C186.849 52.5478 186.984 52.0877 187.253 51.7511C187.545 51.392 187.982 51.0891 188.566 50.8422C189.217 50.5954 189.98 50.4158 190.855 50.3036C191.753 50.1914 192.594 50.1353 193.38 50.1353ZM215.325 56.6321C215.325 55.9364 215.123 55.4315 214.719 55.1173C214.338 54.7807 213.811 54.6124 213.137 54.6124C212.689 54.6124 212.24 54.6685 211.791 54.7807C211.365 54.8929 210.994 55.0612 210.68 55.2856V66.9663C210.456 67.0337 210.097 67.101 209.603 67.1683C209.132 67.2356 208.638 67.2693 208.122 67.2693C207.628 67.2693 207.179 67.2356 206.775 67.1683C206.394 67.101 206.068 66.9663 205.799 66.7644C205.53 66.5624 205.317 66.2931 205.159 65.9565C205.025 65.5974 204.958 65.1374 204.958 64.5763V54.4777C204.958 53.8718 205.081 53.3781 205.328 52.9966C205.597 52.6151 205.956 52.2672 206.405 51.9531C207.168 51.4145 208.122 50.9769 209.266 50.6402C210.433 50.3036 211.724 50.1353 213.137 50.1353C215.673 50.1353 217.626 50.6964 218.995 51.8184C220.363 52.918 221.048 54.4553 221.048 56.4301V66.9663C220.824 67.0337 220.464 67.101 219.971 67.1683C219.5 67.2356 219.006 67.2693 218.49 67.2693C217.996 67.2693 217.547 67.2356 217.143 67.1683C216.762 67.101 216.436 66.9663 216.167 66.7644C215.898 66.5624 215.684 66.2931 215.527 65.9565C215.393 65.5974 215.325 65.1374 215.325 64.5763V56.6321ZM230.305 61.3784C230.305 61.9619 230.485 62.3771 230.844 62.6239C231.225 62.8708 231.753 62.9942 232.426 62.9942C232.763 62.9942 233.11 62.9718 233.47 62.9269C233.829 62.8596 234.143 62.781 234.412 62.6913C234.614 62.9381 234.782 63.2186 234.917 63.5328C235.074 63.8245 235.153 64.1836 235.153 64.61C235.153 65.4628 234.827 66.1584 234.176 66.697C233.548 67.2356 232.426 67.5049 230.81 67.5049C228.835 67.5049 227.309 67.0561 226.232 66.1584C225.177 65.2608 224.65 63.8021 224.65 61.7824V47.375C224.897 47.3077 225.245 47.2404 225.694 47.1731C226.165 47.0833 226.659 47.0384 227.175 47.0384C228.162 47.0384 228.925 47.2179 229.464 47.577C230.025 47.9136 230.305 48.643 230.305 49.765V51.9194H234.715C234.85 52.1663 234.973 52.4804 235.085 52.8619C235.22 53.221 235.287 53.625 235.287 54.0738C235.287 54.8592 235.108 55.4315 234.749 55.7905C234.412 56.1272 233.952 56.2955 233.369 56.2955H230.305V61.3784ZM250.522 61.3784C250.522 61.9619 250.702 62.3771 251.061 62.6239C251.442 62.8708 251.97 62.9942 252.643 62.9942C252.98 62.9942 253.327 62.9718 253.686 62.9269C254.046 62.8596 254.36 62.781 254.629 62.6913C254.831 62.9381 254.999 63.2186 255.134 63.5328C255.291 63.8245 255.37 64.1836 255.37 64.61C255.37 65.4628 255.044 66.1584 254.393 66.697C253.765 67.2356 252.643 67.5049 251.027 67.5049C249.052 67.5049 247.526 67.0561 246.449 66.1584C245.394 65.2608 244.867 63.8021 244.867 61.7824V47.375C245.114 47.3077 245.462 47.2404 245.911 47.1731C246.382 47.0833 246.876 47.0384 247.392 47.0384C248.379 47.0384 249.142 47.2179 249.681 47.577C250.242 47.9136 250.522 48.643 250.522 49.765V51.9194H254.932C255.067 52.1663 255.19 52.4804 255.302 52.8619C255.437 53.221 255.504 53.625 255.504 54.0738C255.504 54.8592 255.325 55.4315 254.966 55.7905C254.629 56.1272 254.169 56.2955 253.585 56.2955H250.522V61.3784ZM275.012 58.8201C275.012 60.2115 274.799 61.457 274.373 62.5566C273.946 63.6338 273.341 64.5427 272.555 65.2832C271.792 66.0238 270.872 66.5848 269.795 66.9663C268.718 67.3478 267.517 67.5386 266.193 67.5386C264.869 67.5386 263.668 67.3366 262.591 66.9327C261.514 66.5287 260.583 65.9565 259.797 65.2159C259.034 64.4529 258.439 63.5328 258.013 62.4556C257.587 61.3784 257.374 60.1666 257.374 58.8201C257.374 57.4961 257.587 56.2955 258.013 55.2183C258.439 54.1411 259.034 53.2322 259.797 52.4917C260.583 51.7287 261.514 51.1452 262.591 50.7412C263.668 50.3373 264.869 50.1353 266.193 50.1353C267.517 50.1353 268.718 50.3485 269.795 50.7749C270.872 51.1788 271.792 51.7623 272.555 52.5253C273.341 53.2659 273.946 54.1748 274.373 55.2519C274.799 56.3291 275.012 57.5185 275.012 58.8201ZM263.231 58.8201C263.231 60.189 263.489 61.2438 264.005 61.9844C264.544 62.7025 265.284 63.0615 266.227 63.0615C267.169 63.0615 267.887 62.6913 268.381 61.9507C268.897 61.2101 269.155 60.1666 269.155 58.8201C269.155 57.4736 268.897 56.4413 268.381 55.7232C267.865 54.9827 267.136 54.6124 266.193 54.6124C265.25 54.6124 264.521 54.9827 264.005 55.7232C263.489 56.4413 263.231 57.4736 263.231 58.8201ZM290.838 60.4022V66.8654C290.591 66.9327 290.198 67 289.66 67.0673C289.144 67.1346 288.628 67.1683 288.111 67.1683C287.595 67.1683 287.135 67.1234 286.731 67.0337C286.35 66.9663 286.024 66.8317 285.755 66.6297C285.508 66.4277 285.317 66.1472 285.183 65.7882C285.048 65.4291 284.981 64.9578 284.981 64.3744V48.5195C284.981 48.0483 285.104 47.6892 285.351 47.4424C285.62 47.1731 285.979 46.9599 286.428 46.8028C287.191 46.5335 288.078 46.3427 289.088 46.2305C290.097 46.0959 291.175 46.0286 292.319 46.0286C295.416 46.0286 297.75 46.6793 299.321 47.9809C300.892 49.2825 301.677 51.0442 301.677 53.2659C301.677 54.6573 301.318 55.8466 300.6 56.8341C299.882 57.8215 299.029 58.5845 298.042 59.1231C298.85 60.2227 299.646 61.255 300.432 62.22C301.217 63.185 301.834 64.0602 302.283 64.8456C302.059 65.6311 301.644 66.237 301.038 66.6634C300.454 67.0673 299.792 67.2693 299.052 67.2693C298.558 67.2693 298.131 67.2132 297.772 67.101C297.413 66.9888 297.099 66.8317 296.83 66.6297C296.561 66.4277 296.314 66.1809 296.089 65.8892C295.865 65.5974 295.652 65.2832 295.45 64.9466L292.622 60.4022H290.838ZM292.959 55.9252C293.812 55.9252 294.485 55.712 294.978 55.2856C295.472 54.8368 295.719 54.186 295.719 53.3332C295.719 52.4804 295.439 51.8409 294.877 51.4145C294.339 50.9656 293.475 50.7412 292.286 50.7412C291.949 50.7412 291.68 50.7525 291.478 50.7749C291.276 50.7973 291.051 50.831 290.804 50.8759V55.9252H292.959ZM304.793 50.8759C305.017 50.8086 305.365 50.7412 305.837 50.6739C306.33 50.6066 306.835 50.5729 307.351 50.5729C307.845 50.5729 308.283 50.6066 308.664 50.6739C309.068 50.7412 309.405 50.8759 309.674 51.0779C309.943 51.2798 310.145 51.5603 310.28 51.9194C310.437 52.256 310.516 52.7049 310.516 53.2659V60.5032C310.516 61.4233 310.74 62.0853 311.189 62.4893C311.638 62.8708 312.288 63.0615 313.141 63.0615C313.657 63.0615 314.073 63.0167 314.387 62.9269C314.723 62.8371 314.981 62.7474 315.161 62.6576V50.8759C315.385 50.8086 315.733 50.7412 316.204 50.6739C316.698 50.6066 317.203 50.5729 317.719 50.5729C318.213 50.5729 318.651 50.6066 319.032 50.6739C319.436 50.7412 319.773 50.8759 320.042 51.0779C320.311 51.2798 320.513 51.5603 320.648 51.9194C320.805 52.256 320.884 52.7049 320.884 53.2659V63.4991C320.884 64.6212 320.412 65.4628 319.47 66.0238C318.684 66.5175 317.742 66.8878 316.642 67.1346C315.565 67.4039 314.387 67.5386 313.108 67.5386C311.896 67.5386 310.774 67.4039 309.741 67.1346C308.732 66.8654 307.856 66.4502 307.116 65.8892C306.375 65.3281 305.803 64.61 305.399 63.7348C304.995 62.8371 304.793 61.7599 304.793 60.5032V50.8759ZM334.753 56.6321C334.753 55.9364 334.551 55.4315 334.147 55.1173C333.766 54.7807 333.239 54.6124 332.565 54.6124C332.116 54.6124 331.668 54.6685 331.219 54.7807C330.792 54.8929 330.422 55.0612 330.108 55.2856V66.9663C329.884 67.0337 329.524 67.101 329.031 67.1683C328.559 67.2356 328.066 67.2693 327.55 67.2693C327.056 67.2693 326.607 67.2356 326.203 67.1683C325.822 67.101 325.496 66.9663 325.227 66.7644C324.958 66.5624 324.744 66.2931 324.587 65.9565C324.453 65.5974 324.385 65.1374 324.385 64.5763V54.4777C324.385 53.8718 324.509 53.3781 324.756 52.9966C325.025 52.6151 325.384 52.2672 325.833 51.9531C326.596 51.4145 327.55 50.9769 328.694 50.6402C329.861 50.3036 331.151 50.1353 332.565 50.1353C335.101 50.1353 337.054 50.6964 338.422 51.8184C339.791 52.918 340.476 54.4553 340.476 56.4301V66.9663C340.251 67.0337 339.892 67.101 339.399 67.1683C338.927 67.2356 338.434 67.2693 337.918 67.2693C337.424 67.2693 336.975 67.2356 336.571 67.1683C336.19 67.101 335.864 66.9663 335.595 66.7644C335.326 66.5624 335.112 66.2931 334.955 65.9565C334.821 65.5974 334.753 65.1374 334.753 64.5763V56.6321ZM356.472 61.3784C356.472 61.9619 356.652 62.3771 357.011 62.6239C357.392 62.8708 357.92 62.9942 358.593 62.9942C358.93 62.9942 359.277 62.9718 359.636 62.9269C359.995 62.8596 360.31 62.781 360.579 62.6913C360.781 62.9381 360.949 63.2186 361.084 63.5328C361.241 63.8245 361.32 64.1836 361.32 64.61C361.32 65.4628 360.994 66.1584 360.343 66.697C359.715 67.2356 358.593 67.5049 356.977 67.5049C355.002 67.5049 353.476 67.0561 352.399 66.1584C351.344 65.2608 350.817 63.8021 350.817 61.7824V47.375C351.064 47.3077 351.412 47.2404 351.86 47.1731C352.332 47.0833 352.825 47.0384 353.342 47.0384C354.329 47.0384 355.092 47.2179 355.631 47.577C356.192 47.9136 356.472 48.643 356.472 49.765V51.9194H360.882C361.017 52.1663 361.14 52.4804 361.252 52.8619C361.387 53.221 361.454 53.625 361.454 54.0738C361.454 54.8592 361.275 55.4315 360.916 55.7905C360.579 56.1272 360.119 56.2955 359.535 56.2955H356.472V61.3784ZM380.385 66.9663C380.161 67.0337 379.802 67.101 379.308 67.1683C378.837 67.2356 378.343 67.2693 377.827 67.2693C377.333 67.2693 376.885 67.2356 376.481 67.1683C376.099 67.101 375.774 66.9663 375.504 66.7644C375.235 66.5624 375.022 66.2931 374.865 65.9565C374.73 65.5974 374.663 65.1374 374.663 64.5763V57.1034C374.663 56.1833 374.427 55.5437 373.956 55.1846C373.507 54.8031 372.946 54.6124 372.273 54.6124C371.824 54.6124 371.398 54.6685 370.994 54.7807C370.59 54.8929 370.264 55.0275 370.017 55.1846V66.9663C369.793 67.0337 369.434 67.101 368.94 67.1683C368.469 67.2356 367.975 67.2693 367.459 67.2693C366.965 67.2693 366.517 67.2356 366.113 67.1683C365.731 67.101 365.406 66.9663 365.136 66.7644C364.867 66.5624 364.654 66.2931 364.497 65.9565C364.362 65.5974 364.295 65.1374 364.295 64.5763V45.0524C364.542 45.0075 364.901 44.9514 365.372 44.884C365.866 44.7943 366.36 44.7494 366.853 44.7494C367.347 44.7494 367.785 44.7831 368.166 44.8504C368.57 44.9177 368.907 45.0524 369.176 45.2543C369.445 45.4563 369.647 45.7368 369.782 46.0959C369.939 46.4325 370.017 46.8813 370.017 47.4424V50.7412C370.309 50.629 370.747 50.5056 371.33 50.371C371.936 50.2139 372.598 50.1353 373.316 50.1353C375.538 50.1353 377.266 50.6964 378.5 51.8184C379.757 52.918 380.385 54.5675 380.385 56.7667V66.9663ZM392.57 67.5386C391.246 67.5386 390.011 67.3591 388.867 67C387.745 66.6185 386.757 66.0575 385.905 65.3169C385.074 64.5763 384.412 63.645 383.919 62.5229C383.447 61.4009 383.212 60.0881 383.212 58.5845C383.212 57.1034 383.447 55.8354 383.919 54.7807C384.412 53.7035 385.052 52.8283 385.837 52.155C386.623 51.4594 387.52 50.9544 388.53 50.6402C389.54 50.3036 390.572 50.1353 391.627 50.1353C392.817 50.1353 393.894 50.3148 394.859 50.6739C395.846 51.033 396.688 51.5267 397.383 52.155C398.102 52.7834 398.651 53.5352 399.033 54.4104C399.437 55.2856 399.639 56.2394 399.639 57.2717C399.639 58.0347 399.426 58.6182 398.999 59.0221C398.573 59.426 397.978 59.6841 397.215 59.7963L388.901 61.0418C389.147 61.7824 389.652 62.3434 390.415 62.7249C391.178 63.084 392.054 63.2635 393.041 63.2635C393.961 63.2635 394.825 63.1513 395.633 62.9269C396.463 62.68 397.137 62.3995 397.653 62.0853C398.012 62.3098 398.315 62.6239 398.562 63.0279C398.808 63.4318 398.932 63.8582 398.932 64.307C398.932 65.3169 398.461 66.0687 397.518 66.5624C396.8 66.9439 395.992 67.202 395.094 67.3366C394.197 67.4713 393.355 67.5386 392.57 67.5386ZM391.627 54.3094C391.089 54.3094 390.617 54.3992 390.213 54.5787C389.832 54.7582 389.518 54.9939 389.271 55.2856C389.024 55.5549 388.833 55.8691 388.699 56.2281C388.586 56.5648 388.519 56.9126 388.497 57.2717L394.253 56.3291C394.185 55.8803 393.939 55.4315 393.512 54.9827C393.086 54.5338 392.458 54.3094 391.627 54.3094ZM417.211 56.0598C418.154 56.0598 418.872 55.8466 419.365 55.4203C419.882 54.9714 420.14 54.2982 420.14 53.4005C420.14 52.5478 419.87 51.897 419.332 51.4481C418.816 50.9769 418.053 50.7412 417.043 50.7412C416.684 50.7412 416.381 50.7525 416.134 50.7749C415.91 50.7749 415.674 50.7973 415.427 50.8422V56.0598H417.211ZM415.461 66.8654C415.214 66.9327 414.821 67 414.283 67.0673C413.766 67.1346 413.25 67.1683 412.734 67.1683C412.218 67.1683 411.758 67.1234 411.354 67.0337C410.972 66.9663 410.647 66.8317 410.378 66.6297C410.108 66.4277 409.906 66.1472 409.772 65.7882C409.637 65.4291 409.57 64.9578 409.57 64.3744V48.5195C409.57 48.0483 409.693 47.6892 409.94 47.4424C410.209 47.1731 410.568 46.9599 411.017 46.8028C411.78 46.5335 412.644 46.3427 413.609 46.2305C414.597 46.0959 415.584 46.0286 416.572 46.0286C419.668 46.0286 422.036 46.6906 423.674 48.0146C425.312 49.3387 426.132 51.134 426.132 53.4005C426.132 54.5002 425.952 55.4988 425.593 56.3965C425.256 57.2717 424.74 58.0347 424.045 58.6855C423.371 59.3138 422.507 59.8075 421.453 60.1666C420.42 60.5032 419.22 60.6715 417.851 60.6715H415.461V66.8654ZM435.365 63.3645C435.746 63.3645 436.161 63.3308 436.61 63.2635C437.081 63.1737 437.429 63.0615 437.654 62.9269V60.2339L435.23 60.4359C434.602 60.4808 434.086 60.6154 433.682 60.8398C433.278 61.0643 433.076 61.4009 433.076 61.8497C433.076 62.2985 433.244 62.6688 433.581 62.9606C433.94 63.2299 434.534 63.3645 435.365 63.3645ZM435.095 50.1353C436.307 50.1353 437.407 50.2587 438.394 50.5056C439.404 50.7525 440.257 51.134 440.953 51.6501C441.671 52.1438 442.221 52.7834 442.602 53.5688C442.984 54.3319 443.174 55.2407 443.174 56.2955V63.8358C443.174 64.4192 443.006 64.9017 442.669 65.2832C442.355 65.6423 441.974 65.9565 441.525 66.2258C440.066 67.101 438.013 67.5386 435.365 67.5386C434.175 67.5386 433.098 67.4264 432.133 67.202C431.191 66.9776 430.371 66.6409 429.676 66.1921C429.003 65.7433 428.475 65.171 428.094 64.4753C427.735 63.7797 427.555 62.9718 427.555 62.0517C427.555 60.5032 428.015 59.3138 428.935 58.4835C429.855 57.6532 431.28 57.137 433.21 56.9351L437.62 56.4638V56.2281C437.62 55.5773 437.328 55.1173 436.745 54.848C436.184 54.5563 435.365 54.4104 434.287 54.4104C433.435 54.4104 432.604 54.5002 431.797 54.6797C430.989 54.8592 430.259 55.0836 429.608 55.3529C429.317 55.151 429.07 54.848 428.868 54.4441C428.666 54.0177 428.565 53.5801 428.565 53.1312C428.565 52.5478 428.7 52.0877 428.969 51.7511C429.261 51.392 429.698 51.0891 430.282 50.8422C430.933 50.5954 431.696 50.4158 432.571 50.3036C433.468 50.1914 434.31 50.1353 435.095 50.1353ZM448.837 62.8259C448.59 62.2649 448.321 61.6365 448.029 60.9408C447.76 60.2452 447.468 59.4485 447.154 58.5508C446.862 57.6532 446.548 56.6321 446.211 55.4876C445.897 54.3206 445.561 52.9854 445.202 51.4818C445.516 51.1676 445.931 50.8983 446.447 50.6739C446.986 50.4271 447.569 50.3036 448.198 50.3036C448.983 50.3036 449.634 50.4719 450.15 50.8086C450.666 51.1227 451.048 51.7287 451.294 52.6263L453.954 61.8834H454.088C454.358 61.1204 454.616 60.29 454.863 59.3924C455.132 58.4947 455.39 57.5746 455.637 56.6321C455.884 55.6671 456.108 54.7134 456.31 53.7708C456.535 52.8058 456.725 51.8633 456.882 50.9432C457.69 50.5168 458.577 50.3036 459.542 50.3036C460.327 50.3036 460.978 50.4719 461.494 50.8086C462.01 51.1452 462.268 51.7287 462.268 52.559C462.268 53.1649 462.19 53.8718 462.033 54.6797C461.876 55.4651 461.662 56.3067 461.393 57.2043C461.146 58.102 460.843 59.0333 460.484 59.9983C460.148 60.9408 459.789 61.8721 459.407 62.7922C459.025 63.7123 458.633 64.5876 458.229 65.4179C457.825 66.2258 457.432 66.9551 457.051 67.6059C456.422 68.7055 455.839 69.6032 455.3 70.2989C454.762 70.9946 454.245 71.5332 453.752 71.9147C453.258 72.3186 452.764 72.5879 452.271 72.7225C451.777 72.8796 451.261 72.9582 450.722 72.9582C449.78 72.9582 449.017 72.6777 448.433 72.1166C447.85 71.5556 447.502 70.8263 447.39 69.9286C448.108 69.3676 448.826 68.7392 449.544 68.0435C450.262 67.3703 450.913 66.6746 451.496 65.9565C451.115 65.8443 450.7 65.5862 450.251 65.1822C449.825 64.7559 449.353 63.9704 448.837 62.8259ZM470.312 66.9663C470.087 67.0337 469.728 67.101 469.234 67.1683C468.763 67.2356 468.269 67.2693 467.753 67.2693C467.26 67.2693 466.811 67.2356 466.407 67.1683C466.025 67.101 465.7 66.9663 465.431 66.7644C465.161 66.5624 464.948 66.2931 464.791 65.9565C464.656 65.5974 464.589 65.1374 464.589 64.5763V54.4777C464.589 53.9616 464.679 53.524 464.858 53.1649C465.06 52.7834 465.341 52.4468 465.7 52.155C466.059 51.8633 466.497 51.6052 467.013 51.3808C467.551 51.134 468.124 50.9208 468.73 50.7412C469.335 50.5617 469.964 50.4271 470.615 50.3373C471.265 50.2251 471.916 50.169 472.567 50.169C473.644 50.169 474.497 50.3822 475.125 50.8086C475.754 51.2125 476.068 51.8857 476.068 52.8283C476.068 53.1425 476.023 53.4566 475.933 53.7708C475.843 54.0626 475.731 54.3319 475.597 54.5787C475.125 54.5787 474.643 54.6011 474.149 54.646C473.655 54.6909 473.173 54.7582 472.702 54.848C472.23 54.9378 471.782 55.0388 471.355 55.151C470.951 55.2407 470.603 55.3529 470.312 55.4876V66.9663ZM494.736 58.8201C494.736 60.2115 494.523 61.457 494.097 62.5566C493.67 63.6338 493.064 64.5427 492.279 65.2832C491.516 66.0238 490.596 66.5848 489.518 66.9663C488.441 67.3478 487.241 67.5386 485.917 67.5386C484.593 67.5386 483.392 67.3366 482.315 66.9327C481.238 66.5287 480.306 65.9565 479.521 65.2159C478.758 64.4529 478.163 63.5328 477.737 62.4556C477.31 61.3784 477.097 60.1666 477.097 58.8201C477.097 57.4961 477.31 56.2955 477.737 55.2183C478.163 54.1411 478.758 53.2322 479.521 52.4917C480.306 51.7287 481.238 51.1452 482.315 50.7412C483.392 50.3373 484.593 50.1353 485.917 50.1353C487.241 50.1353 488.441 50.3485 489.518 50.7749C490.596 51.1788 491.516 51.7623 492.279 52.5253C493.064 53.2659 493.67 54.1748 494.097 55.2519C494.523 56.3291 494.736 57.5185 494.736 58.8201ZM482.954 58.8201C482.954 60.189 483.212 61.2438 483.729 61.9844C484.267 62.7025 485.008 63.0615 485.95 63.0615C486.893 63.0615 487.611 62.6913 488.105 61.9507C488.621 61.2101 488.879 60.1666 488.879 58.8201C488.879 57.4736 488.621 56.4413 488.105 55.7232C487.589 54.9827 486.859 54.6124 485.917 54.6124C484.974 54.6124 484.245 54.9827 483.729 55.7232C483.212 56.4413 482.954 57.4736 482.954 58.8201ZM503.351 66.9663C503.105 67.0112 502.734 67.0673 502.241 67.1346C501.769 67.2244 501.287 67.2693 500.793 67.2693C500.299 67.2693 499.851 67.2356 499.447 67.1683C499.065 67.101 498.74 66.9663 498.47 66.7644C498.201 66.5624 497.988 66.2931 497.831 65.9565C497.696 65.5974 497.629 65.1374 497.629 64.5763V45.0524C497.876 45.0075 498.235 44.9514 498.706 44.884C499.2 44.7943 499.694 44.7494 500.187 44.7494C500.681 44.7494 501.119 44.7831 501.5 44.8504C501.904 44.9177 502.241 45.0524 502.51 45.2543C502.779 45.4563 502.981 45.7368 503.116 46.0959C503.273 46.4325 503.351 46.8813 503.351 47.4424V66.9663ZM512.786 66.9663C512.539 67.0112 512.169 67.0673 511.675 67.1346C511.204 67.2244 510.721 67.2693 510.228 67.2693C509.734 67.2693 509.285 67.2356 508.881 67.1683C508.5 67.101 508.174 66.9663 507.905 66.7644C507.636 66.5624 507.423 66.2931 507.265 65.9565C507.131 65.5974 507.064 65.1374 507.064 64.5763V45.0524C507.31 45.0075 507.669 44.9514 508.141 44.884C508.634 44.7943 509.128 44.7494 509.622 44.7494C510.116 44.7494 510.553 44.7831 510.935 44.8504C511.339 44.9177 511.675 45.0524 511.945 45.2543C512.214 45.4563 512.416 45.7368 512.55 46.0959C512.708 46.4325 512.786 46.8813 512.786 47.4424V66.9663ZM529.364 47.476C529.364 47.9922 529.352 48.744 529.33 49.7314C529.307 50.6964 529.263 51.7511 529.195 52.8956C529.128 54.0177 529.038 55.151 528.926 56.2955C528.814 57.4175 528.679 58.3937 528.522 59.2241C528.432 59.2914 528.298 59.3587 528.118 59.426C527.939 59.4934 527.748 59.5495 527.546 59.5944C527.344 59.6392 527.142 59.6729 526.94 59.6953C526.738 59.7178 526.558 59.729 526.401 59.729C525.75 59.729 525.201 59.628 524.752 59.426C524.325 59.2241 524.056 58.8313 523.944 58.2479C523.832 57.7317 523.731 56.9463 523.641 55.8915C523.574 54.8368 523.506 53.6923 523.439 52.458C523.372 51.2237 523.316 50.0007 523.271 48.7888C523.248 47.577 523.237 46.5447 523.237 45.6919C523.686 45.4451 524.191 45.2543 524.752 45.1197C525.335 44.9626 525.908 44.884 526.469 44.884C527.389 44.884 528.096 45.0972 528.589 45.5236C529.105 45.95 529.364 46.6008 529.364 47.476ZM523.17 64.4417C523.17 63.5216 523.45 62.7698 524.011 62.1863C524.595 61.5804 525.391 61.2775 526.401 61.2775C527.411 61.2775 528.197 61.5804 528.758 62.1863C529.341 62.7698 529.633 63.5216 529.633 64.4417C529.633 65.3618 529.341 66.1248 528.758 66.7307C528.197 67.3142 527.411 67.6059 526.401 67.6059C525.391 67.6059 524.595 67.3142 524.011 66.7307C523.45 66.1248 523.17 65.3618 523.17 64.4417Z" fill="white"/>
<g filter="url(#filter0_i_58_2771)">
<rect x="48" y="114" width="122.357" height="40.7856" rx="8.15712" fill="#241F35"/>
</g>
<path d="M85.8076 137.286V139H80.439V137.286H85.8076ZM81.1494 128.336V139H78.9521V128.336H81.1494ZM90.583 139.146C89.9678 139.146 89.416 139.049 88.9277 138.854C88.4395 138.653 88.0244 138.377 87.6826 138.026C87.3457 137.674 87.0869 137.267 86.9062 136.803C86.7256 136.334 86.6353 135.836 86.6353 135.309V135.016C86.6353 134.415 86.7207 133.866 86.8916 133.368C87.0625 132.87 87.3066 132.438 87.624 132.071C87.9463 131.705 88.3369 131.424 88.7959 131.229C89.2549 131.029 89.7725 130.929 90.3486 130.929C90.9102 130.929 91.4082 131.021 91.8428 131.207C92.2773 131.393 92.6411 131.656 92.9341 131.998C93.2319 132.34 93.4565 132.75 93.6079 133.229C93.7593 133.702 93.835 134.229 93.835 134.811V135.689H87.5361V134.283H91.7622V134.122C91.7622 133.829 91.7085 133.568 91.6011 133.338C91.4985 133.104 91.3423 132.918 91.1323 132.782C90.9224 132.645 90.6538 132.577 90.3267 132.577C90.0483 132.577 89.8091 132.638 89.6089 132.76C89.4087 132.882 89.2451 133.053 89.1182 133.272C88.9961 133.492 88.9033 133.751 88.8398 134.049C88.7812 134.342 88.752 134.664 88.752 135.016V135.309C88.752 135.626 88.7959 135.919 88.8838 136.188C88.9766 136.456 89.106 136.688 89.272 136.883C89.4429 137.079 89.6479 137.23 89.8872 137.337C90.1313 137.445 90.4072 137.499 90.7148 137.499C91.0957 137.499 91.4497 137.425 91.7769 137.279C92.1089 137.127 92.3945 136.9 92.6338 136.598L93.6592 137.711C93.4932 137.95 93.2661 138.18 92.978 138.399C92.6948 138.619 92.353 138.8 91.9526 138.941C91.5522 139.078 91.0957 139.146 90.583 139.146ZM98.918 131.075V132.569H94.3037V131.075H98.918ZM95.4463 129.12H97.5557V136.612C97.5557 136.842 97.585 137.018 97.6436 137.14C97.707 137.262 97.7998 137.347 97.9219 137.396C98.0439 137.44 98.1978 137.462 98.3833 137.462C98.5151 137.462 98.6323 137.457 98.7349 137.447C98.8423 137.433 98.9326 137.418 99.0059 137.403L99.0132 138.956C98.8325 139.015 98.6372 139.061 98.4272 139.095C98.2173 139.129 97.9854 139.146 97.7314 139.146C97.2676 139.146 96.8623 139.071 96.5156 138.919C96.1738 138.763 95.9102 138.514 95.7246 138.172C95.5391 137.831 95.4463 137.381 95.4463 136.825V129.12ZM102.163 127.75V128.863C102.163 129.181 102.102 129.508 101.979 129.845C101.862 130.182 101.704 130.501 101.503 130.804C101.303 131.102 101.083 131.356 100.844 131.566L99.8555 130.995C100.036 130.707 100.19 130.394 100.317 130.057C100.444 129.715 100.507 129.32 100.507 128.871V127.75H102.163ZM106.542 136.81C106.542 136.659 106.499 136.522 106.411 136.4C106.323 136.278 106.159 136.166 105.92 136.063C105.686 135.956 105.346 135.858 104.902 135.77C104.501 135.682 104.128 135.572 103.781 135.44C103.439 135.304 103.142 135.14 102.888 134.95C102.639 134.759 102.443 134.535 102.302 134.276C102.16 134.012 102.089 133.712 102.089 133.375C102.089 133.043 102.16 132.73 102.302 132.438C102.448 132.145 102.656 131.886 102.924 131.661C103.198 131.432 103.53 131.253 103.92 131.126C104.316 130.995 104.76 130.929 105.253 130.929C105.942 130.929 106.533 131.039 107.026 131.258C107.524 131.478 107.905 131.781 108.168 132.167C108.437 132.547 108.571 132.982 108.571 133.47H106.462C106.462 133.265 106.418 133.082 106.33 132.921C106.247 132.755 106.115 132.625 105.935 132.533C105.759 132.435 105.529 132.386 105.246 132.386C105.012 132.386 104.809 132.428 104.638 132.511C104.467 132.589 104.335 132.696 104.243 132.833C104.155 132.965 104.111 133.111 104.111 133.272C104.111 133.395 104.135 133.504 104.184 133.602C104.238 133.695 104.323 133.78 104.44 133.858C104.558 133.937 104.709 134.01 104.895 134.078C105.085 134.142 105.319 134.2 105.598 134.254C106.169 134.371 106.679 134.525 107.128 134.715C107.578 134.901 107.934 135.155 108.198 135.477C108.461 135.794 108.593 136.212 108.593 136.729C108.593 137.081 108.515 137.403 108.359 137.696C108.203 137.989 107.978 138.246 107.685 138.465C107.392 138.68 107.041 138.849 106.63 138.971C106.225 139.088 105.769 139.146 105.261 139.146C104.523 139.146 103.898 139.015 103.386 138.751C102.878 138.487 102.492 138.153 102.229 137.748C101.97 137.337 101.84 136.917 101.84 136.488H103.84C103.85 136.776 103.923 137.008 104.06 137.184C104.201 137.359 104.379 137.486 104.594 137.564C104.814 137.643 105.051 137.682 105.305 137.682C105.578 137.682 105.805 137.645 105.986 137.572C106.167 137.494 106.303 137.391 106.396 137.264C106.494 137.132 106.542 136.981 106.542 136.81ZM113.83 128.336H117.807C118.623 128.336 119.323 128.458 119.909 128.702C120.5 128.946 120.954 129.308 121.271 129.786C121.589 130.265 121.748 130.853 121.748 131.551C121.748 132.123 121.65 132.613 121.455 133.023C121.264 133.429 120.993 133.768 120.642 134.042C120.295 134.31 119.887 134.525 119.418 134.686L118.723 135.052H115.266L115.251 133.338H117.822C118.208 133.338 118.527 133.27 118.781 133.133C119.035 132.997 119.226 132.806 119.353 132.562C119.484 132.318 119.55 132.035 119.55 131.712C119.55 131.371 119.487 131.075 119.36 130.826C119.233 130.577 119.04 130.387 118.781 130.255C118.522 130.123 118.198 130.057 117.807 130.057H116.027V139H113.83V128.336ZM119.792 139L117.36 134.247L119.682 134.232L122.143 138.897V139H119.792ZM127.995 137.103V131.075H130.104V139H128.12L127.995 137.103ZM128.229 135.477L128.852 135.462C128.852 135.99 128.791 136.48 128.669 136.935C128.547 137.384 128.364 137.774 128.12 138.106C127.875 138.434 127.568 138.69 127.197 138.875C126.826 139.056 126.389 139.146 125.886 139.146C125.5 139.146 125.144 139.093 124.816 138.985C124.494 138.873 124.216 138.7 123.981 138.465C123.752 138.226 123.571 137.921 123.439 137.55C123.312 137.174 123.249 136.722 123.249 136.195V131.075H125.358V136.209C125.358 136.444 125.385 136.642 125.439 136.803C125.498 136.964 125.578 137.096 125.681 137.198C125.783 137.301 125.903 137.374 126.04 137.418C126.181 137.462 126.337 137.484 126.508 137.484C126.943 137.484 127.285 137.396 127.534 137.22C127.788 137.044 127.966 136.805 128.068 136.502C128.176 136.195 128.229 135.853 128.229 135.477ZM133.781 132.767V139H131.672V131.075H133.649L133.781 132.767ZM133.474 134.759H132.902C132.902 134.173 132.978 133.646 133.129 133.177C133.281 132.704 133.493 132.301 133.767 131.969C134.04 131.632 134.365 131.375 134.741 131.2C135.122 131.019 135.546 130.929 136.015 130.929C136.386 130.929 136.726 130.982 137.033 131.09C137.341 131.197 137.604 131.368 137.824 131.603C138.049 131.837 138.22 132.147 138.337 132.533C138.459 132.918 138.52 133.39 138.52 133.946V139H136.396V133.939C136.396 133.587 136.347 133.314 136.25 133.119C136.152 132.923 136.008 132.787 135.817 132.708C135.632 132.625 135.402 132.584 135.129 132.584C134.846 132.584 134.599 132.64 134.389 132.752C134.184 132.865 134.013 133.021 133.876 133.221C133.745 133.417 133.645 133.646 133.576 133.91C133.508 134.173 133.474 134.457 133.474 134.759Z" fill="white"/>
<defs>
<filter id="filter0_i_58_2771" x="48" y="114" width="122.357" height="44.7856" filterUnits="userSpaceOnUse" color-interpolation-filters="sRGB">
<feFlood flood-opacity="0" result="BackgroundImageFix"/>
<feBlend mode="normal" in="SourceGraphic" in2="BackgroundImageFix" result="shape"/>
<feColorMatrix in="SourceAlpha" type="matrix" values="0 0 0 0 0 0 0 0 0 0 0 0 0 0 0 0 0 0 127 0" result="hardAlpha"/>
<feOffset dy="4"/>
<feGaussianBlur stdDeviation="2"/>
<feComposite in2="hardAlpha" operator="arithmetic" k2="-1" k3="1"/>
<feColorMatrix type="matrix" values="0 0 0 0 0 0 0 0 0 0 0 0 0 0 0 0 0 0 0.25 0"/>
<feBlend mode="normal" in2="shape" result="effect1_innerShadow_58_2771"/>
</filter>
</defs>
</svg>
