<svg width="184" height="163" viewBox="0 0 184 163" fill="none" xmlns="http://www.w3.org/2000/svg">
<rect width="184" height="163" rx="10" fill="#241F35"/>
<circle cx="92" cy="67" r="40" fill="#3CCB93"/>
<path d="M117.078 52.5095C117.078 61.9536 117.078 71.3978 117.078 80.842C116.8 81.245 116.42 81.3501 115.934 81.3501C99.6771 81.3394 83.4198 81.3408 67.1626 81.3408C66.2142 81.3408 66 81.1239 66 80.1649C66 71.1717 66 62.1784 66 53.1852C66 52.2261 66.2142 52.0093 67.1626 52.0093C83.4198 52.0093 99.6771 52.0106 115.934 52C116.42 52.0013 116.8 52.1064 117.078 52.5095ZM91.5365 57.4603C84.8537 57.4603 78.1723 57.4603 71.4896 57.4603C71.3566 57.4603 71.2236 57.4643 71.0905 57.4603C70.8232 57.451 70.6143 57.5428 70.6024 57.8328C70.5877 58.152 70.8125 58.2544 71.0932 58.2664C71.193 58.2704 71.2927 58.2677 71.3925 58.2677C84.8232 58.2677 98.2552 58.2677 111.686 58.2664C112.022 58.2664 112.481 58.3542 112.464 57.8328C112.447 57.3379 111.994 57.4656 111.684 57.4656C104.968 57.459 98.2525 57.4603 91.5365 57.4603ZM79.0143 73.276C76.5535 73.276 74.0927 73.2813 71.6332 73.2707C71.1757 73.268 70.9615 73.4183 70.9748 73.9065C70.9988 74.7698 70.9961 75.6357 70.9761 76.5003C70.9668 76.9313 71.1437 77.1015 71.5627 77.1015C76.5176 77.0975 81.4711 77.0975 86.426 77.1015C86.853 77.1015 87.0232 76.914 87.0166 76.4963C87.0046 75.665 87.0153 74.8336 87.0126 74.0022C87.0113 73.3718 86.9168 73.276 86.297 73.276C83.8694 73.2746 81.4419 73.276 79.0143 73.276ZM104.161 69.8481C104.257 70.0929 104.152 70.2751 104.096 70.456C103.856 71.2395 103.743 72.0403 103.704 72.8556C103.684 73.2653 103.771 73.6271 104.144 73.8413C104.528 74.0621 104.927 74.0062 105.266 73.7442C105.845 73.2959 106.42 72.8517 107.157 72.6854C107.392 72.6322 107.46 72.4366 107.413 72.2172C107.363 71.9791 107.182 71.9033 106.96 71.9365C106.797 71.9618 106.637 72.0083 106.48 72.0602C105.886 72.2571 105.389 72.6109 104.919 73.0126C104.822 73.0951 104.702 73.2081 104.565 73.1297C104.45 73.0632 104.507 72.9182 104.511 72.8118C104.538 72.0788 104.635 71.3579 104.877 70.6622C104.987 70.343 105.042 70.0184 104.988 69.6832C104.857 68.8691 104.321 68.663 103.686 69.1857C102.758 69.9506 101.949 70.8271 101.26 71.8128C101.123 72.0097 101.018 72.2478 100.755 72.3369C100.74 71.6279 100.898 71.04 101.378 70.1661C101.654 69.6633 101.841 69.1378 101.894 68.5699C101.972 67.7598 101.372 67.2397 100.575 67.41C99.7489 67.5869 99.2129 68.1322 98.8032 68.8252C98.1714 69.8974 97.606 71.0027 97.1591 72.1653C96.9689 72.6601 96.8013 73.1629 96.6403 73.6684C96.5605 73.9198 96.5512 74.1858 96.8811 74.2723C97.191 74.3534 97.3347 74.1526 97.4158 73.8879C97.4305 73.84 97.4371 73.7908 97.4517 73.7429C97.9452 72.1892 98.621 70.7167 99.447 69.3134C99.7276 68.8359 100.051 68.3956 100.627 68.2347C101.037 68.1189 101.147 68.2147 101.082 68.643C101.018 69.0567 100.86 69.4358 100.664 69.8056C100.21 70.6649 99.8607 71.5587 99.9352 72.5564C99.9804 73.1709 100.276 73.3558 100.878 73.1908C101.328 73.0671 101.602 72.7426 101.849 72.3821C102.5 71.4364 103.25 70.5824 104.161 69.8481ZM83.1086 62.5003C87.0153 62.5003 90.922 62.5003 94.8287 62.5003C94.9776 62.5003 95.1279 62.503 95.2769 62.4937C95.4937 62.4777 95.6055 62.3367 95.6228 62.1359C95.6401 61.931 95.5323 61.7754 95.3315 61.7275C95.1891 61.6942 95.0348 61.7009 94.8859 61.7009C87.0392 61.6996 79.1926 61.6996 71.3459 61.7009C71.197 61.7009 71.0427 61.6929 70.9003 61.7248C70.6995 61.7701 70.5877 61.923 70.601 62.1279C70.6143 62.3261 70.7208 62.475 70.9389 62.4923C71.0879 62.5043 71.2382 62.5003 71.3872 62.5003C75.2952 62.5003 79.2019 62.5003 83.1086 62.5003ZM105.413 77.1002C106.825 77.1002 108.238 77.1002 109.652 77.1002C110.317 77.1002 110.982 77.0975 111.647 77.1002C111.933 77.1015 112.162 76.9991 112.155 76.6878C112.149 76.3779 111.915 76.2808 111.631 76.2915C111.565 76.2941 111.498 76.2915 111.432 76.2915C107.425 76.2915 103.42 76.2915 99.4137 76.2928C99.2648 76.2928 99.1131 76.2901 98.9681 76.3194C98.7553 76.3633 98.6755 76.5269 98.6875 76.7291C98.6994 76.9113 98.7886 77.051 98.9828 77.0749C99.1464 77.0949 99.314 77.0989 99.4802 77.0989C101.457 77.1002 103.435 77.1002 105.413 77.1002ZM109.3 72.4646C109.268 72.2145 109.132 72.0695 108.883 72.0642C108.629 72.0589 108.48 72.1999 108.481 72.4566C108.483 72.7133 108.638 72.8503 108.884 72.857C109.141 72.8636 109.265 72.7053 109.3 72.4646Z" fill="white"/>
<path d="M91.5357 57.4604C98.2517 57.4604 104.966 57.4591 111.682 57.4644C111.992 57.4644 112.446 57.3367 112.462 57.8315C112.479 58.3529 112.02 58.2651 111.684 58.2651C98.2531 58.2678 84.8211 58.2678 71.3904 58.2665C71.2906 58.2665 71.1909 58.2691 71.0911 58.2651C70.8105 58.2532 70.5857 58.1521 70.6003 57.8315C70.6136 57.5415 70.8224 57.4498 71.0885 57.4591C71.2215 57.4644 71.3545 57.4591 71.4875 57.4591C78.1716 57.4604 84.8543 57.4604 91.5357 57.4604Z" fill="#3CCB93"/>
<path d="M79.0141 73.2761C81.4416 73.2761 83.8692 73.2748 86.2954 73.2761C86.9153 73.2761 87.0097 73.3719 87.011 74.0024C87.0137 74.8337 87.0031 75.6651 87.015 76.4964C87.0217 76.9141 86.8514 77.1017 86.4244 77.1017C81.4696 77.0963 76.516 77.0977 71.5612 77.1017C71.1422 77.1017 70.9639 76.9314 70.9746 76.5004C70.9945 75.6358 70.9972 74.7712 70.9732 73.9066C70.9599 73.4184 71.1741 73.2681 71.6317 73.2708C74.0925 73.2814 76.5533 73.2761 79.0141 73.2761ZM75.1606 76.2889C76.1901 76.2889 77.2197 76.2809 78.2492 76.2942C78.5006 76.2969 78.6004 76.2384 78.5898 75.967C78.5685 75.4536 78.5751 74.9375 78.5884 74.4227C78.5951 74.1833 78.5512 74.0689 78.2679 74.0702C76.2088 74.0822 74.1497 74.0795 72.0919 74.0715C71.8538 74.0702 71.7727 74.1381 71.7806 74.3788C71.7966 74.8936 71.8086 75.4097 71.7767 75.9218C71.7567 76.2517 71.8871 76.2982 72.173 76.2929C73.168 76.2796 74.1643 76.2889 75.1606 76.2889ZM82.7585 76.2903C83.788 76.2903 84.8176 76.2809 85.8471 76.2956C86.1278 76.2996 86.2262 76.2171 86.2143 75.9311C86.1943 75.4177 86.1996 74.9016 86.2116 74.3868C86.2169 74.1487 86.1318 74.0715 85.8937 74.0729C83.8173 74.0795 81.7409 74.0795 79.6645 74.0729C79.4464 74.0729 79.3732 74.1474 79.3785 74.3615C79.3892 74.8763 79.4012 75.3924 79.3746 75.9058C79.3586 76.2171 79.4623 76.3009 79.7656 76.2956C80.7646 76.2783 81.7622 76.2903 82.7585 76.2903Z" fill="#3CCB93"/>
<path d="M104.162 69.8482C103.25 70.5824 102.501 71.4364 101.851 72.3822C101.604 72.7426 101.331 73.0685 100.88 73.1909C100.277 73.3558 99.9821 73.1723 99.9369 72.5564C99.8624 71.5588 100.212 70.6649 100.666 69.8056C100.861 69.4345 101.02 69.0567 101.084 68.6431C101.149 68.2161 101.038 68.1203 100.629 68.2347C100.054 68.3956 99.7307 68.8359 99.4488 69.3135C98.6227 70.7168 97.947 72.1893 97.4535 73.7429C97.4389 73.7908 97.4322 73.84 97.4176 73.8879C97.3364 74.1526 97.1928 74.3521 96.8829 74.2723C96.553 74.1872 96.5623 73.9198 96.6421 73.6684C96.8031 73.163 96.9707 72.6602 97.1609 72.1653C97.6065 71.0028 98.1731 69.8974 98.8049 68.8253C99.2146 68.1309 99.7507 67.5869 100.577 67.41C101.373 67.2384 101.972 67.7598 101.896 68.5699C101.842 69.1379 101.655 69.6633 101.38 70.1661C100.9 71.0387 100.742 71.6279 100.756 72.3369C101.02 72.2478 101.125 72.0097 101.262 71.8128C101.951 70.8259 102.76 69.9493 103.688 69.1858C104.324 68.663 104.859 68.8692 104.99 69.6832C105.045 70.0184 104.99 70.3443 104.878 70.6622C104.636 71.3579 104.539 72.0802 104.513 72.8118C104.509 72.9195 104.45 73.0632 104.567 73.1297C104.704 73.2095 104.824 73.0951 104.921 73.0126C105.391 72.6109 105.888 72.2558 106.481 72.0602C106.638 72.0084 106.799 71.9618 106.962 71.9365C107.184 71.902 107.365 71.9778 107.415 72.2172C107.462 72.4367 107.394 72.6322 107.158 72.6854C106.42 72.8517 105.847 73.296 105.268 73.7442C104.929 74.0076 104.53 74.0621 104.146 73.8413C103.773 73.6272 103.685 73.2654 103.705 72.8557C103.745 72.0403 103.858 71.2395 104.098 70.4561C104.151 70.2752 104.257 70.0929 104.162 69.8482Z" fill="#3CCB93"/>
<path d="M83.109 62.5004C79.2024 62.5004 75.2957 62.5004 71.389 62.5004C71.24 62.5004 71.0897 62.5044 70.9407 62.4924C70.7226 62.4751 70.6161 62.3261 70.6028 62.1279C70.5882 61.9231 70.6999 61.7701 70.9021 61.7249C71.0458 61.693 71.1988 61.7009 71.3477 61.7009C79.1944 61.6996 87.041 61.6996 94.8877 61.7009C95.0366 61.7009 95.1909 61.6943 95.3333 61.7276C95.5341 61.7754 95.6419 61.9297 95.6246 62.1359C95.6073 62.3368 95.4969 62.4778 95.2787 62.4937C95.1297 62.5044 94.9794 62.5004 94.8305 62.5004C90.9224 62.5004 87.0157 62.5004 83.109 62.5004Z" fill="#3CCB93"/>
<path d="M105.412 77.1002C103.434 77.1002 101.456 77.1002 99.4778 77.0989C99.3115 77.0989 99.1452 77.0949 98.9803 77.075C98.7848 77.051 98.6956 76.91 98.685 76.7291C98.6717 76.5269 98.7515 76.3633 98.9657 76.3194C99.1107 76.2902 99.2623 76.2928 99.4113 76.2928C103.418 76.2915 107.423 76.2915 111.429 76.2915C111.496 76.2915 111.562 76.2942 111.629 76.2915C111.913 76.2795 112.146 76.3766 112.153 76.6879C112.16 76.9991 111.931 77.1016 111.645 77.1002C110.98 77.0989 110.315 77.1002 109.65 77.1002C108.237 77.1002 106.824 77.1002 105.412 77.1002Z" fill="white"/>
<path d="M109.299 72.4647C109.264 72.7054 109.14 72.8637 108.884 72.8571C108.637 72.8504 108.48 72.7121 108.48 72.4567C108.479 72.2 108.628 72.0603 108.882 72.0643C109.131 72.0683 109.267 72.2146 109.299 72.4647Z" fill="white"/>
<path d="M75.1607 76.2889C74.1644 76.2889 73.1681 76.2796 72.1718 76.2956C71.8858 76.2996 71.7555 76.2544 71.7754 75.9245C71.806 75.411 71.794 74.8949 71.7794 74.3815C71.7728 74.1407 71.8539 74.0729 72.0907 74.0742C74.1498 74.0822 76.2089 74.0849 78.2666 74.0729C78.55 74.0716 78.5938 74.186 78.5872 74.4254C78.5739 74.9402 78.5686 75.4549 78.5885 75.9697C78.5992 76.2411 78.4994 76.2996 78.248 76.2969C77.2198 76.281 76.1902 76.2889 75.1607 76.2889Z" fill="white"/>
<path d="M82.7579 76.2902C81.7616 76.2902 80.764 76.2795 79.7677 76.2968C79.4631 76.3021 79.3606 76.2183 79.3766 75.9071C79.4019 75.3936 79.3912 74.8775 79.3806 74.3628C79.3766 74.1486 79.4484 74.0728 79.6666 74.0741C81.743 74.0808 83.8193 74.0808 85.8957 74.0741C86.1325 74.0728 86.219 74.1499 86.2136 74.388C86.2017 74.9028 86.195 75.4189 86.2163 75.9324C86.2283 76.2183 86.1298 76.3008 85.8492 76.2968C84.817 76.2809 83.7874 76.2902 82.7579 76.2902Z" fill="white"/>
<path d="M42.4766 137.758H39.5156V136.203H42.4766C42.9922 136.203 43.4089 136.12 43.7266 135.953C44.0443 135.786 44.276 135.557 44.4219 135.266C44.5729 134.969 44.6484 134.63 44.6484 134.25C44.6484 133.891 44.5729 133.555 44.4219 133.242C44.276 132.924 44.0443 132.669 43.7266 132.477C43.4089 132.284 42.9922 132.188 42.4766 132.188H40.1172V142H38.1562V130.625H42.4766C43.3568 130.625 44.1042 130.781 44.7188 131.094C45.3385 131.401 45.8099 131.828 46.1328 132.375C46.4557 132.917 46.6172 133.536 46.6172 134.234C46.6172 134.969 46.4557 135.599 46.1328 136.125C45.8099 136.651 45.3385 137.055 44.7188 137.336C44.1042 137.617 43.3568 137.758 42.4766 137.758ZM52.8594 140.305V136.273C52.8594 135.971 52.8047 135.711 52.6953 135.492C52.5859 135.273 52.4193 135.104 52.1953 134.984C51.9766 134.865 51.7005 134.805 51.3672 134.805C51.0599 134.805 50.7943 134.857 50.5703 134.961C50.3464 135.065 50.1719 135.206 50.0469 135.383C49.9219 135.56 49.8594 135.76 49.8594 135.984H47.9844C47.9844 135.651 48.0651 135.328 48.2266 135.016C48.388 134.703 48.6224 134.424 48.9297 134.18C49.237 133.935 49.6042 133.742 50.0312 133.602C50.4583 133.461 50.9375 133.391 51.4688 133.391C52.1042 133.391 52.6667 133.497 53.1562 133.711C53.651 133.924 54.0391 134.247 54.3203 134.68C54.6068 135.107 54.75 135.643 54.75 136.289V140.047C54.75 140.432 54.776 140.779 54.8281 141.086C54.8854 141.388 54.9661 141.651 55.0703 141.875V142H53.1406C53.0521 141.797 52.9818 141.539 52.9297 141.227C52.8828 140.909 52.8594 140.602 52.8594 140.305ZM53.1328 136.859L53.1484 138.023H51.7969C51.4479 138.023 51.1406 138.057 50.875 138.125C50.6094 138.188 50.388 138.281 50.2109 138.406C50.0339 138.531 49.901 138.682 49.8125 138.859C49.724 139.036 49.6797 139.237 49.6797 139.461C49.6797 139.685 49.7318 139.891 49.8359 140.078C49.9401 140.26 50.0911 140.404 50.2891 140.508C50.4922 140.612 50.737 140.664 51.0234 140.664C51.4089 140.664 51.7448 140.586 52.0312 140.43C52.3229 140.268 52.5521 140.073 52.7188 139.844C52.8854 139.609 52.974 139.388 52.9844 139.18L53.5938 140.016C53.5312 140.229 53.4245 140.458 53.2734 140.703C53.1224 140.948 52.9245 141.182 52.6797 141.406C52.4401 141.625 52.151 141.805 51.8125 141.945C51.4792 142.086 51.0938 142.156 50.6562 142.156C50.1042 142.156 49.612 142.047 49.1797 141.828C48.7474 141.604 48.4089 141.305 48.1641 140.93C47.9193 140.549 47.7969 140.12 47.7969 139.641C47.7969 139.193 47.8802 138.797 48.0469 138.453C48.2188 138.104 48.4688 137.812 48.7969 137.578C49.1302 137.344 49.5365 137.167 50.0156 137.047C50.4948 136.922 51.0417 136.859 51.6562 136.859H53.1328ZM59.0469 141.078L61.3438 133.547H63.3594L59.9688 143.289C59.8906 143.497 59.7891 143.724 59.6641 143.969C59.5391 144.214 59.375 144.445 59.1719 144.664C58.974 144.888 58.7266 145.068 58.4297 145.203C58.1328 145.344 57.7734 145.414 57.3516 145.414C57.1849 145.414 57.0234 145.398 56.8672 145.367C56.7161 145.341 56.5729 145.312 56.4375 145.281L56.4297 143.844C56.4818 143.849 56.5443 143.854 56.6172 143.859C56.6953 143.865 56.7578 143.867 56.8047 143.867C57.1172 143.867 57.3776 143.828 57.5859 143.75C57.7943 143.677 57.9635 143.557 58.0938 143.391C58.2292 143.224 58.3438 143 58.4375 142.719L59.0469 141.078ZM57.75 133.547L59.7578 139.875L60.0938 141.859L58.7891 142.195L55.7188 133.547H57.75ZM67.7812 140.656C68.0885 140.656 68.3646 140.596 68.6094 140.477C68.8594 140.352 69.0599 140.18 69.2109 139.961C69.3672 139.742 69.4531 139.49 69.4688 139.203H71.2422C71.2318 139.75 71.0703 140.247 70.7578 140.695C70.4453 141.143 70.0312 141.5 69.5156 141.766C69 142.026 68.4297 142.156 67.8047 142.156C67.1589 142.156 66.5964 142.047 66.1172 141.828C65.638 141.604 65.2396 141.297 64.9219 140.906C64.6042 140.516 64.3646 140.065 64.2031 139.555C64.0469 139.044 63.9688 138.497 63.9688 137.914V137.641C63.9688 137.057 64.0469 136.51 64.2031 136C64.3646 135.484 64.6042 135.031 64.9219 134.641C65.2396 134.25 65.638 133.945 66.1172 133.727C66.5964 133.503 67.1562 133.391 67.7969 133.391C68.474 133.391 69.0677 133.526 69.5781 133.797C70.0885 134.062 70.4896 134.435 70.7812 134.914C71.0781 135.388 71.2318 135.94 71.2422 136.57H69.4688C69.4531 136.258 69.375 135.977 69.2344 135.727C69.099 135.471 68.9062 135.268 68.6562 135.117C68.4115 134.966 68.1172 134.891 67.7734 134.891C67.3932 134.891 67.0781 134.969 66.8281 135.125C66.5781 135.276 66.3828 135.484 66.2422 135.75C66.1016 136.01 66 136.305 65.9375 136.633C65.8802 136.956 65.8516 137.292 65.8516 137.641V137.914C65.8516 138.263 65.8802 138.602 65.9375 138.93C65.9948 139.258 66.0938 139.552 66.2344 139.812C66.3802 140.068 66.5781 140.273 66.8281 140.43C67.0781 140.581 67.3958 140.656 67.7812 140.656ZM74.5469 130V142H72.6719V130H74.5469ZM74.2188 137.461L73.6094 137.453C73.6146 136.87 73.6953 136.331 73.8516 135.836C74.013 135.341 74.237 134.911 74.5234 134.547C74.8151 134.177 75.1641 133.893 75.5703 133.695C75.9766 133.492 76.4271 133.391 76.9219 133.391C77.3385 133.391 77.7135 133.448 78.0469 133.562C78.3854 133.677 78.6771 133.862 78.9219 134.117C79.1667 134.367 79.3516 134.695 79.4766 135.102C79.6068 135.503 79.6719 135.992 79.6719 136.57V142H77.7812V136.555C77.7812 136.148 77.7214 135.826 77.6016 135.586C77.487 135.346 77.3177 135.174 77.0938 135.07C76.8698 134.961 76.5964 134.906 76.2734 134.906C75.9349 134.906 75.6354 134.974 75.375 135.109C75.1198 135.245 74.9062 135.43 74.7344 135.664C74.5625 135.898 74.4323 136.169 74.3438 136.477C74.2604 136.784 74.2188 137.112 74.2188 137.461ZM85.3047 142.156C84.6797 142.156 84.1146 142.055 83.6094 141.852C83.1094 141.643 82.6823 141.354 82.3281 140.984C81.9792 140.615 81.7109 140.18 81.5234 139.68C81.3359 139.18 81.2422 138.641 81.2422 138.062V137.75C81.2422 137.089 81.3385 136.49 81.5312 135.953C81.724 135.417 81.9922 134.958 82.3359 134.578C82.6797 134.193 83.0859 133.898 83.5547 133.695C84.0234 133.492 84.5312 133.391 85.0781 133.391C85.6823 133.391 86.2109 133.492 86.6641 133.695C87.1172 133.898 87.4922 134.185 87.7891 134.555C88.0911 134.919 88.3151 135.354 88.4609 135.859C88.612 136.365 88.6875 136.922 88.6875 137.531V138.336H82.1562V136.984H86.8281V136.836C86.8177 136.497 86.75 136.18 86.625 135.883C86.5052 135.586 86.3203 135.346 86.0703 135.164C85.8203 134.982 85.487 134.891 85.0703 134.891C84.7578 134.891 84.4792 134.958 84.2344 135.094C83.9948 135.224 83.7943 135.414 83.6328 135.664C83.4714 135.914 83.3464 136.216 83.2578 136.57C83.1745 136.919 83.1328 137.312 83.1328 137.75V138.062C83.1328 138.432 83.1823 138.776 83.2812 139.094C83.3854 139.406 83.5365 139.68 83.7344 139.914C83.9323 140.148 84.1719 140.333 84.4531 140.469C84.7344 140.599 85.0547 140.664 85.4141 140.664C85.8672 140.664 86.2708 140.573 86.625 140.391C86.9792 140.208 87.2865 139.951 87.5469 139.617L88.5391 140.578C88.3568 140.844 88.1198 141.099 87.8281 141.344C87.5365 141.583 87.1797 141.779 86.7578 141.93C86.3411 142.081 85.8568 142.156 85.3047 142.156ZM95.3047 145.25V135.227L95.5234 133.547H97.2031V145.25H95.3047ZM89.8125 137.859V137.695C89.8125 137.055 89.8854 136.471 90.0312 135.945C90.1771 135.414 90.3932 134.958 90.6797 134.578C90.9661 134.198 91.3151 133.906 91.7266 133.703C92.138 133.495 92.612 133.391 93.1484 133.391C93.6693 133.391 94.1224 133.49 94.5078 133.688C94.8984 133.885 95.2266 134.169 95.4922 134.539C95.763 134.904 95.9792 135.339 96.1406 135.844C96.3021 136.349 96.4193 136.911 96.4922 137.531V138.055C96.4245 138.659 96.3099 139.211 96.1484 139.711C95.987 140.211 95.7708 140.643 95.5 141.008C95.2292 141.372 94.8984 141.656 94.5078 141.859C94.1172 142.057 93.6589 142.156 93.1328 142.156C92.6068 142.156 92.138 142.049 91.7266 141.836C91.3151 141.622 90.9661 141.323 90.6797 140.938C90.3984 140.547 90.1823 140.091 90.0312 139.57C89.8854 139.044 89.8125 138.474 89.8125 137.859ZM91.6953 137.695V137.859C91.6953 138.245 91.7292 138.607 91.7969 138.945C91.8698 139.279 91.9844 139.576 92.1406 139.836C92.2969 140.091 92.4948 140.292 92.7344 140.438C92.974 140.583 93.263 140.656 93.6016 140.656C94.0443 140.656 94.4062 140.56 94.6875 140.367C94.974 140.174 95.1927 139.917 95.3438 139.594C95.5 139.266 95.6094 138.904 95.6719 138.508V137.094C95.6354 136.786 95.5703 136.5 95.4766 136.234C95.3828 135.964 95.2526 135.729 95.0859 135.531C94.9245 135.328 94.7214 135.172 94.4766 135.062C94.237 134.948 93.9505 134.891 93.6172 134.891C93.2786 134.891 92.987 134.964 92.7422 135.109C92.4974 135.255 92.2969 135.458 92.1406 135.719C91.9896 135.974 91.8776 136.271 91.8047 136.609C91.7318 136.948 91.6953 137.31 91.6953 137.695ZM104.305 140.008V133.547H106.195V142H104.414L104.305 140.008ZM104.57 138.25L105.203 138.234C105.203 138.802 105.141 139.326 105.016 139.805C104.891 140.279 104.698 140.693 104.438 141.047C104.177 141.396 103.844 141.669 103.438 141.867C103.031 142.06 102.544 142.156 101.977 142.156C101.565 142.156 101.188 142.096 100.844 141.977C100.5 141.857 100.203 141.672 99.9531 141.422C99.7083 141.172 99.5182 140.846 99.3828 140.445C99.2474 140.044 99.1797 139.565 99.1797 139.008V133.547H101.062V139.023C101.062 139.331 101.099 139.589 101.172 139.797C101.245 140 101.344 140.164 101.469 140.289C101.594 140.414 101.74 140.503 101.906 140.555C102.073 140.607 102.25 140.633 102.438 140.633C102.974 140.633 103.396 140.529 103.703 140.32C104.016 140.107 104.237 139.82 104.367 139.461C104.503 139.102 104.57 138.698 104.57 138.25ZM111.852 142.156C111.227 142.156 110.661 142.055 110.156 141.852C109.656 141.643 109.229 141.354 108.875 140.984C108.526 140.615 108.258 140.18 108.07 139.68C107.883 139.18 107.789 138.641 107.789 138.062V137.75C107.789 137.089 107.885 136.49 108.078 135.953C108.271 135.417 108.539 134.958 108.883 134.578C109.227 134.193 109.633 133.898 110.102 133.695C110.57 133.492 111.078 133.391 111.625 133.391C112.229 133.391 112.758 133.492 113.211 133.695C113.664 133.898 114.039 134.185 114.336 134.555C114.638 134.919 114.862 135.354 115.008 135.859C115.159 136.365 115.234 136.922 115.234 137.531V138.336H108.703V136.984H113.375V136.836C113.365 136.497 113.297 136.18 113.172 135.883C113.052 135.586 112.867 135.346 112.617 135.164C112.367 134.982 112.034 134.891 111.617 134.891C111.305 134.891 111.026 134.958 110.781 135.094C110.542 135.224 110.341 135.414 110.18 135.664C110.018 135.914 109.893 136.216 109.805 136.57C109.721 136.919 109.68 137.312 109.68 137.75V138.062C109.68 138.432 109.729 138.776 109.828 139.094C109.932 139.406 110.083 139.68 110.281 139.914C110.479 140.148 110.719 140.333 111 140.469C111.281 140.599 111.602 140.664 111.961 140.664C112.414 140.664 112.818 140.573 113.172 140.391C113.526 140.208 113.833 139.951 114.094 139.617L115.086 140.578C114.904 140.844 114.667 141.099 114.375 141.344C114.083 141.583 113.727 141.779 113.305 141.93C112.888 142.081 112.404 142.156 111.852 142.156ZM128 140.445V142H122.289V140.445H128ZM122.836 130.625V142H120.875V130.625H122.836ZM131.344 133.547V142H129.453V133.547H131.344ZM129.328 131.328C129.328 131.042 129.422 130.805 129.609 130.617C129.802 130.424 130.068 130.328 130.406 130.328C130.74 130.328 131.003 130.424 131.195 130.617C131.388 130.805 131.484 131.042 131.484 131.328C131.484 131.609 131.388 131.844 131.195 132.031C131.003 132.219 130.74 132.312 130.406 132.312C130.068 132.312 129.802 132.219 129.609 132.031C129.422 131.844 129.328 131.609 129.328 131.328ZM138.148 139.711C138.148 139.523 138.102 139.354 138.008 139.203C137.914 139.047 137.734 138.906 137.469 138.781C137.208 138.656 136.823 138.542 136.312 138.438C135.865 138.339 135.453 138.221 135.078 138.086C134.708 137.945 134.391 137.776 134.125 137.578C133.859 137.38 133.654 137.146 133.508 136.875C133.362 136.604 133.289 136.292 133.289 135.938C133.289 135.594 133.365 135.268 133.516 134.961C133.667 134.654 133.883 134.383 134.164 134.148C134.445 133.914 134.786 133.729 135.188 133.594C135.594 133.458 136.047 133.391 136.547 133.391C137.255 133.391 137.862 133.51 138.367 133.75C138.878 133.984 139.268 134.305 139.539 134.711C139.81 135.112 139.945 135.565 139.945 136.07H138.062C138.062 135.846 138.005 135.638 137.891 135.445C137.781 135.247 137.615 135.089 137.391 134.969C137.167 134.844 136.885 134.781 136.547 134.781C136.224 134.781 135.956 134.833 135.742 134.938C135.534 135.036 135.378 135.167 135.273 135.328C135.174 135.49 135.125 135.667 135.125 135.859C135.125 136 135.151 136.128 135.203 136.242C135.26 136.352 135.354 136.453 135.484 136.547C135.615 136.635 135.792 136.719 136.016 136.797C136.245 136.875 136.531 136.951 136.875 137.023C137.521 137.159 138.076 137.333 138.539 137.547C139.008 137.755 139.367 138.026 139.617 138.359C139.867 138.688 139.992 139.104 139.992 139.609C139.992 139.984 139.911 140.328 139.75 140.641C139.594 140.948 139.365 141.216 139.062 141.445C138.76 141.669 138.398 141.844 137.977 141.969C137.56 142.094 137.091 142.156 136.57 142.156C135.805 142.156 135.156 142.021 134.625 141.75C134.094 141.474 133.69 141.122 133.414 140.695C133.143 140.263 133.008 139.815 133.008 139.352H134.828C134.849 139.701 134.945 139.979 135.117 140.188C135.294 140.391 135.513 140.539 135.773 140.633C136.039 140.721 136.312 140.766 136.594 140.766C136.932 140.766 137.216 140.721 137.445 140.633C137.674 140.539 137.849 140.414 137.969 140.258C138.089 140.096 138.148 139.914 138.148 139.711ZM145.516 133.547V134.922H140.75V133.547H145.516ZM142.125 131.477H144.008V139.664C144.008 139.924 144.044 140.125 144.117 140.266C144.195 140.401 144.302 140.492 144.438 140.539C144.573 140.586 144.732 140.609 144.914 140.609C145.044 140.609 145.169 140.602 145.289 140.586C145.409 140.57 145.505 140.555 145.578 140.539L145.586 141.977C145.43 142.023 145.247 142.065 145.039 142.102C144.836 142.138 144.602 142.156 144.336 142.156C143.904 142.156 143.521 142.081 143.188 141.93C142.854 141.773 142.594 141.521 142.406 141.172C142.219 140.823 142.125 140.359 142.125 139.781V131.477Z" fill="white"/>
</svg>
