<svg width="272" height="56" viewBox="0 0 272 56" fill="none" xmlns="http://www.w3.org/2000/svg">
<rect x="1" y="1" width="270" height="54" rx="9" fill="#3CCB93" stroke="#3CCB93" stroke-width="2"/>
<path d="M62.6074 36H59.1709L59.193 33.801H62.6074C63.602 33.801 64.4344 33.5837 65.1048 33.1491C65.7825 32.7144 66.2908 32.092 66.6297 31.2816C66.9759 30.4713 67.149 29.5062 67.149 28.3865V27.5135C67.149 26.6443 67.0496 25.8744 66.8507 25.2041C66.6591 24.5337 66.3718 23.9701 65.9888 23.5134C65.6131 23.0567 65.149 22.7104 64.5965 22.4747C64.0513 22.239 63.4215 22.1211 62.7069 22.1211H59.1046V19.9111H62.7069C63.7751 19.9111 64.7512 20.0916 65.6352 20.4525C66.5192 20.8061 67.2816 21.3181 67.9225 21.9885C68.5708 22.6589 69.0681 23.4618 69.4143 24.3974C69.7605 25.333 69.9336 26.3791 69.9336 27.5356V28.3865C69.9336 29.5431 69.7605 30.5891 69.4143 31.5247C69.0681 32.4603 68.5708 33.2633 67.9225 33.9336C67.2743 34.5966 66.5008 35.1086 65.602 35.4696C64.7106 35.8232 63.7125 36 62.6074 36ZM60.7068 19.9111V36H57.9333V19.9111H60.7068ZM79.1936 33.6021V27.9003C79.1936 27.473 79.1163 27.1047 78.9616 26.7953C78.8069 26.4859 78.5711 26.2465 78.2544 26.077C77.945 25.9076 77.5545 25.8229 77.083 25.8229C76.6484 25.8229 76.2727 25.8965 75.9559 26.0439C75.6392 26.1912 75.3924 26.3901 75.2156 26.6406C75.0388 26.8911 74.9504 27.1747 74.9504 27.4914H72.2984C72.2984 27.02 72.4125 26.5632 72.6409 26.1212C72.8693 25.6792 73.2008 25.2851 73.6354 24.9389C74.0701 24.5926 74.5894 24.3201 75.1935 24.1212C75.7976 23.9223 76.4753 23.8228 77.2267 23.8228C78.1254 23.8228 78.921 23.9738 79.6135 24.2759C80.3134 24.5779 80.8622 25.0346 81.26 25.6461C81.6651 26.2501 81.8677 27.0089 81.8677 27.9224V33.2375C81.8677 33.7826 81.9046 34.2725 81.9782 34.7071C82.0593 35.1344 82.1734 35.5064 82.3208 35.8232V36H79.5914C79.4662 35.7127 79.3667 35.348 79.2931 34.906C79.2268 34.4567 79.1936 34.022 79.1936 33.6021ZM79.5804 28.729L79.6025 30.3755H77.6908C77.1972 30.3755 76.7626 30.4234 76.3869 30.5192C76.0112 30.6076 75.6981 30.7402 75.4476 30.917C75.1972 31.0938 75.0093 31.3074 74.8841 31.5579C74.7588 31.8083 74.6962 32.092 74.6962 32.4087C74.6962 32.7255 74.7699 33.0165 74.9172 33.2817C75.0646 33.5395 75.2782 33.7421 75.5581 33.8894C75.8454 34.0368 76.1917 34.1104 76.5968 34.1104C77.142 34.1104 77.6171 33.9999 78.0223 33.7789C78.4348 33.5506 78.759 33.2743 78.9947 32.9502C79.2304 32.6187 79.3557 32.3056 79.3704 32.0109L80.2323 33.1933C80.1439 33.4953 79.9929 33.8195 79.7793 34.1657C79.5656 34.5119 79.2857 34.8434 78.9395 35.1602C78.6006 35.4696 78.1917 35.7237 77.7129 35.9226C77.2414 36.1216 76.6963 36.221 76.0775 36.221C75.2966 36.221 74.6005 36.0663 73.989 35.7569C73.3776 35.4401 72.8988 35.0165 72.5525 34.4861C72.2063 33.9484 72.0332 33.3406 72.0332 32.6629C72.0332 32.0293 72.151 31.4695 72.3868 30.9833C72.6299 30.4897 72.9835 30.0772 73.4476 29.7457C73.919 29.4142 74.4936 29.1637 75.1714 28.9943C75.8491 28.8174 76.6226 28.729 77.4919 28.729H79.5804ZM91.3597 32.7623C91.3597 32.4971 91.2934 32.2577 91.1608 32.0441C91.0282 31.8231 90.7741 31.6242 90.3984 31.4474C90.0301 31.2706 89.4849 31.1085 88.763 30.9612C88.1294 30.8212 87.5475 30.6554 87.0171 30.4639C86.494 30.265 86.0447 30.0256 85.669 29.7457C85.2933 29.4657 85.0023 29.1342 84.796 28.7511C84.5897 28.3681 84.4866 27.9261 84.4866 27.4251C84.4866 26.9389 84.5934 26.4785 84.8071 26.0439C85.0207 25.6092 85.3264 25.2262 85.7242 24.8947C86.122 24.5632 86.6045 24.3017 87.1718 24.1101C87.7464 23.9186 88.3873 23.8228 89.0945 23.8228C90.0964 23.8228 90.9546 23.9922 91.6691 24.3311C92.3911 24.6626 92.9436 25.1157 93.3267 25.6903C93.7097 26.2575 93.9013 26.8984 93.9013 27.613H91.2382C91.2382 27.2962 91.1572 27.0016 90.9951 26.729C90.8404 26.449 90.6047 26.2244 90.2879 26.0549C89.9711 25.8781 89.5733 25.7897 89.0945 25.7897C88.6377 25.7897 88.2584 25.8634 87.9563 26.0107C87.6617 26.1507 87.4407 26.3349 87.2933 26.5632C87.1534 26.7916 87.0834 27.0421 87.0834 27.3146C87.0834 27.5135 87.1202 27.694 87.1939 27.8561C87.2749 28.0108 87.4075 28.1544 87.5917 28.287C87.7758 28.4123 88.0263 28.5301 88.3431 28.6406C88.6672 28.7511 89.0724 28.858 89.5586 28.9611C90.4721 29.1526 91.2566 29.3994 91.9123 29.7015C92.5753 29.9961 93.0836 30.3792 93.4372 30.8507C93.7908 31.3148 93.9676 31.9041 93.9676 32.6187C93.9676 33.1491 93.8534 33.6353 93.625 34.0773C93.404 34.5119 93.0799 34.8913 92.6526 35.2154C92.2253 35.5322 91.7133 35.779 91.1166 35.9558C90.5273 36.1326 89.8643 36.221 89.1276 36.221C88.0447 36.221 87.1276 36.0295 86.3762 35.6464C85.6248 35.256 85.0538 34.7587 84.6634 34.1546C84.2803 33.5432 84.0888 32.9097 84.0888 32.254H86.6635C86.6929 32.7476 86.8292 33.1417 87.0723 33.4364C87.3228 33.7237 87.6322 33.9336 88.0005 34.0662C88.3762 34.1915 88.763 34.2541 89.1608 34.2541C89.6396 34.2541 90.0411 34.1915 90.3652 34.0662C90.6894 33.9336 90.9362 33.7568 91.1056 33.5358C91.275 33.3075 91.3597 33.0496 91.3597 32.7623ZM98.929 19.0271V36H96.277V19.0271H98.929ZM98.4649 29.5799L97.603 29.5689C97.6104 28.7438 97.7246 27.9813 97.9456 27.2815C98.174 26.5817 98.4907 25.9739 98.8959 25.4582C99.3084 24.9352 99.802 24.5337 100.377 24.2538C100.951 23.9665 101.588 23.8228 102.288 23.8228C102.878 23.8228 103.408 23.9038 103.879 24.0659C104.358 24.228 104.771 24.4895 105.117 24.8505C105.463 25.2041 105.725 25.6682 105.902 26.2428C106.086 26.81 106.178 27.5025 106.178 28.3202V36H103.504V28.2981C103.504 27.7235 103.419 27.2668 103.25 26.9279C103.088 26.589 102.848 26.3459 102.531 26.1986C102.215 26.0439 101.828 25.9665 101.371 25.9665C100.892 25.9665 100.469 26.0623 100.1 26.2538C99.7394 26.4454 99.4374 26.7069 99.1943 27.0384C98.9511 27.3699 98.767 27.753 98.6417 28.1876C98.5239 28.6222 98.4649 29.0863 98.4649 29.5799ZM108.885 19.0271H111.548V33.4474L111.294 36H108.885V19.0271ZM119.35 29.9114V30.1435C119.35 31.0275 119.25 31.8415 119.051 32.5855C118.86 33.3222 118.565 33.9631 118.167 34.5082C117.777 35.0534 117.291 35.477 116.709 35.779C116.134 36.0737 115.467 36.221 114.709 36.221C113.965 36.221 113.316 36.081 112.764 35.8011C112.211 35.5212 111.747 35.1234 111.371 34.6077C111.003 34.092 110.705 33.4769 110.476 32.7623C110.248 32.0478 110.086 31.2595 109.99 30.3976V29.6573C110.086 28.788 110.248 27.9997 110.476 27.2925C110.705 26.578 111.003 25.9628 111.371 25.4472C111.747 24.9241 112.208 24.5227 112.753 24.2427C113.305 23.9628 113.95 23.8228 114.686 23.8228C115.453 23.8228 116.127 23.9701 116.709 24.2648C117.298 24.5595 117.788 24.9794 118.178 25.5245C118.569 26.0623 118.86 26.7032 119.051 27.4472C119.25 28.1913 119.35 29.0127 119.35 29.9114ZM116.687 30.1435V29.9114C116.687 29.3736 116.642 28.869 116.554 28.3975C116.466 27.9187 116.318 27.4988 116.112 27.1378C115.913 26.7769 115.64 26.4933 115.294 26.287C114.955 26.0733 114.532 25.9665 114.023 25.9665C113.552 25.9665 113.147 26.0476 112.808 26.2096C112.469 26.3717 112.185 26.5927 111.957 26.8726C111.729 27.1526 111.548 27.4767 111.416 27.845C111.29 28.2134 111.206 28.6112 111.161 29.0385V31.0385C111.228 31.591 111.368 32.0993 111.581 32.5634C111.802 33.0202 112.112 33.3885 112.51 33.6684C112.907 33.941 113.419 34.0773 114.046 34.0773C114.539 34.0773 114.955 33.9778 115.294 33.7789C115.633 33.58 115.902 33.3038 116.101 32.9502C116.307 32.5892 116.454 32.1693 116.543 31.6905C116.639 31.2116 116.687 30.696 116.687 30.1435ZM121.096 30.1545V29.9004C121.096 29.0385 121.221 28.2392 121.471 27.5025C121.722 26.7585 122.083 26.1139 122.554 25.5687C123.033 25.0162 123.615 24.589 124.3 24.2869C124.992 23.9775 125.773 23.8228 126.643 23.8228C127.519 23.8228 128.3 23.9775 128.985 24.2869C129.678 24.589 130.263 25.0162 130.742 25.5687C131.221 26.1139 131.586 26.7585 131.836 27.5025C132.087 28.2392 132.212 29.0385 132.212 29.9004V30.1545C132.212 31.0164 132.087 31.8157 131.836 32.5524C131.586 33.289 131.221 33.9336 130.742 34.4861C130.263 35.0313 129.681 35.4585 128.996 35.7679C128.311 36.07 127.534 36.221 126.665 36.221C125.788 36.221 125.004 36.07 124.311 35.7679C123.626 35.4585 123.044 35.0313 122.565 34.4861C122.086 33.9336 121.722 33.289 121.471 32.5524C121.221 31.8157 121.096 31.0164 121.096 30.1545ZM123.759 29.9004V30.1545C123.759 30.6923 123.814 31.2006 123.924 31.6794C124.035 32.1583 124.208 32.5782 124.444 32.9391C124.679 33.3001 124.981 33.5837 125.35 33.79C125.718 33.9963 126.156 34.0994 126.665 34.0994C127.158 34.0994 127.586 33.9963 127.947 33.79C128.315 33.5837 128.617 33.3001 128.853 32.9391C129.088 32.5782 129.262 32.1583 129.372 31.6794C129.49 31.2006 129.549 30.6923 129.549 30.1545V29.9004C129.549 29.37 129.49 28.869 129.372 28.3975C129.262 27.9187 129.085 27.4951 128.842 27.1268C128.606 26.7585 128.304 26.4712 127.936 26.2649C127.575 26.0512 127.144 25.9444 126.643 25.9444C126.142 25.9444 125.707 26.0512 125.339 26.2649C124.978 26.4712 124.679 26.7585 124.444 27.1268C124.208 27.4951 124.035 27.9187 123.924 28.3975C123.814 28.869 123.759 29.37 123.759 29.9004ZM141.185 33.6021V27.9003C141.185 27.473 141.107 27.1047 140.952 26.7953C140.798 26.4859 140.562 26.2465 140.245 26.077C139.936 25.9076 139.545 25.8229 139.074 25.8229C138.639 25.8229 138.264 25.8965 137.947 26.0439C137.63 26.1912 137.383 26.3901 137.207 26.6406C137.03 26.8911 136.941 27.1747 136.941 27.4914H134.289C134.289 27.02 134.403 26.5632 134.632 26.1212C134.86 25.6792 135.192 25.2851 135.626 24.9389C136.061 24.5926 136.58 24.3201 137.184 24.1212C137.788 23.9223 138.466 23.8228 139.218 23.8228C140.116 23.8228 140.912 23.9738 141.604 24.2759C142.304 24.5779 142.853 25.0346 143.251 25.6461C143.656 26.2501 143.859 27.0089 143.859 27.9224V33.2375C143.859 33.7826 143.896 34.2725 143.969 34.7071C144.05 35.1344 144.164 35.5064 144.312 35.8232V36H141.582C141.457 35.7127 141.358 35.348 141.284 34.906C141.218 34.4567 141.185 34.022 141.185 33.6021ZM141.571 28.729L141.593 30.3755H139.682C139.188 30.3755 138.754 30.4234 138.378 30.5192C138.002 30.6076 137.689 30.7402 137.439 30.917C137.188 31.0938 137 31.3074 136.875 31.5579C136.75 31.8083 136.687 32.092 136.687 32.4087C136.687 32.7255 136.761 33.0165 136.908 33.2817C137.056 33.5395 137.269 33.7421 137.549 33.8894C137.836 34.0368 138.183 34.1104 138.588 34.1104C139.133 34.1104 139.608 33.9999 140.013 33.7789C140.426 33.5506 140.75 33.2743 140.986 32.9502C141.221 32.6187 141.347 32.3056 141.361 32.0109L142.223 33.1933C142.135 33.4953 141.984 33.8195 141.77 34.1657C141.557 34.5119 141.277 34.8434 140.93 35.1602C140.592 35.4696 140.183 35.7237 139.704 35.9226C139.232 36.1216 138.687 36.221 138.068 36.221C137.288 36.221 136.591 36.0663 135.98 35.7569C135.369 35.4401 134.89 35.0165 134.543 34.4861C134.197 33.9484 134.024 33.3406 134.024 32.6629C134.024 32.0293 134.142 31.4695 134.378 30.9833C134.621 30.4897 134.974 30.0772 135.439 29.7457C135.91 29.4142 136.485 29.1637 137.162 28.9943C137.84 28.8174 138.614 28.729 139.483 28.729H141.571ZM149.317 26.3201V36H146.654V24.0438H149.196L149.317 26.3201ZM152.975 23.9665L152.953 26.4417C152.791 26.4122 152.614 26.3901 152.422 26.3754C152.238 26.3606 152.054 26.3533 151.87 26.3533C151.413 26.3533 151.012 26.4196 150.666 26.5522C150.319 26.6774 150.028 26.8616 149.793 27.1047C149.564 27.3404 149.387 27.6277 149.262 27.9666C149.137 28.3055 149.063 28.6848 149.041 29.1048L148.433 29.149C148.433 28.3975 148.507 27.7014 148.654 27.0605C148.802 26.4196 149.023 25.856 149.317 25.3698C149.619 24.8836 149.995 24.5042 150.445 24.2317C150.901 23.9591 151.428 23.8228 152.025 23.8228C152.187 23.8228 152.36 23.8375 152.544 23.867C152.736 23.8965 152.879 23.9296 152.975 23.9665ZM161.716 33.5248V19.0271H164.39V36H161.97L161.716 33.5248ZM153.936 30.1545V29.9225C153.936 29.0164 154.043 28.1913 154.257 27.4472C154.47 26.6958 154.78 26.0512 155.185 25.5135C155.59 24.9683 156.084 24.5521 156.666 24.2648C157.248 23.9701 157.903 23.8228 158.633 23.8228C159.355 23.8228 159.988 23.9628 160.533 24.2427C161.078 24.5227 161.542 24.9241 161.926 25.4472C162.309 25.9628 162.614 26.5817 162.843 27.3036C163.071 28.0182 163.233 28.8138 163.329 29.6904V30.4308C163.233 31.2853 163.071 32.0662 162.843 32.7734C162.614 33.4806 162.309 34.092 161.926 34.6077C161.542 35.1234 161.075 35.5212 160.522 35.8011C159.977 36.081 159.34 36.221 158.611 36.221C157.889 36.221 157.237 36.07 156.655 35.7679C156.08 35.4659 155.59 35.0423 155.185 34.4972C154.78 33.9521 154.47 33.3111 154.257 32.5745C154.043 31.8304 153.936 31.0238 153.936 30.1545ZM156.599 29.9225V30.1545C156.599 30.6996 156.647 31.2079 156.743 31.6794C156.846 32.1509 157.005 32.5671 157.218 32.9281C157.432 33.2817 157.708 33.5616 158.047 33.7679C158.393 33.9668 158.806 34.0662 159.285 34.0662C159.889 34.0662 160.386 33.9336 160.776 33.6684C161.167 33.4032 161.472 33.0459 161.693 32.5966C161.922 32.1398 162.077 31.6315 162.158 31.0717V29.0716C162.113 28.637 162.021 28.2318 161.881 27.8561C161.749 27.4804 161.568 27.1526 161.34 26.8726C161.112 26.5853 160.828 26.3643 160.489 26.2096C160.158 26.0476 159.763 25.9665 159.307 25.9665C158.82 25.9665 158.408 26.0697 158.069 26.2759C157.73 26.4822 157.45 26.7658 157.229 27.1268C157.016 27.4878 156.857 27.9077 156.754 28.3865C156.651 28.8653 156.599 29.3773 156.599 29.9225Z" fill="white"/>
<path d="M21.0928 29.5729H29.0515V19.6245H21.0928V29.5729ZM21.0928 37.5317H29.0515V31.5626H21.0928V37.5317ZM31.0412 37.5317H38.9999V27.5833H31.0412V37.5317ZM31.0412 19.6245V25.5936H38.9999V19.6245H31.0412Z" fill="white"/>
<path d="M31.0386 19.6074L39 19.6075V25.5936H31.0386L31.0386 19.6074Z" fill="white"/>
<path d="M21.1602 31.6172H29.1406L29.0703 37.5312H21.0703L21.1602 31.6172Z" fill="white"/>
</svg>
