<svg width="632" height="128" viewBox="0 0 632 128" fill="none" xmlns="http://www.w3.org/2000/svg">
<line x1="81.5" y1="-2.18557e-08" x2="81.5" y2="127" stroke="#383874"/>
<line x1="244.5" y1="-2.18557e-08" x2="244.5" y2="67" stroke="#383874"/>
<line x1="380.5" y1="1" x2="380.5" y2="66" stroke="#383874"/>
<line x1="632" y1="67.5" y2="67.5" stroke="#383874"/>
<line x1="632" y1="127.5" y2="127.5" stroke="#383874"/>
<line x1="632" y1="0.5" y2="0.5" stroke="#383874"/>
<path d="M310.428 90.1289V92.8096H309.109V90.1289H310.428ZM310.27 104.481V106.828H308.96V104.481H310.27ZM312.027 101.704C312.027 101.353 311.948 101.036 311.79 100.755C311.632 100.474 311.371 100.216 311.008 99.9814C310.645 99.7471 310.158 99.5303 309.549 99.3311C308.811 99.1025 308.172 98.8242 307.633 98.4961C307.1 98.168 306.687 97.7607 306.394 97.2744C306.106 96.7881 305.963 96.1992 305.963 95.5078C305.963 94.7871 306.118 94.166 306.429 93.6445C306.739 93.123 307.179 92.7217 307.747 92.4404C308.315 92.1592 308.983 92.0186 309.751 92.0186C310.349 92.0186 310.882 92.1094 311.351 92.291C311.819 92.4668 312.215 92.7305 312.537 93.082C312.865 93.4336 313.114 93.8643 313.284 94.374C313.46 94.8838 313.548 95.4727 313.548 96.1406H311.931C311.931 95.748 311.884 95.3877 311.79 95.0596C311.696 94.7314 311.556 94.4473 311.368 94.207C311.181 93.9609 310.952 93.7734 310.683 93.6445C310.413 93.5098 310.103 93.4424 309.751 93.4424C309.259 93.4424 308.852 93.5273 308.529 93.6973C308.213 93.8672 307.979 94.1074 307.826 94.418C307.674 94.7227 307.598 95.0771 307.598 95.4814C307.598 95.8564 307.674 96.1846 307.826 96.4658C307.979 96.7471 308.236 97.002 308.6 97.2305C308.969 97.4531 309.476 97.6729 310.12 97.8896C310.876 98.1299 311.518 98.4141 312.045 98.7422C312.572 99.0645 312.974 99.4629 313.249 99.9375C313.524 100.406 313.662 100.989 313.662 101.687C313.662 102.442 313.492 103.081 313.152 103.603C312.812 104.118 312.335 104.511 311.72 104.78C311.104 105.05 310.384 105.185 309.558 105.185C309.06 105.185 308.567 105.117 308.081 104.982C307.595 104.848 307.155 104.628 306.763 104.323C306.37 104.013 306.057 103.605 305.822 103.102C305.588 102.592 305.471 101.968 305.471 101.229H307.105C307.105 101.728 307.176 102.141 307.316 102.469C307.463 102.791 307.656 103.049 307.896 103.242C308.137 103.43 308.4 103.564 308.688 103.646C308.98 103.723 309.271 103.761 309.558 103.761C310.085 103.761 310.53 103.679 310.894 103.515C311.263 103.345 311.544 103.104 311.737 102.794C311.931 102.483 312.027 102.12 312.027 101.704ZM318.065 97.8018H319.226C319.794 97.8018 320.263 97.708 320.632 97.5205C321.007 97.3271 321.285 97.0664 321.467 96.7383C321.654 96.4043 321.748 96.0293 321.748 95.6133C321.748 95.1211 321.666 94.708 321.502 94.374C321.338 94.04 321.092 93.7881 320.764 93.6182C320.436 93.4482 320.02 93.3633 319.516 93.3633C319.059 93.3633 318.654 93.4541 318.303 93.6357C317.957 93.8115 317.685 94.0635 317.485 94.3916C317.292 94.7197 317.195 95.1064 317.195 95.5518H315.569C315.569 94.9014 315.733 94.3096 316.062 93.7764C316.39 93.2432 316.85 92.8184 317.441 92.502C318.039 92.1855 318.73 92.0273 319.516 92.0273C320.289 92.0273 320.966 92.165 321.546 92.4404C322.126 92.71 322.577 93.1143 322.899 93.6533C323.222 94.1865 323.383 94.8516 323.383 95.6484C323.383 95.9707 323.307 96.3164 323.154 96.6855C323.008 97.0488 322.776 97.3887 322.46 97.7051C322.149 98.0215 321.745 98.2822 321.247 98.4873C320.749 98.6865 320.151 98.7861 319.454 98.7861H318.065V97.8018ZM318.065 99.1377V98.1621H319.454C320.269 98.1621 320.942 98.2588 321.476 98.4521C322.009 98.6455 322.428 98.9033 322.732 99.2256C323.043 99.5479 323.26 99.9023 323.383 100.289C323.512 100.67 323.576 101.051 323.576 101.432C323.576 102.029 323.474 102.56 323.269 103.022C323.069 103.485 322.785 103.878 322.416 104.2C322.053 104.522 321.625 104.766 321.133 104.93C320.641 105.094 320.104 105.176 319.524 105.176C318.968 105.176 318.443 105.097 317.951 104.938C317.465 104.78 317.034 104.552 316.659 104.253C316.284 103.948 315.991 103.576 315.78 103.137C315.569 102.691 315.464 102.185 315.464 101.616H317.09C317.09 102.062 317.187 102.451 317.38 102.785C317.579 103.119 317.86 103.38 318.224 103.567C318.593 103.749 319.026 103.84 319.524 103.84C320.022 103.84 320.45 103.755 320.808 103.585C321.171 103.409 321.449 103.146 321.643 102.794C321.842 102.442 321.941 102 321.941 101.467C321.941 100.934 321.83 100.497 321.607 100.157C321.385 99.8115 321.068 99.5566 320.658 99.3926C320.254 99.2227 319.776 99.1377 319.226 99.1377H318.065ZM333.851 97.582V99.5332C333.851 100.582 333.757 101.467 333.569 102.188C333.382 102.908 333.112 103.488 332.761 103.928C332.409 104.367 331.984 104.687 331.486 104.886C330.994 105.079 330.438 105.176 329.816 105.176C329.324 105.176 328.87 105.114 328.454 104.991C328.038 104.868 327.663 104.672 327.329 104.402C327.001 104.127 326.72 103.77 326.485 103.33C326.251 102.891 326.072 102.357 325.949 101.73C325.826 101.104 325.765 100.371 325.765 99.5332V97.582C325.765 96.5332 325.858 95.6543 326.046 94.9453C326.239 94.2363 326.512 93.668 326.863 93.2402C327.215 92.8066 327.637 92.4961 328.129 92.3086C328.627 92.1211 329.184 92.0273 329.799 92.0273C330.297 92.0273 330.754 92.0889 331.17 92.2119C331.592 92.3291 331.967 92.5195 332.295 92.7832C332.623 93.041 332.901 93.3867 333.13 93.8203C333.364 94.248 333.543 94.7725 333.666 95.3936C333.789 96.0146 333.851 96.7441 333.851 97.582ZM332.216 99.7969V97.3096C332.216 96.7354 332.181 96.2314 332.11 95.7979C332.046 95.3584 331.949 94.9834 331.82 94.6729C331.691 94.3623 331.527 94.1104 331.328 93.917C331.135 93.7236 330.909 93.583 330.651 93.4951C330.399 93.4014 330.115 93.3545 329.799 93.3545C329.412 93.3545 329.069 93.4277 328.771 93.5742C328.472 93.7148 328.22 93.9404 328.015 94.251C327.815 94.5615 327.663 94.9688 327.558 95.4727C327.452 95.9766 327.399 96.5889 327.399 97.3096V99.7969C327.399 100.371 327.432 100.878 327.496 101.317C327.566 101.757 327.669 102.138 327.804 102.46C327.938 102.776 328.103 103.037 328.296 103.242C328.489 103.447 328.712 103.6 328.964 103.699C329.222 103.793 329.506 103.84 329.816 103.84C330.215 103.84 330.563 103.764 330.862 103.611C331.161 103.459 331.41 103.222 331.609 102.899C331.814 102.571 331.967 102.152 332.066 101.643C332.166 101.127 332.216 100.512 332.216 99.7969ZM343.976 97.582V99.5332C343.976 100.582 343.882 101.467 343.694 102.188C343.507 102.908 343.237 103.488 342.886 103.928C342.534 104.367 342.109 104.687 341.611 104.886C341.119 105.079 340.562 105.176 339.941 105.176C339.449 105.176 338.995 105.114 338.579 104.991C338.163 104.868 337.788 104.672 337.454 104.402C337.126 104.127 336.845 103.77 336.61 103.33C336.376 102.891 336.197 102.357 336.074 101.73C335.951 101.104 335.89 100.371 335.89 99.5332V97.582C335.89 96.5332 335.983 95.6543 336.171 94.9453C336.364 94.2363 336.637 93.668 336.988 93.2402C337.34 92.8066 337.762 92.4961 338.254 92.3086C338.752 92.1211 339.309 92.0273 339.924 92.0273C340.422 92.0273 340.879 92.0889 341.295 92.2119C341.717 92.3291 342.092 92.5195 342.42 92.7832C342.748 93.041 343.026 93.3867 343.255 93.8203C343.489 94.248 343.668 94.7725 343.791 95.3936C343.914 96.0146 343.976 96.7441 343.976 97.582ZM342.341 99.7969V97.3096C342.341 96.7354 342.306 96.2314 342.235 95.7979C342.171 95.3584 342.074 94.9834 341.945 94.6729C341.816 94.3623 341.652 94.1104 341.453 93.917C341.26 93.7236 341.034 93.583 340.776 93.4951C340.524 93.4014 340.24 93.3545 339.924 93.3545C339.537 93.3545 339.194 93.4277 338.896 93.5742C338.597 93.7148 338.345 93.9404 338.14 94.251C337.94 94.5615 337.788 94.9688 337.683 95.4727C337.577 95.9766 337.524 96.5889 337.524 97.3096V99.7969C337.524 100.371 337.557 100.878 337.621 101.317C337.691 101.757 337.794 102.138 337.929 102.46C338.063 102.776 338.228 103.037 338.421 103.242C338.614 103.447 338.837 103.6 339.089 103.699C339.347 103.793 339.631 103.84 339.941 103.84C340.34 103.84 340.688 103.764 340.987 103.611C341.286 103.459 341.535 103.222 341.734 102.899C341.939 102.571 342.092 102.152 342.191 101.643C342.291 101.127 342.341 100.512 342.341 99.7969ZM346.27 104.139C346.27 103.863 346.354 103.632 346.524 103.444C346.7 103.251 346.952 103.154 347.28 103.154C347.608 103.154 347.857 103.251 348.027 103.444C348.203 103.632 348.291 103.863 348.291 104.139C348.291 104.408 348.203 104.637 348.027 104.824C347.857 105.012 347.608 105.105 347.28 105.105C346.952 105.105 346.7 105.012 346.524 104.824C346.354 104.637 346.27 104.408 346.27 104.139ZM358.847 97.582V99.5332C358.847 100.582 358.753 101.467 358.565 102.188C358.378 102.908 358.108 103.488 357.757 103.928C357.405 104.367 356.98 104.687 356.482 104.886C355.99 105.079 355.434 105.176 354.812 105.176C354.32 105.176 353.866 105.114 353.45 104.991C353.034 104.868 352.659 104.672 352.325 104.402C351.997 104.127 351.716 103.77 351.481 103.33C351.247 102.891 351.068 102.357 350.945 101.73C350.822 101.104 350.761 100.371 350.761 99.5332V97.582C350.761 96.5332 350.854 95.6543 351.042 94.9453C351.235 94.2363 351.508 93.668 351.859 93.2402C352.211 92.8066 352.633 92.4961 353.125 92.3086C353.623 92.1211 354.18 92.0273 354.795 92.0273C355.293 92.0273 355.75 92.0889 356.166 92.2119C356.588 92.3291 356.963 92.5195 357.291 92.7832C357.619 93.041 357.897 93.3867 358.126 93.8203C358.36 94.248 358.539 94.7725 358.662 95.3936C358.785 96.0146 358.847 96.7441 358.847 97.582ZM357.212 99.7969V97.3096C357.212 96.7354 357.177 96.2314 357.106 95.7979C357.042 95.3584 356.945 94.9834 356.816 94.6729C356.688 94.3623 356.523 94.1104 356.324 93.917C356.131 93.7236 355.905 93.583 355.647 93.4951C355.396 93.4014 355.111 93.3545 354.795 93.3545C354.408 93.3545 354.065 93.4277 353.767 93.5742C353.468 93.7148 353.216 93.9404 353.011 94.251C352.812 94.5615 352.659 94.9688 352.554 95.4727C352.448 95.9766 352.396 96.5889 352.396 97.3096V99.7969C352.396 100.371 352.428 100.878 352.492 101.317C352.562 101.757 352.665 102.138 352.8 102.46C352.935 102.776 353.099 103.037 353.292 103.242C353.485 103.447 353.708 103.6 353.96 103.699C354.218 103.793 354.502 103.84 354.812 103.84C355.211 103.84 355.56 103.764 355.858 103.611C356.157 103.459 356.406 103.222 356.605 102.899C356.811 102.571 356.963 102.152 357.062 101.643C357.162 101.127 357.212 100.512 357.212 99.7969ZM368.972 97.582V99.5332C368.972 100.582 368.878 101.467 368.69 102.188C368.503 102.908 368.233 103.488 367.882 103.928C367.53 104.367 367.105 104.687 366.607 104.886C366.115 105.079 365.559 105.176 364.938 105.176C364.445 105.176 363.991 105.114 363.575 104.991C363.159 104.868 362.784 104.672 362.45 104.402C362.122 104.127 361.841 103.77 361.606 103.33C361.372 102.891 361.193 102.357 361.07 101.73C360.947 101.104 360.886 100.371 360.886 99.5332V97.582C360.886 96.5332 360.979 95.6543 361.167 94.9453C361.36 94.2363 361.633 93.668 361.984 93.2402C362.336 92.8066 362.758 92.4961 363.25 92.3086C363.748 92.1211 364.305 92.0273 364.92 92.0273C365.418 92.0273 365.875 92.0889 366.291 92.2119C366.713 92.3291 367.088 92.5195 367.416 92.7832C367.744 93.041 368.022 93.3867 368.251 93.8203C368.485 94.248 368.664 94.7725 368.787 95.3936C368.91 96.0146 368.972 96.7441 368.972 97.582ZM367.337 99.7969V97.3096C367.337 96.7354 367.302 96.2314 367.231 95.7979C367.167 95.3584 367.07 94.9834 366.941 94.6729C366.812 94.3623 366.648 94.1104 366.449 93.917C366.256 93.7236 366.03 93.583 365.772 93.4951C365.521 93.4014 365.236 93.3545 364.92 93.3545C364.533 93.3545 364.19 93.4277 363.892 93.5742C363.593 93.7148 363.341 93.9404 363.136 94.251C362.937 94.5615 362.784 94.9688 362.679 95.4727C362.573 95.9766 362.521 96.5889 362.521 97.3096V99.7969C362.521 100.371 362.553 100.878 362.617 101.317C362.688 101.757 362.79 102.138 362.925 102.46C363.06 102.776 363.224 103.037 363.417 103.242C363.61 103.447 363.833 103.6 364.085 103.699C364.343 103.793 364.627 103.84 364.938 103.84C365.336 103.84 365.685 103.764 365.983 103.611C366.282 103.459 366.531 103.222 366.73 102.899C366.936 102.571 367.088 102.152 367.188 101.643C367.287 101.127 367.337 100.512 367.337 99.7969Z" fill="#383874"/>
<path d="M101.186 41.1016V43H94.3828V41.1016H101.186ZM95.1211 30.2031V43H92.7041V30.2031H95.1211ZM100.298 35.4854V37.3398H94.3828V35.4854H100.298ZM101.159 30.2031V32.1104H94.3828V30.2031H101.159ZM103.919 30.2031H106.011L109.509 39.8359L112.998 30.2031H115.099L110.344 43H108.665L103.919 30.2031ZM102.864 30.2031H104.912L105.281 39.0537V43H102.864V30.2031ZM114.097 30.2031H116.153V43H113.736V39.0537L114.097 30.2031ZM123.536 38.333H120.24V36.4346H123.536C124.075 36.4346 124.512 36.3467 124.846 36.1709C125.186 35.9893 125.435 35.7432 125.593 35.4326C125.751 35.1162 125.83 34.7559 125.83 34.3516C125.83 33.959 125.751 33.5928 125.593 33.2529C125.435 32.9131 125.186 32.6377 124.846 32.4268C124.512 32.2158 124.075 32.1104 123.536 32.1104H121.031V43H118.614V30.2031H123.536C124.532 30.2031 125.382 30.3818 126.085 30.7393C126.794 31.0908 127.333 31.5801 127.702 32.207C128.077 32.8281 128.265 33.5371 128.265 34.334C128.265 35.1602 128.077 35.8721 127.702 36.4697C127.333 37.0674 126.794 37.5273 126.085 37.8496C125.382 38.1719 124.532 38.333 123.536 38.333ZM138.284 41.1016V43H131.851V41.1016H138.284ZM132.58 30.2031V43H130.163V30.2031H132.58ZM149.684 36.2764V36.9355C149.684 37.9023 149.555 38.7725 149.297 39.5459C149.039 40.3135 148.673 40.9668 148.198 41.5059C147.724 42.0449 147.158 42.458 146.502 42.7451C145.846 43.0322 145.116 43.1758 144.313 43.1758C143.522 43.1758 142.796 43.0322 142.134 42.7451C141.478 42.458 140.909 42.0449 140.429 41.5059C139.948 40.9668 139.576 40.3135 139.312 39.5459C139.049 38.7725 138.917 37.9023 138.917 36.9355V36.2764C138.917 35.3037 139.049 34.4336 139.312 33.666C139.576 32.8984 139.945 32.2451 140.42 31.7061C140.895 31.1611 141.46 30.7451 142.116 30.458C142.778 30.1709 143.505 30.0273 144.296 30.0273C145.099 30.0273 145.828 30.1709 146.484 30.458C147.141 30.7451 147.706 31.1611 148.181 31.7061C148.661 32.2451 149.03 32.8984 149.288 33.666C149.552 34.4336 149.684 35.3037 149.684 36.2764ZM147.24 36.9355V36.2588C147.24 35.5615 147.176 34.9492 147.047 34.4219C146.918 33.8887 146.728 33.4404 146.476 33.0771C146.224 32.7139 145.913 32.4414 145.544 32.2598C145.175 32.0723 144.759 31.9785 144.296 31.9785C143.827 31.9785 143.411 32.0723 143.048 32.2598C142.69 32.4414 142.386 32.7139 142.134 33.0771C141.882 33.4404 141.688 33.8887 141.554 34.4219C141.425 34.9492 141.36 35.5615 141.36 36.2588V36.9355C141.36 37.627 141.425 38.2393 141.554 38.7725C141.688 39.3057 141.882 39.7568 142.134 40.126C142.392 40.4893 142.702 40.7646 143.065 40.9521C143.429 41.1396 143.845 41.2334 144.313 41.2334C144.782 41.2334 145.198 41.1396 145.562 40.9521C145.925 40.7646 146.229 40.4893 146.476 40.126C146.728 39.7568 146.918 39.3057 147.047 38.7725C147.176 38.2393 147.24 37.627 147.24 36.9355ZM152.839 30.2031L155.651 36.1709L158.481 30.2031H161.136L156.882 38.3154V43H154.43V38.3154L150.167 30.2031H152.839ZM170.9 41.1016V43H164.098V41.1016H170.9ZM164.836 30.2031V43H162.419V30.2031H164.836ZM170.013 35.4854V37.3398H164.098V35.4854H170.013ZM170.874 30.2031V32.1104H164.098V30.2031H170.874ZM181.061 41.1016V43H174.258V41.1016H181.061ZM174.996 30.2031V43H172.579V30.2031H174.996ZM180.173 35.4854V37.3398H174.258V35.4854H180.173ZM181.034 30.2031V32.1104H174.258V30.2031H181.034Z" fill="#383874"/>
<path d="M310.822 30.2031V43H308.396L302.956 34.123V43H300.539V30.2031H302.956L308.414 39.0889V30.2031H310.822ZM321.765 41.1016V43H314.962V41.1016H321.765ZM315.7 30.2031V43H313.283V30.2031H315.7ZM320.877 35.4854V37.3398H314.962V35.4854H320.877ZM321.738 30.2031V32.1104H314.962V30.2031H321.738ZM329.112 30.2031V43H326.704V30.2031H329.112ZM333.085 30.2031V32.1104H322.775V30.2031H333.085ZM343.658 38.333H340.362V36.4346H343.658C344.197 36.4346 344.634 36.3467 344.968 36.1709C345.308 35.9893 345.557 35.7432 345.715 35.4326C345.873 35.1162 345.952 34.7559 345.952 34.3516C345.952 33.959 345.873 33.5928 345.715 33.2529C345.557 32.9131 345.308 32.6377 344.968 32.4268C344.634 32.2158 344.197 32.1104 343.658 32.1104H341.153V43H338.736V30.2031H343.658C344.654 30.2031 345.504 30.3818 346.207 30.7393C346.916 31.0908 347.455 31.5801 347.824 32.207C348.199 32.8281 348.387 33.5371 348.387 34.334C348.387 35.1602 348.199 35.8721 347.824 36.4697C347.455 37.0674 346.916 37.5273 346.207 37.8496C345.504 38.1719 344.654 38.333 343.658 38.333ZM353.985 32.1455L350.338 43H347.78L352.562 30.2031H354.196L353.985 32.1455ZM357.035 43L353.37 32.1455L353.15 30.2031H354.794L359.602 43H357.035ZM356.868 38.2451V40.1523H350.004V38.2451H356.868ZM361.324 30.2031L364.137 36.1709L366.967 30.2031H369.621L365.367 38.3154V43H362.915V38.3154L358.652 30.2031H361.324Z" fill="#383874"/>
<path d="M44 26.5H54C56.4853 26.5 58.5 28.5147 58.5 31V41C58.5 43.4853 56.4853 45.5 54 45.5H44C41.5147 45.5 39.5 43.4853 39.5 41V31C39.5 28.5147 41.5147 26.5 44 26.5Z" fill="white" stroke="#3CCB93"/>
<path d="M53.0742 31.908L47.2503 37.7264L45.1711 35.6473L44.8188 35.295L44.4653 35.6461L43.637 36.4686L43.2809 36.8221L43.6357 37.1769L46.8965 40.4378L47.2501 40.7913L47.6036 40.4378L54.6036 33.4378L54.9572 33.0842L54.6036 32.7307L53.7811 31.9082L53.4278 31.5548L53.0742 31.908Z" fill="#383874" stroke="#383874"/>
<path d="M44 88.5H54C56.4853 88.5 58.5 90.5147 58.5 93V103C58.5 105.485 56.4853 107.5 54 107.5H44C41.5147 107.5 39.5 105.485 39.5 103V93C39.5 90.5147 41.5147 88.5 44 88.5Z" fill="white" stroke="#3CCB93"/>
<path d="M53.0742 93.908L47.2503 99.7264L45.1711 97.6473L44.8188 97.295L44.4653 97.6461L43.637 98.4686L43.2809 98.8221L43.6357 99.1769L46.8965 102.438L47.2501 102.791L47.6036 102.438L54.6036 95.4378L54.9572 95.0842L54.6036 94.7307L53.7811 93.9082L53.4278 93.5548L53.0742 93.908Z" fill="#383874" stroke="#383874"/>
<path d="M104.306 100.766C104.306 100.467 104.259 100.203 104.165 99.9746C104.077 99.7402 103.919 99.5293 103.69 99.3418C103.468 99.1543 103.157 98.9756 102.759 98.8057C102.366 98.6357 101.868 98.4629 101.265 98.2871C100.632 98.0996 100.061 97.8916 99.5508 97.6631C99.041 97.4287 98.6045 97.1621 98.2412 96.8633C97.8779 96.5645 97.5996 96.2217 97.4062 95.835C97.2129 95.4482 97.1162 95.0059 97.1162 94.5078C97.1162 94.0098 97.2188 93.5498 97.4238 93.1279C97.6289 92.7061 97.9219 92.3398 98.3027 92.0293C98.6895 91.7129 99.1494 91.4668 99.6826 91.291C100.216 91.1152 100.811 91.0273 101.467 91.0273C102.428 91.0273 103.242 91.2119 103.91 91.5811C104.584 91.9443 105.097 92.4219 105.448 93.0137C105.8 93.5996 105.976 94.2266 105.976 94.8945H104.288C104.288 94.4141 104.186 93.9893 103.98 93.6201C103.775 93.2451 103.465 92.9521 103.049 92.7412C102.633 92.5244 102.105 92.416 101.467 92.416C100.863 92.416 100.365 92.5068 99.9727 92.6885C99.5801 92.8701 99.2871 93.1162 99.0938 93.4268C98.9062 93.7373 98.8125 94.0918 98.8125 94.4902C98.8125 94.7598 98.8682 95.0059 98.9795 95.2285C99.0967 95.4453 99.2754 95.6475 99.5156 95.835C99.7617 96.0225 100.072 96.1953 100.447 96.3535C100.828 96.5117 101.282 96.6641 101.81 96.8105C102.536 97.0156 103.163 97.2441 103.69 97.4961C104.218 97.748 104.651 98.0322 104.991 98.3486C105.337 98.6592 105.592 99.0137 105.756 99.4121C105.926 99.8047 106.011 100.25 106.011 100.748C106.011 101.27 105.905 101.741 105.694 102.163C105.483 102.585 105.182 102.945 104.789 103.244C104.396 103.543 103.925 103.774 103.374 103.938C102.829 104.097 102.22 104.176 101.546 104.176C100.954 104.176 100.371 104.094 99.7969 103.93C99.2285 103.766 98.71 103.52 98.2412 103.191C97.7783 102.863 97.4062 102.459 97.125 101.979C96.8496 101.492 96.7119 100.93 96.7119 100.291H98.3994C98.3994 100.73 98.4844 101.108 98.6543 101.425C98.8242 101.735 99.0557 101.993 99.3486 102.198C99.6475 102.403 99.9844 102.556 100.359 102.655C100.74 102.749 101.136 102.796 101.546 102.796C102.138 102.796 102.639 102.714 103.049 102.55C103.459 102.386 103.77 102.151 103.98 101.847C104.197 101.542 104.306 101.182 104.306 100.766ZM109.693 94.4902V104H108.059V94.4902H109.693ZM107.936 91.9678C107.936 91.7041 108.015 91.4814 108.173 91.2998C108.337 91.1182 108.577 91.0273 108.894 91.0273C109.204 91.0273 109.441 91.1182 109.605 91.2998C109.775 91.4814 109.86 91.7041 109.86 91.9678C109.86 92.2197 109.775 92.4365 109.605 92.6182C109.441 92.7939 109.204 92.8818 108.894 92.8818C108.577 92.8818 108.337 92.7939 108.173 92.6182C108.015 92.4365 107.936 92.2197 107.936 91.9678ZM113.93 96.5205V104H112.304V94.4902H113.842L113.93 96.5205ZM113.543 98.8848L112.866 98.8584C112.872 98.208 112.969 97.6074 113.156 97.0566C113.344 96.5 113.607 96.0166 113.947 95.6064C114.287 95.1963 114.691 94.8799 115.16 94.6572C115.635 94.4287 116.159 94.3145 116.733 94.3145C117.202 94.3145 117.624 94.3789 117.999 94.5078C118.374 94.6309 118.693 94.8301 118.957 95.1055C119.227 95.3809 119.432 95.7383 119.572 96.1777C119.713 96.6113 119.783 97.1416 119.783 97.7686V104H118.148V97.751C118.148 97.2529 118.075 96.8545 117.929 96.5557C117.782 96.251 117.568 96.0312 117.287 95.8965C117.006 95.7559 116.66 95.6855 116.25 95.6855C115.846 95.6855 115.477 95.7705 115.143 95.9404C114.814 96.1104 114.53 96.3447 114.29 96.6436C114.056 96.9424 113.871 97.2852 113.736 97.6719C113.607 98.0527 113.543 98.457 113.543 98.8848ZM128.414 94.4902H129.891V103.798C129.891 104.636 129.721 105.351 129.381 105.942C129.041 106.534 128.566 106.982 127.957 107.287C127.354 107.598 126.656 107.753 125.865 107.753C125.537 107.753 125.15 107.7 124.705 107.595C124.266 107.495 123.832 107.322 123.404 107.076C122.982 106.836 122.628 106.511 122.341 106.101L123.193 105.134C123.592 105.614 124.008 105.948 124.441 106.136C124.881 106.323 125.314 106.417 125.742 106.417C126.258 106.417 126.703 106.32 127.078 106.127C127.453 105.934 127.743 105.646 127.948 105.266C128.159 104.891 128.265 104.428 128.265 103.877V96.582L128.414 94.4902ZM121.866 99.3506V99.166C121.866 98.4395 121.951 97.7803 122.121 97.1885C122.297 96.5908 122.546 96.0781 122.868 95.6504C123.196 95.2227 123.592 94.8945 124.055 94.666C124.518 94.4316 125.039 94.3145 125.619 94.3145C126.217 94.3145 126.738 94.4199 127.184 94.6309C127.635 94.8359 128.016 95.1377 128.326 95.5361C128.643 95.9287 128.892 96.4033 129.073 96.96C129.255 97.5166 129.381 98.1465 129.451 98.8496V99.6582C129.387 100.355 129.261 100.982 129.073 101.539C128.892 102.096 128.643 102.57 128.326 102.963C128.016 103.355 127.635 103.657 127.184 103.868C126.732 104.073 126.205 104.176 125.602 104.176C125.033 104.176 124.518 104.056 124.055 103.815C123.598 103.575 123.205 103.238 122.877 102.805C122.549 102.371 122.297 101.861 122.121 101.275C121.951 100.684 121.866 100.042 121.866 99.3506ZM123.492 99.166V99.3506C123.492 99.8252 123.539 100.271 123.633 100.687C123.732 101.103 123.882 101.469 124.081 101.785C124.286 102.102 124.547 102.351 124.863 102.532C125.18 102.708 125.558 102.796 125.997 102.796C126.536 102.796 126.981 102.682 127.333 102.453C127.685 102.225 127.963 101.923 128.168 101.548C128.379 101.173 128.543 100.766 128.66 100.326V98.208C128.596 97.8857 128.496 97.5752 128.361 97.2764C128.232 96.9717 128.062 96.7021 127.852 96.4678C127.646 96.2275 127.392 96.0371 127.087 95.8965C126.782 95.7559 126.425 95.6855 126.015 95.6855C125.569 95.6855 125.186 95.7793 124.863 95.9668C124.547 96.1484 124.286 96.4004 124.081 96.7227C123.882 97.0391 123.732 97.4082 123.633 97.8301C123.539 98.2461 123.492 98.6914 123.492 99.166ZM141.633 98.0146H138.39L138.372 96.6523H141.316C141.803 96.6523 142.228 96.5703 142.591 96.4062C142.954 96.2422 143.235 96.0078 143.435 95.7031C143.64 95.3926 143.742 95.0234 143.742 94.5957C143.742 94.127 143.651 93.7461 143.47 93.4531C143.294 93.1543 143.021 92.9375 142.652 92.8027C142.289 92.6621 141.826 92.5918 141.264 92.5918H138.768V104H137.071V91.2031H141.264C141.92 91.2031 142.506 91.2705 143.021 91.4053C143.537 91.5342 143.974 91.7393 144.331 92.0205C144.694 92.2959 144.97 92.6475 145.157 93.0752C145.345 93.5029 145.438 94.0156 145.438 94.6133C145.438 95.1406 145.304 95.6182 145.034 96.0459C144.765 96.4678 144.39 96.8135 143.909 97.083C143.435 97.3525 142.878 97.5254 142.239 97.6016L141.633 98.0146ZM141.554 104H137.722L138.68 102.62H141.554C142.093 102.62 142.55 102.526 142.925 102.339C143.306 102.151 143.596 101.888 143.795 101.548C143.994 101.202 144.094 100.795 144.094 100.326C144.094 99.8516 144.009 99.4414 143.839 99.0957C143.669 98.75 143.402 98.4834 143.039 98.2959C142.676 98.1084 142.207 98.0146 141.633 98.0146H139.216L139.233 96.6523H142.538L142.898 97.1445C143.514 97.1973 144.035 97.373 144.463 97.6719C144.891 97.9648 145.216 98.3398 145.438 98.7969C145.667 99.2539 145.781 99.7578 145.781 100.309C145.781 101.105 145.605 101.779 145.254 102.33C144.908 102.875 144.419 103.291 143.786 103.578C143.153 103.859 142.409 104 141.554 104ZM153.647 102.374V97.4785C153.647 97.1035 153.571 96.7783 153.419 96.5029C153.272 96.2217 153.05 96.0049 152.751 95.8525C152.452 95.7002 152.083 95.624 151.644 95.624C151.233 95.624 150.873 95.6943 150.562 95.835C150.258 95.9756 150.018 96.1602 149.842 96.3887C149.672 96.6172 149.587 96.8633 149.587 97.127H147.961C147.961 96.7871 148.049 96.4502 148.225 96.1162C148.4 95.7822 148.652 95.4805 148.98 95.2109C149.314 94.9355 149.713 94.7188 150.176 94.5605C150.645 94.3965 151.166 94.3145 151.74 94.3145C152.432 94.3145 153.041 94.4316 153.568 94.666C154.102 94.9004 154.518 95.2549 154.816 95.7295C155.121 96.1982 155.273 96.7871 155.273 97.4961V101.926C155.273 102.242 155.3 102.579 155.353 102.937C155.411 103.294 155.496 103.602 155.607 103.859V104H153.911C153.829 103.812 153.765 103.563 153.718 103.253C153.671 102.937 153.647 102.644 153.647 102.374ZM153.929 98.2344L153.946 99.377H152.303C151.84 99.377 151.427 99.415 151.063 99.4912C150.7 99.5615 150.396 99.6699 150.149 99.8164C149.903 99.9629 149.716 100.147 149.587 100.37C149.458 100.587 149.394 100.842 149.394 101.135C149.394 101.434 149.461 101.706 149.596 101.952C149.73 102.198 149.933 102.395 150.202 102.541C150.478 102.682 150.814 102.752 151.213 102.752C151.711 102.752 152.15 102.646 152.531 102.436C152.912 102.225 153.214 101.967 153.437 101.662C153.665 101.357 153.788 101.062 153.806 100.774L154.5 101.557C154.459 101.803 154.348 102.075 154.166 102.374C153.984 102.673 153.741 102.96 153.437 103.235C153.138 103.505 152.78 103.73 152.364 103.912C151.954 104.088 151.491 104.176 150.976 104.176C150.331 104.176 149.766 104.05 149.279 103.798C148.799 103.546 148.424 103.209 148.154 102.787C147.891 102.359 147.759 101.882 147.759 101.354C147.759 100.845 147.858 100.396 148.058 100.01C148.257 99.6172 148.544 99.292 148.919 99.0342C149.294 98.7705 149.745 98.5713 150.272 98.4365C150.8 98.3018 151.389 98.2344 152.039 98.2344H153.929ZM159.598 90.5V104H157.963V90.5H159.598ZM162.252 94.4902H163.887V105.134C163.887 105.714 163.793 106.206 163.605 106.61C163.424 107.015 163.148 107.319 162.779 107.524C162.416 107.735 161.956 107.841 161.399 107.841C161.253 107.841 161.083 107.826 160.89 107.797C160.69 107.768 160.523 107.732 160.389 107.691L160.397 106.382C160.509 106.405 160.635 106.423 160.775 106.435C160.916 106.452 161.039 106.461 161.145 106.461C161.385 106.461 161.587 106.417 161.751 106.329C161.915 106.241 162.038 106.101 162.12 105.907C162.208 105.714 162.252 105.456 162.252 105.134V94.4902ZM162.085 91.9678C162.085 91.7041 162.167 91.4814 162.331 91.2998C162.495 91.1182 162.732 91.0273 163.043 91.0273C163.359 91.0273 163.6 91.1182 163.764 91.2998C163.928 91.4814 164.01 91.7041 164.01 91.9678C164.01 92.2197 163.928 92.4365 163.764 92.6182C163.6 92.7939 163.359 92.8818 163.043 92.8818C162.732 92.8818 162.495 92.7939 162.331 92.6182C162.167 92.4365 162.085 92.2197 162.085 91.9678ZM168.281 94.4902V104H166.646V94.4902H168.281ZM166.523 91.9678C166.523 91.7041 166.603 91.4814 166.761 91.2998C166.925 91.1182 167.165 91.0273 167.481 91.0273C167.792 91.0273 168.029 91.1182 168.193 91.2998C168.363 91.4814 168.448 91.7041 168.448 91.9678C168.448 92.2197 168.363 92.4365 168.193 92.6182C168.029 92.7939 167.792 92.8818 167.481 92.8818C167.165 92.8818 166.925 92.7939 166.761 92.6182C166.603 92.4365 166.523 92.2197 166.523 91.9678ZM174.873 94.4902V95.7383H169.731V94.4902H174.873ZM171.472 92.1787H173.098V101.645C173.098 101.967 173.147 102.21 173.247 102.374C173.347 102.538 173.476 102.646 173.634 102.699C173.792 102.752 173.962 102.778 174.144 102.778C174.278 102.778 174.419 102.767 174.565 102.743C174.718 102.714 174.832 102.69 174.908 102.673L174.917 104C174.788 104.041 174.618 104.079 174.407 104.114C174.202 104.155 173.953 104.176 173.66 104.176C173.262 104.176 172.896 104.097 172.562 103.938C172.228 103.78 171.961 103.517 171.762 103.147C171.568 102.772 171.472 102.269 171.472 101.636V92.1787Z" fill="#383874"/>
<path d="M406.751 38.79H409.168C409.104 39.6455 408.866 40.4043 408.456 41.0664C408.046 41.7227 407.475 42.2383 406.742 42.6133C406.01 42.9883 405.122 43.1758 404.079 43.1758C403.276 43.1758 402.553 43.0352 401.908 42.7539C401.27 42.4668 400.722 42.0596 400.265 41.5322C399.813 40.999 399.468 40.3604 399.228 39.6162C398.987 38.8662 398.867 38.0254 398.867 37.0938V36.1182C398.867 35.1865 398.99 34.3457 399.236 33.5957C399.482 32.8457 399.834 32.207 400.291 31.6797C400.754 31.1465 401.308 30.7363 401.952 30.4492C402.603 30.1621 403.329 30.0186 404.132 30.0186C405.175 30.0186 406.057 30.2119 406.777 30.5986C407.498 30.9795 408.058 31.5039 408.456 32.1719C408.854 32.8398 409.095 33.6074 409.177 34.4746H406.76C406.713 33.9355 406.596 33.4785 406.408 33.1035C406.227 32.7285 405.951 32.4443 405.582 32.251C405.219 32.0518 404.735 31.9521 404.132 31.9521C403.663 31.9521 403.25 32.04 402.893 32.2158C402.541 32.3916 402.248 32.6553 402.014 33.0068C401.779 33.3525 401.604 33.7861 401.486 34.3076C401.369 34.8232 401.311 35.4209 401.311 36.1006V37.0938C401.311 37.7441 401.363 38.3271 401.469 38.8428C401.574 39.3584 401.738 39.7949 401.961 40.1523C402.184 40.5098 402.471 40.7822 402.822 40.9697C403.174 41.1572 403.593 41.251 404.079 41.251C404.671 41.251 405.151 41.1572 405.521 40.9697C405.896 40.7822 406.18 40.5068 406.373 40.1436C406.572 39.7803 406.698 39.3291 406.751 38.79ZM419.53 35.4854V37.3838H412.798V35.4854H419.53ZM413.457 30.2031V43H411.04V30.2031H413.457ZM421.323 30.2031V43H418.906V30.2031H421.323ZM432.266 41.1016V43H425.463V41.1016H432.266ZM426.201 30.2031V43H423.784V30.2031H426.201ZM431.378 35.4854V37.3398H425.463V35.4854H431.378ZM432.239 30.2031V32.1104H425.463V30.2031H432.239ZM440.809 41.1982L444.219 43.9053L442.672 45.25L439.314 42.5605L440.809 41.1982ZM444.28 36.2764V36.9355C444.28 37.9023 444.151 38.7725 443.894 39.5459C443.636 40.3135 443.267 40.9668 442.786 41.5059C442.312 42.0449 441.746 42.458 441.09 42.7451C440.434 43.0322 439.707 43.1758 438.91 43.1758C438.119 43.1758 437.393 43.0322 436.73 42.7451C436.074 42.458 435.506 42.0449 435.025 41.5059C434.545 40.9668 434.173 40.3135 433.909 39.5459C433.646 38.7725 433.514 37.9023 433.514 36.9355V36.2764C433.514 35.3037 433.643 34.4336 433.9 33.666C434.164 32.8984 434.533 32.2451 435.008 31.7061C435.488 31.1611 436.057 30.7451 436.713 30.458C437.375 30.1709 438.102 30.0273 438.893 30.0273C439.689 30.0273 440.416 30.1709 441.072 30.458C441.734 30.7451 442.303 31.1611 442.777 31.7061C443.258 32.2451 443.627 32.8984 443.885 33.666C444.148 34.4336 444.28 35.3037 444.28 36.2764ZM441.837 36.9355V36.2588C441.837 35.5615 441.772 34.9492 441.644 34.4219C441.515 33.8887 441.321 33.4404 441.063 33.0771C440.812 32.7139 440.504 32.4414 440.141 32.2598C439.777 32.0723 439.361 31.9785 438.893 31.9785C438.43 31.9785 438.017 32.0723 437.653 32.2598C437.29 32.4414 436.982 32.7139 436.73 33.0771C436.479 33.4404 436.285 33.8887 436.15 34.4219C436.021 34.9492 435.957 35.5615 435.957 36.2588V36.9355C435.957 37.627 436.021 38.2393 436.15 38.7725C436.285 39.3057 436.479 39.7568 436.73 40.126C436.988 40.4893 437.299 40.7646 437.662 40.9521C438.031 41.1396 438.447 41.2334 438.91 41.2334C439.379 41.2334 439.795 41.1396 440.158 40.9521C440.521 40.7646 440.826 40.4893 441.072 40.126C441.324 39.7568 441.515 39.3057 441.644 38.7725C441.772 38.2393 441.837 37.627 441.837 36.9355ZM453.474 30.2031H455.891V38.7021C455.891 39.6807 455.68 40.5039 455.258 41.1719C454.836 41.834 454.262 42.335 453.535 42.6748C452.809 43.0088 451.982 43.1758 451.057 43.1758C450.119 43.1758 449.284 43.0088 448.552 42.6748C447.819 42.335 447.245 41.834 446.829 41.1719C446.413 40.5039 446.205 39.6807 446.205 38.7021V30.2031H448.622V38.7021C448.622 39.2998 448.722 39.7891 448.921 40.1699C449.12 40.5449 449.401 40.8232 449.765 41.0049C450.128 41.1865 450.559 41.2773 451.057 41.2773C451.561 41.2773 451.991 41.1865 452.349 41.0049C452.712 40.8232 452.99 40.5449 453.184 40.1699C453.377 39.7891 453.474 39.2998 453.474 38.7021V30.2031ZM466.666 41.1016V43H459.863V41.1016H466.666ZM460.602 30.2031V43H458.185V30.2031H460.602ZM465.778 35.4854V37.3398H459.863V35.4854H465.778ZM466.64 30.2031V32.1104H459.863V30.2031H466.64ZM483.11 30.2031V43H480.685L475.244 34.123V43H472.827V30.2031H475.244L480.702 39.0889V30.2031H483.11ZM492.69 30.2031H495.107V38.7021C495.107 39.6807 494.896 40.5039 494.475 41.1719C494.053 41.834 493.479 42.335 492.752 42.6748C492.025 43.0088 491.199 43.1758 490.273 43.1758C489.336 43.1758 488.501 43.0088 487.769 42.6748C487.036 42.335 486.462 41.834 486.046 41.1719C485.63 40.5039 485.422 39.6807 485.422 38.7021V30.2031H487.839V38.7021C487.839 39.2998 487.938 39.7891 488.138 40.1699C488.337 40.5449 488.618 40.8232 488.981 41.0049C489.345 41.1865 489.775 41.2773 490.273 41.2773C490.777 41.2773 491.208 41.1865 491.565 41.0049C491.929 40.8232 492.207 40.5449 492.4 40.1699C492.594 39.7891 492.69 39.2998 492.69 38.7021V30.2031ZM498.456 30.2031H500.548L504.046 39.8359L507.535 30.2031H509.636L504.881 43H503.202L498.456 30.2031ZM497.401 30.2031H499.449L499.818 39.0537V43H497.401V30.2031ZM508.634 30.2031H510.69V43H508.273V39.0537L508.634 30.2031ZM518.056 37.2959H514.786L514.769 35.5908H517.572C518.053 35.5908 518.454 35.5234 518.776 35.3887C519.099 35.2539 519.342 35.0576 519.506 34.7998C519.676 34.542 519.761 34.2285 519.761 33.8594C519.761 33.4492 519.682 33.1152 519.523 32.8574C519.371 32.5996 519.131 32.4121 518.803 32.2949C518.475 32.1719 518.059 32.1104 517.555 32.1104H515.568V43H513.151V30.2031H517.555C518.281 30.2031 518.929 30.2734 519.497 30.4141C520.071 30.5488 520.558 30.7598 520.956 31.0469C521.354 31.334 521.656 31.6943 521.861 32.1279C522.072 32.5615 522.178 33.0771 522.178 33.6748C522.178 34.2021 522.055 34.6885 521.809 35.1338C521.568 35.5732 521.196 35.9307 520.692 36.2061C520.194 36.4814 519.562 36.6396 518.794 36.6807L518.056 37.2959ZM517.95 43H514.074L515.085 41.1016H517.95C518.431 41.1016 518.826 41.0225 519.137 40.8643C519.453 40.7061 519.688 40.4893 519.84 40.2139C519.998 39.9326 520.077 39.6104 520.077 39.2471C520.077 38.8486 520.007 38.5029 519.866 38.21C519.731 37.917 519.515 37.6914 519.216 37.5332C518.923 37.375 518.536 37.2959 518.056 37.2959H515.542L515.56 35.5908H518.759L519.312 36.25C520.051 36.2559 520.651 36.4023 521.114 36.6895C521.583 36.9766 521.929 37.3457 522.151 37.7969C522.374 38.248 522.485 38.7344 522.485 39.2559C522.485 40.0762 522.307 40.7646 521.949 41.3213C521.598 41.8779 521.082 42.2969 520.402 42.5781C519.729 42.8594 518.911 43 517.95 43ZM533.059 41.1016V43H526.256V41.1016H533.059ZM526.994 30.2031V43H524.577V30.2031H526.994ZM532.171 35.4854V37.3398H526.256V35.4854H532.171ZM533.032 30.2031V32.1104H526.256V30.2031H533.032ZM534.737 30.2031H539.387C540.359 30.2031 541.194 30.3496 541.892 30.6426C542.589 30.9355 543.125 31.3691 543.5 31.9434C543.875 32.5176 544.062 33.2236 544.062 34.0615C544.062 34.7236 543.945 35.2979 543.711 35.7842C543.477 36.2705 543.146 36.6777 542.718 37.0059C542.296 37.334 541.798 37.5918 541.224 37.7793L540.468 38.166H536.363L536.346 36.2588H539.413C539.911 36.2588 540.324 36.1709 540.652 35.9951C540.98 35.8193 541.227 35.5762 541.391 35.2656C541.561 34.9551 541.646 34.6006 541.646 34.2021C541.646 33.7744 541.563 33.4053 541.399 33.0947C541.235 32.7783 540.986 32.5352 540.652 32.3652C540.318 32.1953 539.896 32.1104 539.387 32.1104H537.154V43H534.737V30.2031ZM541.962 43L539 37.2695L541.558 37.2607L544.555 42.877V43H541.962Z" fill="#383874"/>
<g filter="url(#filter0_i_769_3541)">
<rect x="398.5" y="83.5" width="98" height="30" rx="4.5" stroke="#383874"/>
</g>
<defs>
<filter id="filter0_i_769_3541" x="398" y="83" width="99" height="35" filterUnits="userSpaceOnUse" color-interpolation-filters="sRGB">
<feFlood flood-opacity="0" result="BackgroundImageFix"/>
<feBlend mode="normal" in="SourceGraphic" in2="BackgroundImageFix" result="shape"/>
<feColorMatrix in="SourceAlpha" type="matrix" values="0 0 0 0 0 0 0 0 0 0 0 0 0 0 0 0 0 0 127 0" result="hardAlpha"/>
<feOffset dy="4"/>
<feGaussianBlur stdDeviation="2"/>
<feComposite in2="hardAlpha" operator="arithmetic" k2="-1" k3="1"/>
<feColorMatrix type="matrix" values="0 0 0 0 0 0 0 0 0 0 0 0 0 0 0 0 0 0 0.25 0"/>
<feBlend mode="normal" in2="shape" result="effect1_innerShadow_769_3541"/>
</filter>
</defs>
</svg>
