<svg width="29" height="26" viewBox="0 0 29 26" fill="none" xmlns="http://www.w3.org/2000/svg">
<path d="M17.0621 15.6402C17.0621 18.9809 17.058 22.3223 17.0696 25.663C17.0704 25.942 16.9982 26.0001 16.7292 25.9993C13.6891 25.9885 10.6491 25.9926 7.60904 25.9926C6.40083 25.9926 5.74649 25.3366 5.74649 24.1259C5.74566 17.9421 5.74815 11.7582 5.73901 5.57432C5.73901 5.29614 5.80877 5.23054 6.08113 5.23469C7.14984 5.25213 8.21854 5.25047 9.28725 5.23552C9.54134 5.2322 9.59034 5.31358 9.58702 5.54775C9.5729 6.3773 9.5812 7.20768 9.58203 8.03807C9.58203 8.41922 9.72652 8.62266 9.98892 8.61519C10.2488 8.60771 10.3842 8.4051 10.3842 8.0198C10.385 7.17945 10.3908 6.3391 10.38 5.49875C10.3775 5.2978 10.4274 5.2322 10.6358 5.23801C11.2162 5.25213 11.7983 5.2513 12.3788 5.23884C12.5797 5.23469 12.6412 5.28784 12.6378 5.49626C12.6254 6.35737 12.632 7.21848 12.6329 8.07959C12.6337 8.41839 12.7707 8.60605 13.0173 8.61436C13.2756 8.62349 13.4334 8.42337 13.4342 8.07295C13.4367 7.24256 13.445 6.41301 13.4292 5.58262C13.4242 5.3252 13.4666 5.22805 13.7589 5.23469C14.7545 5.25711 15.751 5.25296 16.7466 5.23635C17.0048 5.2322 17.0704 5.29531 17.0696 5.55688C17.0588 8.91662 17.0621 12.278 17.0621 15.6402ZM8.39043 17.3442C8.39043 18.3299 8.38711 19.3155 8.39126 20.3012C8.39458 21.0178 8.83469 21.5277 9.54467 21.5434C10.8509 21.5717 12.1595 21.5725 13.4657 21.5434C14.1707 21.5277 14.6225 21.007 14.6241 20.2987C14.6274 18.3481 14.6274 16.3975 14.6241 14.4461C14.6233 13.6872 14.1151 13.1806 13.3545 13.1781C12.1197 13.174 10.8849 13.174 9.65012 13.1781C8.88368 13.1806 8.39292 13.6772 8.39043 14.4486C8.38794 15.4144 8.39043 16.3793 8.39043 17.3442Z" fill="#3CCB93"/>
<path d="M14.4334 0.240614C18.4914 0.240614 22.5487 0.239784 26.6068 0.241444C27.7353 0.242275 28.564 0.865063 28.794 1.89059C28.8364 2.07992 28.8397 2.2817 28.8397 2.47767C28.843 4.0554 28.8439 5.6323 28.8414 7.21003C28.8389 8.57352 27.9678 9.43712 26.601 9.43878C25.7914 9.43961 24.9817 9.43297 24.1729 9.44294C23.9828 9.44543 23.9263 9.39477 23.928 9.20129C23.9363 7.95572 23.9354 6.71097 23.9288 5.46539C23.928 5.28437 23.9869 5.23206 24.1605 5.23953C24.4403 5.25115 24.721 5.24534 25.0008 5.24202C25.2591 5.2387 25.4484 5.13822 25.4667 4.85174C25.4825 4.59764 25.3089 4.44983 24.9909 4.44734C24.3266 4.44236 23.6622 4.44568 22.9979 4.44568C16.7086 4.44568 10.4201 4.44568 4.13078 4.44568C4.01702 4.44568 3.90159 4.44153 3.78866 4.45149C3.55864 4.47225 3.42661 4.60428 3.42163 4.8343C3.41665 5.06681 3.55034 5.21296 3.7762 5.22873C4.08594 5.25032 4.39816 5.25032 4.70956 5.2387C4.89473 5.23206 4.96116 5.27939 4.9595 5.47868C4.95037 6.72426 4.95203 7.969 4.95867 9.21458C4.9595 9.38979 4.91051 9.44377 4.73198 9.44211C3.85011 9.43297 2.96741 9.44958 2.08554 9.43463C0.966183 9.41553 0.0643851 8.532 0.0527597 7.41431C0.0336609 5.70205 0.0336609 3.9898 0.0519293 2.27755C0.0643851 1.11003 0.983621 0.250579 2.20013 0.243105C3.82935 0.233971 5.45856 0.240614 7.08778 0.240614C9.53492 0.239784 11.9837 0.240614 14.4334 0.240614Z" fill="white"/>
<path d="M17.8668 15.6383C17.8668 12.2761 17.8701 8.91385 17.8601 5.55162C17.8593 5.2859 17.9315 5.23275 18.1848 5.23441C19.731 5.24687 21.2771 5.24438 22.8233 5.2369C23.0459 5.23607 23.1455 5.26181 23.1455 5.53169C23.1364 11.7579 23.1397 17.985 23.1372 24.2112C23.1364 25.3148 22.4521 25.989 21.3444 25.9915C20.2857 25.994 19.2269 25.9841 18.169 25.9982C17.9282 26.0015 17.8609 25.9434 17.8609 25.6951C17.8692 22.3428 17.8668 18.9906 17.8668 15.6383Z" fill="#3CCB93"/>
<path d="M8.39073 17.3441C8.39073 16.3792 8.38824 15.4143 8.39156 14.4494C8.39405 13.678 8.88481 13.1814 9.65126 13.1789C10.886 13.1747 12.1208 13.1747 13.3556 13.1789C14.1154 13.1814 14.6236 13.6879 14.6253 14.4469C14.6286 16.3975 14.6286 18.348 14.6253 20.2994C14.6236 21.0069 14.1719 21.5284 13.4669 21.5442C12.1607 21.5733 10.852 21.5724 9.5458 21.5442C8.83582 21.5284 8.39489 21.0186 8.39239 20.3019C8.38741 19.3163 8.39073 18.3298 8.39073 17.3441ZM10.201 17.3566C10.201 16.3194 10.2026 15.2823 10.1985 14.2459C10.1985 14.1612 10.25 14.0525 10.1462 13.9918C9.74509 13.7593 9.1879 14.0707 9.1879 14.5316C9.18541 16.0661 9.18707 17.6015 9.18707 19.1361C9.18707 19.499 9.18375 19.8618 9.1879 20.2247C9.19288 20.6324 9.31993 20.7537 9.73596 20.7595C9.79823 20.7603 9.86217 20.7503 9.92196 20.7611C10.1669 20.8043 10.2093 20.6906 10.2068 20.4672C10.1943 19.4309 10.201 18.3937 10.201 17.3566ZM12.4115 17.9843C12.8051 17.9843 13.1995 17.971 13.5923 17.9893C13.7949 17.9984 13.8364 17.9279 13.8256 17.7443C13.8107 17.4861 13.8082 17.2262 13.8264 16.9679C13.8405 16.7686 13.7691 16.7288 13.5823 16.7313C12.8059 16.7421 12.0286 16.7404 11.2522 16.7321C11.0745 16.7304 10.9857 16.757 11.0006 16.9638C11.0189 17.232 11.0172 17.5027 11.0015 17.7709C10.9898 17.9586 11.0671 17.9918 11.2323 17.9868C11.6243 17.9777 12.0179 17.9843 12.4115 17.9843ZM12.0112 19.8103C12.0112 19.7273 12.0112 19.6451 12.0112 19.5621C12.0112 18.7674 12.0112 18.7724 11.2282 18.784C11.0596 18.7865 10.9907 18.8222 10.999 19.0049C11.0131 19.3354 11.0031 19.6667 11.0031 19.998C11.0031 20.8234 11.0031 20.8193 11.8352 20.7645C11.9672 20.7562 12.0179 20.7229 12.0137 20.5868C12.0054 20.3285 12.0112 20.0694 12.0112 19.8103ZM12.8159 19.7796C12.8159 19.9457 12.8159 20.1118 12.8159 20.277C12.8159 20.7736 12.8159 20.7736 13.3074 20.7595C13.6894 20.7487 13.819 20.6142 13.8223 20.223C13.8239 20.0055 13.8223 19.7871 13.8223 19.5695C13.8223 18.7499 13.8223 18.7566 13.0118 18.7823C12.8374 18.7881 12.8067 18.8504 12.8125 19.0007C12.8225 19.2606 12.8159 19.5205 12.8159 19.7796ZM12.0112 14.9675C12.0112 14.8953 12.0112 14.8222 12.0112 14.75C12.0112 13.9387 12.0112 13.9437 11.1883 13.9794C11.0355 13.986 10.999 14.0309 11.0006 14.1754C11.0081 14.7035 11.0073 15.2324 11.0015 15.7614C10.9998 15.8926 11.0363 15.9333 11.1742 15.9424C12.0112 15.9972 12.0112 16.0014 12.0112 15.1851C12.0112 15.112 12.0112 15.0398 12.0112 14.9675ZM12.8159 14.946C12.8225 14.946 12.8291 14.946 12.835 14.946C12.835 15.2648 12.7411 15.6302 12.869 15.8859C12.9512 16.0504 13.3639 15.9208 13.628 15.9383C13.6379 15.9391 13.6487 15.9374 13.6587 15.9383C13.7733 15.9524 13.8256 15.9158 13.8239 15.7871C13.8173 15.3113 13.8239 14.8355 13.8173 14.3597C13.8148 14.1737 13.7052 14.0284 13.5292 14.0035C13.3074 13.9727 13.0525 13.9362 12.8615 14.0184C12.7353 14.0732 12.8283 14.3398 12.8175 14.5117C12.8084 14.6561 12.8159 14.8015 12.8159 14.946Z" fill="#F9F9F9"/>
<path d="M10.2013 17.3581C10.2013 18.3952 10.1946 19.4324 10.2063 20.4687C10.2088 20.692 10.1664 20.8058 9.92145 20.7626C9.86083 20.7518 9.79689 20.7618 9.73545 20.761C9.31942 20.7543 9.19237 20.6339 9.18739 20.2262C9.18324 19.8633 9.18656 19.5004 9.18656 19.1376C9.18656 17.603 9.1849 16.0676 9.18739 14.5331C9.18822 14.0722 9.74541 13.76 10.1457 13.9933C10.2503 14.054 10.198 14.1627 10.198 14.2474C10.203 15.2846 10.2013 16.3217 10.2013 17.3581Z" fill="#3CCB93"/>
<path d="M12.4118 17.9847C12.0182 17.9847 11.6245 17.9773 11.2309 17.9881C11.0657 17.9922 10.9885 17.9598 11.0001 17.7722C11.0159 17.504 11.0184 17.2332 10.9993 16.965C10.9852 16.7574 11.0732 16.7309 11.2509 16.7334C12.0273 16.7425 12.8045 16.7433 13.5809 16.7325C13.7678 16.73 13.8392 16.7707 13.8251 16.9692C13.8068 17.2266 13.8093 17.4873 13.8242 17.7456C13.835 17.9291 13.7935 17.9997 13.5909 17.9906C13.199 17.9723 12.8054 17.9847 12.4118 17.9847Z" fill="#3CCB93"/>
<path d="M12.0111 19.811C12.0111 20.0692 12.0053 20.3283 12.0136 20.5866C12.0177 20.7227 11.9671 20.756 11.835 20.7643C11.003 20.8191 11.003 20.8232 11.003 19.9978C11.003 19.6665 11.013 19.3352 10.9988 19.0047C10.9914 18.822 11.0595 18.7863 11.228 18.7838C12.0111 18.7722 12.0111 18.7672 12.0111 19.5619C12.0111 19.6457 12.0111 19.7288 12.0111 19.811Z" fill="#3CCB93"/>
<path d="M12.8156 19.7794C12.8156 19.5204 12.8223 19.2605 12.8131 19.0014C12.8073 18.8502 12.8381 18.788 13.0124 18.783C13.8229 18.7572 13.8229 18.7506 13.8229 19.5702C13.8229 19.7877 13.8246 20.0061 13.8229 20.2237C13.8196 20.6156 13.69 20.7493 13.3081 20.7601C12.8165 20.7742 12.8165 20.7742 12.8165 20.2777C12.8156 20.1116 12.8156 19.9455 12.8156 19.7794Z" fill="#3CCB93"/>
<path d="M12.0112 14.9687C12.0112 15.0409 12.0112 15.114 12.0112 15.1863C12.0112 16.0025 12.0112 15.9984 11.1742 15.9436C11.0363 15.9344 10.9998 15.8937 11.0014 15.7625C11.0072 15.2344 11.0089 14.7055 11.0006 14.1765C10.9981 14.032 11.0355 13.9872 11.1883 13.9805C12.0112 13.9448 12.0112 13.939 12.0112 14.7511C12.0112 14.8234 12.0112 14.8956 12.0112 14.9687Z" fill="#3CCB93"/>
<path d="M12.8157 14.9465C12.8157 14.802 12.8083 14.6567 12.8174 14.5122C12.8282 14.3411 12.7352 14.0738 12.8614 14.0189C13.0524 13.9367 13.3073 13.9733 13.529 14.004C13.7051 14.0289 13.8147 14.1734 13.8172 14.3602C13.8238 14.836 13.8163 15.3119 13.8238 15.7877C13.8255 15.9164 13.7732 15.9529 13.6586 15.9388C13.6486 15.9371 13.6378 15.9396 13.6278 15.9388C13.3638 15.9214 12.9511 16.0509 12.8689 15.8865C12.741 15.6316 12.8348 15.2654 12.8348 14.9465C12.829 14.9465 12.8224 14.9465 12.8157 14.9465Z" fill="#3CCB93"/>
</svg>
