<svg width="352" height="64" viewBox="0 0 352 64" fill="none" xmlns="http://www.w3.org/2000/svg">
<path d="M238.362 46.3756C238.34 46.7026 238.275 46.9873 238.309 47.2617C238.43 48.2291 237.894 48.3782 237.093 48.3664C235.119 48.3342 233.142 48.3139 231.168 48.3748C230.241 48.4036 230.023 48.0292 230.048 47.1889C230.096 45.5539 230.062 43.9173 230.062 42.2806C230.062 33.3079 230.062 24.3369 230.062 15.3641C230.062 14.9694 230.087 14.5729 230.06 14.1799C230.016 13.5479 230.248 13.2667 230.921 13.2751C233.177 13.3005 235.436 13.3056 237.691 13.2718C238.43 13.2616 238.672 13.536 238.665 14.2561C238.64 17.0211 238.655 19.7861 238.657 22.5511C238.657 23.3406 238.657 24.1285 238.657 24.9671C239.455 25.1044 239.941 24.5283 240.515 24.2606C243.965 22.6494 247.47 22.3292 250.984 23.9167C255.243 25.8414 257.285 29.4027 257.847 33.8806C258.168 36.427 257.871 38.9515 256.97 41.3759C254.264 48.6578 245.545 51.2873 239.234 46.7314C239.019 46.5756 238.858 46.3045 238.362 46.3756ZM238.572 35.9238C238.535 37.0929 238.729 38.2449 239.246 39.336C240.869 42.7601 245.454 43.2243 247.731 40.1933C249.505 37.8315 249.378 33.6078 247.467 31.3528C245.557 29.1011 242.157 29.0418 240.185 31.2392C238.997 32.5607 238.501 34.133 238.572 35.9238Z" fill="#FFFDFD"/>
<path d="M12.5423 31.0148C11.4733 29.3527 11.0904 27.7737 10.7515 26.1811C8.02039 13.3319 15.98 4.70479 23.5617 1.65175C25.9032 0.709751 28.3242 0.252318 30.8267 0.247235C41.1582 0.228598 51.4897 0.238759 61.8212 0.242147C62.0381 0.242147 62.2549 0.284492 62.5599 0.314988C62.5785 0.819874 62.2092 1.02488 61.9635 1.27394C58.3938 4.88946 54.8019 8.48466 51.2508 12.1188C50.6477 12.7372 50.0309 12.9693 49.1737 12.9659C43.1337 12.9338 37.0886 13.0795 31.052 12.9168C22.8739 12.6966 14.0977 20.0767 12.8897 28.6869C12.7965 29.3527 12.6914 30.0203 12.5423 31.0148Z" fill="#FFFDFD"/>
<path d="M50.4291 32.6836C51.6506 34.083 52.0861 35.757 52.4249 37.4698C54.2005 46.4511 50.7171 54.9003 43.1659 59.8017C39.8265 61.9687 36.1855 63.1309 32.1515 63.1123C22.2148 63.0665 12.278 63.0971 2.34124 63.0971C1.78044 63.0971 1.21964 63.0971 0.663931 63.0971C0.453845 62.4465 0.992615 62.2584 1.27217 61.9789C4.77926 58.4599 8.32024 54.9748 11.8087 51.4389C12.461 50.7782 13.1285 50.5376 14.0366 50.5427C19.9072 50.5749 25.7812 50.4969 31.6517 50.5766C37.9289 50.6613 42.6999 47.8234 46.4934 43.1032C48.7298 40.3179 50.0513 37.1022 50.3088 33.4968C50.3291 33.2207 50.3884 32.953 50.4291 32.6836Z" fill="#FEFDFD"/>
<path d="M81.8218 39.2716C83.4957 40.0306 84.9324 40.671 86.4369 41.1369C88.4006 41.7452 90.3896 42.04 92.443 41.7858C92.6667 41.7587 92.8937 41.7401 93.114 41.6926C94.6761 41.3521 95.7129 40.4846 95.8383 39.275C95.9823 37.9026 95.2979 36.9081 94.1847 36.1694C93.1411 35.4764 91.9771 35.0529 90.82 34.6039C88.9292 33.8703 87.0079 33.2197 85.2289 32.2133C82.0251 30.4005 80.463 27.688 80.585 24.0047C80.7036 20.4112 82.6062 17.9749 85.6694 16.3908C89.1782 14.5745 92.9886 14.1933 96.865 14.4169C98.888 14.5339 100.908 14.7321 102.886 15.2675C103.652 15.4759 103.889 15.7995 103.811 16.5585C103.622 18.4103 103.51 20.2689 103.327 22.1224C103.225 23.1576 103.168 23.1864 102.202 22.8577C100.652 22.3308 99.0896 21.8649 97.4767 21.5701C96.0755 21.3125 94.671 21.3159 93.2631 21.4582C92.5837 21.5277 91.9348 21.7327 91.3723 22.1359C90.1439 23.017 90.0559 24.6112 91.1876 25.6176C91.828 26.1869 92.5989 26.5478 93.3918 26.8477C94.92 27.4288 96.4618 27.9709 97.9832 28.5673C99.6182 29.206 101.172 30.004 102.517 31.1544C107.185 35.1478 106.705 42.8295 101.585 46.2298C98.9625 47.9715 95.9976 48.6102 92.9327 48.822C89.307 49.0728 85.722 48.678 82.1945 47.8038C80.9882 47.5056 80.9594 47.4649 81.0814 46.1943C81.2949 43.9528 81.5575 41.7164 81.8218 39.2716Z" fill="#FEFCFC"/>
<path d="M280.511 25.7019C280.928 23.4757 280.928 23.4757 283.1 23.4757C284.735 23.4757 286.372 23.4655 288.007 23.4791C289.36 23.4909 289.379 23.5045 289.381 24.9022C289.389 31.1624 289.384 37.4227 289.384 43.6829C289.384 44.8113 289.396 45.9397 289.381 47.0663C289.364 48.3235 289.352 48.3421 288.037 48.3539C286.063 48.3709 284.09 48.3336 282.116 48.3692C281.308 48.3844 280.804 48.2286 280.898 47.2662C280.933 46.9003 280.991 46.4683 280.654 46.1735C280.389 46.1125 280.225 46.2632 280.045 46.3971C272.653 51.9034 263.018 48.0947 261.346 39.017C260.758 35.825 260.985 32.7245 262.325 29.7495C265.268 23.2181 272.108 21.7679 277.377 23.6756C278.504 24.0856 279.43 24.8073 280.511 25.7019ZM280.789 35.842C280.689 34.9694 280.65 33.9562 280.257 32.9939C279.386 30.8592 277.59 29.5377 275.505 29.5326C273.321 29.5292 271.5 30.8609 270.674 33.1057C269.849 35.354 270.058 37.5701 271.164 39.6472C272.911 42.9256 276.969 43.256 279.322 40.3758C280.369 39.0932 280.774 37.6006 280.789 35.842Z" fill="#FEFCFC"/>
<path d="M352 48.4258C349.63 48.4258 347.393 48.4512 345.157 48.419C342.051 48.3749 343.005 48.8849 341.279 46.3537C339.562 43.8343 337.899 41.2811 336.201 38.7499C335.891 38.2874 335.661 37.7588 335.186 37.4098C334.636 37.6114 334.881 38.079 334.88 38.4111C334.858 41.2913 334.875 44.1698 334.863 47.05C334.858 48.3868 334.839 48.4088 333.6 48.4207C331.511 48.4393 329.421 48.3986 327.333 48.4393C326.534 48.4546 326.171 48.197 326.249 47.3753C326.286 46.9839 326.254 46.5858 326.254 46.1893C326.254 35.9696 326.254 25.7482 326.254 15.5285C326.254 15.0762 326.278 14.6238 326.254 14.1731C326.219 13.5293 326.483 13.2684 327.139 13.2752C329.397 13.2972 331.655 13.3057 333.914 13.2718C334.671 13.2599 334.922 13.5751 334.869 14.2782C334.841 14.6712 334.866 15.0677 334.866 15.4642C334.866 20.8281 334.863 26.1921 334.871 31.5578C334.873 32.1034 334.773 32.6659 334.997 33.2555C335.508 33.2571 335.64 32.8353 335.847 32.5523C337.78 29.9093 339.734 27.2815 341.607 24.5962C342.19 23.7609 342.829 23.4525 343.84 23.4797C346.422 23.5508 349.008 23.5034 351.588 23.5034C351.759 24.1522 351.307 24.4217 351.055 24.7486C348.613 27.927 346.172 31.1055 343.685 34.25C343.144 34.9345 343.107 35.4089 343.635 36.1442C346.14 39.6258 348.583 43.1532 351.033 46.6739C351.373 47.1618 351.819 47.6091 352 48.4258Z" fill="#FEFCFC"/>
<path d="M215.877 46.2152C215.373 46.0779 215.213 46.366 215.007 46.5269C210.639 49.9222 204.418 49.7731 200.35 46.1305C198.071 44.0889 196.797 41.4628 196.365 38.4776C195.897 35.2348 196.173 32.0564 197.744 29.0898C201.11 22.7279 209.17 20.9082 215 25.1947C215.173 25.3217 215.366 25.4217 215.533 25.525C215.662 25.4166 215.803 25.3573 215.811 25.2811C216.01 23.4784 216.006 23.4784 217.89 23.4767C219.696 23.4767 221.506 23.5242 223.31 23.4581C224.237 23.4242 224.452 23.7952 224.445 24.639C224.413 28.0258 224.432 31.4142 224.432 34.801C224.432 38.9231 224.44 43.0436 224.427 47.1656C224.423 48.3855 224.396 48.4075 223.225 48.4194C221.306 48.438 219.386 48.433 217.467 48.4228C216.054 48.4143 216.054 48.4025 215.945 46.9149C215.928 46.6913 215.901 46.4693 215.877 46.2152ZM205.358 35.7447C205.304 37.0561 205.542 38.3776 206.188 39.5975C207.96 42.9419 212.059 43.3333 214.442 40.3955C216.433 37.9422 216.384 33.6998 214.337 31.2973C212.296 28.9034 208.851 28.9017 206.818 31.3058C205.751 32.5663 205.29 34.0386 205.358 35.7447Z" fill="#FEFCFC"/>
<path d="M145.231 48.8769C143.384 48.9141 141.649 48.6668 139.977 48.1382C134.908 46.5337 131.663 43.2215 130.916 37.8558C130.118 32.1241 132.409 27.365 137.33 24.7982C142.705 21.9959 148.238 22.0145 153.514 25.0218C158.344 27.775 160.176 32.28 159.556 37.6558C158.927 43.1012 155.615 46.4761 150.486 48.1212C148.763 48.6769 146.971 48.9277 145.231 48.8769ZM150.835 35.8854C150.739 34.2995 150.483 32.7561 149.566 31.3922C147.496 28.3121 142.852 28.307 140.809 31.3854C139.162 33.8675 139.264 38.1387 141.027 40.5259C143.15 43.3994 147.321 43.3977 149.431 40.5124C150.435 39.14 150.784 37.5593 150.835 35.8854Z" fill="#FEFCFC"/>
<path d="M302.823 26.1874C303.289 25.8163 303.638 25.5418 303.982 25.264C306.835 22.9496 310.101 22.4719 313.559 23.3122C317.929 24.3728 320.745 28.0121 320.885 32.9237C321.023 37.715 320.911 42.5148 320.95 47.3095C320.956 48.1516 320.629 48.3786 319.855 48.3684C317.768 48.3379 315.679 48.3244 313.593 48.3735C312.67 48.3956 312.465 48.0143 312.475 47.1638C312.514 43.4975 312.492 39.8294 312.49 36.1631C312.49 35.3177 312.468 34.479 312.236 33.6488C311.769 31.9715 310.754 30.8669 309.014 30.5738C307.165 30.262 305.529 30.6534 304.366 32.2697C303.612 33.3168 303.35 34.496 303.358 35.7785C303.382 39.5025 303.372 43.2264 303.363 46.9487C303.36 48.3295 303.343 48.3447 301.974 48.3549C300 48.3685 298.025 48.3295 296.051 48.3701C295.17 48.3888 294.901 48.0669 294.904 47.1876C294.934 39.6837 294.931 32.1799 294.909 24.6761C294.906 23.8307 295.131 23.4579 296.046 23.4867C297.85 23.5426 299.658 23.5443 301.461 23.4867C302.374 23.4579 302.662 23.8323 302.62 24.6778C302.596 25.1132 302.538 25.569 302.823 26.1874Z" fill="#FEFCFC"/>
<path d="M160.916 23.6237C161.866 23.3747 162.659 23.5068 163.444 23.478C164.66 23.4323 164.681 23.4407 164.693 22.2734C164.711 20.4097 164.684 18.546 164.703 16.6841C164.715 15.4591 164.733 15.4337 165.897 15.4236C168.042 15.4049 170.189 15.4405 172.334 15.4066C173.067 15.3948 173.33 15.6641 173.32 16.3876C173.293 18.3631 173.342 20.3403 173.299 22.3158C173.281 23.1629 173.506 23.5526 174.434 23.4933C175.559 23.4204 176.693 23.4983 177.821 23.4695C178.438 23.4543 178.773 23.6322 178.765 24.3099C178.746 25.8347 178.741 27.3595 178.77 28.8827C178.784 29.5841 178.424 29.7366 177.823 29.7247C176.75 29.7044 175.676 29.7027 174.604 29.7281C173.364 29.7569 173.331 29.7721 173.321 30.9293C173.299 33.3013 173.267 35.6732 173.328 38.0435C173.406 41.1067 175.058 42.3841 178.108 41.847C178.438 41.7894 178.775 41.7708 179.095 41.7352C179.463 42.1774 179.241 42.623 179.177 43.0516C179.017 44.1105 178.823 45.1661 178.67 46.2267C178.346 48.4631 178.355 48.4817 176.191 48.7443C174.843 48.9087 173.482 48.9375 172.132 48.8002C167.698 48.3513 165.001 45.554 164.77 40.9779C164.623 38.0485 164.709 35.1073 164.701 32.1712C164.694 29.7637 164.699 29.7637 162.295 29.7196C160.94 29.6942 160.93 29.6942 160.919 28.3066C160.908 26.7361 160.916 25.1638 160.916 23.6237Z" fill="#FEFDFD"/>
<path d="M128.132 40.7836C128.258 42.8659 128.366 44.943 128.517 47.0168C128.564 47.6589 128.254 47.9418 127.707 48.0858C123.685 49.1447 119.683 49.4226 115.803 47.5623C111.635 45.5648 109.424 42.1373 108.867 37.6256C108.625 35.6602 108.701 33.6763 109.299 31.7567C110.809 26.9111 114.248 24.2308 119.071 23.1685C121.884 22.5501 124.681 22.8399 127.453 23.5125C128.202 23.6938 128.602 24.0072 128.519 24.8916C128.336 26.8501 128.258 28.8189 128.132 30.8503C127.4 30.8774 126.877 30.5199 126.321 30.3233C124.773 29.7778 123.224 29.7507 121.67 30.2539C119.219 31.0485 117.655 33.3018 117.701 35.9449C117.748 38.6929 119.403 40.9683 121.936 41.6121C123.382 41.9798 124.844 41.873 126.272 41.3851C126.851 41.1903 127.365 40.7938 128.132 40.7836Z" fill="#FEFCFC"/>
<path d="M183.622 35.8089C183.622 32.1442 183.614 28.4779 183.626 24.8132C183.631 23.5053 183.651 23.49 184.895 23.4815C186.924 23.468 188.954 23.4663 190.986 23.4815C192.21 23.49 192.246 23.5086 192.248 24.659C192.26 32.1595 192.258 39.6582 192.249 47.1587C192.248 48.3836 192.217 48.409 191.058 48.4192C188.973 48.4378 186.885 48.4378 184.8 48.4192C183.661 48.409 183.636 48.3853 183.631 47.1434C183.614 43.3652 183.624 39.5871 183.622 35.8089Z" fill="#FFFDFD"/>
<path d="M31.4348 31.1496C29.5711 31.1496 27.7091 31.1632 25.8455 31.1445C24.7408 31.1344 24.7052 31.1089 24.7882 29.9806C24.9153 28.2304 25.283 26.5243 25.7845 24.8419C25.9573 24.2642 26.2385 24.0084 26.8535 24.0118C30.015 24.0304 33.1765 24.0287 36.3379 24.0151C36.8869 24.0117 37.1563 24.2591 37.3053 24.7538C37.8492 26.5429 38.1609 28.3727 38.3626 30.2279C38.4507 31.0429 38.0271 31.1632 37.3629 31.1564C35.3875 31.136 33.4103 31.1496 31.4348 31.1496Z" fill="#FEF9F9"/>
<path d="M38.3593 32.5395C38.3372 34.825 37.8459 36.8378 37.297 38.8421C37.1411 39.413 36.7938 39.6333 36.1872 39.6282C33.0885 39.6062 29.9897 39.6096 26.8892 39.6248C26.2844 39.6282 25.9642 39.3859 25.8015 38.8082C25.2356 36.8039 24.7799 34.7844 24.7477 32.636C25.1136 32.5971 25.3881 32.5412 25.6626 32.5412C29.8321 32.5378 33.9983 32.5395 38.3593 32.5395Z" fill="#FEFAFA"/>
<path d="M187.821 20.6323C185.291 20.6323 183.099 18.423 183.073 15.8545C183.048 13.2318 185.256 10.9598 187.863 10.9243C190.479 10.8887 192.775 13.1082 192.81 15.7071C192.848 18.362 190.548 20.6323 187.821 20.6323Z" fill="#FEFAFA"/>
<path d="M24.475 24.0224C23.76 26.186 23.3669 28.109 23.289 30.0827C23.2602 30.8367 23.0145 31.184 22.181 31.1654C19.87 31.1162 17.5557 31.1162 15.2447 31.1654C14.3823 31.184 14.1655 30.8502 14.2604 30.0658C14.484 28.2021 14.999 26.4283 15.7869 24.7273C15.9936 24.28 16.2714 24.0123 16.8085 24.0157C19.2821 24.0292 21.7557 24.0224 24.475 24.0224Z" fill="#FEF9F9"/>
<path d="M38.6812 24.0207C41.3919 24.0207 43.8147 24.0258 46.2375 24.0156C46.739 24.0139 47.0745 24.1783 47.3083 24.6544C48.1639 26.3944 48.6789 28.2242 48.8856 30.1505C48.9619 30.8536 48.7789 31.1755 47.9927 31.162C45.6225 31.123 43.2522 31.1349 40.882 31.1552C40.2043 31.162 39.8163 30.9722 39.8095 30.2183C39.7909 28.1869 39.4232 26.2063 38.6812 24.0207Z" fill="#FDF8F8"/>
<path d="M48.9128 32.542C48.8416 34.9529 48.2317 36.9776 47.2948 38.9209C47.1152 39.2919 46.9017 39.6104 46.4324 39.6104C43.9148 39.6104 41.3971 39.6104 38.7473 39.6104C39.2624 37.4011 39.813 35.3951 39.8198 33.3078C39.8215 32.7317 40.101 32.5318 40.655 32.5352C43.354 32.5504 46.0512 32.542 48.9128 32.542Z" fill="#FDF8F8"/>
<path d="M24.463 39.6157C21.7759 39.6157 19.3057 39.6123 16.8355 39.6191C16.3967 39.6208 16.0917 39.4564 15.8918 39.0549C14.982 37.22 14.4415 35.2835 14.245 33.2453C14.1958 32.7337 14.3974 32.5355 14.904 32.5389C17.4386 32.549 19.9732 32.5558 22.5061 32.5372C23.1245 32.5321 23.2482 32.8523 23.2753 33.369C23.3854 35.3903 23.7904 37.3675 24.463 39.6157Z" fill="#FEF9F9"/>
<path d="M30.7606 14.6138C28.2565 16.7774 26.4114 19.0816 25.2441 21.8754C25.0476 22.3447 24.7121 22.3836 24.3038 22.3819C22.0013 22.3803 19.6988 22.3803 17.3794 22.3803C18.3299 18.7478 25.3983 14.5579 30.7606 14.6138Z" fill="#FDF6F6"/>
<path d="M45.6886 22.3822C43.3234 22.3822 41.0328 22.3669 38.7439 22.3924C38.1797 22.3991 37.9459 22.084 37.7443 21.6588C36.5041 19.0259 34.8048 16.7335 32.5819 14.7852C36.682 13.9736 43.642 17.9737 45.6886 22.3822Z" fill="#FDF6F6"/>
<path d="M45.7783 41.0389C43.1505 45.7727 37.1665 49.2425 32.5581 48.7224C33.0172 48.2531 33.3985 47.8752 33.7678 47.4856C35.3299 45.8388 36.6379 44.0107 37.6358 41.9708C37.895 41.4422 38.1119 41.0118 38.837 41.0237C41.0853 41.0643 43.3369 41.0389 45.7783 41.0389Z" fill="#FDF8F8"/>
<path d="M17.1625 41.0408C19.7564 41.0408 22.1029 41.0425 24.4494 41.0391C24.812 41.0391 25.0916 41.1322 25.2474 41.5084C26.4063 44.2988 28.2818 46.5776 30.5284 48.6615C26.2877 49.4069 20.0393 45.8931 17.1625 41.0408Z" fill="#FDF8F8"/>
<path d="M36.3651 41.1191C35.2571 43.4081 33.8813 45.1802 32.3125 46.8135C31.9516 47.1896 31.6043 47.5929 31.057 47.0524C29.334 45.3446 27.8769 43.4504 26.752 41.1208C30.0219 41.1191 33.1003 41.1191 36.3651 41.1191Z" fill="#FDF8F8"/>
<path d="M26.6604 22.3859C27.8921 19.9309 29.4034 18.0859 31.1569 16.4205C31.4619 16.1308 31.7669 16.1934 32.0447 16.4662C33.7373 18.1249 35.213 19.9411 36.4176 22.3469C34.6657 22.3605 33.129 22.3791 31.594 22.3842C30.0743 22.391 28.5546 22.3859 26.6604 22.3859Z" fill="#FDF6F6"/>
</svg>
