<svg width="184" height="163" viewBox="0 0 184 163" fill="none" xmlns="http://www.w3.org/2000/svg">
<circle cx="91" cy="67" r="40" fill="#241F35"/>
<path d="M78.0525 44.8301C84.6951 44.8301 91.3377 44.8301 97.9803 44.8301C98.3484 45.0935 98.445 45.4478 98.4392 45.8952C98.4162 47.6919 98.4208 49.4885 98.4289 51.2852C98.4404 53.9675 100.345 55.8677 103.021 55.8723C104.86 55.8758 106.7 55.8712 108.539 55.87C109.21 55.87 109.468 56.1104 109.468 56.7603C109.469 66.505 109.472 76.251 109.465 85.9957C109.464 87.7533 108.196 88.9978 106.434 88.9978C97.1786 89.0013 87.9215 88.999 78.6656 89.0001C78.3182 89.0001 77.9801 88.9576 77.6488 88.8483C76.3571 88.4227 75.6221 87.3357 75.6221 85.8312C75.6209 73.2258 75.6221 60.6205 75.6221 48.0151C75.6221 47.9 75.6232 47.785 75.6267 47.67C75.6704 46.3392 76.5791 45.2258 77.8777 44.9152C77.9433 44.8991 78.0249 44.9209 78.0525 44.8301ZM92.5443 63.9745C89.0085 63.9745 85.4727 63.9745 81.9369 63.9745C81.1812 63.9745 80.958 64.1942 80.9569 64.943C80.9557 69.8154 80.9557 74.6878 80.9569 79.5602C80.9569 80.3009 81.1961 80.5367 81.938 80.5367C89.0096 80.5379 96.0813 80.5379 103.153 80.5367C103.894 80.5367 104.133 80.2998 104.133 79.559C104.134 74.6866 104.134 69.8143 104.133 64.9419C104.133 64.1942 103.906 63.9745 103.152 63.9745C99.6159 63.9734 96.0801 63.9745 92.5443 63.9745ZM86.7989 58.0842C86.44 58.0842 86.0812 58.0842 85.7211 58.0842C84.4145 58.0842 83.1067 58.0784 81.8 58.0865C81.2076 58.0899 80.8764 58.4592 80.9764 58.9733C81.0523 59.3621 81.3548 59.5588 81.8989 59.5599C85.1598 59.5611 88.4196 59.5611 91.6805 59.5576C91.8358 59.5576 92.0002 59.5461 92.1463 59.4967C92.6386 59.3287 92.7916 58.7295 92.4557 58.3361C92.2567 58.1026 91.9899 58.0819 91.7104 58.083C90.0748 58.0853 88.4368 58.0842 86.7989 58.0842ZM84.9551 54.9452C85.9891 54.9452 87.0232 54.9475 88.0584 54.9441C88.6289 54.9418 88.9349 54.6922 88.9452 54.2344C88.9567 53.7605 88.6324 53.4741 88.0561 53.4729C85.988 53.4695 83.9187 53.4695 81.8506 53.4729C81.2766 53.4741 80.9511 53.7639 80.9638 54.2378C80.9764 54.6945 81.2824 54.9429 81.8529 54.9452C82.8858 54.9475 83.921 54.9452 84.9551 54.9452Z" fill="white"/>
<path d="M100.913 44.8301C101.169 45.0739 101.43 45.3132 101.679 45.5628C104.131 48.0116 106.579 50.4616 109.029 52.9116C109.09 52.9726 109.15 53.0347 109.212 53.0945C109.47 53.3395 109.544 53.634 109.407 53.9572C109.277 54.2654 109.02 54.4046 108.685 54.4046C106.701 54.4023 104.717 54.4265 102.734 54.3931C101.176 54.3678 99.9391 53.0979 99.9092 51.4853C99.8736 49.5449 99.9046 47.6044 99.8954 45.664C99.8931 45.2706 100.108 45.0371 100.396 44.8324C100.568 44.8301 100.741 44.8301 100.913 44.8301Z" fill="white"/>
<path d="M92.5443 63.9746C96.0802 63.9746 99.616 63.9746 103.152 63.9746C103.906 63.9746 104.133 64.1955 104.133 64.942C104.134 69.8144 104.134 74.6867 104.133 79.5591C104.133 80.2999 103.894 80.5368 103.153 80.5368C96.0813 80.538 89.0097 80.538 81.9381 80.5368C81.1962 80.5368 80.9569 80.301 80.9569 79.5603C80.9558 74.6879 80.9558 69.8155 80.9569 64.9431C80.9569 64.1932 81.1812 63.9746 81.9369 63.9746C85.4727 63.9735 89.0085 63.9746 92.5443 63.9746ZM89.5089 70.4481C87.4385 70.4481 85.3681 70.4458 83.2976 70.4493C82.6903 70.4504 82.4384 70.7035 82.4327 71.3143C82.4269 71.9469 82.4258 72.5795 82.4327 73.2121C82.4396 73.7861 82.7064 74.0622 83.2769 74.0622C87.4316 74.0656 91.5874 74.0656 95.742 74.0622C96.3102 74.0622 96.5874 73.7781 96.5955 73.211C96.6024 72.6071 96.5989 72.0032 96.5966 71.3994C96.5943 70.6897 96.3516 70.4493 95.6339 70.4493C93.5911 70.447 91.5494 70.4481 89.5089 70.4481ZM89.4778 65.4446C87.4247 65.4446 85.3704 65.4435 83.3172 65.4458C82.6857 65.4469 82.4361 65.6977 82.4315 66.3326C82.4269 66.9215 82.4258 67.5104 82.4315 68.0994C82.4373 68.7032 82.6972 68.9758 83.2919 68.9758C87.4419 68.9793 91.592 68.9793 95.742 68.9758C96.3102 68.9747 96.5863 68.6906 96.5943 68.1247C96.6012 67.5507 96.5978 66.9756 96.5955 66.4016C96.5932 65.6908 96.3493 65.4458 95.6385 65.4458C93.5853 65.4435 91.5321 65.4446 89.4778 65.4446ZM89.5353 75.5345C87.496 75.5345 85.4566 75.5333 83.4184 75.5345C82.6455 75.5345 82.4327 75.7519 82.4304 76.5363C82.4292 76.9101 82.4304 77.2828 82.4304 77.6566C82.4304 78.9886 82.5086 79.0668 83.8382 79.0668C87.7444 79.0668 91.6495 79.0668 95.5557 79.0668C96.3735 79.0668 96.5955 78.8402 96.5955 78.0121C96.5955 77.4956 96.5978 76.978 96.5955 76.4615C96.592 75.7852 96.3401 75.5356 95.6523 75.5356C93.6141 75.5333 91.5747 75.5345 89.5353 75.5345ZM100.353 74.0633C100.841 74.0633 101.329 74.0691 101.816 74.0622C102.371 74.053 102.648 73.7907 102.656 73.2536C102.666 72.5795 102.668 71.9043 102.656 71.2303C102.647 70.7127 102.373 70.4527 101.842 70.4493C100.851 70.4435 99.8621 70.4424 98.8718 70.4493C98.3553 70.4527 98.0758 70.7322 98.0689 71.2487C98.0597 71.9089 98.062 72.5692 98.0678 73.2282C98.0735 73.77 98.3484 74.0495 98.889 74.061C99.3779 74.0714 99.8656 74.0633 100.353 74.0633ZM100.396 65.4446C99.8794 65.4446 99.3629 65.4366 98.8465 65.4469C98.3576 65.4573 98.077 65.7379 98.0701 66.2291C98.0597 66.8744 98.0609 67.5208 98.0701 68.1661C98.077 68.6779 98.3565 68.9666 98.8729 68.9735C99.8633 68.985 100.854 68.985 101.843 68.9747C102.385 68.9689 102.651 68.6906 102.658 68.1408C102.666 67.5093 102.668 66.8778 102.657 66.2463C102.649 65.7195 102.382 65.455 101.86 65.4458C101.371 65.4377 100.884 65.4446 100.396 65.4446ZM100.358 79.0668C100.846 79.0668 101.333 79.0737 101.821 79.0645C102.372 79.0542 102.648 78.7885 102.656 78.2502C102.666 77.6049 102.668 76.9584 102.655 76.3132C102.646 75.8117 102.378 75.5425 101.878 75.5379C100.874 75.5287 99.8702 75.5287 98.8649 75.5379C98.3473 75.5425 98.0735 75.822 98.0666 76.3419C98.0586 76.9734 98.0586 77.6049 98.0666 78.2364C98.0724 78.7747 98.3496 79.0542 98.8925 79.0657C99.3825 79.0749 99.8702 79.0668 100.358 79.0668Z" fill="#241F35"/>
<path d="M86.799 58.084C88.4369 58.084 90.0737 58.0852 91.7116 58.0829C91.9911 58.0829 92.2568 58.1024 92.457 58.3359C92.7928 58.7293 92.6398 59.3286 92.1475 59.4965C92.0026 59.546 91.8381 59.5575 91.6817 59.5575C88.4208 59.5609 85.161 59.5609 81.9001 59.5598C81.3549 59.5598 81.0524 59.3619 80.9776 58.9732C80.8776 58.459 81.2088 58.0898 81.8012 58.0863C83.1079 58.0783 84.4157 58.084 85.7224 58.084C86.0812 58.084 86.4401 58.084 86.799 58.084Z" fill="#241F35"/>
<path d="M84.9552 54.9453C83.9212 54.9453 82.8871 54.9476 81.8519 54.9441C81.2802 54.9418 80.9754 54.6934 80.9628 54.2367C80.9501 53.7628 81.2756 53.473 81.8496 53.4718C83.9177 53.4684 85.987 53.4684 88.0551 53.4718C88.6314 53.473 88.9557 53.7594 88.9442 54.2333C88.9339 54.6911 88.6279 54.9407 88.0574 54.943C87.0233 54.9476 85.9893 54.9453 84.9552 54.9453Z" fill="#241F35"/>
<path d="M89.5086 70.4478C91.5503 70.4478 93.5919 70.4466 95.6336 70.4478C96.3513 70.4478 96.594 70.6882 96.5963 71.3979C96.5986 72.0018 96.6021 72.6056 96.5952 73.2095C96.5883 73.7766 96.3111 74.0595 95.7417 74.0607C91.5871 74.0641 87.4313 74.0641 83.2766 74.0607C82.7061 74.0607 82.4393 73.7858 82.4324 73.2107C82.4243 72.578 82.4255 71.9454 82.4324 71.3128C82.4381 70.702 82.6912 70.449 83.2973 70.4478C85.3678 70.4455 87.4382 70.4478 89.5086 70.4478Z" fill="white"/>
<path d="M89.4779 65.4444C91.5311 65.4444 93.5854 65.4432 95.6386 65.4444C96.3494 65.4444 96.5933 65.6894 96.5956 66.4002C96.5979 66.9742 96.6013 67.5493 96.5944 68.1232C96.5875 68.6892 96.3115 68.9744 95.7421 68.9744C91.5921 68.979 87.442 68.979 83.292 68.9744C82.6973 68.9744 82.4374 68.7018 82.4316 68.0979C82.4259 67.509 82.427 66.9201 82.4316 66.3312C82.4374 65.6951 82.6858 65.4444 83.3173 65.4444C85.3716 65.4432 87.4248 65.4444 89.4779 65.4444Z" fill="white"/>
<path d="M89.5352 75.5342C91.5745 75.5342 93.6139 75.5331 95.6521 75.5354C96.34 75.5365 96.5919 75.785 96.5953 76.4613C96.5976 76.9777 96.5965 77.4953 96.5953 78.0118C96.5942 78.8411 96.3733 79.0666 95.5555 79.0666C91.6493 79.0666 87.7443 79.0666 83.8381 79.0666C82.5084 79.0666 82.4302 78.9883 82.4302 77.6564C82.4302 77.2826 82.429 76.9099 82.4302 76.5361C82.4325 75.7516 82.6453 75.5342 83.4182 75.5342C85.4576 75.5331 87.497 75.5342 89.5352 75.5342Z" fill="white"/>
<path d="M100.353 74.0631C99.8656 74.0631 99.3779 74.0712 98.8902 74.0608C98.3484 74.0493 98.0747 73.771 98.0689 73.2281C98.062 72.5678 98.0609 71.9076 98.0701 71.2485C98.077 70.732 98.3565 70.4537 98.873 70.4491C99.8633 70.4422 100.853 70.4433 101.843 70.4491C102.374 70.4525 102.649 70.7113 102.657 71.2301C102.669 71.9041 102.668 72.5793 102.657 73.2534C102.649 73.7905 102.371 74.0528 101.818 74.062C101.329 74.0689 100.841 74.0631 100.353 74.0631Z" fill="white"/>
<path d="M100.396 65.4444C100.883 65.4444 101.371 65.4375 101.859 65.4455C102.381 65.4547 102.648 65.7181 102.656 66.2461C102.666 66.8776 102.665 67.5091 102.657 68.1405C102.65 68.6903 102.383 68.9687 101.842 68.9744C100.851 68.9848 99.8609 68.9848 98.8717 68.9733C98.3553 68.9675 98.0758 68.6788 98.0689 68.1658C98.0597 67.5206 98.0585 66.8741 98.0689 66.2288C98.0769 65.7377 98.3576 65.457 98.8453 65.4467C99.3629 65.4363 99.8793 65.4444 100.396 65.4444Z" fill="white"/>
<path d="M100.358 79.0667C99.8704 79.0667 99.3827 79.0748 98.895 79.0644C98.3521 79.0529 98.0748 78.7734 98.0691 78.2351C98.0622 77.6037 98.061 76.9722 98.0691 76.3407C98.076 75.8219 98.3497 75.5413 98.8674 75.5367C99.8715 75.5275 100.876 75.5275 101.881 75.5367C102.38 75.5413 102.648 75.8104 102.657 76.3119C102.669 76.9572 102.668 77.6037 102.659 78.2489C102.65 78.7872 102.374 79.0529 101.823 79.0633C101.333 79.0736 100.846 79.0667 100.358 79.0667Z" fill="white"/>
<path d="M52.5859 131.141L49.1875 141H47.1328L51.4141 129.625H52.7266L52.5859 131.141ZM55.4297 141L52.0234 131.141L51.875 129.625H53.1953L57.4922 141H55.4297ZM55.2656 136.781V138.336H49.0781V136.781H55.2656ZM63.7344 139.25V129H65.625V141H63.9141L63.7344 139.25ZM58.2344 136.867V136.703C58.2344 136.062 58.3099 135.479 58.4609 134.953C58.612 134.422 58.8307 133.966 59.1172 133.586C59.4036 133.201 59.7526 132.906 60.1641 132.703C60.5755 132.495 61.0391 132.391 61.5547 132.391C62.0651 132.391 62.513 132.49 62.8984 132.688C63.2839 132.885 63.612 133.169 63.8828 133.539C64.1536 133.904 64.3698 134.341 64.5312 134.852C64.6927 135.357 64.8073 135.919 64.875 136.539V137.062C64.8073 137.667 64.6927 138.219 64.5312 138.719C64.3698 139.219 64.1536 139.651 63.8828 140.016C63.612 140.38 63.2812 140.661 62.8906 140.859C62.5052 141.057 62.0547 141.156 61.5391 141.156C61.0286 141.156 60.5677 141.049 60.1562 140.836C59.75 140.622 59.4036 140.323 59.1172 139.938C58.8307 139.552 58.612 139.099 58.4609 138.578C58.3099 138.052 58.2344 137.482 58.2344 136.867ZM60.1172 136.703V136.867C60.1172 137.253 60.151 137.612 60.2188 137.945C60.2917 138.279 60.4036 138.573 60.5547 138.828C60.7057 139.078 60.901 139.276 61.1406 139.422C61.3854 139.562 61.6771 139.633 62.0156 139.633C62.4427 139.633 62.7943 139.539 63.0703 139.352C63.3464 139.164 63.5625 138.911 63.7188 138.594C63.8802 138.271 63.9896 137.911 64.0469 137.516V136.102C64.0156 135.794 63.9505 135.508 63.8516 135.242C63.7578 134.977 63.6302 134.745 63.4688 134.547C63.3073 134.344 63.1068 134.188 62.8672 134.078C62.6328 133.964 62.3542 133.906 62.0312 133.906C61.6875 133.906 61.3958 133.979 61.1562 134.125C60.9167 134.271 60.7188 134.471 60.5625 134.727C60.4115 134.982 60.2995 135.279 60.2266 135.617C60.1536 135.956 60.1172 136.318 60.1172 136.703ZM72.75 139.25V129H74.6406V141H72.9297L72.75 139.25ZM67.25 136.867V136.703C67.25 136.062 67.3255 135.479 67.4766 134.953C67.6276 134.422 67.8464 133.966 68.1328 133.586C68.4193 133.201 68.7682 132.906 69.1797 132.703C69.5911 132.495 70.0547 132.391 70.5703 132.391C71.0807 132.391 71.5286 132.49 71.9141 132.688C72.2995 132.885 72.6276 133.169 72.8984 133.539C73.1693 133.904 73.3854 134.341 73.5469 134.852C73.7083 135.357 73.8229 135.919 73.8906 136.539V137.062C73.8229 137.667 73.7083 138.219 73.5469 138.719C73.3854 139.219 73.1693 139.651 72.8984 140.016C72.6276 140.38 72.2969 140.661 71.9062 140.859C71.5208 141.057 71.0703 141.156 70.5547 141.156C70.0443 141.156 69.5833 141.049 69.1719 140.836C68.7656 140.622 68.4193 140.323 68.1328 139.938C67.8464 139.552 67.6276 139.099 67.4766 138.578C67.3255 138.052 67.25 137.482 67.25 136.867ZM69.1328 136.703V136.867C69.1328 137.253 69.1667 137.612 69.2344 137.945C69.3073 138.279 69.4193 138.573 69.5703 138.828C69.7214 139.078 69.9167 139.276 70.1562 139.422C70.401 139.562 70.6927 139.633 71.0312 139.633C71.4583 139.633 71.8099 139.539 72.0859 139.352C72.362 139.164 72.5781 138.911 72.7344 138.594C72.8958 138.271 73.0052 137.911 73.0625 137.516V136.102C73.0312 135.794 72.9661 135.508 72.8672 135.242C72.7734 134.977 72.6458 134.745 72.4844 134.547C72.3229 134.344 72.1224 134.188 71.8828 134.078C71.6484 133.964 71.3698 133.906 71.0469 133.906C70.7031 133.906 70.4115 133.979 70.1719 134.125C69.9323 134.271 69.7344 134.471 69.5781 134.727C69.4271 134.982 69.3151 135.279 69.2422 135.617C69.1693 135.956 69.1328 136.318 69.1328 136.703ZM82.875 129.625V141H80.9141V129.625H82.875ZM86.9922 134.352V141H85.1094V132.547H86.8828L86.9922 134.352ZM86.6562 136.461L86.0469 136.453C86.0521 135.854 86.1354 135.305 86.2969 134.805C86.4635 134.305 86.6927 133.875 86.9844 133.516C87.2812 133.156 87.6354 132.88 88.0469 132.688C88.4583 132.49 88.9167 132.391 89.4219 132.391C89.8281 132.391 90.1953 132.448 90.5234 132.562C90.8568 132.672 91.1406 132.852 91.375 133.102C91.6146 133.352 91.7969 133.677 91.9219 134.078C92.0469 134.474 92.1094 134.961 92.1094 135.539V141H90.2188V135.531C90.2188 135.125 90.1589 134.805 90.0391 134.57C89.9245 134.331 89.7552 134.161 89.5312 134.062C89.3125 133.958 89.0391 133.906 88.7109 133.906C88.388 133.906 88.099 133.974 87.8438 134.109C87.5885 134.245 87.3724 134.43 87.1953 134.664C87.0234 134.898 86.8906 135.169 86.7969 135.477C86.7031 135.784 86.6562 136.112 86.6562 136.461ZM96.7812 139.508L98.8516 132.547H100.805L97.8672 141H96.6484L96.7812 139.508ZM95.1953 132.547L97.3047 139.539L97.4062 141H96.1875L93.2344 132.547H95.1953ZM101.484 136.867V136.688C101.484 136.078 101.573 135.513 101.75 134.992C101.927 134.466 102.182 134.01 102.516 133.625C102.854 133.234 103.266 132.932 103.75 132.719C104.24 132.5 104.792 132.391 105.406 132.391C106.026 132.391 106.578 132.5 107.062 132.719C107.552 132.932 107.966 133.234 108.305 133.625C108.643 134.01 108.901 134.466 109.078 134.992C109.255 135.513 109.344 136.078 109.344 136.688V136.867C109.344 137.477 109.255 138.042 109.078 138.562C108.901 139.083 108.643 139.539 108.305 139.93C107.966 140.315 107.555 140.617 107.07 140.836C106.586 141.049 106.036 141.156 105.422 141.156C104.802 141.156 104.247 141.049 103.758 140.836C103.273 140.617 102.862 140.315 102.523 139.93C102.185 139.539 101.927 139.083 101.75 138.562C101.573 138.042 101.484 137.477 101.484 136.867ZM103.367 136.688V136.867C103.367 137.247 103.406 137.607 103.484 137.945C103.562 138.284 103.685 138.581 103.852 138.836C104.018 139.091 104.232 139.292 104.492 139.438C104.753 139.583 105.062 139.656 105.422 139.656C105.771 139.656 106.073 139.583 106.328 139.438C106.589 139.292 106.802 139.091 106.969 138.836C107.135 138.581 107.258 138.284 107.336 137.945C107.419 137.607 107.461 137.247 107.461 136.867V136.688C107.461 136.312 107.419 135.958 107.336 135.625C107.258 135.286 107.133 134.987 106.961 134.727C106.794 134.466 106.581 134.263 106.32 134.117C106.065 133.966 105.76 133.891 105.406 133.891C105.052 133.891 104.745 133.966 104.484 134.117C104.229 134.263 104.018 134.466 103.852 134.727C103.685 134.987 103.562 135.286 103.484 135.625C103.406 135.958 103.367 136.312 103.367 136.688ZM112.938 132.547V141H111.047V132.547H112.938ZM110.922 130.328C110.922 130.042 111.016 129.805 111.203 129.617C111.396 129.424 111.661 129.328 112 129.328C112.333 129.328 112.596 129.424 112.789 129.617C112.982 129.805 113.078 130.042 113.078 130.328C113.078 130.609 112.982 130.844 112.789 131.031C112.596 131.219 112.333 131.312 112 131.312C111.661 131.312 111.396 131.219 111.203 131.031C111.016 130.844 110.922 130.609 110.922 130.328ZM118.453 139.656C118.76 139.656 119.036 139.596 119.281 139.477C119.531 139.352 119.732 139.18 119.883 138.961C120.039 138.742 120.125 138.49 120.141 138.203H121.914C121.904 138.75 121.742 139.247 121.43 139.695C121.117 140.143 120.703 140.5 120.188 140.766C119.672 141.026 119.102 141.156 118.477 141.156C117.831 141.156 117.268 141.047 116.789 140.828C116.31 140.604 115.911 140.297 115.594 139.906C115.276 139.516 115.036 139.065 114.875 138.555C114.719 138.044 114.641 137.497 114.641 136.914V136.641C114.641 136.057 114.719 135.51 114.875 135C115.036 134.484 115.276 134.031 115.594 133.641C115.911 133.25 116.31 132.945 116.789 132.727C117.268 132.503 117.828 132.391 118.469 132.391C119.146 132.391 119.74 132.526 120.25 132.797C120.76 133.062 121.161 133.435 121.453 133.914C121.75 134.388 121.904 134.94 121.914 135.57H120.141C120.125 135.258 120.047 134.977 119.906 134.727C119.771 134.471 119.578 134.268 119.328 134.117C119.083 133.966 118.789 133.891 118.445 133.891C118.065 133.891 117.75 133.969 117.5 134.125C117.25 134.276 117.055 134.484 116.914 134.75C116.773 135.01 116.672 135.305 116.609 135.633C116.552 135.956 116.523 136.292 116.523 136.641V136.914C116.523 137.263 116.552 137.602 116.609 137.93C116.667 138.258 116.766 138.552 116.906 138.812C117.052 139.068 117.25 139.273 117.5 139.43C117.75 139.581 118.068 139.656 118.453 139.656ZM127.086 141.156C126.461 141.156 125.896 141.055 125.391 140.852C124.891 140.643 124.464 140.354 124.109 139.984C123.76 139.615 123.492 139.18 123.305 138.68C123.117 138.18 123.023 137.641 123.023 137.062V136.75C123.023 136.089 123.12 135.49 123.312 134.953C123.505 134.417 123.773 133.958 124.117 133.578C124.461 133.193 124.867 132.898 125.336 132.695C125.805 132.492 126.312 132.391 126.859 132.391C127.464 132.391 127.992 132.492 128.445 132.695C128.898 132.898 129.273 133.185 129.57 133.555C129.872 133.919 130.096 134.354 130.242 134.859C130.393 135.365 130.469 135.922 130.469 136.531V137.336H123.938V135.984H128.609V135.836C128.599 135.497 128.531 135.18 128.406 134.883C128.286 134.586 128.102 134.346 127.852 134.164C127.602 133.982 127.268 133.891 126.852 133.891C126.539 133.891 126.26 133.958 126.016 134.094C125.776 134.224 125.576 134.414 125.414 134.664C125.253 134.914 125.128 135.216 125.039 135.57C124.956 135.919 124.914 136.312 124.914 136.75V137.062C124.914 137.432 124.964 137.776 125.062 138.094C125.167 138.406 125.318 138.68 125.516 138.914C125.714 139.148 125.953 139.333 126.234 139.469C126.516 139.599 126.836 139.664 127.195 139.664C127.648 139.664 128.052 139.573 128.406 139.391C128.76 139.208 129.068 138.951 129.328 138.617L130.32 139.578C130.138 139.844 129.901 140.099 129.609 140.344C129.318 140.583 128.961 140.779 128.539 140.93C128.122 141.081 127.638 141.156 127.086 141.156Z" fill="#241F35"/>
</svg>
