<svg width="272" height="56" viewBox="0 0 272 56" fill="none" xmlns="http://www.w3.org/2000/svg">
<path d="M63.8428 29.5608H59.6548V27.3619H63.8428C64.5721 27.3619 65.1614 27.244 65.6108 27.0083C66.0602 26.7725 66.388 26.4484 66.5943 26.0359C66.8079 25.616 66.9147 25.1371 66.9147 24.5994C66.9147 24.0911 66.8079 23.6159 66.5943 23.1739C66.388 22.7245 66.0602 22.3636 65.6108 22.091C65.1614 21.8184 64.5721 21.6821 63.8428 21.6821H60.5057V35.561H57.7321V19.4721H63.8428C65.0878 19.4721 66.1449 19.6931 67.0142 20.1351C67.8908 20.5698 68.5575 21.1738 69.0142 21.9473C69.471 22.7135 69.6993 23.5901 69.6993 24.5773C69.6993 25.616 69.471 26.5073 69.0142 27.2514C68.5575 27.9954 67.8908 28.5663 67.0142 28.9641C66.1449 29.3619 65.0878 29.5608 63.8428 29.5608ZM78.5283 33.1632V27.4613C78.5283 27.0341 78.451 26.6657 78.2963 26.3563C78.1416 26.0469 77.9058 25.8075 77.5891 25.6381C77.2797 25.4686 76.8892 25.3839 76.4178 25.3839C75.9831 25.3839 75.6074 25.4576 75.2907 25.6049C74.9739 25.7523 74.7271 25.9512 74.5503 26.2016C74.3735 26.4521 74.2851 26.7357 74.2851 27.0525H71.6331C71.6331 26.581 71.7473 26.1243 71.9756 25.6823C72.204 25.2403 72.5355 24.8461 72.9701 24.4999C73.4048 24.1537 73.9241 23.8811 74.5282 23.6822C75.1323 23.4833 75.81 23.3839 76.5614 23.3839C77.4602 23.3839 78.2558 23.5349 78.9482 23.8369C79.6481 24.1389 80.1969 24.5957 80.5947 25.2071C80.9999 25.8112 81.2025 26.57 81.2025 27.4834V32.7985C81.2025 33.3437 81.2393 33.8335 81.313 34.2682C81.394 34.6954 81.5082 35.0675 81.6555 35.3842V35.561H78.9261C78.8009 35.2737 78.7015 34.9091 78.6278 34.4671C78.5615 34.0177 78.5283 33.5831 78.5283 33.1632ZM78.9151 28.2901L78.9372 29.9365H77.0255C76.532 29.9365 76.0973 29.9844 75.7216 30.0802C75.3459 30.1686 75.0328 30.3012 74.7824 30.478C74.5319 30.6548 74.344 30.8684 74.2188 31.1189C74.0936 31.3694 74.031 31.653 74.031 31.9698C74.031 32.2865 74.1046 32.5775 74.252 32.8427C74.3993 33.1006 74.6129 33.3031 74.8929 33.4505C75.1802 33.5978 75.5264 33.6715 75.9316 33.6715C76.4767 33.6715 76.9519 33.561 77.357 33.34C77.7696 33.1116 78.0937 32.8353 78.3294 32.5112C78.5652 32.1797 78.6904 31.8666 78.7051 31.572L79.567 32.7543C79.4786 33.0564 79.3276 33.3805 79.114 33.7267C78.9004 34.073 78.6204 34.4045 78.2742 34.7212C77.9353 35.0306 77.5265 35.2848 77.0476 35.4837C76.5762 35.6826 76.031 35.782 75.4122 35.782C74.6313 35.782 73.9352 35.6273 73.3237 35.3179C72.7123 35.0012 72.2335 34.5776 71.8872 34.0472C71.541 33.5094 71.3679 32.9016 71.3679 32.2239C71.3679 31.5904 71.4858 31.0305 71.7215 30.5443C71.9646 30.0507 72.3182 29.6382 72.7823 29.3067C73.2538 28.9752 73.8284 28.7247 74.5061 28.5553C75.1838 28.3785 75.9574 28.2901 76.8266 28.2901H78.9151ZM87.28 34.2571L90.5287 23.6049H93.3796L88.5839 37.3843C88.4734 37.679 88.3298 37.9994 88.153 38.3457C87.9762 38.6919 87.7441 39.0197 87.4568 39.3291C87.1769 39.6459 86.8269 39.9 86.407 40.0916C85.9871 40.2905 85.4788 40.3899 84.8821 40.3899C84.6464 40.3899 84.418 40.3678 84.197 40.3236C83.9834 40.2868 83.7808 40.2463 83.5893 40.2021L83.5782 38.1689C83.6519 38.1762 83.7403 38.1836 83.8434 38.191C83.9539 38.1983 84.0423 38.202 84.1086 38.202C84.5506 38.202 84.919 38.1468 85.2136 38.0363C85.5083 37.9331 85.7477 37.7637 85.9319 37.5279C86.1234 37.2922 86.2855 36.9754 86.4181 36.5776L87.28 34.2571ZM85.4457 23.6049L88.2856 32.5554L88.7607 35.3621L86.9153 35.8373L82.5727 23.6049H85.4457ZM97.5787 25.8812V35.561H94.9156V23.6049H97.4571L97.5787 25.8812ZM101.236 23.5275L101.214 26.0027C101.052 25.9733 100.875 25.9512 100.684 25.9364C100.5 25.9217 100.315 25.9143 100.131 25.9143C99.6745 25.9143 99.273 25.9806 98.9268 26.1132C98.5805 26.2385 98.2896 26.4226 98.0538 26.6657C97.8255 26.9015 97.6487 27.1888 97.5234 27.5276C97.3982 27.8665 97.3245 28.2459 97.3024 28.6658L96.6947 28.71C96.6947 27.9586 96.7683 27.2624 96.9157 26.6215C97.063 25.9806 97.284 25.4171 97.5787 24.9309C97.8807 24.4447 98.2564 24.0653 98.7058 23.7927C99.1625 23.5201 99.6892 23.3839 100.286 23.3839C100.448 23.3839 100.621 23.3986 100.805 23.4281C100.997 23.4575 101.14 23.4907 101.236 23.5275ZM102.109 29.7155V29.4614C102.109 28.5995 102.234 27.8002 102.485 27.0635C102.735 26.3195 103.096 25.6749 103.568 25.1298C104.047 24.5773 104.629 24.15 105.314 23.848C106.006 23.5386 106.787 23.3839 107.656 23.3839C108.533 23.3839 109.314 23.5386 109.999 23.848C110.691 24.15 111.277 24.5773 111.756 25.1298C112.235 25.6749 112.599 26.3195 112.85 27.0635C113.1 27.8002 113.226 28.5995 113.226 29.4614V29.7155C113.226 30.5775 113.1 31.3767 112.85 32.1134C112.599 32.8501 112.235 33.4947 111.756 34.0472C111.277 34.5923 110.695 35.0196 110.01 35.329C109.325 35.631 108.548 35.782 107.678 35.782C106.802 35.782 106.017 35.631 105.325 35.329C104.64 35.0196 104.058 34.5923 103.579 34.0472C103.1 33.4947 102.735 32.8501 102.485 32.1134C102.234 31.3767 102.109 30.5775 102.109 29.7155ZM104.772 29.4614V29.7155C104.772 30.2533 104.828 30.7616 104.938 31.2405C105.049 31.7193 105.222 32.1392 105.457 32.5002C105.693 32.8611 105.995 33.1448 106.363 33.351C106.732 33.5573 107.17 33.6604 107.678 33.6604C108.172 33.6604 108.599 33.5573 108.96 33.351C109.329 33.1448 109.631 32.8611 109.866 32.5002C110.102 32.1392 110.275 31.7193 110.386 31.2405C110.504 30.7616 110.563 30.2533 110.563 29.7155V29.4614C110.563 28.931 110.504 28.4301 110.386 27.9586C110.275 27.4797 110.098 27.0562 109.855 26.6878C109.62 26.3195 109.318 26.0322 108.949 25.8259C108.588 25.6123 108.157 25.5055 107.656 25.5055C107.155 25.5055 106.721 25.6123 106.352 25.8259C105.991 26.0322 105.693 26.3195 105.457 26.6878C105.222 27.0562 105.049 27.4797 104.938 27.9586C104.828 28.4301 104.772 28.931 104.772 29.4614ZM118.309 18.5881V35.561H115.634V18.5881H118.309ZM124.077 18.5881V35.561H121.403V18.5881H124.077Z" fill="white"/>
<path d="M27.999 16.6487C22.3996 17.5428 18.0737 22.3052 17.8584 28.1004H19.8696C20.096 23.0293 24.0996 18.924 29.1278 18.5363V17.9769V16.5228V14.561H27.999V16.6487Z" fill="white"/>
<path d="M17.9792 30.4535C18.8728 36.0529 23.6351 40.3788 29.431 40.5941V38.5829C24.3598 38.3565 20.2545 34.3529 19.8669 29.3247H19.3075H17.8534H15.8916V30.4535H17.9792Z" fill="#3CCB93"/>
<path d="M31.7836 40.4732C37.383 39.5797 41.7089 34.8174 41.9242 29.0215H39.913C39.6866 34.0927 35.683 38.198 30.6548 38.5856V39.145V40.5997V42.5609H31.7836V40.4732Z" fill="white"/>
<path d="M41.8043 26.6689C40.9102 21.0695 36.1478 16.7436 30.3525 16.5283V18.5395C35.4237 18.766 39.529 22.7695 39.9167 27.7977H40.4761H41.9308H43.892V26.6689H41.8043Z" fill="#3CCB93"/>
<path d="M38.0136 24.1807L37.4895 27.183L36.443 26.3965L31.9371 31.4654C32.0066 31.6142 32.0471 31.7783 32.0471 31.953C32.0471 32.5877 31.5307 33.1042 30.896 33.1042C30.2613 33.1042 29.7448 32.5877 29.7448 31.953C29.7448 31.8742 29.753 31.7971 29.7683 31.723L27.1424 29.8989C26.966 30.0101 26.7577 30.0754 26.5348 30.0754C26.4648 30.0754 26.3966 30.0677 26.3307 30.056L24.1701 32.9607C24.2819 33.1536 24.336 33.3736 24.3236 33.6007C24.2901 34.2113 23.786 34.6889 23.1754 34.6889C23.1542 34.6889 23.133 34.6883 23.1119 34.6877C23.0654 34.6848 23.0213 34.6748 22.9766 34.6665C24.6672 36.5801 27.1377 37.7883 29.8919 37.7883C34.9883 37.7883 39.1189 33.6565 39.1189 28.5613C39.1183 26.976 38.7183 25.4842 38.0136 24.1807Z" fill="#3CCB93"/>
<path d="M37.8169 23.8352C36.2057 21.1393 33.2604 19.334 29.8916 19.334C24.7957 19.334 20.6646 23.4652 20.6646 28.561C20.6646 30.3363 21.1675 31.9946 22.0363 33.4022C22.1051 32.8275 22.5875 32.3875 23.1728 32.3875C23.194 32.3875 23.2151 32.3881 23.2369 32.3893C23.3063 32.3928 23.3746 32.4034 23.4404 32.4193L25.5722 29.5534C25.454 29.3716 25.384 29.1569 25.384 28.9246C25.384 28.2899 25.9004 27.7734 26.5351 27.7734C27.1698 27.7734 27.6863 28.2905 27.6863 28.9246C27.6863 29.0034 27.6781 29.0799 27.6628 29.1546L30.2887 30.9781C30.4651 30.8675 30.6734 30.8022 30.8969 30.8022C31.024 30.8022 31.1451 30.8246 31.2593 30.8622L35.7146 25.8499L34.7351 25.114L37.8169 23.8352ZM24.0387 31.0569L23.2934 32.0587C23.2798 32.0575 23.2675 32.0569 23.2546 32.0563C23.2257 32.0552 23.1993 32.054 23.1734 32.054C22.694 32.054 22.2628 32.2857 21.9916 32.6481C21.9746 32.6146 21.9575 32.5816 21.941 32.5481V26.6093H24.0387V31.0569ZM27.1075 27.5546C26.9316 27.481 26.7381 27.4399 26.5357 27.4399C25.7175 27.4399 25.0516 28.1057 25.0516 28.924C25.0516 29.131 25.0951 29.3352 25.1793 29.524L25.0093 29.7522V24.1805H27.1075V27.5546ZM30.1757 30.4934L30.014 30.381L28.0781 29.0363V22.6305H30.1757V30.4934ZM33.244 28.1275L31.2269 30.3969L31.1463 30.4875V20.734H33.244V28.1275Z" fill="white"/>
<path d="M245.093 19.561L243 21.676L249.799 28.561L243 35.446L245.093 37.561L254 28.561L245.093 19.561Z" fill="#3CCB93"/>
</svg>
