<svg width="248" height="29" viewBox="0 0 248 29" fill="none" xmlns="http://www.w3.org/2000/svg">
<path d="M48.8428 15.5608H44.6548V13.3619H48.8428C49.5721 13.3619 50.1614 13.244 50.6108 13.0083C51.0602 12.7725 51.388 12.4484 51.5943 12.0359C51.8079 11.616 51.9147 11.1371 51.9147 10.5994C51.9147 10.0911 51.8079 9.6159 51.5943 9.1739C51.388 8.72453 51.0602 8.36356 50.6108 8.09099C50.1614 7.81842 49.5721 7.68214 48.8428 7.68214H45.5057V21.561H42.7321V5.47212H48.8428C50.0878 5.47212 51.1449 5.69312 52.0142 6.13513C52.8908 6.56976 53.5575 7.17383 54.0142 7.94734C54.471 8.71348 54.6993 9.59012 54.6993 10.5773C54.6993 11.616 54.471 12.5073 54.0142 13.2514C53.5575 13.9954 52.8908 14.5663 52.0142 14.9641C51.1449 15.3619 50.0878 15.5608 48.8428 15.5608ZM63.5283 19.1632V13.4613C63.5283 13.0341 63.451 12.6657 63.2963 12.3563C63.1416 12.0469 62.9058 11.8075 62.5891 11.6381C62.2797 11.4686 61.8892 11.3839 61.4178 11.3839C60.9831 11.3839 60.6074 11.4576 60.2907 11.6049C59.9739 11.7523 59.7271 11.9512 59.5503 12.2016C59.3735 12.4521 59.2851 12.7357 59.2851 13.0525H56.6331C56.6331 12.581 56.7473 12.1243 56.9756 11.6823C57.204 11.2403 57.5355 10.8461 57.9701 10.4999C58.4048 10.1537 58.9241 9.8811 59.5282 9.6822C60.1323 9.4833 60.81 9.38385 61.5614 9.38385C62.4602 9.38385 63.2558 9.53487 63.9482 9.8369C64.6481 10.1389 65.1969 10.5957 65.5947 11.2071C65.9999 11.8112 66.2025 12.57 66.2025 13.4834V18.7985C66.2025 19.3437 66.2393 19.8335 66.313 20.2682C66.394 20.6954 66.5082 21.0675 66.6555 21.3842V21.561H63.9261C63.8009 21.2737 63.7015 20.9091 63.6278 20.4671C63.5615 20.0177 63.5283 19.5831 63.5283 19.1632ZM63.9151 14.2901L63.9372 15.9365H62.0255C61.532 15.9365 61.0973 15.9844 60.7216 16.0802C60.3459 16.1686 60.0328 16.3012 59.7824 16.478C59.5319 16.6548 59.344 16.8684 59.2188 17.1189C59.0936 17.3694 59.031 17.653 59.031 17.9698C59.031 18.2865 59.1046 18.5775 59.252 18.8427C59.3993 19.1006 59.6129 19.3031 59.8929 19.4505C60.1802 19.5978 60.5264 19.6715 60.9316 19.6715C61.4767 19.6715 61.9519 19.561 62.357 19.34C62.7696 19.1116 63.0937 18.8353 63.3294 18.5112C63.5652 18.1797 63.6904 17.8666 63.7051 17.572L64.567 18.7543C64.4786 19.0564 64.3276 19.3805 64.114 19.7267C63.9004 20.073 63.6204 20.4045 63.2742 20.7212C62.9353 21.0306 62.5265 21.2848 62.0476 21.4837C61.5762 21.6826 61.031 21.782 60.4122 21.782C59.6313 21.782 58.9352 21.6273 58.3237 21.3179C57.7123 21.0012 57.2335 20.5776 56.8872 20.0472C56.541 19.5094 56.3679 18.9016 56.3679 18.2239C56.3679 17.5904 56.4858 17.0305 56.7215 16.5443C56.9646 16.0507 57.3182 15.6382 57.7823 15.3067C58.2538 14.9752 58.8284 14.7247 59.5061 14.5553C60.1838 14.3785 60.9574 14.2901 61.8266 14.2901H63.9151ZM72.28 20.2571L75.5287 9.60485H78.3796L73.5839 23.3843C73.4734 23.679 73.3298 23.9994 73.153 24.3457C72.9762 24.6919 72.7441 25.0197 72.4568 25.3291C72.1769 25.6459 71.8269 25.9 71.407 26.0916C70.9871 26.2905 70.4788 26.3899 69.8821 26.3899C69.6464 26.3899 69.418 26.3678 69.197 26.3236C68.9834 26.2868 68.7808 26.2463 68.5893 26.2021L68.5782 24.1689C68.6519 24.1762 68.7403 24.1836 68.8434 24.191C68.9539 24.1983 69.0423 24.202 69.1086 24.202C69.5506 24.202 69.919 24.1468 70.2136 24.0363C70.5083 23.9331 70.7477 23.7637 70.9319 23.5279C71.1234 23.2922 71.2855 22.9754 71.4181 22.5776L72.28 20.2571ZM70.4457 9.60485L73.2856 18.5554L73.7607 21.3621L71.9153 21.8373L67.5727 9.60485H70.4457ZM82.5787 11.8812V21.561H79.9156V9.60485H82.4571L82.5787 11.8812ZM86.2362 9.5275L86.2141 12.0027C86.0521 11.9733 85.8753 11.9512 85.6837 11.9364C85.4996 11.9217 85.3154 11.9143 85.1312 11.9143C84.6745 11.9143 84.273 11.9806 83.9268 12.1132C83.5805 12.2385 83.2896 12.4226 83.0538 12.6657C82.8255 12.9015 82.6487 13.1888 82.5234 13.5276C82.3982 13.8665 82.3245 14.2459 82.3024 14.6658L81.6947 14.71C81.6947 13.9586 81.7683 13.2624 81.9157 12.6215C82.063 11.9806 82.284 11.4171 82.5787 10.9309C82.8807 10.4447 83.2564 10.0653 83.7058 9.7927C84.1625 9.52013 84.6892 9.38385 85.2859 9.38385C85.448 9.38385 85.6211 9.39858 85.8053 9.42805C85.9968 9.45752 86.1405 9.49067 86.2362 9.5275ZM87.1092 15.7155V15.4614C87.1092 14.5995 87.2344 13.8002 87.4849 13.0635C87.7354 12.3195 88.0963 11.6749 88.5678 11.1298C89.0466 10.5773 89.6286 10.15 90.3137 9.84795C91.0062 9.53855 91.7871 9.38385 92.6563 9.38385C93.533 9.38385 94.3139 9.53855 94.999 9.84795C95.6914 10.15 96.2771 10.5773 96.7559 11.1298C97.2348 11.6749 97.5994 12.3195 97.8499 13.0635C98.1003 13.8002 98.2256 14.5995 98.2256 15.4614V15.7155C98.2256 16.5775 98.1003 17.3767 97.8499 18.1134C97.5994 18.8501 97.2348 19.4947 96.7559 20.0472C96.2771 20.5923 95.6951 21.0196 95.01 21.329C94.3249 21.631 93.5477 21.782 92.6784 21.782C91.8018 21.782 91.0172 21.631 90.3248 21.329C89.6397 21.0196 89.0577 20.5923 88.5789 20.0472C88.1 19.4947 87.7354 18.8501 87.4849 18.1134C87.2344 17.3767 87.1092 16.5775 87.1092 15.7155ZM89.7723 15.4614V15.7155C89.7723 16.2533 89.8275 16.7616 89.938 17.2405C90.0485 17.7193 90.2216 18.1392 90.4574 18.5002C90.6931 18.8611 90.9951 19.1448 91.3635 19.351C91.7318 19.5573 92.1701 19.6604 92.6784 19.6604C93.172 19.6604 93.5993 19.5573 93.9602 19.351C94.3286 19.1448 94.6306 18.8611 94.8664 18.5002C95.1021 18.1392 95.2752 17.7193 95.3857 17.2405C95.5036 16.7616 95.5625 16.2533 95.5625 15.7155V15.4614C95.5625 14.931 95.5036 14.4301 95.3857 13.9586C95.2752 13.4797 95.0984 13.0562 94.8553 12.6878C94.6196 12.3195 94.3175 12.0322 93.9492 11.8259C93.5882 11.6123 93.1573 11.5055 92.6563 11.5055C92.1554 11.5055 91.7208 11.6123 91.3524 11.8259C90.9915 12.0322 90.6931 12.3195 90.4574 12.6878C90.2216 13.0562 90.0485 13.4797 89.938 13.9586C89.8275 14.4301 89.7723 14.931 89.7723 15.4614ZM103.309 4.58812V21.561H100.634V4.58812H103.309ZM109.077 4.58812V21.561H106.403V4.58812H109.077Z" fill="white"/>
<path d="M128.425 15.6462V15.4584C128.425 13.8819 128.595 12.4527 128.934 11.1709C129.28 9.88175 129.729 8.75464 130.282 7.7896C130.834 6.81719 131.424 6.01422 132.05 5.38068C132.683 4.73978 133.291 4.27936 133.873 3.99942L134.404 5.52433C133.976 5.8411 133.549 6.27942 133.122 6.83929C132.702 7.39916 132.315 8.08795 131.961 8.90566C131.615 9.716 131.335 10.6663 131.122 11.7566C130.915 12.8395 130.812 14.066 130.812 15.4363V15.6683C130.812 17.0385 130.915 18.2688 131.122 19.359C131.335 20.4419 131.615 21.3922 131.961 22.21C132.315 23.0277 132.702 23.7201 133.122 24.2874C133.549 24.862 133.976 25.3187 134.404 25.6576L133.873 27.1162C133.291 26.8289 132.683 26.3648 132.05 25.7239C131.424 25.0903 130.834 24.2874 130.282 23.315C129.729 22.3499 129.28 21.2265 128.934 19.9447C128.595 18.6555 128.425 17.2227 128.425 15.6462ZM153.863 15.9998H149.675V13.8008H153.863C154.592 13.8008 155.181 13.683 155.631 13.4472C156.08 13.2115 156.408 12.8874 156.614 12.4748C156.828 12.0549 156.935 11.5761 156.935 11.0383C156.935 10.53 156.828 10.0549 156.614 9.61286C156.408 9.16349 156.08 8.80252 155.631 8.52996C155.181 8.25739 154.592 8.1211 153.863 8.1211H150.526V22H147.752V5.91109H153.863C155.108 5.91109 156.165 6.13209 157.034 6.57409C157.911 7.00873 158.577 7.6128 159.034 8.3863C159.491 9.15244 159.719 10.0291 159.719 11.0162C159.719 12.0549 159.491 12.9463 159.034 13.6903C158.577 14.4344 157.911 15.0053 157.034 15.4031C156.165 15.8009 155.108 15.9998 153.863 15.9998ZM172.736 19.801V22H164.195V19.801H172.736ZM164.979 5.91109V22H162.206V5.91109H164.979ZM171.62 12.6295V14.7953H164.195V12.6295H171.62ZM172.681 5.91109V8.1211H164.195V5.91109H172.681ZM185.532 19.801V22H176.991V19.801H185.532ZM177.775 5.91109V22H175.002V5.91109H177.775ZM184.416 12.6295V14.7953H176.991V12.6295H184.416ZM185.477 5.91109V8.1211H176.991V5.91109H185.477ZM197.875 19.801V22H189.798V19.801H197.875ZM190.571 5.91109V22H187.798V5.91109H190.571ZM216.285 12.6295V14.8285H207.743V12.6295H216.285ZM208.428 5.91109V22H205.654V5.91109H208.428ZM218.417 5.91109V22H215.655V5.91109H218.417ZM221.721 5.91109H227.412C228.635 5.91109 229.677 6.09526 230.539 6.46359C231.401 6.83193 232.06 7.37706 232.517 8.099C232.981 8.81357 233.213 9.69758 233.213 10.751C233.213 11.554 233.066 12.2612 232.771 12.8726C232.477 13.4841 232.06 13.9997 231.523 14.4196C230.985 14.8322 230.344 15.1526 229.6 15.381L228.76 15.7899H223.644L223.622 13.5909H227.456C228.119 13.5909 228.672 13.473 229.114 13.2373C229.556 13.0016 229.887 12.6811 230.108 12.2759C230.337 11.8634 230.451 11.3993 230.451 10.8836C230.451 10.3238 230.34 9.83755 230.119 9.42501C229.906 9.00511 229.574 8.68466 229.125 8.46366C228.675 8.23529 228.105 8.1211 227.412 8.1211H224.495V22H221.721V5.91109ZM230.904 22L227.125 14.7732L230.031 14.7622L233.865 21.8563V22H230.904ZM246.484 15.4584V15.6462C246.484 17.2006 246.308 18.6187 245.954 19.9005C245.608 21.1823 245.155 22.3094 244.595 23.2818C244.042 24.2542 243.442 25.0646 242.794 25.7128C242.153 26.3611 241.538 26.8289 240.948 27.1162L240.407 25.6576C240.834 25.3334 241.258 24.8878 241.678 24.3205C242.105 23.7606 242.492 23.0645 242.838 22.2321C243.192 21.407 243.471 20.4493 243.678 19.359C243.891 18.2688 243.998 17.0385 243.998 15.6683V15.4363C243.998 14.066 243.888 12.8358 243.667 11.7455C243.453 10.6479 243.166 9.69021 242.805 8.87251C242.444 8.04744 242.053 7.35128 241.634 6.78404C241.214 6.21681 240.805 5.7748 240.407 5.45803L240.948 3.99942C241.538 4.27936 242.153 4.74346 242.794 5.39173C243.442 6.04001 244.042 6.85403 244.595 7.8338C245.155 8.80621 245.608 9.93332 245.954 11.2151C246.308 12.4969 246.484 13.9113 246.484 15.4584Z" fill="white"/>
<path d="M12.999 2.64868C7.39958 3.5428 3.07369 8.30515 2.8584 14.1004H4.86958C5.09605 9.02927 9.09958 4.92398 14.1278 4.53633V3.97692V2.5228V0.561035H12.999V2.64868Z" fill="white"/>
<path d="M2.97925 16.4535C3.87278 22.0529 8.63513 26.3788 14.431 26.5941V24.5829C9.35984 24.3565 5.25454 20.3529 4.8669 15.3247H4.30748H2.85337H0.891602V16.4535H2.97925Z" fill="#3CCB93"/>
<path d="M16.7836 26.4732C22.383 25.5797 26.7089 20.8174 26.9242 15.0215H24.913C24.6866 20.0927 20.683 24.198 15.6548 24.5856V25.145V26.5997V28.5609H16.7836V26.4732Z" fill="white"/>
<path d="M26.8043 12.6689C25.9102 7.0695 21.1478 2.74361 15.3525 2.52832V4.5395C20.4237 4.76597 24.529 8.7695 24.9167 13.7977H25.4761H26.9308H28.892V12.6689H26.8043Z" fill="#3CCB93"/>
<path d="M23.0136 10.1807L22.4895 13.183L21.443 12.3965L16.9371 17.4654C17.0066 17.6142 17.0471 17.7783 17.0471 17.953C17.0471 18.5877 16.5307 19.1042 15.896 19.1042C15.2613 19.1042 14.7448 18.5877 14.7448 17.953C14.7448 17.8742 14.753 17.7971 14.7683 17.723L12.1424 15.8989C11.966 16.0101 11.7577 16.0754 11.5348 16.0754C11.4648 16.0754 11.3966 16.0677 11.3307 16.056L9.17009 18.9607C9.28186 19.1536 9.33597 19.3736 9.32362 19.6007C9.29009 20.2113 8.78597 20.6889 8.17539 20.6889C8.15421 20.6889 8.13303 20.6883 8.11186 20.6877C8.06539 20.6848 8.02127 20.6748 7.97656 20.6665C9.66715 22.5801 12.1377 23.7883 14.8919 23.7883C19.9883 23.7883 24.1189 19.6565 24.1189 14.5613C24.1183 12.976 23.7183 11.4842 23.0136 10.1807Z" fill="#3CCB93"/>
<path d="M22.8169 9.83516C21.2057 7.13928 18.2604 5.33398 14.8916 5.33398C9.79573 5.33398 5.66455 9.46516 5.66455 14.561C5.66455 16.3363 6.16749 17.9946 7.03632 19.4022C7.10514 18.8275 7.58749 18.3875 8.17279 18.3875C8.19396 18.3875 8.21514 18.3881 8.2369 18.3893C8.30632 18.3928 8.37455 18.4034 8.44043 18.4193L10.5722 15.5534C10.454 15.3716 10.384 15.1569 10.384 14.9246C10.384 14.2899 10.9004 13.7734 11.5351 13.7734C12.1698 13.7734 12.6863 14.2905 12.6863 14.9246C12.6863 15.0034 12.6781 15.0799 12.6628 15.1546L15.2887 16.9781C15.4651 16.8675 15.6734 16.8022 15.8969 16.8022C16.024 16.8022 16.1451 16.8246 16.2593 16.8622L20.7146 11.8499L19.7351 11.114L22.8169 9.83516ZM9.03867 17.0569L8.29337 18.0587C8.27985 18.0575 8.26749 18.0569 8.25455 18.0563C8.22573 18.0552 8.19926 18.054 8.17337 18.054C7.69396 18.054 7.26279 18.2857 6.99161 18.6481C6.97455 18.6146 6.95749 18.5816 6.94102 18.5481V12.6093H9.03867V17.0569ZM12.1075 13.5546C11.9316 13.481 11.7381 13.4399 11.5357 13.4399C10.7175 13.4399 10.0516 14.1057 10.0516 14.924C10.0516 15.131 10.0951 15.3352 10.1793 15.524L10.0093 15.7522V10.1805H12.1075V13.5546ZM15.1757 16.4934L15.014 16.381L13.0781 15.0363V8.63045H15.1757V16.4934ZM18.244 14.1275L16.2269 16.3969L16.1463 16.4875V6.73398H18.244V14.1275Z" fill="white"/>
</svg>
