<svg width="210" height="43" viewBox="0 0 210 43" fill="none" xmlns="http://www.w3.org/2000/svg">
<rect width="210" height="43" rx="5" fill="#3CCB93"/>
<path d="M69.5859 17.1406L66.1875 27H64.1328L68.4141 15.625H69.7266L69.5859 17.1406ZM72.4297 27L69.0234 17.1406L68.875 15.625H70.1953L74.4922 27H72.4297ZM72.2656 22.7812V24.3359H66.0781V22.7812H72.2656ZM80.7344 25.25V15H82.625V27H80.9141L80.7344 25.25ZM75.2344 22.8672V22.7031C75.2344 22.0625 75.3099 21.4792 75.4609 20.9531C75.612 20.4219 75.8307 19.9661 76.1172 19.5859C76.4036 19.2005 76.7526 18.9062 77.1641 18.7031C77.5755 18.4948 78.0391 18.3906 78.5547 18.3906C79.0651 18.3906 79.513 18.4896 79.8984 18.6875C80.2839 18.8854 80.612 19.1693 80.8828 19.5391C81.1536 19.9036 81.3698 20.3411 81.5312 20.8516C81.6927 21.3568 81.8073 21.9193 81.875 22.5391V23.0625C81.8073 23.6667 81.6927 24.2188 81.5312 24.7188C81.3698 25.2188 81.1536 25.651 80.8828 26.0156C80.612 26.3802 80.2812 26.6615 79.8906 26.8594C79.5052 27.0573 79.0547 27.1562 78.5391 27.1562C78.0286 27.1562 77.5677 27.0495 77.1562 26.8359C76.75 26.6224 76.4036 26.3229 76.1172 25.9375C75.8307 25.5521 75.612 25.099 75.4609 24.5781C75.3099 24.0521 75.2344 23.4818 75.2344 22.8672ZM77.1172 22.7031V22.8672C77.1172 23.2526 77.151 23.612 77.2188 23.9453C77.2917 24.2786 77.4036 24.5729 77.5547 24.8281C77.7057 25.0781 77.901 25.276 78.1406 25.4219C78.3854 25.5625 78.6771 25.6328 79.0156 25.6328C79.4427 25.6328 79.7943 25.5391 80.0703 25.3516C80.3464 25.1641 80.5625 24.9115 80.7188 24.5938C80.8802 24.2708 80.9896 23.9115 81.0469 23.5156V22.1016C81.0156 21.7943 80.9505 21.5078 80.8516 21.2422C80.7578 20.9766 80.6302 20.7448 80.4688 20.5469C80.3073 20.3438 80.1068 20.1875 79.8672 20.0781C79.6328 19.9635 79.3542 19.9062 79.0312 19.9062C78.6875 19.9062 78.3958 19.9792 78.1562 20.125C77.9167 20.2708 77.7188 20.4714 77.5625 20.7266C77.4115 20.9818 77.2995 21.2786 77.2266 21.6172C77.1536 21.9557 77.1172 22.3177 77.1172 22.7031ZM89.75 25.25V15H91.6406V27H89.9297L89.75 25.25ZM84.25 22.8672V22.7031C84.25 22.0625 84.3255 21.4792 84.4766 20.9531C84.6276 20.4219 84.8464 19.9661 85.1328 19.5859C85.4193 19.2005 85.7682 18.9062 86.1797 18.7031C86.5911 18.4948 87.0547 18.3906 87.5703 18.3906C88.0807 18.3906 88.5286 18.4896 88.9141 18.6875C89.2995 18.8854 89.6276 19.1693 89.8984 19.5391C90.1693 19.9036 90.3854 20.3411 90.5469 20.8516C90.7083 21.3568 90.8229 21.9193 90.8906 22.5391V23.0625C90.8229 23.6667 90.7083 24.2188 90.5469 24.7188C90.3854 25.2188 90.1693 25.651 89.8984 26.0156C89.6276 26.3802 89.2969 26.6615 88.9062 26.8594C88.5208 27.0573 88.0703 27.1562 87.5547 27.1562C87.0443 27.1562 86.5833 27.0495 86.1719 26.8359C85.7656 26.6224 85.4193 26.3229 85.1328 25.9375C84.8464 25.5521 84.6276 25.099 84.4766 24.5781C84.3255 24.0521 84.25 23.4818 84.25 22.8672ZM86.1328 22.7031V22.8672C86.1328 23.2526 86.1667 23.612 86.2344 23.9453C86.3073 24.2786 86.4193 24.5729 86.5703 24.8281C86.7214 25.0781 86.9167 25.276 87.1562 25.4219C87.401 25.5625 87.6927 25.6328 88.0312 25.6328C88.4583 25.6328 88.8099 25.5391 89.0859 25.3516C89.362 25.1641 89.5781 24.9115 89.7344 24.5938C89.8958 24.2708 90.0052 23.9115 90.0625 23.5156V22.1016C90.0312 21.7943 89.9661 21.5078 89.8672 21.2422C89.7734 20.9766 89.6458 20.7448 89.4844 20.5469C89.3229 20.3438 89.1224 20.1875 88.8828 20.0781C88.6484 19.9635 88.3698 19.9062 88.0469 19.9062C87.7031 19.9062 87.4115 19.9792 87.1719 20.125C86.9323 20.2708 86.7344 20.4714 86.5781 20.7266C86.4271 20.9818 86.3151 21.2786 86.2422 21.6172C86.1693 21.9557 86.1328 22.3177 86.1328 22.7031ZM105.227 25.4453V27H99.1875V25.4453H105.227ZM99.7422 15.625V27H97.7812V15.625H99.7422ZM104.438 20.375V21.9062H99.1875V20.375H104.438ZM105.188 15.625V17.1875H99.1875V15.625H105.188ZM108.523 20.2656V27H106.641V18.5469H108.414L108.523 20.2656ZM108.219 22.4609L107.578 22.4531C107.578 21.8698 107.651 21.3307 107.797 20.8359C107.943 20.3411 108.156 19.9115 108.438 19.5469C108.719 19.1771 109.068 18.8932 109.484 18.6953C109.906 18.4922 110.393 18.3906 110.945 18.3906C111.331 18.3906 111.682 18.4479 112 18.5625C112.323 18.6719 112.602 18.8464 112.836 19.0859C113.076 19.3255 113.258 19.6328 113.383 20.0078C113.513 20.3828 113.578 20.8359 113.578 21.3672V27H111.695V21.5312C111.695 21.1198 111.633 20.7969 111.508 20.5625C111.388 20.3281 111.214 20.1615 110.984 20.0625C110.76 19.9583 110.492 19.9062 110.18 19.9062C109.826 19.9062 109.523 19.974 109.273 20.1094C109.029 20.2448 108.828 20.4297 108.672 20.6641C108.516 20.8984 108.401 21.1693 108.328 21.4766C108.255 21.7839 108.219 22.112 108.219 22.4609ZM113.461 21.9609L112.578 22.1562C112.578 21.6458 112.648 21.1641 112.789 20.7109C112.935 20.2526 113.146 19.8516 113.422 19.5078C113.703 19.1589 114.049 18.8854 114.461 18.6875C114.872 18.4896 115.344 18.3906 115.875 18.3906C116.307 18.3906 116.693 18.4505 117.031 18.5703C117.375 18.6849 117.667 18.8672 117.906 19.1172C118.146 19.3672 118.328 19.6927 118.453 20.0938C118.578 20.4896 118.641 20.9688 118.641 21.5312V27H116.75V21.5234C116.75 21.0964 116.688 20.7656 116.562 20.5312C116.443 20.2969 116.271 20.1354 116.047 20.0469C115.823 19.9531 115.555 19.9062 115.242 19.9062C114.951 19.9062 114.693 19.9609 114.469 20.0703C114.25 20.1745 114.065 20.3229 113.914 20.5156C113.763 20.7031 113.648 20.9193 113.57 21.1641C113.497 21.4089 113.461 21.6745 113.461 21.9609ZM122.469 20.1719V30.25H120.586V18.5469H122.32L122.469 20.1719ZM127.977 22.6953V22.8594C127.977 23.474 127.904 24.0443 127.758 24.5703C127.617 25.0911 127.406 25.5469 127.125 25.9375C126.849 26.3229 126.508 26.6224 126.102 26.8359C125.695 27.0495 125.227 27.1562 124.695 27.1562C124.169 27.1562 123.708 27.0599 123.312 26.8672C122.922 26.6693 122.591 26.3906 122.32 26.0312C122.049 25.6719 121.831 25.25 121.664 24.7656C121.503 24.276 121.388 23.7396 121.32 23.1562V22.5234C121.388 21.9036 121.503 21.3411 121.664 20.8359C121.831 20.3307 122.049 19.8958 122.32 19.5312C122.591 19.1667 122.922 18.8854 123.312 18.6875C123.703 18.4896 124.159 18.3906 124.68 18.3906C125.211 18.3906 125.682 18.4948 126.094 18.7031C126.505 18.9062 126.852 19.1979 127.133 19.5781C127.414 19.9531 127.625 20.4062 127.766 20.9375C127.906 21.4635 127.977 22.0495 127.977 22.6953ZM126.094 22.8594V22.6953C126.094 22.3047 126.057 21.9427 125.984 21.6094C125.911 21.2708 125.797 20.974 125.641 20.7188C125.484 20.4635 125.284 20.2656 125.039 20.125C124.799 19.9792 124.51 19.9062 124.172 19.9062C123.839 19.9062 123.552 19.9635 123.312 20.0781C123.073 20.1875 122.872 20.3411 122.711 20.5391C122.549 20.737 122.424 20.9688 122.336 21.2344C122.247 21.4948 122.185 21.7786 122.148 22.0859V23.6016C122.211 23.9766 122.318 24.3203 122.469 24.6328C122.62 24.9453 122.833 25.1953 123.109 25.3828C123.391 25.5651 123.75 25.6562 124.188 25.6562C124.526 25.6562 124.815 25.5833 125.055 25.4375C125.294 25.2917 125.49 25.0911 125.641 24.8359C125.797 24.5755 125.911 24.276 125.984 23.9375C126.057 23.599 126.094 23.2396 126.094 22.8594ZM131.594 15V27H129.703V15H131.594ZM133.297 22.8672V22.6875C133.297 22.0781 133.385 21.513 133.562 20.9922C133.74 20.4661 133.995 20.0104 134.328 19.625C134.667 19.2344 135.078 18.9323 135.562 18.7188C136.052 18.5 136.604 18.3906 137.219 18.3906C137.839 18.3906 138.391 18.5 138.875 18.7188C139.365 18.9323 139.779 19.2344 140.117 19.625C140.456 20.0104 140.714 20.4661 140.891 20.9922C141.068 21.513 141.156 22.0781 141.156 22.6875V22.8672C141.156 23.4766 141.068 24.0417 140.891 24.5625C140.714 25.0833 140.456 25.5391 140.117 25.9297C139.779 26.3151 139.367 26.6172 138.883 26.8359C138.398 27.0495 137.849 27.1562 137.234 27.1562C136.615 27.1562 136.06 27.0495 135.57 26.8359C135.086 26.6172 134.674 26.3151 134.336 25.9297C133.997 25.5391 133.74 25.0833 133.562 24.5625C133.385 24.0417 133.297 23.4766 133.297 22.8672ZM135.18 22.6875V22.8672C135.18 23.2474 135.219 23.6068 135.297 23.9453C135.375 24.2839 135.497 24.5807 135.664 24.8359C135.831 25.0911 136.044 25.2917 136.305 25.4375C136.565 25.5833 136.875 25.6562 137.234 25.6562C137.583 25.6562 137.885 25.5833 138.141 25.4375C138.401 25.2917 138.615 25.0911 138.781 24.8359C138.948 24.5807 139.07 24.2839 139.148 23.9453C139.232 23.6068 139.273 23.2474 139.273 22.8672V22.6875C139.273 22.3125 139.232 21.9583 139.148 21.625C139.07 21.2865 138.945 20.987 138.773 20.7266C138.607 20.4661 138.393 20.263 138.133 20.1172C137.878 19.9661 137.573 19.8906 137.219 19.8906C136.865 19.8906 136.557 19.9661 136.297 20.1172C136.042 20.263 135.831 20.4661 135.664 20.7266C135.497 20.987 135.375 21.2865 135.297 21.625C135.219 21.9583 135.18 22.3125 135.18 22.6875ZM145.062 26.0781L147.359 18.5469H149.375L145.984 28.2891C145.906 28.4974 145.805 28.724 145.68 28.9688C145.555 29.2135 145.391 29.4453 145.188 29.6641C144.99 29.888 144.742 30.0677 144.445 30.2031C144.148 30.3438 143.789 30.4141 143.367 30.4141C143.201 30.4141 143.039 30.3984 142.883 30.3672C142.732 30.3411 142.589 30.3125 142.453 30.2812L142.445 28.8438C142.497 28.849 142.56 28.8542 142.633 28.8594C142.711 28.8646 142.773 28.8672 142.82 28.8672C143.133 28.8672 143.393 28.8281 143.602 28.75C143.81 28.6771 143.979 28.5573 144.109 28.3906C144.245 28.224 144.359 28 144.453 27.7188L145.062 26.0781ZM143.766 18.5469L145.773 24.875L146.109 26.8594L144.805 27.1953L141.734 18.5469H143.766ZM154.07 27.1562C153.445 27.1562 152.88 27.0547 152.375 26.8516C151.875 26.6432 151.448 26.3542 151.094 25.9844C150.745 25.6146 150.477 25.1797 150.289 24.6797C150.102 24.1797 150.008 23.6406 150.008 23.0625V22.75C150.008 22.0885 150.104 21.4896 150.297 20.9531C150.49 20.4167 150.758 19.9583 151.102 19.5781C151.445 19.1927 151.852 18.8984 152.32 18.6953C152.789 18.4922 153.297 18.3906 153.844 18.3906C154.448 18.3906 154.977 18.4922 155.43 18.6953C155.883 18.8984 156.258 19.1849 156.555 19.5547C156.857 19.9193 157.081 20.3542 157.227 20.8594C157.378 21.3646 157.453 21.9219 157.453 22.5312V23.3359H150.922V21.9844H155.594V21.8359C155.583 21.4974 155.516 21.1797 155.391 20.8828C155.271 20.5859 155.086 20.3464 154.836 20.1641C154.586 19.9818 154.253 19.8906 153.836 19.8906C153.523 19.8906 153.245 19.9583 153 20.0938C152.76 20.224 152.56 20.4141 152.398 20.6641C152.237 20.9141 152.112 21.2161 152.023 21.5703C151.94 21.9193 151.898 22.3125 151.898 22.75V23.0625C151.898 23.4323 151.948 23.776 152.047 24.0938C152.151 24.4062 152.302 24.6797 152.5 24.9141C152.698 25.1484 152.938 25.3333 153.219 25.4688C153.5 25.599 153.82 25.6641 154.18 25.6641C154.633 25.6641 155.036 25.5729 155.391 25.3906C155.745 25.2083 156.052 24.9505 156.312 24.6172L157.305 25.5781C157.122 25.8438 156.885 26.099 156.594 26.3438C156.302 26.5833 155.945 26.7786 155.523 26.9297C155.107 27.0807 154.622 27.1562 154.07 27.1562ZM162.648 27.1562C162.023 27.1562 161.458 27.0547 160.953 26.8516C160.453 26.6432 160.026 26.3542 159.672 25.9844C159.323 25.6146 159.055 25.1797 158.867 24.6797C158.68 24.1797 158.586 23.6406 158.586 23.0625V22.75C158.586 22.0885 158.682 21.4896 158.875 20.9531C159.068 20.4167 159.336 19.9583 159.68 19.5781C160.023 19.1927 160.43 18.8984 160.898 18.6953C161.367 18.4922 161.875 18.3906 162.422 18.3906C163.026 18.3906 163.555 18.4922 164.008 18.6953C164.461 18.8984 164.836 19.1849 165.133 19.5547C165.435 19.9193 165.659 20.3542 165.805 20.8594C165.956 21.3646 166.031 21.9219 166.031 22.5312V23.3359H159.5V21.9844H164.172V21.8359C164.161 21.4974 164.094 21.1797 163.969 20.8828C163.849 20.5859 163.664 20.3464 163.414 20.1641C163.164 19.9818 162.831 19.8906 162.414 19.8906C162.102 19.8906 161.823 19.9583 161.578 20.0938C161.339 20.224 161.138 20.4141 160.977 20.6641C160.815 20.9141 160.69 21.2161 160.602 21.5703C160.518 21.9193 160.477 22.3125 160.477 22.75V23.0625C160.477 23.4323 160.526 23.776 160.625 24.0938C160.729 24.4062 160.88 24.6797 161.078 24.9141C161.276 25.1484 161.516 25.3333 161.797 25.4688C162.078 25.599 162.398 25.6641 162.758 25.6641C163.211 25.6641 163.615 25.5729 163.969 25.3906C164.323 25.2083 164.63 24.9505 164.891 24.6172L165.883 25.5781C165.701 25.8438 165.464 26.099 165.172 26.3438C164.88 26.5833 164.523 26.7786 164.102 26.9297C163.685 27.0807 163.201 27.1562 162.648 27.1562ZM172.242 24.7109C172.242 24.5234 172.195 24.3542 172.102 24.2031C172.008 24.0469 171.828 23.9062 171.562 23.7812C171.302 23.6562 170.917 23.5417 170.406 23.4375C169.958 23.3385 169.547 23.2214 169.172 23.0859C168.802 22.9453 168.484 22.776 168.219 22.5781C167.953 22.3802 167.747 22.1458 167.602 21.875C167.456 21.6042 167.383 21.2917 167.383 20.9375C167.383 20.5938 167.458 20.2682 167.609 19.9609C167.76 19.6536 167.977 19.3828 168.258 19.1484C168.539 18.9141 168.88 18.7292 169.281 18.5938C169.688 18.4583 170.141 18.3906 170.641 18.3906C171.349 18.3906 171.956 18.5104 172.461 18.75C172.971 18.9844 173.362 19.3047 173.633 19.7109C173.904 20.112 174.039 20.5651 174.039 21.0703H172.156C172.156 20.8464 172.099 20.638 171.984 20.4453C171.875 20.2474 171.708 20.0885 171.484 19.9688C171.26 19.8438 170.979 19.7812 170.641 19.7812C170.318 19.7812 170.049 19.8333 169.836 19.9375C169.628 20.0365 169.471 20.1667 169.367 20.3281C169.268 20.4896 169.219 20.6667 169.219 20.8594C169.219 21 169.245 21.1276 169.297 21.2422C169.354 21.3516 169.448 21.4531 169.578 21.5469C169.708 21.6354 169.885 21.7188 170.109 21.7969C170.339 21.875 170.625 21.9505 170.969 22.0234C171.615 22.1589 172.169 22.3333 172.633 22.5469C173.102 22.7552 173.461 23.026 173.711 23.3594C173.961 23.6875 174.086 24.1042 174.086 24.6094C174.086 24.9844 174.005 25.3281 173.844 25.6406C173.688 25.9479 173.458 26.2161 173.156 26.4453C172.854 26.6693 172.492 26.8438 172.07 26.9688C171.654 27.0938 171.185 27.1562 170.664 27.1562C169.898 27.1562 169.25 27.0208 168.719 26.75C168.188 26.474 167.784 26.1224 167.508 25.6953C167.237 25.263 167.102 24.8151 167.102 24.3516H168.922C168.943 24.7005 169.039 24.9792 169.211 25.1875C169.388 25.3906 169.607 25.5391 169.867 25.6328C170.133 25.7214 170.406 25.7656 170.688 25.7656C171.026 25.7656 171.31 25.7214 171.539 25.6328C171.768 25.5391 171.943 25.4141 172.062 25.2578C172.182 25.0964 172.242 24.9141 172.242 24.7109Z" fill="white"/>
<circle cx="40" cy="22" r="10" fill="white"/>
<path d="M35.334 22.0001H44.6676" stroke="#3CCB93" stroke-width="2.91674" stroke-miterlimit="10" stroke-linecap="round"/>
<path d="M40 17.3334V26.6669" stroke="#3CCB93" stroke-width="2.91674" stroke-miterlimit="10" stroke-linecap="round"/>
</svg>
