<svg width="272" height="56" viewBox="0 0 272 56" fill="none" xmlns="http://www.w3.org/2000/svg">
<rect x="1" y="1" width="270" height="54" rx="9" fill="#3CCB93" stroke="#3CCB93" stroke-width="2"/>
<path d="M63.8738 29.0318H59.7743L59.7522 27.0096H63.3324C63.9364 27.0096 64.4484 26.9212 64.8683 26.7444C65.2956 26.5602 65.6197 26.2987 65.8407 25.9599C66.0617 25.6136 66.1722 25.1974 66.1722 24.7112C66.1722 24.1734 66.0691 23.7351 65.8628 23.3962C65.6566 23.0574 65.3398 22.8106 64.9125 22.6559C64.4926 22.5012 63.9549 22.4238 63.2992 22.4238H60.6141V36.3027H57.8405V20.2138H63.2992C64.1832 20.2138 64.9715 20.2985 65.6639 20.468C66.3638 20.6374 66.9568 20.9026 67.443 21.2636C67.9366 21.6172 68.3086 22.0666 68.5591 22.6117C68.8169 23.1568 68.9458 23.8051 68.9458 24.5565C68.9458 25.2195 68.7874 25.8273 68.4707 26.3798C68.1539 26.9249 67.6861 27.3706 67.0673 27.7168C66.4485 28.0631 65.6787 28.2693 64.7578 28.3356L63.8738 29.0318ZM63.7523 36.3027H58.9013L60.15 34.1038H63.7523C64.3785 34.1038 64.9015 34.0006 65.3214 33.7944C65.7413 33.5807 66.0544 33.2897 66.2606 32.9214C66.4743 32.5457 66.5811 32.1074 66.5811 31.6065C66.5811 31.0834 66.489 30.6304 66.3048 30.2473C66.1207 29.8569 65.8297 29.5585 65.4319 29.3522C65.0341 29.1386 64.5147 29.0318 63.8738 29.0318H60.7577L60.7798 27.0096H64.8352L65.465 27.7721C66.349 27.8015 67.0747 27.9968 67.6419 28.3577C68.2165 28.7187 68.6438 29.1865 68.9237 29.7611C69.2037 30.3357 69.3436 30.9545 69.3436 31.6175C69.3436 32.6415 69.1189 33.4997 68.6696 34.1922C68.2276 34.8846 67.5903 35.4114 66.7579 35.7723C65.9255 36.1259 64.9236 36.3027 63.7523 36.3027ZM78.6146 33.9049V28.203C78.6146 27.7758 78.5373 27.4074 78.3826 27.098C78.2279 26.7886 77.9921 26.5492 77.6754 26.3798C77.366 26.2103 76.9755 26.1256 76.5041 26.1256C76.0694 26.1256 75.6937 26.1993 75.377 26.3466C75.0602 26.4939 74.8134 26.6929 74.6366 26.9433C74.4598 27.1938 74.3714 27.4774 74.3714 27.7942H71.7194C71.7194 27.3227 71.8336 26.866 72.0619 26.424C72.2903 25.982 72.6218 25.5878 73.0564 25.2416C73.4911 24.8954 74.0104 24.6228 74.6145 24.4239C75.2186 24.225 75.8963 24.1255 76.6477 24.1255C77.5465 24.1255 78.3421 24.2766 79.0345 24.5786C79.7344 24.8806 80.2832 25.3374 80.681 25.9488C81.0862 26.5529 81.2888 27.3117 81.2888 28.2251V33.5402C81.2888 34.0854 81.3256 34.5752 81.3993 35.0099C81.4803 35.4371 81.5945 35.8092 81.7418 36.1259V36.3027H79.0124C78.8872 36.0154 78.7878 35.6508 78.7141 35.2088C78.6478 34.7594 78.6146 34.3248 78.6146 33.9049ZM79.0014 29.0318L79.0235 30.6782H77.1118C76.6183 30.6782 76.1836 30.7261 75.8079 30.8219C75.4322 30.9103 75.1191 31.0429 74.8687 31.2197C74.6182 31.3965 74.4303 31.6101 74.3051 31.8606C74.1799 32.1111 74.1173 32.3947 74.1173 32.7115C74.1173 33.0282 74.1909 33.3192 74.3383 33.5844C74.4856 33.8423 74.6992 34.0448 74.9792 34.1922C75.2665 34.3395 75.6127 34.4132 76.0179 34.4132C76.563 34.4132 77.0382 34.3027 77.4433 34.0817C77.8559 33.8533 78.18 33.577 78.4157 33.2529C78.6515 32.9214 78.7767 32.6083 78.7914 32.3137L79.6533 33.496C79.5649 33.7981 79.4139 34.1222 79.2003 34.4684C78.9867 34.8147 78.7067 35.1462 78.3605 35.4629C78.0216 35.7723 77.6128 36.0265 77.1339 36.2254C76.6625 36.4243 76.1173 36.5237 75.4985 36.5237C74.7176 36.5237 74.0215 36.369 73.41 36.0596C72.7986 35.7429 72.3198 35.3193 71.9735 34.7889C71.6273 34.2511 71.4542 33.6433 71.4542 32.9656C71.4542 32.3321 71.5721 31.7722 71.8078 31.286C72.0509 30.7924 72.4045 30.3799 72.8686 30.0484C73.3401 29.7169 73.9147 29.4664 74.5924 29.297C75.2701 29.1202 76.0436 29.0318 76.9129 29.0318H79.0014ZM86.7143 26.8991V36.3027H84.0513V24.3466H86.5596L86.7143 26.8991ZM86.2392 29.8826L85.3773 29.8716C85.3846 29.0244 85.5025 28.2472 85.7309 27.54C85.9666 26.8328 86.2908 26.2251 86.7033 25.7168C87.1232 25.2085 87.6241 24.818 88.2061 24.5455C88.7881 24.2655 89.4363 24.1255 90.1509 24.1255C90.7255 24.1255 91.2449 24.2066 91.709 24.3687C92.1804 24.5234 92.5819 24.7775 92.9134 25.1311C93.2523 25.4847 93.5101 25.9451 93.6869 26.5124C93.8637 27.0722 93.9521 27.761 93.9521 28.5787V36.3027H91.278V28.5677C91.278 27.9931 91.1933 27.54 91.0239 27.2085C90.8618 26.8697 90.6224 26.6302 90.3056 26.4903C89.9962 26.3429 89.6095 26.2693 89.1454 26.2693C88.6886 26.2693 88.2798 26.365 87.9188 26.5566C87.5578 26.7481 87.2521 27.0096 87.0016 27.3411C86.7585 27.6726 86.5707 28.0557 86.4381 28.4903C86.3055 28.925 86.2392 29.3891 86.2392 29.8826ZM99.3556 19.3298V36.3027H96.6815V19.3298H99.3556ZM106.781 24.3466L101.577 30.1147L98.7258 33.0319L98.0296 30.7777L100.184 28.1146L103.566 24.3466H106.781ZM104.14 36.3027L100.262 30.6893L101.941 28.8218L107.223 36.3027H104.14ZM111.323 24.3466V36.3027H108.649V24.3466H111.323ZM108.472 21.2083C108.472 20.8032 108.605 20.468 108.87 20.2028C109.142 19.9302 109.518 19.7939 109.997 19.7939C110.468 19.7939 110.84 19.9302 111.113 20.2028C111.385 20.468 111.522 20.8032 111.522 21.2083C111.522 21.6061 111.385 21.9376 111.113 22.2028C110.84 22.468 110.468 22.6006 109.997 22.6006C109.518 22.6006 109.142 22.468 108.87 22.2028C108.605 21.9376 108.472 21.6061 108.472 21.2083ZM116.881 26.8991V36.3027H114.218V24.3466H116.726L116.881 26.8991ZM116.406 29.8826L115.544 29.8716C115.551 29.0244 115.669 28.2472 115.898 27.54C116.133 26.8328 116.457 26.2251 116.87 25.7168C117.29 25.2085 117.791 24.818 118.373 24.5455C118.955 24.2655 119.603 24.1255 120.318 24.1255C120.892 24.1255 121.412 24.2066 121.876 24.3687C122.347 24.5234 122.749 24.7775 123.08 25.1311C123.419 25.4847 123.677 25.9451 123.854 26.5124C124.03 27.0722 124.119 27.761 124.119 28.5787V36.3027H121.445V28.5677C121.445 27.9931 121.36 27.54 121.191 27.2085C121.029 26.8697 120.789 26.6302 120.472 26.4903C120.163 26.3429 119.776 26.2693 119.312 26.2693C118.855 26.2693 118.446 26.365 118.086 26.5566C117.725 26.7481 117.419 27.0096 117.168 27.3411C116.925 27.6726 116.737 28.0557 116.605 28.4903C116.472 28.925 116.406 29.3891 116.406 29.8826ZM134.495 24.3466H136.915V35.9712C136.915 37.0468 136.686 37.9602 136.23 38.7117C135.773 39.4631 135.136 40.034 134.318 40.4244C133.5 40.8222 132.554 41.0211 131.478 41.0211C131.021 41.0211 130.513 40.9548 129.953 40.8222C129.401 40.6896 128.863 40.476 128.34 40.1813C127.824 39.894 127.393 39.5146 127.047 39.0432L128.296 37.474C128.723 37.9823 129.195 38.3544 129.71 38.5901C130.226 38.8258 130.767 38.9437 131.335 38.9437C131.946 38.9437 132.465 38.8295 132.893 38.6012C133.327 38.3801 133.662 38.0523 133.898 37.6177C134.134 37.1831 134.252 36.6527 134.252 36.0265V27.0538L134.495 24.3466ZM126.373 30.4572V30.2252C126.373 29.3191 126.484 28.494 126.705 27.75C126.926 26.9986 127.242 26.354 127.655 25.8162C128.067 25.2711 128.568 24.8549 129.158 24.5676C129.747 24.2729 130.414 24.1255 131.158 24.1255C131.931 24.1255 132.591 24.2655 133.136 24.5455C133.688 24.8254 134.149 25.2269 134.517 25.7499C134.885 26.2656 135.173 26.8844 135.379 27.6063C135.593 28.3209 135.751 29.1165 135.854 29.9931V30.7335C135.758 31.588 135.596 32.3689 135.368 33.0761C135.139 33.7833 134.837 34.3948 134.462 34.9104C134.086 35.4261 133.622 35.8239 133.069 36.1038C132.524 36.3838 131.88 36.5237 131.136 36.5237C130.406 36.5237 129.747 36.3727 129.158 36.0707C128.576 35.7686 128.075 35.3451 127.655 34.7999C127.242 34.2548 126.926 33.6139 126.705 32.8772C126.484 32.1332 126.373 31.3265 126.373 30.4572ZM129.036 30.2252V30.4572C129.036 31.0024 129.088 31.5107 129.191 31.9822C129.301 32.4536 129.467 32.8698 129.688 33.2308C129.916 33.5844 130.204 33.8644 130.55 34.0706C130.904 34.2695 131.32 34.369 131.799 34.369C132.425 34.369 132.937 34.2364 133.335 33.9712C133.74 33.706 134.049 33.3487 134.263 32.8993C134.484 32.4426 134.639 31.9343 134.727 31.3744V29.3743C134.683 28.9397 134.591 28.5345 134.451 28.1588C134.318 27.7831 134.138 27.4553 133.909 27.1754C133.681 26.8881 133.394 26.6671 133.047 26.5124C132.701 26.3503 132.292 26.2693 131.821 26.2693C131.342 26.2693 130.926 26.3724 130.572 26.5787C130.218 26.7849 129.928 27.0686 129.699 27.4295C129.478 27.7905 129.312 28.2104 129.202 28.6892C129.091 29.1681 129.036 29.6801 129.036 30.2252Z" fill="white"/>
<path d="M33.0621 30.6402C33.0621 33.9809 33.058 37.3223 33.0696 40.663C33.0704 40.942 32.9982 41.0001 32.7292 40.9993C29.6891 40.9885 26.6491 40.9926 23.609 40.9926C22.4008 40.9926 21.7465 40.3366 21.7465 39.1259C21.7457 32.9421 21.7481 26.7582 21.739 20.5743C21.739 20.2961 21.8088 20.2305 22.0811 20.2347C23.1498 20.2521 24.2185 20.2505 25.2872 20.2355C25.5413 20.2322 25.5903 20.3136 25.587 20.5477C25.5729 21.3773 25.5812 22.2077 25.582 23.0381C25.582 23.4192 25.7265 23.6227 25.9889 23.6152C26.2488 23.6077 26.3842 23.4051 26.3842 23.0198C26.385 22.1795 26.3908 21.3391 26.38 20.4988C26.3775 20.2978 26.4274 20.2322 26.6358 20.238C27.2162 20.2521 27.7983 20.2513 28.3788 20.2388C28.5797 20.2347 28.6412 20.2878 28.6378 20.4963C28.6254 21.3574 28.632 22.2185 28.6329 23.0796C28.6337 23.4184 28.7707 23.6061 29.0173 23.6144C29.2756 23.6235 29.4334 23.4234 29.4342 23.0729C29.4367 22.2426 29.445 21.413 29.4292 20.5826C29.4242 20.3252 29.4666 20.228 29.7589 20.2347C30.7545 20.2571 31.751 20.253 32.7466 20.2364C33.0048 20.2322 33.0704 20.2953 33.0696 20.5569C33.0588 23.9166 33.0621 27.278 33.0621 30.6402ZM24.3904 32.3442C24.3904 33.3299 24.3871 34.3155 24.3913 35.3012C24.3946 36.0178 24.8347 36.5277 25.5447 36.5434C26.8509 36.5717 28.1595 36.5725 29.4657 36.5434C30.1707 36.5277 30.6225 36.007 30.6241 35.2987C30.6274 33.3481 30.6274 31.3975 30.6241 29.4461C30.6233 28.6872 30.1151 28.1806 29.3545 28.1781C28.1197 28.174 26.8849 28.174 25.6501 28.1781C24.8837 28.1806 24.3929 28.6772 24.3904 29.4486C24.3879 30.4144 24.3904 31.3793 24.3904 32.3442Z" fill="white"/>
<path d="M30.4332 15.2406C34.4913 15.2406 38.5486 15.2398 42.6067 15.2414C43.7352 15.2423 44.5639 15.8651 44.7939 16.8906C44.8363 17.0799 44.8396 17.2817 44.8396 17.4777C44.8429 19.0554 44.8437 20.6323 44.8412 22.21C44.8387 23.5735 43.9677 24.4371 42.6009 24.4388C41.7912 24.4396 40.9816 24.433 40.1728 24.4429C39.9827 24.4454 39.9262 24.3948 39.9279 24.2013C39.9362 22.9557 39.9353 21.711 39.9287 20.4654C39.9279 20.2844 39.9868 20.2321 40.1604 20.2395C40.4402 20.2512 40.7209 20.2453 41.0007 20.242C41.259 20.2387 41.4483 20.1382 41.4666 19.8517C41.4823 19.5976 41.3088 19.4498 40.9907 19.4473C40.3264 19.4424 39.6621 19.4457 38.9978 19.4457C32.7085 19.4457 26.42 19.4457 20.1307 19.4457C20.0169 19.4457 19.9015 19.4415 19.7885 19.4515C19.5585 19.4723 19.4265 19.6043 19.4215 19.8343C19.4165 20.0668 19.5502 20.213 19.7761 20.2287C20.0858 20.2503 20.398 20.2503 20.7094 20.2387C20.8946 20.2321 20.961 20.2794 20.9594 20.4787C20.9502 21.7243 20.9519 22.969 20.9585 24.2146C20.9594 24.3898 20.9104 24.4438 20.7319 24.4421C19.85 24.433 18.9673 24.4496 18.0854 24.4346C16.9661 24.4155 16.0643 23.532 16.0526 22.4143C16.0335 20.7021 16.0335 18.9898 16.0518 17.2775C16.0643 16.11 16.9835 15.2506 18.2 15.2431C19.8292 15.234 21.4584 15.2406 23.0877 15.2406C25.5348 15.2398 27.9836 15.2406 30.4332 15.2406Z" fill="white"/>
<path d="M33.8666 30.6383C33.8666 27.2761 33.87 23.9138 33.86 20.5516C33.8592 20.2859 33.9314 20.2328 34.1847 20.2344C35.7308 20.2469 37.277 20.2444 38.8232 20.2369C39.0457 20.2361 39.1454 20.2618 39.1454 20.5317C39.1363 26.7579 39.1396 32.985 39.1371 39.2112C39.1363 40.3148 38.452 40.989 37.3443 40.9915C36.2855 40.994 35.2268 40.9841 34.1689 40.9982C33.9281 41.0015 33.8608 40.9434 33.8608 40.6951C33.8691 37.3428 33.8666 33.9906 33.8666 30.6383Z" fill="white"/>
<path d="M24.3906 32.3441C24.3906 31.3792 24.3881 30.4143 24.3914 29.4494C24.3939 28.678 24.8847 28.1814 25.6511 28.1789C26.8859 28.1747 28.1207 28.1747 29.3555 28.1789C30.1153 28.1814 30.6235 28.6879 30.6251 29.4469C30.6285 31.3975 30.6285 33.348 30.6251 35.2994C30.6235 36.0069 30.1717 36.5284 29.4668 36.5442C28.1606 36.5733 26.8519 36.5724 25.5457 36.5442C24.8357 36.5284 24.3948 36.0186 24.3923 35.3019C24.3873 34.3163 24.3906 33.3298 24.3906 32.3441ZM26.2008 32.3566C26.2008 31.3194 26.2025 30.2823 26.1984 29.2459C26.1984 29.1612 26.2498 29.0525 26.146 28.9918C25.745 28.7593 25.1878 29.0707 25.1878 29.5316C25.1853 31.0661 25.1869 32.6015 25.1869 34.1361C25.1869 34.499 25.1836 34.8618 25.1878 35.2247C25.1928 35.6324 25.3198 35.7537 25.7358 35.7595C25.7981 35.7603 25.8621 35.7503 25.9218 35.7611C26.1668 35.8043 26.2092 35.6906 26.2067 35.4672C26.1942 34.4309 26.2008 33.3937 26.2008 32.3566ZM28.4113 32.9843C28.8049 32.9843 29.1994 32.971 29.5921 32.9893C29.7948 32.9984 29.8363 32.9279 29.8255 32.7443C29.8105 32.4861 29.808 32.2262 29.8263 31.9679C29.8404 31.7686 29.769 31.7288 29.5822 31.7313C28.8058 31.7421 28.0285 31.7404 27.2521 31.7321C27.0744 31.7304 26.9856 31.757 27.0005 31.9638C27.0188 32.232 27.0171 32.5027 27.0013 32.7709C26.9897 32.9586 27.0669 32.9918 27.2322 32.9868C27.6241 32.9777 28.0177 32.9843 28.4113 32.9843ZM28.0111 34.8103C28.0111 34.7273 28.0111 34.6451 28.0111 34.5621C28.0111 33.7674 28.0111 33.7724 27.228 33.784C27.0595 33.7865 26.9905 33.8222 26.9988 34.0049C27.013 34.3354 27.003 34.6667 27.003 34.998C27.003 35.8234 27.003 35.8193 27.835 35.7645C27.9671 35.7562 28.0177 35.7229 28.0136 35.5868C28.0053 35.3285 28.0111 35.0694 28.0111 34.8103ZM28.8157 34.7796C28.8157 34.9457 28.8157 35.1118 28.8157 35.277C28.8157 35.7736 28.8157 35.7736 29.3073 35.7595C29.6893 35.7487 29.8188 35.6142 29.8222 35.223C29.8238 35.0055 29.8222 34.7871 29.8222 34.5695C29.8222 33.7499 29.8222 33.7566 29.0117 33.7823C28.8373 33.7881 28.8066 33.8504 28.8124 34.0007C28.8224 34.2606 28.8157 34.5205 28.8157 34.7796ZM28.0111 29.9675C28.0111 29.8953 28.0111 29.8222 28.0111 29.75C28.0111 28.9387 28.0111 28.9437 27.1882 28.9794C27.0354 28.986 26.9988 29.0309 27.0005 29.1754C27.008 29.7035 27.0072 30.2324 27.0013 30.7614C26.9997 30.8926 27.0362 30.9333 27.1741 30.9424C28.0111 30.9972 28.0111 31.0014 28.0111 30.1851C28.0111 30.112 28.0111 30.0398 28.0111 29.9675ZM28.8157 29.946C28.8224 29.946 28.829 29.946 28.8348 29.946C28.8348 30.2648 28.741 30.6302 28.8689 30.8859C28.9511 31.0504 29.3638 30.9208 29.6278 30.9383C29.6378 30.9391 29.6486 30.9374 29.6586 30.9383C29.7732 30.9524 29.8255 30.9158 29.8238 30.7871C29.8172 30.3113 29.8238 29.8355 29.8172 29.3597C29.8147 29.1737 29.7051 29.0284 29.529 29.0035C29.3073 28.9727 29.0524 28.9362 28.8614 29.0184C28.7352 29.0732 28.8282 29.3398 28.8174 29.5117C28.8083 29.6561 28.8157 29.8015 28.8157 29.946Z" fill="#F9F9F9"/>
<path d="M26.2012 32.3581C26.2012 33.3952 26.1945 34.4324 26.2062 35.4687C26.2086 35.692 26.1663 35.8058 25.9213 35.7626C25.8607 35.7518 25.7968 35.7618 25.7353 35.761C25.3193 35.7543 25.1923 35.6339 25.1873 35.2262C25.1831 34.8633 25.1864 34.5004 25.1864 34.1376C25.1864 32.603 25.1848 31.0676 25.1873 29.5331C25.1881 29.0722 25.7453 28.76 26.1455 28.9933C26.2502 29.054 26.1978 29.1627 26.1978 29.2474C26.2028 30.2846 26.2012 31.3217 26.2012 32.3581Z" fill="#3CCB93"/>
<path d="M28.4116 32.9847C28.018 32.9847 27.6244 32.9773 27.2308 32.9881C27.0656 32.9922 26.9884 32.9598 27 32.7722C27.0158 32.504 27.0182 32.2332 26.9991 31.965C26.985 31.7574 27.0731 31.7309 27.2508 31.7334C28.0272 31.7425 28.8044 31.7433 29.5808 31.7325C29.7677 31.73 29.8391 31.7707 29.8249 31.9692C29.8067 32.2266 29.8092 32.4873 29.8241 32.7456C29.8349 32.9291 29.7934 32.9997 29.5908 32.9906C29.1988 32.9723 28.8052 32.9847 28.4116 32.9847Z" fill="#3CCB93"/>
<path d="M28.0111 34.811C28.0111 35.0692 28.0053 35.3283 28.0136 35.5866C28.0177 35.7227 27.9671 35.756 27.835 35.7643C27.003 35.8191 27.003 35.8232 27.003 34.9978C27.003 34.6665 27.013 34.3352 26.9988 34.0047C26.9914 33.822 27.0595 33.7863 27.228 33.7838C28.0111 33.7722 28.0111 33.7672 28.0111 34.5619C28.0111 34.6457 28.0111 34.7288 28.0111 34.811Z" fill="#3CCB93"/>
<path d="M28.8155 34.7794C28.8155 34.5204 28.8222 34.2605 28.813 34.0014C28.8072 33.8502 28.8379 33.788 29.0123 33.783C29.8228 33.7572 29.8228 33.7506 29.8228 34.5702C29.8228 34.7877 29.8244 35.0061 29.8228 35.2237C29.8195 35.6156 29.6899 35.7493 29.3079 35.7601C28.8163 35.7742 28.8163 35.7742 28.8163 35.2777C28.8155 35.1116 28.8155 34.9455 28.8155 34.7794Z" fill="#3CCB93"/>
<path d="M28.0111 29.9687C28.0111 30.0409 28.0111 30.114 28.0111 30.1863C28.0111 31.0025 28.0111 30.9984 27.174 30.9436C27.0362 30.9344 26.9996 30.8937 27.0013 30.7625C27.0071 30.2344 27.0088 29.7055 27.0005 29.1765C26.998 29.032 27.0354 28.9872 27.1881 28.9805C28.0111 28.9448 28.0111 28.939 28.0111 29.7511C28.0111 29.8234 28.0111 29.8956 28.0111 29.9687Z" fill="#3CCB93"/>
<path d="M28.8157 29.9465C28.8157 29.802 28.8083 29.6567 28.8174 29.5122C28.8282 29.3411 28.7352 29.0738 28.8614 29.0189C29.0524 28.9367 29.3073 28.9733 29.529 29.004C29.7051 29.0289 29.8147 29.1734 29.8172 29.3602C29.8238 29.836 29.8163 30.3119 29.8238 30.7877C29.8255 30.9164 29.7732 30.9529 29.6586 30.9388C29.6486 30.9371 29.6378 30.9396 29.6278 30.9388C29.3638 30.9214 28.9511 31.0509 28.8689 30.8865C28.741 30.6316 28.8348 30.2654 28.8348 29.9465C28.829 29.9465 28.8224 29.9465 28.8157 29.9465Z" fill="#3CCB93"/>
<path d="M245.093 20.3047L243 22.4197L249.799 29.3047L243 36.1897L245.093 38.3047L254 29.3047L245.093 20.3047Z" fill="white"/>
</svg>
