<svg width="36" height="36" viewBox="0 0 36 36" fill="none" xmlns="http://www.w3.org/2000/svg">
<circle cx="18" cy="18" r="17.5" fill="#241F35" stroke="white"/>
<path d="M15.8379 16.8262H17.2441C17.791 16.8262 18.2435 16.7318 18.6016 16.543C18.9661 16.3542 19.2363 16.0938 19.4121 15.7617C19.5879 15.4297 19.6758 15.0488 19.6758 14.6191C19.6758 14.1699 19.5944 13.7858 19.4316 13.4668C19.2754 13.1413 19.0345 12.8906 18.709 12.7148C18.39 12.5391 17.9831 12.4512 17.4883 12.4512C17.0716 12.4512 16.694 12.5358 16.3555 12.7051C16.0234 12.8678 15.7598 13.1022 15.5645 13.4082C15.3691 13.7077 15.2715 14.0658 15.2715 14.4824H12.9082C12.9082 13.7272 13.1068 13.0566 13.5039 12.4707C13.901 11.8848 14.4414 11.4258 15.125 11.0938C15.8151 10.7552 16.5898 10.5859 17.4492 10.5859C18.3672 10.5859 19.168 10.7389 19.8516 11.0449C20.5417 11.3444 21.0788 11.7936 21.4629 12.3926C21.847 12.9915 22.0391 13.7337 22.0391 14.6191C22.0391 15.0228 21.9447 15.4329 21.7559 15.8496C21.5671 16.2663 21.2871 16.6471 20.916 16.9922C20.5449 17.3307 20.0827 17.6074 19.5293 17.8223C18.9759 18.0306 18.3346 18.1348 17.6055 18.1348H15.8379V16.8262ZM15.8379 18.6621V17.373H17.6055C18.4388 17.373 19.1484 17.4707 19.7344 17.666C20.3268 17.8613 20.8086 18.1315 21.1797 18.4766C21.5508 18.8151 21.821 19.2025 21.9902 19.6387C22.166 20.0749 22.2539 20.5371 22.2539 21.0254C22.2539 21.6895 22.1335 22.2819 21.8926 22.8027C21.6582 23.3171 21.3229 23.7533 20.8867 24.1113C20.4505 24.4694 19.9395 24.7396 19.3535 24.9219C18.7741 25.1042 18.1426 25.1953 17.459 25.1953C16.847 25.1953 16.2611 25.1107 15.7012 24.9414C15.1413 24.7721 14.64 24.5215 14.1973 24.1895C13.7546 23.8509 13.403 23.431 13.1426 22.9297C12.8887 22.4219 12.7617 21.8359 12.7617 21.1719H15.1152C15.1152 21.5951 15.2129 21.9694 15.4082 22.2949C15.61 22.6139 15.89 22.8646 16.248 23.0469C16.6126 23.2292 17.0293 23.3203 17.498 23.3203C17.9928 23.3203 18.4193 23.2324 18.7773 23.0566C19.1354 22.8809 19.4089 22.6204 19.5977 22.2754C19.793 21.9303 19.8906 21.5137 19.8906 21.0254C19.8906 20.472 19.7832 20.0228 19.5684 19.6777C19.3535 19.3327 19.0475 19.0788 18.6504 18.916C18.2533 18.7467 17.7845 18.6621 17.2441 18.6621H15.8379Z" fill="white"/>
</svg>
