<svg width="171" height="41" viewBox="0 0 171 41" fill="none" xmlns="http://www.w3.org/2000/svg">
<path d="M5 0.5H166C168.485 0.5 170.5 2.51472 170.5 5V36C170.5 38.4853 168.485 40.5 166 40.5H5C2.51472 40.5 0.5 38.4853 0.5 36V5C0.5 2.51472 2.51472 0.5 5 0.5Z" fill="#3CCB93" stroke="#3CCB93"/>
<path d="M34.085 14.2031V27H31.4482V14.2031H34.085ZM39.1826 19.6699V21.7266H33.3643V19.6699H39.1826ZM39.7979 14.2031V16.2686H33.3643V14.2031H39.7979ZM43.8408 17.4902V27H41.3008V17.4902H43.8408ZM41.1426 15.0117C41.1426 14.6426 41.2715 14.3379 41.5293 14.0977C41.7871 13.8574 42.1328 13.7373 42.5664 13.7373C42.9941 13.7373 43.3369 13.8574 43.5947 14.0977C43.8584 14.3379 43.9902 14.6426 43.9902 15.0117C43.9902 15.3809 43.8584 15.6855 43.5947 15.9258C43.3369 16.166 42.9941 16.2861 42.5664 16.2861C42.1328 16.2861 41.7871 16.166 41.5293 15.9258C41.2715 15.6855 41.1426 15.3809 41.1426 15.0117ZM48.4111 19.5205V27H45.8799V17.4902H48.2529L48.4111 19.5205ZM48.042 21.9111H47.3564C47.3564 21.208 47.4473 20.5752 47.6289 20.0127C47.8105 19.4443 48.0654 18.9609 48.3936 18.5625C48.7217 18.1582 49.1113 17.8506 49.5625 17.6396C50.0195 17.4229 50.5293 17.3145 51.0918 17.3145C51.5371 17.3145 51.9443 17.3789 52.3135 17.5078C52.6826 17.6367 52.999 17.8418 53.2627 18.123C53.5322 18.4043 53.7373 18.7764 53.8779 19.2393C54.0244 19.7021 54.0977 20.2676 54.0977 20.9355V27H51.5488V20.9268C51.5488 20.5049 51.4902 20.1768 51.373 19.9424C51.2559 19.708 51.083 19.5439 50.8545 19.4502C50.6318 19.3506 50.3564 19.3008 50.0283 19.3008C49.6885 19.3008 49.3926 19.3682 49.1406 19.5029C48.8945 19.6377 48.6895 19.8252 48.5254 20.0654C48.3672 20.2998 48.2471 20.5752 48.165 20.8916C48.083 21.208 48.042 21.5479 48.042 21.9111ZM58.6943 17.4902V27H56.1543V17.4902H58.6943ZM55.9961 15.0117C55.9961 14.6426 56.125 14.3379 56.3828 14.0977C56.6406 13.8574 56.9863 13.7373 57.4199 13.7373C57.8477 13.7373 58.1904 13.8574 58.4482 14.0977C58.7119 14.3379 58.8438 14.6426 58.8438 15.0117C58.8438 15.3809 58.7119 15.6855 58.4482 15.9258C58.1904 16.166 57.8477 16.2861 57.4199 16.2861C56.9863 16.2861 56.6406 16.166 56.3828 15.9258C56.125 15.6855 55.9961 15.3809 55.9961 15.0117ZM65.9277 24.3721C65.9277 24.1904 65.875 24.0264 65.7695 23.8799C65.6641 23.7334 65.4678 23.5986 65.1807 23.4756C64.8994 23.3467 64.4922 23.2295 63.959 23.124C63.4785 23.0186 63.0303 22.8867 62.6143 22.7285C62.2041 22.5645 61.8467 22.3682 61.542 22.1396C61.2432 21.9111 61.0088 21.6416 60.8389 21.3311C60.6689 21.0146 60.584 20.6543 60.584 20.25C60.584 19.8516 60.6689 19.4766 60.8389 19.125C61.0146 18.7734 61.2637 18.4629 61.5859 18.1934C61.9141 17.918 62.3125 17.7041 62.7812 17.5518C63.2559 17.3936 63.7891 17.3145 64.3809 17.3145C65.207 17.3145 65.916 17.4463 66.5078 17.71C67.1055 17.9736 67.5625 18.3369 67.8789 18.7998C68.2012 19.2568 68.3623 19.7783 68.3623 20.3643H65.8311C65.8311 20.1182 65.7783 19.8984 65.6729 19.7051C65.5732 19.5059 65.415 19.3506 65.1982 19.2393C64.9873 19.1221 64.7119 19.0635 64.3721 19.0635C64.0908 19.0635 63.8477 19.1133 63.6426 19.2129C63.4375 19.3066 63.2793 19.4355 63.168 19.5996C63.0625 19.7578 63.0098 19.9336 63.0098 20.127C63.0098 20.2734 63.0391 20.4053 63.0977 20.5225C63.1621 20.6338 63.2646 20.7363 63.4053 20.8301C63.5459 20.9238 63.7275 21.0117 63.9502 21.0938C64.1787 21.1699 64.46 21.2402 64.7939 21.3047C65.4795 21.4453 66.0918 21.6299 66.6309 21.8584C67.1699 22.0811 67.5977 22.3857 67.9141 22.7725C68.2305 23.1533 68.3887 23.6543 68.3887 24.2754C68.3887 24.6973 68.2949 25.084 68.1074 25.4355C67.9199 25.7871 67.6504 26.0947 67.2988 26.3584C66.9473 26.6162 66.5254 26.8184 66.0332 26.9648C65.5469 27.1055 64.999 27.1758 64.3896 27.1758C63.5049 27.1758 62.7549 27.0176 62.1396 26.7012C61.5303 26.3848 61.0674 25.9834 60.751 25.4971C60.4404 25.0049 60.2852 24.501 60.2852 23.9854H62.6846C62.6963 24.3311 62.7842 24.6094 62.9482 24.8203C63.1182 25.0312 63.332 25.1836 63.5898 25.2773C63.8535 25.3711 64.1377 25.418 64.4424 25.418C64.7705 25.418 65.043 25.374 65.2598 25.2861C65.4766 25.1924 65.6406 25.0693 65.752 24.917C65.8691 24.7588 65.9277 24.5771 65.9277 24.3721ZM72.502 13.5V27H69.9707V13.5H72.502ZM72.1416 21.9111H71.4473C71.4531 21.249 71.541 20.6396 71.7109 20.083C71.8809 19.5205 72.124 19.0342 72.4404 18.624C72.7568 18.208 73.1348 17.8857 73.5742 17.6572C74.0195 17.4287 74.5117 17.3145 75.0508 17.3145C75.5195 17.3145 75.9443 17.3818 76.3252 17.5166C76.7119 17.6455 77.043 17.8564 77.3184 18.1494C77.5996 18.4365 77.8164 18.8145 77.9688 19.2832C78.1211 19.752 78.1973 20.3203 78.1973 20.9883V27H75.6484V20.9707C75.6484 20.5488 75.5869 20.2178 75.4639 19.9775C75.3467 19.7314 75.1738 19.5586 74.9453 19.459C74.7227 19.3535 74.4473 19.3008 74.1191 19.3008C73.7559 19.3008 73.4453 19.3682 73.1875 19.5029C72.9355 19.6377 72.7334 19.8252 72.5811 20.0654C72.4287 20.2998 72.3174 20.5752 72.2471 20.8916C72.1768 21.208 72.1416 21.5479 72.1416 21.9111ZM89.7461 22.4385H86.4854V20.3818H89.7461C90.25 20.3818 90.6602 20.2998 90.9766 20.1357C91.293 19.9658 91.5244 19.7314 91.6709 19.4326C91.8174 19.1338 91.8906 18.7969 91.8906 18.4219C91.8906 18.041 91.8174 17.6865 91.6709 17.3584C91.5244 17.0303 91.293 16.7666 90.9766 16.5674C90.6602 16.3682 90.25 16.2686 89.7461 16.2686H87.3994V27H84.7627V14.2031H89.7461C90.748 14.2031 91.6064 14.3848 92.3213 14.748C93.042 15.1055 93.5928 15.6006 93.9736 16.2334C94.3545 16.8662 94.5449 17.5898 94.5449 18.4043C94.5449 19.2305 94.3545 19.9453 93.9736 20.5488C93.5928 21.1523 93.042 21.6182 92.3213 21.9463C91.6064 22.2744 90.748 22.4385 89.7461 22.4385ZM101.233 24.8555V20.6191C101.233 20.3145 101.184 20.0537 101.084 19.8369C100.984 19.6143 100.829 19.4414 100.618 19.3184C100.413 19.1953 100.146 19.1338 99.8184 19.1338C99.5371 19.1338 99.2939 19.1836 99.0889 19.2832C98.8838 19.377 98.7256 19.5146 98.6143 19.6963C98.5029 19.8721 98.4473 20.0801 98.4473 20.3203H95.916C95.916 19.916 96.0098 19.5322 96.1973 19.1689C96.3848 18.8057 96.6572 18.4863 97.0146 18.2109C97.3721 17.9297 97.7969 17.71 98.2891 17.5518C98.7871 17.3936 99.3438 17.3145 99.959 17.3145C100.697 17.3145 101.354 17.4375 101.928 17.6836C102.502 17.9297 102.953 18.2988 103.281 18.791C103.615 19.2832 103.782 19.8984 103.782 20.6367V24.7061C103.782 25.2275 103.814 25.6553 103.879 25.9893C103.943 26.3174 104.037 26.6045 104.16 26.8506V27H101.603C101.479 26.7422 101.386 26.4199 101.321 26.0332C101.263 25.6406 101.233 25.248 101.233 24.8555ZM101.567 21.208L101.585 22.6406H100.17C99.8359 22.6406 99.5459 22.6787 99.2998 22.7549C99.0537 22.8311 98.8516 22.9395 98.6934 23.0801C98.5352 23.2148 98.418 23.373 98.3418 23.5547C98.2715 23.7363 98.2363 23.9355 98.2363 24.1523C98.2363 24.3691 98.2861 24.5654 98.3857 24.7412C98.4854 24.9111 98.6289 25.0459 98.8164 25.1455C99.0039 25.2393 99.2236 25.2861 99.4756 25.2861C99.8564 25.2861 100.188 25.21 100.469 25.0576C100.75 24.9053 100.967 24.7178 101.119 24.4951C101.277 24.2725 101.359 24.0615 101.365 23.8623L102.033 24.9346C101.939 25.1748 101.811 25.4238 101.646 25.6816C101.488 25.9395 101.286 26.1826 101.04 26.4111C100.794 26.6338 100.498 26.8184 100.152 26.9648C99.8066 27.1055 99.3965 27.1758 98.9219 27.1758C98.3184 27.1758 97.7705 27.0557 97.2783 26.8154C96.792 26.5693 96.4053 26.2324 96.1182 25.8047C95.8369 25.3711 95.6963 24.8789 95.6963 24.3281C95.6963 23.8301 95.79 23.3877 95.9775 23.001C96.165 22.6143 96.4404 22.2891 96.8037 22.0254C97.1729 21.7559 97.6328 21.5537 98.1836 21.4189C98.7344 21.2783 99.373 21.208 100.1 21.208H101.567ZM108.414 25.9277L110.937 17.4902H113.652L109.829 28.4326C109.747 28.6729 109.636 28.9307 109.495 29.2061C109.36 29.4814 109.176 29.7422 108.941 29.9883C108.713 30.2402 108.423 30.4453 108.071 30.6035C107.726 30.7617 107.301 30.8408 106.797 30.8408C106.557 30.8408 106.36 30.8262 106.208 30.7969C106.056 30.7676 105.874 30.7266 105.663 30.6738V28.8193C105.728 28.8193 105.795 28.8193 105.865 28.8193C105.936 28.8252 106.003 28.8281 106.067 28.8281C106.401 28.8281 106.674 28.79 106.885 28.7139C107.096 28.6377 107.266 28.5205 107.395 28.3623C107.523 28.21 107.626 28.0107 107.702 27.7646L108.414 25.9277ZM107.359 17.4902L109.425 24.3809L109.785 27.0615L108.062 27.2461L104.644 17.4902H107.359ZM117.194 19.5645V27H114.663V17.4902H117.045L117.194 19.5645ZM120.06 17.4287L120.016 19.7754C119.893 19.7578 119.743 19.7432 119.567 19.7314C119.397 19.7139 119.242 19.7051 119.102 19.7051C118.744 19.7051 118.434 19.752 118.17 19.8457C117.912 19.9336 117.695 20.0654 117.52 20.2412C117.35 20.417 117.221 20.6309 117.133 20.8828C117.051 21.1348 117.004 21.4219 116.992 21.7441L116.482 21.5859C116.482 20.9707 116.544 20.4053 116.667 19.8896C116.79 19.3682 116.969 18.9141 117.203 18.5273C117.443 18.1406 117.736 17.8418 118.082 17.6309C118.428 17.4199 118.823 17.3145 119.269 17.3145C119.409 17.3145 119.553 17.3262 119.699 17.3496C119.846 17.3672 119.966 17.3936 120.06 17.4287ZM120.587 22.3418V22.1572C120.587 21.46 120.687 20.8184 120.886 20.2324C121.085 19.6406 121.375 19.1279 121.756 18.6943C122.137 18.2607 122.605 17.9238 123.162 17.6836C123.719 17.4375 124.357 17.3145 125.078 17.3145C125.799 17.3145 126.44 17.4375 127.003 17.6836C127.565 17.9238 128.037 18.2607 128.418 18.6943C128.805 19.1279 129.098 19.6406 129.297 20.2324C129.496 20.8184 129.596 21.46 129.596 22.1572V22.3418C129.596 23.0332 129.496 23.6748 129.297 24.2666C129.098 24.8525 128.805 25.3652 128.418 25.8047C128.037 26.2383 127.568 26.5752 127.012 26.8154C126.455 27.0557 125.816 27.1758 125.096 27.1758C124.375 27.1758 123.733 27.0557 123.171 26.8154C122.614 26.5752 122.143 26.2383 121.756 25.8047C121.375 25.3652 121.085 24.8525 120.886 24.2666C120.687 23.6748 120.587 23.0332 120.587 22.3418ZM123.118 22.1572V22.3418C123.118 22.7402 123.153 23.1123 123.224 23.458C123.294 23.8037 123.405 24.1084 123.558 24.3721C123.716 24.6299 123.921 24.832 124.173 24.9785C124.425 25.125 124.732 25.1982 125.096 25.1982C125.447 25.1982 125.749 25.125 126.001 24.9785C126.253 24.832 126.455 24.6299 126.607 24.3721C126.76 24.1084 126.871 23.8037 126.941 23.458C127.018 23.1123 127.056 22.7402 127.056 22.3418V22.1572C127.056 21.7705 127.018 21.4072 126.941 21.0674C126.871 20.7217 126.757 20.417 126.599 20.1533C126.446 19.8838 126.244 19.6729 125.992 19.5205C125.74 19.3682 125.436 19.292 125.078 19.292C124.721 19.292 124.416 19.3682 124.164 19.5205C123.918 19.6729 123.716 19.8838 123.558 20.1533C123.405 20.417 123.294 20.7217 123.224 21.0674C123.153 21.4072 123.118 21.7705 123.118 22.1572ZM133.823 13.5V27H131.283V13.5H133.823ZM138.587 13.5V27H136.047V13.5H138.587Z" fill="white"/>
</svg>
