<svg width="96" height="40" viewBox="0 0 96 40" fill="none" xmlns="http://www.w3.org/2000/svg">
<rect width="96" height="40" rx="6.34" fill="#3CCB93"/>
<path d="M32.7645 26H30.1581L30.1747 24.207H32.7645C33.4673 24.207 34.0567 24.0521 34.5326 23.7422C35.0085 23.4268 35.3682 22.9757 35.6117 22.3892C35.8552 21.797 35.9769 21.0887 35.9769 20.2642V19.6416C35.9769 19.0052 35.9078 18.4435 35.7694 17.9565C35.6311 17.4696 35.4263 17.0601 35.1552 16.728C34.8895 16.396 34.5603 16.1442 34.1674 15.9727C33.7745 15.8011 33.3234 15.7153 32.8143 15.7153H30.1083V13.9141H32.8143C33.6223 13.9141 34.3583 14.0496 35.0223 14.3208C35.6919 14.592 36.2702 14.9821 36.7572 15.4912C37.2497 15.9948 37.626 16.598 37.8861 17.3008C38.1517 18.0036 38.2845 18.7894 38.2845 19.6582V20.2642C38.2845 21.1274 38.1517 21.9132 37.8861 22.6216C37.626 23.3244 37.2497 23.9276 36.7572 24.4312C36.2702 24.9347 35.6892 25.3221 35.014 25.5933C34.3389 25.8644 33.5891 26 32.7645 26ZM31.4364 13.9141V26H29.1537V13.9141H31.4364ZM39.6708 21.6006V21.4263C39.6708 20.7677 39.7649 20.1618 39.953 19.6084C40.1412 19.0495 40.4151 18.5653 40.7748 18.1558C41.1345 17.7463 41.5744 17.4281 42.0946 17.2012C42.6148 16.9688 43.2069 16.8525 43.871 16.8525C44.5461 16.8525 45.1438 16.9688 45.6639 17.2012C46.1897 17.4281 46.6324 17.7463 46.9921 18.1558C47.3518 18.5653 47.6257 19.0495 47.8138 19.6084C48.002 20.1618 48.0961 20.7677 48.0961 21.4263V21.6006C48.0961 22.2536 48.002 22.8595 47.8138 23.4185C47.6257 23.9718 47.3518 24.4561 46.9921 24.8711C46.6324 25.2806 46.1924 25.5988 45.6722 25.8257C45.1521 26.0526 44.5572 26.166 43.8876 26.166C43.2235 26.166 42.6286 26.0526 42.1029 25.8257C41.5772 25.5988 41.1345 25.2806 40.7748 24.8711C40.4151 24.4561 40.1412 23.9718 39.953 23.4185C39.7649 22.8595 39.6708 22.2536 39.6708 21.6006ZM41.8622 21.4263V21.6006C41.8622 21.9935 41.9009 22.3615 41.9784 22.7046C42.0559 23.0477 42.1748 23.3493 42.3353 23.6094C42.4958 23.8695 42.7033 24.0742 42.9579 24.2236C43.218 24.3675 43.5279 24.4395 43.8876 24.4395C44.2417 24.4395 44.5461 24.3675 44.8007 24.2236C45.0552 24.0742 45.2627 23.8695 45.4232 23.6094C45.5892 23.3493 45.711 23.0477 45.7885 22.7046C45.8659 22.3615 45.9047 21.9935 45.9047 21.6006V21.4263C45.9047 21.0389 45.8659 20.6764 45.7885 20.3389C45.711 19.9958 45.5892 19.6942 45.4232 19.4341C45.2627 19.1685 45.0524 18.9609 44.7924 18.8115C44.5378 18.6566 44.2307 18.5791 43.871 18.5791C43.5168 18.5791 43.2124 18.6566 42.9579 18.8115C42.7033 18.9609 42.4958 19.1685 42.3353 19.4341C42.1748 19.6942 42.0559 19.9958 41.9784 20.3389C41.9009 20.6764 41.8622 21.0389 41.8622 21.4263ZM51.8397 18.936V26H49.6483V17.0186H51.7069L51.8397 18.936ZM51.4911 21.1855H50.8436C50.8492 20.5326 50.9377 19.9404 51.1093 19.4092C51.2808 18.8779 51.5215 18.4214 51.8314 18.0396C52.1469 17.6577 52.5204 17.3644 52.952 17.1597C53.3837 16.9549 53.8651 16.8525 54.3964 16.8525C54.828 16.8525 55.2181 16.9134 55.5668 17.0352C55.9154 17.1569 56.2142 17.3506 56.4633 17.6162C56.7178 17.8818 56.9115 18.2305 57.0443 18.6621C57.1827 19.0882 57.2518 19.6139 57.2518 20.2393V26H55.0438V20.2227C55.0438 19.8132 54.983 19.4894 54.8612 19.2515C54.745 19.0135 54.5734 18.8447 54.3466 18.7451C54.1252 18.6455 53.8513 18.5957 53.5248 18.5957C53.1872 18.5957 52.8912 18.6649 52.6366 18.8032C52.3876 18.936 52.1773 19.1214 52.0057 19.3594C51.8397 19.5973 51.7124 19.8713 51.6239 20.1812C51.5354 20.491 51.4911 20.8258 51.4911 21.1855ZM63.2201 26.166C62.5394 26.166 61.9279 26.0553 61.3856 25.834C60.8433 25.6126 60.3812 25.3055 59.9994 24.9126C59.6231 24.5142 59.3326 24.0521 59.1278 23.5264C58.9286 22.9951 58.829 22.4251 58.829 21.8164V21.4844C58.829 20.7926 58.9286 20.1646 59.1278 19.6001C59.327 19.0301 59.6093 18.5404 59.9745 18.1309C60.3397 17.7214 60.7769 17.4059 61.286 17.1846C61.7951 16.9632 62.3568 16.8525 62.9711 16.8525C63.6075 16.8525 64.1691 16.9604 64.6561 17.1763C65.1431 17.3866 65.5498 17.6854 65.8763 18.0728C66.2028 18.4601 66.4491 18.925 66.6151 19.4673C66.7811 20.0041 66.8641 20.599 66.8641 21.252V22.1733H59.8251V20.6626H64.7059V20.4966C64.6949 20.1479 64.6285 19.8298 64.5067 19.542C64.385 19.2487 64.1968 19.0163 63.9423 18.8447C63.6877 18.6676 63.3584 18.5791 62.9545 18.5791C62.628 18.5791 62.343 18.651 62.0995 18.7949C61.8615 18.9333 61.6623 19.1325 61.5018 19.3926C61.3469 19.6471 61.2307 19.9515 61.1532 20.3057C61.0757 20.6598 61.037 21.0527 61.037 21.4844V21.8164C61.037 22.1927 61.0868 22.5413 61.1864 22.8623C61.2915 23.1833 61.4437 23.4627 61.6429 23.7007C61.8477 23.9331 62.0912 24.1157 62.3734 24.2485C62.6612 24.3758 62.9877 24.4395 63.3529 24.4395C63.8122 24.4395 64.2273 24.3509 64.598 24.1738C64.9743 23.9912 65.3008 23.7228 65.5775 23.3687L66.6815 24.5142C66.4934 24.7909 66.2388 25.0565 65.9178 25.311C65.6024 25.5656 65.2206 25.7731 64.7723 25.9336C64.3241 26.0885 63.8067 26.166 63.2201 26.166Z" fill="white"/>
</svg>
