<svg width="22" height="29" viewBox="0 0 22 29" fill="none" xmlns="http://www.w3.org/2000/svg">
<path d="M5.55959 28.1818C5.08694 27.9638 4.92328 27.5925 4.94676 27.0795C4.97612 26.4299 4.96364 25.7775 4.94823 25.1265C4.94309 24.9195 4.9974 24.8733 5.20217 24.874C8.65967 24.8814 12.1172 24.8799 15.5747 24.8784C16.8135 24.8777 17.7831 24.157 18.084 23.0179C18.1552 22.7501 18.1654 22.4763 18.1654 22.2004C18.164 16.5697 18.1662 10.9383 18.1581 5.30768C18.1574 5.05081 18.2293 4.9965 18.4715 5.00237C19.168 5.01925 19.8652 5.00677 20.5624 5.00897C21.1297 5.01044 21.4666 5.34658 21.4666 5.9161C21.4673 13.0329 21.4659 20.1498 21.4695 27.2659C21.4695 27.7444 21.231 28.024 20.8068 28.1818C15.7244 28.1818 10.642 28.1818 5.55959 28.1818Z" fill="white"/>
<path d="M0 11.6143C0 8.07387 0 4.53343 0 0.992996C0 0.308981 0.306779 0 0.984923 0C5.83688 0 10.6888 0 15.5415 0C16.2013 0 16.5132 0.314119 16.5132 0.978318C16.5132 8.06874 16.5132 15.1584 16.5132 22.2488C16.5132 22.913 16.2006 23.2286 15.5423 23.2286C10.6808 23.2286 5.82 23.2286 0.958502 23.2286C0.318522 23.2286 0.000734079 22.9079 0.000734079 22.2635C1.56799e-07 18.7135 0 15.1643 0 11.6143ZM8.25589 7.486C6.64199 7.486 5.02883 7.48747 3.41494 7.48453C3.20797 7.4838 3.01422 7.51316 2.84101 7.63205C2.54744 7.83241 2.41314 8.19277 2.50854 8.5223C2.62304 8.91715 2.92761 9.13733 3.37531 9.13733C6.62071 9.13806 9.86685 9.13806 13.1122 9.13733C13.6649 9.13733 14.0399 8.79605 14.0355 8.30433C14.0311 7.81333 13.6576 7.48747 13.0968 7.48674C11.4829 7.48527 9.86905 7.486 8.25589 7.486ZM8.25589 10.7886C6.64199 10.7886 5.02883 10.7901 3.41494 10.7872C3.20797 10.7864 3.01422 10.8158 2.84101 10.934C2.54744 11.1343 2.4124 11.4947 2.50781 11.8235C2.6201 12.2103 2.92174 12.4378 3.34668 12.4385C5.00608 12.4407 6.66548 12.4392 8.32487 12.4392C9.92923 12.4392 11.5336 12.4378 13.1387 12.44C13.5137 12.4407 13.7992 12.2925 13.9585 11.9504C14.2212 11.3883 13.8051 10.7894 13.1511 10.7886C11.5204 10.7864 9.88813 10.7886 8.25589 10.7886ZM8.25442 14.0913C6.64052 14.0913 5.02736 14.0928 3.41347 14.0898C3.2065 14.0891 3.01275 14.1192 2.83954 14.2381C2.54671 14.4392 2.4124 14.7995 2.50854 15.1283C2.62377 15.5232 2.92761 15.7419 3.37604 15.7426C6.62144 15.7434 9.86758 15.7434 13.113 15.7426C13.6649 15.7426 14.0407 15.3999 14.0348 14.9082C14.0297 14.4179 13.6561 14.092 13.0946 14.092C11.4815 14.0906 9.86831 14.0913 8.25442 14.0913ZM5.77817 4.18335C4.98993 4.18335 4.2017 4.18262 3.41347 4.18335C2.85642 4.18409 2.48066 4.51509 2.47772 5.00388C2.47478 5.49414 2.85129 5.83468 3.4032 5.83468C4.98847 5.83615 6.57447 5.83615 8.15974 5.83468C8.71165 5.83394 9.08669 5.49267 9.08155 5.00094C9.07641 4.51949 8.70651 4.18556 8.17002 4.18409C7.37298 4.18189 6.57521 4.18335 5.77817 4.18335ZM11.5651 17.3939C11.0242 17.3939 10.4841 17.3903 9.94317 17.3947C9.45438 17.3991 9.08962 17.7477 9.08228 18.2064C9.07494 18.6768 9.44337 19.0416 9.94464 19.0438C11.0169 19.0482 12.0884 19.0475 13.1607 19.0438C13.6686 19.0423 14.0355 18.6901 14.0348 18.2181C14.0348 17.7455 13.6678 17.3976 13.1585 17.3939C12.6279 17.391 12.0965 17.3939 11.5651 17.3939Z" fill="#3CCB93"/>
<path d="M8.25575 7.48658C9.86965 7.48658 11.4828 7.48584 13.0967 7.48658C13.6574 7.48658 14.031 7.81317 14.0354 8.30417C14.0398 8.79589 13.6648 9.13717 13.1121 9.13717C9.86671 9.1379 6.62057 9.1379 3.37517 9.13717C2.92748 9.13717 2.6229 8.91699 2.50841 8.52214C2.413 8.19334 2.54731 7.83299 2.84088 7.63189C3.01408 7.51373 3.20784 7.48438 3.4148 7.48438C5.02796 7.48804 6.64186 7.48658 8.25575 7.48658Z" fill="white"/>
<path d="M8.25567 10.7879C9.88791 10.7879 11.5194 10.7857 13.1517 10.7886C13.8056 10.7901 14.2217 11.3882 13.959 11.9504C13.7997 12.2924 13.5135 12.44 13.1392 12.44C11.5348 12.4378 9.93047 12.4392 8.32539 12.4392C6.66599 12.4392 5.00659 12.4407 3.3472 12.4385C2.92226 12.4378 2.62061 12.2102 2.50832 11.8235C2.41291 11.4947 2.54796 11.1336 2.84152 10.934C3.01473 10.8158 3.20849 10.7864 3.41545 10.7872C5.02861 10.7894 6.64251 10.7879 8.25567 10.7879Z" fill="white"/>
<path d="M8.25442 14.092C9.86832 14.092 11.4815 14.0913 13.0954 14.092C13.6568 14.092 14.0304 14.4179 14.0355 14.9082C14.0407 15.3999 13.6656 15.7426 13.1137 15.7426C9.86832 15.7434 6.62218 15.7434 3.37678 15.7426C2.92836 15.7426 2.62451 15.5239 2.50929 15.1283C2.41314 14.7995 2.54745 14.4392 2.84028 14.2381C3.01349 14.1192 3.20724 14.0898 3.41421 14.0898C5.02737 14.0935 6.64053 14.092 8.25442 14.092Z" fill="white"/>
<path d="M5.778 4.18407C6.57504 4.18407 7.37281 4.18261 8.16985 4.18481C8.70635 4.18627 9.07625 4.52021 9.08138 5.00166C9.08652 5.49339 8.71075 5.8354 8.15958 5.8354C6.57431 5.83686 4.9883 5.83686 3.40303 5.8354C2.85039 5.83466 2.47462 5.49486 2.47756 5.0046C2.48049 4.51581 2.85699 4.18554 3.41331 4.18481C4.20154 4.18334 4.98977 4.18407 5.778 4.18407Z" fill="white"/>
<path d="M11.565 17.3938C12.0963 17.3938 12.6277 17.3909 13.1591 17.3946C13.6684 17.3983 14.0346 17.7461 14.0354 18.2188C14.0354 18.6907 13.6684 19.043 13.1613 19.0444C12.089 19.0481 11.0175 19.0488 9.94521 19.0444C9.44467 19.0422 9.07625 18.6775 9.08285 18.207C9.08946 17.7483 9.45495 17.3997 9.94374 17.3953C10.4839 17.3902 11.0248 17.3938 11.565 17.3938Z" fill="white"/>
</svg>
