<svg width="184" height="163" viewBox="0 0 184 163" fill="none" xmlns="http://www.w3.org/2000/svg">
<circle cx="91" cy="67" r="40" fill="#241F35"/>
<path d="M71.6266 74.5935C71.8087 74.2934 71.7855 73.9436 71.8572 73.618C72.8536 69.1104 76.8239 65.875 81.4397 65.8242C82.1426 65.8165 82.8455 65.8298 83.5485 65.8165C83.7559 65.8132 83.8354 65.8783 83.8685 66.0836C84.0472 67.2113 84.3087 68.3324 84.4014 69.4668C84.4577 70.1521 84.2701 70.8583 84.1763 71.5535C83.8618 73.9005 83.5418 76.2476 83.224 78.5947C83.1667 79.0184 83.3046 79.3726 83.5694 79.7015C84.7523 81.1713 85.9286 82.6466 87.1193 84.1352C86.9747 84.2466 86.8202 84.1926 86.6812 84.1926C82.2144 84.1959 77.7486 84.1826 73.2818 84.208C72.5127 84.2124 71.9543 83.994 71.6255 83.2855C71.6266 80.3867 71.6266 77.4901 71.6266 74.5935Z" fill="white"/>
<path d="M114 81.2146C113.855 81.2709 113.877 81.4165 113.843 81.5247C113.358 83.1103 111.966 84.1829 110.307 84.1884C106.778 84.2017 103.25 84.2061 99.721 84.1873C97.6795 84.1763 96.063 82.5398 96.0442 80.494C96.0276 78.6192 96.0508 76.7444 96.0299 74.8707C96.0265 74.5331 96.1435 74.5044 96.4249 74.5044C102.283 74.5121 108.14 74.5099 113.999 74.5099C114 76.7455 114 78.9801 114 81.2146Z" fill="white"/>
<path d="M114 72.0282C108.156 72.0282 102.313 72.0238 96.4689 72.0381C96.0926 72.0392 96.0375 71.9333 96.0297 71.5868C95.9933 69.883 96.6587 68.5986 98.2047 67.824C98.8083 67.5216 99.4648 67.4355 100.135 67.4808C100.405 67.4984 100.481 67.4157 100.475 67.1442C100.46 66.47 100.448 65.7914 100.498 65.1194C100.603 63.7014 101.813 62.5516 103.234 62.5196C104.419 62.4931 105.605 62.4942 106.79 62.5185C108.233 62.5483 109.44 63.6992 109.544 65.1447C109.591 65.8167 109.58 66.4943 109.566 67.1696C109.56 67.4333 109.643 67.4962 109.89 67.4808C110.43 67.4477 110.967 67.4885 111.478 67.6772C112.697 68.1252 113.497 68.9694 113.867 70.2207C113.898 70.3255 113.851 70.4789 114 70.5385C114 71.035 114 71.5316 114 72.0282ZM105.016 67.4753C105.623 67.4753 106.23 67.4675 106.836 67.4797C107.035 67.4841 107.098 67.43 107.092 67.227C107.079 66.662 107.084 66.097 107.089 65.531C107.091 65.1525 106.918 64.9847 106.533 64.9891C105.526 65.0002 104.52 65.0002 103.513 64.9891C103.133 64.9847 102.948 65.1414 102.951 65.5254C102.955 66.0904 102.964 66.6565 102.945 67.2215C102.937 67.4642 103.047 67.4819 103.238 67.4797C103.831 67.4708 104.424 67.4753 105.016 67.4753Z" fill="white"/>
<path d="M96.0408 55.0887C96.0287 59.6526 92.3067 63.3503 87.7372 63.3382C83.1744 63.326 79.4778 59.6051 79.4888 55.0346C79.4998 50.4717 83.2207 46.7751 87.7924 46.7862C92.3574 46.7972 96.0518 50.517 96.0408 55.0887Z" fill="white"/>
<path d="M94.7926 84.1828C92.6354 84.1828 90.5443 84.1828 88.451 84.1828C88.4135 84.0393 88.5327 83.983 88.5945 83.9058C89.7012 82.5154 90.8069 81.124 91.9258 79.7435C92.2536 79.3396 92.3485 78.917 92.2767 78.4006C91.8707 75.4963 91.4679 72.5908 91.1181 69.6788C91.0563 69.1657 91.2472 68.6206 91.3311 68.092C91.4359 67.4255 91.5529 66.7612 91.661 66.0958C91.6864 65.938 91.704 65.8111 91.9247 65.8155C93.2323 65.8409 94.5444 65.7438 95.842 65.9932C95.9568 66.0153 96.0682 66.0539 96.2271 66.0969C95.1568 66.8859 94.3877 67.8492 93.943 69.0608C93.6892 69.7527 93.559 70.4656 93.559 71.2027C93.559 74.2769 93.559 77.3512 93.559 80.4244C93.5579 81.786 93.9628 83.0197 94.7926 84.1828Z" fill="white"/>
<path d="M89.7677 78.3829C89.7876 78.4601 89.6982 78.5517 89.621 78.6488C89.0692 79.3363 88.5098 80.0182 87.9724 80.7167C87.8047 80.9341 87.723 80.9286 87.5586 80.7145C87.0201 80.0171 86.465 79.3319 85.9067 78.6499C85.7897 78.5065 85.761 78.3663 85.7853 78.1942C86.1086 75.8206 86.433 73.446 86.7442 71.0713C86.7729 70.8506 86.8303 70.7712 87.0631 70.7811C87.531 70.801 88.0011 70.801 88.4689 70.7811C88.7029 70.7712 88.758 70.8539 88.7867 71.0724C89.0736 73.2705 89.3727 75.4675 89.6695 77.6645C89.6982 77.8819 89.7291 78.1004 89.7677 78.3829Z" fill="white"/>
<path d="M87.8046 65.8201C88.1908 65.8201 88.5759 65.829 88.961 65.8168C89.1519 65.8102 89.195 65.8764 89.163 66.0541C89.0449 66.7316 88.9324 67.4102 88.8253 68.0889C88.7988 68.2599 88.7172 68.3107 88.5495 68.3073C88.0264 68.2974 87.5023 68.2941 86.9792 68.3084C86.7762 68.314 86.7232 68.2235 86.6956 68.0491C86.593 67.397 86.486 66.7459 86.369 66.096C86.3315 65.8874 86.369 65.8025 86.6062 65.8146C87.0057 65.8356 87.4052 65.8201 87.8046 65.8201Z" fill="white"/>
<path d="M49.5859 131.141L46.1875 141H44.1328L48.4141 129.625H49.7266L49.5859 131.141ZM52.4297 141L49.0234 131.141L48.875 129.625H50.1953L54.4922 141H52.4297ZM52.2656 136.781V138.336H46.0781V136.781H52.2656ZM60.7344 139.25V129H62.625V141H60.9141L60.7344 139.25ZM55.2344 136.867V136.703C55.2344 136.062 55.3099 135.479 55.4609 134.953C55.612 134.422 55.8307 133.966 56.1172 133.586C56.4036 133.201 56.7526 132.906 57.1641 132.703C57.5755 132.495 58.0391 132.391 58.5547 132.391C59.0651 132.391 59.513 132.49 59.8984 132.688C60.2839 132.885 60.612 133.169 60.8828 133.539C61.1536 133.904 61.3698 134.341 61.5312 134.852C61.6927 135.357 61.8073 135.919 61.875 136.539V137.062C61.8073 137.667 61.6927 138.219 61.5312 138.719C61.3698 139.219 61.1536 139.651 60.8828 140.016C60.612 140.38 60.2812 140.661 59.8906 140.859C59.5052 141.057 59.0547 141.156 58.5391 141.156C58.0286 141.156 57.5677 141.049 57.1562 140.836C56.75 140.622 56.4036 140.323 56.1172 139.938C55.8307 139.552 55.612 139.099 55.4609 138.578C55.3099 138.052 55.2344 137.482 55.2344 136.867ZM57.1172 136.703V136.867C57.1172 137.253 57.151 137.612 57.2188 137.945C57.2917 138.279 57.4036 138.573 57.5547 138.828C57.7057 139.078 57.901 139.276 58.1406 139.422C58.3854 139.562 58.6771 139.633 59.0156 139.633C59.4427 139.633 59.7943 139.539 60.0703 139.352C60.3464 139.164 60.5625 138.911 60.7188 138.594C60.8802 138.271 60.9896 137.911 61.0469 137.516V136.102C61.0156 135.794 60.9505 135.508 60.8516 135.242C60.7578 134.977 60.6302 134.745 60.4688 134.547C60.3073 134.344 60.1068 134.188 59.8672 134.078C59.6328 133.964 59.3542 133.906 59.0312 133.906C58.6875 133.906 58.3958 133.979 58.1562 134.125C57.9167 134.271 57.7188 134.471 57.5625 134.727C57.4115 134.982 57.2995 135.279 57.2266 135.617C57.1536 135.956 57.1172 136.318 57.1172 136.703ZM69.75 139.25V129H71.6406V141H69.9297L69.75 139.25ZM64.25 136.867V136.703C64.25 136.062 64.3255 135.479 64.4766 134.953C64.6276 134.422 64.8464 133.966 65.1328 133.586C65.4193 133.201 65.7682 132.906 66.1797 132.703C66.5911 132.495 67.0547 132.391 67.5703 132.391C68.0807 132.391 68.5286 132.49 68.9141 132.688C69.2995 132.885 69.6276 133.169 69.8984 133.539C70.1693 133.904 70.3854 134.341 70.5469 134.852C70.7083 135.357 70.8229 135.919 70.8906 136.539V137.062C70.8229 137.667 70.7083 138.219 70.5469 138.719C70.3854 139.219 70.1693 139.651 69.8984 140.016C69.6276 140.38 69.2969 140.661 68.9062 140.859C68.5208 141.057 68.0703 141.156 67.5547 141.156C67.0443 141.156 66.5833 141.049 66.1719 140.836C65.7656 140.622 65.4193 140.323 65.1328 139.938C64.8464 139.552 64.6276 139.099 64.4766 138.578C64.3255 138.052 64.25 137.482 64.25 136.867ZM66.1328 136.703V136.867C66.1328 137.253 66.1667 137.612 66.2344 137.945C66.3073 138.279 66.4193 138.573 66.5703 138.828C66.7214 139.078 66.9167 139.276 67.1562 139.422C67.401 139.562 67.6927 139.633 68.0312 139.633C68.4583 139.633 68.8099 139.539 69.0859 139.352C69.362 139.164 69.5781 138.911 69.7344 138.594C69.8958 138.271 70.0052 137.911 70.0625 137.516V136.102C70.0312 135.794 69.9661 135.508 69.8672 135.242C69.7734 134.977 69.6458 134.745 69.4844 134.547C69.3229 134.344 69.1224 134.188 68.8828 134.078C68.6484 133.964 68.3698 133.906 68.0469 133.906C67.7031 133.906 67.4115 133.979 67.1719 134.125C66.9323 134.271 66.7344 134.471 66.5781 134.727C66.4271 134.982 66.3151 135.279 66.2422 135.617C66.1693 135.956 66.1328 136.318 66.1328 136.703ZM85.2266 139.445V141H79.1875V139.445H85.2266ZM79.7422 129.625V141H77.7812V129.625H79.7422ZM84.4375 134.375V135.906H79.1875V134.375H84.4375ZM85.1875 129.625V131.188H79.1875V129.625H85.1875ZM88.5234 134.266V141H86.6406V132.547H88.4141L88.5234 134.266ZM88.2188 136.461L87.5781 136.453C87.5781 135.87 87.651 135.331 87.7969 134.836C87.9427 134.341 88.1562 133.911 88.4375 133.547C88.7188 133.177 89.0677 132.893 89.4844 132.695C89.9062 132.492 90.3932 132.391 90.9453 132.391C91.3307 132.391 91.6823 132.448 92 132.562C92.3229 132.672 92.6016 132.846 92.8359 133.086C93.0755 133.326 93.2578 133.633 93.3828 134.008C93.513 134.383 93.5781 134.836 93.5781 135.367V141H91.6953V135.531C91.6953 135.12 91.6328 134.797 91.5078 134.562C91.388 134.328 91.2135 134.161 90.9844 134.062C90.7604 133.958 90.4922 133.906 90.1797 133.906C89.8255 133.906 89.5234 133.974 89.2734 134.109C89.0286 134.245 88.8281 134.43 88.6719 134.664C88.5156 134.898 88.401 135.169 88.3281 135.477C88.2552 135.784 88.2188 136.112 88.2188 136.461ZM93.4609 135.961L92.5781 136.156C92.5781 135.646 92.6484 135.164 92.7891 134.711C92.9349 134.253 93.1458 133.852 93.4219 133.508C93.7031 133.159 94.0495 132.885 94.4609 132.688C94.8724 132.49 95.3438 132.391 95.875 132.391C96.3073 132.391 96.6927 132.451 97.0312 132.57C97.375 132.685 97.6667 132.867 97.9062 133.117C98.1458 133.367 98.3281 133.693 98.4531 134.094C98.5781 134.49 98.6406 134.969 98.6406 135.531V141H96.75V135.523C96.75 135.096 96.6875 134.766 96.5625 134.531C96.4427 134.297 96.2708 134.135 96.0469 134.047C95.8229 133.953 95.5547 133.906 95.2422 133.906C94.9505 133.906 94.6927 133.961 94.4688 134.07C94.25 134.174 94.0651 134.323 93.9141 134.516C93.763 134.703 93.6484 134.919 93.5703 135.164C93.4974 135.409 93.4609 135.674 93.4609 135.961ZM102.469 134.172V144.25H100.586V132.547H102.32L102.469 134.172ZM107.977 136.695V136.859C107.977 137.474 107.904 138.044 107.758 138.57C107.617 139.091 107.406 139.547 107.125 139.938C106.849 140.323 106.508 140.622 106.102 140.836C105.695 141.049 105.227 141.156 104.695 141.156C104.169 141.156 103.708 141.06 103.312 140.867C102.922 140.669 102.591 140.391 102.32 140.031C102.049 139.672 101.831 139.25 101.664 138.766C101.503 138.276 101.388 137.74 101.32 137.156V136.523C101.388 135.904 101.503 135.341 101.664 134.836C101.831 134.331 102.049 133.896 102.32 133.531C102.591 133.167 102.922 132.885 103.312 132.688C103.703 132.49 104.159 132.391 104.68 132.391C105.211 132.391 105.682 132.495 106.094 132.703C106.505 132.906 106.852 133.198 107.133 133.578C107.414 133.953 107.625 134.406 107.766 134.938C107.906 135.464 107.977 136.049 107.977 136.695ZM106.094 136.859V136.695C106.094 136.305 106.057 135.943 105.984 135.609C105.911 135.271 105.797 134.974 105.641 134.719C105.484 134.464 105.284 134.266 105.039 134.125C104.799 133.979 104.51 133.906 104.172 133.906C103.839 133.906 103.552 133.964 103.312 134.078C103.073 134.188 102.872 134.341 102.711 134.539C102.549 134.737 102.424 134.969 102.336 135.234C102.247 135.495 102.185 135.779 102.148 136.086V137.602C102.211 137.977 102.318 138.32 102.469 138.633C102.62 138.945 102.833 139.195 103.109 139.383C103.391 139.565 103.75 139.656 104.188 139.656C104.526 139.656 104.815 139.583 105.055 139.438C105.294 139.292 105.49 139.091 105.641 138.836C105.797 138.576 105.911 138.276 105.984 137.938C106.057 137.599 106.094 137.24 106.094 136.859ZM111.594 129V141H109.703V129H111.594ZM113.297 136.867V136.688C113.297 136.078 113.385 135.513 113.562 134.992C113.74 134.466 113.995 134.01 114.328 133.625C114.667 133.234 115.078 132.932 115.562 132.719C116.052 132.5 116.604 132.391 117.219 132.391C117.839 132.391 118.391 132.5 118.875 132.719C119.365 132.932 119.779 133.234 120.117 133.625C120.456 134.01 120.714 134.466 120.891 134.992C121.068 135.513 121.156 136.078 121.156 136.688V136.867C121.156 137.477 121.068 138.042 120.891 138.562C120.714 139.083 120.456 139.539 120.117 139.93C119.779 140.315 119.367 140.617 118.883 140.836C118.398 141.049 117.849 141.156 117.234 141.156C116.615 141.156 116.06 141.049 115.57 140.836C115.086 140.617 114.674 140.315 114.336 139.93C113.997 139.539 113.74 139.083 113.562 138.562C113.385 138.042 113.297 137.477 113.297 136.867ZM115.18 136.688V136.867C115.18 137.247 115.219 137.607 115.297 137.945C115.375 138.284 115.497 138.581 115.664 138.836C115.831 139.091 116.044 139.292 116.305 139.438C116.565 139.583 116.875 139.656 117.234 139.656C117.583 139.656 117.885 139.583 118.141 139.438C118.401 139.292 118.615 139.091 118.781 138.836C118.948 138.581 119.07 138.284 119.148 137.945C119.232 137.607 119.273 137.247 119.273 136.867V136.688C119.273 136.312 119.232 135.958 119.148 135.625C119.07 135.286 118.945 134.987 118.773 134.727C118.607 134.466 118.393 134.263 118.133 134.117C117.878 133.966 117.573 133.891 117.219 133.891C116.865 133.891 116.557 133.966 116.297 134.117C116.042 134.263 115.831 134.466 115.664 134.727C115.497 134.987 115.375 135.286 115.297 135.625C115.219 135.958 115.18 136.312 115.18 136.688ZM125.062 140.078L127.359 132.547H129.375L125.984 142.289C125.906 142.497 125.805 142.724 125.68 142.969C125.555 143.214 125.391 143.445 125.188 143.664C124.99 143.888 124.742 144.068 124.445 144.203C124.148 144.344 123.789 144.414 123.367 144.414C123.201 144.414 123.039 144.398 122.883 144.367C122.732 144.341 122.589 144.312 122.453 144.281L122.445 142.844C122.497 142.849 122.56 142.854 122.633 142.859C122.711 142.865 122.773 142.867 122.82 142.867C123.133 142.867 123.393 142.828 123.602 142.75C123.81 142.677 123.979 142.557 124.109 142.391C124.245 142.224 124.359 142 124.453 141.719L125.062 140.078ZM123.766 132.547L125.773 138.875L126.109 140.859L124.805 141.195L121.734 132.547H123.766ZM134.07 141.156C133.445 141.156 132.88 141.055 132.375 140.852C131.875 140.643 131.448 140.354 131.094 139.984C130.745 139.615 130.477 139.18 130.289 138.68C130.102 138.18 130.008 137.641 130.008 137.062V136.75C130.008 136.089 130.104 135.49 130.297 134.953C130.49 134.417 130.758 133.958 131.102 133.578C131.445 133.193 131.852 132.898 132.32 132.695C132.789 132.492 133.297 132.391 133.844 132.391C134.448 132.391 134.977 132.492 135.43 132.695C135.883 132.898 136.258 133.185 136.555 133.555C136.857 133.919 137.081 134.354 137.227 134.859C137.378 135.365 137.453 135.922 137.453 136.531V137.336H130.922V135.984H135.594V135.836C135.583 135.497 135.516 135.18 135.391 134.883C135.271 134.586 135.086 134.346 134.836 134.164C134.586 133.982 134.253 133.891 133.836 133.891C133.523 133.891 133.245 133.958 133 134.094C132.76 134.224 132.56 134.414 132.398 134.664C132.237 134.914 132.112 135.216 132.023 135.57C131.94 135.919 131.898 136.312 131.898 136.75V137.062C131.898 137.432 131.948 137.776 132.047 138.094C132.151 138.406 132.302 138.68 132.5 138.914C132.698 139.148 132.938 139.333 133.219 139.469C133.5 139.599 133.82 139.664 134.18 139.664C134.633 139.664 135.036 139.573 135.391 139.391C135.745 139.208 136.052 138.951 136.312 138.617L137.305 139.578C137.122 139.844 136.885 140.099 136.594 140.344C136.302 140.583 135.945 140.779 135.523 140.93C135.107 141.081 134.622 141.156 134.07 141.156ZM142.648 141.156C142.023 141.156 141.458 141.055 140.953 140.852C140.453 140.643 140.026 140.354 139.672 139.984C139.323 139.615 139.055 139.18 138.867 138.68C138.68 138.18 138.586 137.641 138.586 137.062V136.75C138.586 136.089 138.682 135.49 138.875 134.953C139.068 134.417 139.336 133.958 139.68 133.578C140.023 133.193 140.43 132.898 140.898 132.695C141.367 132.492 141.875 132.391 142.422 132.391C143.026 132.391 143.555 132.492 144.008 132.695C144.461 132.898 144.836 133.185 145.133 133.555C145.435 133.919 145.659 134.354 145.805 134.859C145.956 135.365 146.031 135.922 146.031 136.531V137.336H139.5V135.984H144.172V135.836C144.161 135.497 144.094 135.18 143.969 134.883C143.849 134.586 143.664 134.346 143.414 134.164C143.164 133.982 142.831 133.891 142.414 133.891C142.102 133.891 141.823 133.958 141.578 134.094C141.339 134.224 141.138 134.414 140.977 134.664C140.815 134.914 140.69 135.216 140.602 135.57C140.518 135.919 140.477 136.312 140.477 136.75V137.062C140.477 137.432 140.526 137.776 140.625 138.094C140.729 138.406 140.88 138.68 141.078 138.914C141.276 139.148 141.516 139.333 141.797 139.469C142.078 139.599 142.398 139.664 142.758 139.664C143.211 139.664 143.615 139.573 143.969 139.391C144.323 139.208 144.63 138.951 144.891 138.617L145.883 139.578C145.701 139.844 145.464 140.099 145.172 140.344C144.88 140.583 144.523 140.779 144.102 140.93C143.685 141.081 143.201 141.156 142.648 141.156Z" fill="#241F35"/>
</svg>
