<svg width="89" height="24" viewBox="0 0 89 24" fill="none" xmlns="http://www.w3.org/2000/svg">
<path d="M10.5203 14.3129H12.9925C12.9133 15.2556 12.6497 16.0961 12.2014 16.8344C11.7531 17.5662 11.1235 18.143 10.3127 18.5649C9.50182 18.9868 8.51627 19.1978 7.35602 19.1978C6.46605 19.1978 5.66508 19.0396 4.95311 18.7231C4.24114 18.4001 3.63135 17.9452 3.12374 17.3585C2.61613 16.7652 2.22719 16.0499 1.9569 15.2127C1.69321 14.3755 1.56136 13.4394 1.56136 12.4044V11.2079C1.56136 10.1729 1.6965 9.23676 1.96679 8.39954C2.24367 7.56231 2.63921 6.84704 3.15341 6.25373C3.66761 5.65383 4.28399 5.19567 5.00256 4.87923C5.72771 4.5628 6.54186 4.40459 7.44501 4.40459C8.59208 4.40459 9.56115 4.61554 10.3522 5.03745C11.1433 5.45936 11.7564 6.04278 12.1915 6.78771C12.6332 7.53265 12.9035 8.38635 13.0023 9.34883H10.5302C10.4643 8.72915 10.3193 8.19847 10.0951 7.75679C9.87758 7.3151 9.55456 6.97889 9.12606 6.74816C8.69756 6.51084 8.13721 6.39217 7.44501 6.39217C6.87807 6.39217 6.38365 6.49765 5.96174 6.7086C5.53983 6.91956 5.18714 7.2294 4.90367 7.63812C4.6202 8.04685 4.40595 8.55116 4.26092 9.15106C4.12248 9.74437 4.05326 10.4234 4.05326 11.1881V12.4044C4.05326 13.1295 4.11589 13.7888 4.24114 14.3821C4.37299 14.9688 4.57076 15.4731 4.83445 15.895C5.10474 16.3169 5.44754 16.6432 5.86285 16.874C6.27817 17.1047 6.77589 17.2201 7.35602 17.2201C8.0614 17.2201 8.63163 17.108 9.06673 16.8839C9.50841 16.6597 9.84132 16.3334 10.0655 15.9049C10.2962 15.4698 10.4478 14.9391 10.5203 14.3129ZM17.5609 3.81128V19H15.1679V3.81128H17.5609ZM19.7166 13.769V13.5416C19.7166 12.7703 19.8287 12.055 20.0528 11.3957C20.277 10.7299 20.6 10.1531 21.0219 9.66526C21.4504 9.17084 21.9712 8.78848 22.5843 8.5182C23.204 8.24132 23.9028 8.10288 24.6807 8.10288C25.4651 8.10288 26.1639 8.24132 26.777 8.5182C27.3967 8.78848 27.9208 9.17084 28.3493 9.66526C28.7778 10.1531 29.1041 10.7299 29.3282 11.3957C29.5524 12.055 29.6645 12.7703 29.6645 13.5416V13.769C29.6645 14.5403 29.5524 15.2556 29.3282 15.9148C29.1041 16.574 28.7778 17.1509 28.3493 17.6453C27.9208 18.1331 27.4 18.5155 26.7869 18.7923C26.1738 19.0626 25.4783 19.1978 24.7004 19.1978C23.9159 19.1978 23.2139 19.0626 22.5942 18.7923C21.9811 18.5155 21.4603 18.1331 21.0318 17.6453C20.6033 17.1509 20.277 16.574 20.0528 15.9148C19.8287 15.2556 19.7166 14.5403 19.7166 13.769ZM22.0998 13.5416V13.769C22.0998 14.2502 22.1492 14.7051 22.2481 15.1336C22.347 15.5621 22.5019 15.9379 22.7128 16.2609C22.9238 16.5839 23.1941 16.8377 23.5237 17.0223C23.8533 17.2069 24.2456 17.2992 24.7004 17.2992C25.1421 17.2992 25.5245 17.2069 25.8475 17.0223C26.1771 16.8377 26.4474 16.5839 26.6584 16.2609C26.8693 15.9379 27.0242 15.5621 27.1231 15.1336C27.2286 14.7051 27.2813 14.2502 27.2813 13.769V13.5416C27.2813 13.0669 27.2286 12.6186 27.1231 12.1967C27.0242 11.7682 26.866 11.3892 26.6485 11.0595C26.4375 10.7299 26.1672 10.4728 25.8376 10.2882C25.5146 10.0971 25.1289 10.0015 24.6807 10.0015C24.2324 10.0015 23.8434 10.0971 23.5138 10.2882C23.1908 10.4728 22.9238 10.7299 22.7128 11.0595C22.5019 11.3892 22.347 11.7682 22.2481 12.1967C22.1492 12.6186 22.0998 13.0669 22.0998 13.5416ZM37.6642 16.1027C37.6642 15.8653 37.6049 15.6511 37.4863 15.4599C37.3676 15.2622 37.1402 15.0842 36.8039 14.9259C36.4743 14.7677 35.9865 14.6227 35.3404 14.4908C34.7735 14.3656 34.2527 14.2173 33.7781 14.0459C33.31 13.8679 32.9079 13.6536 32.5717 13.4031C32.2355 13.1526 31.9751 12.856 31.7905 12.5131C31.6059 12.1703 31.5136 11.7748 31.5136 11.3265C31.5136 10.8914 31.6092 10.4794 31.8004 10.0905C31.9915 9.70152 32.2651 9.35872 32.6211 9.06207C32.9771 8.76541 33.4089 8.53138 33.9165 8.35998C34.4307 8.18858 35.0042 8.10288 35.6371 8.10288C36.5337 8.10288 37.3017 8.25451 37.9411 8.55775C38.5872 8.85441 39.0816 9.25984 39.4244 9.77404C39.7672 10.2816 39.9386 10.8552 39.9386 11.4946H37.5555C37.5555 11.2112 37.483 10.9475 37.3379 10.7036C37.1995 10.453 36.9885 10.252 36.7051 10.1004C36.4216 9.94214 36.0656 9.86303 35.6371 9.86303C35.2284 9.86303 34.8889 9.92896 34.6186 10.0608C34.3549 10.1861 34.1571 10.3509 34.0253 10.5552C33.9 10.7596 33.8374 10.9837 33.8374 11.2276C33.8374 11.4056 33.8704 11.5672 33.9363 11.7122C34.0088 11.8506 34.1275 11.9792 34.2923 12.0978C34.4571 12.2099 34.6812 12.3154 34.9647 12.4143C35.2547 12.5131 35.6173 12.6087 36.0524 12.701C36.8699 12.8724 37.572 13.0933 38.1587 13.3636C38.752 13.6273 39.2068 13.9701 39.5233 14.392C39.8397 14.8073 39.9979 15.3347 39.9979 15.9741C39.9979 16.4488 39.8957 16.8839 39.6914 17.2794C39.4936 17.6683 39.2036 18.0079 38.8212 18.2979C38.4388 18.5814 37.9807 18.8022 37.4467 18.9604C36.9193 19.1187 36.326 19.1978 35.6668 19.1978C34.6977 19.1978 33.877 19.0264 33.2045 18.6836C32.5321 18.3342 32.0212 17.8892 31.6718 17.3486C31.329 16.8015 31.1576 16.2345 31.1576 15.6478H33.4616C33.488 16.0895 33.61 16.4422 33.8275 16.7059C34.0516 16.963 34.3285 17.1509 34.6581 17.2695C34.9944 17.3816 35.3404 17.4376 35.6964 17.4376C36.1249 17.4376 36.4842 17.3816 36.7743 17.2695C37.0643 17.1509 37.2852 16.9926 37.4368 16.7949C37.5884 16.5905 37.6642 16.3598 37.6642 16.1027ZM46.8012 19.1978C46.0101 19.1978 45.2949 19.0692 44.6554 18.8121C44.0225 18.5484 43.482 18.1826 43.0337 17.7145C42.592 17.2464 42.2525 16.696 42.0152 16.0631C41.7779 15.4303 41.6592 14.7479 41.6592 14.0162V13.6207C41.6592 12.7834 41.7812 12.0253 42.0251 11.3463C42.269 10.6673 42.6085 10.0872 43.0436 9.60593C43.4787 9.1181 43.9929 8.74563 44.5862 8.48853C45.1795 8.23143 45.8222 8.10288 46.5144 8.10288C47.2792 8.10288 47.9483 8.23143 48.5218 8.48853C49.0953 8.74563 49.57 9.10821 49.9458 9.57627C50.3281 10.0377 50.6116 10.5882 50.7962 11.2276C50.9873 11.8671 51.0829 12.5725 51.0829 13.3438V14.3623H42.8161V12.6516H48.7295V12.4637C48.7163 12.0352 48.6306 11.6331 48.4724 11.2573C48.3207 10.8815 48.0867 10.5783 47.7703 10.3476C47.4539 10.1168 47.0319 10.0015 46.5046 10.0015C46.109 10.0015 45.7563 10.0872 45.4465 10.2586C45.1432 10.4234 44.8894 10.664 44.6851 10.9804C44.4807 11.2969 44.3225 11.6792 44.2104 12.1275C44.1049 12.5692 44.0522 13.0669 44.0522 13.6207V14.0162C44.0522 14.4843 44.1148 14.9193 44.2401 15.3215C44.3719 15.717 44.5631 16.0631 44.8136 16.3598C45.0641 16.6564 45.3674 16.8905 45.7234 17.0619C46.0794 17.2267 46.4848 17.3091 46.9396 17.3091C47.5132 17.3091 48.0241 17.1937 48.4724 16.963C48.9206 16.7322 49.3096 16.4059 49.6392 15.984L50.895 17.2003C50.6643 17.5365 50.3644 17.8595 49.9952 18.1694C49.626 18.4726 49.1744 18.7198 48.6405 18.911C48.1131 19.1022 47.5 19.1978 46.8012 19.1978Z" fill="#383874"/>
<path d="M89.0004 12.0057C89.0004 15.1167 89.001 18.2283 89.0004 21.3393C89.0004 22.2423 88.2485 23 87.3507 23C81.1203 23.0006 74.8893 23.0006 68.659 23C67.7618 23 67.0041 22.2423 67.0041 21.3432C67.0035 15.1128 67.0035 8.88187 67.0041 2.65153C67.0041 1.76718 67.7644 1.00439 68.6442 1.00439C74.8829 1.00375 81.1216 1.00375 87.3597 1.00439C88.2421 1.00439 88.9997 1.76332 88.9997 2.64767C89.001 5.76702 89.0004 8.88637 89.0004 12.0057ZM78.0042 21.3117C80.8656 21.3117 83.7271 21.3117 86.5879 21.3117C87.0818 21.3117 87.3121 21.0846 87.3121 20.5971C87.3121 14.8665 87.3121 9.13592 87.3121 3.40532C87.3121 2.92745 87.0805 2.69205 86.611 2.69205C80.8721 2.69205 75.1337 2.69205 69.3948 2.69205C68.9259 2.69205 68.6925 2.92874 68.6925 3.40403C68.6925 9.13463 68.6925 14.8652 68.6925 20.5958C68.6925 21.0763 68.9324 21.3117 69.4199 21.3117C72.2813 21.3117 75.1427 21.3117 78.0042 21.3117Z" fill="#383874" fill-opacity="0.85"/>
<path d="M83.6509 16.3911C83.6516 16.9056 83.3609 17.3636 82.8939 17.5501C82.382 17.754 81.9093 17.6742 81.5156 17.2845C80.419 16.1982 79.3315 15.1035 78.24 14.012C78.0027 13.7747 78.0027 13.7747 77.7744 14.0037C76.6771 15.1009 75.5844 16.2014 74.4814 17.2928C73.7912 17.9759 72.6593 17.6987 72.3866 16.7867C72.2399 16.2959 72.3647 15.8682 72.7249 15.5074C73.833 14.3986 74.938 13.2872 76.0539 12.1861C76.2082 12.0337 76.198 11.961 76.05 11.815C74.9296 10.7075 73.8144 9.59479 72.7062 8.4744C72.0315 7.792 72.3017 6.67418 73.2027 6.39183C73.7018 6.23554 74.1353 6.36224 74.5026 6.72949C75.6107 7.83766 76.7221 8.94326 77.8245 10.0579C77.9641 10.1987 78.0342 10.2064 78.1783 10.0611C79.2916 8.9349 80.4094 7.81322 81.5362 6.70055C82.216 6.02844 83.3403 6.30822 83.6149 7.21058C83.7674 7.71032 83.6368 8.14188 83.2689 8.50913C82.1652 9.61087 81.0661 10.7171 79.9573 11.8137C79.8132 11.9565 79.7913 12.0285 79.9495 12.1848C81.0545 13.2737 82.1466 14.3754 83.2458 15.4707C83.5024 15.7267 83.6516 16.0245 83.6509 16.3911Z" fill="#3CCB93"/>
</svg>
