<svg width="272" height="56" viewBox="0 0 272 56" fill="none" xmlns="http://www.w3.org/2000/svg">
<path d="M58.3102 19.0024H64.001C65.2239 19.0024 66.2663 19.1866 67.1282 19.5549C67.9901 19.9232 68.6494 20.4684 69.1061 21.1903C69.5702 21.9049 69.8023 22.7889 69.8023 23.8423C69.8023 24.6453 69.655 25.3525 69.3603 25.9639C69.0656 26.5754 68.6494 27.0911 68.1116 27.511C67.5739 27.9235 66.933 28.2439 66.1889 28.4723L65.3491 28.8812H60.2329L60.2108 26.6822H64.0452C64.7082 26.6822 65.2607 26.5643 65.7027 26.3286C66.1447 26.0929 66.4762 25.7724 66.6972 25.3672C66.9256 24.9547 67.0398 24.4906 67.0398 23.9749C67.0398 23.4151 66.9293 22.9289 66.7083 22.5163C66.4946 22.0964 66.1631 21.776 65.7138 21.555C65.2644 21.3266 64.6935 21.2124 64.001 21.2124H61.0838V35.0913H58.3102V19.0024ZM67.4928 35.0913L63.7137 27.8646L66.6199 27.8535L70.4543 34.9477V35.0913H67.4928ZM77.5705 35.3123C76.6865 35.3123 75.8872 35.1687 75.1726 34.8814C74.4654 34.5867 73.8614 34.1778 73.3604 33.6548C72.8669 33.1318 72.4875 32.5166 72.2223 31.8094C71.9571 31.1022 71.8245 30.3398 71.8245 29.5221V29.0801C71.8245 28.1445 71.9607 27.2973 72.2333 26.5385C72.5059 25.7798 72.8853 25.1315 73.3715 24.5937C73.8577 24.0486 74.4323 23.6324 75.0953 23.3451C75.7583 23.0578 76.4765 22.9141 77.25 22.9141C78.1046 22.9141 78.8523 23.0578 79.4932 23.3451C80.1341 23.6324 80.6645 24.0375 81.0844 24.5606C81.5117 25.0763 81.8285 25.6914 82.0347 26.4059C82.2484 27.1205 82.3552 27.9088 82.3552 28.7707V29.9088H73.1173V27.9972H79.7253V27.7872C79.7105 27.3084 79.6148 26.859 79.438 26.4391C79.2685 26.0192 79.007 25.6803 78.6534 25.4225C78.2998 25.1647 77.8283 25.0357 77.239 25.0357C76.797 25.0357 76.4029 25.1315 76.0566 25.323C75.7178 25.5072 75.4342 25.7761 75.2058 26.1297C74.9774 26.4833 74.8006 26.9106 74.6754 27.4115C74.5575 27.9051 74.4986 28.4613 74.4986 29.0801V29.5221C74.4986 30.0451 74.5686 30.5313 74.7085 30.9807C74.8559 31.4227 75.0695 31.8094 75.3494 32.1409C75.6294 32.4724 75.9682 32.734 76.366 32.9255C76.7638 33.1097 77.2169 33.2017 77.7252 33.2017C78.3661 33.2017 78.937 33.0728 79.438 32.815C79.9389 32.5572 80.3735 32.1925 80.7419 31.721L82.1452 33.0802C81.8874 33.4559 81.5522 33.8169 81.1397 34.1631C80.7271 34.502 80.2225 34.7782 79.6258 34.9919C79.0365 35.2055 78.3514 35.3123 77.5705 35.3123ZM87.1067 25.4335V39.6881H84.4436V23.1351H86.8968L87.1067 25.4335ZM94.897 29.0027V29.2348C94.897 30.104 94.7939 30.9107 94.5876 31.6547C94.3887 32.3914 94.0904 33.036 93.6926 33.5885C93.3021 34.1336 92.8196 34.5572 92.245 34.8593C91.6704 35.1613 91.0074 35.3123 90.256 35.3123C89.512 35.3123 88.86 35.176 88.3001 34.9035C87.7476 34.6235 87.2798 34.2294 86.8968 33.7211C86.5137 33.2128 86.2043 32.6161 85.9686 31.931C85.7402 31.2385 85.5781 30.4797 85.4824 29.6547V28.7596C85.5781 27.883 85.7402 27.0874 85.9686 26.3728C86.2043 25.6582 86.5137 25.0431 86.8968 24.5274C87.2798 24.0118 87.7476 23.614 88.3001 23.334C88.8526 23.0541 89.4972 22.9141 90.2339 22.9141C90.9853 22.9141 91.652 23.0615 92.234 23.3561C92.8159 23.6434 93.3058 24.056 93.7036 24.5937C94.1014 25.1241 94.3998 25.765 94.5987 26.5164C94.7976 27.2605 94.897 28.0892 94.897 29.0027ZM92.234 29.2348V29.0027C92.234 28.4502 92.1824 27.9382 92.0793 27.4668C91.9761 26.9879 91.8141 26.568 91.593 26.207C91.372 25.8461 91.0884 25.5661 90.7422 25.3672C90.4033 25.161 89.9945 25.0578 89.5156 25.0578C89.0442 25.0578 88.639 25.1389 88.3001 25.3009C87.9613 25.4556 87.6776 25.673 87.4493 25.9529C87.2209 26.2328 87.0441 26.5606 86.9189 26.9364C86.7936 27.3047 86.7052 27.7062 86.6537 28.1408V30.2845C86.7421 30.8149 86.8931 31.3011 87.1067 31.7431C87.3204 32.1851 87.6224 32.5387 88.0128 32.8039C88.4106 33.0618 88.9189 33.1907 89.5377 33.1907C90.0166 33.1907 90.4254 33.0876 90.7643 32.8813C91.1032 32.675 91.3794 32.3914 91.593 32.0304C91.8141 31.6621 91.9761 31.2385 92.0793 30.7597C92.1824 30.2808 92.234 29.7725 92.234 29.2348ZM96.654 29.2458V28.9917C96.654 28.1298 96.7792 27.3305 97.0297 26.5938C97.2802 25.8498 97.6411 25.2052 98.1126 24.66C98.5914 24.1075 99.1734 23.6803 99.8585 23.3782C100.551 23.0688 101.332 22.9141 102.201 22.9141C103.078 22.9141 103.859 23.0688 104.544 23.3782C105.236 23.6803 105.822 24.1075 106.301 24.66C106.78 25.2052 107.144 25.8498 107.395 26.5938C107.645 27.3305 107.77 28.1298 107.77 28.9917V29.2458C107.77 30.1077 107.645 30.907 107.395 31.6437C107.144 32.3804 106.78 33.0249 106.301 33.5774C105.822 34.1226 105.24 34.5499 104.555 34.8593C103.87 35.1613 103.092 35.3123 102.223 35.3123C101.347 35.3123 100.562 35.1613 99.8696 34.8593C99.1844 34.5499 98.6025 34.1226 98.1236 33.5774C97.6448 33.0249 97.2802 32.3804 97.0297 31.6437C96.7792 30.907 96.654 30.1077 96.654 29.2458ZM99.3171 28.9917V29.2458C99.3171 29.7836 99.3723 30.2919 99.4828 30.7707C99.5933 31.2496 99.7664 31.6695 100.002 32.0304C100.238 32.3914 100.54 32.675 100.908 32.8813C101.277 33.0876 101.715 33.1907 102.223 33.1907C102.717 33.1907 103.144 33.0876 103.505 32.8813C103.873 32.675 104.175 32.3914 104.411 32.0304C104.647 31.6695 104.82 31.2496 104.93 30.7707C105.048 30.2919 105.107 29.7836 105.107 29.2458V28.9917C105.107 28.4613 105.048 27.9603 104.93 27.4889C104.82 27.01 104.643 26.5864 104.4 26.2181C104.164 25.8498 103.862 25.5625 103.494 25.3562C103.133 25.1426 102.702 25.0357 102.201 25.0357C101.7 25.0357 101.266 25.1426 100.897 25.3562C100.536 25.5625 100.238 25.8498 100.002 26.2181C99.7664 26.5864 99.5933 27.01 99.4828 27.4889C99.3723 27.9603 99.3171 28.4613 99.3171 28.9917ZM112.677 25.4114V35.0913H110.014V23.1351H112.555L112.677 25.4114ZM116.334 23.0578L116.312 25.533C116.15 25.5035 115.973 25.4814 115.782 25.4667C115.597 25.452 115.413 25.4446 115.229 25.4446C114.772 25.4446 114.371 25.5109 114.025 25.6435C113.678 25.7687 113.387 25.9529 113.152 26.196C112.923 26.4317 112.747 26.719 112.621 27.0579C112.496 27.3968 112.422 27.7762 112.4 28.1961L111.793 28.2403C111.793 27.4889 111.866 26.7927 112.014 26.1518C112.161 25.5109 112.382 24.9473 112.677 24.4611C112.979 23.9749 113.354 23.5955 113.804 23.323C114.26 23.0504 114.787 22.9141 115.384 22.9141C115.546 22.9141 115.719 22.9289 115.903 22.9583C116.095 22.9878 116.238 23.0209 116.334 23.0578ZM124.036 23.1351V25.0799H117.296V23.1351H124.036ZM119.24 20.2069H121.903V31.7873C121.903 32.1557 121.955 32.4393 122.058 32.6382C122.169 32.8297 122.32 32.9586 122.511 33.0249C122.703 33.0912 122.927 33.1244 123.185 33.1244C123.369 33.1244 123.546 33.1133 123.716 33.0912C123.885 33.0691 124.021 33.047 124.124 33.0249L124.136 35.0582C123.915 35.1245 123.657 35.1834 123.362 35.235C123.075 35.2865 122.743 35.3123 122.368 35.3123C121.756 35.3123 121.215 35.2055 120.743 34.9919C120.272 34.7709 119.903 34.4136 119.638 33.92C119.373 33.4264 119.24 32.7708 119.24 31.9531V20.2069ZM132.799 31.8536C132.799 31.5884 132.732 31.349 132.6 31.1354C132.467 30.9144 132.213 30.7155 131.837 30.5387C131.469 30.3619 130.924 30.1998 130.202 30.0525C129.568 29.9125 128.987 29.7468 128.456 29.5552C127.933 29.3563 127.484 29.1169 127.108 28.837C126.732 28.557 126.441 28.2255 126.235 27.8425C126.029 27.4594 125.926 27.0174 125.926 26.5164C125.926 26.0302 126.032 25.5698 126.246 25.1352C126.46 24.7006 126.765 24.3175 127.163 23.986C127.561 23.6545 128.044 23.393 128.611 23.2014C129.185 23.0099 129.826 22.9141 130.534 22.9141C131.535 22.9141 132.394 23.0836 133.108 23.4224C133.83 23.7539 134.383 24.207 134.766 24.7816C135.149 25.3488 135.34 25.9897 135.34 26.7043H132.677C132.677 26.3875 132.596 26.0929 132.434 25.8203C132.279 25.5404 132.044 25.3157 131.727 25.1462C131.41 24.9694 131.012 24.881 130.534 24.881C130.077 24.881 129.697 24.9547 129.395 25.102C129.101 25.242 128.88 25.4262 128.732 25.6545C128.592 25.8829 128.522 26.1334 128.522 26.4059C128.522 26.6048 128.559 26.7853 128.633 26.9474C128.714 27.1021 128.847 27.2458 129.031 27.3784C129.215 27.5036 129.465 27.6215 129.782 27.732C130.106 27.8425 130.511 27.9493 130.998 28.0524C131.911 28.2439 132.696 28.4907 133.351 28.7928C134.014 29.0874 134.523 29.4705 134.876 29.942C135.23 30.4061 135.407 30.9954 135.407 31.71C135.407 32.2404 135.292 32.7266 135.064 33.1686C134.843 33.6032 134.519 33.9826 134.092 34.3068C133.664 34.6235 133.152 34.8703 132.556 35.0471C131.966 35.2239 131.303 35.3123 130.567 35.3123C129.484 35.3123 128.567 35.1208 127.815 34.7377C127.064 34.3473 126.493 33.85 126.102 33.2459C125.719 32.6345 125.528 32.001 125.528 31.3453H128.103C128.132 31.8389 128.268 32.233 128.511 32.5277C128.762 32.815 129.071 33.0249 129.44 33.1575C129.815 33.2828 130.202 33.3454 130.6 33.3454C131.079 33.3454 131.48 33.2828 131.804 33.1575C132.128 33.0249 132.375 32.8481 132.545 32.6271C132.714 32.3988 132.799 32.1409 132.799 31.8536Z" fill="white"/>
<path d="M25.5593 42.1828C25.0867 41.9648 24.923 41.5935 24.9465 41.0804C24.9759 40.4309 24.9634 39.7785 24.948 39.1275C24.9428 38.9205 24.9972 38.8743 25.2019 38.875C28.6594 38.8823 32.1169 38.8809 35.5744 38.8794C36.8133 38.8787 37.7828 38.158 38.0837 37.0189C38.1549 36.751 38.1652 36.4773 38.1652 36.2013C38.1637 30.5707 38.1659 24.9393 38.1578 19.3087C38.1571 19.0518 38.229 18.9975 38.4712 19.0033C39.1677 19.0202 39.8649 19.0077 40.5622 19.0099C41.1295 19.0114 41.4664 19.3476 41.4664 19.9171C41.4671 27.0339 41.4656 34.1508 41.4693 41.2669C41.4693 41.7454 41.2308 42.025 40.8066 42.1828C35.7242 42.1828 30.6418 42.1828 25.5593 42.1828Z" fill="white"/>
<path d="M20 25.6143C20 22.0739 20 18.5334 20 14.993C20 14.309 20.3068 14 20.9849 14C25.8369 14 30.6888 14 35.5415 14C36.2013 14 36.5132 14.3141 36.5132 14.9783C36.5132 22.0687 36.5132 29.1584 36.5132 36.2488C36.5132 36.913 36.2006 37.2286 35.5423 37.2286C30.6808 37.2286 25.82 37.2286 20.9585 37.2286C20.3185 37.2286 20.0007 36.9079 20.0007 36.2635C20 32.7135 20 29.1643 20 25.6143ZM28.2559 21.486C26.642 21.486 25.0288 21.4875 23.4149 21.4845C23.208 21.4838 23.0142 21.5132 22.841 21.6321C22.5474 21.8324 22.4131 22.1928 22.5085 22.5223C22.623 22.9171 22.9276 23.1373 23.3753 23.1373C26.6207 23.1381 29.8668 23.1381 33.1122 23.1373C33.6649 23.1373 34.0399 22.7961 34.0355 22.3043C34.0311 21.8133 33.6576 21.4875 33.0968 21.4867C31.4829 21.4853 29.869 21.486 28.2559 21.486ZM28.2559 24.7886C26.642 24.7886 25.0288 24.7901 23.4149 24.7872C23.208 24.7864 23.0142 24.8158 22.841 24.934C22.5474 25.1343 22.4124 25.4947 22.5078 25.8235C22.6201 26.2103 22.9217 26.4378 23.3467 26.4385C25.0061 26.4407 26.6655 26.4392 28.3249 26.4392C29.9292 26.4392 31.5336 26.4378 33.1387 26.44C33.5137 26.4407 33.7992 26.2925 33.9585 25.9504C34.2212 25.3883 33.8051 24.7894 33.1511 24.7886C31.5204 24.7864 29.8881 24.7886 28.2559 24.7886ZM28.2544 28.0913C26.6405 28.0913 25.0274 28.0928 23.4135 28.0898C23.2065 28.0891 23.0127 28.1192 22.8395 28.2381C22.5467 28.4392 22.4124 28.7995 22.5085 29.1283C22.6238 29.5232 22.9276 29.7419 23.376 29.7426C26.6214 29.7434 29.8676 29.7434 33.113 29.7426C33.6649 29.7426 34.0407 29.3999 34.0348 28.9082C34.0297 28.4179 33.6561 28.092 33.0946 28.092C31.4815 28.0906 29.8683 28.0913 28.2544 28.0913ZM25.7782 18.1834C24.9899 18.1834 24.2017 18.1826 23.4135 18.1834C22.8564 18.1841 22.4807 18.5151 22.4777 19.0039C22.4748 19.4941 22.8513 19.8347 23.4032 19.8347C24.9885 19.8361 26.5745 19.8361 28.1597 19.8347C28.7117 19.8339 29.0867 19.4927 29.0815 19.0009C29.0764 18.5195 28.7065 18.1856 28.17 18.1841C27.373 18.1819 26.5752 18.1834 25.7782 18.1834ZM31.5651 31.3939C31.0242 31.3939 30.4841 31.3903 29.9432 31.3947C29.4544 31.3991 29.0896 31.7477 29.0823 32.2064C29.0749 32.6768 29.4434 33.0416 29.9446 33.0438C31.0169 33.0482 32.0884 33.0475 33.1607 33.0438C33.6686 33.0423 34.0355 32.6901 34.0348 32.2181C34.0348 31.7455 33.6678 31.3976 33.1585 31.3939C32.6279 31.391 32.0965 31.3939 31.5651 31.3939Z" fill="#3CCB93"/>
<path d="M28.2558 21.4861C29.8696 21.4861 31.4828 21.4854 33.0967 21.4861C33.6574 21.4861 34.031 21.8127 34.0354 22.3037C34.0398 22.7954 33.6648 23.1367 33.1121 23.1367C29.8667 23.1374 26.6206 23.1374 23.3752 23.1367C22.9275 23.1367 22.6229 22.9165 22.5084 22.5217C22.413 22.1929 22.5473 21.8325 22.8409 21.6314C23.0141 21.5132 23.2078 21.4839 23.4148 21.4839C25.028 21.4876 26.6419 21.4861 28.2558 21.4861Z" fill="white"/>
<path d="M28.2557 24.7889C29.8879 24.7889 31.5194 24.7867 33.1517 24.7896C33.8056 24.7911 34.2217 25.3892 33.959 25.9514C33.7997 26.2934 33.5135 26.4409 33.1392 26.4409C31.5348 26.4387 29.9305 26.4402 28.3254 26.4402C26.666 26.4402 25.0066 26.4417 23.3472 26.4395C22.9223 26.4387 22.6206 26.2112 22.5083 25.8244C22.4129 25.4956 22.548 25.1346 22.8415 24.9349C23.0147 24.8168 23.2085 24.7874 23.4155 24.7881C25.0286 24.7903 26.6425 24.7889 28.2557 24.7889Z" fill="white"/>
<path d="M28.2544 28.0916C29.8683 28.0916 31.4815 28.0908 33.0954 28.0916C33.6568 28.0916 34.0304 28.4174 34.0355 28.9077C34.0407 29.3994 33.6656 29.7421 33.1137 29.7421C29.8683 29.7429 26.6222 29.7429 23.3768 29.7421C22.9284 29.7421 22.6245 29.5234 22.5093 29.1279C22.4131 28.7991 22.5474 28.4387 22.8403 28.2376C23.0135 28.1187 23.2072 28.0894 23.4142 28.0894C25.0274 28.093 26.6405 28.0916 28.2544 28.0916Z" fill="white"/>
<path d="M25.778 18.1836C26.575 18.1836 27.3728 18.1821 28.1699 18.1843C28.7064 18.1858 29.0762 18.5197 29.0814 19.0012C29.0865 19.4929 28.7108 19.8349 28.1596 19.8349C26.5743 19.8364 24.9883 19.8364 23.403 19.8349C22.8504 19.8342 22.4746 19.4944 22.4776 19.0041C22.4805 18.5153 22.857 18.1851 23.4133 18.1843C24.2015 18.1829 24.9898 18.1836 25.778 18.1836Z" fill="white"/>
<path d="M31.5647 31.3938C32.0961 31.3938 32.6274 31.3909 33.1588 31.3946C33.6681 31.3983 34.0344 31.7461 34.0351 32.2188C34.0351 32.6907 33.6681 33.043 33.161 33.0444C32.0887 33.0481 31.0172 33.0488 29.945 33.0444C29.4444 33.0422 29.076 32.6775 29.0826 32.207C29.0892 31.7483 29.4547 31.3997 29.9435 31.3953C30.4837 31.3902 31.0246 31.3938 31.5647 31.3938Z" fill="white"/>
<path d="M244.202 19.0913L242.108 21.2063L248.907 28.0913L242.108 34.9763L244.202 37.0913L253.108 28.0913L244.202 19.0913Z" fill="#3CCB93"/>
</svg>
