<svg width="184" height="163" viewBox="0 0 184 163" fill="none" xmlns="http://www.w3.org/2000/svg">
<circle cx="91" cy="67" r="40" fill="#241F35"/>
<path d="M100.044 45.1743C100.568 45.3738 101.093 45.5658 101.452 46.0409C101.755 46.4405 101.964 46.8747 101.966 47.3791C101.974 50.6113 101.97 53.8435 101.983 57.0757C101.985 57.404 101.793 57.3437 101.606 57.3443C99.4326 57.3449 97.2596 57.3449 95.0861 57.3449C90.8929 57.3449 86.6992 57.3408 82.506 57.3525C82.1567 57.3537 82.0391 57.2951 82.042 56.9078C82.0614 53.8845 82.0526 50.8611 82.0532 47.8378C82.0532 46.4031 82.5136 45.7454 83.8651 45.2404C83.8833 45.2334 83.8909 45.1971 83.9031 45.1743C89.2834 45.1743 94.6637 45.1743 100.044 45.1743Z" fill="white"/>
<path d="M92.0134 58.7404C98.1033 58.7404 104.193 58.7404 110.283 58.7404C112.085 58.7404 113.007 59.6632 113.007 61.4648C113.007 66.7607 113.008 72.0567 113.006 77.3532C113.006 78.6411 112.347 79.5433 111.193 79.8277C110.98 79.8803 110.752 79.8926 110.531 79.8926C108.19 79.8973 105.849 79.8903 103.508 79.902C103.221 79.9032 103.134 79.8394 103.137 79.5404C103.154 78.0214 103.154 76.5018 103.137 74.9829C103.134 74.6833 103.22 74.6049 103.509 74.6189C104.01 74.6429 104.513 74.633 105.014 74.623C105.518 74.6125 105.836 74.3182 105.844 73.8776C105.853 73.42 105.527 73.1093 104.999 73.1064C103.731 73.0988 102.463 73.1034 101.194 73.1034C93.892 73.1034 86.5898 73.1034 79.2876 73.1034C78.5358 73.1034 78.1818 73.3521 78.1865 73.8746C78.1917 74.3931 78.5369 74.6254 79.3045 74.6259C79.7363 74.6259 80.1687 74.6353 80.6005 74.6218C80.8087 74.6154 80.893 74.6634 80.8912 74.8951C80.8813 76.4697 80.8819 78.0448 80.8912 79.62C80.8924 79.84 80.831 79.9014 80.6116 79.9002C78.173 79.8915 75.7339 79.9084 73.2953 79.8839C72.0971 79.8716 71.168 78.9681 71.041 77.7757C71.0276 77.651 71.0247 77.5252 71.0247 77.4C71.0241 72.0198 71.0229 66.6402 71.0258 61.2606C71.0264 60.0417 71.6758 59.133 72.7494 58.8399C73.0589 58.7556 73.3796 58.7393 73.7019 58.7393C79.8053 58.741 85.9094 58.7404 92.0134 58.7404ZM103.558 65.2815C104.269 65.2815 104.98 65.2909 105.69 65.2792C106.503 65.2657 106.949 64.8128 106.969 64.0036C106.973 63.8363 106.971 63.6689 106.969 63.5022C106.964 62.5443 106.521 62.1014 105.557 62.099C104.359 62.0961 103.161 62.0984 101.962 62.0984C100.414 62.0984 100.114 62.4051 100.137 63.9673C100.149 64.8005 100.598 65.2663 101.426 65.2792C102.137 65.2903 102.848 65.2815 103.558 65.2815Z" fill="white"/>
<path d="M92.0159 74.6259C95.1922 74.6259 98.3685 74.6312 101.544 74.6183C101.875 74.6171 101.989 74.6721 101.987 75.0378C101.971 78.507 101.98 81.9762 101.977 85.4454C101.975 87.0358 101.016 87.9977 99.4333 87.9983C94.4878 88.0001 89.5422 88.0006 84.5972 87.9983C83.0146 87.9977 82.0557 87.0352 82.0545 85.4442C82.0516 81.975 82.0603 78.5058 82.044 75.0366C82.0422 74.6692 82.1581 74.6165 82.4874 74.6177C85.6632 74.6306 88.8395 74.6259 92.0159 74.6259ZM92.0194 82.5543C93.3007 82.5543 94.5814 82.5537 95.8627 82.5549C96.044 82.5549 96.2237 82.5537 96.3986 82.494C96.6894 82.394 96.8532 82.1915 96.907 81.8925C96.9597 81.6029 96.8485 81.3835 96.6332 81.1951C96.412 81.0014 96.1482 81.0084 95.8843 81.0084C93.3223 81.0078 90.7603 81.0072 88.1983 81.0102C88.0327 81.0102 87.8636 81.0236 87.7016 81.0564C87.3406 81.1295 87.1452 81.3811 87.1247 81.7287C87.103 82.0932 87.2739 82.3776 87.6419 82.4894C87.7981 82.5368 87.9701 82.5514 88.1345 82.552C89.4293 82.5561 90.7246 82.5543 92.0194 82.5543ZM92.0574 77.2642C90.7615 77.2642 89.465 77.2636 88.169 77.2648C87.9613 77.2648 87.746 77.2443 87.5547 77.3444C87.2218 77.5182 87.0738 77.7937 87.1458 78.1706C87.2206 78.562 87.4985 78.7861 87.9625 78.7926C88.7986 78.8037 89.6346 78.7961 90.4713 78.7961C92.2973 78.7961 94.1227 78.7931 95.9487 78.7984C96.3559 78.7996 96.7034 78.7013 96.862 78.2893C97.0702 77.7493 96.6882 77.2736 96.0294 77.2683C94.7054 77.2572 93.3814 77.2642 92.0574 77.2642Z" fill="white"/>
<path d="M80.643 52.468C80.643 53.9718 80.6354 55.4761 80.6494 56.9799C80.6523 57.2648 80.5886 57.3649 80.2873 57.3526C79.6893 57.328 79.0896 57.3368 78.4917 57.3497C78.2758 57.3544 78.2073 57.2923 78.2085 57.07C78.2173 54.6751 78.1991 52.2796 78.2243 49.8847C78.2366 48.6864 79.1399 47.7636 80.3265 47.6179C80.5938 47.5852 80.6512 47.6542 80.6494 47.914C80.6371 49.4318 80.643 50.9502 80.643 52.468Z" fill="white"/>
<path d="M103.388 52.482C103.388 50.9642 103.396 49.4464 103.381 47.9286C103.378 47.639 103.464 47.5857 103.732 47.6226C104.923 47.7847 105.798 48.7057 105.809 49.9122C105.831 52.2931 105.814 54.6745 105.824 57.056C105.825 57.307 105.736 57.3544 105.512 57.3497C104.914 57.3368 104.314 57.3275 103.717 57.3526C103.421 57.3649 103.382 57.2479 103.384 56.9939C103.394 55.4902 103.388 53.9858 103.388 52.482Z" fill="white"/>
<path d="M103.558 65.2816C102.847 65.2816 102.137 65.2904 101.426 65.2793C100.598 65.2658 100.149 64.8006 100.137 63.9674C100.115 62.4046 100.414 62.0985 101.962 62.0985C103.16 62.0985 104.359 62.0962 105.557 62.0991C106.521 62.1015 106.965 62.5444 106.97 63.5023C106.971 63.6696 106.973 63.8369 106.969 64.0037C106.949 64.8129 106.503 65.2664 105.69 65.2793C104.98 65.2904 104.269 65.2816 103.558 65.2816Z" fill="#241F35"/>
<path d="M92.0195 82.5543C90.7248 82.5543 89.4295 82.5566 88.1347 82.5514C87.9697 82.5508 87.7983 82.5361 87.6421 82.4887C87.2741 82.377 87.1032 82.0926 87.1249 81.7281C87.1453 81.3805 87.3408 81.1283 87.7017 81.0558C87.8638 81.023 88.0323 81.0096 88.1985 81.0096C90.7605 81.0066 93.3225 81.0072 95.8845 81.0078C96.149 81.0078 96.4122 81.0008 96.6334 81.1945C96.8487 81.3829 96.9593 81.6023 96.9072 81.8919C96.8528 82.1909 96.689 82.394 96.3988 82.4934C96.2238 82.5537 96.0442 82.5549 95.8629 82.5543C94.5816 82.5531 93.3008 82.5543 92.0195 82.5543Z" fill="#241F35"/>
<path d="M92.0569 77.2641C93.3809 77.2641 94.7049 77.2571 96.029 77.2671C96.6872 77.2723 97.0698 77.748 96.8615 78.2881C96.7024 78.7 96.3548 78.7983 95.9482 78.7971C94.1222 78.7925 92.2968 78.7954 90.4708 78.7948C89.6348 78.7948 88.7981 78.8024 87.962 78.7913C87.4981 78.7854 87.2202 78.5608 87.1453 78.1693C87.0733 77.7925 87.2208 77.5169 87.5543 77.3431C87.7456 77.2431 87.9609 77.2635 88.1686 77.2635C89.4645 77.2635 90.761 77.2641 92.0569 77.2641Z" fill="#241F35"/>
<path d="M48.4766 136.758H45.5156V135.203H48.4766C48.9922 135.203 49.4089 135.12 49.7266 134.953C50.0443 134.786 50.276 134.557 50.4219 134.266C50.5729 133.969 50.6484 133.63 50.6484 133.25C50.6484 132.891 50.5729 132.555 50.4219 132.242C50.276 131.924 50.0443 131.669 49.7266 131.477C49.4089 131.284 48.9922 131.188 48.4766 131.188H46.1172V141H44.1562V129.625H48.4766C49.3568 129.625 50.1042 129.781 50.7188 130.094C51.3385 130.401 51.8099 130.828 52.1328 131.375C52.4557 131.917 52.6172 132.536 52.6172 133.234C52.6172 133.969 52.4557 134.599 52.1328 135.125C51.8099 135.651 51.3385 136.055 50.7188 136.336C50.1042 136.617 49.3568 136.758 48.4766 136.758ZM56.0781 134.156V141H54.1953V132.547H55.9922L56.0781 134.156ZM58.6641 132.492L58.6484 134.242C58.5339 134.221 58.4089 134.206 58.2734 134.195C58.1432 134.185 58.013 134.18 57.8828 134.18C57.5599 134.18 57.276 134.227 57.0312 134.32C56.7865 134.409 56.5807 134.539 56.4141 134.711C56.2526 134.878 56.1276 135.081 56.0391 135.32C55.9505 135.56 55.8984 135.828 55.8828 136.125L55.4531 136.156C55.4531 135.625 55.5052 135.133 55.6094 134.68C55.7135 134.227 55.8698 133.828 56.0781 133.484C56.2917 133.141 56.5573 132.872 56.875 132.68C57.1979 132.487 57.5703 132.391 57.9922 132.391C58.1068 132.391 58.2292 132.401 58.3594 132.422C58.4948 132.443 58.5964 132.466 58.6641 132.492ZM61.8594 132.547V141H59.9688V132.547H61.8594ZM59.8438 130.328C59.8438 130.042 59.9375 129.805 60.125 129.617C60.3177 129.424 60.5833 129.328 60.9219 129.328C61.2552 129.328 61.5182 129.424 61.7109 129.617C61.9036 129.805 62 130.042 62 130.328C62 130.609 61.9036 130.844 61.7109 131.031C61.5182 131.219 61.2552 131.312 60.9219 131.312C60.5833 131.312 60.3177 131.219 60.125 131.031C59.9375 130.844 59.8438 130.609 59.8438 130.328ZM65.7891 134.352V141H63.9062V132.547H65.6797L65.7891 134.352ZM65.4531 136.461L64.8438 136.453C64.849 135.854 64.9323 135.305 65.0938 134.805C65.2604 134.305 65.4896 133.875 65.7812 133.516C66.0781 133.156 66.4323 132.88 66.8438 132.688C67.2552 132.49 67.7135 132.391 68.2188 132.391C68.625 132.391 68.9922 132.448 69.3203 132.562C69.6536 132.672 69.9375 132.852 70.1719 133.102C70.4115 133.352 70.5938 133.677 70.7188 134.078C70.8438 134.474 70.9062 134.961 70.9062 135.539V141H69.0156V135.531C69.0156 135.125 68.9557 134.805 68.8359 134.57C68.7214 134.331 68.5521 134.161 68.3281 134.062C68.1094 133.958 67.8359 133.906 67.5078 133.906C67.1849 133.906 66.8958 133.974 66.6406 134.109C66.3854 134.245 66.1693 134.43 65.9922 134.664C65.8203 134.898 65.6875 135.169 65.5938 135.477C65.5 135.784 65.4531 136.112 65.4531 136.461ZM76.7031 132.547V133.922H71.9375V132.547H76.7031ZM73.3125 130.477H75.1953V138.664C75.1953 138.924 75.2318 139.125 75.3047 139.266C75.3828 139.401 75.4896 139.492 75.625 139.539C75.7604 139.586 75.9193 139.609 76.1016 139.609C76.2318 139.609 76.3568 139.602 76.4766 139.586C76.5964 139.57 76.6927 139.555 76.7656 139.539L76.7734 140.977C76.6172 141.023 76.4349 141.065 76.2266 141.102C76.0234 141.138 75.7891 141.156 75.5234 141.156C75.0911 141.156 74.7083 141.081 74.375 140.93C74.0417 140.773 73.7812 140.521 73.5938 140.172C73.4062 139.823 73.3125 139.359 73.3125 138.781V130.477ZM89.0469 137.297H91C90.9375 138.042 90.7292 138.706 90.375 139.289C90.0208 139.867 89.5234 140.323 88.8828 140.656C88.2422 140.99 87.4635 141.156 86.5469 141.156C85.8438 141.156 85.2109 141.031 84.6484 140.781C84.0859 140.526 83.6042 140.167 83.2031 139.703C82.8021 139.234 82.4948 138.669 82.2812 138.008C82.0729 137.346 81.9688 136.607 81.9688 135.789V134.844C81.9688 134.026 82.0755 133.286 82.2891 132.625C82.5078 131.964 82.8203 131.398 83.2266 130.93C83.6328 130.456 84.1198 130.094 84.6875 129.844C85.2604 129.594 85.9036 129.469 86.6172 129.469C87.5234 129.469 88.2891 129.635 88.9141 129.969C89.5391 130.302 90.0234 130.763 90.3672 131.352C90.7161 131.94 90.9297 132.615 91.0078 133.375H89.0547C89.0026 132.885 88.888 132.466 88.7109 132.117C88.5391 131.768 88.2839 131.503 87.9453 131.32C87.6068 131.133 87.1641 131.039 86.6172 131.039C86.1693 131.039 85.7786 131.122 85.4453 131.289C85.112 131.456 84.8333 131.701 84.6094 132.023C84.3854 132.346 84.2161 132.745 84.1016 133.219C83.9922 133.688 83.9375 134.224 83.9375 134.828V135.789C83.9375 136.362 83.987 136.883 84.0859 137.352C84.1901 137.815 84.3464 138.214 84.5547 138.547C84.7682 138.88 85.0391 139.138 85.3672 139.32C85.6953 139.503 86.0885 139.594 86.5469 139.594C87.1042 139.594 87.5547 139.505 87.8984 139.328C88.2474 139.151 88.5104 138.893 88.6875 138.555C88.8698 138.211 88.9896 137.792 89.0469 137.297ZM94.4531 129V141H92.5781V129H94.4531ZM94.125 136.461L93.5156 136.453C93.5208 135.87 93.6016 135.331 93.7578 134.836C93.9193 134.341 94.1432 133.911 94.4297 133.547C94.7214 133.177 95.0703 132.893 95.4766 132.695C95.8828 132.492 96.3333 132.391 96.8281 132.391C97.2448 132.391 97.6198 132.448 97.9531 132.562C98.2917 132.677 98.5833 132.862 98.8281 133.117C99.0729 133.367 99.2578 133.695 99.3828 134.102C99.513 134.503 99.5781 134.992 99.5781 135.57V141H97.6875V135.555C97.6875 135.148 97.6276 134.826 97.5078 134.586C97.3932 134.346 97.224 134.174 97 134.07C96.776 133.961 96.5026 133.906 96.1797 133.906C95.8411 133.906 95.5417 133.974 95.2812 134.109C95.026 134.245 94.8125 134.43 94.6406 134.664C94.4688 134.898 94.3385 135.169 94.25 135.477C94.1667 135.784 94.125 136.112 94.125 136.461ZM105.211 141.156C104.586 141.156 104.021 141.055 103.516 140.852C103.016 140.643 102.589 140.354 102.234 139.984C101.885 139.615 101.617 139.18 101.43 138.68C101.242 138.18 101.148 137.641 101.148 137.062V136.75C101.148 136.089 101.245 135.49 101.438 134.953C101.63 134.417 101.898 133.958 102.242 133.578C102.586 133.193 102.992 132.898 103.461 132.695C103.93 132.492 104.438 132.391 104.984 132.391C105.589 132.391 106.117 132.492 106.57 132.695C107.023 132.898 107.398 133.185 107.695 133.555C107.997 133.919 108.221 134.354 108.367 134.859C108.518 135.365 108.594 135.922 108.594 136.531V137.336H102.062V135.984H106.734V135.836C106.724 135.497 106.656 135.18 106.531 134.883C106.411 134.586 106.227 134.346 105.977 134.164C105.727 133.982 105.393 133.891 104.977 133.891C104.664 133.891 104.385 133.958 104.141 134.094C103.901 134.224 103.701 134.414 103.539 134.664C103.378 134.914 103.253 135.216 103.164 135.57C103.081 135.919 103.039 136.312 103.039 136.75V137.062C103.039 137.432 103.089 137.776 103.188 138.094C103.292 138.406 103.443 138.68 103.641 138.914C103.839 139.148 104.078 139.333 104.359 139.469C104.641 139.599 104.961 139.664 105.32 139.664C105.773 139.664 106.177 139.573 106.531 139.391C106.885 139.208 107.193 138.951 107.453 138.617L108.445 139.578C108.263 139.844 108.026 140.099 107.734 140.344C107.443 140.583 107.086 140.779 106.664 140.93C106.247 141.081 105.763 141.156 105.211 141.156ZM115.211 144.25V134.227L115.43 132.547H117.109V144.25H115.211ZM109.719 136.859V136.695C109.719 136.055 109.792 135.471 109.938 134.945C110.083 134.414 110.299 133.958 110.586 133.578C110.872 133.198 111.221 132.906 111.633 132.703C112.044 132.495 112.518 132.391 113.055 132.391C113.576 132.391 114.029 132.49 114.414 132.688C114.805 132.885 115.133 133.169 115.398 133.539C115.669 133.904 115.885 134.339 116.047 134.844C116.208 135.349 116.326 135.911 116.398 136.531V137.055C116.331 137.659 116.216 138.211 116.055 138.711C115.893 139.211 115.677 139.643 115.406 140.008C115.135 140.372 114.805 140.656 114.414 140.859C114.023 141.057 113.565 141.156 113.039 141.156C112.513 141.156 112.044 141.049 111.633 140.836C111.221 140.622 110.872 140.323 110.586 139.938C110.305 139.547 110.089 139.091 109.938 138.57C109.792 138.044 109.719 137.474 109.719 136.859ZM111.602 136.695V136.859C111.602 137.245 111.635 137.607 111.703 137.945C111.776 138.279 111.891 138.576 112.047 138.836C112.203 139.091 112.401 139.292 112.641 139.438C112.88 139.583 113.169 139.656 113.508 139.656C113.951 139.656 114.312 139.56 114.594 139.367C114.88 139.174 115.099 138.917 115.25 138.594C115.406 138.266 115.516 137.904 115.578 137.508V136.094C115.542 135.786 115.477 135.5 115.383 135.234C115.289 134.964 115.159 134.729 114.992 134.531C114.831 134.328 114.628 134.172 114.383 134.062C114.143 133.948 113.857 133.891 113.523 133.891C113.185 133.891 112.893 133.964 112.648 134.109C112.404 134.255 112.203 134.458 112.047 134.719C111.896 134.974 111.784 135.271 111.711 135.609C111.638 135.948 111.602 136.31 111.602 136.695ZM124.211 139.008V132.547H126.102V141H124.32L124.211 139.008ZM124.477 137.25L125.109 137.234C125.109 137.802 125.047 138.326 124.922 138.805C124.797 139.279 124.604 139.693 124.344 140.047C124.083 140.396 123.75 140.669 123.344 140.867C122.938 141.06 122.451 141.156 121.883 141.156C121.471 141.156 121.094 141.096 120.75 140.977C120.406 140.857 120.109 140.672 119.859 140.422C119.615 140.172 119.424 139.846 119.289 139.445C119.154 139.044 119.086 138.565 119.086 138.008V132.547H120.969V138.023C120.969 138.331 121.005 138.589 121.078 138.797C121.151 139 121.25 139.164 121.375 139.289C121.5 139.414 121.646 139.503 121.812 139.555C121.979 139.607 122.156 139.633 122.344 139.633C122.88 139.633 123.302 139.529 123.609 139.32C123.922 139.107 124.143 138.82 124.273 138.461C124.409 138.102 124.477 137.698 124.477 137.25ZM131.758 141.156C131.133 141.156 130.568 141.055 130.062 140.852C129.562 140.643 129.135 140.354 128.781 139.984C128.432 139.615 128.164 139.18 127.977 138.68C127.789 138.18 127.695 137.641 127.695 137.062V136.75C127.695 136.089 127.792 135.49 127.984 134.953C128.177 134.417 128.445 133.958 128.789 133.578C129.133 133.193 129.539 132.898 130.008 132.695C130.477 132.492 130.984 132.391 131.531 132.391C132.135 132.391 132.664 132.492 133.117 132.695C133.57 132.898 133.945 133.185 134.242 133.555C134.544 133.919 134.768 134.354 134.914 134.859C135.065 135.365 135.141 135.922 135.141 136.531V137.336H128.609V135.984H133.281V135.836C133.271 135.497 133.203 135.18 133.078 134.883C132.958 134.586 132.773 134.346 132.523 134.164C132.273 133.982 131.94 133.891 131.523 133.891C131.211 133.891 130.932 133.958 130.688 134.094C130.448 134.224 130.247 134.414 130.086 134.664C129.924 134.914 129.799 135.216 129.711 135.57C129.628 135.919 129.586 136.312 129.586 136.75V137.062C129.586 137.432 129.635 137.776 129.734 138.094C129.839 138.406 129.99 138.68 130.188 138.914C130.385 139.148 130.625 139.333 130.906 139.469C131.188 139.599 131.508 139.664 131.867 139.664C132.32 139.664 132.724 139.573 133.078 139.391C133.432 139.208 133.74 138.951 134 138.617L134.992 139.578C134.81 139.844 134.573 140.099 134.281 140.344C133.99 140.583 133.633 140.779 133.211 140.93C132.794 141.081 132.31 141.156 131.758 141.156Z" fill="#241F35"/>
</svg>
