<svg width="52" height="52" viewBox="0 0 52 52" fill="none" xmlns="http://www.w3.org/2000/svg">
<g filter="url(#filter0_d_41_1936)">
<circle cx="26" cy="22" r="22" fill="#3CCB93"/>
</g>
<path d="M31.1399 33.4498C31.1292 33.5624 31.0317 33.5849 30.9535 33.6159C30.0389 33.9781 29.0981 34.2465 28.1279 34.4147C27.7748 34.4758 27.4116 34.4646 27.066 34.5717C26.3695 34.5717 25.6731 34.5717 24.9766 34.5717C24.7446 34.4726 24.4933 34.5064 24.2522 34.4705C23.7192 34.3901 23.1882 34.3054 22.6728 34.1431C22.6734 34.0092 22.6777 33.8752 22.6728 33.7413C22.6653 33.5307 22.7457 33.4418 22.9723 33.4429C25.695 33.4498 28.4177 33.4488 31.1399 33.4498Z" fill="#E5FBFE"/>
<path d="M31.1402 33.4498C28.4175 33.4488 25.6948 33.4498 22.9726 33.4429C22.746 33.4423 22.6656 33.5313 22.6731 33.7413C22.6779 33.8752 22.6737 34.0092 22.6731 34.1431C22.0447 33.9888 21.4227 33.8163 20.8516 33.5002C20.9212 33.4182 21.0166 33.4488 21.1018 33.4482C21.5379 33.4456 21.9745 33.4354 22.4106 33.452C22.6292 33.4606 22.6919 33.3829 22.6769 33.1771C22.6613 32.9644 22.6731 32.7501 22.6731 32.5364C23.1976 32.5364 23.7227 32.5316 24.2472 32.5401C24.4229 32.5433 24.5049 32.5042 24.499 32.306C24.4861 31.8704 24.4861 31.4343 24.499 30.9988C24.5049 30.8005 24.4224 30.762 24.2472 30.7646C23.7227 30.7732 23.1976 30.7684 22.6731 30.7684C22.6737 30.4646 22.6737 30.1603 22.6742 29.8565C23.218 29.8571 23.7623 29.8506 24.3056 29.8614C24.4899 29.8646 24.5563 29.8099 24.5515 29.6197C24.5397 29.1831 24.5477 28.7459 24.5472 28.3093C25.0412 28.05 25.5383 27.7955 25.8925 27.3417C25.9402 27.3037 25.9884 27.2651 26.0361 27.2271C26.9999 27.2287 27.9642 27.2271 28.9281 27.2356C29.1027 27.2372 29.1622 27.1821 29.1584 27.0063C29.1482 26.5783 29.1461 26.1491 29.159 25.7211C29.1649 25.5244 29.1086 25.4564 28.9045 25.4596C28.2353 25.4703 27.5656 25.4623 26.8965 25.4612C26.9195 25.159 26.942 24.8569 26.9651 24.5547C27.6165 24.5547 28.2675 24.5504 28.9189 24.5569C29.0818 24.5585 29.1643 24.5253 29.1595 24.3377C29.1482 23.892 29.1504 23.4457 29.159 23C29.1622 22.8376 29.107 22.7819 28.9436 22.7835C28.1142 22.7921 27.2844 22.7916 26.455 22.7942C26.2541 22.5205 26.0661 22.2365 25.8314 21.9885C25.916 21.8893 26.0307 21.9311 26.1325 21.9306C27.0588 21.9274 27.9851 21.9252 28.9114 21.9317C29.0899 21.9327 29.1665 21.8899 29.1606 21.6949C29.1477 21.2588 29.1499 20.8221 29.16 20.386C29.1643 20.2098 29.1027 20.1567 28.9291 20.1578C27.8335 20.1642 26.7384 20.1647 25.6428 20.1572C25.4515 20.1556 25.3985 20.2221 25.4033 20.4042C25.414 20.805 25.4065 21.2057 25.406 21.6065C25.1188 21.449 24.8317 21.292 24.5451 21.1345C24.5467 20.9132 24.5429 20.6914 24.5504 20.4707C24.5579 20.2521 24.4824 20.1503 24.2423 20.1567C23.7205 20.1712 23.1976 20.1615 22.6753 20.1621C22.6753 19.8583 22.6747 19.5545 22.6747 19.2502C23.1992 19.2508 23.7237 19.2422 24.2477 19.2556C24.4524 19.2609 24.5065 19.1897 24.5006 18.9947C24.4877 18.5682 24.4877 18.1412 24.5006 17.7153C24.5065 17.5187 24.4272 17.4769 24.2499 17.4801C23.7259 17.4897 23.2014 17.4844 22.6769 17.4849C22.6763 17.1983 22.6763 16.9111 22.6758 16.6245C23.2175 16.625 23.7591 16.6202 24.3007 16.6288C24.4754 16.6315 24.5568 16.5945 24.5531 16.3957C24.5408 15.748 24.5461 15.0997 24.5445 14.4515C24.8333 14.4145 25.1226 14.4295 25.4119 14.4429C25.4103 15.0928 25.4151 15.7426 25.4033 16.3925C25.3996 16.5875 25.4746 16.6304 25.653 16.6293C26.739 16.6229 27.8255 16.6229 28.9114 16.6293C29.0888 16.6304 29.1654 16.5891 29.1616 16.393C29.1499 15.7432 29.1547 15.0933 29.1531 14.4434C29.4418 14.4434 29.7311 14.4429 30.0199 14.4429C30.0183 15.0837 30.0264 15.7244 30.0103 16.3646C30.0049 16.5859 30.0842 16.6315 30.2867 16.6298C31.3545 16.6213 32.4222 16.625 33.4905 16.6245C33.4139 16.9117 33.3373 17.1994 33.2607 17.4865C32.2631 17.4854 31.265 17.4892 30.2674 17.479C30.0655 17.4769 30.0049 17.5396 30.0119 17.7378C30.0258 18.138 30.029 18.5398 30.0108 18.94C30.0001 19.179 30.0633 19.2615 30.3178 19.2577C31.2709 19.2422 32.2245 19.2513 33.1777 19.2513C33.1252 19.5642 33.0282 19.8647 32.9323 20.1658C32.0317 20.1642 31.1311 20.1658 30.2305 20.1589C30.0692 20.1578 30.0097 20.2087 30.0135 20.3732C30.0221 20.783 30.0312 21.1945 30.0108 21.6032C29.9985 21.8551 30.0655 21.9413 30.3307 21.936C31.0346 21.9204 31.7392 21.9365 32.4437 21.9402C32.4051 22.1181 32.3671 22.2954 32.3285 22.4733C32.291 22.5783 32.2535 22.6828 32.2165 22.7878C31.5586 22.7878 30.9007 22.7921 30.2428 22.7841C30.0692 22.7819 30.0092 22.8371 30.013 23.0123C30.0231 23.4478 30.0242 23.8834 30.0124 24.319C30.0071 24.5097 30.0756 24.5617 30.2583 24.559C30.756 24.5515 31.2538 24.5622 31.7515 24.5654C31.6722 24.866 31.5934 25.166 31.5141 25.4666C31.0882 25.466 30.6618 25.4703 30.2358 25.4634C30.0821 25.4607 30.0103 25.5009 30.0135 25.6712C30.0226 26.1239 30.0226 26.5767 30.0135 27.0294C30.0103 27.2008 30.0831 27.241 30.2364 27.2362C30.5026 27.2281 30.7689 27.234 31.0352 27.2346C30.9945 27.5298 30.8927 27.8089 30.8123 28.0934C30.6087 28.0928 30.4046 28.0971 30.2015 28.0902C30.0639 28.0853 30.0124 28.14 30.0151 28.2771C30.021 28.6045 30.0167 28.9324 30.0167 29.2602C30.0167 29.8565 30.0167 29.8565 30.6109 29.8614C30.6243 30.0039 30.6382 30.1464 30.6516 30.2889C30.5792 30.4421 30.6017 30.6232 30.5069 30.7695C30.4448 30.7695 30.381 30.778 30.3199 30.7684C30.0687 30.7282 29.999 30.837 30.0113 31.0791C30.0306 31.4611 30.0296 31.8453 30.0113 32.2273C30.0001 32.4657 30.0628 32.5498 30.3178 32.545C31.1991 32.5283 32.081 32.5385 32.9628 32.538C32.5674 32.8884 32.0756 33.0721 31.6191 33.317C31.4675 33.3947 31.3181 33.4729 31.1402 33.4498ZM27.2522 29.8576C27.8137 29.8576 28.3752 29.8539 28.9366 29.8603C29.0925 29.8619 29.1616 29.8196 29.1584 29.6503C29.1493 29.196 29.1509 28.7411 29.1579 28.2868C29.16 28.1336 29.1006 28.0875 28.9532 28.088C27.8389 28.0918 26.725 28.0928 25.6107 28.0869C25.4387 28.0859 25.4012 28.1577 25.4033 28.3109C25.4103 28.7566 25.4114 29.2024 25.4028 29.6476C25.3996 29.8142 25.4623 29.8624 25.6214 29.8603C26.1652 29.8528 26.709 29.8576 27.2522 29.8576ZM27.3079 17.4817C26.7459 17.4817 26.1839 17.486 25.6219 17.479C25.4633 17.4769 25.399 17.5235 25.4023 17.6912C25.4114 18.1369 25.4124 18.5832 25.4017 19.029C25.3974 19.2111 25.4692 19.2534 25.6375 19.2529C26.7256 19.247 27.8137 19.2475 28.9018 19.2524C29.0829 19.2529 29.1606 19.1918 29.1574 19.0043C29.1493 18.5671 29.1493 18.13 29.1579 17.6933C29.1611 17.5278 29.1006 17.4774 28.9398 17.4796C28.3966 17.486 27.8523 17.4817 27.3079 17.4817ZM27.2479 30.7673C26.7127 30.7673 26.178 30.7716 25.6428 30.7646C25.481 30.7625 25.3969 30.7941 25.4017 30.9827C25.413 31.4284 25.4103 31.8742 25.4028 32.3199C25.4001 32.4791 25.4489 32.5401 25.6155 32.5391C26.7031 32.5332 27.7912 32.5332 28.8788 32.5396C29.0561 32.5407 29.1102 32.4796 29.1065 32.3076C29.0968 31.8801 29.0941 31.4515 29.1075 31.0239C29.1134 30.8273 29.0572 30.7582 28.853 30.763C28.3178 30.7759 27.7831 30.7673 27.2479 30.7673Z" fill="#CBEAFE"/>
<path d="M33.4951 8.96254C34.2805 8.96254 35.0665 8.96147 35.8519 8.96307C36.4075 8.96415 36.7086 9.26631 36.7102 9.81814C36.7134 11.1838 36.7172 12.5494 36.7204 13.915C36.7166 14.3715 36.7129 14.828 36.7086 15.2844C36.6261 15.2218 36.5436 15.1596 36.4611 15.0969C36.4659 14.8344 36.4005 14.5933 36.1798 14.4363C36.0469 14.342 36.0534 14.2461 36.0909 14.1149C36.1519 13.9022 36.2382 13.6938 36.2334 13.4661L36.2285 13.4672C36.2446 13.4484 36.2602 13.4302 36.2762 13.4114C36.3078 13.3005 36.3496 13.1918 36.37 13.0787C36.4252 12.7701 36.2414 12.4862 35.9258 12.3774C35.673 12.2906 35.3687 12.4208 35.2294 12.6817C35.1624 12.8076 35.1136 12.941 35.1013 13.0852C35.0124 13.3889 34.924 13.6932 34.835 13.997C34.7638 13.997 34.6925 13.9976 34.6213 13.9976C34.6213 13.5427 34.6213 13.0873 34.6207 12.6325C34.6207 12.0512 34.5334 11.9617 33.9623 11.9617C30.938 11.9617 27.9136 11.9617 24.8893 11.9622C24.7736 11.9622 24.6579 11.9692 24.5421 11.9729C23.9191 11.9644 23.2954 11.9558 22.6724 11.9472C22.6729 11.3006 22.6745 10.6539 22.6734 10.0078C22.6729 9.56901 22.7725 9.1838 23.2103 8.97379C23.326 8.97165 23.4417 8.97057 23.5574 8.9679C24.2689 8.95182 24.9815 9.00218 25.6924 8.93896C25.8167 8.94647 25.9405 8.96093 26.0648 8.96093C28.5415 8.96307 31.0183 8.96254 33.4951 8.96254Z" fill="#E5FBFE"/>
<path d="M23.2108 8.97479C22.7731 9.18534 22.6734 9.57002 22.674 10.0088C22.675 10.6555 22.6734 11.3021 22.6729 11.9482L22.675 11.9707C21.9019 11.968 21.1288 11.9627 20.3558 11.9648C20.0536 11.9659 19.8993 12.1165 19.8966 12.4304C19.8913 13.1055 19.9009 13.781 19.9041 14.4561C19.8993 14.5006 19.8902 14.5445 19.8902 14.589C19.8913 17.2361 19.8929 19.8833 19.8945 22.5304C19.7498 22.7978 19.6052 23.0657 19.4605 23.333C18.9119 23.1792 18.3569 23.1926 17.7991 23.2644C17.7986 19.1932 17.7986 15.122 17.7981 11.0508C17.7981 10.6313 17.7959 10.2118 17.7991 9.79235C17.8023 9.27321 18.1136 8.96515 18.6365 8.96301C19.7605 8.95765 20.8851 8.95497 22.0091 8.95068C22.4098 8.95926 22.81 8.96676 23.2108 8.97479Z" fill="#CBEAFE"/>
<path d="M14.8126 28.2441C14.5308 27.9446 14.3818 27.5653 14.205 27.2058C13.2251 25.2144 12.7858 23.1024 12.8828 20.8898C12.9937 18.3546 13.7668 16.0337 15.2294 13.9507C15.2449 13.9716 15.268 13.9898 15.2744 14.0134C16.1 17.0998 16.924 20.1863 17.7485 23.2728C17.7121 23.2905 17.6751 23.3087 17.6387 23.3264C17.621 23.3253 17.6022 23.3205 17.5856 23.3242C15.7769 23.7196 14.4638 25.5835 14.6765 27.4324C14.7081 27.7067 14.7901 27.9698 14.8126 28.2441Z" fill="#3CCB93"/>
<path d="M14.8125 28.244C14.79 27.9697 14.7075 27.7067 14.6759 27.4318C14.4632 25.5829 15.7758 23.7196 17.5851 23.3237C17.6017 23.3199 17.6204 23.3247 17.6381 23.3258C17.3959 23.6767 17.426 24.0132 17.6911 24.3379C17.659 24.4279 17.5722 24.4316 17.5004 24.4648C17.0857 24.6561 16.6989 24.8838 16.4032 25.2481C15.9205 25.8423 15.7206 26.5119 15.7549 27.2781C15.7876 28.0099 16.0887 28.6233 16.6004 29.0921C17.2947 29.7281 18.1449 29.9895 19.0938 29.7988C19.5968 29.6975 20.0426 29.48 20.3838 29.0702C20.1862 29.0943 19.9949 29.1034 19.8026 29.1109C19.5941 29.1189 19.389 29.0857 19.1955 29.0386C17.3118 28.58 16.4707 26.4921 17.4243 24.8875C17.5379 24.6968 17.7254 24.5613 17.7951 24.3443C18.2778 24.2393 18.7611 24.2923 19.2438 24.3411C19.1607 25.9317 19.7672 27.1725 21.1194 28.034C21.0326 28.3265 20.8832 28.5901 20.6807 28.8109C20.5355 28.9694 20.4814 29.128 20.5606 29.3134C20.6474 29.5159 20.7964 29.6649 21.0326 29.6943C21.1173 29.705 21.2121 29.6659 21.2828 29.7458C21.2598 29.7806 21.2362 29.8159 21.2132 29.8508C20.8119 30.1985 20.3742 30.4878 19.8818 30.6903C19.2036 30.9303 18.5082 30.9785 17.7988 30.8783C17.3868 30.7589 16.9738 30.6421 16.6009 30.4197C16.528 30.3763 16.46 30.3083 16.3603 30.3356C15.7142 29.7929 15.1919 29.1548 14.8436 28.3796C14.8217 28.3319 14.8608 28.2794 14.8125 28.244Z" fill="#F3B401"/>
<path d="M36.7633 28.9454C36.4686 29.4416 36.0829 29.868 35.702 30.2961C35.4309 30.6004 35.1287 30.8768 34.8394 31.1645C34.7773 31.2262 34.7242 31.3033 34.623 31.3049C34.6224 28.3808 34.6213 25.4566 34.6213 22.533C34.6213 22.4553 34.5988 22.3707 34.6653 22.3048C35.0183 22.5984 35.351 22.5175 35.4903 22.0883C35.6028 21.7428 35.6912 21.3886 35.7861 21.0377C36.0432 20.0868 36.2988 19.1353 36.5549 18.1838C36.6438 18.0514 36.6031 17.873 36.7092 17.7466C36.7124 17.88 36.7172 18.0134 36.7178 18.1473C36.7231 19.109 36.7279 20.0712 36.7328 21.0329C36.7403 21.0634 36.7478 21.094 36.7547 21.124C36.7628 21.1577 36.7708 21.1915 36.7788 21.2252C36.6669 21.3029 36.7113 21.4202 36.7113 21.521C36.7086 23.9029 36.7092 26.2854 36.7108 28.6674C36.7119 28.7617 36.6754 28.8662 36.7633 28.9454Z" fill="#E5FBFE"/>
<path d="M17.749 23.2719C16.9245 20.1854 16.1005 17.0989 15.2749 14.0124C15.2685 13.9894 15.2454 13.9706 15.2299 13.9497C15.1736 13.4617 14.9722 13.0084 14.8865 12.5268C14.8232 12.1732 15.0043 11.8051 15.352 11.7012C16.1605 11.4596 16.9754 11.2383 17.7983 11.0508C17.7988 15.122 17.7988 19.1932 17.7994 23.2644C17.7838 23.2761 17.7667 23.2788 17.749 23.2719Z" fill="#B7DEF3"/>
<path d="M36.7341 21.0331C36.7293 20.0714 36.7245 19.1092 36.7191 18.1475C36.7186 18.0141 36.7138 17.8807 36.7105 17.7468C36.7797 17.4639 36.8311 17.1751 36.9206 16.8992C37.1081 16.3233 37.07 15.7848 36.7095 15.2844C36.7132 14.828 36.717 14.3715 36.7213 13.915C37.3304 14.7031 37.7794 15.5812 38.1533 16.4984C38.9698 18.4995 39.265 20.5814 39.0598 22.7309C38.9457 23.924 38.6741 25.0839 38.2267 26.1993C38.2112 26.2385 38.1839 26.2722 38.1619 26.3086C38.0167 25.7691 37.8731 25.2291 37.7263 24.6896C37.4118 23.5345 37.0958 22.3805 36.7807 21.2254C36.7727 21.1917 36.7647 21.1579 36.7566 21.1241C36.7491 21.0941 36.7416 21.0636 36.7341 21.0331Z" fill="#3CCB93"/>
<path d="M34.6653 22.3049C34.5989 22.3708 34.6214 22.4555 34.6214 22.5332C34.6214 25.4573 34.6219 28.3815 34.623 31.3051C34.3792 31.5901 34.0781 31.8044 33.7631 32.0016C33.7631 31.6914 33.7636 31.3811 33.7631 31.0709C33.7625 30.7366 33.7427 30.7173 33.3966 30.7152C32.7585 30.7109 32.121 30.7066 31.4829 30.7023C31.4915 30.6375 31.5006 30.5732 31.5092 30.5089C31.7058 30.3268 31.7792 30.0621 31.9421 29.8575C32.466 29.8575 32.99 29.8489 33.514 29.8618C33.717 29.8666 33.7738 29.7985 33.7679 29.6024C33.755 29.1765 33.755 28.7495 33.7679 28.3236C33.7738 28.1302 33.7004 28.0804 33.5204 28.0857C33.2193 28.0943 32.9171 28.0809 32.6155 28.0766C32.6659 27.7878 32.7312 27.5023 32.8394 27.2285C33.0698 27.2296 33.3013 27.2199 33.5306 27.2349C33.7245 27.2478 33.7738 27.168 33.7674 26.988C33.7561 26.6515 33.7641 26.3145 33.7641 25.9775C33.7641 25.5227 33.7642 25.5227 33.3313 25.4091C33.3672 25.131 33.4497 24.8653 33.5531 24.606C33.6591 24.6081 33.7604 24.5856 33.7583 24.4576C33.755 24.2765 33.8086 24.0901 33.7197 23.9154C33.8043 23.5757 33.8884 23.2355 33.9731 22.8959C34.0117 22.7593 34.0486 22.6221 34.0899 22.486C34.2581 21.9272 34.3572 21.3492 34.5689 20.8032C34.661 20.8916 34.608 21.0052 34.6219 21.107C34.6449 21.2709 34.5737 21.444 34.6664 21.6015C34.6021 21.8362 34.4997 22.0708 34.6653 22.3049Z" fill="#CBEAFE"/>
<path d="M36.7794 21.2256C37.095 22.3801 37.4106 23.5347 37.725 24.6898C37.8718 25.2293 38.0154 25.7693 38.1606 26.3088C38.0701 26.6908 37.8777 27.0316 37.7025 27.376C37.4261 27.9204 37.1148 28.4459 36.7628 28.9463C36.6755 28.867 36.7114 28.762 36.7114 28.6688C36.7093 26.2869 36.7093 23.9044 36.7119 21.5224C36.7125 21.4211 36.668 21.3038 36.7794 21.2256Z" fill="#CBEAFE"/>
<path d="M19.8818 30.6921C20.3742 30.4895 20.8124 30.2002 21.2132 29.8525C21.7002 29.8536 22.1872 29.8547 22.6742 29.8558C22.6736 30.1595 22.6736 30.4638 22.6731 30.7676C22.1304 30.7676 21.5882 30.7724 21.0455 30.7639C20.8698 30.7612 20.7873 30.7992 20.7937 30.998C20.8065 31.4335 20.8065 31.8697 20.7937 32.3052C20.7878 32.504 20.8703 32.542 21.046 32.5393C21.5882 32.5308 22.1309 32.5356 22.6736 32.5356C22.6736 32.7494 22.6619 32.9637 22.6774 33.1764C22.6924 33.3826 22.6297 33.4598 22.4111 33.4512C21.9756 33.4346 21.5389 33.4448 21.1023 33.4474C21.0171 33.448 20.9217 33.4174 20.8521 33.4994C20.498 33.4046 20.1738 33.2487 19.8845 33.0221C19.8834 32.2458 19.8824 31.4689 19.8818 30.6921Z" fill="#B7DEF3"/>
<path d="M31.4821 30.7017C32.1202 30.7059 32.7578 30.7102 33.3959 30.7145C33.742 30.7167 33.7618 30.7359 33.7623 31.0703C33.7628 31.3805 33.7623 31.6907 33.7623 32.0009C33.5218 32.22 33.2737 32.4279 32.9587 32.535C32.0768 32.535 31.195 32.5254 30.3137 32.542C30.0581 32.5468 29.996 32.4627 30.0072 32.2243C30.0254 31.8423 30.026 31.4581 30.0072 31.0762C29.9949 30.834 30.0645 30.7247 30.3158 30.7654C30.3763 30.7751 30.4401 30.7665 30.5028 30.7665C30.4851 30.8533 30.4674 30.9395 30.4492 31.0263C30.3817 31.3467 30.4915 31.5744 30.7498 31.6494C31.0059 31.7233 31.2196 31.5814 31.3187 31.2642C31.3771 31.0783 31.428 30.8897 31.4821 30.7017Z" fill="#E5FBFE"/>
<path d="M19.8817 30.6924C19.8822 31.4692 19.8833 32.2461 19.8838 33.0229C19.6186 32.9661 19.4065 32.8022 19.1857 32.6624C18.7041 32.358 18.2091 32.0698 17.7949 31.6696C17.796 31.4065 17.7976 31.1435 17.7987 30.8804C18.508 30.9812 19.2034 30.9324 19.8817 30.6924Z" fill="#CBEAFE"/>
<path d="M17.7993 30.8801C17.7982 31.1432 17.7966 31.4062 17.7955 31.6693C17.2668 31.2798 16.7899 30.834 16.3613 30.3368C16.4604 30.3095 16.529 30.3776 16.6019 30.421C16.9742 30.6438 17.3873 30.7606 17.7993 30.8801Z" fill="#3C118E"/>
<path d="M24.5425 11.9746C24.6582 11.9709 24.7739 11.9639 24.8896 11.9639C27.914 11.9634 30.9383 11.9634 33.9626 11.9634C34.5332 11.9634 34.6205 12.0529 34.6211 12.6341C34.6211 13.089 34.6211 13.5444 34.6216 13.9992C34.3977 14.0898 34.2086 14.2237 34.0784 14.4321C33.9718 14.4348 33.8651 14.438 33.7591 14.4407C32.5124 14.4407 31.2651 14.4407 30.0184 14.4407C29.7297 14.4407 29.4403 14.4412 29.1516 14.4412C27.9049 14.4412 26.6576 14.4407 25.4109 14.4407C25.1216 14.4273 24.8323 14.4123 24.5436 14.4493L24.5484 14.4289C24.5462 13.6114 24.5441 12.7927 24.5425 11.9746Z" fill="#3CCB93"/>
<path d="M21.119 28.0356C19.7668 27.1741 19.1603 25.9333 19.2433 24.3426C19.3151 24.0062 19.3874 23.6697 19.4592 23.3333C19.6039 23.0659 19.7485 22.7981 19.8932 22.5307C20.1616 22.1873 20.4563 21.8685 20.7976 21.5958C21.2497 21.3178 21.7035 21.0424 22.2436 20.9663C21.9253 21.426 21.951 21.6633 22.3528 21.9842C22.3518 22.0019 22.3512 22.0191 22.3502 22.0367C22.3057 22.0362 22.2661 22.0453 22.2419 22.0882L22.2425 22.0871C21.7271 22.1691 21.3612 22.4937 21.0236 22.8543C20.2077 23.7254 20.0641 25.1082 20.6872 26.1229C21.2963 27.1157 22.2135 27.5716 23.367 27.4913C24.0105 27.4468 24.5928 27.2057 25.03 26.6962C25.0477 26.6962 25.0648 26.6962 25.0825 26.6957C25.1173 27.1714 25.3225 27.3348 25.892 27.3412C25.5379 27.795 25.0407 28.0495 24.5468 28.3088C23.9414 28.5338 23.3145 28.6056 22.6732 28.5724C22.4825 28.5194 22.2912 28.4669 22.0903 28.4781C21.7667 28.3308 21.4431 28.1834 21.119 28.0356Z" fill="#F8CD01"/>
<path d="M33.5522 24.6062C33.4482 24.8655 33.3657 25.1312 33.3304 25.4093C33.1311 26.0061 32.9752 26.6152 32.838 27.2287C32.7298 27.5025 32.6644 27.7875 32.6146 28.0768C32.4384 28.6881 32.2348 29.2897 31.9417 29.8571C31.7788 30.0618 31.7054 30.3259 31.5088 30.508C31.2109 30.4754 30.9297 30.38 30.6479 30.2862C30.6345 30.1437 30.6205 30.0012 30.6071 29.8587C30.5632 29.2565 30.6982 28.6752 30.8091 28.0907C30.89 27.8062 30.9918 27.5271 31.032 27.2319C31.2222 26.6511 31.3711 26.0586 31.511 25.4644C31.5903 25.1639 31.669 24.8639 31.7483 24.5633C31.916 23.974 32.0923 23.3873 32.2133 22.7857C32.2508 22.6807 32.2883 22.5762 32.3253 22.4712C32.4684 22.8934 32.6987 23.202 33.197 23.2341C33.5259 23.2555 33.7483 23.0857 33.9722 22.8955C33.8876 23.2352 33.8035 23.5754 33.7188 23.915C33.6636 24.146 33.5613 24.3645 33.5522 24.6062Z" fill="#39CE97"/>
<path d="M20.7978 21.5955C20.4565 21.8687 20.1619 22.187 19.8934 22.5304C19.8918 19.8832 19.8902 17.2361 19.8892 14.5889C19.8892 14.5445 19.8983 14.5005 19.9031 14.4561C20.201 14.4636 20.4988 14.4705 20.7973 14.478C20.7973 15.1177 20.8026 15.7574 20.7946 16.3966C20.7924 16.5691 20.846 16.6301 21.0223 16.6269C21.573 16.6173 22.1238 16.6226 22.6745 16.6221C22.6751 16.9087 22.6751 17.1959 22.6756 17.4825L22.6751 17.4831C22.1324 17.4825 21.5896 17.49 21.0475 17.4766C20.8428 17.4713 20.7882 17.542 20.794 17.7375C20.8069 18.164 20.8069 18.5915 20.794 19.018C20.7882 19.2162 20.8701 19.2553 21.0459 19.2521C21.5886 19.2436 22.1313 19.2484 22.6735 19.2484C22.6735 19.5521 22.674 19.8559 22.674 20.1602C22.1484 20.1597 21.6223 20.1747 21.0978 20.1533C20.8374 20.1425 20.7828 20.239 20.7935 20.4731C20.8096 20.8465 20.7978 21.221 20.7978 21.5955Z" fill="#B7DEF3"/>
<path d="M22.3539 21.9841C21.9521 21.6631 21.9264 21.4258 22.2446 20.9661C22.3877 20.9308 22.5312 20.8959 22.6743 20.8606C23.315 20.8306 23.9413 20.9002 24.5441 21.1327C24.8312 21.2903 25.1184 21.4472 25.405 21.6047C25.547 21.7322 25.6884 21.8598 25.8304 21.9873C26.0651 22.2353 26.2531 22.5193 26.454 22.793C26.7449 23.3449 26.9126 23.9326 26.9651 24.5535C26.9421 24.8557 26.9196 25.1579 26.8966 25.46C26.7353 26.1099 26.4594 26.7035 26.0367 27.2259C25.989 27.2639 25.9408 27.3025 25.8931 27.3405C25.3236 27.3341 25.1189 27.1707 25.0836 26.6949C25.704 25.9717 26.0158 25.1568 25.8342 24.1919C25.6236 23.0732 24.7616 22.1871 23.5701 21.9707C23.1565 21.8962 22.7589 21.9626 22.3539 21.9841Z" fill="#FEE502"/>
<path d="M25.4101 14.4414C26.6568 14.4414 27.904 14.4414 29.1507 14.4419C29.1523 15.0918 29.147 15.7417 29.1593 16.3916C29.163 16.5876 29.087 16.6289 28.9091 16.6278C27.8231 16.6214 26.7366 16.6214 25.6506 16.6278C25.4722 16.6289 25.3978 16.5866 25.401 16.391C25.4133 15.7411 25.4085 15.0913 25.4101 14.4414Z" fill="#E5FBFE"/>
<path d="M30.0177 14.441C31.2644 14.441 32.5116 14.441 33.7583 14.4404C33.7969 14.7383 33.701 15.0448 33.8157 15.3378C33.7455 15.7761 33.6057 16.1966 33.4883 16.6226C32.4206 16.6231 31.3523 16.6188 30.2845 16.6279C30.082 16.6295 30.0027 16.584 30.0081 16.3627C30.0241 15.7225 30.0161 15.0817 30.0177 14.441Z" fill="#E5FBFE"/>
<path d="M33.9721 22.8957C33.7482 23.0864 33.5258 23.2557 33.1969 23.2343C32.6986 23.2021 32.4682 22.8935 32.3252 22.4714C32.3638 22.294 32.4018 22.1162 32.4404 21.9383C32.6472 21.3586 32.7865 20.7607 32.9295 20.1639C33.0254 19.8628 33.1224 19.5622 33.1749 19.2493C33.2719 18.9247 33.3683 18.6005 33.4653 18.2759C33.8371 18.4318 34.2244 18.533 34.6204 18.6054C34.7725 18.7163 34.9482 18.6327 35.11 18.6638C34.9332 19.3779 34.6975 20.0771 34.5673 20.803C34.3557 21.3495 34.2566 21.9276 34.0884 22.4858C34.0476 22.6219 34.0107 22.7591 33.9721 22.8957Z" fill="#167952"/>
<path d="M27.2524 29.8576C26.7086 29.8576 26.1648 29.8533 25.6215 29.8603C25.4619 29.8624 25.3997 29.8137 25.403 29.6476C25.4115 29.2018 25.4105 28.7561 25.4035 28.3109C25.4013 28.1576 25.4388 28.0859 25.6108 28.0869C26.7252 28.0928 27.839 28.0917 28.9534 28.088C29.1007 28.0875 29.1602 28.1341 29.1581 28.2868C29.1511 28.7411 29.15 29.1959 29.1586 29.6503C29.1618 29.8201 29.0932 29.8619 28.9368 29.8603C28.3758 29.8533 27.8144 29.8576 27.2524 29.8576Z" fill="#E5FBFE"/>
<path d="M27.3077 17.4818C27.852 17.4818 28.3958 17.4861 28.9402 17.4791C29.1009 17.477 29.1614 17.5273 29.1582 17.6929C29.1496 18.1295 29.1496 18.5672 29.1577 19.0039C29.1609 19.1919 29.0832 19.253 28.9021 19.2519C27.814 19.2471 26.7259 19.2466 25.6378 19.2525C25.4695 19.2535 25.3978 19.2107 25.402 19.0285C25.4128 18.5828 25.4111 18.1365 25.4026 17.6907C25.3994 17.5231 25.4636 17.4764 25.6222 17.4786C26.1842 17.4861 26.7462 17.4818 27.3077 17.4818Z" fill="#E5FBFE"/>
<path d="M25.8302 21.988C25.6882 21.8605 25.5468 21.733 25.4048 21.6055C25.4048 21.2047 25.4129 20.8035 25.4022 20.4033C25.3973 20.2211 25.4504 20.1547 25.6416 20.1563C26.7373 20.1643 27.8323 20.1632 28.9279 20.1568C29.1015 20.1557 29.1626 20.2088 29.1589 20.385C29.1487 20.8211 29.1465 21.2578 29.1594 21.6939C29.1653 21.8894 29.0887 21.9323 28.9103 21.9307C27.984 21.9237 27.0576 21.9264 26.1313 21.9296C26.0301 21.9307 25.9149 21.8884 25.8302 21.988Z" fill="#E5FBFE"/>
<path d="M27.2478 30.7672C27.783 30.7672 28.3177 30.7758 28.8524 30.7629C29.0565 30.7581 29.1128 30.8272 29.1069 31.0238C29.094 31.4514 29.0967 31.88 29.1058 32.3075C29.1096 32.48 29.056 32.5406 28.8781 32.5395C27.7905 32.5331 26.7024 32.5336 25.6148 32.539C25.4482 32.54 25.3995 32.4789 25.4021 32.3198C25.4096 31.8741 25.4123 31.4283 25.4011 30.9826C25.3963 30.7935 25.4804 30.7624 25.6422 30.7645C26.1779 30.7715 26.7131 30.7672 27.2478 30.7672Z" fill="#E5FBFE"/>
<path d="M33.4657 18.2764C33.3687 18.6011 33.2723 18.9252 33.1753 19.2499C32.2222 19.2499 31.2685 19.2408 30.3154 19.2563C30.0604 19.2606 29.9977 19.1781 30.0085 18.9386C30.0267 18.5384 30.0229 18.1366 30.0095 17.7364C30.0026 17.5381 30.0631 17.4754 30.2651 17.4776C31.2627 17.4883 32.2608 17.484 33.2583 17.4851C33.1603 17.7921 33.313 18.0342 33.4657 18.2764Z" fill="#E5FBFE"/>
<path d="M33.4649 18.2765C33.3122 18.0343 33.1595 17.7927 33.2575 17.4852C33.3341 17.198 33.4108 16.9103 33.4874 16.6231C33.6052 16.1972 33.7445 15.7767 33.8147 15.3384C33.9508 15.0507 33.9851 14.733 34.0772 14.4324C34.2074 14.2246 34.3965 14.0901 34.6205 13.9996C34.6917 13.9996 34.763 13.999 34.8343 13.999C35.1236 14.1464 35.4648 14.1351 35.819 14.314C35.4579 14.3178 35.3363 14.5246 35.2704 14.7662C34.9944 15.7842 34.7335 16.8058 34.4528 17.8227C34.3692 18.1243 34.3928 18.3815 34.6194 18.6065C34.224 18.5336 33.8367 18.4319 33.4649 18.2765Z" fill="#3CCB93"/>
<path d="M32.9293 20.1642C32.7863 20.7611 32.647 21.359 32.4402 21.9386C31.7362 21.9354 31.0312 21.9188 30.3272 21.9344C30.062 21.9403 29.9945 21.8535 30.0073 21.6017C30.0277 21.1923 30.0186 20.7814 30.01 20.3716C30.0063 20.2071 30.0657 20.1557 30.227 20.1573C31.1281 20.1642 32.0287 20.1626 32.9293 20.1642Z" fill="#E5FBFE"/>
<path d="M26.0361 27.2265C26.4594 26.7042 26.7353 26.1106 26.896 25.4607C27.5657 25.4618 28.2349 25.4698 28.904 25.4591C29.1081 25.4559 29.1644 25.5234 29.1585 25.7205C29.1456 26.1486 29.1478 26.5777 29.158 27.0058C29.1623 27.1815 29.1023 27.2367 28.9276 27.2351C27.9643 27.2265 27 27.2287 26.0361 27.2265Z" fill="#E5FBFE"/>
<path d="M26.9652 24.554C26.9132 23.933 26.745 23.3453 26.4541 22.7935C27.2834 22.7908 28.1133 22.7913 28.9427 22.7827C29.1061 22.7811 29.1613 22.8363 29.1581 22.9992C29.15 23.4449 29.1473 23.8912 29.1586 24.337C29.1634 24.525 29.0809 24.5577 28.918 24.5561C28.2676 24.5497 27.6167 24.554 26.9652 24.554Z" fill="#E5FBFE"/>
<path d="M24.5439 14.4496C24.5455 15.0978 24.5402 15.7461 24.5525 16.3938C24.5563 16.5926 24.4748 16.6295 24.3002 16.6269C23.7585 16.6183 23.2169 16.6231 22.6752 16.6226C22.6741 15.9073 22.6731 15.1921 22.6715 14.4774L22.665 14.4581C23.2929 14.4485 23.9208 14.4388 24.5487 14.4292L24.5439 14.4496Z" fill="#E5FBFE"/>
<path d="M32.2127 22.786C32.0916 23.3872 31.9153 23.9743 31.7476 24.5637C31.2499 24.5605 30.7522 24.5503 30.2545 24.5572C30.0718 24.5599 30.0032 24.5074 30.0086 24.3172C30.0209 23.8822 30.0193 23.4461 30.0091 23.0105C30.0054 22.8353 30.0654 22.7801 30.239 22.7823C30.8969 22.7903 31.5548 22.786 32.2127 22.786Z" fill="#E5FBFE"/>
<path d="M22.6765 17.483C23.201 17.4825 23.7255 17.4878 24.2494 17.4782C24.4268 17.475 24.5061 17.5168 24.5002 17.7134C24.4873 18.1399 24.4873 18.5668 24.5002 18.9928C24.5061 19.1878 24.4519 19.259 24.2473 19.2537C23.7233 19.2403 23.1988 19.2489 22.6743 19.2483C22.6749 18.6601 22.6754 18.0713 22.6759 17.483C22.6759 17.4836 22.6765 17.483 22.6765 17.483Z" fill="#E5FBFE"/>
<path d="M22.6743 30.7681C23.1988 30.7681 23.7239 30.7729 24.2484 30.7643C24.4241 30.7611 24.5066 30.8002 24.5002 30.9985C24.4873 31.434 24.4873 31.8701 24.5002 32.3057C24.5061 32.5039 24.4236 32.543 24.2484 32.5398C23.7239 32.5307 23.1988 32.5361 22.6743 32.5361C22.6743 31.9462 22.6743 31.3574 22.6743 30.7681Z" fill="#E5FBFE"/>
<path d="M22.6743 28.5727C23.3156 28.6054 23.9424 28.5336 24.5478 28.3091C24.5478 28.7457 24.5398 29.1829 24.5521 29.6195C24.5575 29.8097 24.4911 29.8644 24.3062 29.8612C23.7624 29.851 23.2186 29.8569 22.6749 29.8563C22.6743 29.4283 22.6743 29.0002 22.6743 28.5727Z" fill="#E5FBFE"/>
<path d="M31.511 25.4648C31.3712 26.0595 31.2228 26.6515 31.0321 27.2323C30.7658 27.2323 30.499 27.2258 30.2333 27.2339C30.08 27.2387 30.0066 27.1985 30.0104 27.0271C30.0195 26.5744 30.0195 26.1216 30.0104 25.6689C30.0072 25.4986 30.079 25.4584 30.2327 25.4611C30.6587 25.4686 31.0846 25.4643 31.511 25.4648Z" fill="#E5FBFE"/>
<path d="M24.5441 21.1334C23.9414 20.9003 23.3151 20.8312 22.6743 20.8612C22.6743 20.6276 22.6743 20.3946 22.6743 20.161C23.1967 20.1604 23.7196 20.1701 24.2414 20.1556C24.4814 20.1486 24.557 20.251 24.5495 20.4696C24.542 20.6903 24.5452 20.9121 24.5441 21.1334Z" fill="#E5FBFE"/>
<path d="M30.8085 28.0909C30.6976 28.6754 30.5626 29.2567 30.6066 29.8589C30.0124 29.8541 30.0124 29.8541 30.0124 29.2578C30.0124 28.9299 30.0167 28.6026 30.0108 28.2747C30.0087 28.1375 30.0601 28.0829 30.1972 28.0877C30.4008 28.0947 30.605 28.0904 30.8085 28.0909Z" fill="#E5FBFE"/>
<path d="M30.6486 30.2861C30.9304 30.3804 31.2117 30.4753 31.5095 30.5079C31.501 30.5728 31.4918 30.6371 31.4833 30.7019C31.4292 30.8894 31.3783 31.078 31.3204 31.2644C31.2213 31.5816 31.0081 31.7241 30.7514 31.6496C30.4927 31.5746 30.3828 31.3469 30.4509 31.0265C30.4691 30.9403 30.4868 30.8535 30.5045 30.7667C30.5982 30.621 30.5757 30.4394 30.6486 30.2861Z" fill="#167952"/>
<path d="M34.6211 18.6058C34.3945 18.3807 34.3709 18.1236 34.4545 17.822C34.7352 16.8056 34.9961 15.7834 35.272 14.7655C35.3379 14.5233 35.4596 14.3165 35.8206 14.3133C35.466 14.1349 35.1252 14.1456 34.8359 13.9983C34.9249 13.6945 35.0133 13.3902 35.1022 13.0864C35.271 13.3972 35.4885 13.6334 35.8849 13.5675C36.0039 13.5477 36.118 13.5011 36.2343 13.4663C36.2391 13.694 36.1528 13.9024 36.0917 14.1151C36.0542 14.2458 36.0478 14.3417 36.1807 14.4365C36.4014 14.5935 36.4668 14.8346 36.4619 15.0971C36.4105 15.2857 36.3602 15.4743 36.3076 15.6623C36.1244 16.3197 35.9353 16.9755 35.758 17.6344C35.6567 18.0111 35.8474 18.2291 36.2364 18.2388C36.3532 18.2414 36.44 18.138 36.5557 18.1841C36.2996 19.1356 36.0446 20.0871 35.7869 21.0381C35.6921 21.3895 35.6031 21.7431 35.4912 22.0887C35.3519 22.5178 35.0192 22.5987 34.6661 22.3051C34.5006 22.071 34.6029 21.8364 34.6656 21.6017C34.9543 20.557 35.2436 19.5123 35.5463 18.4161C35.3749 18.5318 35.2576 18.6261 35.1102 18.6642C34.949 18.6336 34.7733 18.7167 34.6211 18.6058Z" fill="#167952"/>
<path d="M24.5488 14.4293C23.9208 14.439 23.2929 14.4486 22.665 14.4582C22.6683 13.6294 22.6715 12.8001 22.6747 11.9707L22.6725 11.9482C23.2956 11.9568 23.9192 11.9654 24.5423 11.974C24.5445 12.7926 24.5466 13.6112 24.5488 14.4293Z" fill="#24A271"/>
<path d="M36.555 18.1842C36.4393 18.1386 36.3525 18.242 36.2357 18.2388C35.8473 18.2292 35.656 18.0111 35.7573 17.6345C35.9346 16.9755 36.1232 16.3198 36.307 15.6624C36.3595 15.4743 36.4098 15.2858 36.4613 15.0972C36.5438 15.1593 36.6263 15.222 36.7088 15.2847C37.0693 15.7851 37.1074 16.323 36.9199 16.8994C36.8299 17.1754 36.7784 17.4641 36.7098 17.747C36.6032 17.8734 36.6445 18.0519 36.555 18.1842Z" fill="#167952"/>
<path d="M36.2336 13.4666C36.1174 13.5009 36.0027 13.548 35.8843 13.5679C35.4878 13.6343 35.2703 13.3975 35.1016 13.0868C35.1139 12.9426 35.1626 12.8092 35.2296 12.6833C35.3689 12.4224 35.6732 12.2917 35.9261 12.379C36.2416 12.4878 36.4254 12.7717 36.3702 13.0803C36.3499 13.1934 36.3086 13.3021 36.2765 13.413C36.2604 13.4318 36.2449 13.45 36.2288 13.4688L36.2336 13.4666Z" fill="#3CCB93"/>
<path d="M36.229 13.4678C36.2451 13.4491 36.2606 13.4309 36.2767 13.4121C36.2606 13.4309 36.2451 13.4496 36.229 13.4678Z" fill="#6083F9"/>
<path d="M22.6745 11.9707C22.6713 12.8001 22.6681 13.6289 22.6649 14.4582L22.6713 14.4775C22.0466 14.4775 21.4225 14.478 20.7978 14.478C20.4999 14.4705 20.2015 14.4636 19.9036 14.4561C19.9004 13.7805 19.8908 13.1054 19.8961 12.4304C19.8988 12.1164 20.0531 11.9659 20.3553 11.9648C21.1284 11.9627 21.9014 11.9686 22.6745 11.9707Z" fill="#167952"/>
<path d="M19.4597 23.3331C19.3879 23.6695 19.3156 24.006 19.2438 24.3424C18.7605 24.2937 18.2778 24.2406 17.7951 24.3456C17.7608 24.3429 17.726 24.3403 17.6917 24.3376C17.4265 24.0135 17.3965 23.6765 17.6386 23.3256C17.6751 23.3079 17.712 23.2897 17.7485 23.272C17.7667 23.2789 17.7833 23.2763 17.7988 23.2645C18.3566 23.1927 18.9116 23.1793 19.4597 23.3331Z" fill="#FEE502"/>
<path d="M17.6915 24.3374C17.7264 24.3401 17.7606 24.3428 17.7949 24.3454C17.7253 24.5624 17.5372 24.6974 17.4237 24.8887C16.47 26.4933 17.3111 28.5811 19.1949 29.0397C19.3883 29.0869 19.5935 29.1201 19.8019 29.112C19.9942 29.1045 20.186 29.0949 20.3832 29.0713C20.0419 29.4806 19.5956 29.6987 19.0931 29.7999C18.1442 29.9907 17.294 29.7292 16.5997 29.0933C16.088 28.624 15.7869 28.0111 15.7542 27.2792C15.72 26.5131 15.9193 25.8434 16.4025 25.2493C16.6982 24.8849 17.0851 24.6572 17.4997 24.466C17.5726 24.4317 17.6594 24.4274 17.6915 24.3374Z" fill="#ED9D00"/>
<path d="M21.1193 28.0356C21.4429 28.183 21.767 28.3308 22.0906 28.4782C21.9256 28.9679 21.64 29.3804 21.2827 29.7474C21.2119 29.6676 21.1171 29.7067 21.0325 29.6959C20.7962 29.6659 20.6473 29.5175 20.5605 29.315C20.4812 29.1297 20.5353 28.9711 20.6805 28.8125C20.883 28.5923 21.0325 28.3287 21.1193 28.0356Z" fill="#FEE502"/>
<path d="M21.283 29.7478C21.6404 29.3808 21.9265 28.9683 22.0909 28.4786C22.2924 28.4673 22.4831 28.5198 22.6738 28.5729C22.6738 29.0009 22.6738 29.4285 22.6744 29.8565C22.1874 29.8555 21.7004 29.8544 21.2134 29.8533C21.237 29.818 21.26 29.7826 21.283 29.7478Z" fill="#CBEAFE"/>
<path d="M36.7334 21.0332C36.7409 21.0637 36.7484 21.0943 36.7554 21.1243C36.7484 21.0943 36.7409 21.0637 36.7334 21.0332Z" fill="#CBEAFE"/>
<path d="M31.9414 29.857C32.2345 29.2896 32.4375 28.688 32.6143 28.0767C32.9159 28.0809 33.2181 28.0943 33.5192 28.0858C33.6998 28.0804 33.7726 28.1302 33.7667 28.3236C33.7539 28.7496 33.7539 29.1766 33.7667 29.6025C33.7726 29.7986 33.7164 29.8672 33.5128 29.8618C32.9899 29.8484 32.4654 29.8575 31.9414 29.857Z" fill="#E5FBFE"/>
<path d="M32.8384 27.2286C32.9755 26.6146 33.1314 26.006 33.3307 25.4092C33.7636 25.5233 33.7636 25.5233 33.7636 25.9776C33.7636 26.3146 33.7556 26.6516 33.7668 26.988C33.7727 27.1681 33.7234 27.2479 33.53 27.235C33.3002 27.22 33.0693 27.2297 32.8384 27.2286Z" fill="#E5FBFE"/>
<path d="M35.1101 18.6641C35.2574 18.6266 35.3748 18.5317 35.5462 18.416C35.243 19.5122 34.9542 20.5569 34.6649 21.6016C34.5717 21.4436 34.6435 21.271 34.6204 21.1071C34.6065 21.0053 34.6595 20.8917 34.5674 20.8033C34.6976 20.0774 34.9333 19.3782 35.1101 18.6641Z" fill="#E5FBFE"/>
<path d="M33.5527 24.6061C33.5618 24.365 33.6647 24.1459 33.7188 23.9155C33.8083 24.0907 33.7547 24.2772 33.7574 24.4577C33.7595 24.5858 33.6588 24.6083 33.5527 24.6061Z" fill="#E5FBFE"/>
<path d="M22.6737 30.7681C22.6737 31.3574 22.6737 31.9467 22.6737 32.5355C22.131 32.5355 21.5888 32.5307 21.0461 32.5393C20.8709 32.542 20.7879 32.5039 20.7938 32.3052C20.8066 31.8696 20.8066 31.4335 20.7938 30.9979C20.7879 30.7992 20.8704 30.7611 21.0456 30.7638C21.5883 30.7729 22.131 30.7676 22.6737 30.7681Z" fill="#CBEAFE"/>
<path d="M34.078 14.4321C33.9858 14.7327 33.9521 15.0504 33.8155 15.3381C33.7008 15.045 33.7967 14.7386 33.7581 14.4407C33.8653 14.438 33.9719 14.4348 34.078 14.4321Z" fill="#CBEAFE"/>
<path d="M22.3539 21.9842C22.7589 21.9627 23.1565 21.8963 23.5701 21.9713C24.7616 22.1883 25.6236 23.0739 25.8342 24.1925C26.0158 25.1574 25.7034 25.9723 25.0836 26.6956C25.0659 26.6961 25.0488 26.6961 25.0311 26.6961C24.5993 26.7593 24.1637 26.7942 23.7378 26.6827C21.7903 26.1727 20.9856 23.9531 22.13 22.3437C22.1873 22.2633 22.2612 22.1974 22.2435 22.087L22.243 22.0881C22.2875 22.0881 22.3271 22.0795 22.3512 22.0367C22.3523 22.0195 22.3528 22.0018 22.3539 21.9842Z" fill="#F3B401"/>
<path d="M22.2435 22.0874C22.2612 22.1978 22.1873 22.2637 22.1299 22.344C20.9856 23.9529 21.7903 26.1731 23.7377 26.6831C24.1637 26.7945 24.5992 26.7597 25.031 26.6965C24.5933 27.206 24.0115 27.4471 23.3681 27.4916C22.2146 27.5719 21.2974 27.116 20.6882 26.1232C20.0657 25.1085 20.2093 23.7257 21.0247 22.8546C21.3622 22.494 21.7281 22.1694 22.2435 22.0874Z" fill="#ED9D00"/>
<path d="M22.6742 20.161C22.6742 20.3946 22.6742 20.6277 22.6742 20.8613C22.5312 20.8966 22.3876 20.9315 22.2446 20.9668C21.704 21.0424 21.2507 21.3183 20.7986 21.5963C20.7986 21.2224 20.8109 20.8479 20.7937 20.4745C20.783 20.2403 20.8377 20.1439 21.098 20.1546C21.6225 20.1755 22.1487 20.1605 22.6742 20.161Z" fill="#CBEAFE"/>
<path d="M22.3519 22.0366C22.3283 22.0795 22.2881 22.0881 22.2437 22.0881C22.2672 22.0452 22.3074 22.0366 22.3519 22.0366Z" fill="#ED9D00"/>
<path d="M20.7971 14.4781C21.4218 14.4781 22.046 14.4775 22.6707 14.4775C22.6718 15.1928 22.6728 15.908 22.6744 16.6227C22.1237 16.6232 21.5729 16.6179 21.0222 16.6275C20.8459 16.6307 20.7929 16.5697 20.7945 16.3971C20.8025 15.7575 20.7971 15.1178 20.7971 14.4781Z" fill="#CBEAFE"/>
<path d="M22.6754 17.4837C22.6749 18.072 22.6743 18.6608 22.6738 19.249C22.1311 19.249 21.5884 19.2442 21.0462 19.2528C20.8704 19.2554 20.7885 19.2169 20.7944 19.0186C20.8078 18.5922 20.8072 18.1647 20.7944 17.7382C20.7885 17.5426 20.8431 17.4725 21.0478 17.4773C21.59 17.4907 22.1327 17.4826 22.6754 17.4837Z" fill="#CBEAFE"/>
<defs>
<filter id="filter0_d_41_1936" x="0" y="0" width="52" height="52" filterUnits="userSpaceOnUse" color-interpolation-filters="sRGB">
<feFlood flood-opacity="0" result="BackgroundImageFix"/>
<feColorMatrix in="SourceAlpha" type="matrix" values="0 0 0 0 0 0 0 0 0 0 0 0 0 0 0 0 0 0 127 0" result="hardAlpha"/>
<feOffset dy="4"/>
<feGaussianBlur stdDeviation="2"/>
<feComposite in2="hardAlpha" operator="out"/>
<feColorMatrix type="matrix" values="0 0 0 0 0 0 0 0 0 0 0 0 0 0 0 0 0 0 0.25 0"/>
<feBlend mode="normal" in2="BackgroundImageFix" result="effect1_dropShadow_41_1936"/>
<feBlend mode="normal" in="SourceGraphic" in2="effect1_dropShadow_41_1936" result="shape"/>
</filter>
</defs>
</svg>
