<svg width="152" height="40" viewBox="0 0 152 40" fill="none" xmlns="http://www.w3.org/2000/svg">
<rect width="152" height="40" rx="6.34" fill="#3CCB93"/>
<path d="M33.9598 15.7485L30.515 26H28.0995L32.6151 13.9141H34.1591L33.9598 15.7485ZM36.8402 26L33.3788 15.7485L33.1713 13.9141H34.7235L39.264 26H36.8402ZM36.6825 21.5093V23.3105H30.1996V21.5093H36.6825ZM45.7303 24.0908V13.25H47.9384V26H45.9462L45.7303 24.0908ZM39.9613 21.6172V21.4429C39.9613 20.7567 40.0388 20.1341 40.1937 19.5752C40.3542 19.0107 40.5866 18.5265 40.891 18.1226C41.1954 17.7186 41.5634 17.4059 41.995 17.1846C42.4322 16.9632 42.9274 16.8525 43.4808 16.8525C44.0176 16.8525 44.4852 16.9604 44.8837 17.1763C45.2876 17.3921 45.6307 17.6992 45.913 18.0977C46.2007 18.4961 46.4304 18.9692 46.6019 19.5171C46.7735 20.0594 46.898 20.6571 46.9755 21.3101V21.7832C46.898 22.4196 46.7735 23.0034 46.6019 23.5347C46.4304 24.0659 46.2007 24.5308 45.913 24.9292C45.6307 25.3221 45.2876 25.6265 44.8837 25.8423C44.4797 26.0581 44.0066 26.166 43.4642 26.166C42.9164 26.166 42.4239 26.0526 41.9867 25.8257C41.5551 25.5988 41.1871 25.2806 40.8827 24.8711C40.5839 24.4616 40.3542 23.9801 40.1937 23.4268C40.0388 22.8734 39.9613 22.2702 39.9613 21.6172ZM42.161 21.4429V21.6172C42.161 22.0046 42.1942 22.367 42.2606 22.7046C42.327 23.0422 42.4349 23.341 42.5844 23.6011C42.7338 23.8556 42.9247 24.0549 43.1571 24.1987C43.3951 24.3426 43.6828 24.4146 44.0204 24.4146C44.452 24.4146 44.8062 24.3205 45.0829 24.1323C45.3651 23.9386 45.5837 23.6758 45.7386 23.3438C45.8936 23.0062 45.9932 22.6271 46.0375 22.2065V20.9033C46.0153 20.5713 45.9572 20.2642 45.8632 19.9819C45.7746 19.6997 45.6473 19.4562 45.4813 19.2515C45.3208 19.0467 45.1216 18.8862 44.8837 18.77C44.6457 18.6538 44.3635 18.5957 44.037 18.5957C43.6994 18.5957 43.4117 18.6704 43.1737 18.8198C42.9358 18.9637 42.7421 19.1657 42.5927 19.4258C42.4432 19.6859 42.3326 19.9875 42.2606 20.3306C42.1942 20.6737 42.161 21.0444 42.161 21.4429ZM55.3094 24.0908V13.25H57.5175V26H55.5253L55.3094 24.0908ZM49.5404 21.6172V21.4429C49.5404 20.7567 49.6179 20.1341 49.7728 19.5752C49.9333 19.0107 50.1657 18.5265 50.4701 18.1226C50.7745 17.7186 51.1425 17.4059 51.5741 17.1846C52.0113 16.9632 52.5066 16.8525 53.0599 16.8525C53.5967 16.8525 54.0643 16.9604 54.4628 17.1763C54.8667 17.3921 55.2098 17.6992 55.4921 18.0977C55.7798 18.4961 56.0095 18.9692 56.181 19.5171C56.3526 20.0594 56.4771 20.6571 56.5546 21.3101V21.7832C56.4771 22.4196 56.3526 23.0034 56.181 23.5347C56.0095 24.0659 55.7798 24.5308 55.4921 24.9292C55.2098 25.3221 54.8667 25.6265 54.4628 25.8423C54.0588 26.0581 53.5857 26.166 53.0433 26.166C52.4955 26.166 52.003 26.0526 51.5658 25.8257C51.1342 25.5988 50.7662 25.2806 50.4618 24.8711C50.163 24.4616 49.9333 23.9801 49.7728 23.4268C49.6179 22.8734 49.5404 22.2702 49.5404 21.6172ZM51.7401 21.4429V21.6172C51.7401 22.0046 51.7733 22.367 51.8397 22.7046C51.9061 23.0422 52.014 23.341 52.1635 23.6011C52.3129 23.8556 52.5038 24.0549 52.7362 24.1987C52.9742 24.3426 53.2619 24.4146 53.5995 24.4146C54.0311 24.4146 54.3853 24.3205 54.662 24.1323C54.9442 23.9386 55.1628 23.6758 55.3177 23.3438C55.4727 23.0062 55.5723 22.6271 55.6166 22.2065V20.9033C55.5944 20.5713 55.5363 20.2642 55.4423 19.9819C55.3537 19.6997 55.2264 19.4562 55.0604 19.2515C54.8999 19.0467 54.7007 18.8862 54.4628 18.77C54.2248 18.6538 53.9426 18.5957 53.6161 18.5957C53.2785 18.5957 52.9908 18.6704 52.7528 18.8198C52.5149 18.9637 52.3212 19.1657 52.1718 19.4258C52.0223 19.6859 51.9117 19.9875 51.8397 20.3306C51.7733 20.6737 51.7401 21.0444 51.7401 21.4429ZM63.7264 13.25H65.9261V24.0161L65.7103 26H63.7264V13.25ZM71.7035 21.418V21.5923C71.7035 22.2619 71.6288 22.8761 71.4794 23.4351C71.3355 23.994 71.1169 24.4782 70.8236 24.8877C70.5303 25.2917 70.1651 25.6071 69.7279 25.834C69.2963 26.0553 68.7899 26.166 68.2089 26.166C67.6555 26.166 67.174 26.0581 66.7645 25.8423C66.3606 25.6265 66.0202 25.3221 65.7435 24.9292C65.4668 24.5308 65.2455 24.0632 65.0795 23.5264C64.9135 22.984 64.7889 22.3919 64.7059 21.75V21.2769C64.7889 20.6294 64.9135 20.0373 65.0795 19.5005C65.2455 18.9637 65.4668 18.4961 65.7435 18.0977C66.0202 17.6992 66.3606 17.3921 66.7645 17.1763C67.1685 16.9604 67.6444 16.8525 68.1923 16.8525C68.7788 16.8525 69.2907 16.966 69.7279 17.1929C70.1706 17.4142 70.5358 17.7297 70.8236 18.1392C71.1169 18.5431 71.3355 19.0246 71.4794 19.5835C71.6288 20.1369 71.7035 20.7484 71.7035 21.418ZM69.5038 21.5923V21.418C69.5038 21.0361 69.4733 20.6764 69.4125 20.3389C69.3516 19.9958 69.252 19.6942 69.1136 19.4341C68.9753 19.174 68.7872 18.9692 68.5492 18.8198C68.3112 18.6704 68.0124 18.5957 67.6527 18.5957C67.3096 18.5957 67.0163 18.6538 66.7728 18.77C66.5349 18.8862 66.3357 19.0467 66.1752 19.2515C66.0202 19.4562 65.8985 19.6969 65.8099 19.9736C65.7269 20.2503 65.6716 20.5492 65.6439 20.8701V22.165C65.6827 22.5911 65.774 22.9757 65.9178 23.3188C66.0617 23.6564 66.2748 23.9248 66.557 24.124C66.8448 24.3232 67.2155 24.4229 67.6693 24.4229C68.0235 24.4229 68.3195 24.3537 68.5575 24.2153C68.7955 24.0715 68.9836 23.8722 69.1219 23.6177C69.2603 23.3576 69.3571 23.056 69.4125 22.7129C69.4733 22.3698 69.5038 21.9963 69.5038 21.5923ZM78.2445 24.0908V19.9487C78.2445 19.6444 78.1919 19.3815 78.0868 19.1602C77.9816 18.9388 77.8212 18.7673 77.6053 18.6455C77.3895 18.5238 77.1156 18.4629 76.7836 18.4629C76.4903 18.4629 76.233 18.5127 76.0116 18.6123C75.7958 18.7119 75.6298 18.853 75.5135 19.0356C75.3973 19.2127 75.3392 19.4175 75.3392 19.6499H73.1395C73.1395 19.2791 73.2281 18.9277 73.4052 18.5957C73.5822 18.2581 73.834 17.9593 74.1605 17.6992C74.4926 17.4336 74.8882 17.2261 75.3475 17.0767C75.8124 16.9272 76.3326 16.8525 76.9081 16.8525C77.5887 16.8525 78.1947 16.9688 78.726 17.2012C79.2627 17.4281 79.6833 17.7712 79.9877 18.2305C80.2976 18.6898 80.4525 19.2681 80.4525 19.9653V23.8833C80.4525 24.3315 80.4802 24.7161 80.5355 25.0371C80.5964 25.3525 80.6849 25.6265 80.8011 25.8589V26H78.5682C78.4631 25.7731 78.3829 25.4854 78.3275 25.1367C78.2722 24.7826 78.2445 24.4339 78.2445 24.0908ZM78.5516 20.5298L78.5682 21.833H77.182C76.8389 21.833 76.5373 21.869 76.2772 21.9409C76.0171 22.0073 75.8041 22.1069 75.6381 22.2397C75.472 22.367 75.3475 22.522 75.2645 22.7046C75.1815 22.8817 75.14 23.0837 75.14 23.3105C75.14 23.5319 75.1898 23.7311 75.2894 23.9082C75.3946 24.0853 75.544 24.2264 75.7377 24.3315C75.9369 24.4312 76.1693 24.481 76.4349 24.481C76.8223 24.481 77.1599 24.4035 77.4476 24.2485C77.7354 24.0881 77.9595 23.8944 78.12 23.6675C78.2805 23.4406 78.3663 23.2248 78.3773 23.02L79.0082 23.9663C78.9307 24.1932 78.8145 24.4339 78.6595 24.6885C78.5046 24.943 78.3054 25.181 78.0619 25.4023C77.8184 25.6237 77.5251 25.8063 77.182 25.9502C76.8389 26.0941 76.4405 26.166 75.9867 26.166C75.4056 26.166 74.8855 26.0498 74.4261 25.8174C73.9668 25.585 73.6044 25.2668 73.3387 24.8628C73.0731 24.4588 72.9403 23.9995 72.9403 23.4849C72.9403 23.009 73.0288 22.5884 73.2059 22.2231C73.383 21.8579 73.6459 21.5508 73.9945 21.3018C74.3431 21.0472 74.7748 20.8563 75.2894 20.729C75.8096 20.5962 76.4045 20.5298 77.0741 20.5298H78.5516ZM84.7523 13.25V26H82.5526V13.25H84.7523ZM91.7914 24.0908V19.9487C91.7914 19.6444 91.7388 19.3815 91.6337 19.1602C91.5285 18.9388 91.368 18.7673 91.1522 18.6455C90.9364 18.5238 90.6625 18.4629 90.3304 18.4629C90.0372 18.4629 89.7798 18.5127 89.5585 18.6123C89.3427 18.7119 89.1766 18.853 89.0604 19.0356C88.9442 19.2127 88.8861 19.4175 88.8861 19.6499H86.6864C86.6864 19.2791 86.7749 18.9277 86.952 18.5957C87.1291 18.2581 87.3809 17.9593 87.7074 17.6992C88.0394 17.4336 88.4351 17.2261 88.8944 17.0767C89.3593 16.9272 89.8794 16.8525 90.455 16.8525C91.1356 16.8525 91.7416 16.9688 92.2728 17.2012C92.8096 17.4281 93.2302 17.7712 93.5345 18.2305C93.8444 18.6898 93.9994 19.2681 93.9994 19.9653V23.8833C93.9994 24.3315 94.0271 24.7161 94.0824 25.0371C94.1433 25.3525 94.2318 25.6265 94.348 25.8589V26H92.1151C92.01 25.7731 91.9297 25.4854 91.8744 25.1367C91.8191 24.7826 91.7914 24.4339 91.7914 24.0908ZM92.0985 20.5298L92.1151 21.833H90.7289C90.3858 21.833 90.0842 21.869 89.8241 21.9409C89.564 22.0073 89.351 22.1069 89.1849 22.2397C89.0189 22.367 88.8944 22.522 88.8114 22.7046C88.7284 22.8817 88.6869 23.0837 88.6869 23.3105C88.6869 23.5319 88.7367 23.7311 88.8363 23.9082C88.9414 24.0853 89.0909 24.2264 89.2845 24.3315C89.4838 24.4312 89.7162 24.481 89.9818 24.481C90.3692 24.481 90.7067 24.4035 90.9945 24.2485C91.2823 24.0881 91.5064 23.8944 91.6669 23.6675C91.8274 23.4406 91.9131 23.2248 91.9242 23.02L92.5551 23.9663C92.4776 24.1932 92.3614 24.4339 92.2064 24.6885C92.0515 24.943 91.8523 25.181 91.6088 25.4023C91.3653 25.6237 91.072 25.8063 90.7289 25.9502C90.3858 26.0941 89.9873 26.166 89.5336 26.166C88.9525 26.166 88.4323 26.0498 87.973 25.8174C87.5137 25.585 87.1512 25.2668 86.8856 24.8628C86.62 24.4588 86.4872 23.9995 86.4872 23.4849C86.4872 23.009 86.5757 22.5884 86.7528 22.2231C86.9299 21.8579 87.1927 21.5508 87.5414 21.3018C87.89 21.0472 88.3217 20.8563 88.8363 20.729C89.3565 20.5962 89.9514 20.5298 90.621 20.5298H92.0985ZM98.1249 18.936V26H95.9335V17.0186H97.9921L98.1249 18.936ZM97.7762 21.1855H97.1288C97.1343 20.5326 97.2229 19.9404 97.3944 19.4092C97.566 18.8779 97.8067 18.4214 98.1166 18.0396C98.432 17.6577 98.8055 17.3644 99.2372 17.1597C99.6688 16.9549 100.15 16.8525 100.682 16.8525C101.113 16.8525 101.503 16.9134 101.852 17.0352C102.201 17.1569 102.499 17.3506 102.748 17.6162C103.003 17.8818 103.197 18.2305 103.329 18.6621C103.468 19.0882 103.537 19.6139 103.537 20.2393V26H101.329V20.2227C101.329 19.8132 101.268 19.4894 101.146 19.2515C101.03 19.0135 100.859 18.8447 100.632 18.7451C100.41 18.6455 100.136 18.5957 99.8099 18.5957C99.4724 18.5957 99.1763 18.6649 98.9218 18.8032C98.6727 18.936 98.4624 19.1214 98.2909 19.3594C98.1249 19.5973 97.9976 19.8713 97.9091 20.1812C97.8205 20.491 97.7762 20.8258 97.7762 21.1855ZM109.157 24.4395C109.467 24.4395 109.743 24.3786 109.987 24.2568C110.23 24.1351 110.424 23.9635 110.568 23.7422C110.717 23.5208 110.797 23.2635 110.808 22.9702H112.875C112.864 23.5789 112.693 24.124 112.361 24.6055C112.029 25.0869 111.586 25.4688 111.033 25.751C110.485 26.0277 109.87 26.166 109.19 26.166C108.498 26.166 107.895 26.0498 107.38 25.8174C106.866 25.585 106.437 25.2612 106.094 24.8462C105.756 24.4312 105.502 23.9497 105.33 23.4019C105.164 22.854 105.081 22.2674 105.081 21.6421V21.3765C105.081 20.7511 105.164 20.1646 105.33 19.6167C105.502 19.0688 105.756 18.5874 106.094 18.1724C106.437 17.7573 106.866 17.4336 107.38 17.2012C107.895 16.9688 108.495 16.8525 109.182 16.8525C109.906 16.8525 110.543 16.9937 111.091 17.2759C111.644 17.5581 112.076 17.9565 112.386 18.4712C112.701 18.9858 112.864 19.5918 112.875 20.2891H110.808C110.797 19.9681 110.725 19.6803 110.593 19.4258C110.46 19.1712 110.272 18.9665 110.028 18.8115C109.785 18.6566 109.489 18.5791 109.14 18.5791C108.769 18.5791 108.459 18.6566 108.21 18.8115C107.967 18.9665 107.776 19.1795 107.638 19.4507C107.505 19.7163 107.411 20.0151 107.355 20.3472C107.306 20.6737 107.281 21.0168 107.281 21.3765V21.6421C107.281 22.0073 107.306 22.356 107.355 22.688C107.411 23.02 107.505 23.3188 107.638 23.5845C107.776 23.8446 107.967 24.0521 108.21 24.207C108.459 24.362 108.775 24.4395 109.157 24.4395ZM118.37 26.166C117.69 26.166 117.078 26.0553 116.536 25.834C115.994 25.6126 115.532 25.3055 115.15 24.9126C114.773 24.5142 114.483 24.0521 114.278 23.5264C114.079 22.9951 113.979 22.4251 113.979 21.8164V21.4844C113.979 20.7926 114.079 20.1646 114.278 19.6001C114.477 19.0301 114.76 18.5404 115.125 18.1309C115.49 17.7214 115.927 17.4059 116.436 17.1846C116.946 16.9632 117.507 16.8525 118.121 16.8525C118.758 16.8525 119.32 16.9604 119.807 17.1763C120.293 17.3866 120.7 17.6854 121.027 18.0728C121.353 18.4601 121.599 18.925 121.766 19.4673C121.932 20.0041 122.015 20.599 122.015 21.252V22.1733H114.975V20.6626H119.856V20.4966C119.845 20.1479 119.779 19.8298 119.657 19.542C119.535 19.2487 119.347 19.0163 119.093 18.8447C118.838 18.6676 118.509 18.5791 118.105 18.5791C117.778 18.5791 117.493 18.651 117.25 18.7949C117.012 18.9333 116.813 19.1325 116.652 19.3926C116.497 19.6471 116.381 19.9515 116.304 20.3057C116.226 20.6598 116.187 21.0527 116.187 21.4844V21.8164C116.187 22.1927 116.237 22.5413 116.337 22.8623C116.442 23.1833 116.594 23.4627 116.793 23.7007C116.998 23.9331 117.242 24.1157 117.524 24.2485C117.812 24.3758 118.138 24.4395 118.503 24.4395C118.963 24.4395 119.378 24.3509 119.748 24.1738C120.125 23.9912 120.451 23.7228 120.728 23.3687L121.832 24.5142C121.644 24.7909 121.389 25.0565 121.068 25.311C120.753 25.5656 120.371 25.7731 119.923 25.9336C119.474 26.0885 118.957 26.166 118.37 26.166Z" fill="white"/>
</svg>
