<svg width="171" height="41" viewBox="0 0 171 41" fill="none" xmlns="http://www.w3.org/2000/svg">
<path d="M0.5 5C0.5 2.51472 2.51472 0.5 5 0.5H166C168.485 0.5 170.5 2.51472 170.5 5V36C170.5 38.4853 168.485 40.5 166 40.5H5C2.51472 40.5 0.5 38.4853 0.5 36V5Z" fill="#3CCB93" stroke="#3CCB93"/>
<path d="M57.665 22.7549H60.293C60.2402 23.6162 60.0029 24.3809 59.5811 25.0488C59.165 25.7168 58.582 26.2383 57.832 26.6133C57.0879 26.9883 56.1914 27.1758 55.1426 27.1758C54.3223 27.1758 53.5869 27.0352 52.9365 26.7539C52.2861 26.4668 51.7295 26.0566 51.2666 25.5234C50.8096 24.9902 50.4609 24.3457 50.2207 23.5898C49.9805 22.834 49.8604 21.9873 49.8604 21.0498V20.1621C49.8604 19.2246 49.9834 18.3779 50.2295 17.6221C50.4814 16.8604 50.8389 16.2129 51.3018 15.6797C51.7705 15.1465 52.3301 14.7363 52.9805 14.4492C53.6309 14.1621 54.3574 14.0186 55.1602 14.0186C56.2266 14.0186 57.126 14.2119 57.8584 14.5986C58.5967 14.9854 59.168 15.5186 59.5723 16.1982C59.9824 16.8779 60.2285 17.6514 60.3105 18.5186H57.6738C57.6445 18.0029 57.542 17.5664 57.3662 17.209C57.1904 16.8457 56.9238 16.5732 56.5664 16.3916C56.2148 16.2041 55.7461 16.1104 55.1602 16.1104C54.7207 16.1104 54.3369 16.1924 54.0088 16.3564C53.6807 16.5205 53.4053 16.7695 53.1826 17.1035C52.96 17.4375 52.793 17.8594 52.6816 18.3691C52.5762 18.873 52.5234 19.4648 52.5234 20.1445V21.0498C52.5234 21.7119 52.5732 22.2949 52.6729 22.7988C52.7725 23.2969 52.9248 23.7188 53.1299 24.0645C53.3408 24.4043 53.6104 24.6621 53.9385 24.8379C54.2725 25.0078 54.6738 25.0928 55.1426 25.0928C55.6934 25.0928 56.1475 25.0049 56.5049 24.8291C56.8623 24.6533 57.1348 24.3926 57.3223 24.0469C57.5156 23.7012 57.6299 23.2705 57.665 22.7549ZM61.4619 22.3418V22.1572C61.4619 21.46 61.5615 20.8184 61.7607 20.2324C61.96 19.6406 62.25 19.1279 62.6309 18.6943C63.0117 18.2607 63.4805 17.9238 64.0371 17.6836C64.5938 17.4375 65.2324 17.3145 65.9531 17.3145C66.6738 17.3145 67.3154 17.4375 67.8779 17.6836C68.4404 17.9238 68.9121 18.2607 69.293 18.6943C69.6797 19.1279 69.9727 19.6406 70.1719 20.2324C70.3711 20.8184 70.4707 21.46 70.4707 22.1572V22.3418C70.4707 23.0332 70.3711 23.6748 70.1719 24.2666C69.9727 24.8525 69.6797 25.3652 69.293 25.8047C68.9121 26.2383 68.4434 26.5752 67.8867 26.8154C67.3301 27.0557 66.6914 27.1758 65.9707 27.1758C65.25 27.1758 64.6084 27.0557 64.0459 26.8154C63.4893 26.5752 63.0176 26.2383 62.6309 25.8047C62.25 25.3652 61.96 24.8525 61.7607 24.2666C61.5615 23.6748 61.4619 23.0332 61.4619 22.3418ZM63.9932 22.1572V22.3418C63.9932 22.7402 64.0283 23.1123 64.0986 23.458C64.1689 23.8037 64.2803 24.1084 64.4326 24.3721C64.5908 24.6299 64.7959 24.832 65.0479 24.9785C65.2998 25.125 65.6074 25.1982 65.9707 25.1982C66.3223 25.1982 66.624 25.125 66.876 24.9785C67.1279 24.832 67.3301 24.6299 67.4824 24.3721C67.6348 24.1084 67.7461 23.8037 67.8164 23.458C67.8926 23.1123 67.9307 22.7402 67.9307 22.3418V22.1572C67.9307 21.7705 67.8926 21.4072 67.8164 21.0674C67.7461 20.7217 67.6318 20.417 67.4736 20.1533C67.3213 19.8838 67.1191 19.6729 66.8672 19.5205C66.6152 19.3682 66.3105 19.292 65.9531 19.292C65.5957 19.292 65.291 19.3682 65.0391 19.5205C64.793 19.6729 64.5908 19.8838 64.4326 20.1533C64.2803 20.417 64.1689 20.7217 64.0986 21.0674C64.0283 21.4072 63.9932 21.7705 63.9932 22.1572ZM74.5049 19.5205V27H71.9736V17.4902H74.3467L74.5049 19.5205ZM74.1357 21.9111H73.4502C73.4502 21.208 73.541 20.5752 73.7227 20.0127C73.9043 19.4443 74.1592 18.9609 74.4873 18.5625C74.8154 18.1582 75.2051 17.8506 75.6562 17.6396C76.1133 17.4229 76.623 17.3145 77.1855 17.3145C77.6309 17.3145 78.0381 17.3789 78.4072 17.5078C78.7764 17.6367 79.0928 17.8418 79.3564 18.123C79.626 18.4043 79.8311 18.7764 79.9717 19.2393C80.1182 19.7021 80.1914 20.2676 80.1914 20.9355V27H77.6426V20.9268C77.6426 20.5049 77.584 20.1768 77.4668 19.9424C77.3496 19.708 77.1768 19.5439 76.9482 19.4502C76.7256 19.3506 76.4502 19.3008 76.1221 19.3008C75.7822 19.3008 75.4863 19.3682 75.2344 19.5029C74.9883 19.6377 74.7832 19.8252 74.6191 20.0654C74.4609 20.2998 74.3408 20.5752 74.2588 20.8916C74.1768 21.208 74.1357 21.5479 74.1357 21.9111ZM86.7744 17.4902V19.2832H81.2373V17.4902H86.7744ZM82.6084 15.1436H85.1396V24.1348C85.1396 24.4102 85.1748 24.6211 85.2451 24.7676C85.3213 24.9141 85.4326 25.0166 85.5791 25.0752C85.7256 25.1279 85.9102 25.1543 86.1328 25.1543C86.291 25.1543 86.4316 25.1484 86.5547 25.1367C86.6836 25.1191 86.792 25.1016 86.8799 25.084L86.8887 26.9473C86.6719 27.0176 86.4375 27.0732 86.1855 27.1143C85.9336 27.1553 85.6553 27.1758 85.3506 27.1758C84.7939 27.1758 84.3076 27.085 83.8916 26.9033C83.4814 26.7158 83.165 26.417 82.9424 26.0068C82.7197 25.5967 82.6084 25.0576 82.6084 24.3896V15.1436ZM90.8877 17.4902V27H88.3477V17.4902H90.8877ZM88.1895 15.0117C88.1895 14.6426 88.3184 14.3379 88.5762 14.0977C88.834 13.8574 89.1797 13.7373 89.6133 13.7373C90.041 13.7373 90.3838 13.8574 90.6416 14.0977C90.9053 14.3379 91.0371 14.6426 91.0371 15.0117C91.0371 15.3809 90.9053 15.6855 90.6416 15.9258C90.3838 16.166 90.041 16.2861 89.6133 16.2861C89.1797 16.2861 88.834 16.166 88.5762 15.9258C88.3184 15.6855 88.1895 15.3809 88.1895 15.0117ZM95.458 19.5205V27H92.9268V17.4902H95.2998L95.458 19.5205ZM95.0889 21.9111H94.4033C94.4033 21.208 94.4941 20.5752 94.6758 20.0127C94.8574 19.4443 95.1123 18.9609 95.4404 18.5625C95.7686 18.1582 96.1582 17.8506 96.6094 17.6396C97.0664 17.4229 97.5762 17.3145 98.1387 17.3145C98.584 17.3145 98.9912 17.3789 99.3604 17.5078C99.7295 17.6367 100.046 17.8418 100.31 18.123C100.579 18.4043 100.784 18.7764 100.925 19.2393C101.071 19.7021 101.145 20.2676 101.145 20.9355V27H98.5957V20.9268C98.5957 20.5049 98.5371 20.1768 98.4199 19.9424C98.3027 19.708 98.1299 19.5439 97.9014 19.4502C97.6787 19.3506 97.4033 19.3008 97.0752 19.3008C96.7354 19.3008 96.4395 19.3682 96.1875 19.5029C95.9414 19.6377 95.7363 19.8252 95.5723 20.0654C95.4141 20.2998 95.2939 20.5752 95.2119 20.8916C95.1299 21.208 95.0889 21.5479 95.0889 21.9111ZM108.694 24.7236V17.4902H111.226V27H108.844L108.694 24.7236ZM108.976 22.7725L109.723 22.7549C109.723 23.3877 109.649 23.9766 109.503 24.5215C109.356 25.0605 109.137 25.5293 108.844 25.9277C108.551 26.3203 108.182 26.6279 107.736 26.8506C107.291 27.0674 106.767 27.1758 106.163 27.1758C105.7 27.1758 105.272 27.1113 104.88 26.9824C104.493 26.8477 104.159 26.6396 103.878 26.3584C103.603 26.0713 103.386 25.7051 103.228 25.2598C103.075 24.8086 102.999 24.2666 102.999 23.6338V17.4902H105.53V23.6514C105.53 23.9326 105.562 24.1699 105.627 24.3633C105.697 24.5566 105.794 24.7148 105.917 24.8379C106.04 24.9609 106.184 25.0488 106.348 25.1016C106.518 25.1543 106.705 25.1807 106.91 25.1807C107.432 25.1807 107.842 25.0752 108.141 24.8643C108.445 24.6533 108.659 24.3662 108.782 24.0029C108.911 23.6338 108.976 23.2236 108.976 22.7725ZM117.536 27.1758C116.798 27.1758 116.136 27.0586 115.55 26.8242C114.964 26.584 114.466 26.2529 114.056 25.8311C113.651 25.4092 113.341 24.9199 113.124 24.3633C112.907 23.8008 112.799 23.2031 112.799 22.5703V22.2188C112.799 21.498 112.901 20.8389 113.106 20.2412C113.312 19.6436 113.604 19.125 113.985 18.6855C114.372 18.2461 114.841 17.9092 115.392 17.6748C115.942 17.4346 116.563 17.3145 117.255 17.3145C117.929 17.3145 118.526 17.4258 119.048 17.6484C119.569 17.8711 120.006 18.1875 120.357 18.5977C120.715 19.0078 120.984 19.5 121.166 20.0742C121.348 20.6426 121.438 21.2754 121.438 21.9727V23.0273H113.88V21.3398H118.951V21.1465C118.951 20.7949 118.887 20.4814 118.758 20.2061C118.635 19.9248 118.447 19.7021 118.195 19.5381C117.943 19.374 117.621 19.292 117.229 19.292C116.895 19.292 116.607 19.3652 116.367 19.5117C116.127 19.6582 115.931 19.8633 115.778 20.127C115.632 20.3906 115.521 20.7012 115.444 21.0586C115.374 21.4102 115.339 21.7969 115.339 22.2188V22.5703C115.339 22.9512 115.392 23.3027 115.497 23.625C115.608 23.9473 115.764 24.2256 115.963 24.46C116.168 24.6943 116.414 24.876 116.701 25.0049C116.994 25.1338 117.325 25.1982 117.694 25.1982C118.151 25.1982 118.576 25.1104 118.969 24.9346C119.367 24.7529 119.71 24.4805 119.997 24.1172L121.228 25.4531C121.028 25.7402 120.756 26.0156 120.41 26.2793C120.07 26.543 119.66 26.7598 119.18 26.9297C118.699 27.0938 118.151 27.1758 117.536 27.1758Z" fill="white"/>
</svg>
