<svg width="890" height="202" viewBox="0 0 890 202" fill="none" xmlns="http://www.w3.org/2000/svg">
<rect width="890" height="202" rx="19.6362" fill="#3CCB93"/>
<path d="M53.0023 62.6239C53.2491 62.6688 53.5521 62.7137 53.9111 62.7586C54.2702 62.781 54.6068 62.7922 54.921 62.7922C55.684 62.7922 56.3797 62.68 57.008 62.4556C57.6588 62.2312 58.2087 61.8834 58.6575 61.4121C59.1287 60.9408 59.4878 60.3349 59.7347 59.5944C60.004 58.8313 60.1386 57.9225 60.1386 56.8677C60.1386 54.848 59.6673 53.3332 58.7248 52.3234C57.7823 51.291 56.5256 50.7749 54.9547 50.7749C54.6405 50.7749 54.3151 50.7861 53.9785 50.8086C53.6643 50.831 53.3389 50.8647 53.0023 50.9095V62.6239ZM54.8873 67.5386C54.5058 67.5386 54.0682 67.5274 53.5745 67.5049C53.0808 67.4825 52.5647 67.4376 52.0261 67.3703C51.5099 67.303 50.9825 67.2132 50.4439 67.101C49.9278 67.0112 49.4453 66.8766 48.9965 66.697C47.7622 66.2258 47.1451 65.4067 47.1451 64.2397V48.5195C47.1451 48.0483 47.2685 47.6892 47.5153 47.4424C47.7846 47.1731 48.1437 46.9599 48.5925 46.8028C49.5575 46.4886 50.5786 46.2866 51.6558 46.1969C52.733 46.0847 53.6979 46.0286 54.5507 46.0286C56.3011 46.0286 57.8833 46.2417 59.2971 46.6681C60.7333 47.0945 61.9564 47.7565 62.9662 48.6542C63.9985 49.5294 64.7952 50.6402 65.3562 51.9867C65.9173 53.3332 66.1978 54.9265 66.1978 56.7667C66.1978 58.562 65.9285 60.1329 65.3899 61.4794C64.8513 62.8035 64.0771 63.9255 63.0672 64.8456C62.0798 65.7433 60.8904 66.4165 59.499 66.8654C58.1077 67.3142 56.5704 67.5386 54.8873 67.5386ZM86.0589 58.8201C86.0589 60.2115 85.8457 61.457 85.4193 62.5566C84.9929 63.6338 84.387 64.5427 83.6016 65.2832C82.8386 66.0238 81.9185 66.5848 80.8413 66.9663C79.7641 67.3478 78.5635 67.5386 77.2395 67.5386C75.9154 67.5386 74.7148 67.3366 73.6376 66.9327C72.5604 66.5287 71.6291 65.9565 70.8437 65.2159C70.0807 64.4529 69.486 63.5328 69.0596 62.4556C68.6332 61.3784 68.42 60.1666 68.42 58.8201C68.42 57.4961 68.6332 56.2955 69.0596 55.2183C69.486 54.1411 70.0807 53.2322 70.8437 52.4917C71.6291 51.7287 72.5604 51.1452 73.6376 50.7412C74.7148 50.3373 75.9154 50.1353 77.2395 50.1353C78.5635 50.1353 79.7641 50.3485 80.8413 50.7749C81.9185 51.1788 82.8386 51.7623 83.6016 52.5253C84.387 53.2659 84.9929 54.1748 85.4193 55.2519C85.8457 56.3291 86.0589 57.5185 86.0589 58.8201ZM74.2772 58.8201C74.2772 60.189 74.5353 61.2438 75.0514 61.9844C75.59 62.7025 76.3306 63.0615 77.2731 63.0615C78.2157 63.0615 78.9338 62.6913 79.4275 61.9507C79.9436 61.2101 80.2017 60.1666 80.2017 58.8201C80.2017 57.4736 79.9436 56.4413 79.4275 55.7232C78.9113 54.9827 78.182 54.6124 77.2395 54.6124C76.2969 54.6124 75.5676 54.9827 75.0514 55.7232C74.5353 56.4413 74.2772 57.4736 74.2772 58.8201ZM98.148 62.8259C97.9012 62.2649 97.6319 61.6365 97.3402 60.9408C97.0709 60.2452 96.7791 59.4485 96.4649 58.5508C96.1732 57.6532 95.859 56.6321 95.5224 55.4876C95.2082 54.3206 94.8716 52.9854 94.5125 51.4818C94.8267 51.1676 95.2419 50.8983 95.758 50.6739C96.2966 50.4271 96.8801 50.3036 97.5085 50.3036C98.2939 50.3036 98.9447 50.4719 99.4609 50.8086C99.977 51.1227 100.359 51.7287 100.605 52.6263L103.265 61.8834H103.399C103.669 61.1204 103.927 60.29 104.174 59.3924C104.443 58.4947 104.701 57.5746 104.948 56.6321C105.195 55.6671 105.419 54.7134 105.621 53.7708C105.845 52.8058 106.036 51.8633 106.193 50.9432C107.001 50.5168 107.888 50.3036 108.853 50.3036C109.638 50.3036 110.289 50.4719 110.805 50.8086C111.321 51.1452 111.579 51.7287 111.579 52.559C111.579 53.1649 111.501 53.8718 111.344 54.6797C111.186 55.4651 110.973 56.3067 110.704 57.2043C110.457 58.102 110.154 59.0333 109.795 59.9983C109.458 60.9408 109.099 61.8721 108.718 62.7922C108.336 63.7123 107.944 64.5876 107.54 65.4179C107.136 66.2258 106.743 66.9551 106.362 67.6059C105.733 68.7055 105.15 69.6032 104.611 70.2989C104.073 70.9946 103.556 71.5332 103.063 71.9147C102.569 72.3186 102.075 72.5879 101.582 72.7225C101.088 72.8796 100.572 72.9582 100.033 72.9582C99.0906 72.9582 98.3276 72.6777 97.7441 72.1166C97.1606 71.5556 96.8128 70.8263 96.7006 69.9286C97.4187 69.3676 98.1368 68.7392 98.8549 68.0435C99.5731 67.3703 100.224 66.6746 100.807 65.9565C100.426 65.8443 100.011 65.5862 99.5619 65.1822C99.1355 64.7559 98.6642 63.9704 98.148 62.8259ZM130.898 58.8201C130.898 60.2115 130.685 61.457 130.258 62.5566C129.832 63.6338 129.226 64.5427 128.44 65.2832C127.677 66.0238 126.757 66.5848 125.68 66.9663C124.603 67.3478 123.402 67.5386 122.078 67.5386C120.754 67.5386 119.554 67.3366 118.477 66.9327C117.399 66.5287 116.468 65.9565 115.683 65.2159C114.92 64.4529 114.325 63.5328 113.898 62.4556C113.472 61.3784 113.259 60.1666 113.259 58.8201C113.259 57.4961 113.472 56.2955 113.898 55.2183C114.325 54.1411 114.92 53.2322 115.683 52.4917C116.468 51.7287 117.399 51.1452 118.477 50.7412C119.554 50.3373 120.754 50.1353 122.078 50.1353C123.402 50.1353 124.603 50.3485 125.68 50.7749C126.757 51.1788 127.677 51.7623 128.44 52.5253C129.226 53.2659 129.832 54.1748 130.258 55.2519C130.685 56.3291 130.898 57.5185 130.898 58.8201ZM119.116 58.8201C119.116 60.189 119.374 61.2438 119.89 61.9844C120.429 62.7025 121.169 63.0615 122.112 63.0615C123.055 63.0615 123.773 62.6913 124.266 61.9507C124.783 61.2101 125.041 60.1666 125.041 58.8201C125.041 57.4736 124.783 56.4413 124.266 55.7232C123.75 54.9827 123.021 54.6124 122.078 54.6124C121.136 54.6124 120.406 54.9827 119.89 55.7232C119.374 56.4413 119.116 57.4736 119.116 58.8201ZM133.69 50.8759C133.914 50.8086 134.262 50.7412 134.733 50.6739C135.227 50.6066 135.732 50.5729 136.248 50.5729C136.742 50.5729 137.179 50.6066 137.561 50.6739C137.965 50.7412 138.301 50.8759 138.571 51.0779C138.84 51.2798 139.042 51.5603 139.177 51.9194C139.334 52.256 139.412 52.7049 139.412 53.2659V60.5032C139.412 61.4233 139.637 62.0853 140.085 62.4893C140.534 62.8708 141.185 63.0615 142.038 63.0615C142.554 63.0615 142.969 63.0167 143.283 62.9269C143.62 62.8371 143.878 62.7474 144.058 62.6576V50.8759C144.282 50.8086 144.63 50.7412 145.101 50.6739C145.595 50.6066 146.1 50.5729 146.616 50.5729C147.11 50.5729 147.547 50.6066 147.929 50.6739C148.333 50.7412 148.669 50.8759 148.939 51.0779C149.208 51.2798 149.41 51.5603 149.544 51.9194C149.702 52.256 149.78 52.7049 149.78 53.2659V63.4991C149.78 64.6212 149.309 65.4628 148.366 66.0238C147.581 66.5175 146.638 66.8878 145.539 67.1346C144.461 67.4039 143.283 67.5386 142.004 67.5386C140.792 67.5386 139.67 67.4039 138.638 67.1346C137.628 66.8654 136.753 66.4502 136.012 65.8892C135.272 65.3281 134.699 64.61 134.296 63.7348C133.892 62.8371 133.69 61.7599 133.69 60.5032V50.8759ZM169.345 66.4951C169.031 66.7644 168.605 66.9776 168.066 67.1346C167.528 67.3142 166.888 67.4039 166.147 67.4039C165.227 67.4039 164.431 67.2693 163.757 67C163.084 66.7531 162.635 66.3941 162.411 65.9228C162.164 65.3842 161.872 64.5315 161.536 63.3645C161.222 62.1975 160.907 60.9184 160.593 59.527C160.279 58.1357 159.976 56.7219 159.684 55.2856C159.415 53.8494 159.202 52.5814 159.045 51.4818C159.359 51.1676 159.774 50.8983 160.29 50.6739C160.829 50.4271 161.412 50.3036 162.041 50.3036C162.826 50.3036 163.466 50.4832 163.959 50.8422C164.476 51.1788 164.79 51.7735 164.902 52.6263C165.126 54.3319 165.317 55.7457 165.474 56.8677C165.631 57.9674 165.755 58.8762 165.845 59.5944C165.957 60.29 166.035 60.8286 166.08 61.2101C166.147 61.5692 166.204 61.8609 166.248 62.0853H166.383C166.45 61.7263 166.563 61.2101 166.72 60.5369C166.899 59.8412 167.101 59.0558 167.326 58.1805C167.55 57.3053 167.786 56.3628 168.033 55.3529C168.279 54.3206 168.526 53.2996 168.773 52.2897C169.222 52.0428 169.66 51.8521 170.086 51.7174C170.535 51.5828 171.085 51.5155 171.735 51.5155C172.521 51.5155 173.194 51.6389 173.755 51.8857C174.316 52.1326 174.675 52.5141 174.832 53.0303C175.102 54.0177 175.36 54.9827 175.607 55.9252C175.853 56.8453 176.078 57.7093 176.28 58.5172C176.482 59.3026 176.661 60.0095 176.818 60.6379C176.975 61.2438 177.088 61.7263 177.155 62.0853H177.323C177.57 60.3574 177.806 58.562 178.03 56.6994C178.277 54.8368 178.501 52.9405 178.703 51.0105C179.107 50.7637 179.534 50.5841 179.983 50.4719C180.431 50.3597 180.88 50.3036 181.329 50.3036C182.114 50.3036 182.765 50.4719 183.281 50.8086C183.798 51.1452 184.056 51.7287 184.056 52.559C184.056 52.918 184 53.4566 183.887 54.1748C183.775 54.8929 183.629 55.7008 183.45 56.5984C183.27 57.4961 183.057 58.4386 182.81 59.426C182.586 60.4135 182.35 61.3672 182.103 62.2873C181.879 63.2074 181.654 64.0377 181.43 64.7783C181.228 65.5189 181.049 66.0911 180.891 66.4951C180.577 66.7644 180.095 66.9776 179.444 67.1346C178.793 67.3142 178.097 67.4039 177.357 67.4039C175.472 67.4039 174.361 66.9327 174.024 65.9901C173.89 65.5862 173.721 65.0813 173.519 64.4753C173.317 63.847 173.104 63.1625 172.88 62.422C172.655 61.6814 172.442 60.9184 172.24 60.1329C172.038 59.3251 171.87 58.5508 171.735 57.8103C171.578 58.5957 171.388 59.4148 171.163 60.2676C170.939 61.0979 170.703 61.917 170.456 62.7249C170.232 63.5104 170.019 64.2397 169.817 64.913C169.615 65.5638 169.458 66.0911 169.345 66.4951ZM193.65 63.3645C194.031 63.3645 194.447 63.3308 194.895 63.2635C195.367 63.1737 195.714 63.0615 195.939 62.9269V60.2339L193.515 60.4359C192.887 60.4808 192.371 60.6154 191.967 60.8398C191.563 61.0643 191.361 61.4009 191.361 61.8497C191.361 62.2985 191.529 62.6688 191.866 62.9606C192.225 63.2299 192.82 63.3645 193.65 63.3645ZM193.381 50.1353C194.592 50.1353 195.692 50.2587 196.679 50.5056C197.689 50.7525 198.542 51.134 199.238 51.6501C199.956 52.1438 200.506 52.7834 200.887 53.5688C201.269 54.3319 201.459 55.2407 201.459 56.2955V63.8358C201.459 64.4192 201.291 64.9017 200.955 65.2832C200.64 65.6423 200.259 65.9565 199.81 66.2258C198.351 67.101 196.298 67.5386 193.65 67.5386C192.46 67.5386 191.383 67.4264 190.418 67.202C189.476 66.9776 188.657 66.6409 187.961 66.1921C187.288 65.7433 186.76 65.171 186.379 64.4753C186.02 63.7797 185.84 62.9718 185.84 62.0517C185.84 60.5032 186.3 59.3138 187.22 58.4835C188.141 57.6532 189.566 57.137 191.496 56.9351L195.905 56.4638V56.2281C195.905 55.5773 195.614 55.1173 195.03 54.848C194.469 54.5563 193.65 54.4104 192.573 54.4104C191.72 54.4104 190.89 54.5002 190.082 54.6797C189.274 54.8592 188.544 55.0836 187.894 55.3529C187.602 55.151 187.355 54.848 187.153 54.4441C186.951 54.0177 186.85 53.5801 186.85 53.1312C186.85 52.5478 186.985 52.0877 187.254 51.7511C187.546 51.392 187.983 51.0891 188.567 50.8422C189.218 50.5954 189.981 50.4158 190.856 50.3036C191.754 50.1914 192.595 50.1353 193.381 50.1353ZM215.326 56.6321C215.326 55.9364 215.124 55.4315 214.72 55.1173C214.339 54.7807 213.812 54.6124 213.138 54.6124C212.69 54.6124 212.241 54.6685 211.792 54.7807C211.365 54.8929 210.995 55.0612 210.681 55.2856V66.9663C210.457 67.0337 210.098 67.101 209.604 67.1683C209.133 67.2356 208.639 67.2693 208.123 67.2693C207.629 67.2693 207.18 67.2356 206.776 67.1683C206.395 67.101 206.069 66.9663 205.8 66.7644C205.531 66.5624 205.318 66.2931 205.16 65.9565C205.026 65.5974 204.958 65.1374 204.958 64.5763V54.4777C204.958 53.8718 205.082 53.3781 205.329 52.9966C205.598 52.6151 205.957 52.2672 206.406 51.9531C207.169 51.4145 208.123 50.9769 209.267 50.6402C210.434 50.3036 211.725 50.1353 213.138 50.1353C215.674 50.1353 217.627 50.6964 218.996 51.8184C220.364 52.918 221.049 54.4553 221.049 56.4301V66.9663C220.825 67.0337 220.465 67.101 219.972 67.1683C219.5 67.2356 219.007 67.2693 218.491 67.2693C217.997 67.2693 217.548 67.2356 217.144 67.1683C216.763 67.101 216.437 66.9663 216.168 66.7644C215.899 66.5624 215.685 66.2931 215.528 65.9565C215.394 65.5974 215.326 65.1374 215.326 64.5763V56.6321ZM230.306 61.3784C230.306 61.9619 230.486 62.3771 230.845 62.6239C231.226 62.8708 231.754 62.9942 232.427 62.9942C232.764 62.9942 233.111 62.9718 233.47 62.9269C233.83 62.8596 234.144 62.781 234.413 62.6913C234.615 62.9381 234.783 63.2186 234.918 63.5328C235.075 63.8245 235.154 64.1836 235.154 64.61C235.154 65.4628 234.828 66.1584 234.177 66.697C233.549 67.2356 232.427 67.5049 230.811 67.5049C228.836 67.5049 227.31 67.0561 226.233 66.1584C225.178 65.2608 224.651 63.8021 224.651 61.7824V47.375C224.898 47.3077 225.246 47.2404 225.695 47.1731C226.166 47.0833 226.66 47.0384 227.176 47.0384C228.163 47.0384 228.926 47.2179 229.465 47.577C230.026 47.9136 230.306 48.643 230.306 49.765V51.9194H234.716C234.851 52.1663 234.974 52.4804 235.086 52.8619C235.221 53.221 235.288 53.625 235.288 54.0738C235.288 54.8592 235.109 55.4315 234.75 55.7905C234.413 56.1272 233.953 56.2955 233.37 56.2955H230.306V61.3784ZM250.523 61.3784C250.523 61.9619 250.703 62.3771 251.062 62.6239C251.443 62.8708 251.971 62.9942 252.644 62.9942C252.981 62.9942 253.328 62.9718 253.687 62.9269C254.046 62.8596 254.361 62.781 254.63 62.6913C254.832 62.9381 255 63.2186 255.135 63.5328C255.292 63.8245 255.371 64.1836 255.371 64.61C255.371 65.4628 255.045 66.1584 254.394 66.697C253.766 67.2356 252.644 67.5049 251.028 67.5049C249.053 67.5049 247.527 67.0561 246.45 66.1584C245.395 65.2608 244.868 63.8021 244.868 61.7824V47.375C245.115 47.3077 245.463 47.2404 245.912 47.1731C246.383 47.0833 246.876 47.0384 247.393 47.0384C248.38 47.0384 249.143 47.2179 249.682 47.577C250.243 47.9136 250.523 48.643 250.523 49.765V51.9194H254.933C255.068 52.1663 255.191 52.4804 255.303 52.8619C255.438 53.221 255.505 53.625 255.505 54.0738C255.505 54.8592 255.326 55.4315 254.967 55.7905C254.63 56.1272 254.17 56.2955 253.586 56.2955H250.523V61.3784ZM275.013 58.8201C275.013 60.2115 274.8 61.457 274.374 62.5566C273.947 63.6338 273.342 64.5427 272.556 65.2832C271.793 66.0238 270.873 66.5848 269.796 66.9663C268.719 67.3478 267.518 67.5386 266.194 67.5386C264.87 67.5386 263.669 67.3366 262.592 66.9327C261.515 66.5287 260.584 65.9565 259.798 65.2159C259.035 64.4529 258.44 63.5328 258.014 62.4556C257.588 61.3784 257.374 60.1666 257.374 58.8201C257.374 57.4961 257.588 56.2955 258.014 55.2183C258.44 54.1411 259.035 53.2322 259.798 52.4917C260.584 51.7287 261.515 51.1452 262.592 50.7412C263.669 50.3373 264.87 50.1353 266.194 50.1353C267.518 50.1353 268.719 50.3485 269.796 50.7749C270.873 51.1788 271.793 51.7623 272.556 52.5253C273.342 53.2659 273.947 54.1748 274.374 55.2519C274.8 56.3291 275.013 57.5185 275.013 58.8201ZM263.232 58.8201C263.232 60.189 263.49 61.2438 264.006 61.9844C264.545 62.7025 265.285 63.0615 266.228 63.0615C267.17 63.0615 267.888 62.6913 268.382 61.9507C268.898 61.2101 269.156 60.1666 269.156 58.8201C269.156 57.4736 268.898 56.4413 268.382 55.7232C267.866 54.9827 267.136 54.6124 266.194 54.6124C265.251 54.6124 264.522 54.9827 264.006 55.7232C263.49 56.4413 263.232 57.4736 263.232 58.8201ZM290.839 60.4022V66.8654C290.592 66.9327 290.199 67 289.661 67.0673C289.145 67.1346 288.629 67.1683 288.112 67.1683C287.596 67.1683 287.136 67.1234 286.732 67.0337C286.351 66.9663 286.025 66.8317 285.756 66.6297C285.509 66.4277 285.318 66.1472 285.184 65.7882C285.049 65.4291 284.982 64.9578 284.982 64.3744V48.5195C284.982 48.0483 285.105 47.6892 285.352 47.4424C285.621 47.1731 285.98 46.9599 286.429 46.8028C287.192 46.5335 288.079 46.3427 289.089 46.2305C290.098 46.0959 291.176 46.0286 292.32 46.0286C295.417 46.0286 297.751 46.6793 299.322 47.9809C300.893 49.2825 301.678 51.0442 301.678 53.2659C301.678 54.6573 301.319 55.8466 300.601 56.8341C299.883 57.8215 299.03 58.5845 298.043 59.1231C298.851 60.2227 299.647 61.255 300.433 62.22C301.218 63.185 301.835 64.0602 302.284 64.8456C302.06 65.6311 301.645 66.237 301.039 66.6634C300.455 67.0673 299.793 67.2693 299.053 67.2693C298.559 67.2693 298.132 67.2132 297.773 67.101C297.414 66.9888 297.1 66.8317 296.831 66.6297C296.562 66.4277 296.315 66.1809 296.09 65.8892C295.866 65.5974 295.653 65.2832 295.451 64.9466L292.623 60.4022H290.839ZM292.96 55.9252C293.812 55.9252 294.486 55.712 294.979 55.2856C295.473 54.8368 295.72 54.186 295.72 53.3332C295.72 52.4804 295.439 51.8409 294.878 51.4145C294.34 50.9656 293.476 50.7412 292.286 50.7412C291.95 50.7412 291.681 50.7525 291.479 50.7749C291.277 50.7973 291.052 50.831 290.805 50.8759V55.9252H292.96ZM304.794 50.8759C305.018 50.8086 305.366 50.7412 305.838 50.6739C306.331 50.6066 306.836 50.5729 307.352 50.5729C307.846 50.5729 308.284 50.6066 308.665 50.6739C309.069 50.7412 309.406 50.8759 309.675 51.0779C309.944 51.2798 310.146 51.5603 310.281 51.9194C310.438 52.256 310.517 52.7049 310.517 53.2659V60.5032C310.517 61.4233 310.741 62.0853 311.19 62.4893C311.639 62.8708 312.289 63.0615 313.142 63.0615C313.658 63.0615 314.074 63.0167 314.388 62.9269C314.724 62.8371 314.982 62.7474 315.162 62.6576V50.8759C315.386 50.8086 315.734 50.7412 316.205 50.6739C316.699 50.6066 317.204 50.5729 317.72 50.5729C318.214 50.5729 318.652 50.6066 319.033 50.6739C319.437 50.7412 319.774 50.8759 320.043 51.0779C320.312 51.2798 320.514 51.5603 320.649 51.9194C320.806 52.256 320.884 52.7049 320.884 53.2659V63.4991C320.884 64.6212 320.413 65.4628 319.471 66.0238C318.685 66.5175 317.743 66.8878 316.643 67.1346C315.566 67.4039 314.388 67.5386 313.109 67.5386C311.897 67.5386 310.775 67.4039 309.742 67.1346C308.732 66.8654 307.857 66.4502 307.117 65.8892C306.376 65.3281 305.804 64.61 305.4 63.7348C304.996 62.8371 304.794 61.7599 304.794 60.5032V50.8759ZM334.754 56.6321C334.754 55.9364 334.552 55.4315 334.148 55.1173C333.767 54.7807 333.239 54.6124 332.566 54.6124C332.117 54.6124 331.669 54.6685 331.22 54.7807C330.793 54.8929 330.423 55.0612 330.109 55.2856V66.9663C329.885 67.0337 329.525 67.101 329.032 67.1683C328.56 67.2356 328.067 67.2693 327.551 67.2693C327.057 67.2693 326.608 67.2356 326.204 67.1683C325.823 67.101 325.497 66.9663 325.228 66.7644C324.959 66.5624 324.745 66.2931 324.588 65.9565C324.454 65.5974 324.386 65.1374 324.386 64.5763V54.4777C324.386 53.8718 324.51 53.3781 324.757 52.9966C325.026 52.6151 325.385 52.2672 325.834 51.9531C326.597 51.4145 327.551 50.9769 328.695 50.6402C329.862 50.3036 331.152 50.1353 332.566 50.1353C335.102 50.1353 337.055 50.6964 338.423 51.8184C339.792 52.918 340.477 54.4553 340.477 56.4301V66.9663C340.252 67.0337 339.893 67.101 339.4 67.1683C338.928 67.2356 338.435 67.2693 337.919 67.2693C337.425 67.2693 336.976 67.2356 336.572 67.1683C336.191 67.101 335.865 66.9663 335.596 66.7644C335.327 66.5624 335.113 66.2931 334.956 65.9565C334.822 65.5974 334.754 65.1374 334.754 64.5763V56.6321ZM356.473 61.3784C356.473 61.9619 356.653 62.3771 357.012 62.6239C357.393 62.8708 357.921 62.9942 358.594 62.9942C358.93 62.9942 359.278 62.9718 359.637 62.9269C359.996 62.8596 360.311 62.781 360.58 62.6913C360.782 62.9381 360.95 63.2186 361.085 63.5328C361.242 63.8245 361.32 64.1836 361.32 64.61C361.32 65.4628 360.995 66.1584 360.344 66.697C359.716 67.2356 358.594 67.5049 356.978 67.5049C355.003 67.5049 353.477 67.0561 352.4 66.1584C351.345 65.2608 350.818 63.8021 350.818 61.7824V47.375C351.065 47.3077 351.413 47.2404 351.861 47.1731C352.333 47.0833 352.826 47.0384 353.343 47.0384C354.33 47.0384 355.093 47.2179 355.632 47.577C356.193 47.9136 356.473 48.643 356.473 49.765V51.9194H360.883C361.018 52.1663 361.141 52.4804 361.253 52.8619C361.388 53.221 361.455 53.625 361.455 54.0738C361.455 54.8592 361.276 55.4315 360.917 55.7905C360.58 56.1272 360.12 56.2955 359.536 56.2955H356.473V61.3784ZM380.386 66.9663C380.162 67.0337 379.803 67.101 379.309 67.1683C378.838 67.2356 378.344 67.2693 377.828 67.2693C377.334 67.2693 376.886 67.2356 376.482 67.1683C376.1 67.101 375.775 66.9663 375.505 66.7644C375.236 66.5624 375.023 66.2931 374.866 65.9565C374.731 65.5974 374.664 65.1374 374.664 64.5763V57.1034C374.664 56.1833 374.428 55.5437 373.957 55.1846C373.508 54.8031 372.947 54.6124 372.274 54.6124C371.825 54.6124 371.399 54.6685 370.995 54.7807C370.591 54.8929 370.265 55.0275 370.018 55.1846V66.9663C369.794 67.0337 369.435 67.101 368.941 67.1683C368.47 67.2356 367.976 67.2693 367.46 67.2693C366.966 67.2693 366.518 67.2356 366.114 67.1683C365.732 67.101 365.407 66.9663 365.137 66.7644C364.868 66.5624 364.655 66.2931 364.498 65.9565C364.363 65.5974 364.296 65.1374 364.296 64.5763V45.0524C364.543 45.0075 364.902 44.9514 365.373 44.884C365.867 44.7943 366.361 44.7494 366.854 44.7494C367.348 44.7494 367.786 44.7831 368.167 44.8504C368.571 44.9177 368.908 45.0524 369.177 45.2543C369.446 45.4563 369.648 45.7368 369.783 46.0959C369.94 46.4325 370.018 46.8813 370.018 47.4424V50.7412C370.31 50.629 370.748 50.5056 371.331 50.371C371.937 50.2139 372.599 50.1353 373.317 50.1353C375.539 50.1353 377.267 50.6964 378.501 51.8184C379.758 52.918 380.386 54.5675 380.386 56.7667V66.9663ZM392.571 67.5386C391.247 67.5386 390.012 67.3591 388.868 67C387.746 66.6185 386.758 66.0575 385.906 65.3169C385.075 64.5763 384.413 63.645 383.92 62.5229C383.448 61.4009 383.213 60.0881 383.213 58.5845C383.213 57.1034 383.448 55.8354 383.92 54.7807C384.413 53.7035 385.053 52.8283 385.838 52.155C386.624 51.4594 387.521 50.9544 388.531 50.6402C389.541 50.3036 390.573 50.1353 391.628 50.1353C392.818 50.1353 393.895 50.3148 394.86 50.6739C395.847 51.033 396.689 51.5267 397.384 52.155C398.102 52.7834 398.652 53.5352 399.034 54.4104C399.438 55.2856 399.64 56.2394 399.64 57.2717C399.64 58.0347 399.427 58.6182 399 59.0221C398.574 59.426 397.979 59.6841 397.216 59.7963L388.902 61.0418C389.148 61.7824 389.653 62.3434 390.416 62.7249C391.179 63.084 392.055 63.2635 393.042 63.2635C393.962 63.2635 394.826 63.1513 395.634 62.9269C396.464 62.68 397.138 62.3995 397.654 62.0853C398.013 62.3098 398.316 62.6239 398.563 63.0279C398.809 63.4318 398.933 63.8582 398.933 64.307C398.933 65.3169 398.462 66.0687 397.519 66.5624C396.801 66.9439 395.993 67.202 395.095 67.3366C394.198 67.4713 393.356 67.5386 392.571 67.5386ZM391.628 54.3094C391.09 54.3094 390.618 54.3992 390.214 54.5787C389.833 54.7582 389.519 54.9939 389.272 55.2856C389.025 55.5549 388.834 55.8691 388.7 56.2281C388.587 56.5648 388.52 56.9126 388.498 57.2717L394.254 56.3291C394.186 55.8803 393.94 55.4315 393.513 54.9827C393.087 54.5338 392.458 54.3094 391.628 54.3094ZM417.212 56.0598C418.155 56.0598 418.873 55.8466 419.366 55.4203C419.883 54.9714 420.141 54.2982 420.141 53.4005C420.141 52.5478 419.871 51.897 419.333 51.4481C418.817 50.9769 418.054 50.7412 417.044 50.7412C416.685 50.7412 416.382 50.7525 416.135 50.7749C415.91 50.7749 415.675 50.7973 415.428 50.8422V56.0598H417.212ZM415.462 66.8654C415.215 66.9327 414.822 67 414.283 67.0673C413.767 67.1346 413.251 67.1683 412.735 67.1683C412.219 67.1683 411.759 67.1234 411.355 67.0337C410.973 66.9663 410.648 66.8317 410.379 66.6297C410.109 66.4277 409.907 66.1472 409.773 65.7882C409.638 65.4291 409.571 64.9578 409.571 64.3744V48.5195C409.571 48.0483 409.694 47.6892 409.941 47.4424C410.21 47.1731 410.569 46.9599 411.018 46.8028C411.781 46.5335 412.645 46.3427 413.61 46.2305C414.598 46.0959 415.585 46.0286 416.573 46.0286C419.669 46.0286 422.037 46.6906 423.675 48.0146C425.313 49.3387 426.133 51.134 426.133 53.4005C426.133 54.5002 425.953 55.4988 425.594 56.3965C425.257 57.2717 424.741 58.0347 424.045 58.6855C423.372 59.3138 422.508 59.8075 421.454 60.1666C420.421 60.5032 419.221 60.6715 417.852 60.6715H415.462V66.8654ZM435.366 63.3645C435.747 63.3645 436.162 63.3308 436.611 63.2635C437.082 63.1737 437.43 63.0615 437.655 62.9269V60.2339L435.231 60.4359C434.603 60.4808 434.086 60.6154 433.683 60.8398C433.279 61.0643 433.077 61.4009 433.077 61.8497C433.077 62.2985 433.245 62.6688 433.582 62.9606C433.941 63.2299 434.535 63.3645 435.366 63.3645ZM435.096 50.1353C436.308 50.1353 437.408 50.2587 438.395 50.5056C439.405 50.7525 440.258 51.134 440.954 51.6501C441.672 52.1438 442.221 52.7834 442.603 53.5688C442.984 54.3319 443.175 55.2407 443.175 56.2955V63.8358C443.175 64.4192 443.007 64.9017 442.67 65.2832C442.356 65.6423 441.975 65.9565 441.526 66.2258C440.067 67.101 438.014 67.5386 435.366 67.5386C434.176 67.5386 433.099 67.4264 432.134 67.202C431.192 66.9776 430.372 66.6409 429.677 66.1921C429.004 65.7433 428.476 65.171 428.095 64.4753C427.736 63.7797 427.556 62.9718 427.556 62.0517C427.556 60.5032 428.016 59.3138 428.936 58.4835C429.856 57.6532 431.281 57.137 433.211 56.9351L437.621 56.4638V56.2281C437.621 55.5773 437.329 55.1173 436.746 54.848C436.185 54.5563 435.366 54.4104 434.288 54.4104C433.436 54.4104 432.605 54.5002 431.797 54.6797C430.99 54.8592 430.26 55.0836 429.609 55.3529C429.318 55.151 429.071 54.848 428.869 54.4441C428.667 54.0177 428.566 53.5801 428.566 53.1312C428.566 52.5478 428.701 52.0877 428.97 51.7511C429.262 51.392 429.699 51.0891 430.283 50.8422C430.933 50.5954 431.696 50.4158 432.572 50.3036C433.469 50.1914 434.311 50.1353 435.096 50.1353ZM448.838 62.8259C448.591 62.2649 448.322 61.6365 448.03 60.9408C447.761 60.2452 447.469 59.4485 447.155 58.5508C446.863 57.6532 446.549 56.6321 446.212 55.4876C445.898 54.3206 445.562 52.9854 445.203 51.4818C445.517 51.1676 445.932 50.8983 446.448 50.6739C446.987 50.4271 447.57 50.3036 448.199 50.3036C448.984 50.3036 449.635 50.4719 450.151 50.8086C450.667 51.1227 451.049 51.7287 451.295 52.6263L453.955 61.8834H454.089C454.359 61.1204 454.617 60.29 454.864 59.3924C455.133 58.4947 455.391 57.5746 455.638 56.6321C455.885 55.6671 456.109 54.7134 456.311 53.7708C456.535 52.8058 456.726 51.8633 456.883 50.9432C457.691 50.5168 458.578 50.3036 459.543 50.3036C460.328 50.3036 460.979 50.4719 461.495 50.8086C462.011 51.1452 462.269 51.7287 462.269 52.559C462.269 53.1649 462.191 53.8718 462.034 54.6797C461.877 55.4651 461.663 56.3067 461.394 57.2043C461.147 58.102 460.844 59.0333 460.485 59.9983C460.149 60.9408 459.789 61.8721 459.408 62.7922C459.026 63.7123 458.634 64.5876 458.23 65.4179C457.826 66.2258 457.433 66.9551 457.052 67.6059C456.423 68.7055 455.84 69.6032 455.301 70.2989C454.763 70.9946 454.246 71.5332 453.753 71.9147C453.259 72.3186 452.765 72.5879 452.272 72.7225C451.778 72.8796 451.262 72.9582 450.723 72.9582C449.781 72.9582 449.018 72.6777 448.434 72.1166C447.851 71.5556 447.503 70.8263 447.391 69.9286C448.109 69.3676 448.827 68.7392 449.545 68.0435C450.263 67.3703 450.914 66.6746 451.497 65.9565C451.116 65.8443 450.701 65.5862 450.252 65.1822C449.826 64.7559 449.354 63.9704 448.838 62.8259ZM470.313 66.9663C470.088 67.0337 469.729 67.101 469.235 67.1683C468.764 67.2356 468.27 67.2693 467.754 67.2693C467.261 67.2693 466.812 67.2356 466.408 67.1683C466.026 67.101 465.701 66.9663 465.432 66.7644C465.162 66.5624 464.949 66.2931 464.792 65.9565C464.657 65.5974 464.59 65.1374 464.59 64.5763V54.4777C464.59 53.9616 464.68 53.524 464.859 53.1649C465.061 52.7834 465.342 52.4468 465.701 52.155C466.06 51.8633 466.498 51.6052 467.014 51.3808C467.552 51.134 468.125 50.9208 468.731 50.7412C469.336 50.5617 469.965 50.4271 470.616 50.3373C471.266 50.2251 471.917 50.169 472.568 50.169C473.645 50.169 474.498 50.3822 475.126 50.8086C475.755 51.2125 476.069 51.8857 476.069 52.8283C476.069 53.1425 476.024 53.4566 475.934 53.7708C475.844 54.0626 475.732 54.3319 475.598 54.5787C475.126 54.5787 474.644 54.6011 474.15 54.646C473.656 54.6909 473.174 54.7582 472.703 54.848C472.231 54.9378 471.783 55.0388 471.356 55.151C470.952 55.2407 470.604 55.3529 470.313 55.4876V66.9663ZM494.737 58.8201C494.737 60.2115 494.524 61.457 494.098 62.5566C493.671 63.6338 493.065 64.5427 492.28 65.2832C491.517 66.0238 490.597 66.5848 489.519 66.9663C488.442 67.3478 487.242 67.5386 485.918 67.5386C484.594 67.5386 483.393 67.3366 482.316 66.9327C481.239 66.5287 480.307 65.9565 479.522 65.2159C478.759 64.4529 478.164 63.5328 477.738 62.4556C477.311 61.3784 477.098 60.1666 477.098 58.8201C477.098 57.4961 477.311 56.2955 477.738 55.2183C478.164 54.1411 478.759 53.2322 479.522 52.4917C480.307 51.7287 481.239 51.1452 482.316 50.7412C483.393 50.3373 484.594 50.1353 485.918 50.1353C487.242 50.1353 488.442 50.3485 489.519 50.7749C490.597 51.1788 491.517 51.7623 492.28 52.5253C493.065 53.2659 493.671 54.1748 494.098 55.2519C494.524 56.3291 494.737 57.5185 494.737 58.8201ZM482.955 58.8201C482.955 60.189 483.213 61.2438 483.73 61.9844C484.268 62.7025 485.009 63.0615 485.951 63.0615C486.894 63.0615 487.612 62.6913 488.106 61.9507C488.622 61.2101 488.88 60.1666 488.88 58.8201C488.88 57.4736 488.622 56.4413 488.106 55.7232C487.59 54.9827 486.86 54.6124 485.918 54.6124C484.975 54.6124 484.246 54.9827 483.73 55.7232C483.213 56.4413 482.955 57.4736 482.955 58.8201ZM503.352 66.9663C503.106 67.0112 502.735 67.0673 502.242 67.1346C501.77 67.2244 501.288 67.2693 500.794 67.2693C500.3 67.2693 499.852 67.2356 499.448 67.1683C499.066 67.101 498.741 66.9663 498.471 66.7644C498.202 66.5624 497.989 66.2931 497.832 65.9565C497.697 65.5974 497.63 65.1374 497.63 64.5763V45.0524C497.877 45.0075 498.236 44.9514 498.707 44.884C499.201 44.7943 499.695 44.7494 500.188 44.7494C500.682 44.7494 501.12 44.7831 501.501 44.8504C501.905 44.9177 502.242 45.0524 502.511 45.2543C502.78 45.4563 502.982 45.7368 503.117 46.0959C503.274 46.4325 503.352 46.8813 503.352 47.4424V66.9663ZM512.787 66.9663C512.54 67.0112 512.17 67.0673 511.676 67.1346C511.205 67.2244 510.722 67.2693 510.229 67.2693C509.735 67.2693 509.286 67.2356 508.882 67.1683C508.501 67.101 508.175 66.9663 507.906 66.7644C507.637 66.5624 507.424 66.2931 507.266 65.9565C507.132 65.5974 507.064 65.1374 507.064 64.5763V45.0524C507.311 45.0075 507.67 44.9514 508.142 44.884C508.635 44.7943 509.129 44.7494 509.623 44.7494C510.117 44.7494 510.554 44.7831 510.936 44.8504C511.34 44.9177 511.676 45.0524 511.945 45.2543C512.215 45.4563 512.417 45.7368 512.551 46.0959C512.708 46.4325 512.787 46.8813 512.787 47.4424V66.9663ZM529.365 47.476C529.365 47.9922 529.353 48.744 529.331 49.7314C529.308 50.6964 529.264 51.7511 529.196 52.8956C529.129 54.0177 529.039 55.151 528.927 56.2955C528.815 57.4175 528.68 58.3937 528.523 59.2241C528.433 59.2914 528.299 59.3587 528.119 59.426C527.94 59.4934 527.749 59.5495 527.547 59.5944C527.345 59.6392 527.143 59.6729 526.941 59.6953C526.739 59.7178 526.559 59.729 526.402 59.729C525.751 59.729 525.202 59.628 524.753 59.426C524.326 59.2241 524.057 58.8313 523.945 58.2479C523.833 57.7317 523.732 56.9463 523.642 55.8915C523.575 54.8368 523.507 53.6923 523.44 52.458C523.373 51.2237 523.317 50.0007 523.272 48.7888C523.249 47.577 523.238 46.5447 523.238 45.6919C523.687 45.4451 524.192 45.2543 524.753 45.1197C525.336 44.9626 525.909 44.884 526.47 44.884C527.39 44.884 528.097 45.0972 528.59 45.5236C529.106 45.95 529.365 46.6008 529.365 47.476ZM523.171 64.4417C523.171 63.5216 523.451 62.7698 524.012 62.1863C524.596 61.5804 525.392 61.2775 526.402 61.2775C527.412 61.2775 528.198 61.5804 528.759 62.1863C529.342 62.7698 529.634 63.5216 529.634 64.4417C529.634 65.3618 529.342 66.1248 528.759 66.7307C528.198 67.3142 527.412 67.6059 526.402 67.6059C525.392 67.6059 524.596 67.3142 524.012 66.7307C523.451 66.1248 523.171 65.3618 523.171 64.4417Z" fill="white"/>
<path opacity="0.3" d="M789.44 139.56C786.619 142.53 783.949 144.446 781.84 145.959C757.048 163.747 727.713 158.562 721.479 157.296C712.272 155.426 694.476 151.811 681.61 136.681C662.145 113.79 665.175 77.7262 680.274 53.9199C683.036 49.5653 697.624 25.3964 727.275 21.5202C745.22 19.1745 766.138 23.9056 781.285 36.5963C813.083 63.2358 810.819 117.052 789.44 139.56Z" fill="url(#paint0_linear_548_2218)"/>
<path d="M677.286 144.01C677.286 145.229 678.284 146.226 679.504 146.226H799.481C800.701 146.226 801.7 145.229 801.7 144.01L802.698 75.0627C802.698 73.8437 801.262 71.4638 798.629 71.6423L681.375 68.6086C679.844 68.569 678.364 69.1582 677.28 70.2388C676.195 71.3194 675.602 72.7972 675.638 74.3266L677.286 144.01Z" fill="url(#paint1_linear_548_2218)"/>
<path d="M679.475 141.884C679.475 143.038 680.42 143.983 681.574 143.983H796.586C797.741 143.983 798.685 143.038 798.685 141.884L799.628 79.2927C799.517 75.5263 796.214 74.1724 794.212 74.2521L681.835 71.2374C680.76 71.2083 679.72 71.623 678.958 72.3827C678.196 73.1424 677.777 74.1824 677.804 75.258L679.475 141.884Z" fill="url(#paint2_linear_548_2218)"/>
<path d="M797.444 112.148C797.443 112.148 797.441 112.148 797.44 112.148C797.27 112.146 797.134 112.006 797.137 111.836L797.211 106.76C797.213 106.591 797.351 106.457 797.518 106.457C797.52 106.457 797.521 106.457 797.523 106.457C797.693 106.459 797.829 106.599 797.826 106.769L797.752 111.845C797.749 112.013 797.612 112.148 797.444 112.148Z" fill="white"/>
<path d="M797.627 99.7089C797.625 99.7089 797.623 99.7089 797.622 99.7089C797.452 99.7064 797.316 99.5665 797.319 99.3965L797.604 79.9553C797.599 78.8004 797.248 77.8783 796.562 77.2209C795.282 75.9938 793.248 76.0565 793.163 76.0605L757.245 75.0972C757.075 75.0927 756.941 74.9513 756.945 74.7818C756.95 74.6118 757.08 74.4674 757.261 74.483L793.158 75.4462C793.381 75.4332 795.546 75.3956 796.988 76.7771C797.799 77.5543 798.214 78.6249 798.22 79.9588L797.934 99.406C797.931 99.5745 797.794 99.7089 797.627 99.7089Z" fill="white"/>
<path d="M667.836 151.95H808.716C808.872 151.95 809 151.823 809 151.667V146.176C809 146.02 808.872 145.893 808.716 145.893H667.836C667.68 145.893 667.553 146.02 667.553 146.176V151.667C667.552 151.823 667.68 151.95 667.836 151.95Z" fill="url(#paint3_linear_548_2218)"/>
<path d="M702.834 75.6993C703.351 81.2278 704.565 88.5369 706.025 94.8357H706.942C705.054 87.2347 703.317 76.8256 703.829 64.8264C704.345 52.7259 707.254 38.0345 701.828 31.0162C697.313 25.1753 678.151 24.3018 671.85 24.1734C671.063 24.1574 670.612 25.081 671.102 25.7089C673.518 28.8048 678.576 35.974 679.017 42.2346C679.598 50.4865 685.895 56.9632 692.151 59.6595C698.408 62.3558 701.778 64.4122 702.834 75.6993Z" fill="url(#paint4_linear_548_2218)"/>
<path d="M679.728 29.2742C683.604 30.2761 687.27 32.0768 690.477 34.5434C692.084 35.772 693.54 37.2151 694.795 38.8268C696.037 40.4475 697.081 42.2422 697.805 44.1702L698.073 44.8943C698.161 45.136 698.227 45.3857 698.304 45.631C698.376 45.8772 698.456 46.1254 698.52 46.3701L698.711 47.1032C698.968 48.0805 699.222 49.0589 699.464 50.0402C699.953 52.0019 700.411 53.9716 700.839 55.9478C701.697 59.9002 702.435 63.8792 702.933 67.9023C702.945 67.9986 702.878 68.0869 702.783 68.0989C702.692 68.1104 702.607 68.0472 702.591 67.956L702.59 67.9505C702.237 65.9702 701.845 63.9895 701.417 62.0208C700.998 60.0496 700.555 58.0834 700.091 56.1223L699.386 53.1838L698.648 50.2533C698.403 49.2765 698.149 48.3017 697.889 47.3284L697.696 46.5982C697.632 46.3545 697.555 46.1239 697.485 45.8857C697.412 45.65 697.351 45.4103 697.268 45.1781L697.015 44.4831C696.334 42.6283 695.331 40.9108 694.162 39.3287C693.56 38.55 692.93 37.7893 692.232 37.0943L691.975 36.829L691.707 36.5738C691.528 36.4043 691.354 36.2303 691.172 36.0643C690.803 35.7379 690.437 35.4069 690.05 35.1005C688.526 33.8469 686.851 32.7828 685.111 31.8491C683.371 30.9184 681.541 30.1317 679.662 29.5495L679.653 29.547C679.58 29.5244 679.538 29.4452 679.561 29.3705C679.582 29.2972 679.656 29.2556 679.728 29.2742Z" fill="white"/>
<path d="M703.014 83.1873C706.291 88.0874 705.87 90.8294 705.971 93.1521C705.989 93.5643 706.011 94.1475 706.058 94.8359H706.953C706.77 93.8907 706.64 92.9375 706.594 92.0028C706.275 85.5887 704.855 74.6416 699.424 68.0932C693.993 61.5447 688.046 60.947 680.552 66.9002C674.308 71.861 670.413 74.3648 668.128 74.8301C667.562 74.9455 667.273 75.5958 667.549 76.1123C669.014 78.8603 673.156 85.173 680.112 84.7287C688.984 84.1611 699.736 78.2866 703.014 83.1873Z" fill="url(#paint5_linear_548_2218)"/>
<path d="M683.09 74.787C683.581 74.3111 684.101 73.8824 684.638 73.4687C685.174 73.056 685.727 72.6633 686.302 72.3048C687.449 71.5832 688.673 70.9679 689.977 70.5437C690.628 70.3341 691.3 70.1726 691.987 70.0834C692.673 69.9986 693.375 69.9871 694.071 70.0754C694.244 70.1039 694.42 70.1205 694.591 70.1601C694.762 70.2012 694.938 70.2343 695.103 70.2825L696.081 70.5913L697.038 70.9704L697.966 71.4243C699.182 72.0766 700.281 72.9587 701.196 73.9972C702.119 75.0332 702.841 76.2266 703.434 77.4627L703.657 77.927C703.734 78.081 703.789 78.2435 703.856 78.4014C703.983 78.7203 704.118 79.0352 704.236 79.3567L704.565 80.329C704.682 80.6509 704.756 80.9854 704.851 81.3133C705.223 82.6276 705.478 83.968 705.7 85.3094C705.713 85.3841 705.663 85.4553 705.589 85.4678C705.519 85.4799 705.452 85.4342 705.436 85.365L705.435 85.3605C705.122 84.0457 704.821 82.7289 704.392 81.4557C704.197 80.8124 703.949 80.1896 703.72 79.5618C703.596 79.2514 703.455 78.949 703.323 78.6426C703.254 78.4912 703.195 78.3342 703.117 78.1878L702.888 77.745C702.283 76.5636 701.549 75.4564 700.671 74.4881C699.793 73.5198 698.751 72.721 697.611 72.1092L696.736 71.687L695.829 71.3335L694.898 71.0447C694.743 71 694.591 70.9704 694.438 70.9318C694.286 70.8952 694.128 70.8802 693.973 70.8526C693.348 70.7694 692.709 70.7744 692.074 70.8481C691.438 70.9173 690.805 71.0537 690.184 71.2387C688.939 71.6078 687.739 72.1589 686.586 72.8002C686.012 73.1257 685.442 73.4657 684.89 73.8337C684.339 74.2023 683.795 74.5914 683.276 75.0006L683.273 75.0031C683.211 75.0512 683.123 75.0402 683.076 74.9775C683.032 74.9194 683.039 74.8366 683.09 74.787Z" fill="white"/>
<path d="M784.442 20.9837L701.187 20.4737C698.451 20.4572 696.263 22.7423 696.399 25.4752L702.126 143.76H794.773L799.917 38.0786L784.442 20.9837Z" fill="#383874"/>
<path d="M787.905 37.5718C785.193 37.4765 783.108 35.1387 783.322 32.4339L784.214 21.1393L799.935 38.0095L787.905 37.5718Z" fill="url(#paint6_linear_548_2218)"/>
<path opacity="0.39" d="M784.831 81.0273H712.609C710.43 81.0273 708.645 80.0319 708.579 78.7793L707.07 50.2925C707.001 48.9847 708.825 47.9031 711.1 47.9031H784.831C787.057 47.9031 788.863 48.9411 788.863 50.2218V78.7086C788.863 79.9888 787.057 81.0273 784.831 81.0273Z" fill="white"/>
<path d="M784.714 81.2822H712.493C710.164 81.2822 708.282 80.1885 708.208 78.7925L706.7 50.3056C706.674 49.8222 706.867 49.3494 707.257 48.9377C708.011 48.1419 709.439 47.6479 710.984 47.6479H784.714C787.118 47.6479 789.001 48.7782 789.001 50.2214V78.7082C789.001 80.1514 787.117 81.2822 784.714 81.2822ZM710.984 48.1574C709.574 48.1574 708.288 48.5907 707.626 49.2882C707.33 49.6001 707.19 49.9331 707.208 50.2786L708.717 78.7654C708.776 79.8721 710.469 80.7722 712.492 80.7722H784.713C786.761 80.7722 788.491 79.827 788.491 78.7082V50.2214C788.491 49.1027 786.761 48.1574 784.713 48.1574H710.984Z" fill="white"/>
<path d="M728.046 47.6739L727.883 81.0258L728.392 81.0282L728.555 47.6763L728.046 47.6739Z" fill="white"/>
<path d="M770.51 47.6733L770.348 81.0251L770.857 81.0276L771.02 47.6757L770.51 47.6733Z" fill="white"/>
<path d="M728.301 56.7269L728.299 57.2363L788.745 57.5323L788.747 57.0229L728.301 56.7269Z" fill="white"/>
<path d="M788.74 69.8295H728.135V70.3389H788.74V69.8295Z" fill="white"/>
<path opacity="0.39" d="M784.954 136.402H712.732C710.554 136.402 708.768 135.406 708.702 134.154L707.193 105.667C707.124 104.359 708.948 103.278 711.223 103.278H784.954C787.18 103.278 788.986 104.316 788.986 105.596V134.083C788.985 135.364 787.18 136.402 784.954 136.402Z" fill="white"/>
<path d="M784.837 136.657H712.616C710.287 136.657 708.405 135.564 708.331 134.168L706.823 105.681C706.797 105.197 706.99 104.724 707.38 104.313C708.134 103.517 709.562 103.023 711.107 103.023H784.837C787.241 103.023 789.124 104.153 789.124 105.597V134.083C789.124 135.527 787.241 136.657 784.837 136.657ZM711.107 103.533C709.698 103.533 708.411 103.966 707.75 104.663C707.454 104.975 707.313 105.308 707.332 105.654L708.84 134.141C708.899 135.247 710.593 136.147 712.616 136.147H784.837C786.884 136.147 788.614 135.202 788.614 134.083V105.597C788.614 104.478 786.885 103.533 784.837 103.533H711.107Z" fill="white"/>
<path d="M728.169 103.048L728.006 136.4L728.515 136.403L728.678 103.051L728.169 103.048Z" fill="white"/>
<path d="M770.635 103.048L770.473 136.4L770.982 136.403L771.145 103.051L770.635 103.048Z" fill="white"/>
<path d="M728.426 112.101L728.424 112.611L788.87 112.907L788.872 112.397L728.426 112.101Z" fill="white"/>
<path d="M788.863 125.205H728.258V125.714H788.863V125.205Z" fill="white"/>
<path opacity="0.55" d="M780.848 42.2677H713.342C713.128 42.2677 712.953 42.0937 712.953 41.8786V36.7939C712.953 36.5793 713.127 36.4048 713.342 36.4048H780.849C781.063 36.4048 781.238 36.5788 781.238 36.7939V41.8786C781.237 42.0937 781.063 42.2677 780.848 42.2677Z" fill="white"/>
<path opacity="0.42" d="M787.5 90.9663H709.139C708.948 90.9663 708.793 90.8114 708.793 90.6203V86.8961C708.793 86.705 708.948 86.55 709.139 86.55H787.5C787.691 86.55 787.846 86.705 787.846 86.8961V90.6203C787.846 90.8114 787.691 90.9663 787.5 90.9663Z" fill="white"/>
<path opacity="0.42" d="M787.269 97.7608H708.908C708.717 97.7608 708.562 97.6058 708.562 97.4147V93.6905C708.562 93.4994 708.717 93.3445 708.908 93.3445H787.269C787.461 93.3445 787.615 93.4994 787.615 93.6905V97.4147C787.615 97.6063 787.461 97.7608 787.269 97.7608Z" fill="white"/>
<path d="M683.442 93.059C683.12 104.532 682.078 144.108 682.576 158.133C682.628 159.618 683.974 160.811 685.652 160.859C693.952 161.1 724.38 161.709 737.956 161.205C740.783 161.1 743.032 159.072 743.091 156.567C743.373 144.524 743.995 110.652 742.516 95.136C742.338 93.2771 740.691 91.7963 738.594 91.6108C729.554 90.81 698.996 88.8533 687.267 89.5272C685.152 89.6491 683.494 91.183 683.442 93.059Z" fill="url(#paint7_linear_548_2218)"/>
<path d="M685.826 98.1175V107.841C685.826 109.705 687.338 111.217 689.202 111.217H735.658C737.523 111.217 739.034 109.705 739.034 107.841V98.1175C739.034 96.2531 737.523 94.7412 735.658 94.7412H689.202C687.338 94.7412 685.826 96.2531 685.826 98.1175Z" fill="url(#paint8_linear_548_2218)"/>
<path opacity="0.2" d="M736.665 98.0617C736.254 97.637 735.692 97.3933 735.101 97.3838L691.632 96.6933C690.469 96.6747 689.489 97.5538 689.381 98.7106L688.478 108.354C688.403 109.144 689.703 109.809 691.359 109.829L734.095 110.347C735.749 110.367 737.116 109.736 737.129 108.947L737.29 99.6478C737.301 99.0566 737.076 98.4865 736.665 98.0617Z" fill="white"/>
<path opacity="0.63" d="M697.439 121.076C697.439 122.791 696.048 124.182 694.333 124.182H690.551C688.836 124.182 687.445 122.791 687.445 121.076C687.445 119.36 688.836 117.97 690.551 117.97H694.333C696.048 117.97 697.439 119.36 697.439 121.076Z" fill="url(#paint9_linear_548_2218)"/>
<path opacity="0.63" d="M711.484 121.076C711.484 122.791 710.093 124.182 708.378 124.182H704.596C702.881 124.182 701.49 122.791 701.49 121.076C701.49 119.36 702.881 117.97 704.596 117.97H708.378C710.093 117.97 711.484 119.36 711.484 121.076Z" fill="url(#paint10_linear_548_2218)"/>
<path opacity="0.63" d="M724.988 121.076C724.988 122.791 723.597 124.182 721.882 124.182H718.1C716.385 124.182 714.994 122.791 714.994 121.076C714.994 119.36 716.385 117.97 718.1 117.97H721.882C723.597 117.97 724.988 119.36 724.988 121.076Z" fill="url(#paint11_linear_548_2218)"/>
<path d="M738.678 121.531C738.678 123.274 737.265 124.687 735.522 124.687H731.867C730.124 124.687 728.711 123.274 728.711 121.531C728.711 119.788 730.124 118.375 731.867 118.375H735.522C737.265 118.375 738.678 119.788 738.678 121.531Z" fill="url(#paint12_linear_548_2218)"/>
<path opacity="0.63" d="M697.439 130.799C697.439 132.514 696.048 133.905 694.333 133.905H690.551C688.836 133.905 687.445 132.514 687.445 130.799C687.445 129.083 688.836 127.693 690.551 127.693H694.333C696.048 127.693 697.439 129.083 697.439 130.799Z" fill="url(#paint13_linear_548_2218)"/>
<path opacity="0.63" d="M711.484 130.799C711.484 132.514 710.093 133.905 708.378 133.905H704.596C702.881 133.905 701.49 132.514 701.49 130.799C701.49 129.083 702.881 127.693 704.596 127.693H708.378C710.093 127.693 711.484 129.083 711.484 130.799Z" fill="url(#paint14_linear_548_2218)"/>
<path opacity="0.63" d="M724.988 130.799C724.988 132.514 723.597 133.905 721.882 133.905H718.1C716.385 133.905 714.994 132.514 714.994 130.799C714.994 129.083 716.385 127.693 718.1 127.693H721.882C723.597 127.693 724.988 129.083 724.988 130.799Z" fill="url(#paint15_linear_548_2218)"/>
<path d="M739.032 130.799C739.032 132.514 737.642 133.905 735.926 133.905H732.145C730.43 133.905 729.039 132.514 729.039 130.799C729.039 129.083 730.43 127.693 732.145 127.693H735.926C737.642 127.693 739.032 129.083 739.032 130.799Z" fill="url(#paint16_linear_548_2218)"/>
<path opacity="0.63" d="M697.439 139.41C697.439 141.126 696.048 142.516 694.333 142.516H690.551C688.836 142.516 687.445 141.126 687.445 139.41C687.445 137.695 688.836 136.304 690.551 136.304H694.333C696.048 136.304 697.439 137.695 697.439 139.41Z" fill="url(#paint17_linear_548_2218)"/>
<path opacity="0.63" d="M711.484 139.41C711.484 141.126 710.093 142.516 708.378 142.516H704.596C702.881 142.516 701.49 141.126 701.49 139.41C701.49 137.695 702.881 136.304 704.596 136.304H708.378C710.093 136.304 711.484 137.695 711.484 139.41Z" fill="url(#paint18_linear_548_2218)"/>
<path opacity="0.63" d="M724.988 139.41C724.988 141.126 723.597 142.516 721.882 142.516H718.1C716.385 142.516 714.994 141.126 714.994 139.41C714.994 137.695 716.385 136.304 718.1 136.304H721.882C723.597 136.304 724.988 137.695 724.988 139.41Z" fill="url(#paint19_linear_548_2218)"/>
<path opacity="0.63" d="M697.441 148.862C697.441 150.578 696.05 151.968 694.335 151.968H690.553C688.838 151.968 687.447 150.578 687.447 148.862C687.447 147.147 688.838 145.756 690.553 145.756H694.335C696.05 145.756 697.441 147.147 697.441 148.862Z" fill="url(#paint20_linear_548_2218)"/>
<path opacity="0.63" d="M711.486 148.862C711.486 150.578 710.095 151.968 708.38 151.968H704.598C702.883 151.968 701.492 150.578 701.492 148.862C701.492 147.147 702.883 145.756 704.598 145.756H708.38C710.095 145.756 711.486 147.147 711.486 148.862Z" fill="url(#paint21_linear_548_2218)"/>
<path opacity="0.63" d="M724.989 148.862C724.989 150.578 723.599 151.968 721.883 151.968H718.102C716.387 151.968 714.996 150.578 714.996 148.862C714.996 147.147 716.387 145.756 718.102 145.756H721.883C723.599 145.756 724.989 147.147 724.989 148.862Z" fill="url(#paint22_linear_548_2218)"/>
<path d="M737.682 148.609C737.682 150.781 735.922 152.541 733.751 152.541H733.511C731.34 152.541 729.58 150.781 729.58 148.609V141.078C729.58 138.906 731.34 137.146 733.511 137.146H733.751C735.922 137.146 737.682 138.906 737.682 141.078V148.609Z" fill="url(#paint23_linear_548_2218)"/>
<g opacity="0.7">
<path opacity="0.7" d="M732.28 99.4679C732.28 99.841 731.978 100.143 731.605 100.143H729.715C729.341 100.143 729.039 99.841 729.039 99.4679C729.039 99.0949 729.341 98.7925 729.715 98.7925H731.605C731.978 98.793 732.28 99.0954 732.28 99.4679Z" fill="white"/>
<path opacity="0.7" d="M732.28 108.651C732.28 109.024 731.978 109.326 731.605 109.326H729.715C729.341 109.326 729.039 109.024 729.039 108.651C729.039 108.277 729.341 107.975 729.715 107.975H731.605C731.978 107.976 732.28 108.278 732.28 108.651Z" fill="white"/>
<path opacity="0.7" d="M729.31 103.249C729.31 103.622 729.008 103.925 728.634 103.925C728.261 103.925 727.959 103.622 727.959 103.249V101.359C727.959 100.986 728.261 100.683 728.634 100.683C729.008 100.683 729.31 100.986 729.31 101.359V103.249Z" fill="white"/>
<path opacity="0.7" d="M729.31 107.031C729.31 107.404 729.008 107.706 728.634 107.706C728.261 107.706 727.959 107.404 727.959 107.031V105.14C727.959 104.767 728.261 104.465 728.634 104.465C729.008 104.465 729.31 104.767 729.31 105.14V107.031Z" fill="white"/>
<path opacity="0.7" d="M733.902 103.249C733.902 103.622 733.599 103.925 733.226 103.925C732.853 103.925 732.551 103.622 732.551 103.249V101.359C732.551 100.986 732.853 100.683 733.226 100.683C733.599 100.683 733.902 100.986 733.902 101.359V103.249Z" fill="white"/>
<path opacity="0.7" d="M733.902 107.031C733.902 107.404 733.599 107.706 733.226 107.706C732.853 107.706 732.551 107.404 732.551 107.031V105.14C732.551 104.767 732.853 104.465 733.226 104.465C733.599 104.465 733.902 104.767 733.902 105.14V107.031Z" fill="white"/>
</g>
<path d="M741.108 78.462C745.43 78.462 748.934 74.9579 748.934 70.6353C748.934 66.3128 745.43 62.8087 741.108 62.8087C736.785 62.8087 733.281 66.3128 733.281 70.6353C733.281 74.9579 736.785 78.462 741.108 78.462Z" fill="url(#paint24_linear_548_2218)"/>
<path d="M741.107 78.2013C745.286 78.2013 748.674 74.8138 748.674 70.635C748.674 66.4562 745.286 63.0686 741.107 63.0686C736.929 63.0686 733.541 66.4562 733.541 70.635C733.541 74.8138 736.929 78.2013 741.107 78.2013Z" fill="url(#paint25_linear_548_2218)"/>
<path d="M734.497 68.7391C734.46 68.7451 734.42 68.7426 734.38 68.7296C734.248 68.6865 734.174 68.5436 734.217 68.4112C735.064 65.7941 737.277 63.9062 739.993 63.4834C740.426 63.4157 740.867 63.3877 741.301 63.3987C741.44 63.4022 741.551 63.5185 741.547 63.6579C741.544 63.7978 741.428 63.9092 741.288 63.9042C740.884 63.8941 740.474 63.9207 740.071 63.9834C737.545 64.3765 735.487 66.1326 734.699 68.5666C734.669 68.6609 734.589 68.7251 734.497 68.7391Z" fill="white"/>
<path opacity="0.78" d="M745.823 75.3012C748.324 72.8003 748.324 68.7456 745.823 66.2447C743.322 63.7438 739.267 63.7438 736.767 66.2447C734.266 68.7456 734.266 72.8003 736.767 75.3012C739.267 77.8021 743.322 77.8021 745.823 75.3012Z" fill="white"/>
<path d="M741.407 75.5734L741.299 74.8849C740.577 74.9682 739.841 74.909 739.303 74.7666C739.111 74.716 738.987 74.5279 739.009 74.3303L739.084 73.6619C739.112 73.4167 739.349 73.2552 739.588 73.3144C740.121 73.4463 740.764 73.516 741.43 73.4122C742.122 73.3044 742.601 72.99 742.526 72.5096C742.458 72.0763 742.02 71.8803 741.019 71.7724C739.59 71.611 738.513 71.1667 738.325 69.9597C738.155 68.8701 738.822 67.9143 740.17 67.4765L740.063 66.788C740.028 66.5664 740.18 66.3588 740.401 66.3242L740.806 66.261C741.028 66.2264 741.235 66.3784 741.269 66.5995L741.366 67.2178C742.034 67.1411 742.535 67.1792 742.94 67.2544C743.147 67.293 743.287 67.4881 743.264 67.6977L743.195 68.316C743.169 68.5541 742.944 68.7176 742.709 68.6685C742.335 68.5897 741.814 68.5286 741.165 68.6299C740.345 68.7577 740.164 69.1338 740.211 69.4382C740.269 69.8133 740.802 69.9943 741.919 70.1563C743.513 70.3759 744.244 70.9105 744.421 72.0467C744.584 73.0893 743.957 74.1473 742.493 74.6152L742.613 75.3854C742.648 75.607 742.496 75.8146 742.275 75.8487L741.87 75.9119C741.649 75.9465 741.441 75.7951 741.407 75.5734Z" fill="url(#paint26_linear_548_2218)"/>
<path d="M758.787 63.0704C765.842 63.0704 771.561 57.3515 771.561 50.297C771.561 43.2424 765.842 37.5236 758.787 37.5236C751.733 37.5236 746.014 43.2424 746.014 50.297C746.014 57.3515 751.733 63.0704 758.787 63.0704Z" fill="url(#paint27_linear_548_2218)"/>
<path d="M758.786 62.6455C765.606 62.6455 771.135 57.1168 771.135 50.2968C771.135 43.4768 765.606 37.9481 758.786 37.9481C751.966 37.9481 746.438 43.4768 746.438 50.2968C746.438 57.1168 751.966 62.6455 758.786 62.6455Z" fill="url(#paint28_linear_548_2218)"/>
<path d="M747.973 47.0297C747.937 47.0352 747.9 47.0327 747.863 47.0207C747.739 46.9806 747.67 46.8467 747.711 46.7223C749.072 42.5152 752.631 39.4794 756.997 38.7994C757.693 38.6911 758.401 38.645 759.1 38.6635C759.231 38.6671 759.335 38.7759 759.331 38.9067C759.328 39.0376 759.219 39.1424 759.088 39.1374C758.417 39.1199 757.738 39.164 757.07 39.2683C752.882 39.9202 749.469 42.8326 748.162 46.8683C748.134 46.9565 748.058 47.0162 747.973 47.0297Z" fill="white"/>
<path opacity="0.78" d="M766.484 57.9124C770.565 53.8308 770.565 47.2132 766.484 43.1316C762.402 39.05 755.785 39.05 751.703 43.1316C747.621 47.2132 747.621 53.8308 751.703 57.9124C755.785 61.994 762.402 61.994 766.484 57.9124Z" fill="white"/>
<path d="M759.276 58.3568L759.101 57.233C757.922 57.3684 756.721 57.2726 755.842 57.0405C755.528 56.9577 755.327 56.6513 755.363 56.3284L755.485 55.2372C755.53 54.8371 755.917 54.5733 756.307 54.6701C757.177 54.8852 758.227 54.9991 759.314 54.8296C760.442 54.6541 761.224 54.1406 761.101 53.3563C760.991 52.6488 760.275 52.3293 758.642 52.1528C756.31 51.8891 754.552 51.164 754.245 49.1948C753.969 47.4166 755.057 45.8566 757.257 45.1421L757.082 44.0183C757.026 43.6568 757.273 43.3178 757.635 43.2616L758.295 43.1588C758.656 43.1027 758.995 43.3499 759.051 43.7114L759.208 44.7203C760.299 44.595 761.117 44.6577 761.777 44.78C762.115 44.8427 762.344 45.1611 762.306 45.5031L762.194 46.512C762.151 46.9012 761.784 47.1674 761.401 47.0872C760.791 46.9588 759.94 46.859 758.881 47.024C757.543 47.2326 757.247 47.8464 757.324 48.3433C757.419 48.9551 758.288 49.2509 760.111 49.5152C762.713 49.8737 763.906 50.7458 764.195 52.6006C764.46 54.3025 763.436 56.0285 761.048 56.7917L761.244 58.0489C761.3 58.4104 761.053 58.7494 760.691 58.8056L760.031 58.9084C759.67 58.9655 759.332 58.7183 759.276 58.3568Z" fill="url(#paint29_linear_548_2218)"/>
<path d="M771.882 90.2759C779.141 90.2759 785.025 84.3913 785.025 77.1324C785.025 69.8734 779.141 63.9889 771.882 63.9889C764.623 63.9889 758.738 69.8734 758.738 77.1324C758.738 84.3913 764.623 90.2759 771.882 90.2759Z" fill="url(#paint30_linear_548_2218)"/>
<path d="M771.881 89.8381C778.898 89.8381 784.587 84.1491 784.587 77.1314C784.587 70.1137 778.898 64.4247 771.881 64.4247C764.863 64.4247 759.174 70.1137 759.174 77.1314C759.174 84.1491 764.863 89.8381 771.881 89.8381Z" fill="url(#paint31_linear_548_2218)"/>
<path d="M760.752 73.763C760.716 73.7685 760.679 73.766 760.643 73.7545C760.518 73.7139 760.45 73.5805 760.49 73.4556C761.89 69.1291 765.55 66.0071 770.04 65.3081C770.756 65.1967 771.484 65.1491 772.203 65.1682C772.333 65.1717 772.437 65.2805 772.434 65.4114C772.43 65.5422 772.322 65.646 772.191 65.642C771.5 65.6245 770.801 65.6696 770.113 65.7769C765.801 66.4484 762.286 69.4465 760.942 73.6015C760.913 73.6898 760.838 73.75 760.752 73.763Z" fill="white"/>
<path opacity="0.78" d="M779.8 84.968C784 80.7681 784 73.9587 779.8 69.7588C775.6 65.559 768.791 65.559 764.591 69.7588C760.391 73.9587 760.391 80.7681 764.591 84.968C768.791 89.1679 775.6 89.1679 779.8 84.968Z" fill="white"/>
<path d="M772.385 85.4255L772.205 84.2692C770.992 84.4086 769.755 84.3098 768.851 84.0711C768.528 83.9858 768.321 83.6704 768.359 83.3385L768.485 82.2157C768.531 81.804 768.929 81.5327 769.331 81.632C770.226 81.8532 771.306 81.9705 772.425 81.7965C773.586 81.616 774.39 81.0875 774.264 80.2806C774.151 79.5525 773.415 79.2241 771.734 79.0426C769.334 78.7713 767.525 78.0251 767.21 75.9988C766.925 74.169 768.045 72.5638 770.309 71.8287L770.129 70.6724C770.071 70.3003 770.325 69.9518 770.697 69.8941L771.377 69.7883C771.749 69.7301 772.097 69.9849 772.155 70.3569L772.316 71.3949C773.439 71.2661 774.28 71.3303 774.959 71.4566C775.308 71.5213 775.543 71.8488 775.505 72.2008L775.39 73.2388C775.346 73.6389 774.968 73.9132 774.573 73.8305C773.946 73.6986 773.071 73.5953 771.98 73.7653C770.603 73.9799 770.299 74.6117 770.378 75.1232C770.476 75.753 771.37 76.0569 773.246 76.3292C775.923 76.6983 777.151 77.5954 777.448 79.5039C777.721 81.2549 776.667 83.0311 774.21 83.8168L774.412 85.1106C774.47 85.4827 774.215 85.8312 773.843 85.8888L773.164 85.9946C772.791 86.0518 772.443 85.7976 772.385 85.4255Z" fill="url(#paint32_linear_548_2218)"/>
<path d="M784.733 63.4922C790.538 63.4922 795.244 58.7858 795.244 52.9803C795.244 47.1747 790.538 42.4684 784.733 42.4684C778.927 42.4684 774.221 47.1747 774.221 52.9803C774.221 58.7858 778.927 63.4922 784.733 63.4922Z" fill="url(#paint33_linear_548_2218)"/>
<path d="M784.733 63.143C790.345 63.143 794.895 58.5931 794.895 52.9806C794.895 47.3681 790.345 42.8182 784.733 42.8182C779.12 42.8182 774.57 47.3681 774.57 52.9806C774.57 58.5931 779.12 63.143 784.733 63.143Z" fill="url(#paint34_linear_548_2218)"/>
<path d="M775.841 50.3541C775.803 50.3601 775.762 50.3576 775.722 50.3445C775.586 50.3004 775.512 50.1545 775.556 50.0186C776.683 46.533 779.631 44.0183 783.248 43.4551C783.825 43.3654 784.411 43.3273 784.99 43.3423C785.133 43.3458 785.246 43.4647 785.243 43.6076C785.239 43.7505 785.121 43.8653 784.977 43.8598C784.429 43.8458 783.874 43.8819 783.328 43.9666C779.906 44.4997 777.116 46.8795 776.049 50.1776C776.017 50.2738 775.935 50.3395 775.841 50.3541Z" fill="white"/>
<path opacity="0.78" d="M791.065 59.247C794.424 55.8881 794.424 50.4424 791.065 47.0836C787.707 43.7248 782.261 43.7248 778.902 47.0836C775.543 50.4424 775.543 55.8881 778.902 59.247C782.261 62.6058 787.707 62.6058 791.065 59.247Z" fill="white"/>
<path d="M785.135 59.6129L784.991 58.6882C784.021 58.7996 783.032 58.7208 782.309 58.5298C782.051 58.4616 781.885 58.2093 781.915 57.9441L782.016 57.0465C782.053 56.717 782.371 56.5004 782.693 56.5796C783.408 56.7566 784.272 56.8504 785.167 56.711C786.095 56.5666 786.738 56.1439 786.638 55.4985C786.547 54.9163 785.959 54.6536 784.614 54.5081C782.695 54.291 781.248 53.6943 780.996 52.0736C780.768 50.6104 781.664 49.3262 783.474 48.7385L783.331 47.8138C783.284 47.5164 783.488 47.2376 783.785 47.191L784.328 47.1063C784.626 47.0601 784.905 47.2637 784.951 47.5611L785.081 48.3915C785.978 48.2882 786.651 48.3398 787.194 48.4406C787.472 48.4923 787.661 48.754 787.63 49.0358L787.538 49.8662C787.503 50.1862 787.201 50.4058 786.885 50.3396C786.383 50.2343 785.683 50.1516 784.811 50.2874C783.71 50.4589 783.466 50.9644 783.53 51.3736C783.608 51.877 784.323 52.1202 785.824 52.3379C787.965 52.6332 788.947 53.3503 789.184 54.8767C789.403 56.2773 788.56 57.6979 786.595 58.3262L786.756 59.3612C786.802 59.6585 786.598 59.9373 786.301 59.984L785.758 60.0687C785.46 60.1138 785.181 59.9103 785.135 59.6129Z" fill="url(#paint35_linear_548_2218)"/>
<defs>
<linearGradient id="paint0_linear_548_2218" x1="823.23" y1="199.717" x2="700.404" y2="47.175" gradientUnits="userSpaceOnUse">
<stop stop-color="#B37CFF"/>
<stop offset="1" stop-color="#F895E7"/>
</linearGradient>
<linearGradient id="paint1_linear_548_2218" x1="750.451" y1="140.926" x2="722.115" y2="55.9185" gradientUnits="userSpaceOnUse">
<stop stop-color="#2B3582"/>
<stop offset="1" stop-color="#150E42"/>
</linearGradient>
<linearGradient id="paint2_linear_548_2218" x1="786.8" y1="65.4771" x2="683.452" y2="156.214" gradientUnits="userSpaceOnUse">
<stop stop-color="#3CCB93"/>
<stop offset="0.6645" stop-color="#E57A58"/>
<stop offset="1" stop-color="#3CCB93"/>
</linearGradient>
<linearGradient id="paint3_linear_548_2218" x1="684.496" y1="135.84" x2="810.726" y2="166.544" gradientUnits="userSpaceOnUse">
<stop stop-color="#2B3582"/>
<stop offset="1" stop-color="#150E42"/>
</linearGradient>
<linearGradient id="paint4_linear_548_2218" x1="670.898" y1="59.5044" x2="710.959" y2="59.5044" gradientUnits="userSpaceOnUse">
<stop stop-color="#CE1567"/>
<stop offset="1" stop-color="#7A1DBC"/>
</linearGradient>
<linearGradient id="paint5_linear_548_2218" x1="667.443" y1="78.8097" x2="710.503" y2="78.8097" gradientUnits="userSpaceOnUse">
<stop stop-color="#A737D5"/>
<stop offset="1" stop-color="#EF497A"/>
</linearGradient>
<linearGradient id="paint6_linear_548_2218" x1="798.878" y1="20.1133" x2="831.188" y2="-24.8121" gradientUnits="userSpaceOnUse">
<stop stop-color="#53D8FF"/>
<stop offset="0.2057" stop-color="#4DB9FD"/>
<stop offset="1" stop-color="#3840F7"/>
</linearGradient>
<linearGradient id="paint7_linear_548_2218" x1="708.966" y1="148.694" x2="726.291" y2="52.6423" gradientUnits="userSpaceOnUse">
<stop stop-color="#2B3582"/>
<stop offset="0.2347" stop-color="#283079"/>
<stop offset="0.6173" stop-color="#202161"/>
<stop offset="1" stop-color="#150E42"/>
</linearGradient>
<linearGradient id="paint8_linear_548_2218" x1="708.434" y1="119.545" x2="714.122" y2="95.9671" gradientUnits="userSpaceOnUse">
<stop stop-color="#A737D5"/>
<stop offset="1" stop-color="#EF497A"/>
</linearGradient>
<linearGradient id="paint9_linear_548_2218" x1="677.043" y1="135.901" x2="717.96" y2="96.5089" gradientUnits="userSpaceOnUse">
<stop stop-color="#53D8FF"/>
<stop offset="1" stop-color="#3840F7"/>
</linearGradient>
<linearGradient id="paint10_linear_548_2218" x1="683.799" y1="142.918" x2="724.716" y2="103.526" gradientUnits="userSpaceOnUse">
<stop stop-color="#53D8FF"/>
<stop offset="1" stop-color="#3840F7"/>
</linearGradient>
<linearGradient id="paint11_linear_548_2218" x1="690.294" y1="149.666" x2="731.211" y2="110.274" gradientUnits="userSpaceOnUse">
<stop stop-color="#53D8FF"/>
<stop offset="1" stop-color="#3840F7"/>
</linearGradient>
<linearGradient id="paint12_linear_548_2218" x1="736.778" y1="117.895" x2="714.517" y2="144.142" gradientUnits="userSpaceOnUse">
<stop stop-color="#E40045"/>
<stop offset="1" stop-color="#5C0E16"/>
</linearGradient>
<linearGradient id="paint13_linear_548_2218" x1="681.901" y1="140.947" x2="722.818" y2="101.555" gradientUnits="userSpaceOnUse">
<stop stop-color="#53D8FF"/>
<stop offset="1" stop-color="#3840F7"/>
</linearGradient>
<linearGradient id="paint14_linear_548_2218" x1="688.657" y1="147.964" x2="729.574" y2="108.572" gradientUnits="userSpaceOnUse">
<stop stop-color="#53D8FF"/>
<stop offset="1" stop-color="#3840F7"/>
</linearGradient>
<linearGradient id="paint15_linear_548_2218" x1="695.152" y1="154.712" x2="736.069" y2="115.32" gradientUnits="userSpaceOnUse">
<stop stop-color="#53D8FF"/>
<stop offset="1" stop-color="#3840F7"/>
</linearGradient>
<linearGradient id="paint16_linear_548_2218" x1="701.908" y1="161.729" x2="742.825" y2="122.337" gradientUnits="userSpaceOnUse">
<stop stop-color="#53D8FF"/>
<stop offset="1" stop-color="#3840F7"/>
</linearGradient>
<linearGradient id="paint17_linear_548_2218" x1="686.203" y1="145.416" x2="727.12" y2="106.024" gradientUnits="userSpaceOnUse">
<stop stop-color="#53D8FF"/>
<stop offset="1" stop-color="#3840F7"/>
</linearGradient>
<linearGradient id="paint18_linear_548_2218" x1="692.959" y1="152.434" x2="733.876" y2="113.042" gradientUnits="userSpaceOnUse">
<stop stop-color="#53D8FF"/>
<stop offset="1" stop-color="#3840F7"/>
</linearGradient>
<linearGradient id="paint19_linear_548_2218" x1="699.455" y1="159.181" x2="740.372" y2="119.789" gradientUnits="userSpaceOnUse">
<stop stop-color="#53D8FF"/>
<stop offset="1" stop-color="#3840F7"/>
</linearGradient>
<linearGradient id="paint20_linear_548_2218" x1="690.929" y1="150.322" x2="731.845" y2="110.93" gradientUnits="userSpaceOnUse">
<stop stop-color="#53D8FF"/>
<stop offset="1" stop-color="#3840F7"/>
</linearGradient>
<linearGradient id="paint21_linear_548_2218" x1="697.685" y1="157.339" x2="738.602" y2="117.947" gradientUnits="userSpaceOnUse">
<stop stop-color="#53D8FF"/>
<stop offset="1" stop-color="#3840F7"/>
</linearGradient>
<linearGradient id="paint22_linear_548_2218" x1="704.18" y1="164.086" x2="745.097" y2="124.694" gradientUnits="userSpaceOnUse">
<stop stop-color="#53D8FF"/>
<stop offset="1" stop-color="#3840F7"/>
</linearGradient>
<linearGradient id="paint23_linear_548_2218" x1="729.336" y1="151.083" x2="742.806" y2="131.514" gradientUnits="userSpaceOnUse">
<stop stop-color="#53D8FF"/>
<stop offset="1" stop-color="#3840F7"/>
</linearGradient>
<linearGradient id="paint24_linear_548_2218" x1="732.437" y1="84.566" x2="740.936" y2="70.9111" gradientUnits="userSpaceOnUse">
<stop stop-color="#FDF53F"/>
<stop offset="1" stop-color="#D93C65"/>
</linearGradient>
<linearGradient id="paint25_linear_548_2218" x1="745.43" y1="61.2165" x2="721.969" y2="112.331" gradientUnits="userSpaceOnUse">
<stop stop-color="#FDF53F"/>
<stop offset="1" stop-color="#D93C65"/>
</linearGradient>
<linearGradient id="paint26_linear_548_2218" x1="744.722" y1="62.687" x2="732.657" y2="92.6497" gradientUnits="userSpaceOnUse">
<stop stop-color="#FDF53F"/>
<stop offset="1" stop-color="#D93C65"/>
</linearGradient>
<linearGradient id="paint27_linear_548_2218" x1="744.637" y1="73.0321" x2="758.507" y2="50.7473" gradientUnits="userSpaceOnUse">
<stop stop-color="#FDF53F"/>
<stop offset="1" stop-color="#D93C65"/>
</linearGradient>
<linearGradient id="paint28_linear_548_2218" x1="765.841" y1="34.9263" x2="727.553" y2="118.344" gradientUnits="userSpaceOnUse">
<stop stop-color="#FDF53F"/>
<stop offset="1" stop-color="#D93C65"/>
</linearGradient>
<linearGradient id="paint29_linear_548_2218" x1="764.685" y1="37.326" x2="744.995" y2="86.225" gradientUnits="userSpaceOnUse">
<stop stop-color="#FDF53F"/>
<stop offset="1" stop-color="#D93C65"/>
</linearGradient>
<linearGradient id="paint30_linear_548_2218" x1="757.321" y1="100.527" x2="771.593" y2="77.5957" gradientUnits="userSpaceOnUse">
<stop stop-color="#FDF53F"/>
<stop offset="1" stop-color="#D93C65"/>
</linearGradient>
<linearGradient id="paint31_linear_548_2218" x1="779.14" y1="61.3153" x2="739.742" y2="147.151" gradientUnits="userSpaceOnUse">
<stop stop-color="#FDF53F"/>
<stop offset="1" stop-color="#D93C65"/>
</linearGradient>
<linearGradient id="paint32_linear_548_2218" x1="777.952" y1="63.785" x2="757.691" y2="114.102" gradientUnits="userSpaceOnUse">
<stop stop-color="#FDF53F"/>
<stop offset="1" stop-color="#D93C65"/>
</linearGradient>
<linearGradient id="paint33_linear_548_2218" x1="773.087" y1="71.6899" x2="784.502" y2="53.3506" gradientUnits="userSpaceOnUse">
<stop stop-color="#FDF53F"/>
<stop offset="1" stop-color="#D93C65"/>
</linearGradient>
<linearGradient id="paint34_linear_548_2218" x1="790.539" y1="40.3313" x2="759.029" y2="108.98" gradientUnits="userSpaceOnUse">
<stop stop-color="#FDF53F"/>
<stop offset="1" stop-color="#D93C65"/>
</linearGradient>
<linearGradient id="paint35_linear_548_2218" x1="789.587" y1="42.3055" x2="773.383" y2="82.5469" gradientUnits="userSpaceOnUse">
<stop stop-color="#FDF53F"/>
<stop offset="1" stop-color="#D93C65"/>
</linearGradient>
</defs>
</svg>
