<svg width="25" height="25" viewBox="0 0 25 25" fill="none" xmlns="http://www.w3.org/2000/svg">
<path d="M24.621 12.0405C24.621 12.6531 24.621 13.2656 24.621 13.8782C24.5471 13.9048 24.5772 13.9698 24.5731 14.0189C24.5299 14.4801 24.4672 14.9389 24.3679 15.3907C23.7784 18.0851 22.4545 20.3562 20.3372 22.1235C17.3542 24.6128 13.9206 25.4938 10.1128 24.7388C7.44201 24.2096 5.18866 22.8786 3.43966 20.7896C0.604489 17.4034 -0.281244 13.524 1.08638 9.32476C2.61779 4.62411 5.9656 1.86817 10.846 0.998989C11.102 0.953461 11.3693 0.977112 11.6152 0.873047C12.2278 0.873047 12.8404 0.873047 13.4529 0.873047C13.4648 0.925671 13.5073 0.916801 13.5446 0.919758C14.4309 0.983616 15.2977 1.15509 16.1432 1.42471C20.6027 2.84673 23.7955 6.5972 24.495 11.2228C24.5364 11.4953 24.5264 11.7762 24.621 12.0405ZM12.5648 21.602C12.7611 21.602 12.9574 21.6085 13.1532 21.6003C13.3252 21.5926 13.4979 21.5754 13.6682 21.5506C16.1403 21.1858 18.1157 19.9908 19.6265 18.0047C19.7837 17.7978 19.8068 17.5997 19.7524 17.3726C19.7027 17.1663 19.6217 16.9729 19.5106 16.7896C19.157 16.2084 18.6414 15.8028 18.0619 15.4782C16.4466 14.5729 14.6928 14.1354 12.8569 14.0331C11.6791 13.9675 10.5303 14.1951 9.40269 14.5173C8.24379 14.8485 7.12745 15.2783 6.20388 16.086C5.74623 16.4863 5.39442 16.9593 5.33293 17.5949C5.32229 17.7026 5.33884 17.7901 5.40507 17.8794C7.18422 20.2894 9.56765 21.5399 12.5648 21.602ZM12.5447 11.7247C14.5858 11.7395 16.1728 10.165 16.1799 8.11796C16.187 6.08515 14.6248 4.51176 12.5832 4.49698C10.5338 4.48161 8.95805 6.03489 8.93617 8.09135C8.91488 10.1253 10.4883 11.71 12.5447 11.7247Z" fill="#3CCB93"/>
<path d="M12.5651 21.6011C9.56796 21.5391 7.18453 20.2885 5.40419 17.8791C5.33856 17.7898 5.32201 17.7023 5.33206 17.5946C5.39355 16.9584 5.74536 16.486 6.20301 16.0857C7.12717 15.2774 8.24291 14.8482 9.40182 14.5171C10.53 14.1948 11.6788 13.9672 12.8561 14.0328C14.692 14.1351 16.4457 14.5726 18.0611 15.4779C18.6405 15.8025 19.1561 16.2081 19.5097 16.7893C19.6214 16.9726 19.7024 17.166 19.7515 17.3723C19.8059 17.5994 19.7829 17.7975 19.6256 18.0044C18.1149 19.9905 16.1394 21.1855 13.6673 21.5503C13.497 21.5757 13.3243 21.5929 13.1523 21.6C12.9578 21.6076 12.7615 21.6011 12.5651 21.6011Z" fill="#FDFDFD"/>
<path d="M12.545 11.724C10.4885 11.7092 8.91512 10.1246 8.93699 8.09057C8.95887 6.03411 10.5346 4.48142 12.584 4.4962C14.6251 4.51157 16.1878 6.08437 16.1807 8.11718C16.173 10.1642 14.5855 11.7387 12.545 11.724Z" fill="#FDFDFD"/>
</svg>
