<svg width="197" height="50" viewBox="0 0 197 50" fill="none" xmlns="http://www.w3.org/2000/svg">
<path d="M0.5 5C0.5 2.51472 2.51472 0.5 5 0.5H192C194.485 0.5 196.5 2.51472 196.5 5V45C196.5 47.4853 194.485 49.5 192 49.5H5C2.51472 49.5 0.5 47.4853 0.5 45V5Z" fill="white" stroke="#3CCB93"/>
<path d="M38.3438 26.6973H34.6426V24.7539H38.3438C38.9883 24.7539 39.5091 24.6497 39.9062 24.4414C40.3034 24.2331 40.5931 23.9466 40.7754 23.582C40.9642 23.2109 41.0586 22.7878 41.0586 22.3125C41.0586 21.8633 40.9642 21.4434 40.7754 21.0527C40.5931 20.6556 40.3034 20.3366 39.9062 20.0957C39.5091 19.8548 38.9883 19.7344 38.3438 19.7344H35.3945V32H32.9434V17.7812H38.3438C39.444 17.7812 40.3783 17.9766 41.1465 18.3672C41.9212 18.7513 42.5104 19.2852 42.9141 19.9688C43.3177 20.6458 43.5195 21.4206 43.5195 22.293C43.5195 23.2109 43.3177 23.9987 42.9141 24.6562C42.5104 25.3138 41.9212 25.8184 41.1465 26.1699C40.3783 26.5215 39.444 26.6973 38.3438 26.6973ZM47.8457 23.4453V32H45.4922V21.4336H47.7383L47.8457 23.4453ZM51.0781 21.3652L51.0586 23.5527C50.9154 23.5267 50.7591 23.5072 50.5898 23.4941C50.4271 23.4811 50.2643 23.4746 50.1016 23.4746C49.6979 23.4746 49.3431 23.5332 49.0371 23.6504C48.7311 23.7611 48.474 23.9238 48.2656 24.1387C48.0638 24.347 47.9076 24.6009 47.7969 24.9004C47.6862 25.1999 47.6211 25.5352 47.6016 25.9062L47.0645 25.9453C47.0645 25.2812 47.1296 24.666 47.2598 24.0996C47.39 23.5332 47.5853 23.0352 47.8457 22.6055C48.1126 22.1758 48.4447 21.8405 48.8418 21.5996C49.2454 21.3587 49.7109 21.2383 50.2383 21.2383C50.3815 21.2383 50.5345 21.2513 50.6973 21.2773C50.8665 21.3034 50.9935 21.3327 51.0781 21.3652ZM55.0723 21.4336V32H52.709V21.4336H55.0723ZM52.5527 18.6602C52.5527 18.3021 52.6699 18.0059 52.9043 17.7715C53.1452 17.5306 53.4772 17.4102 53.9004 17.4102C54.3171 17.4102 54.6458 17.5306 54.8867 17.7715C55.1276 18.0059 55.248 18.3021 55.248 18.6602C55.248 19.0117 55.1276 19.3047 54.8867 19.5391C54.6458 19.7734 54.3171 19.8906 53.9004 19.8906C53.4772 19.8906 53.1452 19.7734 52.9043 19.5391C52.6699 19.3047 52.5527 19.0117 52.5527 18.6602ZM59.9844 23.6895V32H57.6309V21.4336H59.8477L59.9844 23.6895ZM59.5645 26.3262L58.8027 26.3164C58.8092 25.5677 58.9134 24.8809 59.1152 24.2559C59.3236 23.6309 59.61 23.0938 59.9746 22.6445C60.3457 22.1953 60.7884 21.8503 61.3027 21.6094C61.8171 21.362 62.39 21.2383 63.0215 21.2383C63.5293 21.2383 63.9883 21.3099 64.3984 21.4531C64.8151 21.5898 65.1699 21.8145 65.4629 22.127C65.7624 22.4395 65.9902 22.8464 66.1465 23.3477C66.3027 23.8424 66.3809 24.4512 66.3809 25.1738V32H64.0176V25.1641C64.0176 24.6562 63.9427 24.2559 63.793 23.9629C63.6497 23.6634 63.4382 23.4518 63.1582 23.3281C62.8848 23.1979 62.543 23.1328 62.1328 23.1328C61.7292 23.1328 61.3678 23.2174 61.0488 23.3867C60.7298 23.556 60.4596 23.7871 60.2383 24.0801C60.0234 24.373 59.8574 24.7116 59.7402 25.0957C59.623 25.4798 59.5645 25.89 59.5645 26.3262ZM73.627 21.4336V23.1523H67.6699V21.4336H73.627ZM69.3887 18.8457H71.7422V29.0801C71.7422 29.4056 71.7878 29.6562 71.8789 29.832C71.9766 30.0013 72.11 30.1152 72.2793 30.1738C72.4486 30.2324 72.6471 30.2617 72.875 30.2617C73.0378 30.2617 73.194 30.252 73.3438 30.2324C73.4935 30.2129 73.6139 30.1934 73.7051 30.1738L73.7148 31.9707C73.5195 32.0293 73.2917 32.0814 73.0312 32.127C72.7773 32.1725 72.4844 32.1953 72.1523 32.1953C71.612 32.1953 71.1335 32.1009 70.7168 31.9121C70.3001 31.7168 69.9746 31.401 69.7402 30.9648C69.5059 30.5286 69.3887 29.9492 69.3887 29.2266V18.8457ZM82.7871 23.4648V36.0625H80.4336V21.4336H82.6016L82.7871 23.4648ZM89.6719 26.6191V26.8242C89.6719 27.5924 89.5807 28.3053 89.3984 28.9629C89.2227 29.6139 88.959 30.1836 88.6074 30.6719C88.2624 31.1536 87.8359 31.528 87.3281 31.7949C86.8203 32.0618 86.2344 32.1953 85.5703 32.1953C84.9128 32.1953 84.3366 32.0749 83.8418 31.834C83.3535 31.5866 82.9401 31.2383 82.6016 30.7891C82.263 30.3398 81.9896 29.8125 81.7812 29.207C81.5794 28.5951 81.4362 27.9245 81.3516 27.1953V26.4043C81.4362 25.6296 81.5794 24.9264 81.7812 24.2949C81.9896 23.6634 82.263 23.1198 82.6016 22.6641C82.9401 22.2083 83.3535 21.8568 83.8418 21.6094C84.3301 21.362 84.8997 21.2383 85.5508 21.2383C86.2148 21.2383 86.804 21.3685 87.3184 21.6289C87.8327 21.8828 88.2656 22.2474 88.6172 22.7227C88.9688 23.1914 89.2324 23.7578 89.4082 24.4219C89.584 25.0794 89.6719 25.8118 89.6719 26.6191ZM87.3184 26.8242V26.6191C87.3184 26.1309 87.2728 25.6784 87.1816 25.2617C87.0905 24.8385 86.9473 24.4674 86.752 24.1484C86.5566 23.8294 86.306 23.582 86 23.4062C85.7005 23.224 85.3392 23.1328 84.916 23.1328C84.4993 23.1328 84.1413 23.2044 83.8418 23.3477C83.5423 23.4844 83.2917 23.6764 83.0898 23.9238C82.888 24.1712 82.7318 24.4609 82.6211 24.793C82.5104 25.1185 82.4323 25.4733 82.3867 25.8574V27.752C82.4648 28.2207 82.5983 28.6504 82.7871 29.041C82.9759 29.4316 83.2428 29.7441 83.5879 29.9785C83.9395 30.2064 84.3887 30.3203 84.9355 30.3203C85.3587 30.3203 85.7201 30.2292 86.0195 30.0469C86.319 29.8646 86.5632 29.6139 86.752 29.2949C86.9473 28.9694 87.0905 28.5951 87.1816 28.1719C87.2728 27.7487 87.3184 27.2995 87.3184 26.8242ZM97.6309 29.8809V24.8418C97.6309 24.4642 97.5625 24.1387 97.4258 23.8652C97.2891 23.5918 97.0807 23.3802 96.8008 23.2305C96.5273 23.0807 96.1823 23.0059 95.7656 23.0059C95.3815 23.0059 95.0495 23.071 94.7695 23.2012C94.4896 23.3314 94.2715 23.5072 94.1152 23.7285C93.959 23.9499 93.8809 24.2005 93.8809 24.4805H91.5371C91.5371 24.0638 91.638 23.6602 91.8398 23.2695C92.0417 22.8789 92.3346 22.5306 92.7188 22.2246C93.1029 21.9186 93.5618 21.6777 94.0957 21.502C94.6296 21.3262 95.2285 21.2383 95.8926 21.2383C96.6868 21.2383 97.39 21.3717 98.002 21.6387C98.6204 21.9056 99.1055 22.3092 99.457 22.8496C99.8151 23.3835 99.9941 24.054 99.9941 24.8613V29.5586C99.9941 30.0404 100.027 30.4733 100.092 30.8574C100.163 31.235 100.264 31.5638 100.395 31.8438V32H97.9824C97.8717 31.7461 97.7839 31.4238 97.7188 31.0332C97.6602 30.6361 97.6309 30.252 97.6309 29.8809ZM97.9727 25.5742L97.9922 27.0293H96.3027C95.8665 27.0293 95.4824 27.0716 95.1504 27.1562C94.8184 27.2344 94.5417 27.3516 94.3203 27.5078C94.099 27.6641 93.9329 27.8529 93.8223 28.0742C93.7116 28.2956 93.6562 28.5462 93.6562 28.8262C93.6562 29.1061 93.7214 29.3633 93.8516 29.5977C93.9818 29.8255 94.1706 30.0046 94.418 30.1348C94.6719 30.265 94.9779 30.3301 95.3359 30.3301C95.8177 30.3301 96.2376 30.2324 96.5957 30.0371C96.9603 29.8353 97.2467 29.5911 97.4551 29.3047C97.6634 29.0117 97.7741 28.735 97.7871 28.4746L98.5488 29.5195C98.4707 29.7865 98.3372 30.0729 98.1484 30.3789C97.9596 30.6849 97.7122 30.9779 97.4062 31.2578C97.1068 31.5312 96.7454 31.7559 96.3223 31.9316C95.9056 32.1074 95.4238 32.1953 94.877 32.1953C94.1868 32.1953 93.5716 32.0586 93.0312 31.7852C92.4909 31.5052 92.0677 31.1309 91.7617 30.6621C91.4557 30.1868 91.3027 29.6497 91.3027 29.0508C91.3027 28.4909 91.4069 27.9961 91.6152 27.5664C91.8301 27.1302 92.1426 26.7656 92.5527 26.4727C92.9694 26.1797 93.4772 25.9583 94.0762 25.8086C94.6751 25.6523 95.3587 25.5742 96.127 25.5742H97.9727ZM105.365 30.8477L108.236 21.4336H110.756L106.518 33.6113C106.42 33.8717 106.293 34.1549 106.137 34.4609C105.98 34.7669 105.775 35.0566 105.521 35.3301C105.274 35.61 104.965 35.8346 104.594 36.0039C104.223 36.1797 103.773 36.2676 103.246 36.2676C103.038 36.2676 102.836 36.248 102.641 36.209C102.452 36.1764 102.273 36.1406 102.104 36.1016L102.094 34.3047C102.159 34.3112 102.237 34.3177 102.328 34.3242C102.426 34.3307 102.504 34.334 102.562 34.334C102.953 34.334 103.279 34.2852 103.539 34.1875C103.799 34.0964 104.011 33.9466 104.174 33.7383C104.343 33.5299 104.486 33.25 104.604 32.8984L105.365 30.8477ZM103.744 21.4336L106.254 29.3438L106.674 31.8242L105.043 32.2441L101.205 21.4336H103.744ZM123.012 29.1387C123.012 28.9043 122.953 28.6927 122.836 28.5039C122.719 28.3086 122.494 28.1328 122.162 27.9766C121.837 27.8203 121.355 27.6771 120.717 27.5469C120.157 27.4232 119.643 27.2767 119.174 27.1074C118.712 26.9316 118.314 26.7201 117.982 26.4727C117.65 26.2253 117.393 25.9323 117.211 25.5938C117.029 25.2552 116.938 24.8646 116.938 24.4219C116.938 23.9922 117.032 23.5853 117.221 23.2012C117.41 22.8171 117.68 22.4785 118.031 22.1855C118.383 21.8926 118.809 21.6615 119.311 21.4922C119.818 21.3229 120.385 21.2383 121.01 21.2383C121.895 21.2383 122.654 21.388 123.285 21.6875C123.923 21.9805 124.411 22.3809 124.75 22.8887C125.089 23.39 125.258 23.9564 125.258 24.5879H122.904C122.904 24.3079 122.833 24.0475 122.689 23.8066C122.553 23.5592 122.344 23.3607 122.064 23.2109C121.785 23.0547 121.433 22.9766 121.01 22.9766C120.606 22.9766 120.271 23.0417 120.004 23.1719C119.743 23.2956 119.548 23.4583 119.418 23.6602C119.294 23.862 119.232 24.0833 119.232 24.3242C119.232 24.5 119.265 24.6595 119.33 24.8027C119.402 24.9395 119.519 25.0664 119.682 25.1836C119.844 25.2943 120.066 25.3984 120.346 25.4961C120.632 25.5938 120.99 25.6882 121.42 25.7793C122.227 25.9486 122.921 26.1667 123.5 26.4336C124.086 26.694 124.535 27.0326 124.848 27.4492C125.16 27.8594 125.316 28.3802 125.316 29.0117C125.316 29.4805 125.215 29.9102 125.014 30.3008C124.818 30.6849 124.532 31.0202 124.154 31.3066C123.777 31.5866 123.324 31.8047 122.797 31.9609C122.276 32.1172 121.69 32.1953 121.039 32.1953C120.082 32.1953 119.271 32.026 118.607 31.6875C117.943 31.3424 117.439 30.903 117.094 30.3691C116.755 29.8288 116.586 29.2689 116.586 28.6895H118.861C118.887 29.1257 119.008 29.474 119.223 29.7344C119.444 29.9883 119.717 30.1738 120.043 30.291C120.375 30.4017 120.717 30.457 121.068 30.457C121.492 30.457 121.846 30.4017 122.133 30.291C122.419 30.1738 122.637 30.0176 122.787 29.8223C122.937 29.6204 123.012 29.3926 123.012 29.1387ZM132.221 21.4336V23.1523H126.264V21.4336H132.221ZM127.982 18.8457H130.336V29.0801C130.336 29.4056 130.382 29.6562 130.473 29.832C130.57 30.0013 130.704 30.1152 130.873 30.1738C131.042 30.2324 131.241 30.2617 131.469 30.2617C131.632 30.2617 131.788 30.252 131.938 30.2324C132.087 30.2129 132.208 30.1934 132.299 30.1738L132.309 31.9707C132.113 32.0293 131.885 32.0814 131.625 32.127C131.371 32.1725 131.078 32.1953 130.746 32.1953C130.206 32.1953 129.727 32.1009 129.311 31.9121C128.894 31.7168 128.568 31.401 128.334 30.9648C128.1 30.5286 127.982 29.9492 127.982 29.2266V18.8457ZM140.395 29.5098V21.4336H142.758V32H140.531L140.395 29.5098ZM140.727 27.3125L141.518 27.293C141.518 28.0026 141.439 28.6569 141.283 29.2559C141.127 29.8483 140.886 30.3659 140.561 30.8086C140.235 31.2448 139.818 31.5866 139.311 31.834C138.803 32.0749 138.194 32.1953 137.484 32.1953C136.97 32.1953 136.498 32.1204 136.068 31.9707C135.639 31.821 135.268 31.5898 134.955 31.2773C134.649 30.9648 134.411 30.5579 134.242 30.0566C134.073 29.5553 133.988 28.9564 133.988 28.2598V21.4336H136.342V28.2793C136.342 28.6634 136.387 28.9857 136.479 29.2461C136.57 29.5 136.693 29.7051 136.85 29.8613C137.006 30.0176 137.188 30.1283 137.396 30.1934C137.605 30.2585 137.826 30.291 138.061 30.291C138.731 30.291 139.258 30.1608 139.643 29.9004C140.033 29.6335 140.31 29.2754 140.473 28.8262C140.642 28.377 140.727 27.8724 140.727 27.3125ZM145.18 17H147.533V29.7441L147.309 32H145.18V17ZM154.428 26.6191V26.8242C154.428 27.6055 154.34 28.3249 154.164 28.9824C153.995 29.6335 153.734 30.1999 153.383 30.6816C153.038 31.1634 152.608 31.5378 152.094 31.8047C151.586 32.0651 150.997 32.1953 150.326 32.1953C149.669 32.1953 149.096 32.0716 148.607 31.8242C148.119 31.5768 147.709 31.2253 147.377 30.7695C147.051 30.3138 146.788 29.7702 146.586 29.1387C146.384 28.5072 146.241 27.8105 146.156 27.0488V26.3945C146.241 25.6263 146.384 24.9297 146.586 24.3047C146.788 23.6732 147.051 23.1296 147.377 22.6738C147.709 22.2116 148.116 21.8568 148.598 21.6094C149.086 21.362 149.656 21.2383 150.307 21.2383C150.984 21.2383 151.579 21.3685 152.094 21.6289C152.615 21.8893 153.048 22.2604 153.393 22.7422C153.738 23.2174 153.995 23.7839 154.164 24.4414C154.34 25.099 154.428 25.8249 154.428 26.6191ZM152.074 26.8242V26.6191C152.074 26.1439 152.035 25.6979 151.957 25.2812C151.879 24.8581 151.749 24.487 151.566 24.168C151.391 23.849 151.15 23.5983 150.844 23.416C150.544 23.2272 150.17 23.1328 149.721 23.1328C149.304 23.1328 148.946 23.2044 148.646 23.3477C148.347 23.4909 148.096 23.6862 147.895 23.9336C147.693 24.181 147.533 24.4674 147.416 24.793C147.305 25.1185 147.23 25.4701 147.191 25.8477V27.6152C147.25 28.1035 147.374 28.5527 147.562 28.9629C147.758 29.3665 148.031 29.6921 148.383 29.9395C148.734 30.1803 149.187 30.3008 149.74 30.3008C150.176 30.3008 150.544 30.2129 150.844 30.0371C151.143 29.8613 151.381 29.6172 151.557 29.3047C151.739 28.9857 151.869 28.6146 151.947 28.1914C152.032 27.7682 152.074 27.3125 152.074 26.8242ZM162.348 29.1387C162.348 28.9043 162.289 28.6927 162.172 28.5039C162.055 28.3086 161.83 28.1328 161.498 27.9766C161.173 27.8203 160.691 27.6771 160.053 27.5469C159.493 27.4232 158.979 27.2767 158.51 27.1074C158.048 26.9316 157.65 26.7201 157.318 26.4727C156.986 26.2253 156.729 25.9323 156.547 25.5938C156.365 25.2552 156.273 24.8646 156.273 24.4219C156.273 23.9922 156.368 23.5853 156.557 23.2012C156.745 22.8171 157.016 22.4785 157.367 22.1855C157.719 21.8926 158.145 21.6615 158.646 21.4922C159.154 21.3229 159.721 21.2383 160.346 21.2383C161.231 21.2383 161.99 21.388 162.621 21.6875C163.259 21.9805 163.747 22.3809 164.086 22.8887C164.424 23.39 164.594 23.9564 164.594 24.5879H162.24C162.24 24.3079 162.169 24.0475 162.025 23.8066C161.889 23.5592 161.68 23.3607 161.4 23.2109C161.12 23.0547 160.769 22.9766 160.346 22.9766C159.942 22.9766 159.607 23.0417 159.34 23.1719C159.079 23.2956 158.884 23.4583 158.754 23.6602C158.63 23.862 158.568 24.0833 158.568 24.3242C158.568 24.5 158.601 24.6595 158.666 24.8027C158.738 24.9395 158.855 25.0664 159.018 25.1836C159.18 25.2943 159.402 25.3984 159.682 25.4961C159.968 25.5938 160.326 25.6882 160.756 25.7793C161.563 25.9486 162.257 26.1667 162.836 26.4336C163.422 26.694 163.871 27.0326 164.184 27.4492C164.496 27.8594 164.652 28.3802 164.652 29.0117C164.652 29.4805 164.551 29.9102 164.35 30.3008C164.154 30.6849 163.868 31.0202 163.49 31.3066C163.113 31.5866 162.66 31.8047 162.133 31.9609C161.612 32.1172 161.026 32.1953 160.375 32.1953C159.418 32.1953 158.607 32.026 157.943 31.6875C157.279 31.3424 156.775 30.903 156.43 30.3691C156.091 29.8288 155.922 29.2689 155.922 28.6895H158.197C158.223 29.1257 158.344 29.474 158.559 29.7344C158.78 29.9883 159.053 30.1738 159.379 30.291C159.711 30.4017 160.053 30.457 160.404 30.457C160.827 30.457 161.182 30.4017 161.469 30.291C161.755 30.1738 161.973 30.0176 162.123 29.8223C162.273 29.6204 162.348 29.3926 162.348 29.1387Z" fill="#3CCB93"/>
</svg>
