<svg width="35" height="37" viewBox="0 0 35 37" fill="none" xmlns="http://www.w3.org/2000/svg">
<circle cx="16.3767" cy="20.2698" r="15.3058" stroke="white" stroke-width="1.65468"/>
<path d="M11.985 11C13.2255 11 14.466 11 15.7065 11C15.7069 11.6819 15.7079 12.3634 15.7083 13.0453C15.3906 13.0872 15.1989 13.2761 15.1948 13.5524C15.1903 13.8361 15.3837 14.0332 15.7083 14.0764C15.7083 14.4156 15.7083 14.7547 15.7083 15.0938C15.3906 15.1357 15.1989 15.3246 15.1948 15.601C15.1903 15.8846 15.3837 16.0817 15.7083 16.1249C15.7083 16.4641 15.7083 16.8032 15.7083 17.1424C15.3906 17.1842 15.1989 17.3732 15.1948 17.6495C15.1903 17.9331 15.3837 18.1302 15.7083 18.1734C15.7083 18.5126 15.7083 18.8517 15.7083 19.1909C15.3906 19.2327 15.1989 19.4217 15.1948 19.698C15.1903 19.9816 15.3837 20.1787 15.7083 20.222C15.7083 20.5611 15.7083 20.9002 15.7083 21.2394C15.3906 21.2813 15.1989 21.4702 15.1948 21.7465C15.1903 22.0301 15.3837 22.2272 15.7083 22.2705C15.7083 22.6096 15.7083 22.9488 15.7083 23.2879C15.3906 23.3298 15.1989 23.5187 15.1948 23.795C15.1903 24.0786 15.3837 24.2757 15.7083 24.319C15.7083 24.6577 15.7079 24.9964 15.7079 25.3346C15.0541 25.3364 14.4 25.3382 13.7463 25.3396C13.3457 25.3405 13.1463 25.5367 13.1463 25.9332C13.1458 26.7804 13.1463 27.6276 13.1463 28.4752C12.6337 28.4752 12.1211 28.4752 11.609 28.4752C11.609 24.0149 11.609 19.5541 11.6095 15.0938C11.6099 13.9585 11.6177 12.8227 11.6054 11.6874C11.6013 11.3701 11.6891 11.1361 11.985 11ZM14.1696 13.5629C14.171 13.2861 13.9411 13.0526 13.6639 13.049C13.3867 13.0458 13.1513 13.2729 13.1458 13.5502C13.1399 13.8338 13.3762 14.0741 13.6598 14.0728C13.937 14.0714 14.1687 13.8402 14.1696 13.5629ZM13.6557 15.0975C13.378 15.0988 13.1472 15.3301 13.1463 15.6073C13.1454 15.8846 13.3748 16.1176 13.6521 16.1213C13.9357 16.1249 14.1737 15.8864 14.1701 15.6028C14.1665 15.3256 13.9329 15.0961 13.6557 15.0975ZM14.1696 19.6984C14.1655 19.4212 13.9316 19.1927 13.6539 19.1945C13.3762 19.1963 13.1458 19.4285 13.1458 19.7057C13.1454 19.9893 13.3862 20.2251 13.6698 20.2183C13.947 20.2115 14.1742 19.9752 14.1696 19.6984ZM14.1696 17.6563C14.1692 17.3791 13.9379 17.1474 13.6607 17.1455C13.3835 17.1437 13.1495 17.3727 13.1458 17.6499C13.1417 17.934 13.3794 18.1721 13.663 18.1693C13.9402 18.1666 14.1706 17.9335 14.1696 17.6563ZM13.6648 22.2668C13.9416 22.2632 14.171 22.0292 14.1701 21.7524C14.1687 21.4752 13.9375 21.2439 13.6598 21.243C13.3757 21.2421 13.1399 21.4816 13.1463 21.7656C13.1522 22.0424 13.388 22.2705 13.6648 22.2668ZM14.1696 23.8059C14.171 23.5292 13.9416 23.2952 13.6643 23.2915C13.3871 23.2879 13.1518 23.5151 13.1458 23.7923C13.1399 24.0759 13.3757 24.3163 13.6593 24.3153C13.9366 24.3144 14.1683 24.0832 14.1696 23.8059Z" fill="#167952"/>
<path d="M15.7082 17.1424C15.7082 16.8032 15.7082 16.4641 15.7082 16.1249L15.7046 16.1181C16.0082 16.1167 16.219 15.9082 16.219 15.6092C16.219 15.3101 16.0087 15.102 15.7046 15.1007L15.7082 15.0938C15.7082 14.7547 15.7082 14.4156 15.7082 14.0764L15.7046 14.0696C16.0082 14.0682 16.219 13.8597 16.219 13.5606C16.219 13.2616 16.0087 13.0535 15.7046 13.0522L15.7082 13.0453C15.7078 12.3634 15.7069 11.6819 15.7064 11C16.9469 11 18.1874 11 19.4279 11C19.716 11.1225 19.8112 11.341 19.8084 11.6505C19.7975 12.7991 19.8057 13.9476 19.8066 15.0966C19.8057 15.1193 19.8039 15.1421 19.8039 15.1649C19.8043 19.6019 19.8043 24.0386 19.8048 28.4756C19.2922 28.4756 18.7796 28.4756 18.2671 28.4752C18.2671 27.6007 18.268 26.7262 18.2666 25.8517C18.2661 25.5668 18.0576 25.3428 17.7836 25.3414C17.0908 25.3387 16.3984 25.3432 15.7055 25.3446L15.7078 25.3346C15.7078 24.9959 15.7082 24.6572 15.7082 24.319L15.7046 24.3122C16.0082 24.3108 16.219 24.1023 16.219 23.8032C16.219 23.5041 16.0087 23.2961 15.7046 23.2947L15.7082 23.2879C15.7082 22.9488 15.7082 22.6096 15.7082 22.2705L15.7046 22.2636C16.0082 22.2623 16.219 22.0538 16.219 21.7547C16.219 21.4556 16.0087 21.2476 15.7046 21.2462L15.7082 21.2394C15.7082 20.9002 15.7082 20.5611 15.7082 20.222L15.7046 20.2151C16.0082 20.2138 16.219 20.0053 16.219 19.7062C16.219 19.4071 16.0087 19.1991 15.7046 19.1977L15.7082 19.1909C15.7082 18.8517 15.7082 18.5126 15.7082 18.1734L15.7046 18.1666C16.0082 18.1652 16.219 17.9568 16.219 17.6577C16.219 17.3586 16.0087 17.1505 15.7046 17.1492L15.7082 17.1424ZM18.2666 13.5675C18.2707 13.2902 18.0431 13.0549 17.7658 13.0485C17.4886 13.0426 17.251 13.2679 17.2428 13.5447C17.2346 13.8292 17.4677 14.0705 17.7517 14.0723C18.0294 14.0741 18.263 13.8452 18.2666 13.5675ZM17.7517 16.1213C18.029 16.1231 18.263 15.8941 18.2671 15.6169C18.2711 15.3397 18.044 15.1039 17.7668 15.0975C17.4827 15.0911 17.2423 15.3265 17.2433 15.6101C17.2437 15.8882 17.4741 16.1195 17.7517 16.1213ZM18.2666 19.7116C18.2698 19.4344 18.0417 19.1995 17.7645 19.1945C17.4868 19.1895 17.2501 19.4153 17.2428 19.6921C17.2355 19.9761 17.4695 20.2174 17.7536 20.2179C18.0312 20.2188 18.2639 19.9893 18.2666 19.7116ZM18.2666 17.6636C18.2698 17.3864 18.0422 17.1515 17.7649 17.146C17.4877 17.1405 17.2505 17.3663 17.2428 17.6431C17.2351 17.9272 17.469 18.1684 17.7531 18.1693C18.0308 18.1707 18.2634 17.9413 18.2666 17.6636ZM17.7526 22.2668C18.0303 22.2677 18.263 22.0388 18.2666 21.7611C18.2702 21.4838 18.0426 21.2485 17.7654 21.243C17.4813 21.2371 17.2419 21.4729 17.2433 21.757C17.2446 22.0347 17.4754 22.2655 17.7526 22.2668ZM18.2666 23.795C18.262 23.5178 18.0285 23.2893 17.7508 23.2915C17.4736 23.2934 17.2428 23.526 17.2428 23.8028C17.2428 24.0873 17.4832 24.3217 17.7672 24.3149C18.0444 24.3085 18.2712 24.0727 18.2666 23.795Z" fill="#167952"/>
<path d="M8.79115 28.4751C8.36461 28.477 7.93761 28.4838 7.51106 28.4788C7.22108 28.4756 7.01122 28.258 7.00075 27.9676C6.99939 27.9279 7.0003 27.8879 7.0003 27.8483C7.0003 23.8086 7.0003 19.7685 7.0003 15.7288C7.0003 15.2836 7.18648 15.0979 7.63169 15.0974C8.95731 15.0965 10.2829 15.0951 11.609 15.0942C11.609 19.5545 11.609 24.0153 11.6085 28.4756C11.0122 28.4756 10.4154 28.4756 9.81905 28.4756C9.81905 28.2653 9.81951 28.055 9.81951 27.8446C9.81951 27.2023 9.8186 26.5605 9.81996 25.9181C9.82042 25.6901 9.74531 25.5052 9.53363 25.3969C9.17627 25.2144 8.79434 25.4702 8.79206 25.9008C8.78751 26.7589 8.7907 27.617 8.79115 28.4751ZM9.29645 20.2178C9.5746 20.2224 9.8104 19.9938 9.81541 19.7143C9.82042 19.4357 9.59189 19.199 9.31284 19.1945C9.0347 19.1899 8.79889 19.4184 8.79343 19.6975C8.78888 19.9756 9.01831 20.2132 9.29645 20.2178ZM9.81541 17.659C9.81632 17.3799 9.58461 17.1468 9.30601 17.1459C9.02787 17.145 8.79434 17.3781 8.79388 17.6562C8.79297 17.9344 9.02559 18.1688 9.30374 18.1693C9.58188 18.1702 9.8145 17.938 9.81541 17.659ZM9.29782 21.243C9.01968 21.2471 8.78933 21.4838 8.79388 21.7615C8.79844 22.0405 9.03424 22.2704 9.31193 22.2663C9.59053 22.2622 9.81996 22.026 9.81587 21.7474C9.81131 21.4678 9.57642 21.2389 9.29782 21.243ZM9.81541 23.7954C9.81086 23.5155 9.57596 23.2869 9.29736 23.2915C9.01877 23.2956 8.78933 23.5327 8.79388 23.8104C8.79889 24.0899 9.0347 24.3189 9.31239 24.3148C9.59098 24.3107 9.81996 24.074 9.81541 23.7954Z" fill="#3CCB93"/>
<path d="M14.1677 28.4778C13.8272 28.4769 13.4862 28.476 13.1457 28.4751C13.1457 27.6279 13.1453 26.7807 13.1457 25.9331C13.1462 25.5366 13.3451 25.3404 13.7457 25.3395C14.3994 25.3377 15.0536 25.3363 15.7073 25.3345L15.705 25.3445C15.7054 26.3879 15.7059 27.4317 15.7068 28.4751C15.5366 28.476 15.3668 28.4769 15.1965 28.4778C15.1956 27.8473 15.196 27.2173 15.1938 26.5868C15.1929 26.3337 15.2234 26.3665 14.9634 26.3642C14.7759 26.3624 14.5888 26.3624 14.4012 26.3642C14.1408 26.3665 14.1713 26.3337 14.1709 26.5868C14.1681 27.2173 14.1686 27.8478 14.1677 28.4778Z" fill="#FEDC54"/>
<path d="M14.1697 13.5628C14.1683 13.84 13.937 14.0713 13.6598 14.0727C13.3762 14.074 13.1399 13.8337 13.1459 13.5501C13.1513 13.2728 13.3867 13.0457 13.6639 13.0489C13.9416 13.052 14.171 13.286 14.1697 13.5628Z" fill="white"/>
<path d="M13.6556 15.0977C13.9329 15.0963 14.1664 15.3257 14.17 15.603C14.1737 15.8866 13.9356 16.1251 13.652 16.1215C13.3748 16.1183 13.1453 15.8847 13.1462 15.6075C13.1472 15.3298 13.378 15.099 13.6556 15.0977Z" fill="white"/>
<path d="M14.1696 19.6983C14.1737 19.9751 13.9465 20.2118 13.6697 20.2182C13.3861 20.225 13.1453 19.9892 13.1458 19.7056C13.1462 19.4283 13.3766 19.1962 13.6538 19.1944C13.9315 19.1921 14.1655 19.4211 14.1696 19.6983Z" fill="white"/>
<path d="M14.1696 17.6563C14.1701 17.9335 13.9402 18.1666 13.6629 18.1693C13.3793 18.1725 13.1417 17.934 13.1458 17.6499C13.1494 17.3727 13.3834 17.1437 13.6607 17.1455C13.9384 17.1473 14.1692 17.3795 14.1696 17.6563Z" fill="white"/>
<path d="M13.6649 22.267C13.3881 22.2706 13.1523 22.0425 13.1463 21.7658C13.1404 21.4817 13.3758 21.2423 13.6598 21.2432C13.9371 21.2441 14.1688 21.4753 14.1702 21.7526C14.1711 22.0293 13.9416 22.2633 13.6649 22.267Z" fill="white"/>
<path d="M14.1697 23.806C14.1683 24.0832 13.9366 24.3144 13.6594 24.3153C13.3757 24.3163 13.1399 24.0764 13.1459 23.7923C13.1518 23.5151 13.3871 23.2879 13.6644 23.2915C13.9416 23.2952 14.1715 23.5287 14.1697 23.806Z" fill="white"/>
<path d="M15.7084 14.0765C15.3834 14.0332 15.1904 13.8357 15.1949 13.5525C15.1995 13.2767 15.3911 13.0873 15.7084 13.0454L15.7048 13.0522C15.7048 13.3914 15.7048 13.7305 15.7048 14.0697L15.7084 14.0765Z" fill="white"/>
<path d="M15.7084 16.1248C15.3834 16.0816 15.1904 15.884 15.1949 15.6009C15.1995 15.325 15.3911 15.1356 15.7084 15.0938L15.7048 15.1006C15.7048 15.4397 15.7048 15.7789 15.7048 16.118L15.7084 16.1248Z" fill="white"/>
<path d="M15.7084 24.3187C15.3834 24.2754 15.1904 24.0779 15.1949 23.7947C15.1995 23.5189 15.3911 23.3295 15.7084 23.2876L15.7048 23.2944C15.7048 23.6336 15.7048 23.9727 15.7048 24.3119L15.7084 24.3187Z" fill="white"/>
<path d="M15.7084 18.1732C15.3834 18.1299 15.1904 17.9324 15.1949 17.6492C15.1995 17.3733 15.3911 17.184 15.7084 17.1421L15.7048 17.1489C15.7048 17.4881 15.7048 17.8272 15.7048 18.1663L15.7084 18.1732Z" fill="white"/>
<path d="M15.7084 20.222C15.3834 20.1788 15.1904 19.9812 15.1949 19.698C15.1995 19.4222 15.3911 19.2328 15.7084 19.1909L15.7048 19.1977C15.7048 19.5369 15.7048 19.876 15.7048 20.2152L15.7084 20.222Z" fill="white"/>
<path d="M15.7084 22.2708C15.3834 22.2276 15.1904 22.03 15.1949 21.7469C15.1995 21.471 15.3911 21.2816 15.7084 21.2397L15.7048 21.2466C15.7048 21.5857 15.7048 21.9249 15.7048 22.264L15.7084 22.2708Z" fill="white"/>
<path d="M19.8062 15.0962C21.1486 15.0966 22.4911 15.0966 23.8335 15.0971C24.2132 15.0971 24.4126 15.2942 24.4126 15.6711C24.4126 19.7495 24.4126 23.8283 24.4126 27.9067C24.4126 28.2827 24.2127 28.4812 23.8335 28.4807C23.4298 28.4803 23.026 28.4771 22.6222 28.4753C22.6222 27.6454 22.6222 26.816 22.6213 25.9861C22.6213 25.9123 22.6204 25.8377 22.6085 25.7653C22.5707 25.5318 22.375 25.3565 22.1419 25.3406C21.9175 25.3256 21.6994 25.469 21.6252 25.6825C21.5929 25.7753 21.5938 25.8723 21.5938 25.9692C21.5938 26.8046 21.5938 27.6399 21.5934 28.4757C20.997 28.4757 20.4007 28.4757 19.8039 28.4762C19.8034 24.0391 19.803 19.6025 19.803 15.1654C19.8039 15.1417 19.8053 15.119 19.8062 15.0962ZM22.6185 19.699C22.6144 19.4204 22.3832 19.1928 22.1055 19.1941C21.8283 19.196 21.5984 19.4267 21.5975 19.7044C21.5966 19.9885 21.8365 20.2243 22.1196 20.2175C22.3973 20.2116 22.6222 19.9776 22.6185 19.699ZM22.1105 18.1699C22.3882 18.1685 22.6172 17.9382 22.6185 17.6596C22.6195 17.3814 22.3918 17.1493 22.1142 17.1461C21.8306 17.1429 21.5929 17.3805 21.597 17.6646C21.6011 17.9423 21.8337 18.1712 22.1105 18.1699ZM22.1096 22.2669C22.3873 22.266 22.6167 22.0361 22.6181 21.7575C22.6195 21.4794 22.3923 21.2472 22.1146 21.2436C21.831 21.2399 21.5934 21.4775 21.597 21.7611C21.6007 22.0384 21.8328 22.2678 22.1096 22.2669ZM22.1019 24.3154C22.3796 24.3186 22.6122 24.0924 22.6181 23.8138C22.624 23.5356 22.4 23.2998 22.1219 23.2921C21.8378 23.2839 21.5975 23.5174 21.5966 23.8019C21.5961 24.0792 21.8251 24.3118 22.1019 24.3154Z" fill="#3CCB93"/>
<path d="M15.7069 28.475C15.7064 27.4316 15.706 26.3878 15.7051 25.3444C16.3979 25.3426 17.0908 25.3385 17.7832 25.3412C18.0577 25.3422 18.2657 25.5666 18.2662 25.8516C18.268 26.726 18.2666 27.6005 18.2666 28.475C17.9257 28.4755 17.5842 28.4759 17.2433 28.4759C17.2428 27.829 17.2396 27.1817 17.2451 26.5348C17.246 26.4078 17.2214 26.3528 17.0794 26.3605C16.8472 26.3728 16.6137 26.3728 16.3815 26.3605C16.2395 26.3528 16.2145 26.4078 16.2158 26.5348C16.2213 27.1817 16.2177 27.8291 16.2177 28.4764C16.0474 28.4755 15.8772 28.4755 15.7069 28.475Z" fill="#FEB354"/>
<path d="M18.2667 13.5674C18.2626 13.8451 18.0295 14.0736 17.7518 14.0723C17.4678 14.0709 17.2347 13.8292 17.2429 13.5446C17.2511 13.2679 17.4887 13.0425 17.7659 13.0485C18.0436 13.0548 18.2708 13.2902 18.2667 13.5674Z" fill="white"/>
<path d="M17.7519 16.1211C17.4742 16.1193 17.2439 15.8881 17.2434 15.6104C17.2425 15.3263 17.4829 15.091 17.7669 15.0978C18.0442 15.1042 18.2713 15.3395 18.2672 15.6172C18.2627 15.894 18.0291 16.1225 17.7519 16.1211Z" fill="white"/>
<path d="M18.2666 19.7116C18.2635 19.9893 18.0313 20.2187 17.7536 20.2183C17.4695 20.2178 17.2356 19.9765 17.2428 19.6925C17.2501 19.4157 17.4868 19.1895 17.7645 19.1949C18.0418 19.1995 18.2698 19.4344 18.2666 19.7116Z" fill="white"/>
<path d="M18.2666 17.6637C18.2635 17.9414 18.0304 18.1703 17.7531 18.1694C17.4691 18.1685 17.2356 17.9273 17.2428 17.6432C17.2501 17.3664 17.4873 17.1406 17.765 17.1461C18.0427 17.1516 18.2703 17.3865 18.2666 17.6637Z" fill="white"/>
<path d="M17.7528 22.2666C17.4755 22.2657 17.2443 22.0344 17.2429 21.7567C17.2416 21.4727 17.481 21.2369 17.7651 21.2428C18.0423 21.2482 18.2699 21.4836 18.2663 21.7608C18.2635 22.0385 18.0305 22.2675 17.7528 22.2666Z" fill="white"/>
<path d="M18.2667 23.7946C18.2713 24.0718 18.0446 24.308 17.7673 24.3149C17.4833 24.3217 17.2429 24.0868 17.2429 23.8027C17.2429 23.5255 17.4737 23.2933 17.751 23.2915C18.0286 23.2888 18.2626 23.5173 18.2667 23.7946Z" fill="white"/>
<path d="M15.7046 16.118C15.7046 15.7789 15.7046 15.4397 15.7046 15.1006C16.0087 15.102 16.219 15.31 16.219 15.6091C16.2185 15.9082 16.0082 16.1162 15.7046 16.118Z" fill="white"/>
<path d="M15.7046 18.1664C15.7046 17.8272 15.7046 17.4881 15.7046 17.1489C16.0087 17.1503 16.219 17.3583 16.219 17.6574C16.2185 17.9565 16.0082 18.1645 15.7046 18.1664Z" fill="white"/>
<path d="M15.7046 20.2152C15.7046 19.876 15.7046 19.5369 15.7046 19.1978C16.0087 19.1991 16.219 19.4072 16.219 19.7062C16.2185 20.0053 16.0082 20.2134 15.7046 20.2152Z" fill="white"/>
<path d="M15.7046 14.0697C15.7046 13.7305 15.7046 13.3914 15.7046 13.0522C16.0087 13.0536 16.219 13.2616 16.219 13.5607C16.2185 13.8598 16.0082 14.0679 15.7046 14.0697Z" fill="white"/>
<path d="M15.7046 24.3123C15.7046 23.9732 15.7046 23.6341 15.7046 23.2949C16.0087 23.2963 16.219 23.5043 16.219 23.8034C16.2185 24.1025 16.0082 24.3105 15.7046 24.3123Z" fill="white"/>
<path d="M15.7046 22.2635C15.7046 21.9244 15.7046 21.5852 15.7046 21.2461C16.0087 21.2475 16.219 21.4555 16.219 21.7546C16.2185 22.0537 16.0082 22.2617 15.7046 22.2635Z" fill="white"/>
<path d="M8.79117 28.4753C8.79117 27.6172 8.78753 26.7591 8.79208 25.901C8.79436 25.4703 9.17629 25.2145 9.53365 25.397C9.74533 25.5049 9.82044 25.6902 9.81998 25.9183C9.81862 26.5606 9.81953 27.2025 9.81953 27.8448C9.81953 28.0551 9.81907 28.2654 9.81907 28.4757C9.47629 28.4753 9.1335 28.4753 8.79117 28.4753Z" fill="#F9D858"/>
<path d="M21.5938 28.4751C21.5938 27.6397 21.5942 26.8044 21.5942 25.9686C21.5942 25.8716 21.5933 25.7747 21.6256 25.6818C21.6998 25.4683 21.9179 25.3249 22.1423 25.3399C22.3754 25.3554 22.5711 25.5307 22.6089 25.7647C22.6207 25.8371 22.6212 25.9117 22.6216 25.9855C22.6226 26.8153 22.6226 27.6447 22.6226 28.4746C22.2793 28.4751 21.9365 28.4751 21.5938 28.4751Z" fill="#F7B055"/>
<path d="M16.2177 28.476C16.2181 27.8286 16.2213 27.1818 16.2158 26.5344C16.2149 26.4074 16.2395 26.3523 16.3815 26.3601C16.6137 26.3724 16.8472 26.3724 17.0794 26.3601C17.2214 26.3523 17.246 26.4074 17.2451 26.5344C17.2396 27.1813 17.2433 27.8286 17.2433 28.4755C16.9019 28.476 16.5595 28.476 16.2177 28.476Z" fill="white"/>
<path d="M14.1677 28.4778C14.1686 27.8473 14.1682 27.2173 14.1705 26.5868C14.1714 26.3337 14.1409 26.3664 14.4008 26.3642C14.5884 26.3623 14.7755 26.3623 14.963 26.3642C15.2234 26.3664 15.1924 26.3337 15.1933 26.5868C15.1956 27.2173 15.1952 27.8473 15.1961 28.4778C14.8537 28.4778 14.5105 28.4778 14.1677 28.4778Z" fill="white"/>
<path d="M9.29659 20.2178C9.01845 20.2132 8.78902 19.9756 8.79403 19.6979C8.79903 19.4189 9.0353 19.1899 9.31344 19.1949C9.59249 19.1995 9.82101 19.4362 9.81601 19.7148C9.81054 19.9943 9.57519 20.2223 9.29659 20.2178Z" fill="white"/>
<path d="M9.81544 17.6591C9.81453 17.9381 9.58191 18.1703 9.30331 18.1698C9.02562 18.1694 8.793 17.9349 8.79346 17.6568C8.79437 17.3782 9.02744 17.1456 9.30559 17.1465C9.58464 17.1465 9.81635 17.38 9.81544 17.6591Z" fill="white"/>
<path d="M9.2979 21.2427C9.5765 21.2386 9.81139 21.4676 9.81549 21.7471C9.81959 22.0257 9.59061 22.262 9.31156 22.2661C9.03387 22.2702 8.79806 22.0407 8.79351 21.7612C8.78941 21.4835 9.01976 21.2468 9.2979 21.2427Z" fill="white"/>
<path d="M9.81554 23.7955C9.82009 24.0741 9.59111 24.3104 9.31251 24.3149C9.03483 24.3195 8.79902 24.09 8.79401 23.8105C8.78946 23.5328 9.01889 23.2957 9.29749 23.2916C9.57609 23.2875 9.81099 23.516 9.81554 23.7955Z" fill="white"/>
<path d="M22.6187 19.6987C22.6228 19.9769 22.3975 20.2113 22.1198 20.2177C21.8367 20.2241 21.5967 19.9887 21.5977 19.7047C21.5986 19.427 21.8285 19.1957 22.1057 19.1943C22.3829 19.1925 22.6142 19.4201 22.6187 19.6987Z" fill="white"/>
<path d="M22.1107 18.1698C21.8339 18.1712 21.6013 17.9422 21.5972 17.6645C21.5931 17.3809 21.8303 17.1428 22.1144 17.146C22.392 17.1492 22.6197 17.3814 22.6187 17.6595C22.6174 17.9381 22.3879 18.1685 22.1107 18.1698Z" fill="white"/>
<path d="M22.1098 22.267C21.833 22.2679 21.6009 22.0389 21.5972 21.7608C21.5936 21.4772 21.8312 21.2396 22.1148 21.2432C22.3925 21.2468 22.6201 21.479 22.6183 21.7572C22.6169 22.0358 22.3875 22.2661 22.1098 22.267Z" fill="white"/>
<path d="M22.102 24.3151C21.8252 24.3119 21.5963 24.0788 21.5972 23.8016C21.5981 23.5171 21.8384 23.2835 22.1225 23.2917C22.4002 23.2995 22.6246 23.5353 22.6187 23.8134C22.6123 24.092 22.3797 24.3182 22.102 24.3151Z" fill="white"/>
<circle cx="28.3733" cy="6.61871" r="6.61871" fill="#3CCB93"/>
</svg>
