<svg width="281" height="40" viewBox="0 0 281 40" fill="none" xmlns="http://www.w3.org/2000/svg">
<path d="M70.21 20.4932H64.7607L64.7314 17.6514H69.4043C70.2051 17.6514 70.874 17.5391 71.4111 17.3145C71.9482 17.0898 72.3535 16.7627 72.627 16.333C72.9102 15.9033 73.0518 15.3809 73.0518 14.7656C73.0518 14.082 72.9199 13.5254 72.6562 13.0957C72.4023 12.666 72.002 12.3535 71.4551 12.1582C70.9082 11.9531 70.2148 11.8506 69.375 11.8506H66.0645V30H62.0361V8.67188H69.375C70.5859 8.67188 71.665 8.78906 72.6123 9.02344C73.5693 9.24805 74.3799 9.59961 75.0439 10.0781C75.708 10.5566 76.2109 11.1572 76.5527 11.8799C76.9043 12.6025 77.0801 13.4619 77.0801 14.458C77.0801 15.3369 76.875 16.1475 76.4648 16.8896C76.0645 17.6221 75.4443 18.2178 74.6045 18.6768C73.7744 19.1357 72.7197 19.3994 71.4404 19.4678L70.21 20.4932ZM70.0342 30H63.5742L65.2588 26.8359H70.0342C70.835 26.8359 71.4941 26.7041 72.0117 26.4404C72.5391 26.1768 72.9297 25.8154 73.1836 25.3564C73.4473 24.8877 73.5791 24.3506 73.5791 23.7451C73.5791 23.0811 73.4619 22.5049 73.2275 22.0166C73.0029 21.5283 72.6416 21.1523 72.1436 20.8887C71.6553 20.625 71.0107 20.4932 70.21 20.4932H66.0205L66.0498 17.6514H71.3818L72.3047 18.75C73.5352 18.7598 74.5361 19.0039 75.3076 19.4824C76.0889 19.9609 76.665 20.5762 77.0361 21.3281C77.4072 22.0801 77.5928 22.8906 77.5928 23.7598C77.5928 25.127 77.2949 26.2744 76.6992 27.2021C76.1133 28.1299 75.2539 28.8281 74.1211 29.2969C72.998 29.7656 71.6357 30 70.0342 30ZM89.5605 11.9092L83.4814 30H79.2188L87.1875 8.67188H89.9121L89.5605 11.9092ZM94.6436 30L88.5352 11.9092L88.1689 8.67188H90.9082L98.9209 30H94.6436ZM94.3652 22.0752V25.2539H82.9248V22.0752H94.3652ZM118.257 8.67188V30H114.214L105.146 15.2051V30H101.118V8.67188H105.146L114.243 23.4814V8.67188H118.257ZM126.387 8.67188V30H122.358V8.67188H126.387ZM139.189 8.67188L130.635 19.0723L125.742 24.3018L125.024 20.3906L128.423 15.9814L134.253 8.67188H139.189ZM134.707 30L128.071 20.0098L130.957 17.4023L139.497 30H134.707ZM157.017 20.4932H151.567L151.538 17.6514H156.211C157.012 17.6514 157.681 17.5391 158.218 17.3145C158.755 17.0898 159.16 16.7627 159.434 16.333C159.717 15.9033 159.858 15.3809 159.858 14.7656C159.858 14.082 159.727 13.5254 159.463 13.0957C159.209 12.666 158.809 12.3535 158.262 12.1582C157.715 11.9531 157.021 11.8506 156.182 11.8506H152.871V30H148.843V8.67188H156.182C157.393 8.67188 158.472 8.78906 159.419 9.02344C160.376 9.24805 161.187 9.59961 161.851 10.0781C162.515 10.5566 163.018 11.1572 163.359 11.8799C163.711 12.6025 163.887 13.4619 163.887 14.458C163.887 15.3369 163.682 16.1475 163.271 16.8896C162.871 17.6221 162.251 18.2178 161.411 18.6768C160.581 19.1357 159.526 19.3994 158.247 19.4678L157.017 20.4932ZM156.841 30H150.381L152.065 26.8359H156.841C157.642 26.8359 158.301 26.7041 158.818 26.4404C159.346 26.1768 159.736 25.8154 159.99 25.3564C160.254 24.8877 160.386 24.3506 160.386 23.7451C160.386 23.0811 160.269 22.5049 160.034 22.0166C159.81 21.5283 159.448 21.1523 158.95 20.8887C158.462 20.625 157.817 20.4932 157.017 20.4932H152.827L152.856 17.6514H158.188L159.111 18.75C160.342 18.7598 161.343 19.0039 162.114 19.4824C162.896 19.9609 163.472 20.5762 163.843 21.3281C164.214 22.0801 164.399 22.8906 164.399 23.7598C164.399 25.127 164.102 26.2744 163.506 27.2021C162.92 28.1299 162.061 28.8281 160.928 29.2969C159.805 29.7656 158.442 30 156.841 30ZM176.367 11.9092L170.288 30H166.025L173.994 8.67188H176.719L176.367 11.9092ZM181.45 30L175.342 11.9092L174.976 8.67188H177.715L185.728 30H181.45ZM181.172 22.0752V25.2539H169.731V22.0752H181.172ZM201.46 26.8359V30H190.737V26.8359H201.46ZM191.953 8.67188V30H187.925V8.67188H191.953ZM212.93 11.9092L206.851 30H202.588L210.557 8.67188H213.281L212.93 11.9092ZM218.013 30L211.904 11.9092L211.538 8.67188H214.277L222.29 30H218.013ZM217.734 22.0752V25.2539H206.294V22.0752H217.734ZM241.626 8.67188V30H237.583L228.516 15.2051V30H224.487V8.67188H228.516L237.612 23.4814V8.67188H241.626ZM258.208 22.9834H262.236C262.129 24.4092 261.733 25.6738 261.05 26.7773C260.366 27.8711 259.414 28.7305 258.193 29.3555C256.973 29.9805 255.493 30.293 253.755 30.293C252.417 30.293 251.211 30.0586 250.137 29.5898C249.072 29.1113 248.159 28.4326 247.397 27.5537C246.646 26.665 246.069 25.6006 245.669 24.3604C245.269 23.1104 245.068 21.709 245.068 20.1562V18.5303C245.068 16.9775 245.273 15.5762 245.684 14.3262C246.094 13.0762 246.68 12.0117 247.441 11.1328C248.213 10.2441 249.136 9.56055 250.21 9.08203C251.294 8.60352 252.505 8.36426 253.843 8.36426C255.581 8.36426 257.051 8.68652 258.252 9.33105C259.453 9.96582 260.386 10.8398 261.05 11.9531C261.714 13.0664 262.114 14.3457 262.251 15.791H258.223C258.145 14.8926 257.949 14.1309 257.637 13.5059C257.334 12.8809 256.875 12.4072 256.26 12.085C255.654 11.7529 254.849 11.5869 253.843 11.5869C253.062 11.5869 252.373 11.7334 251.777 12.0264C251.191 12.3193 250.703 12.7588 250.312 13.3447C249.922 13.9209 249.629 14.6436 249.434 15.5127C249.238 16.3721 249.141 17.3682 249.141 18.501V20.1562C249.141 21.2402 249.229 22.2119 249.404 23.0713C249.58 23.9307 249.854 24.6582 250.225 25.2539C250.596 25.8496 251.074 26.3037 251.66 26.6162C252.246 26.9287 252.944 27.085 253.755 27.085C254.741 27.085 255.542 26.9287 256.157 26.6162C256.782 26.3037 257.256 25.8447 257.578 25.2393C257.91 24.6338 258.12 23.8818 258.208 22.9834ZM279.492 26.8359V30H268.154V26.8359H279.492ZM269.385 8.67188V30H265.356V8.67188H269.385ZM278.013 17.4756V20.5664H268.154V17.4756H278.013ZM279.448 8.67188V11.8506H268.154V8.67188H279.448Z" fill="white"/>
<g clip-path="url(#clip0_885_3680)">
<path d="M39.0932 9.33072C26.2863 9.33072 13.6983 9.33072 0.907104 9.33072C1.31367 9.09589 1.54823 8.97065 1.78279 8.8454C7.50601 5.99609 13.2292 3.16243 18.9368 0.2818C19.6874 -0.0939335 20.2973 -0.0939335 21.0478 0.2818C26.7554 3.16243 32.4786 5.99609 38.2019 8.8454C38.4364 8.97065 38.671 9.11155 39.0932 9.33072Z" fill="#3CCB93"/>
<path d="M0 11.7734C13.3698 11.7734 26.6302 11.7734 39.9844 11.7734C39.5152 13.5425 38.5927 14.9515 37.3417 16.1413C37.1228 16.3605 36.6693 16.4075 36.3253 16.4075C25.4418 16.4388 14.5426 16.4388 3.65911 16.4075C3.18999 16.4075 2.59578 16.11 2.2674 15.7656C1.18843 14.6697 0.422205 13.3703 0 11.7734Z" fill="#3CCB93"/>
<path d="M19.9999 39.9842C13.8701 39.9842 7.75598 39.9842 1.62619 39.9842C0.109383 39.9842 -0.359734 39.264 0.281392 37.8863C0.375216 37.6985 0.469039 37.5106 0.562862 37.3227C1.26654 35.8668 2.26732 35.2092 4.04996 35.2249C14.996 35.3188 25.9421 35.2875 36.8881 35.2562C37.67 35.2562 38.2486 35.4597 38.6551 36.1486C39.0304 36.7748 39.4683 37.3697 39.781 38.0272C40.3439 39.2014 39.8435 39.9685 38.53 39.9685C32.5097 39.9685 26.4894 39.9685 20.469 39.9685C20.3127 39.9842 20.1563 39.9842 19.9999 39.9842Z" fill="#3CCB93"/>
<path d="M35.2619 32.9083C32.9164 32.9083 30.6177 32.9083 28.2565 32.9083C28.2565 28.243 28.2565 23.5776 28.2565 18.8496C30.5708 18.8496 32.9007 18.8496 35.2619 18.8496C35.2619 23.4993 35.2619 28.1647 35.2619 32.9083Z" fill="#3CCB93"/>
<path d="M4.72241 18.8184C7.03672 18.8184 9.33539 18.8184 11.7122 18.8184C11.7122 23.4994 11.7122 28.1804 11.7122 32.8927C9.39794 32.8927 7.08363 32.8927 4.72241 32.8927C4.72241 28.2274 4.72241 23.5463 4.72241 18.8184Z" fill="#3CCB93"/>
<path d="M16.5287 18.8184C18.8743 18.8184 21.126 18.8184 23.4403 18.8184C23.4403 23.5307 23.4403 28.196 23.4403 32.9084C21.1417 32.9084 18.8586 32.9084 16.5287 32.9084C16.5287 28.2274 16.5287 23.562 16.5287 18.8184Z" fill="#3CCB93"/>
</g>
<defs>
<clipPath id="clip0_885_3680">
<rect width="40" height="40" fill="white"/>
</clipPath>
</defs>
</svg>
