<svg width="98" height="41" viewBox="0 0 98 41" fill="none" xmlns="http://www.w3.org/2000/svg">
<path d="M0.5 5C0.5 2.51472 2.51472 0.5 5 0.5H93C95.4853 0.5 97.5 2.51472 97.5 5V36C97.5 38.4853 95.4853 40.5 93 40.5H5C2.51472 40.5 0.5 38.4853 0.5 36V5Z" fill="#241F35" stroke="#3CCB93"/>
<path d="M33.5625 22.4624H35.7524C35.7085 23.1802 35.5107 23.8174 35.1592 24.374C34.8125 24.9307 34.3267 25.3652 33.7017 25.6777C33.0815 25.9902 32.3345 26.1465 31.4604 26.1465C30.7769 26.1465 30.1641 26.0293 29.6221 25.7949C29.0801 25.5557 28.6162 25.2139 28.2305 24.7695C27.8496 24.3252 27.5591 23.7881 27.3589 23.1582C27.1587 22.5283 27.0586 21.8228 27.0586 21.0415V20.3018C27.0586 19.5205 27.1611 18.8149 27.3662 18.1851C27.5762 17.5503 27.874 17.0107 28.2598 16.5664C28.6504 16.1221 29.1167 15.7803 29.6587 15.541C30.2007 15.3018 30.8062 15.1821 31.4751 15.1821C32.3638 15.1821 33.1133 15.3433 33.7236 15.6655C34.3389 15.9878 34.8149 16.4321 35.1519 16.9985C35.4937 17.5649 35.6987 18.2095 35.7671 18.9321H33.5698C33.5454 18.5024 33.46 18.1387 33.3135 17.8408C33.167 17.5381 32.9448 17.311 32.647 17.1597C32.354 17.0034 31.9634 16.9253 31.4751 16.9253C31.1089 16.9253 30.7891 16.9937 30.5156 17.1304C30.2422 17.2671 30.0127 17.4746 29.8271 17.7529C29.6416 18.0312 29.5024 18.3828 29.4097 18.8076C29.3218 19.2275 29.2778 19.7207 29.2778 20.2871V21.0415C29.2778 21.5933 29.3193 22.0791 29.4023 22.499C29.4854 22.9141 29.6123 23.2656 29.7832 23.5537C29.959 23.8369 30.1836 24.0518 30.457 24.1982C30.7354 24.3398 31.0698 24.4106 31.4604 24.4106C31.9194 24.4106 32.2979 24.3374 32.5957 24.1909C32.8936 24.0444 33.1206 23.8271 33.2769 23.5391C33.438 23.251 33.5332 22.8921 33.5625 22.4624ZM41.3408 24.2129V20.6826C41.3408 20.4287 41.2993 20.2114 41.2163 20.0308C41.1333 19.8452 41.0039 19.7012 40.8281 19.5986C40.6572 19.4961 40.4351 19.4448 40.1616 19.4448C39.9272 19.4448 39.7246 19.4863 39.5537 19.5693C39.3828 19.6475 39.251 19.7622 39.1582 19.9136C39.0654 20.0601 39.019 20.2334 39.019 20.4336H36.9097C36.9097 20.0967 36.9878 19.7769 37.144 19.4741C37.3003 19.1714 37.5273 18.9053 37.8252 18.6758C38.123 18.4414 38.4771 18.2583 38.8872 18.1265C39.3022 17.9946 39.7661 17.9287 40.2788 17.9287C40.894 17.9287 41.4409 18.0312 41.9194 18.2363C42.3979 18.4414 42.7739 18.749 43.0474 19.1592C43.3257 19.5693 43.4648 20.082 43.4648 20.6973V24.0884C43.4648 24.5229 43.4917 24.8794 43.5454 25.1577C43.5991 25.4312 43.6772 25.6704 43.7798 25.8755V26H41.6484C41.5459 25.7852 41.4678 25.5166 41.4141 25.1943C41.3652 24.8672 41.3408 24.54 41.3408 24.2129ZM41.6191 21.1733L41.6338 22.3672H40.4546C40.1763 22.3672 39.9346 22.3989 39.7295 22.4624C39.5244 22.5259 39.356 22.6162 39.2241 22.7334C39.0923 22.8457 38.9946 22.9775 38.9312 23.1289C38.8726 23.2803 38.8433 23.4463 38.8433 23.627C38.8433 23.8076 38.8848 23.9712 38.9678 24.1177C39.0508 24.2593 39.1704 24.3716 39.3267 24.4546C39.4829 24.5327 39.666 24.5718 39.876 24.5718C40.1934 24.5718 40.4692 24.5083 40.7036 24.3813C40.938 24.2544 41.1187 24.0981 41.2456 23.9126C41.3774 23.7271 41.4458 23.5513 41.4507 23.3853L42.0073 24.2788C41.9292 24.479 41.8218 24.6865 41.6851 24.9014C41.5532 25.1162 41.3848 25.3188 41.1797 25.5093C40.9746 25.6948 40.728 25.8486 40.4399 25.9707C40.1519 26.0879 39.8101 26.1465 39.4146 26.1465C38.9116 26.1465 38.4551 26.0464 38.0449 25.8462C37.6396 25.6411 37.3174 25.3604 37.0781 25.0039C36.8438 24.6426 36.7266 24.2324 36.7266 23.7734C36.7266 23.3584 36.8047 22.9897 36.9609 22.6675C37.1172 22.3452 37.3467 22.0742 37.6494 21.8545C37.957 21.6299 38.3403 21.4614 38.7993 21.3491C39.2583 21.2319 39.7905 21.1733 40.396 21.1733H41.6191ZM47.1562 19.7671V26H45.0469V18.0752H47.0244L47.1562 19.7671ZM46.8486 21.7593H46.2773C46.2773 21.1733 46.353 20.646 46.5044 20.1772C46.6558 19.7036 46.8682 19.3008 47.1416 18.9688C47.415 18.6318 47.7397 18.3755 48.1157 18.1997C48.4966 18.019 48.9214 17.9287 49.3901 17.9287C49.7612 17.9287 50.1006 17.9824 50.4082 18.0898C50.7158 18.1973 50.9795 18.3682 51.1992 18.6025C51.4238 18.8369 51.5947 19.147 51.7119 19.5327C51.834 19.9185 51.895 20.3896 51.895 20.9463V26H49.771V20.939C49.771 20.5874 49.7222 20.314 49.6245 20.1187C49.5269 19.9233 49.3828 19.7866 49.1924 19.7085C49.0068 19.6255 48.7773 19.584 48.5039 19.584C48.2207 19.584 47.9741 19.6401 47.7642 19.7524C47.5591 19.8647 47.3882 20.021 47.2515 20.2212C47.1196 20.4165 47.0195 20.646 46.9512 20.9097C46.8828 21.1733 46.8486 21.4565 46.8486 21.7593ZM56.7729 24.4985C57.0317 24.4985 57.2612 24.4497 57.4614 24.3521C57.6616 24.2495 57.8179 24.1079 57.9302 23.9272C58.0474 23.7417 58.1084 23.5244 58.1133 23.2754H60.0981C60.0933 23.832 59.9443 24.3276 59.6514 24.7622C59.3584 25.1919 58.9653 25.5312 58.4722 25.7803C57.979 26.0244 57.4272 26.1465 56.8169 26.1465C56.2017 26.1465 55.6646 26.0439 55.2056 25.8389C54.7515 25.6338 54.373 25.3506 54.0703 24.9893C53.7676 24.623 53.5405 24.1982 53.3892 23.7148C53.2378 23.2266 53.1621 22.7041 53.1621 22.1475V21.9351C53.1621 21.3735 53.2378 20.8511 53.3892 20.3677C53.5405 19.8794 53.7676 19.4546 54.0703 19.0933C54.373 18.7271 54.7515 18.4414 55.2056 18.2363C55.6597 18.0312 56.1919 17.9287 56.8022 17.9287C57.4517 17.9287 58.0205 18.0532 58.5088 18.3022C59.002 18.5513 59.3877 18.9077 59.666 19.3716C59.9492 19.8306 60.0933 20.375 60.0981 21.0049H58.1133C58.1084 20.7412 58.0522 20.502 57.9448 20.2871C57.8423 20.0723 57.6909 19.9014 57.4907 19.7744C57.2954 19.6426 57.0537 19.5767 56.7656 19.5767C56.458 19.5767 56.2065 19.6426 56.0112 19.7744C55.8159 19.9014 55.6646 20.0771 55.5571 20.3018C55.4497 20.5215 55.374 20.7729 55.3301 21.0562C55.291 21.3345 55.2715 21.6274 55.2715 21.9351V22.1475C55.2715 22.4551 55.291 22.7505 55.3301 23.0337C55.3691 23.3169 55.4424 23.5684 55.5498 23.7881C55.6621 24.0078 55.8159 24.1812 56.0112 24.3081C56.2065 24.4351 56.4604 24.4985 56.7729 24.4985ZM64.9688 26.1465C64.3535 26.1465 63.8018 26.0488 63.3135 25.8535C62.8252 25.6533 62.4102 25.3774 62.0684 25.0259C61.7314 24.6743 61.4727 24.2666 61.292 23.8027C61.1113 23.334 61.021 22.8359 61.021 22.3086V22.0156C61.021 21.415 61.1064 20.8657 61.2773 20.3677C61.4482 19.8696 61.6924 19.4375 62.0098 19.0713C62.332 18.7051 62.7227 18.4243 63.1816 18.229C63.6406 18.0288 64.1582 17.9287 64.7344 17.9287C65.2959 17.9287 65.7939 18.0215 66.2285 18.207C66.6631 18.3926 67.0269 18.6562 67.3198 18.998C67.6177 19.3398 67.8423 19.75 67.9937 20.2285C68.145 20.7021 68.2207 21.2295 68.2207 21.8105V22.6895H61.9219V21.2832H66.1479V21.1221C66.1479 20.8291 66.0942 20.5679 65.9868 20.3384C65.8843 20.104 65.728 19.9185 65.5181 19.7817C65.3081 19.645 65.0396 19.5767 64.7124 19.5767C64.4341 19.5767 64.1948 19.6377 63.9946 19.7598C63.7944 19.8818 63.6309 20.0527 63.5039 20.2725C63.3818 20.4922 63.2891 20.751 63.2256 21.0488C63.167 21.3418 63.1377 21.6641 63.1377 22.0156V22.3086C63.1377 22.626 63.1816 22.9189 63.2695 23.1875C63.3623 23.4561 63.4917 23.688 63.6577 23.8833C63.8286 24.0786 64.0337 24.23 64.2729 24.3374C64.5171 24.4448 64.793 24.4985 65.1006 24.4985C65.4814 24.4985 65.8354 24.4253 66.1626 24.2788C66.4946 24.1274 66.7803 23.9004 67.0195 23.5977L68.0449 24.7109C67.8789 24.9502 67.6519 25.1797 67.3638 25.3994C67.0806 25.6191 66.7388 25.7998 66.3384 25.9414C65.938 26.0781 65.4814 26.1465 64.9688 26.1465ZM71.6484 14.75V26H69.5317V14.75H71.6484Z" fill="white"/>
</svg>
