<svg width="36" height="36" viewBox="0 0 36 36" fill="none" xmlns="http://www.w3.org/2000/svg">
<circle cx="18" cy="18" r="17.5" fill="#241F35" stroke="white"/>
<path d="M15.5449 18.3887L13.6699 17.9297L14.4414 10.7812H22.1074V12.7734H16.3945L16.0039 16.2598C16.2253 16.1296 16.5312 16.0026 16.9219 15.8789C17.3125 15.7487 17.7585 15.6836 18.2598 15.6836C18.9303 15.6836 19.5293 15.7943 20.0566 16.0156C20.5905 16.2305 21.043 16.5462 21.4141 16.9629C21.7852 17.373 22.0684 17.8743 22.2637 18.4668C22.459 19.0527 22.5566 19.7135 22.5566 20.4492C22.5566 21.1068 22.459 21.722 22.2637 22.2949C22.0749 22.8678 21.7884 23.3724 21.4043 23.8086C21.0202 24.2448 20.5352 24.5866 19.9492 24.834C19.3698 25.0749 18.6829 25.1953 17.8887 25.1953C17.2962 25.1953 16.7266 25.1107 16.1797 24.9414C15.6393 24.7656 15.1543 24.5085 14.7246 24.1699C14.2949 23.8249 13.9499 23.4017 13.6895 22.9004C13.429 22.3926 13.2793 21.8099 13.2402 21.1523H15.5449C15.6035 21.6146 15.7305 22.0085 15.9258 22.334C16.1276 22.653 16.3945 22.8971 16.7266 23.0664C17.0586 23.2357 17.4427 23.3203 17.8789 23.3203C18.276 23.3203 18.6178 23.252 18.9043 23.1152C19.1908 22.972 19.4284 22.7702 19.6172 22.5098C19.8125 22.2428 19.9557 21.9303 20.0469 21.5723C20.1445 21.2142 20.1934 20.8171 20.1934 20.3809C20.1934 19.9642 20.138 19.5833 20.0273 19.2383C19.9232 18.8932 19.7637 18.5938 19.5488 18.3398C19.3405 18.0859 19.0768 17.8906 18.7578 17.7539C18.4388 17.6107 18.071 17.5391 17.6543 17.5391C17.0944 17.5391 16.6647 17.6204 16.3652 17.7832C16.0723 17.946 15.7988 18.1478 15.5449 18.3887Z" fill="white"/>
</svg>
