<svg width="272" height="56" viewBox="0 0 272 56" fill="none" xmlns="http://www.w3.org/2000/svg">
<path d="M58.9676 20.2148H61.4428L66.0949 32.624L70.7359 20.2148H73.2111L67.0673 36.3037H65.1004L58.9676 20.2148ZM57.8405 20.2148H60.1942L60.603 30.9555V36.3037H57.8405V20.2148ZM71.9846 20.2148H74.3493V36.3037H71.5757V30.9555L71.9846 20.2148ZM80.8468 34.9998L84.0955 24.3475H86.9464L82.1507 38.127C82.0402 38.4216 81.8965 38.7421 81.7197 39.0883C81.5429 39.4346 81.3109 39.7624 81.0236 40.0718C80.7436 40.3886 80.3937 40.6427 79.9738 40.8342C79.5539 41.0331 79.0456 41.1326 78.4489 41.1326C78.2131 41.1326 77.9848 41.1105 77.7638 41.0663C77.5501 41.0295 77.3476 40.9889 77.156 40.9447L77.145 38.9115C77.2186 38.9189 77.307 38.9263 77.4102 38.9336C77.5207 38.941 77.6091 38.9447 77.6754 38.9447C78.1174 38.9447 78.4857 38.8894 78.7804 38.7789C79.0751 38.6758 79.3145 38.5064 79.4986 38.2706C79.6902 38.0349 79.8522 37.7181 79.9848 37.3203L80.8468 34.9998ZM79.0124 24.3475L81.8523 33.2981L82.3275 36.1048L80.4821 36.58L76.1394 24.3475H79.0124ZM100.637 22.3585L95.8307 36.3037H92.9245L98.9799 20.2148H100.836L100.637 22.3585ZM104.66 36.3037L99.8418 22.3585L99.6319 20.2148H101.499L107.577 36.3037H104.66ZM104.428 30.3367V32.5356H95.676V30.3367H104.428ZM113.997 34.4031C114.432 34.4031 114.822 34.3184 115.168 34.1489C115.522 33.9721 115.806 33.729 116.019 33.4196C116.24 33.1102 116.362 32.753 116.384 32.3478H118.892C118.877 33.1213 118.649 33.8248 118.207 34.4583C117.765 35.0919 117.179 35.5965 116.45 35.9722C115.721 36.3405 114.914 36.5247 114.03 36.5247C113.117 36.5247 112.321 36.37 111.643 36.0606C110.966 35.7438 110.402 35.3092 109.953 34.7567C109.503 34.2042 109.164 33.567 108.936 32.845C108.715 32.1231 108.605 31.3496 108.605 30.5245V30.1378C108.605 29.3127 108.715 28.5392 108.936 27.8173C109.164 27.0879 109.503 26.447 109.953 25.8945C110.402 25.342 110.966 24.9111 111.643 24.6017C112.321 24.2849 113.113 24.1265 114.019 24.1265C114.977 24.1265 115.817 24.3181 116.538 24.7011C117.26 25.0768 117.828 25.6036 118.24 26.2813C118.66 26.9517 118.877 27.7325 118.892 28.6239H116.384C116.362 28.1819 116.251 27.7841 116.052 27.4305C115.861 27.0695 115.588 26.7822 115.235 26.5686C114.888 26.355 114.472 26.2481 113.986 26.2481C113.448 26.2481 113.002 26.3586 112.649 26.5796C112.295 26.7933 112.019 27.0879 111.82 27.4636C111.621 27.832 111.478 28.2482 111.389 28.7123C111.308 29.169 111.268 29.6442 111.268 30.1378V30.5245C111.268 31.0181 111.308 31.4969 111.389 31.961C111.47 32.4251 111.61 32.8414 111.809 33.2097C112.015 33.5707 112.295 33.8616 112.649 34.0826C113.002 34.2963 113.452 34.4031 113.997 34.4031ZM125.821 34.4031C126.255 34.4031 126.646 34.3184 126.992 34.1489C127.345 33.9721 127.629 33.729 127.843 33.4196C128.064 33.1102 128.185 32.753 128.207 32.3478H130.716C130.701 33.1213 130.473 33.8248 130.031 34.4583C129.589 35.0919 129.003 35.5965 128.274 35.9722C127.544 36.3405 126.738 36.5247 125.854 36.5247C124.94 36.5247 124.145 36.37 123.467 36.0606C122.789 35.7438 122.226 35.3092 121.776 34.7567C121.327 34.2042 120.988 33.567 120.76 32.845C120.539 32.1231 120.428 31.3496 120.428 30.5245V30.1378C120.428 29.3127 120.539 28.5392 120.76 27.8173C120.988 27.0879 121.327 26.447 121.776 25.8945C122.226 25.342 122.789 24.9111 123.467 24.6017C124.145 24.2849 124.937 24.1265 125.843 24.1265C126.8 24.1265 127.64 24.3181 128.362 24.7011C129.084 25.0768 129.651 25.6036 130.064 26.2813C130.484 26.9517 130.701 27.7325 130.716 28.6239H128.207C128.185 28.1819 128.075 27.7841 127.876 27.4305C127.684 27.0695 127.412 26.7822 127.058 26.5686C126.712 26.355 126.296 26.2481 125.81 26.2481C125.272 26.2481 124.826 26.3586 124.472 26.5796C124.119 26.7933 123.843 27.0879 123.644 27.4636C123.445 27.832 123.301 28.2482 123.213 28.7123C123.132 29.169 123.091 29.6442 123.091 30.1378V30.5245C123.091 31.0181 123.132 31.4969 123.213 31.961C123.294 32.4251 123.434 32.8414 123.633 33.2097C123.839 33.5707 124.119 33.8616 124.472 34.0826C124.826 34.2963 125.275 34.4031 125.821 34.4031ZM132.252 30.4582V30.2041C132.252 29.3422 132.377 28.5429 132.627 27.8062C132.878 27.0622 133.239 26.4176 133.71 25.8724C134.189 25.3199 134.771 24.8927 135.456 24.5906C136.149 24.2812 136.93 24.1265 137.799 24.1265C138.675 24.1265 139.456 24.2812 140.141 24.5906C140.834 24.8927 141.42 25.3199 141.898 25.8724C142.377 26.4176 142.742 27.0622 142.992 27.8062C143.243 28.5429 143.368 29.3422 143.368 30.2041V30.4582C143.368 31.3201 143.243 32.1194 142.992 32.8561C142.742 33.5928 142.377 34.2373 141.898 34.7899C141.42 35.335 140.838 35.7623 140.153 36.0717C139.467 36.3737 138.69 36.5247 137.821 36.5247C136.944 36.5247 136.16 36.3737 135.467 36.0717C134.782 35.7623 134.2 35.335 133.721 34.7899C133.243 34.2373 132.878 33.5928 132.627 32.8561C132.377 32.1194 132.252 31.3201 132.252 30.4582ZM134.915 30.2041V30.4582C134.915 30.996 134.97 31.5043 135.081 31.9831C135.191 32.462 135.364 32.8819 135.6 33.2428C135.836 33.6038 136.138 33.8874 136.506 34.0937C136.874 34.3 137.313 34.4031 137.821 34.4031C138.315 34.4031 138.742 34.3 139.103 34.0937C139.471 33.8874 139.773 33.6038 140.009 33.2428C140.245 32.8819 140.418 32.462 140.528 31.9831C140.646 31.5043 140.705 30.996 140.705 30.4582V30.2041C140.705 29.6737 140.646 29.1727 140.528 28.7013C140.418 28.2224 140.241 27.7988 139.998 27.4305C139.762 27.0622 139.46 26.7749 139.092 26.5686C138.731 26.355 138.3 26.2481 137.799 26.2481C137.298 26.2481 136.863 26.355 136.495 26.5686C136.134 26.7749 135.836 27.0622 135.6 27.4305C135.364 27.7988 135.191 28.2224 135.081 28.7013C134.97 29.1727 134.915 29.6737 134.915 30.2041ZM152.794 33.4859V24.3475H155.468V36.3037H152.949L152.794 33.4859ZM153.17 30.9997L154.065 30.9776C154.065 31.7805 153.976 32.5209 153.799 33.1986C153.623 33.869 153.35 34.4547 152.982 34.9556C152.613 35.4492 152.142 35.8359 151.567 36.1159C150.993 36.3884 150.304 36.5247 149.501 36.5247C148.919 36.5247 148.385 36.44 147.899 36.2706C147.412 36.1011 146.993 35.8396 146.639 35.486C146.293 35.1324 146.024 34.672 145.832 34.1047C145.641 33.5375 145.545 32.8598 145.545 32.0715V24.3475H148.208V32.0936C148.208 32.5283 148.26 32.8929 148.363 33.1876C148.466 33.4749 148.606 33.7069 148.783 33.8837C148.959 34.0605 149.166 34.1858 149.401 34.2594C149.637 34.3331 149.888 34.3699 150.153 34.3699C150.912 34.3699 151.508 34.2226 151.943 33.9279C152.385 33.6259 152.698 33.2207 152.882 32.7124C153.074 32.2041 153.17 31.6332 153.17 30.9997ZM160.838 26.9001V36.3037H158.175V24.3475H160.684L160.838 26.9001ZM160.363 29.8836L159.501 29.8726C159.509 29.0254 159.626 28.2482 159.855 27.541C160.091 26.8338 160.415 26.226 160.827 25.7177C161.247 25.2094 161.748 24.819 162.33 24.5464C162.912 24.2665 163.56 24.1265 164.275 24.1265C164.849 24.1265 165.369 24.2076 165.833 24.3696C166.304 24.5243 166.706 24.7785 167.037 25.1321C167.376 25.4857 167.634 25.9461 167.811 26.5133C167.988 27.0732 168.076 27.762 168.076 28.5797V36.3037H165.402V28.5687C165.402 27.9941 165.317 27.541 165.148 27.2095C164.986 26.8706 164.746 26.6312 164.43 26.4912C164.12 26.3439 163.733 26.2702 163.269 26.2702C162.813 26.2702 162.404 26.366 162.043 26.5575C161.682 26.7491 161.376 27.0106 161.126 27.3421C160.882 27.6736 160.695 28.0567 160.562 28.4913C160.429 28.9259 160.363 29.39 160.363 29.8836ZM176.275 24.3475V26.2923H169.535V24.3475H176.275ZM171.479 21.4193H174.143V32.9997C174.143 33.3681 174.194 33.6517 174.297 33.8506C174.408 34.0421 174.559 34.171 174.75 34.2373C174.942 34.3036 175.167 34.3368 175.424 34.3368C175.609 34.3368 175.785 34.3257 175.955 34.3036C176.124 34.2815 176.26 34.2594 176.364 34.2373L176.375 36.2706C176.154 36.3369 175.896 36.3958 175.601 36.4474C175.314 36.4989 174.982 36.5247 174.607 36.5247C173.995 36.5247 173.454 36.4179 172.982 36.2043C172.511 35.9833 172.142 35.626 171.877 35.1324C171.612 34.6388 171.479 33.9832 171.479 33.1655V21.4193ZM185.071 33.9058V28.204C185.071 27.7767 184.994 27.4084 184.839 27.099C184.684 26.7896 184.449 26.5502 184.132 26.3807C183.822 26.2113 183.432 26.1266 182.961 26.1266C182.526 26.1266 182.15 26.2003 181.833 26.3476C181.517 26.4949 181.27 26.6938 181.093 26.9443C180.916 27.1948 180.828 27.4784 180.828 27.7952H178.176C178.176 27.3237 178.29 26.8669 178.518 26.4249C178.747 25.9829 179.078 25.5888 179.513 25.2426C179.948 24.8963 180.467 24.6238 181.071 24.4249C181.675 24.226 182.353 24.1265 183.104 24.1265C184.003 24.1265 184.799 24.2775 185.491 24.5796C186.191 24.8816 186.74 25.3384 187.137 25.9498C187.543 26.5539 187.745 27.3126 187.745 28.2261V33.5412C187.745 34.0863 187.782 34.5762 187.856 35.0109C187.937 35.4381 188.051 35.8101 188.198 36.1269V36.3037H185.469C185.344 36.0164 185.244 35.6518 185.171 35.2098C185.104 34.7604 185.071 34.3257 185.071 33.9058ZM185.458 29.0328L185.48 30.6792H183.568C183.075 30.6792 182.64 30.7271 182.264 30.8229C181.889 30.9113 181.576 31.0439 181.325 31.2207C181.075 31.3975 180.887 31.6111 180.762 31.8616C180.636 32.112 180.574 32.3957 180.574 32.7124C180.574 33.0292 180.647 33.3202 180.795 33.5854C180.942 33.8432 181.156 34.0458 181.436 34.1931C181.723 34.3405 182.069 34.4141 182.474 34.4141C183.019 34.4141 183.495 34.3036 183.9 34.0826C184.312 33.8543 184.636 33.578 184.872 33.2539C185.108 32.9224 185.233 32.6093 185.248 32.3146L186.11 33.497C186.021 33.799 185.87 34.1232 185.657 34.4694C185.443 34.8156 185.163 35.1471 184.817 35.4639C184.478 35.7733 184.069 36.0275 183.59 36.2264C183.119 36.4253 182.574 36.5247 181.955 36.5247C181.174 36.5247 180.478 36.37 179.866 36.0606C179.255 35.7438 178.776 35.3203 178.43 34.7899C178.084 34.2521 177.911 33.6443 177.911 32.9666C177.911 32.333 178.028 31.7732 178.264 31.287C178.507 30.7934 178.861 30.3809 179.325 30.0494C179.797 29.7179 180.371 29.4674 181.049 29.298C181.727 29.1212 182.5 29.0328 183.369 29.0328H185.458ZM193.171 26.9001V36.3037H190.508V24.3475H193.016L193.171 26.9001ZM192.696 29.8836L191.834 29.8726C191.841 29.0254 191.959 28.2482 192.187 27.541C192.423 26.8338 192.747 26.226 193.16 25.7177C193.58 25.2094 194.081 24.819 194.663 24.5464C195.245 24.2665 195.893 24.1265 196.607 24.1265C197.182 24.1265 197.701 24.2076 198.165 24.3696C198.637 24.5243 199.038 24.7785 199.37 25.1321C199.709 25.4857 199.967 25.9461 200.143 26.5133C200.32 27.0732 200.409 27.762 200.409 28.5797V36.3037H197.734V28.5687C197.734 27.9941 197.65 27.541 197.48 27.2095C197.318 26.8706 197.079 26.6312 196.762 26.4912C196.453 26.3439 196.066 26.2702 195.602 26.2702C195.145 26.2702 194.736 26.366 194.375 26.5575C194.014 26.7491 193.709 27.0106 193.458 27.3421C193.215 27.6736 193.027 28.0567 192.895 28.4913C192.762 28.9259 192.696 29.39 192.696 29.8836ZM208.608 24.3475V26.2923H201.867V24.3475H208.608ZM203.812 21.4193H206.475V32.9997C206.475 33.3681 206.527 33.6517 206.63 33.8506C206.74 34.0421 206.891 34.171 207.083 34.2373C207.274 34.3036 207.499 34.3368 207.757 34.3368C207.941 34.3368 208.118 34.3257 208.287 34.3036C208.457 34.2815 208.593 34.2594 208.696 34.2373L208.707 36.2706C208.486 36.3369 208.228 36.3958 207.934 36.4474C207.646 36.4989 207.315 36.5247 206.939 36.5247C206.328 36.5247 205.786 36.4179 205.315 36.2043C204.843 35.9833 204.475 35.626 204.21 35.1324C203.945 34.6388 203.812 33.9832 203.812 33.1655V21.4193ZM217.37 33.066C217.37 32.8008 217.304 32.5614 217.172 32.3478C217.039 32.1268 216.785 31.9279 216.409 31.7511C216.041 31.5743 215.496 31.4122 214.774 31.2649C214.14 31.1249 213.558 30.9592 213.028 30.7676C212.505 30.5687 212.055 30.3293 211.68 30.0494C211.304 29.7694 211.013 29.4379 210.807 29.0549C210.6 28.6718 210.497 28.2298 210.497 27.7289C210.497 27.2426 210.604 26.7822 210.818 26.3476C211.031 25.913 211.337 25.5299 211.735 25.1984C212.133 24.8669 212.615 24.6054 213.182 24.4138C213.757 24.2223 214.398 24.1265 215.105 24.1265C216.107 24.1265 216.965 24.296 217.68 24.6348C218.402 24.9663 218.954 25.4194 219.337 25.994C219.72 26.5612 219.912 27.2021 219.912 27.9167H217.249C217.249 27.5999 217.168 27.3053 217.006 27.0327C216.851 26.7528 216.615 26.5281 216.299 26.3586C215.982 26.1818 215.584 26.0934 215.105 26.0934C214.648 26.0934 214.269 26.1671 213.967 26.3144C213.672 26.4544 213.451 26.6386 213.304 26.8669C213.164 27.0953 213.094 27.3458 213.094 27.6184C213.094 27.8173 213.131 27.9977 213.205 28.1598C213.286 28.3145 213.418 28.4582 213.602 28.5908C213.787 28.716 214.037 28.8339 214.354 28.9444C214.678 29.0549 215.083 29.1617 215.569 29.2648C216.483 29.4563 217.267 29.7031 217.923 30.0052C218.586 30.2998 219.094 30.6829 219.448 31.1544C219.801 31.6185 219.978 32.2078 219.978 32.9224C219.978 33.4528 219.864 33.939 219.636 34.381C219.415 34.8156 219.091 35.195 218.663 35.5192C218.236 35.8359 217.724 36.0827 217.127 36.2595C216.538 36.4363 215.875 36.5247 215.138 36.5247C214.055 36.5247 213.138 36.3332 212.387 35.9501C211.635 35.5597 211.065 35.0624 210.674 34.4583C210.291 33.8469 210.1 33.2134 210.1 32.5577H212.674C212.704 33.0513 212.84 33.4454 213.083 33.7401C213.333 34.0274 213.643 34.2373 214.011 34.3699C214.387 34.4952 214.774 34.5578 215.171 34.5578C215.65 34.5578 216.052 34.4952 216.376 34.3699C216.7 34.2373 216.947 34.0605 217.116 33.8395C217.286 33.6112 217.37 33.3533 217.37 33.066Z" fill="white"/>
<path d="M35.5358 41.0973C35.5243 41.2183 35.4195 41.2425 35.3354 41.2759C34.3521 41.6653 33.3405 41.9539 32.2973 42.1348C31.9177 42.2005 31.5272 42.1884 31.1556 42.3036C30.4068 42.3036 29.658 42.3036 28.9091 42.3036C28.6597 42.197 28.3895 42.2333 28.1303 42.1947C27.5572 42.1083 26.9863 42.0173 26.4322 41.8427C26.4327 41.6987 26.4373 41.5547 26.4322 41.4107C26.4241 41.1843 26.5105 41.0887 26.7542 41.0899C29.6816 41.0973 32.609 41.0962 35.5358 41.0973Z" fill="#E5FBFE"/>
<path d="M35.5358 41.0973C32.6084 41.0961 29.681 41.0973 26.7542 41.0898C26.5105 41.0892 26.4241 41.1849 26.4322 41.4107C26.4373 41.5547 26.4327 41.6987 26.4322 41.8427C25.7565 41.6768 25.0877 41.4913 24.4736 41.1514C24.5485 41.0633 24.6511 41.0961 24.7426 41.0956C25.2115 41.0927 25.681 41.0817 26.1499 41.0996C26.3849 41.1088 26.4523 41.0253 26.4362 40.8041C26.4195 40.5754 26.4322 40.345 26.4322 40.1152C26.9961 40.1152 27.5606 40.11 28.1245 40.1192C28.3135 40.1226 28.4016 40.0806 28.3953 39.8675C28.3815 39.3991 28.3815 38.9303 28.3953 38.4619C28.4016 38.2488 28.3129 38.2073 28.1245 38.2102C27.5606 38.2194 26.9961 38.2142 26.4322 38.2142C26.4327 37.8876 26.4327 37.5604 26.4333 37.2338C27.018 37.2344 27.6032 37.2275 28.1873 37.239C28.3855 37.2425 28.4569 37.1837 28.4517 36.9792C28.4391 36.5098 28.4477 36.0397 28.4471 35.5702C28.9782 35.2914 29.5128 35.0178 29.8936 34.5299C29.9448 34.489 29.9967 34.4475 30.0479 34.4066C31.0842 34.4084 32.1211 34.4066 33.1574 34.4159C33.3452 34.4176 33.4091 34.3583 33.4051 34.1693C33.3941 33.7091 33.3918 33.2477 33.4056 32.7874C33.412 32.576 33.3515 32.5028 33.132 32.5063C32.4126 32.5178 31.6925 32.5092 30.973 32.508C30.9978 32.1831 31.022 31.8583 31.0468 31.5334C31.7472 31.5334 32.4471 31.5288 33.1476 31.5357C33.3227 31.5374 33.4114 31.5017 33.4062 31.3001C33.3941 30.8208 33.3964 30.341 33.4056 29.8617C33.4091 29.6872 33.3498 29.6273 33.1741 29.629C32.2824 29.6382 31.3901 29.6376 30.4984 29.6405C30.2824 29.3462 30.0802 29.0409 29.8279 28.7742C29.9189 28.6676 30.0422 28.7125 30.1516 28.712C31.1476 28.7085 32.1435 28.7062 33.1395 28.7131C33.3313 28.7143 33.4137 28.6682 33.4074 28.4585C33.3935 27.9896 33.3958 27.5201 33.4068 27.0512C33.4114 26.8617 33.3452 26.8047 33.1585 26.8059C31.9805 26.8128 30.8031 26.8133 29.6251 26.8053C29.4195 26.8036 29.3624 26.875 29.3676 27.0708C29.3792 27.5017 29.3711 27.9326 29.3705 28.3635C29.0618 28.1941 28.753 28.0253 28.4448 27.856C28.4465 27.6181 28.4425 27.3796 28.4506 27.1423C28.4586 26.9072 28.3774 26.7978 28.1194 26.8047C27.5583 26.8203 26.9961 26.8099 26.4345 26.8105C26.4345 26.4839 26.4339 26.1572 26.4339 25.8301C26.9978 25.8306 27.5618 25.8214 28.1251 25.8358C28.3452 25.8416 28.4033 25.765 28.397 25.5553C28.3832 25.0968 28.3832 24.6377 28.397 24.1797C28.4033 23.9683 28.3181 23.9234 28.1274 23.9268C27.5641 23.9372 27.0001 23.9314 26.4362 23.932C26.4356 23.6238 26.4356 23.3151 26.435 23.0069C27.0174 23.0075 27.5998 23.0023 28.1821 23.0115C28.3699 23.0144 28.4575 22.9746 28.4535 22.7609C28.4402 22.0645 28.446 21.3675 28.4442 20.6705C28.7547 20.6308 29.0658 20.6469 29.3768 20.6613C29.3751 21.36 29.3803 22.0587 29.3676 22.7575C29.3636 22.9672 29.4442 23.0132 29.6361 23.0121C30.8037 23.0052 31.9719 23.0052 33.1395 23.0121C33.3302 23.0132 33.4126 22.9689 33.4085 22.7581C33.3958 22.0593 33.401 21.3606 33.3993 20.6619C33.7098 20.6619 34.0208 20.6613 34.3313 20.6613C34.3296 21.3502 34.3382 22.0392 34.321 22.7275C34.3152 22.9654 34.4005 23.0144 34.6182 23.0127C35.7662 23.0034 36.9143 23.0075 38.0629 23.0069C37.9805 23.3157 37.8981 23.625 37.8158 23.9337C36.7432 23.9326 35.67 23.9366 34.5975 23.9257C34.3803 23.9234 34.3152 23.9908 34.3227 24.2039C34.3377 24.6342 34.3411 25.0662 34.3215 25.4965C34.31 25.7534 34.378 25.8421 34.6516 25.8381C35.6764 25.8214 36.7017 25.8312 37.7265 25.8312C37.67 26.1676 37.5658 26.4908 37.4627 26.8145C36.4943 26.8128 35.526 26.8145 34.5577 26.807C34.3843 26.8059 34.3204 26.8606 34.3244 27.0374C34.3336 27.4781 34.3434 27.9205 34.3215 28.36C34.3083 28.6307 34.3803 28.7235 34.6654 28.7177C35.4223 28.701 36.1798 28.7183 36.9373 28.7223C36.8958 28.9136 36.8549 29.1042 36.8135 29.2955C36.7731 29.4084 36.7328 29.5207 36.6931 29.6336C35.9857 29.6336 35.2783 29.6382 34.571 29.6296C34.3843 29.6273 34.3198 29.6866 34.3238 29.875C34.3348 30.3433 34.3359 30.8116 34.3233 31.2799C34.3175 31.485 34.3912 31.5409 34.5877 31.538C35.1228 31.5299 35.6579 31.5414 36.1931 31.5449C36.1078 31.8681 36.0231 32.1906 35.9379 32.5138C35.4799 32.5132 35.0214 32.5178 34.5635 32.5103C34.3981 32.5075 34.321 32.5507 34.3244 32.7338C34.3342 33.2206 34.3342 33.7073 34.3244 34.1941C34.321 34.3784 34.3993 34.4216 34.564 34.4164C34.8503 34.4078 35.1366 34.4141 35.4229 34.4147C35.3791 34.7321 35.2697 35.0322 35.1833 35.3381C34.9644 35.3375 34.7449 35.3421 34.5266 35.3346C34.3786 35.3295 34.3233 35.3882 34.3261 35.5357C34.3325 35.8876 34.3279 36.2402 34.3279 36.5927C34.3279 37.2338 34.3279 37.2338 34.9667 37.239C34.9811 37.3922 34.9961 37.5455 35.0105 37.6987C34.9327 37.8634 34.9569 38.0581 34.8549 38.2154C34.7881 38.2154 34.7196 38.2246 34.6539 38.2142C34.3837 38.171 34.3089 38.288 34.3221 38.5483C34.3428 38.9591 34.3417 39.3721 34.3221 39.7828C34.31 40.0391 34.3774 40.1296 34.6516 40.1244C35.5992 40.1065 36.5473 40.1175 37.4955 40.1169C37.0704 40.4936 36.5416 40.6912 36.0508 40.9544C35.8878 41.038 35.7271 41.1221 35.5358 41.0973ZM31.3555 37.235C31.9592 37.235 32.5629 37.2309 33.1666 37.2379C33.3342 37.2396 33.4085 37.1941 33.4051 37.0121C33.3953 36.5236 33.397 36.0345 33.4045 35.546C33.4068 35.3813 33.3429 35.3318 33.1844 35.3323C31.9863 35.3364 30.7887 35.3375 29.5906 35.3312C29.4056 35.33 29.3653 35.4072 29.3676 35.572C29.3751 36.0512 29.3763 36.5305 29.3671 37.0092C29.3636 37.1883 29.431 37.2402 29.6021 37.2379C30.1868 37.2298 30.7714 37.235 31.3555 37.235ZM31.4154 23.9286C30.8112 23.9286 30.2069 23.9332 29.6027 23.9257C29.4321 23.9234 29.363 23.9735 29.3665 24.1538C29.3763 24.633 29.3774 25.1129 29.3659 25.5921C29.3613 25.788 29.4385 25.8335 29.6194 25.8329C30.7893 25.8266 31.9592 25.8272 33.1291 25.8324C33.3238 25.8329 33.4074 25.7673 33.4039 25.5657C33.3953 25.0956 33.3953 24.6256 33.4045 24.1561C33.4079 23.9781 33.3429 23.924 33.17 23.9263C32.5859 23.9332 32.0007 23.9286 31.4154 23.9286ZM31.3509 38.2131C30.7755 38.2131 30.2006 38.2177 29.6251 38.2102C29.4512 38.2079 29.3607 38.2419 29.3659 38.4447C29.378 38.9239 29.3751 39.4032 29.3671 39.8824C29.3642 40.0535 29.4166 40.1192 29.5957 40.118C30.7651 40.1117 31.935 40.1117 33.1044 40.1186C33.295 40.1198 33.3532 40.0541 33.3492 39.8692C33.3388 39.4095 33.3359 38.9487 33.3503 38.489C33.3567 38.2776 33.2962 38.2033 33.0767 38.2085C32.5013 38.2223 31.9264 38.2131 31.3509 38.2131Z" fill="#CBEAFE"/>
<path d="M38.0681 14.769C38.9126 14.769 39.7576 14.7678 40.6021 14.7696C41.1995 14.7707 41.5232 15.0956 41.5249 15.6889C41.5284 17.1572 41.5324 18.6256 41.5359 20.0939C41.5318 20.5847 41.5278 21.0754 41.5232 21.5662C41.4345 21.4988 41.3458 21.432 41.2571 21.3646C41.2622 21.0823 41.192 20.8231 40.9546 20.6544C40.8118 20.553 40.8187 20.4499 40.859 20.3087C40.9247 20.08 41.0174 19.856 41.0123 19.6112L41.0071 19.6123C41.0243 19.5921 41.0411 19.5726 41.0583 19.5524C41.0923 19.4332 41.1372 19.3162 41.1591 19.1947C41.2185 18.8629 41.0209 18.5576 40.6816 18.4406C40.4097 18.3473 40.0825 18.4873 39.9328 18.7678C39.8608 18.9032 39.8083 19.0466 39.7951 19.2016C39.6995 19.5282 39.6044 19.8554 39.5088 20.182C39.4322 20.182 39.3556 20.1826 39.279 20.1826C39.279 19.6935 39.279 19.2039 39.2784 18.7148C39.2784 18.0898 39.1845 17.9936 38.5704 17.9936C35.3187 17.9936 32.067 17.9936 28.8153 17.9942C28.6909 17.9942 28.5664 18.0017 28.442 18.0057C27.7721 17.9965 27.1016 17.9873 26.4316 17.9781C26.4322 17.2828 26.4339 16.5875 26.4328 15.8928C26.4322 15.4211 26.5394 15.0069 27.01 14.7811C27.1344 14.7788 27.2588 14.7776 27.3833 14.7748C28.1482 14.7575 28.9144 14.8116 29.6788 14.7437C29.8124 14.7517 29.9455 14.7673 30.0791 14.7673C32.7421 14.7696 35.4051 14.769 38.0681 14.769Z" fill="#E5FBFE"/>
<path d="M27.0099 14.7823C26.5393 15.0087 26.4321 15.4222 26.4327 15.894C26.4339 16.5893 26.4321 17.2846 26.4316 17.9793L26.4339 18.0035C25.6026 18.0006 24.7714 17.9948 23.9402 17.9971C23.6153 17.9983 23.4494 18.1601 23.4465 18.4977C23.4408 19.2235 23.4511 19.9499 23.4546 20.6757C23.4494 20.7235 23.4396 20.7707 23.4396 20.8185C23.4408 23.6647 23.4425 26.5109 23.4442 29.3571C23.2887 29.6446 23.1332 29.9326 22.9776 30.22C22.3878 30.0547 21.791 30.0691 21.1914 30.1463C21.1908 25.769 21.1908 21.3917 21.1902 17.0144C21.1902 16.5634 21.1879 16.1123 21.1914 15.6613C21.1948 15.1031 21.5295 14.7719 22.0917 14.7696C23.3002 14.7638 24.5093 14.761 25.7178 14.7563C26.1487 14.7656 26.579 14.7736 27.0099 14.7823Z" fill="#CBEAFE"/>
<path d="M17.9806 35.4999C17.6776 35.1779 17.5175 34.77 17.3274 34.3835C16.2738 32.2424 15.8015 29.9717 15.9057 27.5926C16.025 24.8668 16.8562 22.3715 18.4288 20.1318C18.4455 20.1543 18.4702 20.1739 18.4772 20.1992C19.3648 23.5178 20.2508 26.8363 21.1373 30.1549C21.0981 30.1739 21.0584 30.1934 21.0192 30.2125C21.0002 30.2113 20.98 30.2061 20.9622 30.2102C19.0175 30.6353 17.6056 32.6393 17.8343 34.6272C17.8683 34.9221 17.9564 35.205 17.9806 35.4999Z" fill="#3CCB93"/>
<path d="M17.9803 35.4998C17.9561 35.2049 17.8674 34.9221 17.8334 34.6266C17.6047 32.6387 19.016 30.6352 20.9613 30.2095C20.9791 30.2055 20.9993 30.2107 21.0183 30.2118C20.7579 30.5891 20.7902 30.9509 21.0753 31.3C21.0408 31.3967 20.9474 31.4008 20.8702 31.4365C20.4244 31.6421 20.0085 31.8869 19.6905 32.2786C19.1715 32.9175 18.9567 33.6375 18.9935 34.4612C19.0287 35.2481 19.3524 35.9077 19.9025 36.4117C20.649 37.0954 21.5632 37.3766 22.5834 37.1715C23.1243 37.0626 23.6035 36.8287 23.9705 36.3881C23.7579 36.414 23.5523 36.4238 23.3455 36.4319C23.1214 36.4405 22.9008 36.4048 22.6928 36.3541C20.6675 35.861 19.7631 33.6162 20.7885 31.891C20.9106 31.6859 21.1122 31.5402 21.1871 31.3069C21.7061 31.194 22.2257 31.251 22.7447 31.3034C22.6554 33.0137 23.3075 34.3478 24.7614 35.274C24.668 35.5885 24.5073 35.8719 24.2896 36.1093C24.1335 36.2798 24.0753 36.4503 24.1606 36.6496C24.2539 36.8673 24.414 37.0275 24.668 37.0592C24.7591 37.0707 24.861 37.0286 24.9371 37.1145C24.9123 37.1519 24.8869 37.1899 24.8622 37.2274C24.4307 37.6012 23.9601 37.9123 23.4307 38.13C22.7015 38.3881 21.9538 38.4399 21.1911 38.3322C20.7481 38.2037 20.304 38.0782 19.9031 37.8391C19.8247 37.7924 19.7516 37.7193 19.6444 37.7487C18.9497 37.1651 18.3881 36.4791 18.0137 35.6456C17.9901 35.5943 18.0321 35.5378 17.9803 35.4998Z" fill="#F3B401"/>
<path d="M41.5818 36.2547C41.265 36.7881 40.8503 37.2467 40.4407 37.7069C40.1492 38.0341 39.8244 38.3313 39.5133 38.6407C39.4465 38.7069 39.3894 38.7899 39.2806 38.7916C39.28 35.6476 39.2788 32.5036 39.2788 29.3602C39.2788 29.2766 39.2547 29.1856 39.3261 29.1148C39.7057 29.4304 40.0634 29.3435 40.2132 28.8821C40.3341 28.5105 40.4292 28.1298 40.5312 27.7525C40.8076 26.73 41.0824 25.707 41.3578 24.6839C41.4534 24.5416 41.4096 24.3498 41.5237 24.2139C41.5271 24.3573 41.5323 24.5007 41.5329 24.6447C41.5386 25.6787 41.5438 26.7133 41.549 27.7473C41.5571 27.7801 41.5651 27.8129 41.5726 27.8452C41.5813 27.8815 41.5899 27.9178 41.5985 27.9541C41.4782 28.0376 41.526 28.1637 41.526 28.272C41.5231 30.8331 41.5237 33.3947 41.5254 35.9558C41.5265 36.0572 41.4874 36.1695 41.5818 36.2547Z" fill="#E5FBFE"/>
<path d="M21.1375 30.1541C20.251 26.8356 19.3651 23.517 18.4774 20.1985C18.4705 20.1737 18.4457 20.1536 18.429 20.1311C18.3685 19.6063 18.1519 19.119 18.0598 18.6011C17.9918 18.221 18.1865 17.8252 18.5603 17.7135C19.4296 17.4537 20.3057 17.2158 21.1905 17.0142C21.1911 21.3915 21.1911 25.7687 21.1917 30.146C21.175 30.1587 21.1565 30.1616 21.1375 30.1541Z" fill="#B7DEF3"/>
<path d="M41.5499 27.747C41.5448 26.713 41.5396 25.6784 41.5338 24.6444C41.5332 24.501 41.528 24.3576 41.5246 24.2136C41.5989 23.9094 41.6542 23.5989 41.7504 23.3023C41.952 22.683 41.9111 22.1041 41.5234 21.5661C41.5275 21.0753 41.5315 20.5845 41.5361 20.0938C42.1911 20.9411 42.6738 21.8852 43.0759 22.8714C43.9537 25.0229 44.2711 27.2614 44.0505 29.5724C43.9278 30.8552 43.6358 32.1024 43.1548 33.3017C43.1381 33.3437 43.1087 33.38 43.0851 33.4192C42.929 32.8391 42.7746 32.2585 42.6168 31.6784C42.2786 30.4365 41.9388 29.1957 41.6 27.9538C41.5914 27.9175 41.5828 27.8812 41.5741 27.8449C41.5661 27.8126 41.558 27.7798 41.5499 27.747Z" fill="#3CCB93"/>
<path d="M39.3259 29.1146C39.2545 29.1855 39.2787 29.2765 39.2787 29.36C39.2787 32.504 39.2793 35.648 39.2804 38.7914C39.0183 39.0979 38.6946 39.3283 38.3559 39.5403C38.3559 39.2068 38.3565 38.8732 38.3559 38.5397C38.3553 38.1803 38.334 38.1595 37.9619 38.1572C37.2758 38.1526 36.5904 38.148 35.9043 38.1434C35.9135 38.0737 35.9233 38.0046 35.9325 37.9355C36.1439 37.7396 36.2228 37.455 36.398 37.235C36.9613 37.235 37.5247 37.2258 38.088 37.2396C38.3064 37.2448 38.3674 37.1716 38.3611 36.9608C38.3473 36.5029 38.3473 36.0438 38.3611 35.5858C38.3674 35.3779 38.2885 35.3243 38.095 35.33C37.7712 35.3393 37.4463 35.3249 37.122 35.3203C37.1762 35.0098 37.2465 34.7027 37.3628 34.4084C37.6105 34.4095 37.8594 34.3992 38.1059 34.4153C38.3144 34.4291 38.3674 34.3433 38.3605 34.1498C38.3484 33.788 38.3571 33.4257 38.3571 33.0633C38.3571 32.5743 38.3571 32.5743 37.8916 32.4522C37.9302 32.1532 38.0189 31.8675 38.1301 31.5887C38.2442 31.591 38.353 31.5668 38.3507 31.4291C38.3473 31.2344 38.4049 31.034 38.3092 30.8462C38.4003 30.481 38.4907 30.1152 38.5817 29.75C38.6232 29.6031 38.6629 29.4556 38.7073 29.3093C38.8882 28.7085 38.9947 28.087 39.2223 27.5C39.3213 27.595 39.2643 27.7172 39.2793 27.8266C39.3041 28.0029 39.2274 28.1889 39.3271 28.3583C39.258 28.6106 39.148 28.8629 39.3259 29.1146Z" fill="#CBEAFE"/>
<path d="M41.5991 27.9541C41.9384 29.1955 42.2777 30.4368 42.6158 31.6787C42.7736 32.2588 42.928 32.8395 43.0841 33.4195C42.9868 33.8302 42.78 34.1966 42.5916 34.567C42.2944 35.1522 41.9597 35.7173 41.5812 36.2553C41.4873 36.1701 41.5259 36.0572 41.5259 35.957C41.5236 33.3959 41.5236 30.8343 41.5265 28.2732C41.5271 28.1644 41.4793 28.0382 41.5991 27.9541Z" fill="#CBEAFE"/>
<path d="M23.4312 38.1326C23.9605 37.9149 24.4317 37.6038 24.8626 37.23C25.3862 37.2311 25.9098 37.2323 26.4334 37.2334C26.4329 37.56 26.4329 37.8872 26.4323 38.2138C25.8488 38.2138 25.2658 38.219 24.6823 38.2098C24.4934 38.2069 24.4047 38.2478 24.4116 38.4615C24.4254 38.9299 24.4254 39.3988 24.4116 39.8671C24.4052 40.0808 24.4939 40.1217 24.6829 40.1188C25.2658 40.1096 25.8493 40.1148 26.4329 40.1148C26.4329 40.3446 26.4202 40.575 26.4369 40.8037C26.453 41.0255 26.3856 41.1084 26.1506 41.0992C25.6823 41.0814 25.2128 41.0923 24.7434 41.0952C24.6518 41.0958 24.5492 41.0629 24.4744 41.1511C24.0936 41.0491 23.7451 40.8815 23.434 40.6378C23.4329 39.8031 23.4317 38.9679 23.4312 38.1326Z" fill="#B7DEF3"/>
<path d="M35.9037 38.1426C36.5897 38.1472 37.2752 38.1518 37.9613 38.1564C38.3334 38.1587 38.3547 38.1794 38.3553 38.5389C38.3559 38.8724 38.3553 39.2059 38.3553 39.5395C38.0966 39.7751 37.8299 39.9986 37.4912 40.1138C36.5431 40.1138 35.5949 40.1034 34.6473 40.1213C34.3726 40.1264 34.3058 40.036 34.3179 39.7797C34.3374 39.369 34.338 38.9559 34.3179 38.5452C34.3046 38.2849 34.3795 38.1673 34.6497 38.2111C34.7147 38.2215 34.7833 38.2123 34.8507 38.2123C34.8317 38.3056 34.8127 38.3983 34.7931 38.4917C34.7205 38.8361 34.8386 39.0809 35.1162 39.1616C35.3916 39.2411 35.6214 39.0884 35.728 38.7474C35.7908 38.5475 35.8455 38.3448 35.9037 38.1426Z" fill="#E5FBFE"/>
<path d="M23.4307 38.1323C23.4312 38.9676 23.4324 39.8028 23.433 40.6381C23.1478 40.577 22.9197 40.4008 22.6824 40.2504C22.1645 39.9232 21.6323 39.6133 21.187 39.183C21.1882 38.9002 21.1899 38.6173 21.191 38.3345C21.9537 38.4428 22.7014 38.3904 23.4307 38.1323Z" fill="#CBEAFE"/>
<path d="M21.1916 38.3345C21.1904 38.6173 21.1887 38.9002 21.1876 39.183C20.619 38.7642 20.1063 38.285 19.6455 37.7504C19.7521 37.721 19.8258 37.7942 19.9041 37.8408C20.3045 38.0805 20.7486 38.2061 21.1916 38.3345Z" fill="#3C118E"/>
<path d="M28.4419 18.0072C28.5663 18.0032 28.6907 17.9957 28.8152 17.9957C32.0669 17.9951 35.3186 17.9951 38.5703 17.9951C39.1838 17.9951 39.2777 18.0913 39.2783 18.7163C39.2783 19.2054 39.2783 19.695 39.2788 20.1841C39.0381 20.2814 38.8347 20.4254 38.6948 20.6495C38.5801 20.6524 38.4655 20.6558 38.3514 20.6587C37.011 20.6587 35.67 20.6587 34.3296 20.6587C34.0191 20.6587 33.708 20.6593 33.3975 20.6593C32.0571 20.6593 30.7161 20.6587 29.3756 20.6587C29.0646 20.6443 28.7535 20.6282 28.443 20.6679L28.4482 20.646C28.4459 19.767 28.4436 18.8868 28.4419 18.0072Z" fill="#3CCB93"/>
<path d="M24.7616 35.2761C23.3077 34.3498 22.6556 33.0157 22.7449 31.3055C22.8221 30.9437 22.8998 30.582 22.977 30.2202C23.1325 29.9328 23.2881 29.6448 23.4436 29.3573C23.7322 28.9881 24.049 28.6453 24.4159 28.3521C24.9021 28.0532 25.39 27.7571 25.9707 27.6753C25.6285 28.1695 25.6562 28.4247 26.0882 28.7698C26.087 28.7888 26.0865 28.8072 26.0853 28.8262C26.0375 28.8256 25.9949 28.8354 25.9689 28.8815L25.9695 28.8804C25.4154 28.9685 25.0219 29.3176 24.659 29.7052C23.7817 30.6419 23.6274 32.1286 24.2973 33.2196C24.9522 34.287 25.9384 34.7772 27.1786 34.6908C27.8704 34.643 28.4966 34.3838 28.9666 33.836C28.9856 33.836 29.0041 33.836 29.0231 33.8354C29.0605 34.3469 29.2811 34.5226 29.8935 34.5295C29.5127 35.0174 28.9781 35.2911 28.447 35.5699C27.7961 35.8118 27.1222 35.889 26.4326 35.8533C26.2276 35.7962 26.0219 35.7398 25.8059 35.7519C25.458 35.5935 25.1101 35.4351 24.7616 35.2761Z" fill="#F8CD01"/>
<path d="M38.1297 31.5885C38.018 31.8673 37.9293 32.153 37.8912 32.4519C37.677 33.0937 37.5093 33.7486 37.3619 34.4082C37.2455 34.7025 37.1752 35.009 37.1217 35.32C36.9321 35.9773 36.7132 36.6242 36.3982 37.2342C36.223 37.4542 36.1441 37.7382 35.9327 37.9341C35.6124 37.8989 35.31 37.7964 35.007 37.6956C34.9926 37.5424 34.9777 37.3891 34.9633 37.2359C34.916 36.5885 35.0612 35.9635 35.1804 35.335C35.2674 35.0291 35.3768 34.729 35.42 34.4116C35.6245 33.7872 35.7847 33.1501 35.935 32.5113C36.0203 32.1881 36.105 31.8655 36.1902 31.5424C36.3705 30.9087 36.56 30.278 36.6902 29.6311C36.7305 29.5182 36.7709 29.4059 36.8106 29.293C36.9644 29.7469 37.2121 30.0787 37.7478 30.1132C38.1015 30.1363 38.3405 29.9537 38.5813 29.7492C38.4903 30.1144 38.3999 30.4802 38.3089 30.8454C38.2495 31.0937 38.1395 31.3287 38.1297 31.5885Z" fill="#39CE97"/>
<path d="M24.4164 28.352C24.0495 28.6458 23.7327 28.988 23.4441 29.3572C23.4423 26.511 23.4406 23.6648 23.4395 20.8186C23.4395 20.7708 23.4492 20.7236 23.4544 20.6758C23.7747 20.6838 24.095 20.6913 24.4158 20.6994C24.4158 21.3872 24.4216 22.075 24.413 22.7622C24.4106 22.9477 24.4683 23.0133 24.6578 23.0099C25.2499 22.9995 25.8421 23.0053 26.4343 23.0047C26.4348 23.3129 26.4348 23.6216 26.4354 23.9298L26.4348 23.9304C25.8513 23.9298 25.2678 23.9379 24.6848 23.9235C24.4648 23.9177 24.406 23.9937 24.4124 24.204C24.4262 24.6625 24.4262 25.1222 24.4124 25.5807C24.406 25.7939 24.4942 25.8359 24.6831 25.8324C25.2666 25.8232 25.8502 25.8284 26.4331 25.8284C26.4331 26.155 26.4337 26.4816 26.4337 26.8088C25.8686 26.8083 25.3029 26.8244 24.739 26.8013C24.459 26.7898 24.4003 26.8935 24.4118 27.1452C24.4291 27.5467 24.4164 27.9494 24.4164 28.352Z" fill="#B7DEF3"/>
<path d="M26.0889 28.7697C25.6569 28.4247 25.6293 28.1695 25.9714 27.6752C26.1252 27.6372 26.2796 27.5998 26.4334 27.5618C27.1223 27.5295 27.7957 27.6044 28.4438 27.8544C28.7525 28.0237 29.0613 28.1925 29.3695 28.3619C29.5221 28.499 29.6742 28.6361 29.8268 28.7732C30.0791 29.0399 30.2813 29.3452 30.4973 29.6395C30.8101 30.2328 30.9904 30.8647 31.0469 31.5324C31.0221 31.8573 30.9979 32.1821 30.9731 32.507C30.7998 33.2057 30.5031 33.844 30.0486 34.4056C29.9973 34.4465 29.9455 34.488 29.8942 34.5289C29.2819 34.522 29.0619 34.3463 29.0238 33.8348C29.6909 33.0571 30.0261 32.181 29.8309 31.1435C29.6045 29.9408 28.6776 28.988 27.3965 28.7553C26.9518 28.6752 26.5244 28.7467 26.0889 28.7697Z" fill="#FEE502"/>
<path d="M29.3751 20.6597C30.7156 20.6597 32.0566 20.6597 33.397 20.6602C33.3987 21.359 33.393 22.0577 33.4062 22.7564C33.4103 22.9673 33.3285 23.0116 33.1372 23.0105C31.9696 23.0036 30.8014 23.0036 29.6338 23.0105C29.442 23.0116 29.3619 22.9661 29.3653 22.7559C29.3786 22.0571 29.3734 21.3584 29.3751 20.6597Z" fill="#E5FBFE"/>
<path d="M34.3295 20.6598C35.6699 20.6598 37.0109 20.6598 38.3514 20.6592C38.3928 20.9795 38.2897 21.3089 38.413 21.624C38.3375 22.0952 38.1872 22.5474 38.061 23.0054C36.913 23.0059 35.7644 23.0013 34.6164 23.0111C34.3986 23.0129 34.3134 22.9639 34.3191 22.726C34.3364 22.0376 34.3278 21.3487 34.3295 20.6598Z" fill="#E5FBFE"/>
<path d="M38.5808 29.7499C38.34 29.9549 38.101 30.137 37.7473 30.1139C37.2116 30.0794 36.9639 29.7476 36.8101 29.2936C36.8515 29.103 36.8924 28.9117 36.9339 28.7205C37.1563 28.0972 37.306 27.4544 37.4598 26.8127C37.5629 26.4889 37.6672 26.1658 37.7237 25.8294C37.8279 25.4803 37.9316 25.1318 38.0359 24.7827C38.4356 24.9503 38.8521 25.0592 39.2778 25.137C39.4414 25.2562 39.6303 25.1664 39.8043 25.1998C39.6142 25.9676 39.3607 26.7193 39.2208 27.4999C38.9932 28.0874 38.8867 28.709 38.7058 29.3092C38.662 29.4555 38.6223 29.603 38.5808 29.7499Z" fill="#167952"/>
<path d="M31.3558 37.2349C30.7711 37.2349 30.1864 37.2303 29.6023 37.2377C29.4307 37.24 29.3639 37.1876 29.3673 37.0091C29.3765 36.5298 29.3754 36.0505 29.3679 35.5719C29.3656 35.4071 29.4059 35.3299 29.5908 35.3311C30.789 35.3374 31.9865 35.3363 33.1847 35.3322C33.3431 35.3316 33.4071 35.3818 33.4047 35.5459C33.3973 36.0344 33.3961 36.5235 33.4053 37.0119C33.4088 37.1945 33.335 37.2395 33.1668 37.2377C32.5637 37.2303 31.9601 37.2349 31.3558 37.2349Z" fill="#E5FBFE"/>
<path d="M31.4154 23.9283C32.0006 23.9283 32.5853 23.9329 33.1705 23.9255C33.3434 23.9232 33.4084 23.9773 33.405 24.1553C33.3958 24.6248 33.3958 25.0954 33.4044 25.5649C33.4079 25.767 33.3243 25.8327 33.1296 25.8316C31.9597 25.8264 30.7898 25.8258 29.6199 25.8321C29.439 25.8333 29.3618 25.7872 29.3664 25.5914C29.3779 25.1121 29.3762 24.6323 29.367 24.153C29.3635 23.9727 29.4326 23.9226 29.6032 23.9249C30.2074 23.9329 30.8117 23.9283 31.4154 23.9283Z" fill="#E5FBFE"/>
<path d="M29.8268 28.7737C29.6741 28.6366 29.5221 28.4995 29.3694 28.3624C29.3694 27.9315 29.378 27.5001 29.3665 27.0698C29.3613 26.8739 29.4184 26.8025 29.624 26.8042C30.802 26.8129 31.9794 26.8117 33.1574 26.8048C33.3441 26.8037 33.4097 26.8607 33.4057 27.0502C33.3947 27.5191 33.3924 27.9886 33.4063 28.4575C33.4126 28.6677 33.3302 28.7138 33.1384 28.7121C32.1424 28.7046 31.1465 28.7075 30.1505 28.7109C30.0416 28.7121 29.9178 28.6666 29.8268 28.7737Z" fill="#E5FBFE"/>
<path d="M31.351 38.2134C31.9265 38.2134 32.5014 38.2226 33.0763 38.2087C33.2957 38.2036 33.3562 38.2779 33.3499 38.4893C33.3361 38.949 33.3389 39.4098 33.3487 39.8695C33.3528 40.0549 33.2952 40.12 33.1039 40.1189C31.9346 40.112 30.7646 40.1125 29.5953 40.1183C29.4161 40.1195 29.3637 40.0538 29.3666 39.8827C29.3747 39.4034 29.3775 38.9242 29.3654 38.4449C29.3603 38.2416 29.4507 38.2082 29.6247 38.2105C30.2007 38.218 30.7762 38.2134 31.351 38.2134Z" fill="#E5FBFE"/>
<path d="M38.0358 24.7832C37.9315 25.1323 37.8278 25.4808 37.7235 25.8299C36.6988 25.8299 35.6734 25.8201 34.6487 25.8368C34.3745 25.8414 34.3071 25.7527 34.3186 25.4952C34.3382 25.0649 34.3342 24.6329 34.3197 24.2026C34.3123 23.9895 34.3774 23.9221 34.5945 23.9244C35.6671 23.9359 36.7403 23.9313 37.8128 23.9324C37.7074 24.2625 37.8716 24.5229 38.0358 24.7832Z" fill="#E5FBFE"/>
<path d="M38.0355 24.7831C37.8714 24.5228 37.7072 24.263 37.8126 23.9323C37.895 23.6236 37.9773 23.3143 38.0597 23.0055C38.1864 22.5476 38.3362 22.0954 38.4117 21.6242C38.558 21.3148 38.5949 20.9733 38.6939 20.6501C38.8339 20.4266 39.0372 20.282 39.278 20.1847C39.3546 20.1847 39.4313 20.1841 39.5079 20.1841C39.8189 20.3425 40.1859 20.3304 40.5666 20.5228C40.1784 20.5268 40.0476 20.7492 39.9768 21.009C39.6801 22.1034 39.3996 23.2019 39.0977 24.2952C39.0079 24.6196 39.0332 24.8961 39.2769 25.138C38.8518 25.0596 38.4353 24.9502 38.0355 24.7831Z" fill="#3CCB93"/>
<path d="M37.4597 26.8127C37.3059 27.4544 37.1561 28.0973 36.9338 28.7205C36.1769 28.7171 35.4188 28.6992 34.6619 28.7159C34.3768 28.7223 34.3042 28.6289 34.318 28.3582C34.3399 27.9181 34.3301 27.4763 34.3209 27.0356C34.3169 26.8588 34.3808 26.8035 34.5542 26.8052C35.5231 26.8127 36.4914 26.811 37.4597 26.8127Z" fill="#E5FBFE"/>
<path d="M30.0483 34.4063C30.5034 33.8447 30.8001 33.2064 30.9729 32.5077C31.6929 32.5089 32.4124 32.5175 33.1319 32.506C33.3513 32.5025 33.4118 32.5751 33.4055 32.7871C33.3916 33.2473 33.394 33.7087 33.4049 34.169C33.4095 34.3579 33.345 34.4173 33.1572 34.4155C32.1215 34.4063 31.0846 34.4086 30.0483 34.4063Z" fill="#E5FBFE"/>
<path d="M31.0471 31.5328C30.9912 30.8652 30.8103 30.2333 30.4976 29.64C31.3893 29.6371 32.2815 29.6377 33.1732 29.6285C33.3489 29.6267 33.4083 29.6861 33.4048 29.8612C33.3962 30.3404 33.3933 30.8203 33.4054 31.2995C33.4106 31.5017 33.3219 31.5369 33.1467 31.5351C32.4474 31.5282 31.7476 31.5328 31.0471 31.5328Z" fill="#E5FBFE"/>
<path d="M28.4435 20.6689C28.4452 21.3659 28.4395 22.0629 28.4527 22.7593C28.4567 22.973 28.3692 23.0127 28.1814 23.0099C27.599 23.0007 27.0167 23.0058 26.4343 23.0053C26.4331 22.2363 26.432 21.4672 26.4303 20.6988L26.4233 20.6781C27.0985 20.6677 27.7736 20.6573 28.4487 20.647L28.4435 20.6689Z" fill="#E5FBFE"/>
<path d="M36.6895 29.632C36.5593 30.2783 36.3698 30.9097 36.1895 31.5433C35.6543 31.5399 35.1192 31.5289 34.584 31.5364C34.3876 31.5393 34.3139 31.4828 34.3196 31.2783C34.3329 30.8106 34.3312 30.3417 34.3202 29.8734C34.3162 29.685 34.3807 29.6257 34.5673 29.628C35.2747 29.6366 35.9821 29.632 36.6895 29.632Z" fill="#E5FBFE"/>
<path d="M26.4354 23.9302C26.9993 23.9296 27.5633 23.9354 28.1266 23.925C28.3173 23.9215 28.4026 23.9665 28.3962 24.1779C28.3824 24.6364 28.3824 25.0955 28.3962 25.5534C28.4026 25.7631 28.3444 25.8397 28.1243 25.834C27.561 25.8196 26.997 25.8288 26.4331 25.8282C26.4337 25.1957 26.4343 24.5627 26.4348 23.9302C26.4348 23.9307 26.4354 23.9302 26.4354 23.9302Z" fill="#E5FBFE"/>
<path d="M26.4331 38.2142C26.997 38.2142 27.5616 38.2194 28.1255 38.2102C28.3144 38.2067 28.4031 38.2487 28.3962 38.4619C28.3824 38.9302 28.3824 39.3991 28.3962 39.8674C28.4026 40.0805 28.3139 40.1226 28.1255 40.1191C27.5616 40.1093 26.997 40.1151 26.4331 40.1151C26.4331 39.4809 26.4331 38.8478 26.4331 38.2142Z" fill="#E5FBFE"/>
<path d="M26.4331 35.8537C27.1226 35.8889 27.7966 35.8117 28.4475 35.5703C28.4475 36.0398 28.4389 36.5098 28.4521 36.9793C28.4579 37.1838 28.3864 37.2425 28.1877 37.2391C27.603 37.2281 27.0184 37.2345 26.4337 37.2339C26.4331 36.7736 26.4331 36.3134 26.4331 35.8537Z" fill="#E5FBFE"/>
<path d="M35.9349 32.512C35.7846 33.1514 35.625 33.7879 35.4199 34.4123C35.1336 34.4123 34.8468 34.4054 34.5611 34.414C34.3963 34.4192 34.3174 34.376 34.3214 34.1917C34.3312 33.7049 34.3312 33.2182 34.3214 32.7314C34.318 32.5483 34.3952 32.5051 34.5605 32.5079C35.0184 32.516 35.4764 32.5114 35.9349 32.512Z" fill="#E5FBFE"/>
<path d="M28.4435 27.8548C27.7954 27.6043 27.122 27.53 26.4331 27.5622C26.4331 27.3111 26.4331 27.0605 26.4331 26.8093C26.9947 26.8088 27.557 26.8191 28.118 26.8036C28.3761 26.7961 28.4573 26.9061 28.4492 27.1411C28.4412 27.3785 28.4446 27.6169 28.4435 27.8548Z" fill="#E5FBFE"/>
<path d="M35.1796 35.3358C35.0603 35.9643 34.9152 36.5893 34.9624 37.2367C34.3236 37.2315 34.3236 37.2315 34.3236 36.5904C34.3236 36.2379 34.3282 35.8859 34.3218 35.5334C34.3195 35.3859 34.3748 35.3272 34.5223 35.3323C34.7412 35.3398 34.9607 35.3352 35.1796 35.3358Z" fill="#E5FBFE"/>
<path d="M35.0072 37.6958C35.3102 37.7972 35.6126 37.8991 35.9329 37.9343C35.9237 38.004 35.9139 38.0731 35.9047 38.1428C35.8465 38.3444 35.7918 38.5472 35.7296 38.7476C35.623 39.0887 35.3937 39.2419 35.1178 39.1618C34.8396 39.0812 34.7215 38.8364 34.7946 38.4919C34.8142 38.3991 34.8332 38.3058 34.8523 38.2125C34.9531 38.0558 34.9289 37.8605 35.0072 37.6958Z" fill="#167952"/>
<path d="M39.2781 25.137C39.0344 24.895 39.0091 24.6185 39.0989 24.2942C39.4008 23.2015 39.6813 22.1024 39.978 21.0079C40.0488 20.7476 40.1796 20.5252 40.5678 20.5218C40.1865 20.3299 39.8201 20.3415 39.5091 20.183C39.6047 19.8564 39.6997 19.5292 39.7953 19.2026C39.9768 19.5367 40.2107 19.7908 40.6369 19.7199C40.7648 19.6986 40.8875 19.6485 41.0125 19.611C41.0177 19.8559 40.925 20.0799 40.8593 20.3086C40.819 20.4492 40.8121 20.5523 40.9549 20.6542C41.1922 20.823 41.2625 21.0822 41.2573 21.3645C41.202 21.5673 41.1479 21.77 41.0914 21.9722C40.8944 22.679 40.6911 23.3841 40.5004 24.0926C40.3915 24.4976 40.5966 24.732 41.0148 24.7424C41.1404 24.7452 41.2337 24.6341 41.3581 24.6836C41.0828 25.7067 40.8086 26.7297 40.5315 27.7522C40.4296 28.13 40.3339 28.5102 40.2135 28.8818C40.0638 29.3432 39.7061 29.4301 39.3265 29.1145C39.1485 28.8628 39.2585 28.6104 39.3259 28.3581C39.6364 27.2349 39.9474 26.1116 40.2729 24.933C40.0886 25.0575 39.9624 25.1588 39.804 25.1997C39.6306 25.1669 39.4417 25.2562 39.2781 25.137Z" fill="#167952"/>
<path d="M28.4487 20.6471C27.7736 20.6575 27.0985 20.6678 26.4233 20.6782C26.4268 19.7871 26.4303 18.8954 26.4337 18.0037L26.4314 17.9795C27.1013 17.9887 27.7718 17.9979 28.4418 18.0071C28.4441 18.8873 28.4464 19.7675 28.4487 20.6471Z" fill="#24A271"/>
<path d="M41.3582 24.6839C41.2338 24.6349 41.1405 24.7461 41.0149 24.7426C40.5973 24.7322 40.3916 24.4978 40.5005 24.0928C40.6912 23.3843 40.8939 22.6793 41.0915 21.9725C41.148 21.7703 41.2021 21.5675 41.2574 21.3647C41.3461 21.4316 41.4348 21.499 41.5235 21.5664C41.9112 22.1044 41.9521 22.6827 41.7505 23.3025C41.6537 23.5992 41.5984 23.9097 41.5247 24.2138C41.4101 24.3498 41.4544 24.5416 41.3582 24.6839Z" fill="#167952"/>
<path d="M41.0121 19.6119C40.8871 19.6488 40.7638 19.6995 40.6365 19.7208C40.2102 19.7922 39.9764 19.5376 39.7949 19.2035C39.8082 19.0486 39.8606 18.9051 39.9326 18.7698C40.0824 18.4892 40.4096 18.3487 40.6814 18.4426C41.0207 18.5595 41.2183 18.8648 41.159 19.1966C41.1371 19.3182 41.0927 19.4351 41.0582 19.5543C41.0409 19.5745 41.0242 19.5941 41.0069 19.6142L41.0121 19.6119Z" fill="#3CCB93"/>
<path d="M41.0073 19.6126C41.0246 19.5925 41.0413 19.5729 41.0586 19.5527C41.0413 19.5729 41.0246 19.5931 41.0073 19.6126Z" fill="#6083F9"/>
<path d="M26.4334 18.0034C26.4299 18.8951 26.4265 19.7862 26.423 20.6779L26.4299 20.6987C25.7583 20.6987 25.0872 20.6993 24.4155 20.6993C24.0952 20.6912 23.7744 20.6837 23.4541 20.6756C23.4507 19.9493 23.4403 19.2235 23.446 18.4977C23.4489 18.1601 23.6148 17.9982 23.9397 17.9971C24.7709 17.9948 25.6021 18.0011 26.4334 18.0034Z" fill="#167952"/>
<path d="M22.9772 30.22C22.9 30.5818 22.8222 30.9435 22.745 31.3053C22.2254 31.2528 21.7064 31.1958 21.1874 31.3087C21.1506 31.3058 21.1131 31.303 21.0762 31.3001C20.7911 30.9516 20.7588 30.5893 21.0192 30.212C21.0584 30.1929 21.0981 30.1734 21.1373 30.1543C21.1569 30.1618 21.1747 30.159 21.1914 30.1463C21.7911 30.0691 22.3879 30.0547 22.9772 30.22Z" fill="#FEE502"/>
<path d="M21.0758 31.2998C21.1132 31.3027 21.1501 31.3056 21.1869 31.3084C21.112 31.5417 20.9099 31.6869 20.7877 31.8925C19.7624 33.6178 20.6668 35.8626 22.6921 36.3557C22.9001 36.4064 23.1207 36.4421 23.3448 36.4334C23.5516 36.4254 23.7578 36.415 23.9698 36.3897C23.6028 36.8297 23.123 37.0642 22.5827 37.1731C21.5625 37.3781 20.6483 37.097 19.9018 36.4133C19.3517 35.9087 19.0279 35.2497 18.9928 34.4628C18.9559 33.6391 19.1702 32.919 19.6898 32.2802C20.0078 31.8885 20.4237 31.6437 20.8695 31.4381C20.9479 31.4012 21.0412 31.3966 21.0758 31.2998Z" fill="#ED9D00"/>
<path d="M24.7617 35.2759C25.1096 35.4343 25.4581 35.5933 25.806 35.7517C25.6286 36.2782 25.3216 36.7217 24.9374 37.1163C24.8613 37.0305 24.7594 37.0725 24.6684 37.061C24.4143 37.0288 24.2542 36.8692 24.1609 36.6515C24.0756 36.4521 24.1338 36.2816 24.2899 36.1111C24.5076 35.8744 24.6684 35.591 24.7617 35.2759Z" fill="#FEE502"/>
<path d="M24.9372 37.1168C25.3214 36.7222 25.629 36.2786 25.8059 35.7521C26.0224 35.74 26.2275 35.7965 26.4326 35.8535C26.4326 36.3138 26.4326 36.7735 26.4332 37.2337C25.9095 37.2326 25.3859 37.2314 24.8623 37.2302C24.8877 37.1922 24.9124 37.1542 24.9372 37.1168Z" fill="#CBEAFE"/>
<path d="M41.5498 27.7471C41.5579 27.7799 41.5659 27.8127 41.5734 27.845C41.5659 27.8127 41.5579 27.7799 41.5498 27.7471Z" fill="#CBEAFE"/>
<path d="M36.3975 37.2345C36.7126 36.6245 36.9309 35.9776 37.121 35.3203C37.4453 35.3249 37.7702 35.3393 38.0939 35.3301C38.288 35.3243 38.3664 35.3779 38.36 35.5859C38.3462 36.0438 38.3462 36.5029 38.36 36.9609C38.3664 37.1717 38.3059 37.2454 38.087 37.2397C37.5248 37.2253 36.9608 37.2351 36.3975 37.2345Z" fill="#E5FBFE"/>
<path d="M37.3613 34.4084C37.5088 33.7482 37.6764 33.0939 37.8907 32.4521C38.3561 32.5748 38.3561 32.5748 38.3561 33.0633C38.3561 33.4256 38.3475 33.788 38.3596 34.1497C38.3659 34.3433 38.3129 34.4291 38.105 34.4153C37.8579 34.3991 37.6096 34.4095 37.3613 34.4084Z" fill="#E5FBFE"/>
<path d="M39.8042 25.1998C39.9626 25.1595 40.0888 25.0575 40.2731 24.9331C39.9471 26.1117 39.6366 27.2349 39.3255 28.3582C39.2253 28.1883 39.3025 28.0028 39.2777 27.8265C39.2628 27.7171 39.3198 27.595 39.2207 27.4999C39.3607 26.7194 39.6141 25.9677 39.8042 25.1998Z" fill="#E5FBFE"/>
<path d="M38.1299 31.5887C38.1397 31.3295 38.2503 31.0939 38.3085 30.8462C38.4047 31.0346 38.347 31.235 38.3499 31.4291C38.3522 31.5668 38.2439 31.591 38.1299 31.5887Z" fill="#E5FBFE"/>
<path d="M26.4328 38.2142C26.4328 38.8479 26.4328 39.4815 26.4328 40.1146C25.8492 40.1146 25.2663 40.1094 24.6828 40.1186C24.4944 40.1215 24.4051 40.0806 24.4114 39.8669C24.4253 39.3985 24.4253 38.9297 24.4114 38.4613C24.4051 38.2476 24.4938 38.2067 24.6822 38.2096C25.2657 38.2194 25.8492 38.2136 26.4328 38.2142Z" fill="#CBEAFE"/>
<path d="M38.6944 20.6499C38.5953 20.9731 38.559 21.3146 38.4121 21.624C38.2889 21.3089 38.392 20.9794 38.3505 20.6591C38.4657 20.6562 38.5804 20.6528 38.6944 20.6499Z" fill="#CBEAFE"/>
<path d="M26.089 28.7695C26.5245 28.7464 26.9519 28.675 27.3966 28.7557C28.6777 28.989 29.6046 29.9411 29.831 31.1439C30.0262 32.1813 29.6904 33.0575 29.0239 33.8351C29.0049 33.8357 28.9865 33.8357 28.9675 33.8357C28.5032 33.9037 28.0349 33.9411 27.5769 33.8213C25.483 33.2729 24.6178 30.8864 25.8483 29.156C25.9099 29.0696 25.9894 28.9987 25.9704 28.8801L25.9698 28.8812C26.0176 28.8812 26.0602 28.872 26.0862 28.8259C26.0873 28.8075 26.0879 28.7885 26.089 28.7695Z" fill="#F3B401"/>
<path d="M25.971 28.8809C25.99 28.9995 25.9105 29.0704 25.8489 29.1568C24.6185 30.8866 25.4837 33.2737 27.5776 33.8221C28.0355 33.9419 28.5038 33.9045 28.9681 33.8365C28.4975 34.3843 27.8719 34.6435 27.1801 34.6913C25.9399 34.7777 24.9537 34.2875 24.2988 33.2201C23.6294 32.1291 23.7838 30.6424 24.6605 29.7057C25.0234 29.3181 25.4169 28.969 25.971 28.8809Z" fill="#ED9D00"/>
<path d="M26.4334 26.8095C26.4334 27.0607 26.4334 27.3113 26.4334 27.5624C26.2796 27.6004 26.1252 27.6379 25.9714 27.6759C25.3902 27.7571 24.9029 28.0538 24.4167 28.3527C24.4167 27.9507 24.4299 27.548 24.4115 27.1465C24.4 26.8948 24.4587 26.7911 24.7387 26.8026C25.3026 26.8251 25.8683 26.809 26.4334 26.8095Z" fill="#CBEAFE"/>
<path d="M26.0866 28.8262C26.0612 28.8723 26.018 28.8815 25.9702 28.8815C25.9956 28.8354 26.0388 28.8262 26.0866 28.8262Z" fill="#ED9D00"/>
<path d="M24.4155 20.6993C25.0872 20.6993 25.7583 20.6987 26.4299 20.6987C26.4311 21.4677 26.4322 22.2367 26.4339 23.0052C25.8418 23.0058 25.2496 23 24.6575 23.0104C24.4679 23.0138 24.4109 22.9481 24.4126 22.7627C24.4213 22.0749 24.4155 21.3871 24.4155 20.6993Z" fill="#CBEAFE"/>
<path d="M26.4345 23.931C26.434 24.5635 26.4334 25.1965 26.4328 25.829C25.8493 25.829 25.2658 25.8238 24.6828 25.8331C24.4939 25.8359 24.4057 25.7945 24.4121 25.5813C24.4265 25.1228 24.4259 24.6631 24.4121 24.2046C24.4057 23.9944 24.4645 23.9189 24.6845 23.9241C25.2675 23.9385 25.851 23.9298 26.4345 23.931Z" fill="#CBEAFE"/>
<path d="M245.093 20.3037L243 22.4187L249.799 29.3037L243 36.1887L245.093 38.3037L254 29.3037L245.093 20.3037Z" fill="#3CCB93"/>
</svg>
