<svg width="210" height="49" viewBox="0 0 210 49" fill="none" xmlns="http://www.w3.org/2000/svg">
<rect width="210" height="49" rx="10" fill="#3CCB93"/>
<path d="M75.1426 18.2031H79.915C80.8936 18.2031 81.7344 18.3496 82.4375 18.6426C83.1465 18.9355 83.6914 19.3691 84.0723 19.9434C84.4531 20.5176 84.6436 21.2236 84.6436 22.0615C84.6436 22.7471 84.5264 23.3359 84.292 23.8281C84.0635 24.3145 83.7383 24.7217 83.3164 25.0498C82.9004 25.3721 82.4111 25.6299 81.8486 25.8232L81.0137 26.2627H76.8652L76.8477 24.2061H79.9326C80.3955 24.2061 80.7793 24.124 81.084 23.96C81.3887 23.7959 81.6172 23.5674 81.7695 23.2744C81.9277 22.9814 82.0068 22.6416 82.0068 22.2549C82.0068 21.8447 81.9307 21.4902 81.7783 21.1914C81.626 20.8926 81.3945 20.6641 81.084 20.5059C80.7734 20.3477 80.3838 20.2686 79.915 20.2686H77.7793V31H75.1426V18.2031ZM82.2969 31L79.3789 25.2959L82.165 25.2783L85.1182 30.877V31H82.2969ZM92.1406 28.7236V21.4902H94.6719V31H92.29L92.1406 28.7236ZM92.4219 26.7725L93.1689 26.7549C93.1689 27.3877 93.0957 27.9766 92.9492 28.5215C92.8027 29.0605 92.583 29.5293 92.29 29.9277C91.9971 30.3203 91.6279 30.6279 91.1826 30.8506C90.7373 31.0674 90.2129 31.1758 89.6094 31.1758C89.1465 31.1758 88.7188 31.1113 88.3262 30.9824C87.9395 30.8477 87.6055 30.6396 87.3242 30.3584C87.0488 30.0713 86.832 29.7051 86.6738 29.2598C86.5215 28.8086 86.4453 28.2666 86.4453 27.6338V21.4902H88.9766V27.6514C88.9766 27.9326 89.0088 28.1699 89.0732 28.3633C89.1436 28.5566 89.2402 28.7148 89.3633 28.8379C89.4863 28.9609 89.6299 29.0488 89.7939 29.1016C89.9639 29.1543 90.1514 29.1807 90.3564 29.1807C90.8779 29.1807 91.2881 29.0752 91.5869 28.8643C91.8916 28.6533 92.1055 28.3662 92.2285 28.0029C92.3574 27.6338 92.4219 27.2236 92.4219 26.7725ZM99.084 23.5205V31H96.5527V21.4902H98.9258L99.084 23.5205ZM98.7148 25.9111H98.0293C98.0293 25.208 98.1201 24.5752 98.3018 24.0127C98.4834 23.4443 98.7383 22.9609 99.0664 22.5625C99.3945 22.1582 99.7842 21.8506 100.235 21.6396C100.692 21.4229 101.202 21.3145 101.765 21.3145C102.21 21.3145 102.617 21.3789 102.986 21.5078C103.355 21.6367 103.672 21.8418 103.936 22.123C104.205 22.4043 104.41 22.7764 104.551 23.2393C104.697 23.7021 104.771 24.2676 104.771 24.9355V31H102.222V24.9268C102.222 24.5049 102.163 24.1768 102.046 23.9424C101.929 23.708 101.756 23.5439 101.527 23.4502C101.305 23.3506 101.029 23.3008 100.701 23.3008C100.361 23.3008 100.065 23.3682 99.8135 23.5029C99.5674 23.6377 99.3623 23.8252 99.1982 24.0654C99.04 24.2998 98.9199 24.5752 98.8379 24.8916C98.7559 25.208 98.7148 25.5479 98.7148 25.9111ZM116.319 26.4385H113.059V24.3818H116.319C116.823 24.3818 117.233 24.2998 117.55 24.1357C117.866 23.9658 118.098 23.7314 118.244 23.4326C118.391 23.1338 118.464 22.7969 118.464 22.4219C118.464 22.041 118.391 21.6865 118.244 21.3584C118.098 21.0303 117.866 20.7666 117.55 20.5674C117.233 20.3682 116.823 20.2686 116.319 20.2686H113.973V31H111.336V18.2031H116.319C117.321 18.2031 118.18 18.3848 118.895 18.748C119.615 19.1055 120.166 19.6006 120.547 20.2334C120.928 20.8662 121.118 21.5898 121.118 22.4043C121.118 23.2305 120.928 23.9453 120.547 24.5488C120.166 25.1523 119.615 25.6182 118.895 25.9463C118.18 26.2744 117.321 26.4385 116.319 26.4385ZM127.807 28.8555V24.6191C127.807 24.3145 127.757 24.0537 127.657 23.8369C127.558 23.6143 127.402 23.4414 127.191 23.3184C126.986 23.1953 126.72 23.1338 126.392 23.1338C126.11 23.1338 125.867 23.1836 125.662 23.2832C125.457 23.377 125.299 23.5146 125.188 23.6963C125.076 23.8721 125.021 24.0801 125.021 24.3203H122.489C122.489 23.916 122.583 23.5322 122.771 23.1689C122.958 22.8057 123.23 22.4863 123.588 22.2109C123.945 21.9297 124.37 21.71 124.862 21.5518C125.36 21.3936 125.917 21.3145 126.532 21.3145C127.271 21.3145 127.927 21.4375 128.501 21.6836C129.075 21.9297 129.526 22.2988 129.854 22.791C130.188 23.2832 130.355 23.8984 130.355 24.6367V28.7061C130.355 29.2275 130.388 29.6553 130.452 29.9893C130.517 30.3174 130.61 30.6045 130.733 30.8506V31H128.176C128.053 30.7422 127.959 30.4199 127.895 30.0332C127.836 29.6406 127.807 29.248 127.807 28.8555ZM128.141 25.208L128.158 26.6406H126.743C126.409 26.6406 126.119 26.6787 125.873 26.7549C125.627 26.8311 125.425 26.9395 125.267 27.0801C125.108 27.2148 124.991 27.373 124.915 27.5547C124.845 27.7363 124.81 27.9355 124.81 28.1523C124.81 28.3691 124.859 28.5654 124.959 28.7412C125.059 28.9111 125.202 29.0459 125.39 29.1455C125.577 29.2393 125.797 29.2861 126.049 29.2861C126.43 29.2861 126.761 29.21 127.042 29.0576C127.323 28.9053 127.54 28.7178 127.692 28.4951C127.851 28.2725 127.933 28.0615 127.938 27.8623L128.606 28.9346C128.513 29.1748 128.384 29.4238 128.22 29.6816C128.062 29.9395 127.859 30.1826 127.613 30.4111C127.367 30.6338 127.071 30.8184 126.726 30.9648C126.38 31.1055 125.97 31.1758 125.495 31.1758C124.892 31.1758 124.344 31.0557 123.852 30.8154C123.365 30.5693 122.979 30.2324 122.691 29.8047C122.41 29.3711 122.27 28.8789 122.27 28.3281C122.27 27.8301 122.363 27.3877 122.551 27.001C122.738 26.6143 123.014 26.2891 123.377 26.0254C123.746 25.7559 124.206 25.5537 124.757 25.4189C125.308 25.2783 125.946 25.208 126.673 25.208H128.141ZM134.987 29.9277L137.51 21.4902H140.226L136.402 32.4326C136.32 32.6729 136.209 32.9307 136.068 33.2061C135.934 33.4814 135.749 33.7422 135.515 33.9883C135.286 34.2402 134.996 34.4453 134.645 34.6035C134.299 34.7617 133.874 34.8408 133.37 34.8408C133.13 34.8408 132.934 34.8262 132.781 34.7969C132.629 34.7676 132.447 34.7266 132.236 34.6738V32.8193C132.301 32.8193 132.368 32.8193 132.438 32.8193C132.509 32.8252 132.576 32.8281 132.641 32.8281C132.975 32.8281 133.247 32.79 133.458 32.7139C133.669 32.6377 133.839 32.5205 133.968 32.3623C134.097 32.21 134.199 32.0107 134.275 31.7646L134.987 29.9277ZM133.933 21.4902L135.998 28.3809L136.358 31.0615L134.636 31.2461L131.217 21.4902H133.933ZM143.768 23.5645V31H141.236V21.4902H143.618L143.768 23.5645ZM146.633 21.4287L146.589 23.7754C146.466 23.7578 146.316 23.7432 146.141 23.7314C145.971 23.7139 145.815 23.7051 145.675 23.7051C145.317 23.7051 145.007 23.752 144.743 23.8457C144.485 23.9336 144.269 24.0654 144.093 24.2412C143.923 24.417 143.794 24.6309 143.706 24.8828C143.624 25.1348 143.577 25.4219 143.565 25.7441L143.056 25.5859C143.056 24.9707 143.117 24.4053 143.24 23.8896C143.363 23.3682 143.542 22.9141 143.776 22.5273C144.017 22.1406 144.31 21.8418 144.655 21.6309C145.001 21.4199 145.396 21.3145 145.842 21.3145C145.982 21.3145 146.126 21.3262 146.272 21.3496C146.419 21.3672 146.539 21.3936 146.633 21.4287ZM147.16 26.3418V26.1572C147.16 25.46 147.26 24.8184 147.459 24.2324C147.658 23.6406 147.948 23.1279 148.329 22.6943C148.71 22.2607 149.179 21.9238 149.735 21.6836C150.292 21.4375 150.931 21.3145 151.651 21.3145C152.372 21.3145 153.014 21.4375 153.576 21.6836C154.139 21.9238 154.61 22.2607 154.991 22.6943C155.378 23.1279 155.671 23.6406 155.87 24.2324C156.069 24.8184 156.169 25.46 156.169 26.1572V26.3418C156.169 27.0332 156.069 27.6748 155.87 28.2666C155.671 28.8525 155.378 29.3652 154.991 29.8047C154.61 30.2383 154.142 30.5752 153.585 30.8154C153.028 31.0557 152.39 31.1758 151.669 31.1758C150.948 31.1758 150.307 31.0557 149.744 30.8154C149.188 30.5752 148.716 30.2383 148.329 29.8047C147.948 29.3652 147.658 28.8525 147.459 28.2666C147.26 27.6748 147.16 27.0332 147.16 26.3418ZM149.691 26.1572V26.3418C149.691 26.7402 149.727 27.1123 149.797 27.458C149.867 27.8037 149.979 28.1084 150.131 28.3721C150.289 28.6299 150.494 28.832 150.746 28.9785C150.998 29.125 151.306 29.1982 151.669 29.1982C152.021 29.1982 152.322 29.125 152.574 28.9785C152.826 28.832 153.028 28.6299 153.181 28.3721C153.333 28.1084 153.444 27.8037 153.515 27.458C153.591 27.1123 153.629 26.7402 153.629 26.3418V26.1572C153.629 25.7705 153.591 25.4072 153.515 25.0674C153.444 24.7217 153.33 24.417 153.172 24.1533C153.02 23.8838 152.817 23.6729 152.565 23.5205C152.313 23.3682 152.009 23.292 151.651 23.292C151.294 23.292 150.989 23.3682 150.737 23.5205C150.491 23.6729 150.289 23.8838 150.131 24.1533C149.979 24.417 149.867 24.7217 149.797 25.0674C149.727 25.4072 149.691 25.7705 149.691 26.1572ZM160.396 17.5V31H157.856V17.5H160.396ZM165.16 17.5V31H162.62V17.5H165.16Z" fill="white"/>
<path d="M47.1074 12.0876C41.508 12.9818 37.1821 17.7441 36.9668 23.5394H38.978C39.2044 18.4682 43.208 14.3629 48.2362 13.9753V13.4159V11.9618V10H47.1074V12.0876Z" fill="white"/>
<path d="M37.0876 25.8925C37.9812 31.4919 42.7435 35.8178 48.5394 36.0331V34.0219C43.4682 33.7954 39.3629 29.7919 38.9753 24.7637H38.4159H36.9618H35V25.8925H37.0876Z" fill="white"/>
<path d="M50.8925 35.9122C56.4919 35.0187 60.8178 30.2563 61.0331 24.4604H59.0219C58.7954 29.5316 54.7919 33.6369 49.7637 34.0246V34.584V36.0387V37.9999H50.8925V35.9122Z" fill="white"/>
<path d="M60.9127 22.1076C60.0186 16.5082 55.2562 12.1823 49.4609 11.967V13.9782C54.5321 14.2047 58.6374 18.2082 59.0251 23.2365H59.5845H61.0392H63.0003V22.1076H60.9127Z" fill="white"/>
<path d="M57.123 19.6194L56.5989 22.6217L55.5524 21.8353L51.0465 26.9041C51.1159 27.0529 51.1565 27.217 51.1565 27.3917C51.1565 28.0264 50.6401 28.5429 50.0053 28.5429C49.3706 28.5429 48.8542 28.0264 48.8542 27.3917C48.8542 27.3129 48.8624 27.2359 48.8777 27.1617L46.2518 25.3376C46.0753 25.4488 45.8671 25.5141 45.6442 25.5141C45.5742 25.5141 45.5059 25.5064 45.4401 25.4947L43.2795 28.3994C43.3912 28.5923 43.4453 28.8123 43.433 29.0394C43.3995 29.65 42.8953 30.1276 42.2848 30.1276C42.2636 30.1276 42.2424 30.127 42.2212 30.1264C42.1748 30.1235 42.1306 30.1135 42.0859 30.1053C43.7765 32.0188 46.2471 33.227 49.0012 33.227C54.0977 33.227 58.2283 29.0953 58.2283 24C58.2277 22.4147 57.8277 20.9229 57.123 19.6194Z" fill="white"/>
<path d="M56.9258 19.2741C55.3146 16.5782 52.3693 14.7729 49.0005 14.7729C43.9046 14.7729 39.7734 18.9041 39.7734 24C39.7734 25.7753 40.2764 27.4335 41.1452 28.8412C41.214 28.2665 41.6964 27.8265 42.2817 27.8265C42.3028 27.8265 42.324 27.8271 42.3458 27.8282C42.4152 27.8318 42.4834 27.8424 42.5493 27.8582L44.6811 24.9924C44.5629 24.8106 44.4928 24.5959 44.4928 24.3635C44.4928 23.7288 45.0093 23.2124 45.644 23.2124C46.2787 23.2124 46.7952 23.7294 46.7952 24.3635C46.7952 24.4424 46.787 24.5188 46.7717 24.5935L49.3976 26.4171C49.574 26.3065 49.7823 26.2412 50.0058 26.2412C50.1329 26.2412 50.254 26.2635 50.3681 26.3012L54.8234 21.2888L53.844 20.5529L56.9258 19.2741ZM43.1476 26.4959L42.4023 27.4977C42.3887 27.4965 42.3764 27.4959 42.3634 27.4953C42.3346 27.4941 42.3081 27.4929 42.2823 27.4929C41.8028 27.4929 41.3717 27.7247 41.1005 28.0871C41.0834 28.0535 41.0664 28.0206 41.0499 27.9871V22.0482H43.1476V26.4959ZM46.2164 22.9935C46.0405 22.92 45.847 22.8788 45.6446 22.8788C44.8264 22.8788 44.1605 23.5447 44.1605 24.3629C44.1605 24.57 44.204 24.7741 44.2881 24.9629L44.1181 25.1912V19.6194H46.2164V22.9935ZM49.2846 25.9324L49.1229 25.82L47.187 24.4753V18.0694H49.2846V25.9324ZM52.3528 23.5665L50.3358 25.8359L50.2552 25.9265V16.1729H52.3528V23.5665Z" fill="white"/>
</svg>
