<svg width="36" height="36" viewBox="0 0 36 36" fill="none" xmlns="http://www.w3.org/2000/svg">
<circle cx="18" cy="18" r="17.5" fill="#241F35" stroke="white"/>
<path d="M22.6055 23.125V25H13.0742V23.3887L17.7031 18.3398C18.2109 17.7669 18.6113 17.2721 18.9043 16.8555C19.1973 16.4388 19.4023 16.0645 19.5195 15.7324C19.6432 15.3939 19.7051 15.0651 19.7051 14.7461C19.7051 14.2969 19.6204 13.903 19.4512 13.5645C19.2884 13.2194 19.0475 12.9492 18.7285 12.7539C18.4095 12.5521 18.0221 12.4512 17.5664 12.4512C17.0391 12.4512 16.5964 12.5651 16.2383 12.793C15.8802 13.0208 15.61 13.3366 15.4277 13.7402C15.2454 14.1374 15.1543 14.5931 15.1543 15.1074H12.8008C12.8008 14.2806 12.9896 13.5254 13.3672 12.8418C13.7448 12.1517 14.2917 11.6048 15.0078 11.2012C15.724 10.791 16.5866 10.5859 17.5957 10.5859C18.5462 10.5859 19.3535 10.7454 20.0176 11.0645C20.6816 11.3835 21.1862 11.8359 21.5312 12.4219C21.8828 13.0078 22.0586 13.7012 22.0586 14.502C22.0586 14.9447 21.987 15.3841 21.8438 15.8203C21.7005 16.2565 21.4954 16.6927 21.2285 17.1289C20.9681 17.5586 20.6589 17.9915 20.3008 18.4277C19.9427 18.8574 19.5488 19.2936 19.1191 19.7363L16.043 23.125H22.6055Z" fill="white"/>
</svg>
