<svg width="36" height="36" viewBox="0 0 36 36" fill="none" xmlns="http://www.w3.org/2000/svg">
<circle cx="18" cy="18" r="17.5" fill="#241F35" stroke="white"/>
<path d="M20.1836 10.6934H20.4766V12.6172H20.3105C19.4707 12.6172 18.7448 12.7474 18.1328 13.0078C17.5273 13.2682 17.0293 13.6263 16.6387 14.082C16.248 14.5378 15.9551 15.0716 15.7598 15.6836C15.571 16.2891 15.4766 16.9336 15.4766 17.6172V19.8535C15.4766 20.4199 15.5384 20.9212 15.6621 21.3574C15.7858 21.7871 15.9583 22.1484 16.1797 22.4414C16.4076 22.7279 16.668 22.946 16.9609 23.0957C17.2539 23.2454 17.5697 23.3203 17.9082 23.3203C18.2598 23.3203 18.5788 23.2487 18.8652 23.1055C19.1517 22.9557 19.3958 22.7507 19.5977 22.4902C19.7995 22.2298 19.9525 21.9206 20.0566 21.5625C20.1608 21.2044 20.2129 20.8138 20.2129 20.3906C20.2129 19.987 20.1608 19.6094 20.0566 19.2578C19.959 18.8997 19.8125 18.5872 19.6172 18.3203C19.4219 18.0469 19.1777 17.8353 18.8848 17.6855C18.5983 17.5293 18.2663 17.4512 17.8887 17.4512C17.4199 17.4512 16.9935 17.5618 16.6094 17.7832C16.2318 18.0046 15.9258 18.2943 15.6914 18.6523C15.4635 19.0039 15.3398 19.3783 15.3203 19.7754L14.4219 19.4824C14.474 18.877 14.6074 18.3333 14.8223 17.8516C15.0436 17.3698 15.3333 16.9596 15.6914 16.6211C16.0495 16.2826 16.4629 16.0254 16.9316 15.8496C17.4069 15.6673 17.9277 15.5762 18.4941 15.5762C19.1842 15.5762 19.7832 15.7064 20.291 15.9668C20.7988 16.2272 21.2188 16.582 21.5508 17.0312C21.8893 17.474 22.14 17.9818 22.3027 18.5547C22.472 19.1211 22.5566 19.7135 22.5566 20.332C22.5566 21.0156 22.4525 21.6536 22.2441 22.2461C22.0358 22.832 21.7298 23.3464 21.3262 23.7891C20.929 24.2318 20.444 24.5768 19.8711 24.8242C19.3047 25.0716 18.6602 25.1953 17.9375 25.1953C17.1758 25.1953 16.4954 25.0488 15.8965 24.7559C15.304 24.4629 14.7995 24.0592 14.3828 23.5449C13.9727 23.0306 13.6602 22.4382 13.4453 21.7676C13.2305 21.097 13.123 20.3874 13.123 19.6387V18.6621C13.123 17.5814 13.2598 16.5625 13.5332 15.6055C13.8066 14.6419 14.2266 13.7923 14.793 13.0566C15.3659 12.321 16.0983 11.7448 16.9902 11.3281C17.8822 10.9049 18.9466 10.6934 20.1836 10.6934Z" fill="white"/>
</svg>
