<svg width="33" height="31" viewBox="0 0 33 31" fill="none" xmlns="http://www.w3.org/2000/svg">
<path d="M16.171 28.0918H10.0991C10.0991 29.5332 11.4653 30.7125 13.135 30.7125C14.8048 30.7125 16.171 29.5332 16.171 28.0918Z" fill="white"/>
<path d="M23.7612 24.1607H23.0022C21.9396 23.2435 20.7252 21.9332 20.7252 20.2297V16.2987C20.7252 12.6298 17.3857 9.74707 13.1354 9.74707C8.88511 9.74707 5.54559 12.6298 5.54559 16.2987V20.2297C5.54559 21.9332 4.33122 23.2435 3.26865 24.1607H2.50966C1.59888 24.1607 0.991699 24.6849 0.991699 25.4711C0.991699 26.2573 1.59888 26.7814 2.50966 26.7814H23.7612C24.6719 26.7814 25.2791 26.2573 25.2791 25.4711C25.2791 24.6849 24.6719 24.1607 23.7612 24.1607Z" fill="white"/>
<circle cx="23.4111" cy="9.34132" r="9.34132" fill="#FD0000"/>
<path d="M25.9548 11.5712V12.8027H20.5033V11.7518L23.0813 8.98775C23.3403 8.69949 23.5447 8.44589 23.6943 8.22695C23.8439 8.00436 23.9515 7.80549 24.0172 7.63034C24.0866 7.45155 24.1212 7.28187 24.1212 7.12132C24.1212 6.88048 24.0811 6.67432 24.0008 6.50282C23.9205 6.32767 23.8019 6.19266 23.645 6.09778C23.4918 6.00291 23.302 5.95548 23.0758 5.95548C22.835 5.95548 22.627 6.01386 22.4518 6.13063C22.2803 6.24739 22.149 6.40977 22.0577 6.61776C21.9702 6.82575 21.9264 7.06111 21.9264 7.32383H20.3446C20.3446 6.84947 20.4577 6.41524 20.6839 6.02116C20.9101 5.62342 21.2294 5.30779 21.6418 5.07425C22.0541 4.83707 22.543 4.71848 23.1086 4.71848C23.6669 4.71848 24.1376 4.8097 24.5208 4.99215C24.9076 5.17095 25.1995 5.43003 25.3965 5.76938C25.5972 6.10508 25.6976 6.50647 25.6976 6.97353C25.6976 7.23626 25.6556 7.49351 25.5717 7.74529C25.4878 7.99342 25.3673 8.24154 25.2104 8.48967C25.0572 8.73415 24.8711 8.98228 24.6521 9.23406C24.4332 9.48584 24.1905 9.74674 23.9242 10.0168L22.5394 11.5712H25.9548Z" fill="white"/>
</svg>
