<svg width="109" height="27" viewBox="0 0 109 27" fill="none" xmlns="http://www.w3.org/2000/svg">
<path d="M49.2111 18.801V21H41.1335V18.801H49.2111ZM41.907 4.91109V21H39.1335V4.91109H41.907ZM50.5813 15.1545V14.9004C50.5813 14.0385 50.7066 13.2392 50.957 12.5025C51.2075 11.7585 51.5685 11.1139 52.0399 10.5687C52.5188 10.0162 53.1008 9.58895 53.7859 9.28692C54.4783 8.97752 55.2592 8.82281 56.1285 8.82281C57.0051 8.82281 57.786 8.97752 58.4711 9.28692C59.1636 9.58895 59.7492 10.0162 60.2281 10.5687C60.7069 11.1139 61.0715 11.7585 61.322 12.5025C61.5725 13.2392 61.6977 14.0385 61.6977 14.9004V15.1545C61.6977 16.0164 61.5725 16.8157 61.322 17.5524C61.0715 18.289 60.7069 18.9336 60.2281 19.4861C59.7492 20.0313 59.1672 20.4585 58.4821 20.7679C57.797 21.07 57.0198 21.221 56.1506 21.221C55.2739 21.221 54.4894 21.07 53.7969 20.7679C53.1118 20.4585 52.5298 20.0313 52.051 19.4861C51.5722 18.9336 51.2075 18.289 50.957 17.5524C50.7066 16.8157 50.5813 16.0164 50.5813 15.1545ZM53.2444 14.9004V15.1545C53.2444 15.6923 53.2997 16.2006 53.4102 16.6794C53.5207 17.1583 53.6938 17.5782 53.9295 17.9391C54.1652 18.3001 54.4673 18.5837 54.8356 18.79C55.204 18.9963 55.6423 19.0994 56.1506 19.0994C56.6441 19.0994 57.0714 18.9963 57.4324 18.79C57.8007 18.5837 58.1028 18.3001 58.3385 17.9391C58.5742 17.5782 58.7473 17.1583 58.8578 16.6794C58.9757 16.2006 59.0346 15.6923 59.0346 15.1545V14.9004C59.0346 14.37 58.9757 13.869 58.8578 13.3975C58.7473 12.9187 58.5705 12.4951 58.3274 12.1268C58.0917 11.7585 57.7897 11.4712 57.4213 11.2649C57.0604 11.0512 56.6294 10.9444 56.1285 10.9444C55.6275 10.9444 55.1929 11.0512 54.8246 11.2649C54.4636 11.4712 54.1652 11.7585 53.9295 12.1268C53.6938 12.4951 53.5207 12.9187 53.4102 13.3975C53.2997 13.869 53.2444 14.37 53.2444 14.9004ZM71.5875 9.04382H74.0075V20.6685C74.0075 21.744 73.7791 22.6575 73.3224 23.4089C72.8657 24.1603 72.2284 24.7312 71.4107 25.1217C70.593 25.5195 69.6464 25.7184 68.5709 25.7184C68.1141 25.7184 67.6058 25.6521 67.046 25.5195C66.4934 25.3869 65.9557 25.1732 65.4326 24.8786C64.917 24.5913 64.486 24.2119 64.1398 23.7404L65.3884 22.1713C65.8157 22.6796 66.2872 23.0516 66.8029 23.2874C67.3185 23.5231 67.86 23.641 68.4272 23.641C69.0387 23.641 69.558 23.5268 69.9853 23.2984C70.4199 23.0774 70.7551 22.7496 70.9908 22.315C71.2266 21.8803 71.3444 21.3499 71.3444 20.7237V11.7511L71.5875 9.04382ZM63.4657 15.1545V14.9225C63.4657 14.0164 63.5762 13.1913 63.7972 12.4472C64.0182 11.6958 64.335 11.0512 64.7475 10.5135C65.1601 9.96834 65.661 9.55212 66.2503 9.26482C66.8397 8.97015 67.5064 8.82281 68.2504 8.82281C69.0239 8.82281 69.6832 8.96278 70.2284 9.24272C70.7809 9.52265 71.2413 9.92414 71.6096 10.4472C71.978 10.9628 72.2653 11.5817 72.4715 12.3036C72.6852 13.0182 72.8436 13.8138 72.9467 14.6904V15.4308C72.8509 16.2853 72.6889 17.0662 72.4605 17.7734C72.2321 18.4806 71.9301 19.092 71.5544 19.6077C71.1787 20.1234 70.7146 20.5212 70.1621 20.8011C69.6169 21.081 68.9723 21.221 68.2283 21.221C67.499 21.221 66.8397 21.07 66.2503 20.7679C65.6684 20.4659 65.1674 20.0423 64.7475 19.4972C64.335 18.9521 64.0182 18.3111 63.7972 17.5745C63.5762 16.8304 63.4657 16.0238 63.4657 15.1545ZM66.1288 14.9225V15.1545C66.1288 15.6996 66.1804 16.2079 66.2835 16.6794C66.394 17.1509 66.5597 17.5671 66.7808 17.9281C67.0091 18.2817 67.2964 18.5616 67.6427 18.7679C67.9963 18.9668 68.4125 19.0662 68.8913 19.0662C69.5175 19.0662 70.0295 18.9336 70.4273 18.6684C70.8324 18.4032 71.1418 18.0459 71.3555 17.5966C71.5765 17.1398 71.7312 16.6315 71.8196 16.0717V14.0716C71.7754 13.637 71.6833 13.2318 71.5433 12.8561C71.4107 12.4804 71.2302 12.1526 71.0019 11.8726C70.7735 11.5853 70.4862 11.3643 70.14 11.2096C69.7937 11.0476 69.3849 10.9665 68.9134 10.9665C68.4346 10.9665 68.0184 11.0697 67.6648 11.2759C67.3112 11.4822 67.0202 11.7658 66.7918 12.1268C66.5708 12.4878 66.405 12.9077 66.2945 13.3865C66.184 13.8653 66.1288 14.3773 66.1288 14.9225ZM76.2617 15.1545V14.9004C76.2617 14.0385 76.387 13.2392 76.6374 12.5025C76.8879 11.7585 77.2489 11.1139 77.7203 10.5687C78.1992 10.0162 78.7811 9.58895 79.4662 9.28692C80.1587 8.97752 80.9396 8.82281 81.8089 8.82281C82.6855 8.82281 83.4664 8.97752 84.1515 9.28692C84.8439 9.58895 85.4296 10.0162 85.9084 10.5687C86.3873 11.1139 86.7519 11.7585 87.0024 12.5025C87.2529 13.2392 87.3781 14.0385 87.3781 14.9004V15.1545C87.3781 16.0164 87.2529 16.8157 87.0024 17.5524C86.7519 18.289 86.3873 18.9336 85.9084 19.4861C85.4296 20.0313 84.8476 20.4585 84.1625 20.7679C83.4774 21.07 82.7002 21.221 81.831 21.221C80.9543 21.221 80.1698 21.07 79.4773 20.7679C78.7922 20.4585 78.2102 20.0313 77.7314 19.4861C77.2525 18.9336 76.8879 18.289 76.6374 17.5524C76.387 16.8157 76.2617 16.0164 76.2617 15.1545ZM78.9248 14.9004V15.1545C78.9248 15.6923 78.98 16.2006 79.0905 16.6794C79.201 17.1583 79.3742 17.5782 79.6099 17.9391C79.8456 18.3001 80.1477 18.5837 80.516 18.79C80.8843 18.9963 81.3227 19.0994 81.831 19.0994C82.3245 19.0994 82.7518 18.9963 83.1128 18.79C83.4811 18.5837 83.7831 18.3001 84.0189 17.9391C84.2546 17.5782 84.4277 17.1583 84.5382 16.6794C84.6561 16.2006 84.715 15.6923 84.715 15.1545V14.9004C84.715 14.37 84.6561 13.869 84.5382 13.3975C84.4277 12.9187 84.2509 12.4951 84.0078 12.1268C83.7721 11.7585 83.4701 11.4712 83.1017 11.2649C82.7407 11.0512 82.3098 10.9444 81.8089 10.9444C81.3079 10.9444 80.8733 11.0512 80.5049 11.2649C80.144 11.4712 79.8456 11.7585 79.6099 12.1268C79.3742 12.4951 79.201 12.9187 79.0905 13.3975C78.98 13.869 78.9248 14.37 78.9248 14.9004ZM96.8038 18.1822V9.04382H99.4779V21H96.9585L96.8038 18.1822ZM97.1795 15.696L98.0746 15.6739C98.0746 16.4768 97.9862 17.2172 97.8094 17.8949C97.6326 18.5653 97.36 19.151 96.9917 19.6519C96.6233 20.1455 96.1519 20.5322 95.5773 20.8121C95.0026 21.0847 94.3139 21.221 93.5109 21.221C92.9289 21.221 92.3948 21.1363 91.9086 20.9668C91.4224 20.7974 91.0025 20.5359 90.6489 20.1823C90.3027 19.8287 90.0338 19.3683 89.8423 18.801C89.6507 18.2338 89.555 17.5561 89.555 16.7678V9.04382H92.218V16.7899C92.218 17.2246 92.2696 17.5892 92.3727 17.8839C92.4759 18.1712 92.6158 18.4032 92.7926 18.58C92.9694 18.7568 93.1757 18.8821 93.4114 18.9557C93.6472 19.0294 93.8976 19.0662 94.1628 19.0662C94.9216 19.0662 95.5183 18.9189 95.953 18.6242C96.395 18.3222 96.708 17.917 96.8922 17.4087C97.0837 16.9004 97.1795 16.3295 97.1795 15.696ZM107.688 9.04382V10.9886H100.948V9.04382H107.688ZM102.892 6.11555H105.555V17.696C105.555 18.0644 105.607 18.348 105.71 18.5469C105.821 18.7384 105.972 18.8673 106.163 18.9336C106.355 18.9999 106.579 19.0331 106.837 19.0331C107.021 19.0331 107.198 19.022 107.368 18.9999C107.537 18.9778 107.673 18.9557 107.777 18.9336L107.788 20.9668C107.567 21.0332 107.309 21.0921 107.014 21.1437C106.727 21.1952 106.395 21.221 106.02 21.221C105.408 21.221 104.867 21.1142 104.395 20.9005C103.924 20.6795 103.555 20.3223 103.29 19.8287C103.025 19.3351 102.892 18.6795 102.892 17.8618V6.11555Z" fill="white"/>
<path d="M17 9L15.59 10.41L18.17 13H8V15H18.17L15.59 17.58L17 19L22 14L17 9ZM4 7H12V5H4C2.9 5 2 5.9 2 7V21C2 22.1 2.9 23 4 23H12V21H4V7Z" fill="#3CCB93"/>
</svg>
