<svg width="426" height="40" viewBox="0 0 426 40" fill="none" xmlns="http://www.w3.org/2000/svg">
<path d="M91.68 9.2L84.48 29H79.65L72.42 9.2H76.8L80.97 21.8L82.11 25.7L83.22 21.83L87.42 9.2H91.68ZM94.6777 29V9.2H109.528V12.53H98.8177V17.45H107.248V20.63H98.8177V25.67H109.948V29H94.6777ZM122.392 9.2C124.632 9.2 126.392 9.74 127.672 10.82C128.952 11.9 129.592 13.35 129.592 15.17C129.592 17.11 128.952 18.6 127.672 19.64C126.392 20.66 124.642 21.17 122.422 21.17L122.002 21.41H117.742V29H113.662V9.2H122.392ZM121.912 18.26C123.072 18.26 123.932 18.03 124.492 17.57C125.072 17.09 125.362 16.36 125.362 15.38C125.362 14.4 125.072 13.68 124.492 13.22C123.932 12.74 123.072 12.5 121.912 12.5H117.742V18.26H121.912ZM124.342 19.13L130.762 29H126.112L120.802 20.33L124.342 19.13ZM141.703 9.2C144.803 9.2 147.203 10.06 148.903 11.78C150.603 13.48 151.453 15.92 151.453 19.1C151.453 22.26 150.603 24.7 148.903 26.42C147.203 28.14 144.803 29 141.703 29H134.053V9.2H141.703ZM141.493 25.7C143.373 25.7 144.783 25.14 145.723 24.02C146.683 22.88 147.163 21.24 147.163 19.1C147.163 16.96 146.683 15.33 145.723 14.21C144.783 13.07 143.373 12.5 141.493 12.5H138.193V25.7H141.493ZM155.615 29V9.2H170.465V12.53H159.755V17.45H168.185V20.63H159.755V25.67H170.885V29H155.615ZM183.769 29V9.2H192.439C194.839 9.2 196.609 9.67 197.749 10.61C198.889 11.55 199.459 12.88 199.459 14.6C199.459 15.66 199.139 16.6 198.499 17.42C197.859 18.24 196.919 18.76 195.679 18.98V19.01C197.059 19.21 198.119 19.73 198.859 20.57C199.599 21.41 199.969 22.41 199.969 23.57C199.969 25.27 199.349 26.6 198.109 27.56C196.889 28.52 195.099 29 192.739 29H183.769ZM187.789 25.88H192.379C193.499 25.88 194.329 25.65 194.869 25.19C195.409 24.73 195.679 24.09 195.679 23.27C195.679 22.43 195.409 21.79 194.869 21.35C194.329 20.91 193.499 20.69 192.379 20.69H187.789V25.88ZM187.789 17.51H191.899C194.079 17.51 195.169 16.66 195.169 14.96C195.169 13.26 194.079 12.41 191.899 12.41H187.789V17.51ZM212.476 8.9C214.436 8.9 216.126 9.31 217.546 10.13C218.966 10.95 220.056 12.12 220.816 13.64C221.596 15.16 221.986 16.98 221.986 19.1C221.986 21.22 221.596 23.04 220.816 24.56C220.056 26.08 218.966 27.25 217.546 28.07C216.126 28.89 214.436 29.3 212.476 29.3C210.516 29.3 208.816 28.89 207.376 28.07C205.956 27.25 204.856 26.08 204.076 24.56C203.316 23.04 202.936 21.22 202.936 19.1C202.936 16.98 203.316 15.16 204.076 13.64C204.856 12.12 205.956 10.95 207.376 10.13C208.816 9.31 210.516 8.9 212.476 8.9ZM212.476 12.29C211.356 12.29 210.406 12.55 209.626 13.07C208.846 13.59 208.246 14.36 207.826 15.38C207.426 16.38 207.226 17.62 207.226 19.1C207.226 20.56 207.426 21.8 207.826 22.82C208.246 23.84 208.846 24.61 209.626 25.13C210.406 25.65 211.356 25.91 212.476 25.91C213.576 25.91 214.516 25.65 215.296 25.13C216.076 24.61 216.666 23.84 217.066 22.82C217.486 21.8 217.696 20.56 217.696 19.1C217.696 17.62 217.486 16.38 217.066 15.38C216.666 14.36 216.076 13.59 215.296 13.07C214.516 12.55 213.576 12.29 212.476 12.29ZM234.712 8.9C236.672 8.9 238.362 9.31 239.782 10.13C241.202 10.95 242.292 12.12 243.052 13.64C243.832 15.16 244.222 16.98 244.222 19.1C244.222 21.22 243.832 23.04 243.052 24.56C242.292 26.08 241.202 27.25 239.782 28.07C238.362 28.89 236.672 29.3 234.712 29.3C232.752 29.3 231.052 28.89 229.612 28.07C228.192 27.25 227.092 26.08 226.312 24.56C225.552 23.04 225.172 21.22 225.172 19.1C225.172 16.98 225.552 15.16 226.312 13.64C227.092 12.12 228.192 10.95 229.612 10.13C231.052 9.31 232.752 8.9 234.712 8.9ZM234.712 12.29C233.592 12.29 232.642 12.55 231.862 13.07C231.082 13.59 230.482 14.36 230.062 15.38C229.662 16.38 229.462 17.62 229.462 19.1C229.462 20.56 229.662 21.8 230.062 22.82C230.482 23.84 231.082 24.61 231.862 25.13C232.642 25.65 233.592 25.91 234.712 25.91C235.812 25.91 236.752 25.65 237.532 25.13C238.312 24.61 238.902 23.84 239.302 22.82C239.722 21.8 239.932 20.56 239.932 19.1C239.932 17.62 239.722 16.38 239.302 15.38C238.902 14.36 238.312 13.59 237.532 13.07C236.752 12.55 235.812 12.29 234.712 12.29ZM265.468 9.2L256.408 19.49L256.078 19.16L251.128 24.77L250.498 20.93L260.668 9.2H265.468ZM252.538 9.2V29H248.398V9.2H252.538ZM257.548 16.04L265.708 29H260.968L254.368 18.35L257.548 16.04ZM275.345 8.9C277.145 8.9 278.725 9.21 280.085 9.83C281.445 10.45 282.605 11.37 283.565 12.59L281.255 15.26C280.435 14.22 279.535 13.46 278.555 12.98C277.595 12.48 276.475 12.23 275.195 12.23C274.355 12.23 273.655 12.34 273.095 12.56C272.555 12.78 272.155 13.07 271.895 13.43C271.655 13.79 271.535 14.19 271.535 14.63C271.535 15.17 271.745 15.63 272.165 16.01C272.585 16.37 273.305 16.67 274.325 16.91L278.015 17.75C279.975 18.19 281.375 18.85 282.215 19.73C283.075 20.59 283.505 21.71 283.505 23.09C283.505 24.39 283.165 25.51 282.485 26.45C281.805 27.37 280.855 28.08 279.635 28.58C278.415 29.06 277.015 29.3 275.435 29.3C274.055 29.3 272.785 29.14 271.625 28.82C270.485 28.48 269.465 28.02 268.565 27.44C267.665 26.86 266.915 26.19 266.315 25.43L268.655 22.64C269.115 23.28 269.685 23.85 270.365 24.35C271.045 24.85 271.815 25.25 272.675 25.55C273.555 25.83 274.475 25.97 275.435 25.97C276.255 25.97 276.945 25.88 277.505 25.7C278.085 25.5 278.515 25.23 278.795 24.89C279.095 24.53 279.245 24.1 279.245 23.6C279.245 23.08 279.065 22.64 278.705 22.28C278.365 21.9 277.725 21.61 276.785 21.41L272.765 20.51C271.605 20.23 270.605 19.87 269.765 19.43C268.945 18.97 268.315 18.39 267.875 17.69C267.455 16.97 267.245 16.12 267.245 15.14C267.245 13.96 267.565 12.9 268.205 11.96C268.845 11.02 269.765 10.28 270.965 9.74C272.185 9.18 273.645 8.9 275.345 8.9ZM302.522 19.4932H297.073L297.044 16.6514H301.717C302.518 16.6514 303.187 16.5391 303.724 16.3145C304.261 16.0898 304.666 15.7627 304.939 15.333C305.223 14.9033 305.364 14.3809 305.364 13.7656C305.364 13.082 305.232 12.5254 304.969 12.0957C304.715 11.666 304.314 11.3535 303.768 11.1582C303.221 10.9531 302.527 10.8506 301.688 10.8506H298.377V29H294.349V7.67188H301.688C302.898 7.67188 303.978 7.78906 304.925 8.02344C305.882 8.24805 306.692 8.59961 307.356 9.07812C308.021 9.55664 308.523 10.1572 308.865 10.8799C309.217 11.6025 309.393 12.4619 309.393 13.458C309.393 14.3369 309.188 15.1475 308.777 15.8896C308.377 16.6221 307.757 17.2178 306.917 17.6768C306.087 18.1357 305.032 18.3994 303.753 18.4678L302.522 19.4932ZM302.347 29H295.887L297.571 25.8359H302.347C303.147 25.8359 303.807 25.7041 304.324 25.4404C304.852 25.1768 305.242 24.8154 305.496 24.3564C305.76 23.8877 305.892 23.3506 305.892 22.7451C305.892 22.0811 305.774 21.5049 305.54 21.0166C305.315 20.5283 304.954 20.1523 304.456 19.8887C303.968 19.625 303.323 19.4932 302.522 19.4932H298.333L298.362 16.6514H303.694L304.617 17.75C305.848 17.7598 306.849 18.0039 307.62 18.4824C308.401 18.9609 308.978 19.5762 309.349 20.3281C309.72 21.0801 309.905 21.8906 309.905 22.7598C309.905 24.127 309.607 25.2744 309.012 26.2021C308.426 27.1299 307.566 27.8281 306.434 28.2969C305.311 28.7656 303.948 29 302.347 29ZM321.873 10.9092L315.794 29H311.531L319.5 7.67188H322.225L321.873 10.9092ZM326.956 29L320.848 10.9092L320.481 7.67188H323.221L331.233 29H326.956ZM326.678 21.0752V24.2539H315.237V21.0752H326.678ZM346.966 25.8359V29H336.243V25.8359H346.966ZM337.459 7.67188V29H333.431V7.67188H337.459ZM358.436 10.9092L352.356 29H348.094L356.062 7.67188H358.787L358.436 10.9092ZM363.519 29L357.41 10.9092L357.044 7.67188H359.783L367.796 29H363.519ZM363.24 21.0752V24.2539H351.8V21.0752H363.24ZM387.132 7.67188V29H383.089L374.021 14.2051V29H369.993V7.67188H374.021L383.118 22.4814V7.67188H387.132ZM403.714 21.9834H407.742C407.635 23.4092 407.239 24.6738 406.556 25.7773C405.872 26.8711 404.92 27.7305 403.699 28.3555C402.479 28.9805 400.999 29.293 399.261 29.293C397.923 29.293 396.717 29.0586 395.643 28.5898C394.578 28.1113 393.665 27.4326 392.903 26.5537C392.151 25.665 391.575 24.6006 391.175 23.3604C390.774 22.1104 390.574 20.709 390.574 19.1562V17.5303C390.574 15.9775 390.779 14.5762 391.189 13.3262C391.6 12.0762 392.186 11.0117 392.947 10.1328C393.719 9.24414 394.642 8.56055 395.716 8.08203C396.8 7.60352 398.011 7.36426 399.349 7.36426C401.087 7.36426 402.557 7.68652 403.758 8.33105C404.959 8.96582 405.892 9.83984 406.556 10.9531C407.22 12.0664 407.62 13.3457 407.757 14.791H403.729C403.65 13.8926 403.455 13.1309 403.143 12.5059C402.84 11.8809 402.381 11.4072 401.766 11.085C401.16 10.7529 400.354 10.5869 399.349 10.5869C398.567 10.5869 397.879 10.7334 397.283 11.0264C396.697 11.3193 396.209 11.7588 395.818 12.3447C395.428 12.9209 395.135 13.6436 394.939 14.5127C394.744 15.3721 394.646 16.3682 394.646 17.501V19.1562C394.646 20.2402 394.734 21.2119 394.91 22.0713C395.086 22.9307 395.359 23.6582 395.73 24.2539C396.102 24.8496 396.58 25.3037 397.166 25.6162C397.752 25.9287 398.45 26.085 399.261 26.085C400.247 26.085 401.048 25.9287 401.663 25.6162C402.288 25.3037 402.762 24.8447 403.084 24.2393C403.416 23.6338 403.626 22.8818 403.714 21.9834ZM424.998 25.8359V29H413.66V25.8359H424.998ZM414.891 7.67188V29H410.862V7.67188H414.891ZM423.519 16.4756V19.5664H413.66V16.4756H423.519ZM424.954 7.67188V10.8506H413.66V7.67188H424.954Z" fill="white"/>
<path d="M17.5477 29.3071C18.5226 27.2964 19.4975 25.4076 20.4114 23.4579C21.3863 21.4472 22.3612 19.3756 23.397 17.3649C26.4434 11.5157 32.9629 8.34736 39.5433 9.44409C45.9409 10.5408 50.9371 15.7198 51.8511 22.1784C53.1306 31.0132 46.0018 39.3605 36.7406 39.2387C32.2927 39.1777 28.6369 37.5326 25.5904 34.3034C25.1639 33.8159 25.0421 33.4503 25.3467 32.841C26.4434 30.6476 27.4183 28.3932 28.4541 26.1997C28.576 25.956 28.6978 25.7732 28.8806 25.4076C29.1853 26.1997 29.3681 26.8699 29.7336 27.5402C31.2569 30.4648 33.6941 32.049 36.9843 31.988C40.2135 31.9271 42.6507 30.3429 44.0521 27.3574C45.8191 23.5798 44.1739 19.071 40.4572 17.1821C36.6796 15.2933 31.988 16.6338 29.9774 20.3505C29.1243 21.8737 28.4541 23.5188 27.723 25.1639C25.5904 29.6727 23.4579 34.2424 21.3254 38.7512C21.2035 38.9949 20.8379 39.1777 20.5333 39.1777C18.4617 39.2387 16.451 39.2387 14.3794 39.1777C14.0747 39.1777 13.6482 38.8121 13.5264 38.4466C11.7594 34.6689 10.0534 30.8913 8.28643 27.1137C5.72738 21.5082 3.16834 15.9636 0.609296 10.358C0.426507 9.99246 0.304648 9.62687 0 9.01758C2.19346 9.13944 4.26508 9.07852 6.27576 9.44409C7.799 9.68781 8.83479 10.8455 9.50502 12.2468C10.8455 15.1715 12.2469 18.0352 13.5873 20.9598C14.745 23.4579 15.9636 25.956 17.1212 28.515C17.2431 28.8197 17.3649 29.0025 17.5477 29.3071Z" fill="white"/>
<path d="M21.8126 17.7914C21.8126 11.7594 21.8126 5.91017 21.8126 0C23.5187 0 24.981 0.487437 26.2605 1.52324C28.0274 2.98555 28.8804 4.87436 29.0023 7.18968C29.1242 9.01757 28.8195 10.2971 27.0526 11.3329C24.9809 12.4906 23.5187 14.5012 22.4219 16.6338C22.2391 16.9993 22.1173 17.304 21.8126 17.7914Z" fill="#3CCB93"/>
</svg>
