<svg width="1113" height="204" viewBox="0 0 1113 204" fill="none" xmlns="http://www.w3.org/2000/svg">
<line x1="749.25" y1="22.25" x2="749.25" y2="182.062" stroke="#3CCB93" stroke-width="0.5" stroke-linecap="round"/>
<path d="M836.205 91.1377H832.786V89.7578H836.205C836.867 89.7578 837.403 89.6523 837.813 89.4414C838.224 89.2305 838.522 88.9375 838.71 88.5625C838.903 88.1875 839 87.7598 839 87.2793C839 86.8398 838.903 86.4268 838.71 86.04C838.522 85.6533 838.224 85.3428 837.813 85.1084C837.403 84.8682 836.867 84.748 836.205 84.748H833.182V96.1562H831.485V83.3594H836.205C837.172 83.3594 837.989 83.5264 838.657 83.8604C839.325 84.1943 839.832 84.6572 840.178 85.249C840.523 85.835 840.696 86.5059 840.696 87.2617C840.696 88.082 840.523 88.7822 840.178 89.3623C839.832 89.9424 839.325 90.3848 838.657 90.6895C837.989 90.9883 837.172 91.1377 836.205 91.1377ZM844.221 88.1406V96.1562H842.595V86.6465H844.177L844.221 88.1406ZM847.191 86.5938L847.183 88.1055C847.048 88.0762 846.919 88.0586 846.796 88.0527C846.679 88.041 846.544 88.0352 846.392 88.0352C846.017 88.0352 845.686 88.0938 845.398 88.2109C845.111 88.3281 844.868 88.4922 844.669 88.7031C844.47 88.9141 844.312 89.166 844.194 89.459C844.083 89.7461 844.01 90.0625 843.975 90.4082L843.518 90.6719C843.518 90.0977 843.573 89.5586 843.685 89.0547C843.802 88.5508 843.98 88.1055 844.221 87.7188C844.461 87.3262 844.766 87.0215 845.135 86.8047C845.51 86.582 845.955 86.4707 846.471 86.4707C846.588 86.4707 846.723 86.4854 846.875 86.5146C847.027 86.5381 847.133 86.5645 847.191 86.5938ZM850.461 86.6465V96.1562H848.826V86.6465H850.461ZM848.703 84.124C848.703 83.8604 848.782 83.6377 848.94 83.4561C849.104 83.2744 849.345 83.1836 849.661 83.1836C849.972 83.1836 850.209 83.2744 850.373 83.4561C850.543 83.6377 850.628 83.8604 850.628 84.124C850.628 84.376 850.543 84.5928 850.373 84.7744C850.209 84.9502 849.972 85.0381 849.661 85.0381C849.345 85.0381 849.104 84.9502 848.94 84.7744C848.782 84.5928 848.703 84.376 848.703 84.124ZM854.697 88.6768V96.1562H853.071V86.6465H854.609L854.697 88.6768ZM854.311 91.041L853.634 91.0146C853.64 90.3643 853.736 89.7637 853.924 89.2129C854.111 88.6562 854.375 88.1729 854.715 87.7627C855.055 87.3525 855.459 87.0361 855.928 86.8135C856.402 86.585 856.927 86.4707 857.501 86.4707C857.97 86.4707 858.392 86.5352 858.767 86.6641C859.142 86.7871 859.461 86.9863 859.725 87.2617C859.994 87.5371 860.199 87.8945 860.34 88.334C860.48 88.7676 860.551 89.2979 860.551 89.9248V96.1562H858.916V89.9072C858.916 89.4092 858.843 89.0107 858.696 88.7119C858.55 88.4072 858.336 88.1875 858.055 88.0527C857.773 87.9121 857.428 87.8418 857.018 87.8418C856.613 87.8418 856.244 87.9268 855.91 88.0967C855.582 88.2666 855.298 88.501 855.058 88.7998C854.823 89.0986 854.639 89.4414 854.504 89.8281C854.375 90.209 854.311 90.6133 854.311 91.041ZM867.002 86.6465V87.8945H861.86V86.6465H867.002ZM863.601 84.335H865.227V93.8008C865.227 94.123 865.276 94.3662 865.376 94.5303C865.476 94.6943 865.604 94.8027 865.763 94.8555C865.921 94.9082 866.091 94.9346 866.272 94.9346C866.407 94.9346 866.548 94.9229 866.694 94.8994C866.847 94.8701 866.961 94.8467 867.037 94.8291L867.046 96.1562C866.917 96.1973 866.747 96.2354 866.536 96.2705C866.331 96.3115 866.082 96.332 865.789 96.332C865.391 96.332 865.024 96.2529 864.69 96.0947C864.356 95.9365 864.09 95.6729 863.891 95.3037C863.697 94.9287 863.601 94.4248 863.601 93.792V84.335ZM872.855 96.332C872.193 96.332 871.593 96.2207 871.054 95.998C870.521 95.7695 870.061 95.4502 869.674 95.04C869.293 94.6299 869 94.1436 868.795 93.5811C868.59 93.0186 868.487 92.4033 868.487 91.7354V91.3662C868.487 90.5928 868.602 89.9043 868.83 89.3008C869.059 88.6914 869.369 88.1758 869.762 87.7539C870.154 87.332 870.6 87.0127 871.098 86.7959C871.596 86.5791 872.111 86.4707 872.645 86.4707C873.324 86.4707 873.91 86.5879 874.402 86.8223C874.9 87.0566 875.308 87.3848 875.624 87.8066C875.94 88.2227 876.175 88.7148 876.327 89.2832C876.479 89.8457 876.556 90.4609 876.556 91.1289V91.8584H869.454V90.5312H874.93V90.4082C874.906 89.9863 874.818 89.5762 874.666 89.1777C874.52 88.7793 874.285 88.4512 873.963 88.1934C873.641 87.9355 873.201 87.8066 872.645 87.8066C872.275 87.8066 871.936 87.8857 871.625 88.0439C871.314 88.1963 871.048 88.4248 870.825 88.7295C870.603 89.0342 870.43 89.4062 870.307 89.8457C870.184 90.2852 870.122 90.792 870.122 91.3662V91.7354C870.122 92.1865 870.184 92.6113 870.307 93.0098C870.436 93.4023 870.62 93.748 870.86 94.0469C871.106 94.3457 871.402 94.5801 871.748 94.75C872.1 94.9199 872.498 95.0049 872.943 95.0049C873.518 95.0049 874.004 94.8877 874.402 94.6533C874.801 94.4189 875.149 94.1055 875.448 93.7129L876.433 94.4951C876.228 94.8057 875.967 95.1016 875.65 95.3828C875.334 95.6641 874.944 95.8926 874.481 96.0684C874.024 96.2441 873.482 96.332 872.855 96.332ZM884.448 94.3105V82.6562H886.083V96.1562H884.589L884.448 94.3105ZM878.05 91.5068V91.3223C878.05 90.5957 878.138 89.9365 878.313 89.3447C878.495 88.7471 878.75 88.2344 879.078 87.8066C879.412 87.3789 879.808 87.0508 880.265 86.8223C880.728 86.5879 881.243 86.4707 881.812 86.4707C882.409 86.4707 882.931 86.5762 883.376 86.7871C883.827 86.9922 884.208 87.2939 884.519 87.6924C884.835 88.085 885.084 88.5596 885.266 89.1162C885.447 89.6729 885.573 90.3027 885.644 91.0059V91.8145C885.579 92.5117 885.453 93.1387 885.266 93.6953C885.084 94.252 884.835 94.7266 884.519 95.1191C884.208 95.5117 883.827 95.8135 883.376 96.0244C882.925 96.2295 882.397 96.332 881.794 96.332C881.237 96.332 880.728 96.2119 880.265 95.9717C879.808 95.7314 879.412 95.3945 879.078 94.9609C878.75 94.5273 878.495 94.0176 878.313 93.4316C878.138 92.8398 878.05 92.1982 878.05 91.5068ZM879.685 91.3223V91.5068C879.685 91.9814 879.731 92.4268 879.825 92.8428C879.925 93.2588 880.077 93.625 880.282 93.9414C880.487 94.2578 880.748 94.5068 881.064 94.6885C881.381 94.8643 881.759 94.9521 882.198 94.9521C882.737 94.9521 883.18 94.8379 883.525 94.6094C883.877 94.3809 884.158 94.0791 884.369 93.7041C884.58 93.3291 884.744 92.9219 884.861 92.4824V90.3643C884.791 90.042 884.688 89.7314 884.554 89.4326C884.425 89.1279 884.255 88.8584 884.044 88.624C883.839 88.3838 883.584 88.1934 883.279 88.0527C882.98 87.9121 882.626 87.8418 882.216 87.8418C881.771 87.8418 881.387 87.9355 881.064 88.123C880.748 88.3047 880.487 88.5566 880.282 88.8789C880.077 89.1953 879.925 89.5645 879.825 89.9863C879.731 90.4023 879.685 90.8477 879.685 91.3223ZM896.885 94.9961C897.271 94.9961 897.629 94.917 897.957 94.7588C898.285 94.6006 898.555 94.3838 898.766 94.1084C898.977 93.8271 899.097 93.5078 899.126 93.1504H900.673C900.644 93.7129 900.453 94.2373 900.102 94.7236C899.756 95.2041 899.302 95.5938 898.739 95.8926C898.177 96.1855 897.559 96.332 896.885 96.332C896.17 96.332 895.546 96.2061 895.013 95.9541C894.485 95.7021 894.046 95.3564 893.694 94.917C893.349 94.4775 893.088 93.9736 892.912 93.4053C892.742 92.8311 892.657 92.2246 892.657 91.5859V91.2168C892.657 90.5781 892.742 89.9746 892.912 89.4062C893.088 88.832 893.349 88.3252 893.694 87.8857C894.046 87.4463 894.485 87.1006 895.013 86.8486C895.546 86.5967 896.17 86.4707 896.885 86.4707C897.629 86.4707 898.279 86.623 898.836 86.9277C899.393 87.2266 899.829 87.6367 900.146 88.1582C900.468 88.6738 900.644 89.2598 900.673 89.916H899.126C899.097 89.5234 898.985 89.1689 898.792 88.8525C898.604 88.5361 898.347 88.2842 898.019 88.0967C897.696 87.9033 897.318 87.8066 896.885 87.8066C896.387 87.8066 895.968 87.9062 895.628 88.1055C895.294 88.2988 895.027 88.5625 894.828 88.8965C894.635 89.2246 894.494 89.5908 894.406 89.9951C894.324 90.3936 894.283 90.8008 894.283 91.2168V91.5859C894.283 92.002 894.324 92.4121 894.406 92.8164C894.488 93.2207 894.626 93.5869 894.819 93.915C895.019 94.2432 895.285 94.5068 895.619 94.7061C895.959 94.8994 896.381 94.9961 896.885 94.9961ZM904.127 82.6562V96.1562H902.501V82.6562H904.127ZM903.74 91.041L903.063 91.0146C903.069 90.3643 903.166 89.7637 903.354 89.2129C903.541 88.6562 903.805 88.1729 904.145 87.7627C904.484 87.3525 904.889 87.0361 905.357 86.8135C905.832 86.585 906.356 86.4707 906.931 86.4707C907.399 86.4707 907.821 86.5352 908.196 86.6641C908.571 86.7871 908.891 86.9863 909.154 87.2617C909.424 87.5371 909.629 87.8945 909.77 88.334C909.91 88.7676 909.98 89.2979 909.98 89.9248V96.1562H908.346V89.9072C908.346 89.4092 908.272 89.0107 908.126 88.7119C907.979 88.4072 907.766 88.1875 907.484 88.0527C907.203 87.9121 906.857 87.8418 906.447 87.8418C906.043 87.8418 905.674 87.9268 905.34 88.0967C905.012 88.2666 904.728 88.501 904.487 88.7998C904.253 89.0986 904.068 89.4414 903.934 89.8281C903.805 90.209 903.74 90.6133 903.74 91.041ZM916.361 96.332C915.699 96.332 915.099 96.2207 914.56 95.998C914.026 95.7695 913.566 95.4502 913.18 95.04C912.799 94.6299 912.506 94.1436 912.301 93.5811C912.096 93.0186 911.993 92.4033 911.993 91.7354V91.3662C911.993 90.5928 912.107 89.9043 912.336 89.3008C912.564 88.6914 912.875 88.1758 913.268 87.7539C913.66 87.332 914.105 87.0127 914.604 86.7959C915.102 86.5791 915.617 86.4707 916.15 86.4707C916.83 86.4707 917.416 86.5879 917.908 86.8223C918.406 87.0566 918.813 87.3848 919.13 87.8066C919.446 88.2227 919.681 88.7148 919.833 89.2832C919.985 89.8457 920.062 90.4609 920.062 91.1289V91.8584H912.96V90.5312H918.436V90.4082C918.412 89.9863 918.324 89.5762 918.172 89.1777C918.025 88.7793 917.791 88.4512 917.469 88.1934C917.146 87.9355 916.707 87.8066 916.15 87.8066C915.781 87.8066 915.441 87.8857 915.131 88.0439C914.82 88.1963 914.554 88.4248 914.331 88.7295C914.108 89.0342 913.936 89.4062 913.812 89.8457C913.689 90.2852 913.628 90.792 913.628 91.3662V91.7354C913.628 92.1865 913.689 92.6113 913.812 93.0098C913.941 93.4023 914.126 93.748 914.366 94.0469C914.612 94.3457 914.908 94.5801 915.254 94.75C915.605 94.9199 916.004 95.0049 916.449 95.0049C917.023 95.0049 917.51 94.8877 917.908 94.6533C918.307 94.4189 918.655 94.1055 918.954 93.7129L919.938 94.4951C919.733 94.8057 919.473 95.1016 919.156 95.3828C918.84 95.6641 918.45 95.8926 917.987 96.0684C917.53 96.2441 916.988 96.332 916.361 96.332ZM927.945 99.8125V88.4746L928.086 86.6465H929.58V99.8125H927.945ZM921.556 91.5068V91.3223C921.556 90.5957 921.641 89.9365 921.811 89.3447C921.98 88.7471 922.229 88.2344 922.558 87.8066C922.886 87.3789 923.281 87.0508 923.744 86.8223C924.213 86.5879 924.746 86.4707 925.344 86.4707C925.941 86.4707 926.466 86.5762 926.917 86.7871C927.374 86.9922 927.761 87.2939 928.077 87.6924C928.399 88.085 928.654 88.5596 928.842 89.1162C929.029 89.6729 929.158 90.3027 929.229 91.0059V91.8145C929.164 92.5117 929.038 93.1387 928.851 93.6953C928.663 94.252 928.408 94.7266 928.086 95.1191C927.77 95.5117 927.38 95.8135 926.917 96.0244C926.46 96.2295 925.93 96.332 925.326 96.332C924.74 96.332 924.213 96.2119 923.744 95.9717C923.281 95.7314 922.886 95.3945 922.558 94.9609C922.235 94.5273 921.986 94.0176 921.811 93.4316C921.641 92.8398 921.556 92.1982 921.556 91.5068ZM923.19 91.3223V91.5068C923.19 91.9814 923.24 92.4297 923.34 92.8516C923.439 93.2676 923.592 93.6367 923.797 93.959C924.008 94.2812 924.271 94.5361 924.588 94.7236C924.91 94.9053 925.291 94.9961 925.73 94.9961C926.27 94.9961 926.718 94.8789 927.075 94.6445C927.438 94.4102 927.729 94.1025 927.945 93.7217C928.162 93.335 928.329 92.9219 928.446 92.4824V90.3643C928.382 90.042 928.279 89.7285 928.139 89.4238C928.004 89.1191 927.828 88.8467 927.611 88.6064C927.395 88.3604 927.131 88.167 926.82 88.0264C926.516 87.8799 926.158 87.8066 925.748 87.8066C925.303 87.8066 924.919 87.9004 924.597 88.0879C924.274 88.2754 924.008 88.5332 923.797 88.8613C923.592 89.1836 923.439 89.5557 923.34 89.9775C923.24 90.3994 923.19 90.8477 923.19 91.3223ZM938.009 93.959V86.6465H939.644V96.1562H938.088L938.009 93.959ZM938.316 91.9551L938.993 91.9375C938.993 92.5703 938.926 93.1562 938.791 93.6953C938.662 94.2285 938.451 94.6914 938.158 95.084C937.865 95.4766 937.481 95.7842 937.007 96.0068C936.532 96.2236 935.955 96.332 935.275 96.332C934.812 96.332 934.388 96.2646 934.001 96.1299C933.62 95.9951 933.292 95.7871 933.017 95.5059C932.741 95.2246 932.527 94.8584 932.375 94.4072C932.229 93.9561 932.155 93.4141 932.155 92.7812V86.6465H933.781V92.7988C933.781 93.2266 933.828 93.5811 933.922 93.8623C934.021 94.1377 934.153 94.3574 934.317 94.5215C934.487 94.6797 934.675 94.791 934.88 94.8555C935.091 94.9199 935.308 94.9521 935.53 94.9521C936.222 94.9521 936.77 94.8203 937.174 94.5566C937.578 94.2871 937.868 93.9268 938.044 93.4756C938.226 93.0186 938.316 92.5117 938.316 91.9551ZM946.068 96.332C945.406 96.332 944.806 96.2207 944.267 95.998C943.733 95.7695 943.273 95.4502 942.887 95.04C942.506 94.6299 942.213 94.1436 942.008 93.5811C941.803 93.0186 941.7 92.4033 941.7 91.7354V91.3662C941.7 90.5928 941.814 89.9043 942.043 89.3008C942.271 88.6914 942.582 88.1758 942.975 87.7539C943.367 87.332 943.812 87.0127 944.311 86.7959C944.809 86.5791 945.324 86.4707 945.857 86.4707C946.537 86.4707 947.123 86.5879 947.615 86.8223C948.113 87.0566 948.521 87.3848 948.837 87.8066C949.153 88.2227 949.388 88.7148 949.54 89.2832C949.692 89.8457 949.769 90.4609 949.769 91.1289V91.8584H942.667V90.5312H948.143V90.4082C948.119 89.9863 948.031 89.5762 947.879 89.1777C947.732 88.7793 947.498 88.4512 947.176 88.1934C946.854 87.9355 946.414 87.8066 945.857 87.8066C945.488 87.8066 945.148 87.8857 944.838 88.0439C944.527 88.1963 944.261 88.4248 944.038 88.7295C943.815 89.0342 943.643 89.4062 943.52 89.8457C943.396 90.2852 943.335 90.792 943.335 91.3662V91.7354C943.335 92.1865 943.396 92.6113 943.52 93.0098C943.648 93.4023 943.833 93.748 944.073 94.0469C944.319 94.3457 944.615 94.5801 944.961 94.75C945.312 94.9199 945.711 95.0049 946.156 95.0049C946.73 95.0049 947.217 94.8877 947.615 94.6533C948.014 94.4189 948.362 94.1055 948.661 93.7129L949.646 94.4951C949.44 94.8057 949.18 95.1016 948.863 95.3828C948.547 95.6641 948.157 95.8926 947.694 96.0684C947.237 96.2441 946.695 96.332 946.068 96.332ZM958.558 96.1562H956.932V85.6445C956.932 84.959 957.055 84.3818 957.301 83.9131C957.553 83.4385 957.913 83.0811 958.382 82.8408C958.851 82.5947 959.407 82.4717 960.052 82.4717C960.239 82.4717 960.427 82.4834 960.614 82.5068C960.808 82.5303 960.995 82.5654 961.177 82.6123L961.089 83.9395C960.966 83.9102 960.825 83.8896 960.667 83.8779C960.515 83.8662 960.362 83.8604 960.21 83.8604C959.864 83.8604 959.565 83.9307 959.313 84.0713C959.067 84.2061 958.88 84.4053 958.751 84.6689C958.622 84.9326 958.558 85.2578 958.558 85.6445V96.1562ZM960.579 86.6465V87.8945H955.429V86.6465H960.579ZM961.959 91.5068V91.3047C961.959 90.6191 962.059 89.9834 962.258 89.3975C962.457 88.8057 962.744 88.293 963.119 87.8594C963.494 87.4199 963.948 87.0801 964.481 86.8398C965.015 86.5938 965.612 86.4707 966.274 86.4707C966.942 86.4707 967.543 86.5938 968.076 86.8398C968.615 87.0801 969.072 87.4199 969.447 87.8594C969.828 88.293 970.118 88.8057 970.317 89.3975C970.517 89.9834 970.616 90.6191 970.616 91.3047V91.5068C970.616 92.1924 970.517 92.8281 970.317 93.4141C970.118 94 969.828 94.5127 969.447 94.9521C969.072 95.3857 968.618 95.7256 968.085 95.9717C967.558 96.2119 966.96 96.332 966.292 96.332C965.624 96.332 965.023 96.2119 964.49 95.9717C963.957 95.7256 963.5 95.3857 963.119 94.9521C962.744 94.5127 962.457 94 962.258 93.4141C962.059 92.8281 961.959 92.1924 961.959 91.5068ZM963.585 91.3047V91.5068C963.585 91.9814 963.641 92.4297 963.752 92.8516C963.863 93.2676 964.03 93.6367 964.253 93.959C964.481 94.2812 964.766 94.5361 965.105 94.7236C965.445 94.9053 965.841 94.9961 966.292 94.9961C966.737 94.9961 967.127 94.9053 967.461 94.7236C967.801 94.5361 968.082 94.2812 968.305 93.959C968.527 93.6367 968.694 93.2676 968.806 92.8516C968.923 92.4297 968.981 91.9814 968.981 91.5068V91.3047C968.981 90.8359 968.923 90.3936 968.806 89.9775C968.694 89.5557 968.524 89.1836 968.296 88.8613C968.073 88.5332 967.792 88.2754 967.452 88.0879C967.118 87.9004 966.726 87.8066 966.274 87.8066C965.829 87.8066 965.437 87.9004 965.097 88.0879C964.763 88.2754 964.481 88.5332 964.253 88.8613C964.03 89.1836 963.863 89.5557 963.752 89.9775C963.641 90.3936 963.585 90.8359 963.585 91.3047ZM974.281 88.1406V96.1562H972.655V86.6465H974.237L974.281 88.1406ZM977.252 86.5938L977.243 88.1055C977.108 88.0762 976.979 88.0586 976.856 88.0527C976.739 88.041 976.604 88.0352 976.452 88.0352C976.077 88.0352 975.746 88.0938 975.459 88.2109C975.172 88.3281 974.929 88.4922 974.729 88.7031C974.53 88.9141 974.372 89.166 974.255 89.459C974.144 89.7461 974.07 90.0625 974.035 90.4082L973.578 90.6719C973.578 90.0977 973.634 89.5586 973.745 89.0547C973.862 88.5508 974.041 88.1055 974.281 87.7188C974.521 87.3262 974.826 87.0215 975.195 86.8047C975.57 86.582 976.016 86.4707 976.531 86.4707C976.648 86.4707 976.783 86.4854 976.936 86.5146C977.088 86.5381 977.193 86.5645 977.252 86.5938Z" fill="white"/>
<path d="M834.398 120.156H832.023L832.039 118.93H834.398C835.211 118.93 835.888 118.76 836.43 118.422C836.971 118.078 837.378 117.599 837.648 116.984C837.924 116.365 838.062 115.641 838.062 114.812V114.117C838.062 113.466 837.984 112.888 837.828 112.383C837.672 111.872 837.443 111.443 837.141 111.094C836.839 110.74 836.469 110.471 836.031 110.289C835.599 110.107 835.102 110.016 834.539 110.016H831.977V108.781H834.539C835.284 108.781 835.964 108.906 836.578 109.156C837.193 109.401 837.721 109.758 838.164 110.227C838.612 110.69 838.956 111.253 839.195 111.914C839.435 112.57 839.555 113.31 839.555 114.133V114.812C839.555 115.635 839.435 116.378 839.195 117.039C838.956 117.695 838.609 118.255 838.156 118.719C837.708 119.182 837.167 119.539 836.531 119.789C835.901 120.034 835.19 120.156 834.398 120.156ZM832.828 108.781V120.156H831.32V108.781H832.828ZM845.109 120.312C844.521 120.312 843.987 120.214 843.508 120.016C843.034 119.812 842.625 119.529 842.281 119.164C841.943 118.799 841.682 118.367 841.5 117.867C841.318 117.367 841.227 116.82 841.227 116.227V115.898C841.227 115.211 841.328 114.599 841.531 114.062C841.734 113.521 842.01 113.062 842.359 112.688C842.708 112.312 843.104 112.029 843.547 111.836C843.99 111.643 844.448 111.547 844.922 111.547C845.526 111.547 846.047 111.651 846.484 111.859C846.927 112.068 847.289 112.359 847.57 112.734C847.852 113.104 848.06 113.542 848.195 114.047C848.331 114.547 848.398 115.094 848.398 115.688V116.336H842.086V115.156H846.953V115.047C846.932 114.672 846.854 114.307 846.719 113.953C846.589 113.599 846.38 113.307 846.094 113.078C845.807 112.849 845.417 112.734 844.922 112.734C844.594 112.734 844.292 112.805 844.016 112.945C843.74 113.081 843.503 113.284 843.305 113.555C843.107 113.826 842.953 114.156 842.844 114.547C842.734 114.938 842.68 115.388 842.68 115.898V116.227C842.68 116.628 842.734 117.005 842.844 117.359C842.958 117.708 843.122 118.016 843.336 118.281C843.555 118.547 843.818 118.755 844.125 118.906C844.438 119.057 844.792 119.133 845.188 119.133C845.698 119.133 846.13 119.029 846.484 118.82C846.839 118.612 847.148 118.333 847.414 117.984L848.289 118.68C848.107 118.956 847.875 119.219 847.594 119.469C847.312 119.719 846.966 119.922 846.555 120.078C846.148 120.234 845.667 120.312 845.109 120.312ZM851.656 108.156V120.156H850.203V108.156H851.656ZM855.547 111.703V120.156H854.094V111.703H855.547ZM853.984 109.461C853.984 109.227 854.055 109.029 854.195 108.867C854.341 108.706 854.555 108.625 854.836 108.625C855.112 108.625 855.323 108.706 855.469 108.867C855.62 109.029 855.695 109.227 855.695 109.461C855.695 109.685 855.62 109.878 855.469 110.039C855.323 110.195 855.112 110.273 854.836 110.273C854.555 110.273 854.341 110.195 854.195 110.039C854.055 109.878 853.984 109.685 853.984 109.461ZM860.438 118.852L862.75 111.703H864.227L861.188 120.156H860.219L860.438 118.852ZM858.508 111.703L860.891 118.891L861.055 120.156H860.086L857.023 111.703H858.508ZM869.016 120.312C868.427 120.312 867.893 120.214 867.414 120.016C866.94 119.812 866.531 119.529 866.188 119.164C865.849 118.799 865.589 118.367 865.406 117.867C865.224 117.367 865.133 116.82 865.133 116.227V115.898C865.133 115.211 865.234 114.599 865.438 114.062C865.641 113.521 865.917 113.062 866.266 112.688C866.615 112.312 867.01 112.029 867.453 111.836C867.896 111.643 868.354 111.547 868.828 111.547C869.432 111.547 869.953 111.651 870.391 111.859C870.833 112.068 871.195 112.359 871.477 112.734C871.758 113.104 871.966 113.542 872.102 114.047C872.237 114.547 872.305 115.094 872.305 115.688V116.336H865.992V115.156H870.859V115.047C870.839 114.672 870.76 114.307 870.625 113.953C870.495 113.599 870.286 113.307 870 113.078C869.714 112.849 869.323 112.734 868.828 112.734C868.5 112.734 868.198 112.805 867.922 112.945C867.646 113.081 867.409 113.284 867.211 113.555C867.013 113.826 866.859 114.156 866.75 114.547C866.641 114.938 866.586 115.388 866.586 115.898V116.227C866.586 116.628 866.641 117.005 866.75 117.359C866.865 117.708 867.029 118.016 867.242 118.281C867.461 118.547 867.724 118.755 868.031 118.906C868.344 119.057 868.698 119.133 869.094 119.133C869.604 119.133 870.036 119.029 870.391 118.82C870.745 118.612 871.055 118.333 871.32 117.984L872.195 118.68C872.013 118.956 871.781 119.219 871.5 119.469C871.219 119.719 870.872 119.922 870.461 120.078C870.055 120.234 869.573 120.312 869.016 120.312ZM875.438 113.031V120.156H873.992V111.703H875.398L875.438 113.031ZM878.078 111.656L878.07 113C877.951 112.974 877.836 112.958 877.727 112.953C877.622 112.943 877.503 112.938 877.367 112.938C877.034 112.938 876.74 112.99 876.484 113.094C876.229 113.198 876.013 113.344 875.836 113.531C875.659 113.719 875.518 113.943 875.414 114.203C875.315 114.458 875.25 114.74 875.219 115.047L874.812 115.281C874.812 114.771 874.862 114.292 874.961 113.844C875.065 113.396 875.224 113 875.438 112.656C875.651 112.307 875.922 112.036 876.25 111.844C876.583 111.646 876.979 111.547 877.438 111.547C877.542 111.547 877.661 111.56 877.797 111.586C877.932 111.607 878.026 111.63 878.078 111.656ZM886.922 111.703V112.812H882.352V111.703H886.922ZM883.898 109.648H885.344V118.062C885.344 118.349 885.388 118.565 885.477 118.711C885.565 118.857 885.68 118.953 885.82 119C885.961 119.047 886.112 119.07 886.273 119.07C886.393 119.07 886.518 119.06 886.648 119.039C886.784 119.013 886.885 118.992 886.953 118.977L886.961 120.156C886.846 120.193 886.695 120.227 886.508 120.258C886.326 120.294 886.104 120.312 885.844 120.312C885.49 120.312 885.164 120.242 884.867 120.102C884.57 119.961 884.333 119.727 884.156 119.398C883.984 119.065 883.898 118.617 883.898 118.055V109.648ZM890.062 108.156V120.156H888.617V108.156H890.062ZM889.719 115.609L889.117 115.586C889.122 115.008 889.208 114.474 889.375 113.984C889.542 113.49 889.776 113.06 890.078 112.695C890.38 112.331 890.74 112.049 891.156 111.852C891.578 111.648 892.044 111.547 892.555 111.547C892.971 111.547 893.346 111.604 893.68 111.719C894.013 111.828 894.297 112.005 894.531 112.25C894.771 112.495 894.953 112.812 895.078 113.203C895.203 113.589 895.266 114.06 895.266 114.617V120.156H893.812V114.602C893.812 114.159 893.747 113.805 893.617 113.539C893.487 113.268 893.297 113.073 893.047 112.953C892.797 112.828 892.49 112.766 892.125 112.766C891.766 112.766 891.438 112.841 891.141 112.992C890.849 113.143 890.596 113.352 890.383 113.617C890.174 113.883 890.01 114.188 889.891 114.531C889.776 114.87 889.719 115.229 889.719 115.609ZM900.938 120.312C900.349 120.312 899.815 120.214 899.336 120.016C898.862 119.812 898.453 119.529 898.109 119.164C897.771 118.799 897.51 118.367 897.328 117.867C897.146 117.367 897.055 116.82 897.055 116.227V115.898C897.055 115.211 897.156 114.599 897.359 114.062C897.562 113.521 897.839 113.062 898.188 112.688C898.536 112.312 898.932 112.029 899.375 111.836C899.818 111.643 900.276 111.547 900.75 111.547C901.354 111.547 901.875 111.651 902.312 111.859C902.755 112.068 903.117 112.359 903.398 112.734C903.68 113.104 903.888 113.542 904.023 114.047C904.159 114.547 904.227 115.094 904.227 115.688V116.336H897.914V115.156H902.781V115.047C902.76 114.672 902.682 114.307 902.547 113.953C902.417 113.599 902.208 113.307 901.922 113.078C901.635 112.849 901.245 112.734 900.75 112.734C900.422 112.734 900.12 112.805 899.844 112.945C899.568 113.081 899.331 113.284 899.133 113.555C898.935 113.826 898.781 114.156 898.672 114.547C898.562 114.938 898.508 115.388 898.508 115.898V116.227C898.508 116.628 898.562 117.005 898.672 117.359C898.786 117.708 898.951 118.016 899.164 118.281C899.383 118.547 899.646 118.755 899.953 118.906C900.266 119.057 900.62 119.133 901.016 119.133C901.526 119.133 901.958 119.029 902.312 118.82C902.667 118.612 902.977 118.333 903.242 117.984L904.117 118.68C903.935 118.956 903.703 119.219 903.422 119.469C903.141 119.719 902.794 119.922 902.383 120.078C901.977 120.234 901.495 120.312 900.938 120.312ZM910.836 117.914C910.836 117.706 910.789 117.513 910.695 117.336C910.607 117.154 910.422 116.99 910.141 116.844C909.865 116.693 909.448 116.562 908.891 116.453C908.422 116.354 907.997 116.237 907.617 116.102C907.242 115.966 906.922 115.802 906.656 115.609C906.396 115.417 906.195 115.19 906.055 114.93C905.914 114.669 905.844 114.365 905.844 114.016C905.844 113.682 905.917 113.367 906.062 113.07C906.214 112.773 906.424 112.51 906.695 112.281C906.971 112.052 907.302 111.872 907.688 111.742C908.073 111.612 908.503 111.547 908.977 111.547C909.654 111.547 910.232 111.667 910.711 111.906C911.19 112.146 911.557 112.466 911.812 112.867C912.068 113.263 912.195 113.703 912.195 114.188H910.75C910.75 113.953 910.68 113.727 910.539 113.508C910.404 113.284 910.203 113.099 909.938 112.953C909.677 112.807 909.357 112.734 908.977 112.734C908.576 112.734 908.25 112.797 908 112.922C907.755 113.042 907.576 113.195 907.461 113.383C907.352 113.57 907.297 113.768 907.297 113.977C907.297 114.133 907.323 114.273 907.375 114.398C907.432 114.518 907.531 114.63 907.672 114.734C907.812 114.833 908.01 114.927 908.266 115.016C908.521 115.104 908.846 115.193 909.242 115.281C909.935 115.438 910.505 115.625 910.953 115.844C911.401 116.062 911.734 116.331 911.953 116.648C912.172 116.966 912.281 117.352 912.281 117.805C912.281 118.174 912.203 118.513 912.047 118.82C911.896 119.128 911.674 119.393 911.383 119.617C911.096 119.836 910.753 120.008 910.352 120.133C909.956 120.253 909.51 120.312 909.016 120.312C908.271 120.312 907.641 120.18 907.125 119.914C906.609 119.648 906.219 119.305 905.953 118.883C905.688 118.461 905.555 118.016 905.555 117.547H907.008C907.029 117.943 907.143 118.258 907.352 118.492C907.56 118.721 907.815 118.885 908.117 118.984C908.419 119.078 908.719 119.125 909.016 119.125C909.411 119.125 909.742 119.073 910.008 118.969C910.279 118.865 910.484 118.721 910.625 118.539C910.766 118.357 910.836 118.148 910.836 117.914ZM917.688 120.312C917.099 120.312 916.565 120.214 916.086 120.016C915.612 119.812 915.203 119.529 914.859 119.164C914.521 118.799 914.26 118.367 914.078 117.867C913.896 117.367 913.805 116.82 913.805 116.227V115.898C913.805 115.211 913.906 114.599 914.109 114.062C914.312 113.521 914.589 113.062 914.938 112.688C915.286 112.312 915.682 112.029 916.125 111.836C916.568 111.643 917.026 111.547 917.5 111.547C918.104 111.547 918.625 111.651 919.062 111.859C919.505 112.068 919.867 112.359 920.148 112.734C920.43 113.104 920.638 113.542 920.773 114.047C920.909 114.547 920.977 115.094 920.977 115.688V116.336H914.664V115.156H919.531V115.047C919.51 114.672 919.432 114.307 919.297 113.953C919.167 113.599 918.958 113.307 918.672 113.078C918.385 112.849 917.995 112.734 917.5 112.734C917.172 112.734 916.87 112.805 916.594 112.945C916.318 113.081 916.081 113.284 915.883 113.555C915.685 113.826 915.531 114.156 915.422 114.547C915.312 114.938 915.258 115.388 915.258 115.898V116.227C915.258 116.628 915.312 117.005 915.422 117.359C915.536 117.708 915.701 118.016 915.914 118.281C916.133 118.547 916.396 118.755 916.703 118.906C917.016 119.057 917.37 119.133 917.766 119.133C918.276 119.133 918.708 119.029 919.062 118.82C919.417 118.612 919.727 118.333 919.992 117.984L920.867 118.68C920.685 118.956 920.453 119.219 920.172 119.469C919.891 119.719 919.544 119.922 919.133 120.078C918.727 120.234 918.245 120.312 917.688 120.312ZM928.078 113.328V123.406H926.625V111.703H927.953L928.078 113.328ZM933.773 115.859V116.023C933.773 116.638 933.701 117.208 933.555 117.734C933.409 118.255 933.195 118.708 932.914 119.094C932.638 119.479 932.297 119.779 931.891 119.992C931.484 120.206 931.018 120.312 930.492 120.312C929.956 120.312 929.482 120.224 929.07 120.047C928.659 119.87 928.31 119.612 928.023 119.273C927.737 118.935 927.508 118.529 927.336 118.055C927.169 117.581 927.055 117.047 926.992 116.453V115.578C927.055 114.953 927.172 114.393 927.344 113.898C927.516 113.404 927.742 112.982 928.023 112.633C928.31 112.279 928.656 112.01 929.062 111.828C929.469 111.641 929.938 111.547 930.469 111.547C931 111.547 931.471 111.651 931.883 111.859C932.294 112.062 932.641 112.354 932.922 112.734C933.203 113.115 933.414 113.57 933.555 114.102C933.701 114.628 933.773 115.214 933.773 115.859ZM932.32 116.023V115.859C932.32 115.438 932.276 115.042 932.188 114.672C932.099 114.297 931.961 113.969 931.773 113.688C931.591 113.401 931.357 113.177 931.07 113.016C930.784 112.849 930.443 112.766 930.047 112.766C929.682 112.766 929.365 112.828 929.094 112.953C928.828 113.078 928.602 113.247 928.414 113.461C928.227 113.669 928.073 113.909 927.953 114.18C927.839 114.445 927.753 114.721 927.695 115.008V117.031C927.799 117.396 927.945 117.74 928.133 118.062C928.32 118.38 928.57 118.638 928.883 118.836C929.195 119.029 929.589 119.125 930.062 119.125C930.453 119.125 930.789 119.044 931.07 118.883C931.357 118.716 931.591 118.49 931.773 118.203C931.961 117.917 932.099 117.589 932.188 117.219C932.276 116.844 932.32 116.445 932.32 116.023ZM940.602 118.711V114.359C940.602 114.026 940.534 113.737 940.398 113.492C940.268 113.242 940.07 113.049 939.805 112.914C939.539 112.779 939.211 112.711 938.82 112.711C938.456 112.711 938.135 112.773 937.859 112.898C937.589 113.023 937.375 113.188 937.219 113.391C937.068 113.594 936.992 113.812 936.992 114.047H935.547C935.547 113.745 935.625 113.445 935.781 113.148C935.938 112.852 936.161 112.583 936.453 112.344C936.75 112.099 937.104 111.906 937.516 111.766C937.932 111.62 938.396 111.547 938.906 111.547C939.521 111.547 940.062 111.651 940.531 111.859C941.005 112.068 941.375 112.383 941.641 112.805C941.911 113.221 942.047 113.745 942.047 114.375V118.312C942.047 118.594 942.07 118.893 942.117 119.211C942.169 119.529 942.245 119.802 942.344 120.031V120.156H940.836C940.763 119.99 940.706 119.768 940.664 119.492C940.622 119.211 940.602 118.951 940.602 118.711ZM940.852 115.031L940.867 116.047H939.406C938.995 116.047 938.628 116.081 938.305 116.148C937.982 116.211 937.711 116.307 937.492 116.438C937.273 116.568 937.107 116.732 936.992 116.93C936.878 117.122 936.82 117.349 936.82 117.609C936.82 117.875 936.88 118.117 937 118.336C937.12 118.555 937.299 118.729 937.539 118.859C937.784 118.984 938.083 119.047 938.438 119.047C938.88 119.047 939.271 118.953 939.609 118.766C939.948 118.578 940.216 118.349 940.414 118.078C940.617 117.807 940.727 117.544 940.742 117.289L941.359 117.984C941.323 118.203 941.224 118.445 941.062 118.711C940.901 118.977 940.685 119.232 940.414 119.477C940.148 119.716 939.831 119.917 939.461 120.078C939.096 120.234 938.685 120.312 938.227 120.312C937.654 120.312 937.151 120.201 936.719 119.977C936.292 119.753 935.958 119.453 935.719 119.078C935.484 118.698 935.367 118.273 935.367 117.805C935.367 117.352 935.456 116.953 935.633 116.609C935.81 116.26 936.065 115.971 936.398 115.742C936.732 115.508 937.133 115.331 937.602 115.211C938.07 115.091 938.594 115.031 939.172 115.031H940.852ZM946.57 119.281L948.922 111.703H950.469L947.078 121.461C947 121.669 946.896 121.893 946.766 122.133C946.641 122.378 946.479 122.609 946.281 122.828C946.083 123.047 945.844 123.224 945.562 123.359C945.286 123.5 944.956 123.57 944.57 123.57C944.456 123.57 944.31 123.555 944.133 123.523C943.956 123.492 943.831 123.466 943.758 123.445L943.75 122.273C943.792 122.279 943.857 122.284 943.945 122.289C944.039 122.299 944.104 122.305 944.141 122.305C944.469 122.305 944.747 122.26 944.977 122.172C945.206 122.089 945.398 121.945 945.555 121.742C945.716 121.544 945.854 121.271 945.969 120.922L946.57 119.281ZM944.844 111.703L947.039 118.266L947.414 119.789L946.375 120.32L943.266 111.703H944.844ZM955.047 119.125C955.391 119.125 955.708 119.055 956 118.914C956.292 118.773 956.531 118.581 956.719 118.336C956.906 118.086 957.013 117.802 957.039 117.484H958.414C958.388 117.984 958.219 118.451 957.906 118.883C957.599 119.31 957.195 119.656 956.695 119.922C956.195 120.182 955.646 120.312 955.047 120.312C954.411 120.312 953.857 120.201 953.383 119.977C952.914 119.753 952.523 119.445 952.211 119.055C951.904 118.664 951.672 118.216 951.516 117.711C951.365 117.201 951.289 116.661 951.289 116.094V115.766C951.289 115.198 951.365 114.661 951.516 114.156C951.672 113.646 951.904 113.195 952.211 112.805C952.523 112.414 952.914 112.107 953.383 111.883C953.857 111.659 954.411 111.547 955.047 111.547C955.708 111.547 956.286 111.682 956.781 111.953C957.276 112.219 957.664 112.583 957.945 113.047C958.232 113.505 958.388 114.026 958.414 114.609H957.039C957.013 114.26 956.914 113.945 956.742 113.664C956.576 113.383 956.346 113.159 956.055 112.992C955.768 112.82 955.432 112.734 955.047 112.734C954.604 112.734 954.232 112.823 953.93 113C953.633 113.172 953.396 113.406 953.219 113.703C953.047 113.995 952.922 114.32 952.844 114.68C952.771 115.034 952.734 115.396 952.734 115.766V116.094C952.734 116.464 952.771 116.828 952.844 117.188C952.917 117.547 953.039 117.872 953.211 118.164C953.388 118.456 953.625 118.69 953.922 118.867C954.224 119.039 954.599 119.125 955.047 119.125ZM961.484 108.156V120.156H960.039V108.156H961.484ZM961.141 115.609L960.539 115.586C960.544 115.008 960.63 114.474 960.797 113.984C960.964 113.49 961.198 113.06 961.5 112.695C961.802 112.331 962.161 112.049 962.578 111.852C963 111.648 963.466 111.547 963.977 111.547C964.393 111.547 964.768 111.604 965.102 111.719C965.435 111.828 965.719 112.005 965.953 112.25C966.193 112.495 966.375 112.812 966.5 113.203C966.625 113.589 966.688 114.06 966.688 114.617V120.156H965.234V114.602C965.234 114.159 965.169 113.805 965.039 113.539C964.909 113.268 964.719 113.073 964.469 112.953C964.219 112.828 963.911 112.766 963.547 112.766C963.188 112.766 962.859 112.841 962.562 112.992C962.271 113.143 962.018 113.352 961.805 113.617C961.596 113.883 961.432 114.188 961.312 114.531C961.198 114.87 961.141 115.229 961.141 115.609ZM972.359 120.312C971.771 120.312 971.237 120.214 970.758 120.016C970.284 119.812 969.875 119.529 969.531 119.164C969.193 118.799 968.932 118.367 968.75 117.867C968.568 117.367 968.477 116.82 968.477 116.227V115.898C968.477 115.211 968.578 114.599 968.781 114.062C968.984 113.521 969.26 113.062 969.609 112.688C969.958 112.312 970.354 112.029 970.797 111.836C971.24 111.643 971.698 111.547 972.172 111.547C972.776 111.547 973.297 111.651 973.734 111.859C974.177 112.068 974.539 112.359 974.82 112.734C975.102 113.104 975.31 113.542 975.445 114.047C975.581 114.547 975.648 115.094 975.648 115.688V116.336H969.336V115.156H974.203V115.047C974.182 114.672 974.104 114.307 973.969 113.953C973.839 113.599 973.63 113.307 973.344 113.078C973.057 112.849 972.667 112.734 972.172 112.734C971.844 112.734 971.542 112.805 971.266 112.945C970.99 113.081 970.753 113.284 970.555 113.555C970.357 113.826 970.203 114.156 970.094 114.547C969.984 114.938 969.93 115.388 969.93 115.898V116.227C969.93 116.628 969.984 117.005 970.094 117.359C970.208 117.708 970.372 118.016 970.586 118.281C970.805 118.547 971.068 118.755 971.375 118.906C971.688 119.057 972.042 119.133 972.438 119.133C972.948 119.133 973.38 119.029 973.734 118.82C974.089 118.612 974.398 118.333 974.664 117.984L975.539 118.68C975.357 118.956 975.125 119.219 974.844 119.469C974.562 119.719 974.216 119.922 973.805 120.078C973.398 120.234 972.917 120.312 972.359 120.312ZM982.656 123.406V113.328L982.781 111.703H984.109V123.406H982.656ZM976.977 116.023V115.859C976.977 115.214 977.052 114.628 977.203 114.102C977.354 113.57 977.576 113.115 977.867 112.734C978.159 112.354 978.51 112.062 978.922 111.859C979.339 111.651 979.812 111.547 980.344 111.547C980.875 111.547 981.341 111.641 981.742 111.828C982.148 112.01 982.492 112.279 982.773 112.633C983.06 112.982 983.286 113.404 983.453 113.898C983.62 114.393 983.734 114.953 983.797 115.578V116.297C983.74 116.917 983.628 117.474 983.461 117.969C983.294 118.464 983.068 118.885 982.781 119.234C982.5 119.583 982.154 119.852 981.742 120.039C981.336 120.221 980.865 120.312 980.328 120.312C979.807 120.312 979.339 120.206 978.922 119.992C978.51 119.779 978.159 119.479 977.867 119.094C977.581 118.708 977.359 118.255 977.203 117.734C977.052 117.208 976.977 116.638 976.977 116.023ZM978.43 115.859V116.023C978.43 116.445 978.474 116.844 978.562 117.219C978.651 117.589 978.786 117.917 978.969 118.203C979.156 118.49 979.391 118.716 979.672 118.883C979.958 119.044 980.297 119.125 980.688 119.125C981.167 119.125 981.565 119.021 981.883 118.812C982.206 118.604 982.464 118.331 982.656 117.992C982.849 117.648 982.997 117.281 983.102 116.891V115.008C983.044 114.721 982.953 114.443 982.828 114.172C982.708 113.901 982.552 113.659 982.359 113.445C982.167 113.227 981.932 113.055 981.656 112.93C981.385 112.799 981.068 112.734 980.703 112.734C980.307 112.734 979.966 112.818 979.68 112.984C979.393 113.151 979.156 113.38 978.969 113.672C978.786 113.958 978.651 114.289 978.562 114.664C978.474 115.039 978.43 115.438 978.43 115.859ZM991.602 118.203V111.703H993.055V120.156H991.672L991.602 118.203ZM991.875 116.422L992.477 116.406C992.477 116.969 992.417 117.49 992.297 117.969C992.182 118.443 991.995 118.854 991.734 119.203C991.474 119.552 991.133 119.826 990.711 120.023C990.289 120.216 989.776 120.312 989.172 120.312C988.76 120.312 988.383 120.253 988.039 120.133C987.701 120.013 987.409 119.828 987.164 119.578C986.919 119.328 986.729 119.003 986.594 118.602C986.464 118.201 986.398 117.719 986.398 117.156V111.703H987.844V117.172C987.844 117.552 987.885 117.867 987.969 118.117C988.057 118.362 988.174 118.557 988.32 118.703C988.471 118.844 988.638 118.943 988.82 119C989.008 119.057 989.201 119.086 989.398 119.086C990.013 119.086 990.5 118.969 990.859 118.734C991.219 118.495 991.477 118.174 991.633 117.773C991.794 117.367 991.875 116.917 991.875 116.422ZM998.766 120.312C998.177 120.312 997.643 120.214 997.164 120.016C996.69 119.812 996.281 119.529 995.938 119.164C995.599 118.799 995.339 118.367 995.156 117.867C994.974 117.367 994.883 116.82 994.883 116.227V115.898C994.883 115.211 994.984 114.599 995.188 114.062C995.391 113.521 995.667 113.062 996.016 112.688C996.365 112.312 996.76 112.029 997.203 111.836C997.646 111.643 998.104 111.547 998.578 111.547C999.182 111.547 999.703 111.651 1000.14 111.859C1000.58 112.068 1000.95 112.359 1001.23 112.734C1001.51 113.104 1001.72 113.542 1001.85 114.047C1001.99 114.547 1002.05 115.094 1002.05 115.688V116.336H995.742V115.156H1000.61V115.047C1000.59 114.672 1000.51 114.307 1000.38 113.953C1000.24 113.599 1000.04 113.307 999.75 113.078C999.464 112.849 999.073 112.734 998.578 112.734C998.25 112.734 997.948 112.805 997.672 112.945C997.396 113.081 997.159 113.284 996.961 113.555C996.763 113.826 996.609 114.156 996.5 114.547C996.391 114.938 996.336 115.388 996.336 115.898V116.227C996.336 116.628 996.391 117.005 996.5 117.359C996.615 117.708 996.779 118.016 996.992 118.281C997.211 118.547 997.474 118.755 997.781 118.906C998.094 119.057 998.448 119.133 998.844 119.133C999.354 119.133 999.786 119.029 1000.14 118.82C1000.49 118.612 1000.8 118.333 1001.07 117.984L1001.95 118.68C1001.76 118.956 1001.53 119.219 1001.25 119.469C1000.97 119.719 1000.62 119.922 1000.21 120.078C999.805 120.234 999.323 120.312 998.766 120.312ZM1007.7 108.156H1009.16V118.516L1009.03 120.156H1007.7V108.156ZM1014.87 115.859V116.023C1014.87 116.638 1014.79 117.208 1014.65 117.734C1014.5 118.255 1014.29 118.708 1014.01 119.094C1013.73 119.479 1013.38 119.779 1012.98 119.992C1012.57 120.206 1012.1 120.312 1011.58 120.312C1011.04 120.312 1010.57 120.221 1010.16 120.039C1009.76 119.852 1009.42 119.583 1009.15 119.234C1008.87 118.885 1008.65 118.464 1008.48 117.969C1008.32 117.474 1008.21 116.917 1008.15 116.297V115.578C1008.21 114.953 1008.32 114.393 1008.48 113.898C1008.65 113.404 1008.87 112.982 1009.15 112.633C1009.42 112.279 1009.76 112.01 1010.16 111.828C1010.57 111.641 1011.03 111.547 1011.56 111.547C1012.09 111.547 1012.57 111.651 1012.98 111.859C1013.39 112.062 1013.73 112.354 1014.01 112.734C1014.29 113.115 1014.5 113.57 1014.65 114.102C1014.79 114.628 1014.87 115.214 1014.87 115.859ZM1013.41 116.023V115.859C1013.41 115.438 1013.38 115.042 1013.3 114.672C1013.22 114.297 1013.09 113.969 1012.92 113.688C1012.75 113.401 1012.52 113.177 1012.24 113.016C1011.96 112.849 1011.61 112.766 1011.2 112.766C1010.84 112.766 1010.52 112.828 1010.25 112.953C1009.98 113.078 1009.76 113.247 1009.57 113.461C1009.38 113.669 1009.23 113.909 1009.11 114.18C1008.99 114.445 1008.91 114.721 1008.85 115.008V116.891C1008.93 117.255 1009.07 117.607 1009.26 117.945C1009.45 118.279 1009.71 118.552 1010.02 118.766C1010.35 118.979 1010.74 119.086 1011.22 119.086C1011.61 119.086 1011.94 119.008 1012.22 118.852C1012.5 118.69 1012.73 118.469 1012.9 118.188C1013.08 117.906 1013.21 117.581 1013.29 117.211C1013.37 116.841 1013.41 116.445 1013.41 116.023ZM1018.98 119.281L1021.33 111.703H1022.88L1019.48 121.461C1019.41 121.669 1019.3 121.893 1019.17 122.133C1019.05 122.378 1018.89 122.609 1018.69 122.828C1018.49 123.047 1018.25 123.224 1017.97 123.359C1017.69 123.5 1017.36 123.57 1016.98 123.57C1016.86 123.57 1016.72 123.555 1016.54 123.523C1016.36 123.492 1016.24 123.466 1016.16 123.445L1016.16 122.273C1016.2 122.279 1016.26 122.284 1016.35 122.289C1016.45 122.299 1016.51 122.305 1016.55 122.305C1016.88 122.305 1017.15 122.26 1017.38 122.172C1017.61 122.089 1017.8 121.945 1017.96 121.742C1018.12 121.544 1018.26 121.271 1018.38 120.922L1018.98 119.281ZM1017.25 111.703L1019.45 118.266L1019.82 119.789L1018.78 120.32L1015.67 111.703H1017.25Z" fill="#3CCB93"/>
<path d="M444.954 0V24.6731C431.799 24.6731 420.028 30.9578 412.642 40.9667L393.024 26.0697C405.949 9.07786 423.951 0 444.954 0Z" fill="#2AB7A9"/>
<path d="M444.954 0V24.9539C438.417 24.9539 432.348 26.3664 426.979 29.1914L426.279 29.4268L414.373 7.53326C423.477 2.58956 433.982 0 444.954 0Z" fill="#8969D3"/>
<path d="M509 64.2208C509 99.6451 480.204 128.442 444.78 128.442C436.323 128.442 429.467 127.299 421.697 124.099C388.558 111.529 371.874 74.5053 384.673 41.3664C386.958 35.6528 389.701 30.6249 393.357 25.8255L412.783 40.4523C407.756 47.08 404.784 55.5361 404.784 64.4494C404.784 81.5901 415.526 95.9884 430.61 101.931C435.181 103.759 439.98 104.673 445.008 104.673C467.177 104.673 485.003 86.6181 485.003 64.6779C485.003 42.7377 467.177 24.6827 445.008 24.6827V0C480.204 0 509 28.7965 509 64.2208Z" fill="#24A271"/>
<path d="M305.812 190.855V200.809H304.485L299.475 193.132V200.809H298.155V190.855H299.475L304.506 198.553V190.855H305.812ZM314.473 199.735V200.809H309.202V199.735H314.473ZM309.469 190.855V200.809H308.149V190.855H309.469ZM313.775 195.135V196.208H309.202V195.135H313.775ZM314.404 190.855V191.936H309.202V190.855H314.404ZM319.921 190.855V200.809H318.622V190.855H319.921ZM323.12 190.855V191.936H315.43V190.855H323.12ZM331.467 196.905H328.808V195.832H331.467C331.982 195.832 332.399 195.75 332.718 195.586C333.037 195.422 333.269 195.194 333.415 194.902C333.565 194.611 333.641 194.278 333.641 193.904C333.641 193.562 333.565 193.241 333.415 192.94C333.269 192.64 333.037 192.398 332.718 192.216C332.399 192.029 331.982 191.936 331.467 191.936H329.115V200.809H327.796V190.855H331.467C332.219 190.855 332.854 190.985 333.374 191.245C333.894 191.505 334.288 191.865 334.557 192.325C334.826 192.781 334.96 193.303 334.96 193.891C334.96 194.529 334.826 195.073 334.557 195.524C334.288 195.976 333.894 196.32 333.374 196.557C332.854 196.789 332.219 196.905 331.467 196.905ZM339.369 191.737L336.074 200.809H334.728L338.521 190.855H339.39L339.369 191.737ZM342.131 200.809L338.829 191.737L338.809 190.855H339.677L343.484 200.809H342.131ZM341.96 197.124V198.204H336.368V197.124H341.96ZM344.633 190.855L347.217 195.853L349.808 190.855H351.305L347.873 197.09V200.809H346.554V197.09L343.122 190.855H344.633Z" fill="#3CCB93"/>
<path d="M420.479 199.735V200.809H415.208V199.735H420.479ZM415.475 190.855V200.809H414.155V190.855H415.475ZM419.781 195.135V196.208H415.208V195.135H419.781ZM420.41 190.855V191.936H415.208V190.855H420.41ZM422.529 190.855H423.808L427.068 198.97L430.322 190.855H431.607L427.561 200.809H426.562L422.529 190.855ZM422.112 190.855H423.24L423.425 196.926V200.809H422.112V190.855ZM430.89 190.855H432.018V200.809H430.705V196.926L430.89 190.855ZM438.006 196.905H435.347V195.832H438.006C438.521 195.832 438.938 195.75 439.257 195.586C439.576 195.422 439.808 195.194 439.954 194.902C440.104 194.611 440.18 194.278 440.18 193.904C440.18 193.562 440.104 193.241 439.954 192.94C439.808 192.64 439.576 192.398 439.257 192.216C438.938 192.029 438.521 191.936 438.006 191.936H435.654V200.809H434.335V190.855H438.006C438.758 190.855 439.394 190.985 439.913 191.245C440.433 191.505 440.827 191.865 441.096 192.325C441.365 192.781 441.499 193.303 441.499 193.891C441.499 194.529 441.365 195.073 441.096 195.524C440.827 195.976 440.433 196.32 439.913 196.557C439.394 196.789 438.758 196.905 438.006 196.905ZM449.203 199.735V200.809H444.227V199.735H449.203ZM444.486 190.855V200.809H443.167V190.855H444.486ZM457.926 195.518V196.146C457.926 196.894 457.832 197.564 457.646 198.156C457.459 198.749 457.19 199.252 456.839 199.667C456.488 200.082 456.066 200.398 455.574 200.617C455.087 200.836 454.54 200.945 453.934 200.945C453.346 200.945 452.806 200.836 452.313 200.617C451.826 200.398 451.402 200.082 451.042 199.667C450.687 199.252 450.411 198.749 450.215 198.156C450.019 197.564 449.921 196.894 449.921 196.146V195.518C449.921 194.77 450.017 194.103 450.208 193.515C450.404 192.922 450.68 192.419 451.035 192.004C451.391 191.585 451.812 191.266 452.3 191.047C452.792 190.828 453.332 190.719 453.92 190.719C454.526 190.719 455.073 190.828 455.561 191.047C456.053 191.266 456.474 191.585 456.825 192.004C457.181 192.419 457.452 192.922 457.639 193.515C457.83 194.103 457.926 194.77 457.926 195.518ZM456.62 196.146V195.504C456.62 194.911 456.559 194.387 456.436 193.932C456.317 193.476 456.142 193.093 455.909 192.783C455.677 192.473 455.392 192.239 455.055 192.079C454.722 191.92 454.344 191.84 453.92 191.84C453.51 191.84 453.138 191.92 452.806 192.079C452.478 192.239 452.195 192.473 451.958 192.783C451.726 193.093 451.546 193.476 451.418 193.932C451.29 194.387 451.227 194.911 451.227 195.504V196.146C451.227 196.743 451.29 197.272 451.418 197.732C451.546 198.188 451.728 198.573 451.965 198.888C452.206 199.198 452.491 199.432 452.819 199.592C453.152 199.751 453.523 199.831 453.934 199.831C454.362 199.831 454.743 199.751 455.075 199.592C455.408 199.432 455.688 199.198 455.916 198.888C456.148 198.573 456.324 198.188 456.442 197.732C456.561 197.272 456.62 196.743 456.62 196.146ZM460.059 190.855L462.643 195.853L465.233 190.855H466.73L463.299 197.09V200.809H461.979V197.09L458.548 190.855H460.059ZM474.332 199.735V200.809H469.062V199.735H474.332ZM469.328 190.855V200.809H468.009V190.855H469.328ZM473.635 195.135V196.208H469.062V195.135H473.635ZM474.264 190.855V191.936H469.062V190.855H474.264ZM482.289 199.735V200.809H477.019V199.735H482.289ZM477.285 190.855V200.809H475.966V190.855H477.285ZM481.592 195.135V196.208H477.019V195.135H481.592ZM482.221 190.855V191.936H477.019V190.855H482.221Z" fill="#3CCB93"/>
<path d="M529.479 199.735V200.809H524.208V199.735H529.479ZM524.475 190.855V200.809H523.155V190.855H524.475ZM528.781 195.135V196.208H524.208V195.135H528.781ZM529.41 190.855V191.936H524.208V190.855H529.41ZM531.529 190.855H532.808L536.068 198.97L539.322 190.855H540.607L536.561 200.809H535.562L531.529 190.855ZM531.112 190.855H532.24L532.425 196.926V200.809H531.112V190.855ZM539.89 190.855H541.018V200.809H539.705V196.926L539.89 190.855ZM547.006 196.905H544.347V195.832H547.006C547.521 195.832 547.938 195.75 548.257 195.586C548.576 195.422 548.808 195.194 548.954 194.902C549.104 194.611 549.18 194.278 549.18 193.904C549.18 193.562 549.104 193.241 548.954 192.94C548.808 192.64 548.576 192.398 548.257 192.216C547.938 192.029 547.521 191.936 547.006 191.936H544.654V200.809H543.335V190.855H547.006C547.758 190.855 548.394 190.985 548.913 191.245C549.433 191.505 549.827 191.865 550.096 192.325C550.365 192.781 550.499 193.303 550.499 193.891C550.499 194.529 550.365 195.073 550.096 195.524C549.827 195.976 549.433 196.32 548.913 196.557C548.394 196.789 547.758 196.905 547.006 196.905ZM558.203 199.735V200.809H553.227V199.735H558.203ZM553.486 190.855V200.809H552.167V190.855H553.486ZM566.926 195.518V196.146C566.926 196.894 566.832 197.564 566.646 198.156C566.459 198.749 566.19 199.252 565.839 199.667C565.488 200.082 565.066 200.398 564.574 200.617C564.087 200.836 563.54 200.945 562.934 200.945C562.346 200.945 561.806 200.836 561.313 200.617C560.826 200.398 560.402 200.082 560.042 199.667C559.687 199.252 559.411 198.749 559.215 198.156C559.019 197.564 558.921 196.894 558.921 196.146V195.518C558.921 194.77 559.017 194.103 559.208 193.515C559.404 192.922 559.68 192.419 560.035 192.004C560.391 191.585 560.812 191.266 561.3 191.047C561.792 190.828 562.332 190.719 562.92 190.719C563.526 190.719 564.073 190.828 564.561 191.047C565.053 191.266 565.474 191.585 565.825 192.004C566.181 192.419 566.452 192.922 566.639 193.515C566.83 194.103 566.926 194.77 566.926 195.518ZM565.62 196.146V195.504C565.62 194.911 565.559 194.387 565.436 193.932C565.317 193.476 565.142 193.093 564.909 192.783C564.677 192.473 564.392 192.239 564.055 192.079C563.722 191.92 563.344 191.84 562.92 191.84C562.51 191.84 562.138 191.92 561.806 192.079C561.478 192.239 561.195 192.473 560.958 192.783C560.726 193.093 560.546 193.476 560.418 193.932C560.29 194.387 560.227 194.911 560.227 195.504V196.146C560.227 196.743 560.29 197.272 560.418 197.732C560.546 198.188 560.728 198.573 560.965 198.888C561.206 199.198 561.491 199.432 561.819 199.592C562.152 199.751 562.523 199.831 562.934 199.831C563.362 199.831 563.743 199.751 564.075 199.592C564.408 199.432 564.688 199.198 564.916 198.888C565.148 198.573 565.324 198.188 565.442 197.732C565.561 197.272 565.62 196.743 565.62 196.146ZM569.059 190.855L571.643 195.853L574.233 190.855H575.73L572.299 197.09V200.809H570.979V197.09L567.548 190.855H569.059ZM583.332 199.735V200.809H578.062V199.735H583.332ZM578.328 190.855V200.809H577.009V190.855H578.328ZM582.635 195.135V196.208H578.062V195.135H582.635ZM583.264 190.855V191.936H578.062V190.855H583.264ZM584.966 190.855H588.261C589.008 190.855 589.639 190.969 590.154 191.197C590.674 191.425 591.068 191.762 591.337 192.209C591.61 192.651 591.747 193.196 591.747 193.843C591.747 194.299 591.654 194.715 591.467 195.094C591.285 195.467 591.02 195.786 590.674 196.051C590.332 196.311 589.922 196.504 589.443 196.632L589.074 196.775H585.978L585.964 195.702H588.302C588.776 195.702 589.17 195.62 589.484 195.456C589.799 195.287 590.036 195.062 590.195 194.779C590.355 194.497 590.435 194.185 590.435 193.843C590.435 193.46 590.359 193.125 590.209 192.838C590.059 192.551 589.822 192.33 589.498 192.175C589.179 192.015 588.767 191.936 588.261 191.936H586.285V200.809H584.966V190.855ZM590.783 200.809L588.363 196.297L589.737 196.29L592.191 200.727V200.809H590.783Z" fill="#3CCB93"/>
<path d="M432.787 163.324V166.225H431.273V163.324H432.787ZM432.602 179.271V181.889H431.098V179.271H432.602ZM433.871 176.088C433.871 175.717 433.799 175.395 433.656 175.121C433.52 174.848 433.288 174.604 432.963 174.389C432.644 174.174 432.214 173.969 431.674 173.773C430.834 173.467 430.098 173.132 429.467 172.768C428.835 172.396 428.344 171.938 427.992 171.391C427.647 170.844 427.475 170.154 427.475 169.32C427.475 168.52 427.66 167.826 428.031 167.24C428.409 166.648 428.933 166.192 429.604 165.873C430.274 165.548 431.052 165.385 431.938 165.385C432.628 165.385 433.246 165.489 433.793 165.697C434.346 165.899 434.818 166.195 435.209 166.586C435.606 166.977 435.909 167.458 436.117 168.031C436.332 168.598 436.439 169.245 436.439 169.975H433.861C433.861 169.571 433.816 169.213 433.725 168.9C433.633 168.588 433.503 168.324 433.334 168.109C433.165 167.888 432.96 167.722 432.719 167.611C432.484 167.501 432.217 167.445 431.918 167.445C431.488 167.445 431.133 167.527 430.854 167.689C430.58 167.852 430.378 168.074 430.248 168.354C430.124 168.633 430.062 168.956 430.062 169.32C430.062 169.672 430.128 169.981 430.258 170.248C430.395 170.508 430.622 170.746 430.941 170.961C431.267 171.176 431.713 171.394 432.279 171.615C433.126 171.928 433.861 172.273 434.486 172.65C435.111 173.021 435.596 173.477 435.941 174.018C436.286 174.558 436.459 175.242 436.459 176.068C436.459 176.915 436.264 177.631 435.873 178.217C435.489 178.803 434.949 179.249 434.252 179.555C433.555 179.861 432.745 180.014 431.82 180.014C431.228 180.014 430.642 179.936 430.062 179.779C429.483 179.623 428.956 179.369 428.48 179.018C428.012 178.66 427.637 178.188 427.357 177.602C427.077 177.009 426.938 176.283 426.938 175.424H429.525C429.525 175.919 429.59 176.329 429.721 176.654C429.851 176.98 430.027 177.24 430.248 177.436C430.469 177.624 430.717 177.758 430.99 177.836C431.264 177.914 431.54 177.953 431.82 177.953C432.276 177.953 432.654 177.875 432.953 177.719C433.259 177.562 433.487 177.344 433.637 177.064C433.793 176.778 433.871 176.452 433.871 176.088ZM447.865 171.479V173.871C447.865 174.965 447.755 175.899 447.533 176.674C447.312 177.449 446.993 178.083 446.576 178.578C446.16 179.066 445.661 179.428 445.082 179.662C444.503 179.89 443.858 180.004 443.148 180.004C442.582 180.004 442.055 179.932 441.566 179.789C441.078 179.639 440.639 179.411 440.248 179.105C439.864 178.793 439.532 178.396 439.252 177.914C438.979 177.432 438.767 176.856 438.617 176.186C438.474 175.515 438.402 174.743 438.402 173.871V171.479C438.402 170.385 438.513 169.454 438.734 168.686C438.962 167.917 439.285 167.289 439.701 166.801C440.118 166.312 440.616 165.958 441.195 165.736C441.775 165.508 442.419 165.395 443.129 165.395C443.702 165.395 444.229 165.466 444.711 165.609C445.199 165.753 445.635 165.977 446.02 166.283C446.41 166.583 446.742 166.973 447.016 167.455C447.289 167.93 447.497 168.503 447.641 169.174C447.79 169.838 447.865 170.606 447.865 171.479ZM445.287 174.223V171.117C445.287 170.57 445.255 170.095 445.189 169.691C445.131 169.281 445.043 168.933 444.926 168.646C444.809 168.36 444.662 168.129 444.486 167.953C444.311 167.771 444.109 167.637 443.881 167.553C443.653 167.468 443.402 167.426 443.129 167.426C442.79 167.426 442.488 167.494 442.221 167.631C441.954 167.761 441.729 167.969 441.547 168.256C441.365 168.542 441.225 168.923 441.127 169.398C441.036 169.867 440.99 170.44 440.99 171.117V174.223C440.99 174.77 441.02 175.248 441.078 175.658C441.143 176.068 441.234 176.42 441.352 176.713C441.475 177.006 441.622 177.247 441.791 177.436C441.967 177.618 442.169 177.755 442.396 177.846C442.624 177.93 442.875 177.973 443.148 177.973C443.493 177.973 443.796 177.904 444.057 177.768C444.324 177.631 444.548 177.416 444.73 177.123C444.913 176.824 445.049 176.436 445.141 175.961C445.238 175.479 445.287 174.9 445.287 174.223ZM450.121 178.549C450.121 178.158 450.255 177.829 450.521 177.562C450.788 177.296 451.15 177.162 451.605 177.162C452.061 177.162 452.423 177.296 452.689 177.562C452.956 177.829 453.09 178.158 453.09 178.549C453.09 178.933 452.956 179.258 452.689 179.525C452.423 179.786 452.061 179.916 451.605 179.916C451.15 179.916 450.788 179.786 450.521 179.525C450.255 179.258 450.121 178.933 450.121 178.549ZM465.189 177.777V179.809H455.561V178.07L460.18 173.08C460.661 172.533 461.042 172.058 461.322 171.654C461.602 171.251 461.801 170.886 461.918 170.561C462.042 170.229 462.104 169.913 462.104 169.613C462.104 169.177 462.025 168.796 461.869 168.471C461.713 168.139 461.485 167.882 461.186 167.699C460.893 167.517 460.531 167.426 460.102 167.426C459.626 167.426 459.219 167.536 458.881 167.758C458.549 167.973 458.295 168.272 458.119 168.656C457.95 169.04 457.865 169.48 457.865 169.975H455.277C455.277 169.135 455.473 168.37 455.863 167.68C456.254 166.983 456.814 166.426 457.543 166.01C458.272 165.593 459.138 165.385 460.141 165.385C461.117 165.385 461.944 165.548 462.621 165.873C463.298 166.192 463.812 166.648 464.164 167.24C464.516 167.833 464.691 168.539 464.691 169.359C464.691 169.815 464.617 170.264 464.467 170.707C464.317 171.15 464.105 171.589 463.832 172.025C463.565 172.455 463.246 172.891 462.875 173.334C462.504 173.777 462.09 174.229 461.635 174.691L458.861 177.777H465.189ZM469.545 173.266L467.484 172.768L468.275 165.59H476.098V167.729H470.414L470.043 171.049C470.245 170.925 470.538 170.801 470.922 170.678C471.312 170.548 471.752 170.482 472.24 170.482C472.917 170.482 473.523 170.593 474.057 170.814C474.59 171.029 475.043 171.342 475.414 171.752C475.792 172.162 476.075 172.663 476.264 173.256C476.459 173.842 476.557 174.506 476.557 175.248C476.557 175.899 476.459 176.511 476.264 177.084C476.075 177.65 475.785 178.155 475.395 178.598C475.004 179.034 474.512 179.379 473.92 179.633C473.327 179.88 472.631 180.004 471.83 180.004C471.225 180.004 470.642 179.916 470.082 179.74C469.529 179.558 469.031 179.294 468.588 178.949C468.145 178.598 467.79 178.168 467.523 177.66C467.263 177.152 467.12 176.57 467.094 175.912H469.643C469.688 176.348 469.805 176.719 469.994 177.025C470.183 177.331 470.43 177.566 470.736 177.729C471.049 177.891 471.41 177.973 471.82 177.973C472.191 177.973 472.51 177.904 472.777 177.768C473.051 177.624 473.275 177.426 473.451 177.172C473.627 176.918 473.757 176.618 473.842 176.273C473.926 175.928 473.969 175.551 473.969 175.141C473.969 174.743 473.92 174.382 473.822 174.057C473.725 173.725 473.575 173.438 473.373 173.197C473.171 172.956 472.917 172.771 472.611 172.641C472.312 172.51 471.96 172.445 471.557 172.445C471.016 172.445 470.6 172.527 470.307 172.689C470.02 172.852 469.766 173.044 469.545 173.266Z" fill="white"/>
<path d="M541.787 163.324V166.225H540.273V163.324H541.787ZM541.602 179.271V181.889H540.098V179.271H541.602ZM542.871 176.088C542.871 175.717 542.799 175.395 542.656 175.121C542.52 174.848 542.288 174.604 541.963 174.389C541.644 174.174 541.214 173.969 540.674 173.773C539.834 173.467 539.098 173.132 538.467 172.768C537.835 172.396 537.344 171.938 536.992 171.391C536.647 170.844 536.475 170.154 536.475 169.32C536.475 168.52 536.66 167.826 537.031 167.24C537.409 166.648 537.933 166.192 538.604 165.873C539.274 165.548 540.052 165.385 540.938 165.385C541.628 165.385 542.246 165.489 542.793 165.697C543.346 165.899 543.818 166.195 544.209 166.586C544.606 166.977 544.909 167.458 545.117 168.031C545.332 168.598 545.439 169.245 545.439 169.975H542.861C542.861 169.571 542.816 169.213 542.725 168.9C542.633 168.588 542.503 168.324 542.334 168.109C542.165 167.888 541.96 167.722 541.719 167.611C541.484 167.501 541.217 167.445 540.918 167.445C540.488 167.445 540.133 167.527 539.854 167.689C539.58 167.852 539.378 168.074 539.248 168.354C539.124 168.633 539.062 168.956 539.062 169.32C539.062 169.672 539.128 169.981 539.258 170.248C539.395 170.508 539.622 170.746 539.941 170.961C540.267 171.176 540.713 171.394 541.279 171.615C542.126 171.928 542.861 172.273 543.486 172.65C544.111 173.021 544.596 173.477 544.941 174.018C545.286 174.558 545.459 175.242 545.459 176.068C545.459 176.915 545.264 177.631 544.873 178.217C544.489 178.803 543.949 179.249 543.252 179.555C542.555 179.861 541.745 180.014 540.82 180.014C540.228 180.014 539.642 179.936 539.062 179.779C538.483 179.623 537.956 179.369 537.48 179.018C537.012 178.66 536.637 178.188 536.357 177.602C536.077 177.009 535.938 176.283 535.938 175.424H538.525C538.525 175.919 538.59 176.329 538.721 176.654C538.851 176.98 539.027 177.24 539.248 177.436C539.469 177.624 539.717 177.758 539.99 177.836C540.264 177.914 540.54 177.953 540.82 177.953C541.276 177.953 541.654 177.875 541.953 177.719C542.259 177.562 542.487 177.344 542.637 177.064C542.793 176.778 542.871 176.452 542.871 176.088ZM556.865 171.479V173.871C556.865 174.965 556.755 175.899 556.533 176.674C556.312 177.449 555.993 178.083 555.576 178.578C555.16 179.066 554.661 179.428 554.082 179.662C553.503 179.89 552.858 180.004 552.148 180.004C551.582 180.004 551.055 179.932 550.566 179.789C550.078 179.639 549.639 179.411 549.248 179.105C548.864 178.793 548.532 178.396 548.252 177.914C547.979 177.432 547.767 176.856 547.617 176.186C547.474 175.515 547.402 174.743 547.402 173.871V171.479C547.402 170.385 547.513 169.454 547.734 168.686C547.962 167.917 548.285 167.289 548.701 166.801C549.118 166.312 549.616 165.958 550.195 165.736C550.775 165.508 551.419 165.395 552.129 165.395C552.702 165.395 553.229 165.466 553.711 165.609C554.199 165.753 554.635 165.977 555.02 166.283C555.41 166.583 555.742 166.973 556.016 167.455C556.289 167.93 556.497 168.503 556.641 169.174C556.79 169.838 556.865 170.606 556.865 171.479ZM554.287 174.223V171.117C554.287 170.57 554.255 170.095 554.189 169.691C554.131 169.281 554.043 168.933 553.926 168.646C553.809 168.36 553.662 168.129 553.486 167.953C553.311 167.771 553.109 167.637 552.881 167.553C552.653 167.468 552.402 167.426 552.129 167.426C551.79 167.426 551.488 167.494 551.221 167.631C550.954 167.761 550.729 167.969 550.547 168.256C550.365 168.542 550.225 168.923 550.127 169.398C550.036 169.867 549.99 170.44 549.99 171.117V174.223C549.99 174.77 550.02 175.248 550.078 175.658C550.143 176.068 550.234 176.42 550.352 176.713C550.475 177.006 550.622 177.247 550.791 177.436C550.967 177.618 551.169 177.755 551.396 177.846C551.624 177.93 551.875 177.973 552.148 177.973C552.493 177.973 552.796 177.904 553.057 177.768C553.324 177.631 553.548 177.416 553.73 177.123C553.913 176.824 554.049 176.436 554.141 175.961C554.238 175.479 554.287 174.9 554.287 174.223ZM559.121 178.549C559.121 178.158 559.255 177.829 559.521 177.562C559.788 177.296 560.15 177.162 560.605 177.162C561.061 177.162 561.423 177.296 561.689 177.562C561.956 177.829 562.09 178.158 562.09 178.549C562.09 178.933 561.956 179.258 561.689 179.525C561.423 179.786 561.061 179.916 560.605 179.916C560.15 179.916 559.788 179.786 559.521 179.525C559.255 179.258 559.121 178.933 559.121 178.549ZM567.383 171.557H568.838C569.352 171.557 569.775 171.469 570.107 171.293C570.446 171.111 570.697 170.863 570.859 170.551C571.029 170.232 571.113 169.864 571.113 169.447C571.113 169.037 571.038 168.682 570.889 168.383C570.739 168.077 570.511 167.842 570.205 167.68C569.906 167.51 569.521 167.426 569.053 167.426C568.675 167.426 568.327 167.501 568.008 167.65C567.695 167.8 567.445 168.015 567.256 168.295C567.074 168.568 566.982 168.897 566.982 169.281H564.395C564.395 168.513 564.596 167.839 565 167.26C565.41 166.674 565.964 166.215 566.66 165.883C567.357 165.551 568.135 165.385 568.994 165.385C569.932 165.385 570.752 165.541 571.455 165.854C572.165 166.16 572.715 166.612 573.105 167.211C573.503 167.81 573.701 168.552 573.701 169.438C573.701 169.861 573.6 170.284 573.398 170.707C573.203 171.124 572.913 171.501 572.529 171.84C572.152 172.172 571.686 172.442 571.133 172.65C570.586 172.852 569.958 172.953 569.248 172.953H567.383V171.557ZM567.383 173.549V172.172H569.248C570.049 172.172 570.742 172.266 571.328 172.455C571.921 172.637 572.409 172.898 572.793 173.236C573.177 173.568 573.46 173.956 573.643 174.398C573.831 174.841 573.926 175.316 573.926 175.824C573.926 176.488 573.802 177.081 573.555 177.602C573.307 178.116 572.959 178.552 572.51 178.91C572.067 179.268 571.546 179.542 570.947 179.73C570.348 179.913 569.701 180.004 569.004 180.004C568.398 180.004 567.809 179.923 567.236 179.76C566.67 179.59 566.159 179.34 565.703 179.008C565.247 178.669 564.886 178.246 564.619 177.738C564.352 177.224 564.219 176.628 564.219 175.951H566.807C566.807 176.342 566.901 176.69 567.09 176.996C567.285 177.302 567.552 177.543 567.891 177.719C568.236 177.888 568.623 177.973 569.053 177.973C569.528 177.973 569.935 177.888 570.273 177.719C570.618 177.543 570.882 177.296 571.064 176.977C571.247 176.651 571.338 176.264 571.338 175.814C571.338 175.281 571.237 174.848 571.035 174.516C570.833 174.184 570.544 173.939 570.166 173.783C569.795 173.627 569.352 173.549 568.838 173.549H567.383ZM578.545 173.266L576.484 172.768L577.275 165.59H585.098V167.729H579.414L579.043 171.049C579.245 170.925 579.538 170.801 579.922 170.678C580.312 170.548 580.752 170.482 581.24 170.482C581.917 170.482 582.523 170.593 583.057 170.814C583.59 171.029 584.043 171.342 584.414 171.752C584.792 172.162 585.075 172.663 585.264 173.256C585.459 173.842 585.557 174.506 585.557 175.248C585.557 175.899 585.459 176.511 585.264 177.084C585.075 177.65 584.785 178.155 584.395 178.598C584.004 179.034 583.512 179.379 582.92 179.633C582.327 179.88 581.631 180.004 580.83 180.004C580.225 180.004 579.642 179.916 579.082 179.74C578.529 179.558 578.031 179.294 577.588 178.949C577.145 178.598 576.79 178.168 576.523 177.66C576.263 177.152 576.12 176.57 576.094 175.912H578.643C578.688 176.348 578.805 176.719 578.994 177.025C579.183 177.331 579.43 177.566 579.736 177.729C580.049 177.891 580.41 177.973 580.82 177.973C581.191 177.973 581.51 177.904 581.777 177.768C582.051 177.624 582.275 177.426 582.451 177.172C582.627 176.918 582.757 176.618 582.842 176.273C582.926 175.928 582.969 175.551 582.969 175.141C582.969 174.743 582.92 174.382 582.822 174.057C582.725 173.725 582.575 173.438 582.373 173.197C582.171 172.956 581.917 172.771 581.611 172.641C581.312 172.51 580.96 172.445 580.557 172.445C580.016 172.445 579.6 172.527 579.307 172.689C579.02 172.852 578.766 173.044 578.545 173.266Z" fill="white"/>
<rect x="413" y="160.809" width="3" height="22" rx="1.5" fill="#8969D3"/>
<rect x="522" y="160.809" width="3" height="22" rx="1.5" fill="#2AB7A9"/>
<path d="M6.21387 123.203V136H4.54395V123.203H6.21387ZM10.3271 123.203V124.592H0.439453V123.203H10.3271ZM10.6699 131.351V131.148C10.6699 130.463 10.7695 129.827 10.9688 129.241C11.168 128.649 11.4551 128.137 11.8301 127.703C12.2051 127.264 12.6592 126.924 13.1924 126.684C13.7256 126.438 14.3232 126.314 14.9854 126.314C15.6533 126.314 16.2539 126.438 16.7871 126.684C17.3262 126.924 17.7832 127.264 18.1582 127.703C18.5391 128.137 18.8291 128.649 19.0283 129.241C19.2275 129.827 19.3271 130.463 19.3271 131.148V131.351C19.3271 132.036 19.2275 132.672 19.0283 133.258C18.8291 133.844 18.5391 134.356 18.1582 134.796C17.7832 135.229 17.3291 135.569 16.7959 135.815C16.2686 136.056 15.6709 136.176 15.0029 136.176C14.335 136.176 13.7344 136.056 13.2012 135.815C12.668 135.569 12.2109 135.229 11.8301 134.796C11.4551 134.356 11.168 133.844 10.9688 133.258C10.7695 132.672 10.6699 132.036 10.6699 131.351ZM12.2959 131.148V131.351C12.2959 131.825 12.3516 132.273 12.4629 132.695C12.5742 133.111 12.7412 133.48 12.9639 133.803C13.1924 134.125 13.4766 134.38 13.8164 134.567C14.1562 134.749 14.5518 134.84 15.0029 134.84C15.4482 134.84 15.8379 134.749 16.1719 134.567C16.5117 134.38 16.793 134.125 17.0156 133.803C17.2383 133.48 17.4053 133.111 17.5166 132.695C17.6338 132.273 17.6924 131.825 17.6924 131.351V131.148C17.6924 130.68 17.6338 130.237 17.5166 129.821C17.4053 129.399 17.2354 129.027 17.0068 128.705C16.7842 128.377 16.5029 128.119 16.1631 127.932C15.8291 127.744 15.4365 127.65 14.9854 127.65C14.54 127.65 14.1475 127.744 13.8076 127.932C13.4736 128.119 13.1924 128.377 12.9639 128.705C12.7412 129.027 12.5742 129.399 12.4629 129.821C12.3516 130.237 12.2959 130.68 12.2959 131.148ZM25.3477 126.49V127.738H20.2061V126.49H25.3477ZM21.9463 124.179H23.5723V133.645C23.5723 133.967 23.6221 134.21 23.7217 134.374C23.8213 134.538 23.9502 134.646 24.1084 134.699C24.2666 134.752 24.4365 134.778 24.6182 134.778C24.7529 134.778 24.8936 134.767 25.04 134.743C25.1924 134.714 25.3066 134.69 25.3828 134.673L25.3916 136C25.2627 136.041 25.0928 136.079 24.8818 136.114C24.6768 136.155 24.4277 136.176 24.1348 136.176C23.7363 136.176 23.3701 136.097 23.0361 135.938C22.7021 135.78 22.4355 135.517 22.2363 135.147C22.043 134.772 21.9463 134.269 21.9463 133.636V124.179ZM32.8623 134.374V129.479C32.8623 129.104 32.7861 128.778 32.6338 128.503C32.4873 128.222 32.2646 128.005 31.9658 127.853C31.667 127.7 31.2979 127.624 30.8584 127.624C30.4482 127.624 30.0879 127.694 29.7773 127.835C29.4727 127.976 29.2324 128.16 29.0566 128.389C28.8867 128.617 28.8018 128.863 28.8018 129.127H27.1758C27.1758 128.787 27.2637 128.45 27.4395 128.116C27.6152 127.782 27.8672 127.48 28.1953 127.211C28.5293 126.936 28.9277 126.719 29.3906 126.561C29.8594 126.396 30.3809 126.314 30.9551 126.314C31.6465 126.314 32.2559 126.432 32.7832 126.666C33.3164 126.9 33.7324 127.255 34.0312 127.729C34.3359 128.198 34.4883 128.787 34.4883 129.496V133.926C34.4883 134.242 34.5146 134.579 34.5674 134.937C34.626 135.294 34.7109 135.602 34.8223 135.859V136H33.126C33.0439 135.812 32.9795 135.563 32.9326 135.253C32.8857 134.937 32.8623 134.644 32.8623 134.374ZM33.1436 130.234L33.1611 131.377H31.5176C31.0547 131.377 30.6416 131.415 30.2783 131.491C29.915 131.562 29.6104 131.67 29.3643 131.816C29.1182 131.963 28.9307 132.147 28.8018 132.37C28.6729 132.587 28.6084 132.842 28.6084 133.135C28.6084 133.434 28.6758 133.706 28.8105 133.952C28.9453 134.198 29.1475 134.395 29.417 134.541C29.6924 134.682 30.0293 134.752 30.4277 134.752C30.9258 134.752 31.3652 134.646 31.7461 134.436C32.127 134.225 32.4287 133.967 32.6514 133.662C32.8799 133.357 33.0029 133.062 33.0205 132.774L33.7148 133.557C33.6738 133.803 33.5625 134.075 33.3809 134.374C33.1992 134.673 32.9561 134.96 32.6514 135.235C32.3525 135.505 31.9951 135.73 31.5791 135.912C31.1689 136.088 30.7061 136.176 30.1904 136.176C29.5459 136.176 28.9805 136.05 28.4941 135.798C28.0137 135.546 27.6387 135.209 27.3691 134.787C27.1055 134.359 26.9736 133.882 26.9736 133.354C26.9736 132.845 27.0732 132.396 27.2725 132.01C27.4717 131.617 27.7588 131.292 28.1338 131.034C28.5088 130.771 28.96 130.571 29.4873 130.437C30.0146 130.302 30.6035 130.234 31.2539 130.234H33.1436ZM38.8125 122.5V136H37.1777V122.5H38.8125ZM50.8535 130.981H47.4346V129.602H50.8535C51.5156 129.602 52.0518 129.496 52.4619 129.285C52.8721 129.074 53.1709 128.781 53.3584 128.406C53.5518 128.031 53.6484 127.604 53.6484 127.123C53.6484 126.684 53.5518 126.271 53.3584 125.884C53.1709 125.497 52.8721 125.187 52.4619 124.952C52.0518 124.712 51.5156 124.592 50.8535 124.592H47.8301V136H46.1338V123.203H50.8535C51.8203 123.203 52.6377 123.37 53.3057 123.704C53.9736 124.038 54.4805 124.501 54.8262 125.093C55.1719 125.679 55.3447 126.35 55.3447 127.105C55.3447 127.926 55.1719 128.626 54.8262 129.206C54.4805 129.786 53.9736 130.229 53.3057 130.533C52.6377 130.832 51.8203 130.981 50.8535 130.981ZM62.7451 134.374V129.479C62.7451 129.104 62.6689 128.778 62.5166 128.503C62.3701 128.222 62.1475 128.005 61.8486 127.853C61.5498 127.7 61.1807 127.624 60.7412 127.624C60.3311 127.624 59.9707 127.694 59.6602 127.835C59.3555 127.976 59.1152 128.16 58.9395 128.389C58.7695 128.617 58.6846 128.863 58.6846 129.127H57.0586C57.0586 128.787 57.1465 128.45 57.3223 128.116C57.498 127.782 57.75 127.48 58.0781 127.211C58.4121 126.936 58.8105 126.719 59.2734 126.561C59.7422 126.396 60.2637 126.314 60.8379 126.314C61.5293 126.314 62.1387 126.432 62.666 126.666C63.1992 126.9 63.6152 127.255 63.9141 127.729C64.2188 128.198 64.3711 128.787 64.3711 129.496V133.926C64.3711 134.242 64.3975 134.579 64.4502 134.937C64.5088 135.294 64.5938 135.602 64.7051 135.859V136H63.0088C62.9268 135.812 62.8623 135.563 62.8154 135.253C62.7686 134.937 62.7451 134.644 62.7451 134.374ZM63.0264 130.234L63.0439 131.377H61.4004C60.9375 131.377 60.5244 131.415 60.1611 131.491C59.7979 131.562 59.4932 131.67 59.2471 131.816C59.001 131.963 58.8135 132.147 58.6846 132.37C58.5557 132.587 58.4912 132.842 58.4912 133.135C58.4912 133.434 58.5586 133.706 58.6934 133.952C58.8281 134.198 59.0303 134.395 59.2998 134.541C59.5752 134.682 59.9121 134.752 60.3105 134.752C60.8086 134.752 61.248 134.646 61.6289 134.436C62.0098 134.225 62.3115 133.967 62.5342 133.662C62.7627 133.357 62.8857 133.062 62.9033 132.774L63.5977 133.557C63.5566 133.803 63.4453 134.075 63.2637 134.374C63.082 134.673 62.8389 134.96 62.5342 135.235C62.2354 135.505 61.8779 135.73 61.4619 135.912C61.0518 136.088 60.5889 136.176 60.0732 136.176C59.4287 136.176 58.8633 136.05 58.377 135.798C57.8965 135.546 57.5215 135.209 57.252 134.787C56.9883 134.359 56.8564 133.882 56.8564 133.354C56.8564 132.845 56.9561 132.396 57.1553 132.01C57.3545 131.617 57.6416 131.292 58.0166 131.034C58.3916 130.771 58.8428 130.571 59.3701 130.437C59.8975 130.302 60.4863 130.234 61.1367 130.234H63.0264ZM69.46 135.016L72.1055 126.49H73.8457L70.0312 137.468C69.9434 137.702 69.8262 137.954 69.6797 138.224C69.5391 138.499 69.3574 138.76 69.1348 139.006C68.9121 139.252 68.6426 139.451 68.3262 139.604C68.0156 139.762 67.6436 139.841 67.21 139.841C67.0811 139.841 66.917 139.823 66.7178 139.788C66.5186 139.753 66.3779 139.724 66.2959 139.7L66.2871 138.382C66.334 138.388 66.4072 138.394 66.5068 138.399C66.6123 138.411 66.6855 138.417 66.7266 138.417C67.0957 138.417 67.4092 138.367 67.667 138.268C67.9248 138.174 68.1416 138.013 68.3174 137.784C68.499 137.562 68.6543 137.254 68.7832 136.861L69.46 135.016ZM67.5176 126.49L69.9873 133.873L70.4092 135.587L69.2402 136.185L65.7422 126.49H67.5176ZM76.9395 127.984V136H75.3135V126.49H76.8955L76.9395 127.984ZM79.9102 126.438L79.9014 127.949C79.7666 127.92 79.6377 127.902 79.5146 127.896C79.3975 127.885 79.2627 127.879 79.1104 127.879C78.7354 127.879 78.4043 127.938 78.1172 128.055C77.8301 128.172 77.5869 128.336 77.3877 128.547C77.1885 128.758 77.0303 129.01 76.9131 129.303C76.8018 129.59 76.7285 129.906 76.6934 130.252L76.2363 130.516C76.2363 129.941 76.292 129.402 76.4033 128.898C76.5205 128.395 76.6992 127.949 76.9395 127.562C77.1797 127.17 77.4844 126.865 77.8535 126.648C78.2285 126.426 78.6738 126.314 79.1895 126.314C79.3066 126.314 79.4414 126.329 79.5938 126.358C79.7461 126.382 79.8516 126.408 79.9102 126.438ZM80.8066 131.351V131.148C80.8066 130.463 80.9062 129.827 81.1055 129.241C81.3047 128.649 81.5918 128.137 81.9668 127.703C82.3418 127.264 82.7959 126.924 83.3291 126.684C83.8623 126.438 84.46 126.314 85.1221 126.314C85.79 126.314 86.3906 126.438 86.9238 126.684C87.4629 126.924 87.9199 127.264 88.2949 127.703C88.6758 128.137 88.9658 128.649 89.165 129.241C89.3643 129.827 89.4639 130.463 89.4639 131.148V131.351C89.4639 132.036 89.3643 132.672 89.165 133.258C88.9658 133.844 88.6758 134.356 88.2949 134.796C87.9199 135.229 87.4658 135.569 86.9326 135.815C86.4053 136.056 85.8076 136.176 85.1396 136.176C84.4717 136.176 83.8711 136.056 83.3379 135.815C82.8047 135.569 82.3477 135.229 81.9668 134.796C81.5918 134.356 81.3047 133.844 81.1055 133.258C80.9062 132.672 80.8066 132.036 80.8066 131.351ZM82.4326 131.148V131.351C82.4326 131.825 82.4883 132.273 82.5996 132.695C82.7109 133.111 82.8779 133.48 83.1006 133.803C83.3291 134.125 83.6133 134.38 83.9531 134.567C84.293 134.749 84.6885 134.84 85.1396 134.84C85.585 134.84 85.9746 134.749 86.3086 134.567C86.6484 134.38 86.9297 134.125 87.1523 133.803C87.375 133.48 87.542 133.111 87.6533 132.695C87.7705 132.273 87.8291 131.825 87.8291 131.351V131.148C87.8291 130.68 87.7705 130.237 87.6533 129.821C87.542 129.399 87.3721 129.027 87.1436 128.705C86.9209 128.377 86.6396 128.119 86.2998 127.932C85.9658 127.744 85.5732 127.65 85.1221 127.65C84.6768 127.65 84.2842 127.744 83.9443 127.932C83.6104 128.119 83.3291 128.377 83.1006 128.705C82.8779 129.027 82.7109 129.399 82.5996 129.821C82.4883 130.237 82.4326 130.68 82.4326 131.148ZM93.2695 122.5V136H91.6348V122.5H93.2695ZM97.6465 122.5V136H96.0117V122.5H97.6465ZM108.527 134.84C108.914 134.84 109.271 134.761 109.6 134.603C109.928 134.444 110.197 134.228 110.408 133.952C110.619 133.671 110.739 133.352 110.769 132.994H112.315C112.286 133.557 112.096 134.081 111.744 134.567C111.398 135.048 110.944 135.438 110.382 135.736C109.819 136.029 109.201 136.176 108.527 136.176C107.812 136.176 107.188 136.05 106.655 135.798C106.128 135.546 105.688 135.2 105.337 134.761C104.991 134.321 104.73 133.817 104.555 133.249C104.385 132.675 104.3 132.068 104.3 131.43V131.061C104.3 130.422 104.385 129.818 104.555 129.25C104.73 128.676 104.991 128.169 105.337 127.729C105.688 127.29 106.128 126.944 106.655 126.692C107.188 126.44 107.812 126.314 108.527 126.314C109.271 126.314 109.922 126.467 110.479 126.771C111.035 127.07 111.472 127.48 111.788 128.002C112.11 128.518 112.286 129.104 112.315 129.76H110.769C110.739 129.367 110.628 129.013 110.435 128.696C110.247 128.38 109.989 128.128 109.661 127.94C109.339 127.747 108.961 127.65 108.527 127.65C108.029 127.65 107.61 127.75 107.271 127.949C106.937 128.143 106.67 128.406 106.471 128.74C106.277 129.068 106.137 129.435 106.049 129.839C105.967 130.237 105.926 130.645 105.926 131.061V131.43C105.926 131.846 105.967 132.256 106.049 132.66C106.131 133.064 106.269 133.431 106.462 133.759C106.661 134.087 106.928 134.351 107.262 134.55C107.602 134.743 108.023 134.84 108.527 134.84ZM113.713 131.351V131.148C113.713 130.463 113.812 129.827 114.012 129.241C114.211 128.649 114.498 128.137 114.873 127.703C115.248 127.264 115.702 126.924 116.235 126.684C116.769 126.438 117.366 126.314 118.028 126.314C118.696 126.314 119.297 126.438 119.83 126.684C120.369 126.924 120.826 127.264 121.201 127.703C121.582 128.137 121.872 128.649 122.071 129.241C122.271 129.827 122.37 130.463 122.37 131.148V131.351C122.37 132.036 122.271 132.672 122.071 133.258C121.872 133.844 121.582 134.356 121.201 134.796C120.826 135.229 120.372 135.569 119.839 135.815C119.312 136.056 118.714 136.176 118.046 136.176C117.378 136.176 116.777 136.056 116.244 135.815C115.711 135.569 115.254 135.229 114.873 134.796C114.498 134.356 114.211 133.844 114.012 133.258C113.812 132.672 113.713 132.036 113.713 131.351ZM115.339 131.148V131.351C115.339 131.825 115.395 132.273 115.506 132.695C115.617 133.111 115.784 133.48 116.007 133.803C116.235 134.125 116.52 134.38 116.859 134.567C117.199 134.749 117.595 134.84 118.046 134.84C118.491 134.84 118.881 134.749 119.215 134.567C119.555 134.38 119.836 134.125 120.059 133.803C120.281 133.48 120.448 133.111 120.56 132.695C120.677 132.273 120.735 131.825 120.735 131.351V131.148C120.735 130.68 120.677 130.237 120.56 129.821C120.448 129.399 120.278 129.027 120.05 128.705C119.827 128.377 119.546 128.119 119.206 127.932C118.872 127.744 118.479 127.65 118.028 127.65C117.583 127.65 117.19 127.744 116.851 127.932C116.517 128.119 116.235 128.377 116.007 128.705C115.784 129.027 115.617 129.399 115.506 129.821C115.395 130.237 115.339 130.68 115.339 131.148ZM129.946 133.478C129.946 133.243 129.894 133.026 129.788 132.827C129.688 132.622 129.48 132.438 129.164 132.273C128.854 132.104 128.385 131.957 127.758 131.834C127.23 131.723 126.753 131.591 126.325 131.438C125.903 131.286 125.543 131.102 125.244 130.885C124.951 130.668 124.726 130.413 124.567 130.12C124.409 129.827 124.33 129.484 124.33 129.092C124.33 128.717 124.412 128.362 124.576 128.028C124.746 127.694 124.983 127.398 125.288 127.141C125.599 126.883 125.971 126.681 126.404 126.534C126.838 126.388 127.321 126.314 127.854 126.314C128.616 126.314 129.267 126.449 129.806 126.719C130.345 126.988 130.758 127.349 131.045 127.8C131.332 128.245 131.476 128.74 131.476 129.285H129.85C129.85 129.021 129.771 128.767 129.612 128.521C129.46 128.269 129.234 128.061 128.936 127.896C128.643 127.732 128.282 127.65 127.854 127.65C127.403 127.65 127.037 127.721 126.756 127.861C126.48 127.996 126.278 128.169 126.149 128.38C126.026 128.591 125.965 128.813 125.965 129.048C125.965 129.224 125.994 129.382 126.053 129.522C126.117 129.657 126.229 129.783 126.387 129.9C126.545 130.012 126.768 130.117 127.055 130.217C127.342 130.316 127.708 130.416 128.153 130.516C128.933 130.691 129.574 130.902 130.078 131.148C130.582 131.395 130.957 131.696 131.203 132.054C131.449 132.411 131.572 132.845 131.572 133.354C131.572 133.771 131.484 134.151 131.309 134.497C131.139 134.843 130.89 135.142 130.562 135.394C130.239 135.64 129.853 135.833 129.401 135.974C128.956 136.108 128.455 136.176 127.898 136.176C127.061 136.176 126.352 136.026 125.771 135.728C125.191 135.429 124.752 135.042 124.453 134.567C124.154 134.093 124.005 133.592 124.005 133.064H125.64C125.663 133.51 125.792 133.864 126.026 134.128C126.261 134.386 126.548 134.57 126.888 134.682C127.228 134.787 127.564 134.84 127.898 134.84C128.344 134.84 128.716 134.781 129.015 134.664C129.319 134.547 129.551 134.386 129.709 134.181C129.867 133.976 129.946 133.741 129.946 133.478ZM137.689 126.49V127.738H132.548V126.49H137.689ZM134.288 124.179H135.914V133.645C135.914 133.967 135.964 134.21 136.063 134.374C136.163 134.538 136.292 134.646 136.45 134.699C136.608 134.752 136.778 134.778 136.96 134.778C137.095 134.778 137.235 134.767 137.382 134.743C137.534 134.714 137.648 134.69 137.725 134.673L137.733 136C137.604 136.041 137.435 136.079 137.224 136.114C137.019 136.155 136.77 136.176 136.477 136.176C136.078 136.176 135.712 136.097 135.378 135.938C135.044 135.78 134.777 135.517 134.578 135.147C134.385 134.772 134.288 134.269 134.288 133.636V124.179Z" fill="#3CCB93"/>
</svg>
