<svg width="30" height="29" viewBox="0 0 30 29" fill="none" xmlns="http://www.w3.org/2000/svg">
<path d="M20.5358 27.0973C20.5243 27.2183 20.4195 27.2425 20.3354 27.2759C19.3521 27.6653 18.3405 27.9539 17.2973 28.1348C16.9177 28.2005 16.5272 28.1884 16.1556 28.3036C15.4068 28.3036 14.658 28.3036 13.9091 28.3036C13.6597 28.197 13.3895 28.2333 13.1303 28.1947C12.5572 28.1083 11.9863 28.0173 11.4322 27.8427C11.4327 27.6987 11.4373 27.5547 11.4322 27.4107C11.4241 27.1843 11.5105 27.0887 11.7542 27.0899C14.6816 27.0973 17.609 27.0962 20.5358 27.0973Z" fill="#E5FBFE"/>
<path d="M20.5358 27.0983C17.6084 27.0971 14.681 27.0983 11.7542 27.0908C11.5105 27.0902 11.4241 27.1858 11.4322 27.4116C11.4373 27.5556 11.4327 27.6997 11.4322 27.8437C10.7565 27.6778 10.0877 27.4923 9.47363 27.1524C9.54852 27.0643 9.65105 27.0971 9.74264 27.0965C10.2115 27.0937 10.681 27.0827 11.1499 27.1006C11.3849 27.1098 11.4523 27.0263 11.4362 26.8051C11.4195 26.5764 11.4322 26.346 11.4322 26.1161C11.9961 26.1161 12.5606 26.1109 13.1245 26.1202C13.3135 26.1236 13.4016 26.0816 13.3953 25.8684C13.3815 25.4001 13.3815 24.9312 13.3953 24.4629C13.4016 24.2498 13.3129 24.2083 13.1245 24.2112C12.5606 24.2204 11.9961 24.2152 11.4322 24.2152C11.4327 23.8886 11.4327 23.5614 11.4333 23.2348C12.018 23.2354 12.6032 23.2285 13.1873 23.24C13.3855 23.2434 13.4569 23.1847 13.4517 22.9802C13.4391 22.5107 13.4477 22.0407 13.4471 21.5712C13.9782 21.2924 14.5128 21.0188 14.8936 20.5309C14.9448 20.49 14.9967 20.4485 15.0479 20.4076C16.0842 20.4093 17.1211 20.4076 18.1574 20.4168C18.3452 20.4186 18.4091 20.3592 18.4051 20.1703C18.3941 19.71 18.3918 19.2486 18.4056 18.7884C18.412 18.577 18.3515 18.5038 18.132 18.5073C17.4126 18.5188 16.6925 18.5102 15.973 18.509C15.9978 18.1841 16.022 17.8592 16.0468 17.5344C16.7472 17.5344 17.4471 17.5297 18.1476 17.5367C18.3227 17.5384 18.4114 17.5027 18.4062 17.3011C18.3941 16.8218 18.3964 16.342 18.4056 15.8627C18.4091 15.6882 18.3498 15.6283 18.1741 15.63C17.2824 15.6392 16.3901 15.6386 15.4984 15.6415C15.2824 15.3471 15.0802 15.0419 14.8279 14.7751C14.9189 14.6686 15.0422 14.7135 15.1516 14.7129C16.1476 14.7095 17.1435 14.7072 18.1395 14.7141C18.3313 14.7152 18.4137 14.6692 18.4074 14.4595C18.3935 13.9906 18.3958 13.5211 18.4068 13.0522C18.4114 12.8627 18.3452 12.8057 18.1585 12.8068C16.9805 12.8137 15.8031 12.8143 14.6251 12.8063C14.4195 12.8045 14.3624 12.876 14.3676 13.0718C14.3792 13.5027 14.3711 13.9336 14.3705 14.3644C14.0618 14.1951 13.753 14.0263 13.4448 13.8569C13.4465 13.619 13.4425 13.3806 13.4506 13.1432C13.4586 12.9082 13.3774 12.7988 13.1194 12.8057C12.5583 12.8212 11.9961 12.8109 11.4345 12.8114C11.4345 12.4848 11.4339 12.1582 11.4339 11.831C11.9978 11.8316 12.5618 11.8224 13.1251 11.8368C13.3452 11.8425 13.4033 11.7659 13.397 11.5563C13.3832 11.0977 13.3832 10.6386 13.397 10.1807C13.4033 9.96928 13.3181 9.92435 13.1274 9.92781C12.5641 9.93818 12.0001 9.93242 11.4362 9.93299C11.4356 9.62481 11.4356 9.31606 11.435 9.00788C12.0174 9.00846 12.5998 9.00327 13.1821 9.01249C13.3699 9.01537 13.4575 8.97562 13.4535 8.76191C13.4402 8.06548 13.446 7.36848 13.4442 6.67148C13.7547 6.63173 14.0658 6.64786 14.3768 6.66226C14.3751 7.36099 14.3803 8.05972 14.3676 8.75846C14.3636 8.96813 14.4442 9.01422 14.6361 9.01306C15.8037 9.00615 16.9719 9.00615 18.1395 9.01306C18.3302 9.01422 18.4126 8.96986 18.4085 8.75903C18.3958 8.0603 18.401 7.36157 18.3993 6.66284C18.7098 6.66284 19.0208 6.66226 19.3313 6.66226C19.3296 7.3512 19.3382 8.04014 19.321 8.7285C19.3152 8.9664 19.4005 9.01537 19.6182 9.01364C20.7662 9.00442 21.9143 9.00846 23.0629 9.00788C22.9805 9.31663 22.8981 9.62596 22.8158 9.93472C21.7432 9.93357 20.67 9.9376 19.5975 9.92666C19.3803 9.92435 19.3152 9.99175 19.3227 10.2049C19.3377 10.6352 19.3411 11.0672 19.3215 11.4975C19.31 11.7544 19.378 11.8431 19.6516 11.8391C20.6764 11.8224 21.7017 11.8322 22.7265 11.8322C22.67 12.1686 22.5658 12.4917 22.4627 12.8155C21.4943 12.8137 20.526 12.8155 19.5577 12.808C19.3843 12.8068 19.3204 12.8616 19.3244 13.0384C19.3336 13.4791 19.3434 13.9215 19.3215 14.361C19.3083 14.6317 19.3803 14.7245 19.6654 14.7187C20.4223 14.702 21.1798 14.7193 21.9373 14.7233C21.8958 14.9145 21.8549 15.1052 21.8135 15.2965C21.7731 15.4094 21.7328 15.5217 21.6931 15.6346C20.9857 15.6346 20.2783 15.6392 19.571 15.6306C19.3843 15.6283 19.3198 15.6876 19.3238 15.8759C19.3348 16.3443 19.3359 16.8126 19.3233 17.2809C19.3175 17.486 19.3912 17.5418 19.5877 17.539C20.1228 17.5309 20.6579 17.5424 21.1931 17.5459C21.1078 17.869 21.0231 18.1916 20.9379 18.5148C20.4799 18.5142 20.0214 18.5188 19.5635 18.5113C19.3981 18.5084 19.321 18.5516 19.3244 18.7348C19.3342 19.2216 19.3342 19.7083 19.3244 20.1951C19.321 20.3794 19.3993 20.4226 19.564 20.4174C19.8503 20.4088 20.1366 20.4151 20.4229 20.4157C20.3791 20.7331 20.2697 21.0332 20.1833 21.3391C19.9644 21.3385 19.7449 21.3431 19.5266 21.3356C19.3786 21.3304 19.3233 21.3892 19.3261 21.5367C19.3325 21.8886 19.3279 22.2411 19.3279 22.5937C19.3279 23.2348 19.3279 23.2348 19.9667 23.24C19.9811 23.3932 19.9961 23.5464 20.0105 23.6997C19.9327 23.8644 19.9569 24.0591 19.8549 24.2164C19.7881 24.2164 19.7196 24.2256 19.6539 24.2152C19.3837 24.172 19.3089 24.2889 19.3221 24.5493C19.3428 24.96 19.3417 25.373 19.3221 25.7838C19.31 26.0401 19.3774 26.1305 19.6516 26.1253C20.5992 26.1075 21.5473 26.1184 22.4955 26.1179C22.0704 26.4946 21.5416 26.6922 21.0508 26.9554C20.8878 27.0389 20.7271 27.123 20.5358 27.0983ZM16.3555 23.236C16.9592 23.236 17.5629 23.2319 18.1666 23.2388C18.3342 23.2406 18.4085 23.1951 18.4051 23.013C18.3953 22.5246 18.397 22.0355 18.4045 21.547C18.4068 21.3823 18.3429 21.3327 18.1844 21.3333C16.9863 21.3373 15.7887 21.3385 14.5906 21.3322C14.4056 21.331 14.3653 21.4082 14.3676 21.5729C14.3751 22.0522 14.3763 22.5315 14.3671 23.0101C14.3636 23.1893 14.431 23.2411 14.6021 23.2388C15.1868 23.2308 15.7714 23.236 16.3555 23.236ZM16.4154 9.92954C15.8112 9.92954 15.2069 9.93414 14.6027 9.92666C14.4321 9.92435 14.363 9.97447 14.3665 10.1548C14.3763 10.634 14.3774 11.1139 14.3659 11.5931C14.3613 11.789 14.4385 11.8345 14.6194 11.8339C15.7893 11.8276 16.9592 11.8281 18.1291 11.8333C18.3238 11.8339 18.4074 11.7682 18.4039 11.5666C18.3953 11.0966 18.3953 10.6265 18.4045 10.1571C18.4079 9.97907 18.3429 9.92493 18.17 9.92723C17.5859 9.93414 17.0007 9.92954 16.4154 9.92954ZM16.3509 24.2141C15.7755 24.2141 15.2006 24.2187 14.6251 24.2112C14.4512 24.2089 14.3607 24.2429 14.3659 24.4456C14.378 24.9249 14.3751 25.4042 14.3671 25.8834C14.3642 26.0545 14.4166 26.1202 14.5957 26.119C15.7651 26.1127 16.935 26.1127 18.1044 26.1196C18.295 26.1207 18.3532 26.0551 18.3492 25.8702C18.3388 25.4105 18.3359 24.9497 18.3503 24.49C18.3567 24.2786 18.2962 24.2043 18.0767 24.2095C17.5013 24.2233 16.9264 24.2141 16.3509 24.2141Z" fill="#CBEAFE"/>
<path d="M23.0681 0.769486C23.9126 0.769486 24.7576 0.768334 25.6021 0.770062C26.1995 0.771214 26.5232 1.0961 26.5249 1.68941C26.5284 3.15773 26.5324 4.62604 26.5359 6.09436C26.5318 6.58514 26.5278 7.07592 26.5232 7.5667C26.4345 7.49931 26.3458 7.43249 26.2571 7.36509C26.2622 7.08283 26.192 6.82362 25.9546 6.65484C25.8118 6.55346 25.8187 6.45035 25.859 6.30922C25.9247 6.08053 26.0174 5.85645 26.0123 5.61164L26.0071 5.61279C26.0243 5.59263 26.0411 5.57305 26.0583 5.55288C26.0923 5.43364 26.1372 5.31671 26.1591 5.19517C26.2185 4.86337 26.0209 4.55807 25.6816 4.44114C25.4097 4.34782 25.0825 4.48779 24.9328 4.76832C24.8608 4.90369 24.8083 5.04713 24.7951 5.20208C24.6995 5.52869 24.6044 5.85588 24.5088 6.18249C24.4322 6.18249 24.3556 6.18307 24.279 6.18307C24.279 5.69401 24.279 5.20438 24.2784 4.71533C24.2784 4.09033 24.1845 3.99413 23.5704 3.99413C20.3187 3.99413 17.067 3.99413 13.8153 3.99471C13.6909 3.99471 13.5664 4.0022 13.442 4.00623C12.7721 3.99701 12.1016 3.9878 11.4316 3.97858C11.4322 3.2833 11.4339 2.58803 11.4328 1.89333C11.4322 1.42156 11.5394 1.00739 12.01 0.781583C12.1344 0.779279 12.2588 0.778127 12.3833 0.775246C13.1482 0.757965 13.9144 0.812113 14.6788 0.744141C14.8124 0.752205 14.9455 0.767758 15.0791 0.767758C17.7421 0.770062 20.4051 0.769486 23.0681 0.769486Z" fill="#E5FBFE"/>
<path d="M12.0101 0.783734C11.5395 1.01012 11.4324 1.42371 11.4329 1.89548C11.4341 2.59076 11.4324 3.28603 11.4318 3.98073L11.4341 4.00492C10.6029 4.00204 9.77166 3.99628 8.94044 3.99859C8.61556 3.99974 8.44966 4.16161 8.44678 4.49916C8.44102 5.22497 8.45139 5.95135 8.45484 6.67715C8.44966 6.72496 8.43987 6.7722 8.43987 6.82001C8.44102 9.6662 8.44275 12.5124 8.44448 15.3586C8.28895 15.646 8.13342 15.934 7.97789 16.2215C7.38803 16.0562 6.79125 16.0706 6.1916 16.1478C6.19103 11.7705 6.19103 7.39316 6.19045 3.01587C6.19045 2.56484 6.18815 2.1138 6.1916 1.66276C6.19506 1.10459 6.52973 0.773365 7.09195 0.771061C8.30047 0.765301 9.50957 0.762421 10.7181 0.757812C11.149 0.767029 11.5793 0.775094 12.0101 0.783734Z" fill="#CBEAFE"/>
<path d="M2.98062 21.5009C2.67762 21.1789 2.51748 20.771 2.32739 20.3845C1.27382 18.2434 0.801475 15.9726 0.905738 13.5936C1.02498 10.8678 1.8562 8.37244 3.42877 6.13281C3.44548 6.15528 3.47025 6.17486 3.47716 6.20021C4.36483 9.51875 5.25077 12.8373 6.13729 16.1558C6.09812 16.1748 6.05837 16.1944 6.0192 16.2134C6.0002 16.2123 5.98003 16.2071 5.96218 16.2111C4.01748 16.6362 2.60562 18.6403 2.8343 20.6282C2.86829 20.9231 2.95642 21.2059 2.98062 21.5009Z" fill="#3CCB93"/>
<path d="M2.98028 21.5008C2.95608 21.2059 2.86737 20.923 2.83339 20.6275C2.6047 18.6396 4.01599 16.6362 5.96126 16.2105C5.97912 16.2065 5.99928 16.2116 6.01829 16.2128C5.75792 16.5901 5.79018 16.9519 6.07532 17.3009C6.04075 17.3977 5.94744 17.4017 5.87025 17.4375C5.4244 17.6431 5.0085 17.8879 4.69053 18.2796C4.17152 18.9184 3.95666 19.6385 3.99352 20.4622C4.02866 21.2491 4.35239 21.9086 4.90251 22.4127C5.64905 23.0964 6.56322 23.3775 7.58338 23.1725C8.12427 23.0636 8.60354 22.8297 8.97047 22.3891C8.75791 22.415 8.55227 22.4248 8.34547 22.4328C8.12139 22.4415 7.90077 22.4058 7.69282 22.3551C5.66748 21.862 4.76311 19.6172 5.78845 17.8919C5.91057 17.6869 6.11218 17.5411 6.18707 17.3078C6.70607 17.1949 7.22566 17.252 7.74467 17.3044C7.65538 19.0146 8.30745 20.3487 9.76137 21.275C9.66805 21.5895 9.50733 21.8729 9.28959 22.1102C9.13349 22.2808 9.07531 22.4513 9.16056 22.6506C9.25388 22.8683 9.41402 23.0285 9.66805 23.0601C9.75906 23.0717 9.86102 23.0296 9.93706 23.1154C9.91229 23.1529 9.88694 23.1909 9.86217 23.2283C9.43072 23.6022 8.9601 23.9132 8.43072 24.131C7.70146 24.389 6.95377 24.4409 6.1911 24.3332C5.74813 24.2047 5.304 24.0791 4.90308 23.8401C4.82474 23.7934 4.75159 23.7203 4.64444 23.7496C3.94974 23.1661 3.38811 22.4801 3.01369 21.6465C2.99007 21.5953 3.03212 21.5388 2.98028 21.5008Z" fill="#F3B401"/>
<path d="M26.5818 22.2557C26.265 22.7891 25.8503 23.2476 25.4407 23.7079C25.1492 24.0351 24.8244 24.3323 24.5133 24.6417C24.4465 24.7079 24.3894 24.7908 24.2806 24.7926C24.28 21.6486 24.2788 18.5046 24.2788 15.3611C24.2788 15.2776 24.2547 15.1866 24.3261 15.1158C24.7057 15.4314 25.0634 15.3444 25.2132 14.883C25.3341 14.5115 25.4292 14.1307 25.5312 13.7534C25.8076 12.731 26.0824 11.7079 26.3578 10.6849C26.4534 10.5426 26.4096 10.3508 26.5237 10.2148C26.5271 10.3583 26.5323 10.5017 26.5329 10.6457C26.5386 11.6797 26.5438 12.7143 26.549 13.7482C26.5571 13.7811 26.5651 13.8139 26.5726 13.8462C26.5813 13.8825 26.5899 13.9188 26.5985 13.955C26.4782 14.0386 26.526 14.1647 26.526 14.273C26.5231 16.8341 26.5237 19.3957 26.5254 21.9568C26.5265 22.0581 26.4874 22.1705 26.5818 22.2557Z" fill="#E5FBFE"/>
<path d="M6.13752 16.1556C5.251 12.837 4.36506 9.51849 3.47739 6.19995C3.47048 6.17518 3.44571 6.15502 3.429 6.13255C3.36852 5.60778 3.15193 5.12046 3.05977 4.6026C2.99179 4.22242 3.18649 3.82668 3.56034 3.71493C4.42958 3.45514 5.30573 3.21724 6.19052 3.01562C6.19109 7.39292 6.19109 11.7702 6.19167 16.1475C6.17497 16.1602 6.15653 16.1631 6.13752 16.1556Z" fill="#B7DEF3"/>
<path d="M26.5497 13.747C26.5445 12.713 26.5393 11.6784 26.5336 10.6444C26.533 10.501 26.5278 10.3576 26.5243 10.2136C26.5987 9.90941 26.654 9.59893 26.7502 9.30227C26.9518 8.68303 26.9109 8.10411 26.5232 7.5661C26.5272 7.07531 26.5313 6.58453 26.5359 6.09375C27.1908 6.9411 27.6735 7.88522 28.0756 8.87139C28.9535 11.0229 29.2709 13.2614 29.0503 15.5724C28.9276 16.8552 28.6355 18.1024 28.1545 19.3017C28.1378 19.3437 28.1084 19.38 28.0848 19.4192C27.9287 18.8391 27.7743 18.2585 27.6165 17.6784C27.2784 16.4365 26.9385 15.1957 26.5998 13.9538C26.5912 13.9175 26.5825 13.8812 26.5739 13.8449C26.5658 13.8126 26.5578 13.7798 26.5497 13.747Z" fill="#3CCB93"/>
<path d="M24.3262 15.1146C24.2548 15.1855 24.279 15.2765 24.279 15.36C24.279 18.504 24.2795 21.648 24.2807 24.7914C24.0186 25.0979 23.6949 25.3283 23.3561 25.5403C23.3561 25.2068 23.3567 24.8732 23.3561 24.5397C23.3556 24.1803 23.3343 24.1595 22.9621 24.1572C22.2761 24.1526 21.5906 24.148 20.9045 24.1434C20.9138 24.0737 20.9235 24.0046 20.9328 23.9355C21.1442 23.7396 21.2231 23.455 21.3982 23.235C21.9616 23.235 22.5249 23.2258 23.0883 23.2396C23.3066 23.2448 23.3677 23.1716 23.3613 22.9608C23.3475 22.5029 23.3475 22.0438 23.3613 21.5858C23.3677 21.3779 23.2888 21.3243 23.0952 21.33C22.7715 21.3393 22.4466 21.3249 22.1223 21.3203C22.1764 21.0098 22.2467 20.7027 22.3631 20.4084C22.6108 20.4095 22.8596 20.3992 23.1061 20.4153C23.3147 20.4291 23.3677 20.3433 23.3608 20.1498C23.3487 19.788 23.3573 19.4257 23.3573 19.0633C23.3573 18.5743 23.3573 18.5743 22.8919 18.4522C22.9305 18.1532 23.0192 17.8675 23.1303 17.5887C23.2444 17.591 23.3533 17.5668 23.351 17.4291C23.3475 17.2344 23.4051 17.034 23.3095 16.8462C23.4005 16.481 23.4909 16.1152 23.582 15.75C23.6234 15.6031 23.6632 15.4556 23.7075 15.3093C23.8884 14.7085 23.995 14.087 24.2225 13.5C24.3216 13.595 24.2646 13.7172 24.2795 13.8266C24.3043 14.0029 24.2277 14.1889 24.3273 14.3583C24.2582 14.6106 24.1482 14.8629 24.3262 15.1146Z" fill="#CBEAFE"/>
<path d="M26.5991 13.9551C26.9384 15.1964 27.2777 16.4378 27.6158 17.6797C27.7736 18.2598 27.928 18.8404 28.0841 19.4205C27.9868 19.8312 27.78 20.1976 27.5916 20.568C27.2944 21.1532 26.9597 21.7183 26.5812 22.2563C26.4873 22.1711 26.5259 22.0582 26.5259 21.9579C26.5236 19.3969 26.5236 16.8353 26.5265 14.2742C26.5271 14.1653 26.4793 14.0392 26.5991 13.9551Z" fill="#CBEAFE"/>
<path d="M8.43115 24.1331C8.96053 23.9154 9.43173 23.6043 9.8626 23.2305C10.3862 23.2316 10.9098 23.2328 11.4334 23.2339C11.4329 23.5605 11.4329 23.8877 11.4323 24.2143C10.8488 24.2143 10.2658 24.2195 9.6823 24.2103C9.49336 24.2074 9.40465 24.2483 9.41156 24.462C9.42539 24.9303 9.42539 25.3992 9.41156 25.8676C9.40523 26.0813 9.49394 26.1222 9.68288 26.1193C10.2658 26.1101 10.8493 26.1153 11.4329 26.1153C11.4329 26.3451 11.4202 26.5755 11.4369 26.8042C11.453 27.026 11.3856 27.1089 11.1506 27.0997C10.6823 27.0818 10.2128 27.0928 9.74336 27.0957C9.65177 27.0962 9.54924 27.0634 9.47435 27.1515C9.09359 27.0496 8.74509 26.882 8.43403 26.6383C8.43288 25.8036 8.43173 24.9684 8.43115 24.1331Z" fill="#B7DEF3"/>
<path d="M20.9039 24.1426C21.59 24.1472 22.2755 24.1518 22.9615 24.1564C23.3336 24.1587 23.355 24.1794 23.3555 24.5389C23.3561 24.8724 23.3555 25.2059 23.3555 25.5395C23.0969 25.7751 22.8302 25.9986 22.4915 26.1138C21.5433 26.1138 20.5952 26.1034 19.6476 26.1213C19.3728 26.1264 19.306 26.036 19.3181 25.7797C19.3377 25.369 19.3383 24.9559 19.3181 24.5452C19.3049 24.2849 19.3797 24.1673 19.6499 24.2111C19.715 24.2215 19.7835 24.2123 19.8509 24.2123C19.8319 24.3056 19.8129 24.3983 19.7933 24.4917C19.7208 24.8361 19.8388 25.0809 20.1165 25.1616C20.3918 25.2411 20.6217 25.0884 20.7282 24.7474C20.791 24.5475 20.8457 24.3448 20.9039 24.1426Z" fill="#E5FBFE"/>
<path d="M8.43091 24.1328C8.43149 24.9681 8.43264 25.8033 8.43322 26.6386C8.14808 26.5775 7.91997 26.4012 7.68264 26.2509C7.16479 25.9237 6.63253 25.6138 6.18726 25.1835C6.18841 24.9007 6.19014 24.6178 6.19129 24.335C6.95396 24.4433 7.70165 24.3909 8.43091 24.1328Z" fill="#CBEAFE"/>
<path d="M6.19159 24.335C6.19044 24.6178 6.18871 24.9007 6.18755 25.1835C5.61901 24.7647 5.10634 24.2855 4.64551 23.7509C4.75207 23.7215 4.82581 23.7947 4.90415 23.8413C5.30449 24.081 5.74862 24.2065 6.19159 24.335Z" fill="#3C118E"/>
<path d="M13.4421 4.00819C13.5666 4.00416 13.691 3.99667 13.8154 3.99667C17.0671 3.99609 20.3189 3.99609 23.5706 3.99609C24.184 3.99609 24.2779 4.09229 24.2785 4.71729C24.2785 5.20634 24.2785 5.69597 24.2791 6.18503C24.0383 6.28238 23.835 6.42639 23.695 6.65046C23.5804 6.65334 23.4657 6.6568 23.3517 6.65968C22.0112 6.65968 20.6702 6.65968 19.3298 6.65968C19.0193 6.65968 18.7083 6.66026 18.3978 6.66026C17.0573 6.66026 15.7163 6.65968 14.3759 6.65968C14.0648 6.64528 13.7538 6.62915 13.4433 6.6689L13.4485 6.64701C13.4462 5.76798 13.4439 4.8878 13.4421 4.00819Z" fill="#3CCB93"/>
<path d="M9.76157 21.2766C8.30765 20.3503 7.65558 19.0162 7.74487 17.306C7.82206 16.9442 7.89982 16.5825 7.97701 16.2207C8.13254 15.9333 8.28807 15.6452 8.4436 15.3578C8.73219 14.9886 9.04901 14.6458 9.41595 14.3526C9.90212 14.0537 10.39 13.7576 10.9707 13.6758C10.6285 14.17 10.6562 14.4252 11.0882 14.7702C11.087 14.7893 11.0865 14.8077 11.0853 14.8267C11.0375 14.8261 10.9949 14.8359 10.9689 14.882L10.9695 14.8808C10.4154 14.969 10.0219 15.3181 9.65903 15.7057C8.78173 16.6424 8.62735 18.1291 9.29728 19.2201C9.95224 20.2875 10.9384 20.7777 12.1786 20.6913C12.8704 20.6435 13.4966 20.3843 13.9666 19.8365C13.9856 19.8365 14.0041 19.8365 14.0231 19.8359C14.0605 20.3474 14.2811 20.5231 14.8935 20.53C14.5127 21.0179 13.9781 21.2915 13.447 21.5703C12.7961 21.8123 12.1222 21.8895 11.4326 21.8538C11.2276 21.7967 11.0219 21.7403 10.8059 21.7524C10.458 21.594 10.1101 21.4356 9.76157 21.2766Z" fill="#F8CD01"/>
<path d="M23.1297 17.5885C23.018 17.8673 22.9293 18.153 22.8912 18.4519C22.677 19.0937 22.5093 19.7486 22.3619 20.4082C22.2455 20.7025 22.1752 21.009 22.1217 21.32C21.9321 21.9773 21.7132 22.6242 21.3982 23.2342C21.223 23.4542 21.1441 23.7382 20.9327 23.9341C20.6124 23.8989 20.31 23.7964 20.007 23.6956C19.9926 23.5424 19.9777 23.3891 19.9633 23.2359C19.916 22.5885 20.0612 21.9635 20.1804 21.335C20.2674 21.0291 20.3768 20.729 20.42 20.4116C20.6245 19.7872 20.7847 19.1501 20.935 18.5113C21.0203 18.1881 21.105 17.8655 21.1902 17.5424C21.3705 16.9087 21.56 16.278 21.6902 15.6311C21.7305 15.5182 21.7709 15.4059 21.8106 15.293C21.9644 15.7469 22.2121 16.0787 22.7478 16.1132C23.1015 16.1363 23.3405 15.9537 23.5813 15.7492C23.4903 16.1144 23.3999 16.4802 23.3089 16.8454C23.2495 17.0937 23.1395 17.3287 23.1297 17.5885Z" fill="#39CE97"/>
<path d="M9.41665 14.352C9.04972 14.6458 8.7329 14.988 8.44431 15.3572C8.44258 12.511 8.44085 9.66483 8.4397 6.81864C8.4397 6.77083 8.44949 6.72359 8.45467 6.67578C8.77495 6.68385 9.09523 6.69133 9.41608 6.6994C9.41608 7.38718 9.42184 8.07497 9.4132 8.76218C9.41089 8.94767 9.4685 9.01333 9.65801 9.00988C10.2502 8.99951 10.8423 9.00527 11.4345 9.00469C11.4351 9.31287 11.4351 9.62163 11.4357 9.92981L11.4351 9.93038C10.8516 9.92981 10.268 9.93787 9.68509 9.92347C9.46504 9.91771 9.40628 9.99375 9.41262 10.204C9.42645 10.6625 9.42645 11.1222 9.41262 11.5807C9.40628 11.7939 9.49442 11.8359 9.68336 11.8324C10.2669 11.8232 10.8504 11.8284 11.4334 11.8284C11.4334 12.155 11.4339 12.4816 11.4339 12.8088C10.8688 12.8083 10.3032 12.8244 9.73923 12.8013C9.45928 12.7898 9.40052 12.8935 9.41205 13.1452C9.42933 13.5467 9.41665 13.9494 9.41665 14.352Z" fill="#B7DEF3"/>
<path d="M11.0887 14.7697C10.6567 14.4247 10.629 14.1695 10.9712 13.6752C11.125 13.6372 11.2794 13.5998 11.4332 13.5618C12.1221 13.5295 12.7955 13.6044 13.4435 13.8544C13.7523 14.0237 14.061 14.1925 14.3692 14.3619C14.5219 14.499 14.6739 14.6361 14.8266 14.7732C15.0789 15.0399 15.2811 15.3452 15.4971 15.6395C15.8099 16.2328 15.9902 16.8647 16.0466 17.5324C16.0219 17.8573 15.9977 18.1821 15.9729 18.507C15.7995 19.2057 15.5029 19.844 15.0484 20.4056C14.9971 20.4465 14.9453 20.488 14.894 20.5289C14.2817 20.522 14.0616 20.3463 14.0236 19.8348C14.6906 19.0571 15.0259 18.181 14.8306 17.1435C14.6042 15.9408 13.6774 14.988 12.3963 14.7553C11.9516 14.6752 11.5242 14.7467 11.0887 14.7697Z" fill="#FEE502"/>
<path d="M14.3751 6.66016C15.7156 6.66016 17.0566 6.66016 18.397 6.66073C18.3987 7.35946 18.393 8.05819 18.4062 8.75692C18.4103 8.96775 18.3285 9.01211 18.1372 9.01096C16.9696 9.00404 15.8014 9.00404 14.6338 9.01096C14.442 9.01211 14.3619 8.9666 14.3653 8.75635C14.3786 8.05762 14.3734 7.35889 14.3751 6.66016Z" fill="#E5FBFE"/>
<path d="M19.3292 6.66073C20.6697 6.66073 22.0107 6.66073 23.3511 6.66016C23.3926 6.98043 23.2895 7.30992 23.4128 7.62502C23.3373 8.09621 23.187 8.5484 23.0608 9.00635C21.9128 9.00693 20.7641 9.00232 19.6161 9.01211C19.3984 9.01384 19.3131 8.96487 19.3189 8.72697C19.3362 8.03861 19.3275 7.34967 19.3292 6.66073Z" fill="#E5FBFE"/>
<path d="M23.5808 15.7504C23.34 15.9554 23.101 16.1375 22.7473 16.1144C22.2116 16.0799 21.9639 15.7481 21.8101 15.2941C21.8515 15.1035 21.8924 14.9122 21.9339 14.721C22.1563 14.0977 22.306 13.4549 22.4598 12.8132C22.5629 12.4894 22.6672 12.1663 22.7237 11.8299C22.8279 11.4808 22.9316 11.1323 23.0359 10.7832C23.4356 10.9508 23.8521 11.0597 24.2778 11.1375C24.4414 11.2567 24.6303 11.1668 24.8043 11.2003C24.6142 11.9681 24.3607 12.7198 24.2208 13.5004C23.9932 14.0879 23.8867 14.7095 23.7058 15.3097C23.662 15.456 23.6223 15.6035 23.5808 15.7504Z" fill="#167952"/>
<path d="M16.356 23.2358C15.7714 23.2358 15.1867 23.2312 14.6026 23.2387C14.4309 23.241 14.3641 23.1886 14.3676 23.01C14.3768 22.5308 14.3756 22.0515 14.3681 21.5728C14.3658 21.4081 14.4062 21.3309 14.5911 21.332C15.7892 21.3384 16.9868 21.3372 18.1849 21.3332C18.3434 21.3326 18.4073 21.3827 18.405 21.5469C18.3975 22.0354 18.3964 22.5244 18.4056 23.0129C18.409 23.1955 18.3353 23.2404 18.1671 23.2387C17.564 23.2312 16.9603 23.2358 16.356 23.2358Z" fill="#E5FBFE"/>
<path d="M16.4154 9.92931C17.0006 9.92931 17.5853 9.93392 18.1705 9.92643C18.3434 9.92413 18.4084 9.97828 18.405 10.1563C18.3958 10.6257 18.3958 11.0964 18.4044 11.5658C18.4079 11.768 18.3243 11.8337 18.1296 11.8325C16.9597 11.8273 15.7898 11.8268 14.6199 11.8331C14.439 11.8343 14.3618 11.7882 14.3664 11.5923C14.3779 11.1131 14.3762 10.6332 14.367 10.154C14.3635 9.97367 14.4326 9.92355 14.6032 9.92586C15.2074 9.93392 15.8117 9.92931 16.4154 9.92931Z" fill="#E5FBFE"/>
<path d="M14.8268 14.7742C14.6741 14.6371 14.5221 14.5 14.3694 14.3629C14.3694 13.932 14.378 13.5006 14.3665 13.0703C14.3613 12.8744 14.4184 12.803 14.624 12.8047C15.802 12.8134 16.9794 12.8122 18.1574 12.8053C18.3441 12.8041 18.4097 12.8612 18.4057 13.0507C18.3947 13.5196 18.3924 13.989 18.4063 14.4579C18.4126 14.6682 18.3302 14.7143 18.1384 14.7125C17.1424 14.7051 16.1465 14.7079 15.1505 14.7114C15.0416 14.7125 14.9178 14.667 14.8268 14.7742Z" fill="#E5FBFE"/>
<path d="M16.351 24.2138C16.9265 24.2138 17.5014 24.2231 18.0763 24.2092C18.2957 24.2041 18.3562 24.2784 18.3499 24.4898C18.3361 24.9494 18.3389 25.4103 18.3487 25.8699C18.3528 26.0554 18.2952 26.1205 18.1039 26.1194C16.9346 26.1125 15.7646 26.113 14.5953 26.1188C14.4161 26.1199 14.3637 26.0543 14.3666 25.8832C14.3747 25.4039 14.3775 24.9247 14.3654 24.4454C14.3603 24.2421 14.4507 24.2087 14.6247 24.211C15.2007 24.2185 15.7762 24.2138 16.351 24.2138Z" fill="#E5FBFE"/>
<path d="M23.0358 10.7847C22.9315 11.1338 22.8278 11.4823 22.7235 11.8314C21.6988 11.8314 20.6734 11.8216 19.6487 11.8383C19.3745 11.8429 19.3071 11.7542 19.3186 11.4967C19.3382 11.0664 19.3342 10.6344 19.3197 10.2041C19.3123 9.99093 19.3774 9.92353 19.5945 9.92584C20.6671 9.93736 21.7403 9.93275 22.8128 9.9339C22.7074 10.264 22.8716 10.5243 23.0358 10.7847Z" fill="#E5FBFE"/>
<path d="M23.0358 10.7846C22.8716 10.5242 22.7074 10.2645 22.8128 9.93381C22.8952 9.62505 22.9776 9.31572 23.06 9.00697C23.1867 8.54902 23.3365 8.09683 23.4119 7.62564C23.5582 7.3163 23.5951 6.97472 23.6942 6.65156C23.8342 6.42806 24.0375 6.28347 24.2783 6.18612C24.3549 6.18612 24.4315 6.18555 24.5081 6.18555C24.8192 6.34396 25.1861 6.33186 25.5669 6.52426C25.1786 6.52829 25.0479 6.75064 24.977 7.01043C24.6803 8.1049 24.3998 9.2034 24.098 10.2967C24.0081 10.621 24.0335 10.8975 24.2771 11.1395C23.852 11.0611 23.4355 10.9517 23.0358 10.7846Z" fill="#3CCB93"/>
<path d="M22.4599 12.8142C22.3061 13.4559 22.1564 14.0987 21.934 14.722C21.1771 14.7185 20.4191 14.7007 19.6621 14.7174C19.377 14.7237 19.3044 14.6304 19.3182 14.3597C19.3401 13.9196 19.3303 13.4778 19.3211 13.0371C19.3171 12.8603 19.381 12.805 19.5544 12.8067C20.5233 12.8142 21.4916 12.8124 22.4599 12.8142Z" fill="#E5FBFE"/>
<path d="M15.0486 20.4063C15.5037 19.8447 15.8003 19.2064 15.9731 18.5077C16.6932 18.5089 17.4126 18.5175 18.1321 18.506C18.3516 18.5025 18.4121 18.5751 18.4057 18.7871C18.3919 19.2473 18.3942 19.7087 18.4051 20.169C18.4098 20.3579 18.3452 20.4173 18.1574 20.4155C17.1217 20.4063 16.0849 20.4086 15.0486 20.4063Z" fill="#E5FBFE"/>
<path d="M16.0469 17.5333C15.991 16.8657 15.8101 16.2338 15.4973 15.6405C16.389 15.6376 17.2813 15.6382 18.173 15.6289C18.3487 15.6272 18.408 15.6865 18.4046 15.8617C18.3959 16.3409 18.393 16.8208 18.4051 17.3C18.4103 17.5022 18.3216 17.5373 18.1465 17.5356C17.4472 17.5287 16.7473 17.5333 16.0469 17.5333Z" fill="#E5FBFE"/>
<path d="M13.4433 6.66837C13.445 7.36538 13.4392 8.06238 13.4525 8.75881C13.4565 8.97252 13.3689 9.01226 13.1812 9.00938C12.5988 9.00016 12.0164 9.00535 11.434 9.00477C11.4329 8.23577 11.4317 7.46676 11.43 6.69833L11.4231 6.67759C12.0982 6.66722 12.7733 6.65685 13.4484 6.64648L13.4433 6.66837Z" fill="#E5FBFE"/>
<path d="M21.6897 15.633C21.5595 16.2793 21.37 16.9106 21.1897 17.5443C20.6546 17.5408 20.1194 17.5299 19.5843 17.5374C19.3879 17.5403 19.3141 17.4838 19.3199 17.2793C19.3331 16.8116 19.3314 16.3427 19.3205 15.8744C19.3164 15.686 19.381 15.6267 19.5676 15.629C20.275 15.6376 20.9823 15.633 21.6897 15.633Z" fill="#E5FBFE"/>
<path d="M11.4352 9.93115C11.9991 9.93057 12.563 9.93633 13.1264 9.92596C13.3171 9.92251 13.4023 9.96744 13.396 10.1788C13.3822 10.6374 13.3822 11.0965 13.396 11.5544C13.4023 11.7641 13.3441 11.8407 13.1241 11.8349C12.5607 11.8205 11.9968 11.8298 11.4329 11.8292C11.4334 11.1967 11.434 10.5636 11.4346 9.93115C11.4346 9.93172 11.4352 9.93115 11.4352 9.93115Z" fill="#E5FBFE"/>
<path d="M11.4329 24.2152C11.9968 24.2152 12.5613 24.2203 13.1253 24.2111C13.3142 24.2077 13.4029 24.2497 13.396 24.4629C13.3822 24.9312 13.3822 25.4001 13.396 25.8684C13.4023 26.0815 13.3136 26.1236 13.1253 26.1201C12.5613 26.1103 11.9968 26.1161 11.4329 26.1161C11.4329 25.4819 11.4329 24.8488 11.4329 24.2152Z" fill="#E5FBFE"/>
<path d="M11.4333 21.8537C12.1229 21.8889 12.7968 21.8117 13.4477 21.5703C13.4477 22.0398 13.4391 22.5098 13.4524 22.9793C13.4581 23.1838 13.3867 23.2425 13.188 23.2391C12.6033 23.2281 12.0186 23.2345 11.4339 23.2339C11.4333 22.7736 11.4333 22.3134 11.4333 21.8537Z" fill="#E5FBFE"/>
<path d="M20.9347 18.512C20.7843 19.1514 20.6248 19.7879 20.4197 20.4123C20.1334 20.4123 19.8465 20.4054 19.5608 20.414C19.3961 20.4192 19.3172 20.376 19.3212 20.1917C19.331 19.7049 19.331 19.2182 19.3212 18.7314C19.3177 18.5483 19.3949 18.5051 19.5602 18.5079C20.0182 18.516 20.4761 18.5114 20.9347 18.512Z" fill="#E5FBFE"/>
<path d="M13.4437 13.8544C12.7957 13.6038 12.1223 13.5295 11.4333 13.5617C11.4333 13.3106 11.4333 13.06 11.4333 12.8089C11.995 12.8083 12.5572 12.8186 13.1183 12.8031C13.3763 12.7956 13.4575 12.9056 13.4495 13.1406C13.4414 13.378 13.4449 13.6165 13.4437 13.8544Z" fill="#E5FBFE"/>
<path d="M20.1798 21.3358C20.0606 21.9643 19.9154 22.5893 19.9626 23.2367C19.3238 23.2315 19.3238 23.2315 19.3238 22.5904C19.3238 22.2379 19.3284 21.8859 19.3221 21.5334C19.3198 21.3859 19.3751 21.3272 19.5226 21.3323C19.7414 21.3398 19.9609 21.3352 20.1798 21.3358Z" fill="#E5FBFE"/>
<path d="M20.007 23.6953C20.31 23.7967 20.6124 23.8987 20.9326 23.9338C20.9234 24.0035 20.9136 24.0726 20.9044 24.1423C20.8462 24.3439 20.7915 24.5467 20.7293 24.7472C20.6227 25.0882 20.3935 25.2414 20.1176 25.1613C19.8393 25.0807 19.7212 24.8359 19.7944 24.4914C19.814 24.3987 19.833 24.3053 19.852 24.212C19.9528 24.0553 19.9286 23.8601 20.007 23.6953Z" fill="#167952"/>
<path d="M24.2778 11.1374C24.0342 10.8955 24.0088 10.619 24.0987 10.2947C24.4005 9.20196 24.681 8.10289 24.9777 7.00842C25.0486 6.74805 25.1793 6.5257 25.5676 6.52225C25.1862 6.33043 24.8199 6.34195 24.5088 6.18354C24.6044 5.85693 24.6995 5.52974 24.7951 5.20312C24.9766 5.53723 25.2104 5.79126 25.6367 5.72041C25.7646 5.69909 25.8873 5.64898 26.0123 5.61153C26.0175 5.85635 25.9247 6.08043 25.859 6.30911C25.8187 6.44967 25.8118 6.55278 25.9547 6.65473C26.192 6.82351 26.2623 7.08273 26.2571 7.36499C26.2018 7.56775 26.1476 7.77052 26.0912 7.9727C25.8942 8.6795 25.6908 9.38457 25.5002 10.0931C25.3913 10.498 25.5964 10.7325 26.0146 10.7429C26.1401 10.7457 26.2335 10.6346 26.3579 10.6841C26.0825 11.7071 25.8084 12.7302 25.5313 13.7526C25.4293 14.1305 25.3337 14.5107 25.2133 14.8822C25.0635 15.3437 24.7058 15.4306 24.3262 15.115C24.1482 14.8632 24.2582 14.6109 24.3256 14.3586C24.6361 13.2354 24.9472 12.1121 25.2726 10.9335C25.0883 11.0579 24.9622 11.1593 24.8037 11.2002C24.6304 11.1674 24.4414 11.2567 24.2778 11.1374Z" fill="#167952"/>
<path d="M13.4484 6.64809C12.7733 6.65846 12.0982 6.66883 11.4231 6.67919C11.4266 5.78807 11.43 4.89636 11.4335 4.00466L11.4312 3.98047C12.1011 3.98969 12.7716 3.9989 13.4415 4.00812C13.4438 4.8883 13.4461 5.76848 13.4484 6.64809Z" fill="#24A271"/>
<path d="M26.358 10.6844C26.2335 10.6354 26.1402 10.7466 26.0147 10.7431C25.597 10.7327 25.3914 10.4983 25.5003 10.0933C25.6909 9.38481 25.8937 8.67975 26.0913 7.97295C26.1477 7.77076 26.2019 7.568 26.2572 7.36523C26.3459 7.43205 26.4346 7.49945 26.5233 7.56685C26.911 8.10486 26.9519 8.6832 26.7503 9.30302C26.6535 9.59968 26.5982 9.91016 26.5244 10.2143C26.4098 10.3503 26.4542 10.5421 26.358 10.6844Z" fill="#167952"/>
<path d="M26.0123 5.61243C25.8873 5.64929 25.7641 5.69998 25.6368 5.7213C25.2105 5.79272 24.9766 5.53812 24.7952 5.20402C24.8084 5.04906 24.8608 4.90563 24.9328 4.77026C25.0826 4.48973 25.4098 4.34918 25.6817 4.44307C26.021 4.56001 26.2185 4.86531 26.1592 5.1971C26.1373 5.31865 26.093 5.43558 26.0584 5.55482C26.0411 5.57498 26.0244 5.59457 26.0071 5.61473L26.0123 5.61243Z" fill="#3CCB93"/>
<path d="M26.0071 5.61264C26.0244 5.59248 26.0411 5.5729 26.0583 5.55273C26.0411 5.5729 26.0244 5.59306 26.0071 5.61264Z" fill="#6083F9"/>
<path d="M11.4336 4.00488C11.4302 4.89658 11.4267 5.78771 11.4232 6.67941L11.4302 6.70015C10.7585 6.70015 10.0874 6.70073 9.41576 6.70073C9.09548 6.69266 8.77463 6.68517 8.45435 6.67711C8.4509 5.95073 8.44053 5.22492 8.44629 4.49912C8.44917 4.16156 8.61507 3.9997 8.93995 3.99854C9.77117 3.99624 10.6024 4.00258 11.4336 4.00488Z" fill="#167952"/>
<path d="M7.97716 16.221C7.89997 16.5827 7.82221 16.9445 7.74502 17.3062C7.22543 17.2538 6.70643 17.1968 6.18742 17.3097C6.15055 17.3068 6.11311 17.3039 6.07624 17.3011C5.7911 16.9526 5.75885 16.5902 6.01922 16.2129C6.05839 16.1939 6.09813 16.1743 6.1373 16.1553C6.15689 16.1628 6.17474 16.1599 6.19145 16.1473C6.7911 16.0701 7.38788 16.0557 7.97716 16.221Z" fill="#FEE502"/>
<path d="M6.07575 17.3008C6.11319 17.3037 6.15006 17.3065 6.18693 17.3094C6.11204 17.5427 5.90985 17.6879 5.78773 17.8935C4.76239 19.6187 5.66677 21.8636 7.69211 22.3566C7.90006 22.4073 8.12068 22.443 8.34475 22.4344C8.55155 22.4263 8.75777 22.416 8.96975 22.3906C8.60282 22.8307 8.12298 23.0652 7.58266 23.174C6.5625 23.3791 5.64833 23.098 4.90179 22.4142C4.35168 21.9096 4.02795 21.2507 3.99281 20.4638C3.95594 19.6401 4.17023 18.92 4.68981 18.2812C5.00778 17.8895 5.42368 17.6447 5.86953 17.439C5.94787 17.4022 6.04119 17.3976 6.07575 17.3008Z" fill="#ED9D00"/>
<path d="M9.76168 21.2773C10.1096 21.4358 10.4581 21.5947 10.806 21.7531C10.6286 22.2796 10.3216 22.7232 9.93737 23.1178C9.86133 23.0319 9.75938 23.074 9.66836 23.0625C9.41433 23.0302 9.25419 22.8707 9.16087 22.6529C9.07562 22.4536 9.1338 22.2831 9.28991 22.1126C9.50765 21.8758 9.66836 21.5924 9.76168 21.2773Z" fill="#FEE502"/>
<path d="M9.93743 23.1182C10.3216 22.7236 10.6293 22.2801 10.8061 21.7536C11.0227 21.7415 11.2278 21.798 11.4328 21.855C11.4328 22.3152 11.4328 22.7749 11.4334 23.2352C10.9098 23.234 10.3862 23.2329 9.86255 23.2317C9.88789 23.1937 9.91266 23.1557 9.93743 23.1182Z" fill="#CBEAFE"/>
<path d="M26.5496 13.748C26.5576 13.7809 26.5657 13.8137 26.5732 13.846C26.5657 13.8137 26.5576 13.7809 26.5496 13.748Z" fill="#CBEAFE"/>
<path d="M21.3975 23.2345C21.7126 22.6245 21.9309 21.9776 22.121 21.3203C22.4453 21.3249 22.7702 21.3393 23.0939 21.3301C23.288 21.3243 23.3664 21.3779 23.36 21.5859C23.3462 22.0438 23.3462 22.5029 23.36 22.9609C23.3664 23.1717 23.3059 23.2454 23.087 23.2397C22.5248 23.2253 21.9608 23.2351 21.3975 23.2345Z" fill="#E5FBFE"/>
<path d="M22.3613 20.4093C22.5088 19.7492 22.6764 19.0948 22.8907 18.4531C23.3561 18.5758 23.3561 18.5758 23.3561 19.0643C23.3561 19.4266 23.3475 19.789 23.3596 20.1507C23.3659 20.3442 23.3129 20.4301 23.105 20.4163C22.8579 20.4001 22.6096 20.4105 22.3613 20.4093Z" fill="#E5FBFE"/>
<path d="M24.804 11.2003C24.9624 11.16 25.0885 11.058 25.2729 10.9336C24.9468 12.1122 24.6364 13.2354 24.3253 14.3587C24.2251 14.1888 24.3023 14.0033 24.2775 13.827C24.2625 13.7176 24.3195 13.5955 24.2205 13.5004C24.3604 12.7199 24.6139 11.9682 24.804 11.2003Z" fill="#E5FBFE"/>
<path d="M23.1299 17.5882C23.1397 17.329 23.2503 17.0934 23.3085 16.8457C23.4047 17.0341 23.347 17.2345 23.3499 17.4287C23.3522 17.5663 23.2439 17.5905 23.1299 17.5882Z" fill="#E5FBFE"/>
<path d="M11.4328 24.2157C11.4328 24.8493 11.4328 25.483 11.4328 26.116C10.8492 26.116 10.2663 26.1108 9.68276 26.1201C9.4944 26.1229 9.40511 26.082 9.41145 25.8683C9.42527 25.4 9.42527 24.9311 9.41145 24.4628C9.40511 24.2491 9.49382 24.2082 9.68219 24.2111C10.2657 24.2209 10.8492 24.2151 11.4328 24.2157Z" fill="#CBEAFE"/>
<path d="M23.6944 6.65039C23.5953 6.97355 23.559 7.31514 23.4121 7.62447C23.2889 7.30938 23.392 6.97988 23.3505 6.65961C23.4657 6.65673 23.5804 6.65327 23.6944 6.65039Z" fill="#CBEAFE"/>
<path d="M11.089 14.77C11.5245 14.7469 11.9519 14.6755 12.3966 14.7561C13.6777 14.9894 14.6046 15.9416 14.831 17.1444C15.0262 18.1818 14.6904 19.058 14.0239 19.8356C14.0049 19.8362 13.9865 19.8362 13.9675 19.8362C13.5032 19.9042 13.0349 19.9416 12.5769 19.8218C10.483 19.2734 9.61784 16.8869 10.8483 15.1565C10.9099 15.0701 10.9894 14.9992 10.9704 14.8806L10.9698 14.8817C11.0176 14.8817 11.0602 14.8725 11.0862 14.8264C11.0873 14.808 11.0879 14.789 11.089 14.77Z" fill="#F3B401"/>
<path d="M10.9708 14.8809C10.9898 14.9995 10.9103 15.0704 10.8487 15.1568C9.61824 16.8866 10.4834 19.2737 12.5773 19.8221C13.0353 19.9419 13.5036 19.9045 13.9679 19.8365C13.4973 20.3843 12.8717 20.6435 12.1799 20.6913C10.9397 20.7777 9.9535 20.2875 9.29854 19.2201C8.62919 18.1291 8.78357 16.6424 9.66029 15.7057C10.0232 15.3181 10.4166 14.969 10.9708 14.8809Z" fill="#ED9D00"/>
<path d="M11.4336 12.8105C11.4336 13.0617 11.4336 13.3122 11.4336 13.5634C11.2798 13.6014 11.1254 13.6388 10.9716 13.6769C10.3904 13.7581 9.9031 14.0547 9.41693 14.3537C9.41693 13.9516 9.43018 13.549 9.41174 13.1475C9.40022 12.8958 9.45898 12.7921 9.73893 12.8036C10.3029 12.8261 10.8685 12.8099 11.4336 12.8105Z" fill="#CBEAFE"/>
<path d="M11.0866 14.8262C11.0612 14.8723 11.018 14.8815 10.9702 14.8815C10.9956 14.8354 11.0388 14.8262 11.0866 14.8262Z" fill="#ED9D00"/>
<path d="M9.41527 6.69979C10.0869 6.69979 10.758 6.69922 11.4297 6.69922C11.4308 7.46823 11.432 8.23723 11.4337 9.00567C10.8415 9.00624 10.2494 9.00048 9.65721 9.01085C9.46769 9.01431 9.41066 8.94864 9.41239 8.76315C9.42103 8.07537 9.41527 7.38758 9.41527 6.69979Z" fill="#CBEAFE"/>
<path d="M11.4345 9.93099C11.434 10.5635 11.4334 11.1965 11.4328 11.829C10.8493 11.829 10.2658 11.8238 9.68281 11.8331C9.49387 11.8359 9.40574 11.7945 9.41207 11.5813C9.42647 11.1228 9.4259 10.6631 9.41207 10.2046C9.40574 9.99435 9.46449 9.91889 9.68454 9.92408C10.2675 9.93848 10.851 9.92984 11.4345 9.93099Z" fill="#CBEAFE"/>
</svg>
