<svg width="272" height="56" viewBox="0 0 272 56" fill="none" xmlns="http://www.w3.org/2000/svg">
<path d="M67.5558 33.7097V35.9087H59.0141V33.7097H67.5558ZM59.7986 19.8198V35.9087H57.0251V19.8198H59.7986ZM66.4397 26.5382V28.704H59.0141V26.5382H66.4397ZM67.5005 19.8198V22.0298H59.0141V19.8198H67.5005ZM72.2189 26.3835V35.9087H69.5558V23.9525H72.0642L72.2189 26.3835ZM71.788 29.4886L70.8819 29.4775C70.8819 28.6525 70.985 27.89 71.1913 27.1902C71.3975 26.4903 71.6996 25.8826 72.0974 25.3669C72.4952 24.8439 72.9887 24.4424 73.5781 24.1625C74.1748 23.8752 74.8636 23.7315 75.6444 23.7315C76.1896 23.7315 76.6868 23.8125 77.1362 23.9746C77.5929 24.1293 77.9871 24.3761 78.3186 24.715C78.6574 25.0538 78.9153 25.4885 79.0921 26.0189C79.2762 26.5493 79.3683 27.1902 79.3683 27.9416V35.9087H76.7052V28.1736C76.7052 27.5917 76.6168 27.1349 76.44 26.8034C76.2706 26.4719 76.0238 26.2362 75.6997 26.0962C75.3829 25.9489 75.0035 25.8752 74.5615 25.8752C74.0606 25.8752 73.6333 25.971 73.2797 26.1625C72.9335 26.3541 72.6499 26.6156 72.4289 26.9471C72.2079 27.2786 72.0458 27.6617 71.9427 28.0963C71.8395 28.5309 71.788 28.995 71.788 29.4886ZM79.2026 28.7814L77.9539 29.0576C77.9539 28.3357 78.0534 27.6543 78.2523 27.0134C78.4585 26.3651 78.7569 25.7979 79.1473 25.3117C79.5451 24.8181 80.035 24.4313 80.617 24.1514C81.1989 23.8715 81.8656 23.7315 82.617 23.7315C83.2285 23.7315 83.7736 23.8162 84.2524 23.9857C84.7387 24.1477 85.1512 24.4056 85.4901 24.7592C85.8289 25.1128 86.0868 25.5732 86.2636 26.1404C86.4404 26.7003 86.5288 27.378 86.5288 28.1736V35.9087H83.8546V28.1626C83.8546 27.5585 83.7662 27.0907 83.5894 26.7592C83.42 26.4277 83.1769 26.1994 82.8601 26.0741C82.5434 25.9415 82.164 25.8752 81.722 25.8752C81.3094 25.8752 80.9448 25.9526 80.628 26.1073C80.3186 26.2546 80.0571 26.4646 79.8435 26.7371C79.6298 27.0023 79.4678 27.308 79.3573 27.6543C79.2541 28.0005 79.2026 28.3762 79.2026 28.7814ZM91.9433 26.2509V40.5055H89.2802V23.9525H91.7334L91.9433 26.2509ZM99.7336 29.8201V30.0522C99.7336 30.9214 99.6305 31.7281 99.4242 32.4721C99.2253 33.2088 98.927 33.8534 98.5291 34.4059C98.1387 34.951 97.6562 35.3746 97.0816 35.6766C96.507 35.9787 95.844 36.1297 95.0926 36.1297C94.3485 36.1297 93.6966 35.9934 93.1367 35.7208C92.5842 35.4409 92.1164 35.0468 91.7334 34.5385C91.3503 34.0302 91.0409 33.4335 90.8051 32.7484C90.5768 32.0559 90.4147 31.2971 90.3189 30.4721V29.577C90.4147 28.7004 90.5768 27.9048 90.8051 27.1902C91.0409 26.4756 91.3503 25.8605 91.7334 25.3448C92.1164 24.8291 92.5842 24.4313 93.1367 24.1514C93.6892 23.8715 94.3338 23.7315 95.0705 23.7315C95.8219 23.7315 96.4886 23.8788 97.0705 24.1735C97.6525 24.4608 98.1424 24.8733 98.5402 25.4111C98.938 25.9415 99.2364 26.5824 99.4353 27.3338C99.6342 28.0779 99.7336 28.9066 99.7336 29.8201ZM97.0705 30.0522V29.8201C97.0705 29.2676 97.019 28.7556 96.9158 28.2841C96.8127 27.8053 96.6506 27.3854 96.4296 27.0244C96.2086 26.6635 95.925 26.3835 95.5788 26.1846C95.2399 25.9784 94.8311 25.8752 94.3522 25.8752C93.8808 25.8752 93.4756 25.9563 93.1367 26.1183C92.7978 26.273 92.5142 26.4903 92.2859 26.7703C92.0575 27.0502 91.8807 27.378 91.7555 27.7537C91.6302 28.1221 91.5418 28.5236 91.4903 28.9582V31.1019C91.5787 31.6323 91.7297 32.1185 91.9433 32.5605C92.1569 33.0025 92.459 33.3561 92.8494 33.6213C93.2472 33.8792 93.7555 34.0081 94.3743 34.0081C94.8532 34.0081 95.262 33.9049 95.6009 33.6987C95.9397 33.4924 96.216 33.2088 96.4296 32.8478C96.6506 32.4795 96.8127 32.0559 96.9158 31.5771C97.019 31.0982 97.0705 30.5899 97.0705 30.0522ZM104.85 18.9358V35.9087H102.176V18.9358H104.85ZM107.259 30.0632V29.809C107.259 28.9471 107.384 28.1479 107.634 27.4112C107.885 26.6671 108.246 26.0226 108.717 25.4774C109.196 24.9249 109.778 24.4976 110.463 24.1956C111.156 23.8862 111.937 23.7315 112.806 23.7315C113.682 23.7315 114.463 23.8862 115.148 24.1956C115.841 24.4976 116.427 24.9249 116.905 25.4774C117.384 26.0226 117.749 26.6671 117.999 27.4112C118.25 28.1479 118.375 28.9471 118.375 29.809V30.0632C118.375 30.9251 118.25 31.7244 117.999 32.4611C117.749 33.1977 117.384 33.8423 116.905 34.3948C116.427 34.94 115.845 35.3672 115.16 35.6766C114.474 35.9787 113.697 36.1297 112.828 36.1297C111.951 36.1297 111.167 35.9787 110.474 35.6766C109.789 35.3672 109.207 34.94 108.728 34.3948C108.25 33.8423 107.885 33.1977 107.634 32.4611C107.384 31.7244 107.259 30.9251 107.259 30.0632ZM109.922 29.809V30.0632C109.922 30.601 109.977 31.1093 110.088 31.5881C110.198 32.0669 110.371 32.4869 110.607 32.8478C110.843 33.2088 111.145 33.4924 111.513 33.6987C111.881 33.9049 112.32 34.0081 112.828 34.0081C113.322 34.0081 113.749 33.9049 114.11 33.6987C114.478 33.4924 114.78 33.2088 115.016 32.8478C115.252 32.4869 115.425 32.0669 115.535 31.5881C115.653 31.1093 115.712 30.601 115.712 30.0632V29.809C115.712 29.2786 115.653 28.7777 115.535 28.3062C115.425 27.8274 115.248 27.4038 115.005 27.0355C114.769 26.6671 114.467 26.3798 114.099 26.1736C113.738 25.9599 113.307 25.8531 112.806 25.8531C112.305 25.8531 111.87 25.9599 111.502 26.1736C111.141 26.3798 110.843 26.6671 110.607 27.0355C110.371 27.4038 110.198 27.8274 110.088 28.3062C109.977 28.7777 109.922 29.2786 109.922 29.809ZM123.9 34.6048L127.149 23.9525H130L125.204 37.732C125.094 38.0266 124.95 38.3471 124.773 38.6933C124.596 39.0395 124.364 39.3674 124.077 39.6768C123.797 39.9935 123.447 40.2477 123.027 40.4392C122.607 40.6381 122.099 40.7376 121.502 40.7376C121.267 40.7376 121.038 40.7155 120.817 40.6713C120.604 40.6344 120.401 40.5939 120.209 40.5497L120.198 38.5165C120.272 38.5239 120.36 38.5312 120.464 38.5386C120.574 38.546 120.662 38.5497 120.729 38.5497C121.171 38.5497 121.539 38.4944 121.834 38.3839C122.128 38.2808 122.368 38.1113 122.552 37.8756C122.744 37.6399 122.906 37.3231 123.038 36.9253L123.9 34.6048ZM122.066 23.9525L124.906 32.9031L125.381 35.7098L123.535 36.1849L119.193 23.9525H122.066ZM136.641 36.1297C135.757 36.1297 134.958 35.986 134.243 35.6987C133.536 35.4041 132.932 34.9952 132.431 34.4722C131.937 33.9491 131.558 33.334 131.293 32.6268C131.027 31.9196 130.895 31.1572 130.895 30.3395V29.8974C130.895 28.9619 131.031 28.1147 131.304 27.3559C131.576 26.5972 131.956 25.9489 132.442 25.4111C132.928 24.866 133.503 24.4498 134.166 24.1625C134.829 23.8752 135.547 23.7315 136.32 23.7315C137.175 23.7315 137.923 23.8752 138.564 24.1625C139.204 24.4498 139.735 24.8549 140.155 25.378C140.582 25.8936 140.899 26.5088 141.105 27.2233C141.319 27.9379 141.426 28.7261 141.426 29.588V30.7262H132.188V28.8145H138.796V28.6046C138.781 28.1258 138.685 27.6764 138.508 27.2565C138.339 26.8366 138.077 26.4977 137.724 26.2399C137.37 25.982 136.899 25.8531 136.309 25.8531C135.867 25.8531 135.473 25.9489 135.127 26.1404C134.788 26.3246 134.505 26.5935 134.276 26.9471C134.048 27.3007 133.871 27.728 133.746 28.2289C133.628 28.7225 133.569 29.2786 133.569 29.8974V30.3395C133.569 30.8625 133.639 31.3487 133.779 31.7981C133.926 32.2401 134.14 32.6268 134.42 32.9583C134.7 33.2898 135.039 33.5513 135.436 33.7429C135.834 33.927 136.287 34.0191 136.796 34.0191C137.436 34.0191 138.007 33.8902 138.508 33.6324C139.009 33.3745 139.444 33.0099 139.812 32.5384L141.216 33.8976C140.958 34.2733 140.623 34.6342 140.21 34.9805C139.798 35.3194 139.293 35.5956 138.696 35.8092C138.107 36.0229 137.422 36.1297 136.641 36.1297ZM148.774 36.1297C147.89 36.1297 147.091 35.986 146.376 35.6987C145.669 35.4041 145.065 34.9952 144.564 34.4722C144.07 33.9491 143.691 33.334 143.426 32.6268C143.16 31.9196 143.028 31.1572 143.028 30.3395V29.8974C143.028 28.9619 143.164 28.1147 143.437 27.3559C143.709 26.5972 144.089 25.9489 144.575 25.4111C145.061 24.866 145.636 24.4498 146.299 24.1625C146.962 23.8752 147.68 23.7315 148.453 23.7315C149.308 23.7315 150.056 23.8752 150.697 24.1625C151.337 24.4498 151.868 24.8549 152.288 25.378C152.715 25.8936 153.032 26.5088 153.238 27.2233C153.452 27.9379 153.559 28.7261 153.559 29.588V30.7262H144.321V28.8145H150.929V28.6046C150.914 28.1258 150.818 27.6764 150.641 27.2565C150.472 26.8366 150.21 26.4977 149.857 26.2399C149.503 25.982 149.032 25.8531 148.442 25.8531C148 25.8531 147.606 25.9489 147.26 26.1404C146.921 26.3246 146.637 26.5935 146.409 26.9471C146.181 27.3007 146.004 27.728 145.879 28.2289C145.761 28.7225 145.702 29.2786 145.702 29.8974V30.3395C145.702 30.8625 145.772 31.3487 145.912 31.7981C146.059 32.2401 146.273 32.6268 146.553 32.9583C146.833 33.2898 147.172 33.5513 147.569 33.7429C147.967 33.927 148.42 34.0191 148.929 34.0191C149.569 34.0191 150.14 33.8902 150.641 33.6324C151.142 33.3745 151.577 33.0099 151.945 32.5384L153.349 33.8976C153.091 34.2733 152.756 34.6342 152.343 34.9805C151.93 35.3194 151.426 35.5956 150.829 35.8092C150.24 36.0229 149.555 36.1297 148.774 36.1297ZM162.343 32.671C162.343 32.4058 162.277 32.1664 162.144 31.9528C162.012 31.7318 161.758 31.5329 161.382 31.3561C161.014 31.1793 160.469 31.0172 159.747 30.8699C159.113 30.7299 158.531 30.5641 158.001 30.3726C157.478 30.1737 157.028 29.9343 156.653 29.6543C156.277 29.3744 155.986 29.0429 155.78 28.6598C155.573 28.2768 155.47 27.8348 155.47 27.3338C155.47 26.8476 155.577 26.3872 155.791 25.9526C156.004 25.5179 156.31 25.1349 156.708 24.8034C157.106 24.4719 157.588 24.2103 158.155 24.0188C158.73 23.8273 159.371 23.7315 160.078 23.7315C161.08 23.7315 161.938 23.9009 162.653 24.2398C163.375 24.5713 163.927 25.0244 164.31 25.599C164.693 26.1662 164.885 26.8071 164.885 27.5217H162.222C162.222 27.2049 162.141 26.9102 161.979 26.6377C161.824 26.3577 161.588 26.1331 161.271 25.9636C160.955 25.7868 160.557 25.6984 160.078 25.6984C159.621 25.6984 159.242 25.7721 158.94 25.9194C158.645 26.0594 158.424 26.2436 158.277 26.4719C158.137 26.7003 158.067 26.9508 158.067 27.2233C158.067 27.4222 158.104 27.6027 158.177 27.7648C158.259 27.9195 158.391 28.0631 158.575 28.1957C158.759 28.321 159.01 28.4388 159.327 28.5493C159.651 28.6598 160.056 28.7667 160.542 28.8698C161.456 29.0613 162.24 29.3081 162.896 29.6101C163.559 29.9048 164.067 30.2879 164.421 30.7594C164.774 31.2235 164.951 31.8128 164.951 32.5274C164.951 33.0578 164.837 33.544 164.609 33.986C164.388 34.4206 164.063 34.8 163.636 35.1241C163.209 35.4409 162.697 35.6877 162.1 35.8645C161.511 36.0413 160.848 36.1297 160.111 36.1297C159.028 36.1297 158.111 35.9382 157.36 35.5551C156.608 35.1647 156.037 34.6674 155.647 34.0633C155.264 33.4519 155.072 32.8184 155.072 32.1627H157.647C157.677 32.6563 157.813 33.0504 158.056 33.3451C158.306 33.6324 158.616 33.8423 158.984 33.9749C159.36 34.1002 159.747 34.1628 160.144 34.1628C160.623 34.1628 161.025 34.1002 161.349 33.9749C161.673 33.8423 161.92 33.6655 162.089 33.4445C162.259 33.2162 162.343 32.9583 162.343 32.671Z" fill="white"/>
<path d="M41.621 28.04C41.621 28.6526 41.621 29.2651 41.621 29.8777C41.5471 29.9043 41.5772 29.9693 41.5731 30.0184C41.5299 30.4796 41.4672 30.9384 41.3679 31.3902C40.7784 34.0846 39.4545 36.3557 37.3372 38.123C34.3542 40.6123 30.9206 41.4933 27.1128 40.7383C24.442 40.2091 22.1887 38.8781 20.4397 36.7891C17.6045 33.4029 16.7188 29.5235 18.0864 25.3243C19.6178 20.6236 22.9656 17.8677 27.846 16.9985C28.102 16.953 28.3693 16.9766 28.6152 16.8726C29.2278 16.8726 29.8404 16.8726 30.4529 16.8726C30.4648 16.9252 30.5073 16.9163 30.5446 16.9193C31.4309 16.9831 32.2977 17.1546 33.1432 17.4242C37.6027 18.8462 40.7955 22.5967 41.495 27.2223C41.5364 27.4948 41.5264 27.7757 41.621 28.04ZM29.5648 37.6015C29.7611 37.6015 29.9574 37.608 30.1532 37.5998C30.3252 37.5921 30.4979 37.5749 30.6682 37.5501C33.1403 37.1853 35.1157 35.9903 36.6265 34.0042C36.7837 33.7973 36.8068 33.5992 36.7524 33.3721C36.7027 33.1658 36.6217 32.9724 36.5106 32.7891C36.157 32.2079 35.6414 31.8023 35.0619 31.4777C33.4466 30.5724 31.6928 30.1349 29.8569 30.0326C28.6791 29.967 27.5303 30.1946 26.4027 30.5169C25.2438 30.848 24.1275 31.2778 23.2039 32.0855C22.7462 32.4858 22.3944 32.9588 22.3329 33.5945C22.3223 33.7021 22.3388 33.7896 22.4051 33.8789C24.1842 36.2889 26.5677 37.5395 29.5648 37.6015ZM29.5447 27.7243C31.5858 27.739 33.1728 26.1645 33.1799 24.1175C33.187 22.0847 31.6248 20.5113 29.5832 20.4965C27.5338 20.4811 25.958 22.0344 25.9362 24.0909C25.9149 26.1249 27.4883 27.7095 29.5447 27.7243Z" fill="#3CCB93"/>
<path d="M29.5649 37.6016C26.5677 37.5395 24.1843 36.289 22.4039 33.8795C22.3383 33.7903 22.3218 33.7027 22.3318 33.5951C22.3933 32.9589 22.7451 32.4865 23.2028 32.0862C24.1269 31.2779 25.2427 30.8487 26.4016 30.5175C27.5297 30.1953 28.6786 29.9677 29.8558 30.0333C31.6917 30.1356 33.4455 30.5731 35.0608 31.4784C35.6403 31.803 36.1559 32.2086 36.5094 32.7898C36.6212 32.9731 36.7022 33.1665 36.7513 33.3728C36.8057 33.5999 36.7826 33.7979 36.6253 34.0049C35.1146 35.991 33.1392 37.186 30.667 37.5508C30.4968 37.5762 30.3241 37.5933 30.152 37.6004C29.9575 37.6081 29.7612 37.6016 29.5649 37.6016Z" fill="#FDFDFD"/>
<path d="M29.5447 27.7245C27.4883 27.7097 25.9149 26.1251 25.9367 24.0911C25.9586 22.0346 27.5344 20.4819 29.5837 20.4967C31.6248 20.5121 33.1876 22.0849 33.1805 24.1177C33.1728 26.1647 31.5852 27.7392 29.5447 27.7245Z" fill="#FDFDFD"/>
<path d="M245.093 19.9087L243 22.0237L249.799 28.9087L243 35.7937L245.093 37.9087L254 28.9087L245.093 19.9087Z" fill="#3CCB93"/>
</svg>
