<svg width="18" height="21" viewBox="0 0 18 21" fill="none" xmlns="http://www.w3.org/2000/svg">
<path d="M10.1034 13.0294C10.5901 12.8961 11.0132 12.6449 11.3977 12.3245C11.6272 12.1331 11.8469 11.9292 12.0846 11.7481C12.425 11.4886 12.8927 11.5403 13.1728 11.8525C13.4545 12.1663 13.473 12.6536 13.1674 12.944C12.4457 13.6298 11.6761 14.2541 10.7032 14.5603C8.83403 15.1492 7.11766 14.8425 5.58403 13.6298C4.15101 12.4964 2.73974 11.3353 1.32466 10.1785C-0.439014 8.73681 -0.442277 6.11713 1.31923 4.67323C2.743 3.50615 4.17548 2.34994 5.60687 1.19264C6.37913 0.56777 7.26396 0.196327 8.2445 0.0473142C8.28692 0.0407881 8.34402 0.0619979 8.36632 0C8.76061 0 9.15489 0 9.54918 0C9.69275 0.0832077 9.85808 0.0668925 10.0131 0.0978914C11.0388 0.301832 11.904 0.805973 12.7013 1.46783C13.9864 2.53484 15.2998 3.56706 16.5859 4.63298C17.7476 5.59613 18.1718 6.82902 17.8341 8.30826C17.7253 8.78304 17.3 9.05713 16.8628 8.9538C16.394 8.8434 16.1335 8.41323 16.2547 7.92159C16.3537 7.51915 16.3385 7.12758 16.1927 6.74255C16.0726 6.42494 15.8795 6.15792 15.6152 5.94364C14.1816 4.77982 12.7497 3.61274 11.3123 2.45272C10.9246 2.13947 10.4955 1.89637 9.99893 1.79413C9.98262 1.78271 9.96739 1.76585 9.94944 1.7615C8.78617 1.47707 7.69087 1.64566 6.74622 2.38474C5.24794 3.55672 3.7763 4.76351 2.31119 5.97682C1.39754 6.7333 1.39917 8.11466 2.31282 8.87114C3.77848 10.0839 5.24576 11.2961 6.74894 12.4616C7.74417 13.2344 8.8895 13.4046 10.1034 13.0294Z" fill="white"/>
<path d="M4.74216 8.68505C4.61001 8.21844 4.79165 7.89268 5.15331 7.58867C5.94514 6.9241 6.79136 6.37699 7.81758 6.16435C9.58398 5.79834 11.1464 6.23233 12.5332 7.37113C13.8716 8.47024 15.2204 9.55629 16.5653 10.6472C17.5344 11.4331 18.0152 12.449 17.9423 13.6949C17.8819 14.7228 17.4235 15.5706 16.6273 16.2222C15.2133 17.3789 13.7928 18.527 12.3706 19.6739C11.2889 20.5462 10.0462 20.9536 8.66108 20.8742C7.50379 20.8078 6.47049 20.3929 5.56771 19.6592C4.15536 18.5117 2.73158 17.3773 1.33064 16.2162C0.280487 15.3455 -0.142078 14.211 0.0558805 12.859C0.124405 12.3908 0.552952 12.0879 0.998358 12.1624C1.45247 12.2385 1.74125 12.6709 1.66674 13.1473C1.55362 13.8728 1.78475 14.4786 2.34926 14.9403C3.78935 16.1188 5.22455 17.3039 6.68694 18.4535C8.09277 19.5586 9.99078 19.5108 11.3727 18.3861C12.7839 17.237 14.1968 16.09 15.6097 14.9425C16.5566 14.1735 16.5555 12.7454 15.6076 11.9775C14.1566 10.8017 12.7198 9.6085 11.2525 8.45283C9.86134 7.35699 7.93397 7.41627 6.56838 8.55073C6.43242 8.6633 6.28776 8.76609 6.15941 8.88736C5.89075 9.14134 5.5862 9.23869 5.22564 9.13807C5.05161 9.05106 4.90151 8.93522 4.79437 8.76989C4.77914 8.73998 4.77806 8.70028 4.73781 8.68669L4.74216 8.68505Z" fill="#3CCB93"/>
<path d="M4.79456 8.76871C4.90169 8.93403 5.05125 9.04987 5.22582 9.13689C5.45478 9.37835 5.72942 9.56598 5.98339 9.77753C6.56585 10.2626 7.1483 10.7472 7.74109 11.2193C8.42905 11.7669 9.0784 12.363 9.79518 12.8747C9.89035 12.9427 9.99368 12.9922 10.1035 13.0286C8.88968 13.4044 7.74435 13.2336 6.74912 12.4619C5.24595 11.2965 3.77866 10.0843 2.31301 8.87149C1.39936 8.11501 1.39772 6.73365 2.31138 5.97717C3.77649 4.76386 5.24812 3.55707 6.7464 2.3851C7.69106 1.64601 8.78635 1.47742 9.94963 1.76185C9.96758 1.7662 9.9828 1.78361 9.99912 1.79448C9.69348 2.01528 9.39437 2.24424 9.1045 2.48571C8.5177 2.97516 7.92708 3.45973 7.33756 3.94592C6.77414 4.41036 6.20909 4.87371 5.64567 5.33815C5.05071 5.82816 4.45629 6.31924 3.86187 6.80979C3.70524 6.93868 3.54372 7.06267 3.39417 7.19864C3.21959 7.35744 3.21796 7.49775 3.40667 7.65872C3.74059 7.94424 4.08321 8.21943 4.4291 8.4908C4.52481 8.56585 4.583 8.71215 4.74344 8.6855L4.73909 8.68604C4.73528 8.72792 4.74833 8.75946 4.79456 8.76871Z" fill="#3CCB93" fill-opacity="0.06"/>
<path d="M4.7942 8.76875C4.74851 8.75951 4.73492 8.72797 4.73764 8.68555C4.77734 8.69914 4.77897 8.73884 4.7942 8.76875Z" fill="#FEFEFE"/>
</svg>
