<svg width="210" height="37" viewBox="0 0 210 37" fill="none" xmlns="http://www.w3.org/2000/svg">
<rect x="0.5" y="0.5" width="209" height="36" rx="9.5" stroke="white"/>
<path d="M76.4766 20.7578H73.5156V19.2031H76.4766C76.9922 19.2031 77.4089 19.1198 77.7266 18.9531C78.0443 18.7865 78.276 18.5573 78.4219 18.2656C78.5729 17.9688 78.6484 17.6302 78.6484 17.25C78.6484 16.8906 78.5729 16.5547 78.4219 16.2422C78.276 15.9245 78.0443 15.6693 77.7266 15.4766C77.4089 15.2839 76.9922 15.1875 76.4766 15.1875H74.1172V25H72.1562V13.625H76.4766C77.3568 13.625 78.1042 13.7812 78.7188 14.0938C79.3385 14.401 79.8099 14.8281 80.1328 15.375C80.4557 15.9167 80.6172 16.5365 80.6172 17.2344C80.6172 17.9688 80.4557 18.599 80.1328 19.125C79.8099 19.651 79.3385 20.0547 78.7188 20.3359C78.1042 20.6172 77.3568 20.7578 76.4766 20.7578ZM86.8594 23.3047V19.2734C86.8594 18.9714 86.8047 18.7109 86.6953 18.4922C86.5859 18.2734 86.4193 18.1042 86.1953 17.9844C85.9766 17.8646 85.7005 17.8047 85.3672 17.8047C85.0599 17.8047 84.7943 17.8568 84.5703 17.9609C84.3464 18.0651 84.1719 18.2057 84.0469 18.3828C83.9219 18.5599 83.8594 18.7604 83.8594 18.9844H81.9844C81.9844 18.651 82.0651 18.3281 82.2266 18.0156C82.388 17.7031 82.6224 17.4245 82.9297 17.1797C83.237 16.9349 83.6042 16.7422 84.0312 16.6016C84.4583 16.4609 84.9375 16.3906 85.4688 16.3906C86.1042 16.3906 86.6667 16.4974 87.1562 16.7109C87.651 16.9245 88.0391 17.2474 88.3203 17.6797C88.6068 18.1068 88.75 18.6432 88.75 19.2891V23.0469C88.75 23.4323 88.776 23.7786 88.8281 24.0859C88.8854 24.388 88.9661 24.651 89.0703 24.875V25H87.1406C87.0521 24.7969 86.9818 24.5391 86.9297 24.2266C86.8828 23.9089 86.8594 23.6016 86.8594 23.3047ZM87.1328 19.8594L87.1484 21.0234H85.7969C85.4479 21.0234 85.1406 21.0573 84.875 21.125C84.6094 21.1875 84.388 21.2812 84.2109 21.4062C84.0339 21.5312 83.901 21.6823 83.8125 21.8594C83.724 22.0365 83.6797 22.237 83.6797 22.4609C83.6797 22.6849 83.7318 22.8906 83.8359 23.0781C83.9401 23.2604 84.0911 23.4036 84.2891 23.5078C84.4922 23.612 84.737 23.6641 85.0234 23.6641C85.4089 23.6641 85.7448 23.5859 86.0312 23.4297C86.3229 23.2682 86.5521 23.0729 86.7188 22.8438C86.8854 22.6094 86.974 22.388 86.9844 22.1797L87.5938 23.0156C87.5312 23.2292 87.4245 23.4583 87.2734 23.7031C87.1224 23.9479 86.9245 24.1823 86.6797 24.4062C86.4401 24.625 86.151 24.8047 85.8125 24.9453C85.4792 25.0859 85.0938 25.1562 84.6562 25.1562C84.1042 25.1562 83.612 25.0469 83.1797 24.8281C82.7474 24.6042 82.4089 24.3047 82.1641 23.9297C81.9193 23.5495 81.7969 23.1198 81.7969 22.6406C81.7969 22.1927 81.8802 21.7969 82.0469 21.4531C82.2188 21.1042 82.4688 20.8125 82.7969 20.5781C83.1302 20.3438 83.5365 20.1667 84.0156 20.0469C84.4948 19.9219 85.0417 19.8594 85.6562 19.8594H87.1328ZM93.0469 24.0781L95.3438 16.5469H97.3594L93.9688 26.2891C93.8906 26.4974 93.7891 26.724 93.6641 26.9688C93.5391 27.2135 93.375 27.4453 93.1719 27.6641C92.974 27.888 92.7266 28.0677 92.4297 28.2031C92.1328 28.3438 91.7734 28.4141 91.3516 28.4141C91.1849 28.4141 91.0234 28.3984 90.8672 28.3672C90.7161 28.3411 90.5729 28.3125 90.4375 28.2812L90.4297 26.8438C90.4818 26.849 90.5443 26.8542 90.6172 26.8594C90.6953 26.8646 90.7578 26.8672 90.8047 26.8672C91.1172 26.8672 91.3776 26.8281 91.5859 26.75C91.7943 26.6771 91.9635 26.5573 92.0938 26.3906C92.2292 26.224 92.3438 26 92.4375 25.7188L93.0469 24.0781ZM91.75 16.5469L93.7578 22.875L94.0938 24.8594L92.7891 25.1953L89.7188 16.5469H91.75ZM101.781 23.6562C102.089 23.6562 102.365 23.5964 102.609 23.4766C102.859 23.3516 103.06 23.1797 103.211 22.9609C103.367 22.7422 103.453 22.4896 103.469 22.2031H105.242C105.232 22.75 105.07 23.2474 104.758 23.6953C104.445 24.1432 104.031 24.5 103.516 24.7656C103 25.026 102.43 25.1562 101.805 25.1562C101.159 25.1562 100.596 25.0469 100.117 24.8281C99.638 24.6042 99.2396 24.2969 98.9219 23.9062C98.6042 23.5156 98.3646 23.0651 98.2031 22.5547C98.0469 22.0443 97.9688 21.4974 97.9688 20.9141V20.6406C97.9688 20.0573 98.0469 19.5104 98.2031 19C98.3646 18.4844 98.6042 18.0312 98.9219 17.6406C99.2396 17.25 99.638 16.9453 100.117 16.7266C100.596 16.5026 101.156 16.3906 101.797 16.3906C102.474 16.3906 103.068 16.526 103.578 16.7969C104.089 17.0625 104.49 17.4349 104.781 17.9141C105.078 18.388 105.232 18.9401 105.242 19.5703H103.469C103.453 19.2578 103.375 18.9766 103.234 18.7266C103.099 18.4714 102.906 18.2682 102.656 18.1172C102.411 17.9661 102.117 17.8906 101.773 17.8906C101.393 17.8906 101.078 17.9688 100.828 18.125C100.578 18.276 100.383 18.4844 100.242 18.75C100.102 19.0104 100 19.3047 99.9375 19.6328C99.8802 19.9557 99.8516 20.2917 99.8516 20.6406V20.9141C99.8516 21.263 99.8802 21.6016 99.9375 21.9297C99.9948 22.2578 100.094 22.5521 100.234 22.8125C100.38 23.0677 100.578 23.2734 100.828 23.4297C101.078 23.5807 101.396 23.6562 101.781 23.6562ZM108.547 13V25H106.672V13H108.547ZM108.219 20.4609L107.609 20.4531C107.615 19.8698 107.695 19.3307 107.852 18.8359C108.013 18.3411 108.237 17.9115 108.523 17.5469C108.815 17.1771 109.164 16.8932 109.57 16.6953C109.977 16.4922 110.427 16.3906 110.922 16.3906C111.339 16.3906 111.714 16.4479 112.047 16.5625C112.385 16.6771 112.677 16.862 112.922 17.1172C113.167 17.3672 113.352 17.6953 113.477 18.1016C113.607 18.5026 113.672 18.9922 113.672 19.5703V25H111.781V19.5547C111.781 19.1484 111.721 18.8255 111.602 18.5859C111.487 18.3464 111.318 18.1745 111.094 18.0703C110.87 17.9609 110.596 17.9062 110.273 17.9062C109.935 17.9062 109.635 17.974 109.375 18.1094C109.12 18.2448 108.906 18.4297 108.734 18.6641C108.562 18.8984 108.432 19.1693 108.344 19.4766C108.26 19.7839 108.219 20.112 108.219 20.4609ZM119.305 25.1562C118.68 25.1562 118.115 25.0547 117.609 24.8516C117.109 24.6432 116.682 24.3542 116.328 23.9844C115.979 23.6146 115.711 23.1797 115.523 22.6797C115.336 22.1797 115.242 21.6406 115.242 21.0625V20.75C115.242 20.0885 115.339 19.4896 115.531 18.9531C115.724 18.4167 115.992 17.9583 116.336 17.5781C116.68 17.1927 117.086 16.8984 117.555 16.6953C118.023 16.4922 118.531 16.3906 119.078 16.3906C119.682 16.3906 120.211 16.4922 120.664 16.6953C121.117 16.8984 121.492 17.1849 121.789 17.5547C122.091 17.9193 122.315 18.3542 122.461 18.8594C122.612 19.3646 122.688 19.9219 122.688 20.5312V21.3359H116.156V19.9844H120.828V19.8359C120.818 19.4974 120.75 19.1797 120.625 18.8828C120.505 18.5859 120.32 18.3464 120.07 18.1641C119.82 17.9818 119.487 17.8906 119.07 17.8906C118.758 17.8906 118.479 17.9583 118.234 18.0938C117.995 18.224 117.794 18.4141 117.633 18.6641C117.471 18.9141 117.346 19.2161 117.258 19.5703C117.174 19.9193 117.133 20.3125 117.133 20.75V21.0625C117.133 21.4323 117.182 21.776 117.281 22.0938C117.385 22.4062 117.536 22.6797 117.734 22.9141C117.932 23.1484 118.172 23.3333 118.453 23.4688C118.734 23.599 119.055 23.6641 119.414 23.6641C119.867 23.6641 120.271 23.5729 120.625 23.3906C120.979 23.2083 121.286 22.9505 121.547 22.6172L122.539 23.5781C122.357 23.8438 122.12 24.099 121.828 24.3438C121.536 24.5833 121.18 24.7786 120.758 24.9297C120.341 25.0807 119.857 25.1562 119.305 25.1562ZM129.305 28.25V18.2266L129.523 16.5469H131.203V28.25H129.305ZM123.812 20.8594V20.6953C123.812 20.0547 123.885 19.4714 124.031 18.9453C124.177 18.4141 124.393 17.9583 124.68 17.5781C124.966 17.1979 125.315 16.9062 125.727 16.7031C126.138 16.4948 126.612 16.3906 127.148 16.3906C127.669 16.3906 128.122 16.4896 128.508 16.6875C128.898 16.8854 129.227 17.1693 129.492 17.5391C129.763 17.9036 129.979 18.3385 130.141 18.8438C130.302 19.349 130.419 19.9115 130.492 20.5312V21.0547C130.424 21.6589 130.31 22.2109 130.148 22.7109C129.987 23.2109 129.771 23.6432 129.5 24.0078C129.229 24.3724 128.898 24.6562 128.508 24.8594C128.117 25.0573 127.659 25.1562 127.133 25.1562C126.607 25.1562 126.138 25.0495 125.727 24.8359C125.315 24.6224 124.966 24.3229 124.68 23.9375C124.398 23.5469 124.182 23.0911 124.031 22.5703C123.885 22.0443 123.812 21.474 123.812 20.8594ZM125.695 20.6953V20.8594C125.695 21.2448 125.729 21.6068 125.797 21.9453C125.87 22.2786 125.984 22.5755 126.141 22.8359C126.297 23.0911 126.495 23.2917 126.734 23.4375C126.974 23.5833 127.263 23.6562 127.602 23.6562C128.044 23.6562 128.406 23.5599 128.688 23.3672C128.974 23.1745 129.193 22.9167 129.344 22.5938C129.5 22.2656 129.609 21.9036 129.672 21.5078V20.0938C129.635 19.7865 129.57 19.5 129.477 19.2344C129.383 18.9635 129.253 18.7292 129.086 18.5312C128.924 18.3281 128.721 18.1719 128.477 18.0625C128.237 17.9479 127.951 17.8906 127.617 17.8906C127.279 17.8906 126.987 17.9635 126.742 18.1094C126.497 18.2552 126.297 18.4583 126.141 18.7188C125.99 18.974 125.878 19.2708 125.805 19.6094C125.732 19.9479 125.695 20.3099 125.695 20.6953ZM138.305 23.0078V16.5469H140.195V25H138.414L138.305 23.0078ZM138.57 21.25L139.203 21.2344C139.203 21.8021 139.141 22.3255 139.016 22.8047C138.891 23.2786 138.698 23.6927 138.438 24.0469C138.177 24.3958 137.844 24.6693 137.438 24.8672C137.031 25.0599 136.544 25.1562 135.977 25.1562C135.565 25.1562 135.188 25.0964 134.844 24.9766C134.5 24.8568 134.203 24.6719 133.953 24.4219C133.708 24.1719 133.518 23.8464 133.383 23.4453C133.247 23.0443 133.18 22.5651 133.18 22.0078V16.5469H135.062V22.0234C135.062 22.3307 135.099 22.5885 135.172 22.7969C135.245 23 135.344 23.1641 135.469 23.2891C135.594 23.4141 135.74 23.5026 135.906 23.5547C136.073 23.6068 136.25 23.6328 136.438 23.6328C136.974 23.6328 137.396 23.5286 137.703 23.3203C138.016 23.1068 138.237 22.8203 138.367 22.4609C138.503 22.1016 138.57 21.6979 138.57 21.25ZM145.852 25.1562C145.227 25.1562 144.661 25.0547 144.156 24.8516C143.656 24.6432 143.229 24.3542 142.875 23.9844C142.526 23.6146 142.258 23.1797 142.07 22.6797C141.883 22.1797 141.789 21.6406 141.789 21.0625V20.75C141.789 20.0885 141.885 19.4896 142.078 18.9531C142.271 18.4167 142.539 17.9583 142.883 17.5781C143.227 17.1927 143.633 16.8984 144.102 16.6953C144.57 16.4922 145.078 16.3906 145.625 16.3906C146.229 16.3906 146.758 16.4922 147.211 16.6953C147.664 16.8984 148.039 17.1849 148.336 17.5547C148.638 17.9193 148.862 18.3542 149.008 18.8594C149.159 19.3646 149.234 19.9219 149.234 20.5312V21.3359H142.703V19.9844H147.375V19.8359C147.365 19.4974 147.297 19.1797 147.172 18.8828C147.052 18.5859 146.867 18.3464 146.617 18.1641C146.367 17.9818 146.034 17.8906 145.617 17.8906C145.305 17.8906 145.026 17.9583 144.781 18.0938C144.542 18.224 144.341 18.4141 144.18 18.6641C144.018 18.9141 143.893 19.2161 143.805 19.5703C143.721 19.9193 143.68 20.3125 143.68 20.75V21.0625C143.68 21.4323 143.729 21.776 143.828 22.0938C143.932 22.4062 144.083 22.6797 144.281 22.9141C144.479 23.1484 144.719 23.3333 145 23.4688C145.281 23.599 145.602 23.6641 145.961 23.6641C146.414 23.6641 146.818 23.5729 147.172 23.3906C147.526 23.2083 147.833 22.9505 148.094 22.6172L149.086 23.5781C148.904 23.8438 148.667 24.099 148.375 24.3438C148.083 24.5833 147.727 24.7786 147.305 24.9297C146.888 25.0807 146.404 25.1562 145.852 25.1562ZM156.703 13V25H154.812V13H156.703ZM160.781 16.5469V25H158.891V16.5469H160.781ZM158.766 14.3281C158.766 14.0417 158.859 13.8047 159.047 13.6172C159.24 13.4245 159.505 13.3281 159.844 13.3281C160.177 13.3281 160.44 13.4245 160.633 13.6172C160.826 13.8047 160.922 14.0417 160.922 14.3281C160.922 14.6094 160.826 14.8438 160.633 15.0312C160.44 15.2188 160.177 15.3125 159.844 15.3125C159.505 15.3125 159.24 15.2188 159.047 15.0312C158.859 14.8438 158.766 14.6094 158.766 14.3281ZM167.586 22.7109C167.586 22.5234 167.539 22.3542 167.445 22.2031C167.352 22.0469 167.172 21.9062 166.906 21.7812C166.646 21.6562 166.26 21.5417 165.75 21.4375C165.302 21.3385 164.891 21.2214 164.516 21.0859C164.146 20.9453 163.828 20.776 163.562 20.5781C163.297 20.3802 163.091 20.1458 162.945 19.875C162.799 19.6042 162.727 19.2917 162.727 18.9375C162.727 18.5938 162.802 18.2682 162.953 17.9609C163.104 17.6536 163.32 17.3828 163.602 17.1484C163.883 16.9141 164.224 16.7292 164.625 16.5938C165.031 16.4583 165.484 16.3906 165.984 16.3906C166.693 16.3906 167.299 16.5104 167.805 16.75C168.315 16.9844 168.706 17.3047 168.977 17.7109C169.247 18.112 169.383 18.5651 169.383 19.0703H167.5C167.5 18.8464 167.443 18.638 167.328 18.4453C167.219 18.2474 167.052 18.0885 166.828 17.9688C166.604 17.8438 166.323 17.7812 165.984 17.7812C165.661 17.7812 165.393 17.8333 165.18 17.9375C164.971 18.0365 164.815 18.1667 164.711 18.3281C164.612 18.4896 164.562 18.6667 164.562 18.8594C164.562 19 164.589 19.1276 164.641 19.2422C164.698 19.3516 164.792 19.4531 164.922 19.5469C165.052 19.6354 165.229 19.7188 165.453 19.7969C165.682 19.875 165.969 19.9505 166.312 20.0234C166.958 20.1589 167.513 20.3333 167.977 20.5469C168.445 20.7552 168.805 21.026 169.055 21.3594C169.305 21.6875 169.43 22.1042 169.43 22.6094C169.43 22.9844 169.349 23.3281 169.188 23.6406C169.031 23.9479 168.802 24.2161 168.5 24.4453C168.198 24.6693 167.836 24.8438 167.414 24.9688C166.997 25.0938 166.529 25.1562 166.008 25.1562C165.242 25.1562 164.594 25.0208 164.062 24.75C163.531 24.474 163.128 24.1224 162.852 23.6953C162.581 23.263 162.445 22.8151 162.445 22.3516H164.266C164.286 22.7005 164.383 22.9792 164.555 23.1875C164.732 23.3906 164.951 23.5391 165.211 23.6328C165.477 23.7214 165.75 23.7656 166.031 23.7656C166.37 23.7656 166.654 23.7214 166.883 23.6328C167.112 23.5391 167.286 23.4141 167.406 23.2578C167.526 23.0964 167.586 22.9141 167.586 22.7109ZM174.953 16.5469V17.9219H170.188V16.5469H174.953ZM171.562 14.4766H173.445V22.6641C173.445 22.9245 173.482 23.125 173.555 23.2656C173.633 23.401 173.74 23.4922 173.875 23.5391C174.01 23.5859 174.169 23.6094 174.352 23.6094C174.482 23.6094 174.607 23.6016 174.727 23.5859C174.846 23.5703 174.943 23.5547 175.016 23.5391L175.023 24.9766C174.867 25.0234 174.685 25.0651 174.477 25.1016C174.273 25.138 174.039 25.1562 173.773 25.1562C173.341 25.1562 172.958 25.0807 172.625 24.9297C172.292 24.7734 172.031 24.5208 171.844 24.1719C171.656 23.8229 171.562 23.3594 171.562 22.7812V14.4766Z" fill="white"/>
<path d="M57 19.4147C57 19.6022 57 19.7897 57 19.9772C56.8775 20.4447 56.5856 20.806 56.2669 21.1503C55.9437 21.5003 55.6281 21.8578 55.295 22.1972C53.6831 23.841 51.905 25.2647 49.8225 26.2766C48.2569 27.0378 46.6131 27.4722 44.86 27.4472C42.8831 27.4191 41.0744 26.8122 39.37 25.8541C37.2925 24.6866 35.5237 23.141 33.9369 21.3766C33.5581 20.9566 33.1462 20.5553 33 19.9772C33 19.7897 33 19.6022 33 19.4147C33.1119 19.0622 33.2769 18.7422 33.5375 18.4728C34.2644 17.721 34.9544 16.9291 35.7194 16.2178C37.4387 14.6203 39.3594 13.3266 41.5931 12.5428C42.9744 12.0585 44.3937 11.8447 45.855 11.9778C47.5375 12.1316 49.0925 12.6941 50.5625 13.506C52.7069 14.6903 54.525 16.2735 56.1413 18.1003C56.4913 18.4972 56.865 18.8778 57 19.4147ZM44.9994 24.8672C47.8556 24.8678 50.1669 22.5572 50.1681 19.6985C50.1694 16.841 47.86 14.531 45.0006 14.531C42.1412 14.5303 39.8312 16.8397 39.8319 19.6978C39.8325 22.556 42.1419 24.8666 44.9994 24.8672Z" fill="white"/>
<path d="M48.6971 19.6929C48.699 21.7279 47.0377 23.3929 45.0046 23.3954C42.9709 23.3979 41.3046 21.736 41.3027 19.7029C41.3002 17.6685 42.9615 16.0035 44.9952 16.0004C47.0284 15.9979 48.6952 17.6597 48.6971 19.6929Z" fill="white"/>
</svg>
