<svg width="171" height="41" viewBox="0 0 171 41" fill="none" xmlns="http://www.w3.org/2000/svg">
<path d="M0.5 5C0.5 2.51472 2.51472 0.5 5 0.5H166C168.485 0.5 170.5 2.51472 170.5 5V36C170.5 38.4853 168.485 40.5 166 40.5H5C2.51472 40.5 0.5 38.4853 0.5 36V5Z" fill="#3CCB93" stroke="#3CCB93"/>
<path d="M43.7759 23.2095C43.7759 23.019 43.7466 22.8481 43.688 22.6968C43.6343 22.5405 43.5317 22.3989 43.3804 22.272C43.229 22.1401 43.0166 22.0107 42.7432 21.8838C42.4697 21.7568 42.1157 21.625 41.6812 21.4883C41.1978 21.332 40.7388 21.1562 40.3042 20.9609C39.8745 20.7656 39.4937 20.5386 39.1616 20.2798C38.8345 20.0161 38.5757 19.7109 38.3853 19.3643C38.1997 19.0176 38.1069 18.6147 38.1069 18.1558C38.1069 17.7114 38.2046 17.3086 38.3999 16.9473C38.5952 16.5811 38.8687 16.2686 39.2202 16.0098C39.5718 15.7461 39.9868 15.5435 40.4653 15.4019C40.9487 15.2603 41.4785 15.1895 42.0547 15.1895C42.8408 15.1895 43.5269 15.3311 44.1128 15.6143C44.6987 15.8975 45.1528 16.2856 45.4751 16.7788C45.8022 17.272 45.9658 17.8359 45.9658 18.4707H43.7832C43.7832 18.1582 43.7173 17.8848 43.5854 17.6504C43.4585 17.4111 43.2632 17.2231 42.9995 17.0864C42.7407 16.9497 42.4136 16.8813 42.0181 16.8813C41.6372 16.8813 41.3198 16.9399 41.0659 17.0571C40.812 17.1694 40.6216 17.3232 40.4946 17.5186C40.3677 17.709 40.3042 17.9238 40.3042 18.1631C40.3042 18.3438 40.3481 18.5073 40.436 18.6538C40.5288 18.8003 40.6655 18.937 40.8462 19.064C41.0269 19.1909 41.249 19.3105 41.5127 19.4229C41.7764 19.5352 42.0815 19.645 42.4282 19.7524C43.0093 19.9282 43.5195 20.126 43.959 20.3457C44.4033 20.5654 44.7744 20.812 45.0723 21.0854C45.3701 21.3589 45.5947 21.6689 45.7461 22.0156C45.8975 22.3623 45.9731 22.7554 45.9731 23.1948C45.9731 23.6587 45.8828 24.0737 45.7021 24.4399C45.5215 24.8062 45.2603 25.1162 44.9185 25.3701C44.5767 25.624 44.1689 25.8169 43.6953 25.9487C43.2217 26.0806 42.6919 26.1465 42.106 26.1465C41.5786 26.1465 41.0586 26.0781 40.5459 25.9414C40.0332 25.7998 39.5669 25.5874 39.147 25.3042C38.7319 25.021 38.3999 24.6597 38.1509 24.2202C37.9019 23.7808 37.7773 23.2607 37.7773 22.6602H39.9819C39.9819 22.9922 40.0332 23.2729 40.1357 23.5024C40.2383 23.7319 40.3823 23.9175 40.5679 24.0591C40.7583 24.2007 40.9829 24.3032 41.2417 24.3667C41.5054 24.4302 41.7935 24.4619 42.106 24.4619C42.4868 24.4619 42.7993 24.4082 43.0435 24.3008C43.2925 24.1934 43.4756 24.0444 43.5928 23.854C43.7148 23.6636 43.7759 23.4487 43.7759 23.2095ZM52.0229 24.103V18.0752H54.1323V26H52.1475L52.0229 24.103ZM52.2573 22.4771L52.8799 22.4624C52.8799 22.9897 52.8188 23.4805 52.6968 23.9346C52.5747 24.3838 52.3916 24.7744 52.1475 25.1064C51.9033 25.4336 51.5957 25.6899 51.2246 25.8755C50.8535 26.0562 50.4165 26.1465 49.9136 26.1465C49.5278 26.1465 49.1714 26.0928 48.8442 25.9854C48.522 25.873 48.2437 25.6997 48.0093 25.4653C47.7798 25.2261 47.5991 24.9209 47.4673 24.5498C47.3403 24.1738 47.2769 23.7222 47.2769 23.1948V18.0752H49.3862V23.2095C49.3862 23.4438 49.4131 23.6416 49.4668 23.8027C49.5254 23.9639 49.606 24.0957 49.7085 24.1982C49.811 24.3008 49.9307 24.374 50.0674 24.418C50.209 24.4619 50.3652 24.4839 50.5361 24.4839C50.9707 24.4839 51.3125 24.396 51.5615 24.2202C51.8154 24.0444 51.9937 23.8052 52.0962 23.5024C52.2036 23.1948 52.2573 22.853 52.2573 22.4771ZM55.7437 14.75H57.853V24.1836L57.6406 26H55.7437V14.75ZM62.8701 21.957V22.1108C62.8701 22.7017 62.8066 23.2437 62.6797 23.7368C62.5576 24.23 62.3672 24.6572 62.1084 25.0186C61.8496 25.375 61.5273 25.6533 61.1416 25.8535C60.7607 26.0488 60.3115 26.1465 59.7939 26.1465C59.3105 26.1465 58.8906 26.0488 58.5342 25.8535C58.1826 25.6582 57.8872 25.3823 57.6479 25.0259C57.4087 24.6694 57.2158 24.252 57.0693 23.7734C56.9229 23.2949 56.813 22.7725 56.7397 22.2061V21.8691C56.813 21.3027 56.9229 20.7803 57.0693 20.3018C57.2158 19.8232 57.4087 19.4058 57.6479 19.0493C57.8872 18.6929 58.1826 18.417 58.5342 18.2217C58.8857 18.0264 59.3008 17.9287 59.7793 17.9287C60.3018 17.9287 60.7559 18.0288 61.1416 18.229C61.5322 18.4243 61.8545 18.7026 62.1084 19.064C62.3672 19.4204 62.5576 19.8452 62.6797 20.3384C62.8066 20.8267 62.8701 21.3662 62.8701 21.957ZM60.7607 22.1108V21.957C60.7607 21.6348 60.7363 21.332 60.6875 21.0488C60.6436 20.7607 60.5654 20.5093 60.4531 20.2944C60.3408 20.0747 60.187 19.9014 59.9917 19.7744C59.8013 19.6475 59.5547 19.584 59.252 19.584C58.9639 19.584 58.7197 19.6328 58.5195 19.7305C58.3193 19.8281 58.1533 19.9648 58.0215 20.1406C57.8945 20.3164 57.7993 20.5264 57.7358 20.7705C57.6724 21.0098 57.6333 21.2734 57.6187 21.5615V22.521C57.6333 22.9067 57.6968 23.2485 57.8091 23.5464C57.9263 23.8394 58.1021 24.0713 58.3364 24.2422C58.5757 24.4082 58.8857 24.4912 59.2666 24.4912C59.5645 24.4912 59.811 24.4326 60.0063 24.3154C60.2017 24.1982 60.353 24.0322 60.4604 23.8174C60.5728 23.6025 60.6509 23.3511 60.6948 23.063C60.7388 22.77 60.7607 22.4526 60.7607 22.1108ZM66.2905 19.7158V26H64.1738V18.0752H66.1587L66.2905 19.7158ZM65.9976 21.7593H65.4116C65.4116 21.2075 65.4775 20.6997 65.6094 20.2358C65.7461 19.7671 65.9438 19.3618 66.2026 19.02C66.4663 18.6733 66.791 18.4048 67.1768 18.2144C67.5625 18.0239 68.0093 17.9287 68.5171 17.9287C68.8687 17.9287 69.1909 17.9824 69.4839 18.0898C69.7769 18.1924 70.0283 18.356 70.2383 18.5806C70.4531 18.8003 70.6191 19.0884 70.7363 19.4448C70.8535 19.7964 70.9121 20.2188 70.9121 20.7119V26H68.8027V20.9463C68.8027 20.585 68.7539 20.3066 68.6562 20.1113C68.5586 19.916 68.4194 19.7793 68.2388 19.7012C68.063 19.623 67.8506 19.584 67.6016 19.584C67.3281 19.584 67.0889 19.6401 66.8838 19.7524C66.6836 19.8647 66.5176 20.021 66.3857 20.2212C66.2539 20.4165 66.1562 20.646 66.0928 20.9097C66.0293 21.1733 65.9976 21.4565 65.9976 21.7593ZM70.7144 21.5176L69.96 21.6128C69.96 21.0952 70.0234 20.6143 70.1504 20.1699C70.2822 19.7256 70.4751 19.335 70.729 18.998C70.9878 18.6611 71.3076 18.3999 71.6885 18.2144C72.0693 18.0239 72.5088 17.9287 73.0068 17.9287C73.3877 17.9287 73.7344 17.9849 74.0469 18.0972C74.3594 18.2046 74.6255 18.3779 74.8452 18.6172C75.0698 18.8516 75.2407 19.1592 75.3579 19.54C75.48 19.9209 75.541 20.3872 75.541 20.939V26H73.4243V20.939C73.4243 20.5728 73.3755 20.2944 73.2778 20.104C73.1851 19.9087 73.0483 19.7744 72.8677 19.7012C72.6919 19.623 72.4819 19.584 72.2378 19.584C71.9839 19.584 71.7617 19.6353 71.5713 19.7378C71.3809 19.8354 71.2222 19.9722 71.0952 20.1479C70.9683 20.3237 70.873 20.5288 70.8096 20.7632C70.7461 20.9927 70.7144 21.2441 70.7144 21.5176ZM79.4009 18.0752V26H77.2842V18.0752H79.4009ZM77.1523 16.0098C77.1523 15.7021 77.2598 15.4482 77.4746 15.248C77.6895 15.0479 77.9775 14.9478 78.3389 14.9478C78.6953 14.9478 78.981 15.0479 79.1958 15.248C79.4155 15.4482 79.5254 15.7021 79.5254 16.0098C79.5254 16.3174 79.4155 16.5713 79.1958 16.7715C78.981 16.9717 78.6953 17.0718 78.3389 17.0718C77.9775 17.0718 77.6895 16.9717 77.4746 16.7715C77.2598 16.5713 77.1523 16.3174 77.1523 16.0098ZM85.0259 18.0752V19.5693H80.4116V18.0752H85.0259ZM81.5542 16.1196H83.6636V23.6123C83.6636 23.8418 83.6929 24.0176 83.7515 24.1396C83.8149 24.2617 83.9077 24.3472 84.0298 24.396C84.1519 24.4399 84.3057 24.4619 84.4912 24.4619C84.623 24.4619 84.7402 24.457 84.8428 24.4473C84.9502 24.4326 85.0405 24.418 85.1138 24.4033L85.1211 25.9561C84.9404 26.0146 84.7451 26.061 84.5352 26.0952C84.3252 26.1294 84.0933 26.1465 83.8394 26.1465C83.3755 26.1465 82.9702 26.0708 82.6235 25.9194C82.2817 25.7632 82.0181 25.5142 81.8325 25.1724C81.647 24.8306 81.5542 24.3813 81.5542 23.8247V16.1196ZM92.0718 19.5986V29.0469H89.9624V18.0752H91.918L92.0718 19.5986ZM97.0889 21.9497V22.1035C97.0889 22.6797 97.0205 23.2144 96.8838 23.7075C96.752 24.2007 96.5566 24.6304 96.2979 24.9966C96.0391 25.3579 95.7168 25.6411 95.3311 25.8462C94.9502 26.0464 94.5107 26.1465 94.0127 26.1465C93.5293 26.1465 93.1094 26.0488 92.7529 25.8535C92.3965 25.6582 92.0962 25.3848 91.8521 25.0332C91.6128 24.6768 91.4199 24.2642 91.2734 23.7954C91.127 23.3267 91.0146 22.8237 90.9365 22.2866V21.8838C91.0146 21.3076 91.127 20.7803 91.2734 20.3018C91.4199 19.8184 91.6128 19.4009 91.8521 19.0493C92.0962 18.6929 92.394 18.417 92.7456 18.2217C93.1021 18.0264 93.5195 17.9287 93.998 17.9287C94.501 17.9287 94.9429 18.0239 95.3237 18.2144C95.7095 18.4048 96.0317 18.6782 96.2905 19.0347C96.5542 19.3911 96.752 19.8159 96.8838 20.3091C97.0205 20.8022 97.0889 21.3491 97.0889 21.9497ZM94.9722 22.1035V21.9497C94.9722 21.6128 94.9429 21.3027 94.8843 21.0195C94.8306 20.7314 94.7427 20.48 94.6206 20.2651C94.5034 20.0503 94.3472 19.8843 94.1519 19.7671C93.9614 19.645 93.7295 19.584 93.4561 19.584C93.168 19.584 92.9214 19.6304 92.7163 19.7231C92.5161 19.8159 92.3525 19.9502 92.2256 20.126C92.0986 20.3018 92.0034 20.5117 91.9399 20.7559C91.8765 21 91.8374 21.2759 91.8228 21.5835V22.6016C91.8472 22.9629 91.9155 23.2876 92.0278 23.5757C92.1401 23.8589 92.3135 24.0835 92.5479 24.2495C92.7822 24.4155 93.0898 24.4985 93.4707 24.4985C93.749 24.4985 93.9834 24.4375 94.1738 24.3154C94.3643 24.1885 94.5181 24.0151 94.6353 23.7954C94.7573 23.5757 94.8428 23.3218 94.8916 23.0337C94.9453 22.7456 94.9722 22.4355 94.9722 22.1035ZM102.677 24.2129V20.6826C102.677 20.4287 102.636 20.2114 102.553 20.0308C102.47 19.8452 102.34 19.7012 102.165 19.5986C101.994 19.4961 101.771 19.4448 101.498 19.4448C101.264 19.4448 101.061 19.4863 100.89 19.5693C100.719 19.6475 100.587 19.7622 100.495 19.9136C100.402 20.0601 100.355 20.2334 100.355 20.4336H98.2461C98.2461 20.0967 98.3242 19.7769 98.4805 19.4741C98.6367 19.1714 98.8638 18.9053 99.1616 18.6758C99.4595 18.4414 99.8135 18.2583 100.224 18.1265C100.639 17.9946 101.103 17.9287 101.615 17.9287C102.23 17.9287 102.777 18.0312 103.256 18.2363C103.734 18.4414 104.11 18.749 104.384 19.1592C104.662 19.5693 104.801 20.082 104.801 20.6973V24.0884C104.801 24.5229 104.828 24.8794 104.882 25.1577C104.936 25.4312 105.014 25.6704 105.116 25.8755V26H102.985C102.882 25.7852 102.804 25.5166 102.75 25.1943C102.702 24.8672 102.677 24.54 102.677 24.2129ZM102.956 21.1733L102.97 22.3672H101.791C101.513 22.3672 101.271 22.3989 101.066 22.4624C100.861 22.5259 100.692 22.6162 100.561 22.7334C100.429 22.8457 100.331 22.9775 100.268 23.1289C100.209 23.2803 100.18 23.4463 100.18 23.627C100.18 23.8076 100.221 23.9712 100.304 24.1177C100.387 24.2593 100.507 24.3716 100.663 24.4546C100.819 24.5327 101.002 24.5718 101.212 24.5718C101.53 24.5718 101.806 24.5083 102.04 24.3813C102.274 24.2544 102.455 24.0981 102.582 23.9126C102.714 23.7271 102.782 23.5513 102.787 23.3853L103.344 24.2788C103.266 24.479 103.158 24.6865 103.021 24.9014C102.89 25.1162 102.721 25.3188 102.516 25.5093C102.311 25.6948 102.064 25.8486 101.776 25.9707C101.488 26.0879 101.146 26.1465 100.751 26.1465C100.248 26.1465 99.7915 26.0464 99.3813 25.8462C98.9761 25.6411 98.6538 25.3604 98.4146 25.0039C98.1802 24.6426 98.063 24.2324 98.063 23.7734C98.063 23.3584 98.1411 22.9897 98.2974 22.6675C98.4536 22.3452 98.6831 22.0742 98.9858 21.8545C99.2935 21.6299 99.6768 21.4614 100.136 21.3491C100.595 21.2319 101.127 21.1733 101.732 21.1733H102.956ZM108.661 25.1064L110.763 18.0752H113.026L109.84 27.1938C109.772 27.394 109.679 27.6089 109.562 27.8384C109.45 28.0679 109.296 28.2852 109.101 28.4902C108.91 28.7002 108.668 28.8711 108.375 29.0029C108.087 29.1348 107.733 29.2007 107.313 29.2007C107.113 29.2007 106.95 29.1885 106.823 29.1641C106.696 29.1396 106.544 29.1055 106.369 29.0615V27.5161C106.422 27.5161 106.479 27.5161 106.537 27.5161C106.596 27.521 106.652 27.5234 106.706 27.5234C106.984 27.5234 107.211 27.4917 107.387 27.4282C107.562 27.3647 107.704 27.2671 107.812 27.1353C107.919 27.0083 108.004 26.8423 108.068 26.6372L108.661 25.1064ZM107.782 18.0752L109.503 23.8174L109.804 26.0513L108.368 26.2051L105.519 18.0752H107.782ZM115.978 19.8037V26H113.869V18.0752H115.854L115.978 19.8037ZM118.366 18.0239L118.329 19.9795C118.227 19.9648 118.102 19.9526 117.956 19.9429C117.814 19.9282 117.685 19.9209 117.567 19.9209C117.27 19.9209 117.011 19.96 116.791 20.0381C116.576 20.1113 116.396 20.2212 116.249 20.3677C116.107 20.5142 116 20.6924 115.927 20.9023C115.858 21.1123 115.819 21.3516 115.81 21.6201L115.385 21.4883C115.385 20.9756 115.436 20.5044 115.539 20.0747C115.641 19.6401 115.79 19.2617 115.985 18.9395C116.186 18.6172 116.43 18.3682 116.718 18.1924C117.006 18.0166 117.335 17.9287 117.707 17.9287C117.824 17.9287 117.943 17.9385 118.065 17.958C118.188 17.9727 118.288 17.9946 118.366 18.0239ZM118.805 22.1182V21.9644C118.805 21.3833 118.888 20.8486 119.054 20.3604C119.22 19.8672 119.462 19.4399 119.779 19.0786C120.097 18.7173 120.487 18.4365 120.951 18.2363C121.415 18.0312 121.947 17.9287 122.548 17.9287C123.148 17.9287 123.683 18.0312 124.152 18.2363C124.621 18.4365 125.014 18.7173 125.331 19.0786C125.653 19.4399 125.897 19.8672 126.063 20.3604C126.229 20.8486 126.312 21.3833 126.312 21.9644V22.1182C126.312 22.6943 126.229 23.229 126.063 23.7222C125.897 24.2104 125.653 24.6377 125.331 25.0039C125.014 25.3652 124.623 25.646 124.159 25.8462C123.695 26.0464 123.163 26.1465 122.562 26.1465C121.962 26.1465 121.427 26.0464 120.958 25.8462C120.495 25.646 120.102 25.3652 119.779 25.0039C119.462 24.6377 119.22 24.2104 119.054 23.7222C118.888 23.229 118.805 22.6943 118.805 22.1182ZM120.915 21.9644V22.1182C120.915 22.4502 120.944 22.7603 121.002 23.0483C121.061 23.3364 121.154 23.5903 121.281 23.8101C121.413 24.0249 121.583 24.1934 121.793 24.3154C122.003 24.4375 122.26 24.4985 122.562 24.4985C122.855 24.4985 123.107 24.4375 123.317 24.3154C123.527 24.1934 123.695 24.0249 123.822 23.8101C123.949 23.5903 124.042 23.3364 124.101 23.0483C124.164 22.7603 124.196 22.4502 124.196 22.1182V21.9644C124.196 21.6421 124.164 21.3394 124.101 21.0562C124.042 20.7681 123.947 20.5142 123.815 20.2944C123.688 20.0698 123.52 19.894 123.31 19.7671C123.1 19.6401 122.846 19.5767 122.548 19.5767C122.25 19.5767 121.996 19.6401 121.786 19.7671C121.581 19.894 121.413 20.0698 121.281 20.2944C121.154 20.5142 121.061 20.7681 121.002 21.0562C120.944 21.3394 120.915 21.6421 120.915 21.9644ZM129.835 14.75V26H127.719V14.75H129.835ZM133.805 14.75V26H131.688V14.75H133.805Z" fill="white"/>
</svg>
