<svg width="184" height="163" viewBox="0 0 184 163" fill="none" xmlns="http://www.w3.org/2000/svg">
<circle cx="90" cy="67" r="40" fill="#241F35"/>
<path d="M116.539 52.1594C116.539 61.6035 116.539 71.0477 116.539 80.4919C116.261 80.8949 115.881 81 115.395 81C99.138 80.9893 82.8808 80.9907 66.6235 80.9907C65.6751 80.9907 65.4609 80.7738 65.4609 79.8148C65.4609 70.8216 65.4609 61.8283 65.4609 52.8351C65.4609 51.876 65.6751 51.6592 66.6235 51.6592C82.8808 51.6592 99.138 51.6605 115.395 51.6499C115.881 51.6512 116.261 51.7563 116.539 52.1594ZM90.9974 57.1102C84.3147 57.1102 77.6333 57.1102 70.9505 57.1102C70.8175 57.1102 70.6845 57.1142 70.5515 57.1102C70.2841 57.1009 70.0753 57.1927 70.0633 57.4827C70.0487 57.8019 70.2735 57.9043 70.5541 57.9163C70.6539 57.9203 70.7537 57.9176 70.8534 57.9176C84.2841 57.9176 97.7161 57.9176 111.147 57.9163C111.483 57.9163 111.942 58.0041 111.925 57.4827C111.908 56.9879 111.455 57.1155 111.145 57.1155C104.429 57.1089 97.7134 57.1102 90.9974 57.1102ZM78.4753 72.9259C76.0145 72.9259 73.5537 72.9312 71.0942 72.9206C70.6366 72.9179 70.4225 73.0682 70.4358 73.5564C70.4597 74.4197 70.457 75.2856 70.4371 76.1502C70.4278 76.5812 70.6047 76.7514 71.0237 76.7514C75.9785 76.7474 80.9321 76.7474 85.8869 76.7514C86.3139 76.7514 86.4842 76.5639 86.4775 76.1462C86.4656 75.3149 86.4762 74.4835 86.4735 73.6522C86.4722 73.0217 86.3778 72.9259 85.7579 72.9259C83.3304 72.9245 80.9028 72.9259 78.4753 72.9259ZM103.622 69.498C103.718 69.7428 103.613 69.925 103.557 70.1059C103.317 70.8894 103.204 71.6902 103.164 72.5056C103.144 72.9152 103.232 73.277 103.605 73.4912C103.989 73.712 104.388 73.6561 104.727 73.3941C105.306 72.9458 105.881 72.5016 106.618 72.3353C106.853 72.2821 106.921 72.0865 106.874 71.8671C106.824 71.629 106.643 71.5532 106.421 71.5864C106.258 71.6117 106.097 71.6582 105.941 71.7101C105.347 71.907 104.85 72.2608 104.38 72.6625C104.283 72.745 104.163 72.858 104.026 72.7796C103.911 72.7131 103.968 72.5681 103.972 72.4617C103.998 71.7287 104.096 71.0078 104.338 70.3121C104.448 69.9929 104.503 69.6683 104.449 69.3331C104.318 68.519 103.782 68.3129 103.147 68.8356C102.219 69.6005 101.41 70.477 100.721 71.4627C100.584 71.6596 100.479 71.8977 100.215 71.9868C100.201 71.2778 100.359 70.6899 100.839 69.816C101.115 69.3132 101.302 68.7877 101.355 68.2198C101.433 67.4097 100.833 66.8896 100.036 67.0599C99.2099 67.2368 98.6738 67.7821 98.2641 68.4752C97.6323 69.5473 97.067 70.6526 96.62 71.8152C96.4298 72.31 96.2622 72.8128 96.1013 73.3183C96.0215 73.5697 96.0122 73.8357 96.342 73.9222C96.652 74.0033 96.7956 73.8025 96.8768 73.5378C96.8914 73.4899 96.898 73.4407 96.9127 73.3928C97.4062 71.8391 98.0819 70.3666 98.9079 68.9633C99.1886 68.4858 99.5118 68.0455 100.088 67.8846C100.497 67.7688 100.608 67.8646 100.543 68.2929C100.479 68.7066 100.321 69.0857 100.125 69.4555C99.6714 70.3148 99.3216 71.2086 99.3961 72.2063C99.4413 72.8208 99.7366 73.0057 100.339 72.8407C100.789 72.717 101.063 72.3925 101.31 72.032C101.961 71.0863 102.711 70.2323 103.622 69.498ZM82.5695 62.1502C86.4762 62.1502 90.3829 62.1502 94.2896 62.1502C94.4386 62.1502 94.5889 62.1529 94.7379 62.1436C94.9547 62.1276 95.0664 61.9866 95.0837 61.7858C95.101 61.5809 94.9932 61.4253 94.7924 61.3774C94.6501 61.3441 94.4958 61.3508 94.3468 61.3508C86.5001 61.3495 78.6535 61.3495 70.8069 61.3508C70.6579 61.3508 70.5036 61.3428 70.3613 61.3747C70.1604 61.42 70.0487 61.5729 70.062 61.7778C70.0753 61.976 70.1817 62.1249 70.3998 62.1422C70.5488 62.1542 70.6991 62.1502 70.8481 62.1502C74.7561 62.1502 78.6628 62.1502 82.5695 62.1502ZM104.874 76.7501C106.286 76.7501 107.699 76.7501 109.113 76.7501C109.778 76.7501 110.443 76.7474 111.108 76.7501C111.394 76.7514 111.623 76.649 111.616 76.3377C111.61 76.0278 111.376 75.9307 111.092 75.9414C111.026 75.944 110.959 75.9414 110.893 75.9414C106.886 75.9414 102.881 75.9414 98.8747 75.9427C98.7257 75.9427 98.5741 75.94 98.4291 75.9693C98.2162 76.0132 98.1364 76.1768 98.1484 76.379C98.1604 76.5612 98.2495 76.7009 98.4437 76.7248C98.6073 76.7448 98.7749 76.7488 98.9412 76.7488C100.918 76.7501 102.896 76.7501 104.874 76.7501ZM108.76 72.1145C108.729 71.8644 108.593 71.7194 108.344 71.7141C108.09 71.7088 107.941 71.8498 107.942 72.1065C107.944 72.3632 108.099 72.5002 108.345 72.5069C108.602 72.5135 108.726 72.3552 108.76 72.1145Z" fill="white"/>
<path d="M90.9977 57.1104C97.7137 57.1104 104.428 57.1091 111.144 57.1144C111.454 57.1144 111.908 56.9867 111.924 57.4815C111.941 58.003 111.482 57.9152 111.146 57.9152C97.715 57.9178 84.283 57.9178 70.8523 57.9165C70.7526 57.9165 70.6528 57.9192 70.553 57.9152C70.2724 57.9032 70.0476 57.8021 70.0622 57.4815C70.0755 57.1916 70.2843 57.0998 70.5504 57.1091C70.6834 57.1144 70.8164 57.1091 70.9494 57.1091C77.6335 57.1104 84.3162 57.1104 90.9977 57.1104Z" fill="#241F35"/>
<path d="M78.475 72.9258C80.9026 72.9258 83.3301 72.9244 85.7563 72.9258C86.3762 72.9258 86.4706 73.0215 86.472 73.652C86.4746 74.4834 86.464 75.3147 86.476 76.1461C86.4826 76.5638 86.3123 76.7513 85.8854 76.7513C80.9305 76.746 75.977 76.7473 71.0221 76.7513C70.6031 76.7513 70.4249 76.5811 70.4355 76.1501C70.4555 75.2855 70.4581 74.4209 70.4342 73.5563C70.4209 73.0681 70.635 72.9178 71.0926 72.9204C73.5534 72.9311 76.0142 72.9258 78.475 72.9258ZM74.6215 75.9386C75.6511 75.9386 76.6806 75.9306 77.7102 75.9439C77.9616 75.9466 78.0613 75.888 78.0507 75.6167C78.0294 75.1032 78.0361 74.5871 78.0494 74.0724C78.056 73.8329 78.0121 73.7185 77.7288 73.7199C75.6697 73.7318 73.6106 73.7292 71.5528 73.7212C71.3147 73.7199 71.2336 73.7877 71.2416 74.0285C71.2575 74.5432 71.2695 75.0594 71.2376 75.5715C71.2176 75.9013 71.348 75.9479 71.634 75.9426C72.6289 75.9293 73.6252 75.9386 74.6215 75.9386ZM82.2194 75.9399C83.249 75.9399 84.2785 75.9306 85.3081 75.9452C85.5887 75.9492 85.6872 75.8668 85.6752 75.5808C85.6552 75.0673 85.6606 74.5512 85.6725 74.0365C85.6779 73.7984 85.5927 73.7212 85.3546 73.7225C83.2782 73.7292 81.2019 73.7292 79.1255 73.7225C78.9073 73.7225 78.8342 73.797 78.8395 74.0112C78.8501 74.526 78.8621 75.0421 78.8355 75.5555C78.8195 75.8668 78.9233 75.9506 79.2266 75.9452C80.2255 75.9279 81.2231 75.9399 82.2194 75.9399Z" fill="#241F35"/>
<path d="M103.622 69.4982C102.711 70.2325 101.962 71.0864 101.312 72.0322C101.065 72.3927 100.792 72.7185 100.341 72.8409C99.7384 73.0059 99.4431 72.8223 99.3979 72.2064C99.3234 71.2088 99.6732 70.3149 100.127 69.4556C100.322 69.0845 100.481 68.7068 100.544 68.2931C100.61 67.8661 100.499 67.7703 100.09 67.8847C99.5149 68.0457 99.1917 68.486 98.9097 68.9635C98.0837 70.3668 97.4079 71.8393 96.9144 73.3929C96.8998 73.4408 96.8932 73.49 96.8785 73.5379C96.7974 73.8026 96.6537 74.0021 96.3438 73.9223C96.0139 73.8372 96.0232 73.5698 96.103 73.3184C96.264 72.813 96.4316 72.3102 96.6218 71.8154C97.0674 70.6528 97.6341 69.5474 98.2659 68.4753C98.6756 67.781 99.2116 67.2369 100.038 67.06C100.834 66.8884 101.433 67.4099 101.357 68.2199C101.303 68.7879 101.116 69.3133 100.841 69.8161C100.361 70.6887 100.203 71.278 100.217 71.9869C100.481 71.8978 100.586 71.6597 100.723 71.4629C101.412 70.4759 102.22 69.5993 103.149 68.8358C103.785 68.313 104.319 68.5192 104.451 69.3333C104.506 69.6685 104.451 69.9944 104.339 70.3123C104.097 71.0079 104 71.7302 103.974 72.4618C103.97 72.5696 103.911 72.7132 104.028 72.7797C104.165 72.8595 104.285 72.7451 104.382 72.6627C104.852 72.261 105.349 71.9058 105.942 71.7103C106.099 71.6584 106.26 71.6118 106.422 71.5866C106.645 71.552 106.825 71.6278 106.876 71.8672C106.923 72.0867 106.855 72.2822 106.619 72.3355C105.881 72.5017 105.308 72.946 104.729 73.3943C104.39 73.6576 103.991 73.7122 103.606 73.4914C103.234 73.2772 103.146 72.9154 103.166 72.5057C103.206 71.6903 103.319 70.8896 103.559 70.1061C103.612 69.9252 103.718 69.743 103.622 69.4982Z" fill="#241F35"/>
<path d="M82.5695 62.15C78.6628 62.15 74.7561 62.15 70.8494 62.15C70.7004 62.15 70.5501 62.154 70.4012 62.1421C70.183 62.1248 70.0766 61.9758 70.0633 61.7776C70.0487 61.5727 70.1604 61.4198 70.3626 61.3745C70.5062 61.3426 70.6592 61.3506 70.8082 61.3506C78.6548 61.3493 86.5015 61.3493 94.3481 61.3506C94.4971 61.3506 94.6514 61.344 94.7937 61.3772C94.9946 61.4251 95.1023 61.5794 95.085 61.7856C95.0677 61.9864 94.9573 62.1274 94.7392 62.1434C94.5902 62.154 94.4399 62.15 94.2909 62.15C90.3829 62.15 86.4762 62.15 82.5695 62.15Z" fill="#241F35"/>
<path d="M104.874 76.7501C102.896 76.7501 100.918 76.7501 98.9397 76.7488C98.7734 76.7488 98.6072 76.7448 98.4422 76.7249C98.2467 76.7009 98.1576 76.5599 98.1469 76.379C98.1336 76.1768 98.2134 76.0132 98.4276 75.9693C98.5726 75.9401 98.7242 75.9427 98.8732 75.9427C102.88 75.9414 106.885 75.9414 110.891 75.9414C110.958 75.9414 111.024 75.9441 111.091 75.9414C111.375 75.9294 111.608 76.0265 111.615 76.3378C111.621 76.649 111.393 76.7515 111.107 76.7501C110.442 76.7488 109.777 76.7501 109.111 76.7501C107.699 76.7501 106.286 76.7501 104.874 76.7501Z" fill="#241F35"/>
<path d="M108.76 72.1148C108.726 72.3556 108.602 72.5139 108.345 72.5072C108.099 72.5006 107.942 72.3622 107.942 72.1068C107.941 71.8501 108.09 71.7104 108.344 71.7144C108.593 71.7184 108.729 71.8647 108.76 72.1148Z" fill="#241F35"/>
<path d="M74.6216 75.9387C73.6253 75.9387 72.629 75.9294 71.6327 75.9454C71.3468 75.9494 71.2164 75.9041 71.2364 75.5743C71.267 75.0608 71.255 74.5447 71.2404 74.0313C71.2337 73.7905 71.3148 73.7227 71.5516 73.724C73.6107 73.732 75.6698 73.7346 77.7276 73.7227C78.0109 73.7213 78.0548 73.8357 78.0481 74.0752C78.0348 74.5899 78.0295 75.1047 78.0495 75.6195C78.0601 75.8908 77.9603 75.9494 77.7089 75.9467C76.6807 75.9307 75.6512 75.9387 74.6216 75.9387Z" fill="white"/>
<path d="M82.2193 75.9402C81.223 75.9402 80.2254 75.9296 79.2291 75.9468C78.9245 75.9522 78.8221 75.8684 78.838 75.5571C78.8633 75.0437 78.8526 74.5276 78.842 74.0128C78.838 73.7986 78.9098 73.7228 79.128 73.7241C81.2044 73.7308 83.2808 73.7308 85.3572 73.7241C85.5939 73.7228 85.6804 73.8 85.6751 74.0381C85.6631 74.5528 85.6564 75.0689 85.6777 75.5824C85.6897 75.8684 85.5913 75.9508 85.3106 75.9468C84.2784 75.9309 83.2488 75.9402 82.2193 75.9402Z" fill="white"/>
<path d="M45.875 137.297H47.8281C47.7656 138.042 47.5573 138.706 47.2031 139.289C46.849 139.867 46.3516 140.323 45.7109 140.656C45.0703 140.99 44.2917 141.156 43.375 141.156C42.6719 141.156 42.0391 141.031 41.4766 140.781C40.9141 140.526 40.4323 140.167 40.0312 139.703C39.6302 139.234 39.3229 138.669 39.1094 138.008C38.901 137.346 38.7969 136.607 38.7969 135.789V134.844C38.7969 134.026 38.9036 133.286 39.1172 132.625C39.3359 131.964 39.6484 131.398 40.0547 130.93C40.4609 130.456 40.9479 130.094 41.5156 129.844C42.0885 129.594 42.7318 129.469 43.4453 129.469C44.3516 129.469 45.1172 129.635 45.7422 129.969C46.3672 130.302 46.8516 130.763 47.1953 131.352C47.5443 131.94 47.7578 132.615 47.8359 133.375H45.8828C45.8307 132.885 45.7161 132.466 45.5391 132.117C45.3672 131.768 45.112 131.503 44.7734 131.32C44.4349 131.133 43.9922 131.039 43.4453 131.039C42.9974 131.039 42.6068 131.122 42.2734 131.289C41.9401 131.456 41.6615 131.701 41.4375 132.023C41.2135 132.346 41.0443 132.745 40.9297 133.219C40.8203 133.688 40.7656 134.224 40.7656 134.828V135.789C40.7656 136.362 40.8151 136.883 40.9141 137.352C41.0182 137.815 41.1745 138.214 41.3828 138.547C41.5964 138.88 41.8672 139.138 42.1953 139.32C42.5234 139.503 42.9167 139.594 43.375 139.594C43.9323 139.594 44.3828 139.505 44.7266 139.328C45.0755 139.151 45.3385 138.893 45.5156 138.555C45.6979 138.211 45.8177 137.792 45.875 137.297ZM51.3125 134.156V141H49.4297V132.547H51.2266L51.3125 134.156ZM53.8984 132.492L53.8828 134.242C53.7682 134.221 53.6432 134.206 53.5078 134.195C53.3776 134.185 53.2474 134.18 53.1172 134.18C52.7943 134.18 52.5104 134.227 52.2656 134.32C52.0208 134.409 51.8151 134.539 51.6484 134.711C51.487 134.878 51.362 135.081 51.2734 135.32C51.1849 135.56 51.1328 135.828 51.1172 136.125L50.6875 136.156C50.6875 135.625 50.7396 135.133 50.8438 134.68C50.9479 134.227 51.1042 133.828 51.3125 133.484C51.526 133.141 51.7917 132.872 52.1094 132.68C52.4323 132.487 52.8047 132.391 53.2266 132.391C53.3411 132.391 53.4635 132.401 53.5938 132.422C53.7292 132.443 53.8307 132.466 53.8984 132.492ZM58.6484 141.156C58.0234 141.156 57.4583 141.055 56.9531 140.852C56.4531 140.643 56.026 140.354 55.6719 139.984C55.3229 139.615 55.0547 139.18 54.8672 138.68C54.6797 138.18 54.5859 137.641 54.5859 137.062V136.75C54.5859 136.089 54.6823 135.49 54.875 134.953C55.0677 134.417 55.3359 133.958 55.6797 133.578C56.0234 133.193 56.4297 132.898 56.8984 132.695C57.3672 132.492 57.875 132.391 58.4219 132.391C59.026 132.391 59.5547 132.492 60.0078 132.695C60.4609 132.898 60.8359 133.185 61.1328 133.555C61.4349 133.919 61.6589 134.354 61.8047 134.859C61.9557 135.365 62.0312 135.922 62.0312 136.531V137.336H55.5V135.984H60.1719V135.836C60.1615 135.497 60.0938 135.18 59.9688 134.883C59.849 134.586 59.6641 134.346 59.4141 134.164C59.1641 133.982 58.8307 133.891 58.4141 133.891C58.1016 133.891 57.8229 133.958 57.5781 134.094C57.3385 134.224 57.138 134.414 56.9766 134.664C56.8151 134.914 56.6901 135.216 56.6016 135.57C56.5182 135.919 56.4766 136.312 56.4766 136.75V137.062C56.4766 137.432 56.526 137.776 56.625 138.094C56.7292 138.406 56.8802 138.68 57.0781 138.914C57.276 139.148 57.5156 139.333 57.7969 139.469C58.0781 139.599 58.3984 139.664 58.7578 139.664C59.2109 139.664 59.6146 139.573 59.9688 139.391C60.3229 139.208 60.6302 138.951 60.8906 138.617L61.8828 139.578C61.7005 139.844 61.4635 140.099 61.1719 140.344C60.8802 140.583 60.5234 140.779 60.1016 140.93C59.6849 141.081 59.2005 141.156 58.6484 141.156ZM68.2656 139.305V135.273C68.2656 134.971 68.2109 134.711 68.1016 134.492C67.9922 134.273 67.8255 134.104 67.6016 133.984C67.3828 133.865 67.1068 133.805 66.7734 133.805C66.4661 133.805 66.2005 133.857 65.9766 133.961C65.7526 134.065 65.5781 134.206 65.4531 134.383C65.3281 134.56 65.2656 134.76 65.2656 134.984H63.3906C63.3906 134.651 63.4714 134.328 63.6328 134.016C63.7943 133.703 64.0286 133.424 64.3359 133.18C64.6432 132.935 65.0104 132.742 65.4375 132.602C65.8646 132.461 66.3438 132.391 66.875 132.391C67.5104 132.391 68.0729 132.497 68.5625 132.711C69.0573 132.924 69.4453 133.247 69.7266 133.68C70.013 134.107 70.1562 134.643 70.1562 135.289V139.047C70.1562 139.432 70.1823 139.779 70.2344 140.086C70.2917 140.388 70.3724 140.651 70.4766 140.875V141H68.5469C68.4583 140.797 68.388 140.539 68.3359 140.227C68.2891 139.909 68.2656 139.602 68.2656 139.305ZM68.5391 135.859L68.5547 137.023H67.2031C66.8542 137.023 66.5469 137.057 66.2812 137.125C66.0156 137.188 65.7943 137.281 65.6172 137.406C65.4401 137.531 65.3073 137.682 65.2188 137.859C65.1302 138.036 65.0859 138.237 65.0859 138.461C65.0859 138.685 65.138 138.891 65.2422 139.078C65.3464 139.26 65.4974 139.404 65.6953 139.508C65.8984 139.612 66.1432 139.664 66.4297 139.664C66.8151 139.664 67.151 139.586 67.4375 139.43C67.7292 139.268 67.9583 139.073 68.125 138.844C68.2917 138.609 68.3802 138.388 68.3906 138.18L69 139.016C68.9375 139.229 68.8307 139.458 68.6797 139.703C68.5286 139.948 68.3307 140.182 68.0859 140.406C67.8464 140.625 67.5573 140.805 67.2188 140.945C66.8854 141.086 66.5 141.156 66.0625 141.156C65.5104 141.156 65.0182 141.047 64.5859 140.828C64.1536 140.604 63.8151 140.305 63.5703 139.93C63.3255 139.549 63.2031 139.12 63.2031 138.641C63.2031 138.193 63.2865 137.797 63.4531 137.453C63.625 137.104 63.875 136.812 64.2031 136.578C64.5365 136.344 64.9427 136.167 65.4219 136.047C65.901 135.922 66.4479 135.859 67.0625 135.859H68.5391ZM76 132.547V133.922H71.2344V132.547H76ZM72.6094 130.477H74.4922V138.664C74.4922 138.924 74.5286 139.125 74.6016 139.266C74.6797 139.401 74.7865 139.492 74.9219 139.539C75.0573 139.586 75.2161 139.609 75.3984 139.609C75.5286 139.609 75.6536 139.602 75.7734 139.586C75.8932 139.57 75.9896 139.555 76.0625 139.539L76.0703 140.977C75.9141 141.023 75.7318 141.065 75.5234 141.102C75.3203 141.138 75.0859 141.156 74.8203 141.156C74.388 141.156 74.0052 141.081 73.6719 140.93C73.3385 140.773 73.0781 140.521 72.8906 140.172C72.7031 139.823 72.6094 139.359 72.6094 138.781V130.477ZM81.1797 141.156C80.5547 141.156 79.9896 141.055 79.4844 140.852C78.9844 140.643 78.5573 140.354 78.2031 139.984C77.8542 139.615 77.5859 139.18 77.3984 138.68C77.2109 138.18 77.1172 137.641 77.1172 137.062V136.75C77.1172 136.089 77.2135 135.49 77.4062 134.953C77.599 134.417 77.8672 133.958 78.2109 133.578C78.5547 133.193 78.9609 132.898 79.4297 132.695C79.8984 132.492 80.4062 132.391 80.9531 132.391C81.5573 132.391 82.0859 132.492 82.5391 132.695C82.9922 132.898 83.3672 133.185 83.6641 133.555C83.9661 133.919 84.1901 134.354 84.3359 134.859C84.487 135.365 84.5625 135.922 84.5625 136.531V137.336H78.0312V135.984H82.7031V135.836C82.6927 135.497 82.625 135.18 82.5 134.883C82.3802 134.586 82.1953 134.346 81.9453 134.164C81.6953 133.982 81.362 133.891 80.9453 133.891C80.6328 133.891 80.3542 133.958 80.1094 134.094C79.8698 134.224 79.6693 134.414 79.5078 134.664C79.3464 134.914 79.2214 135.216 79.1328 135.57C79.0495 135.919 79.0078 136.312 79.0078 136.75V137.062C79.0078 137.432 79.0573 137.776 79.1562 138.094C79.2604 138.406 79.4115 138.68 79.6094 138.914C79.8073 139.148 80.0469 139.333 80.3281 139.469C80.6094 139.599 80.9297 139.664 81.2891 139.664C81.7422 139.664 82.1458 139.573 82.5 139.391C82.8542 139.208 83.1615 138.951 83.4219 138.617L84.4141 139.578C84.2318 139.844 83.9948 140.099 83.7031 140.344C83.4115 140.583 83.0547 140.779 82.6328 140.93C82.2161 141.081 81.7318 141.156 81.1797 141.156ZM96.9219 137.297H98.875C98.8125 138.042 98.6042 138.706 98.25 139.289C97.8958 139.867 97.3984 140.323 96.7578 140.656C96.1172 140.99 95.3385 141.156 94.4219 141.156C93.7188 141.156 93.0859 141.031 92.5234 140.781C91.9609 140.526 91.4792 140.167 91.0781 139.703C90.6771 139.234 90.3698 138.669 90.1562 138.008C89.9479 137.346 89.8438 136.607 89.8438 135.789V134.844C89.8438 134.026 89.9505 133.286 90.1641 132.625C90.3828 131.964 90.6953 131.398 91.1016 130.93C91.5078 130.456 91.9948 130.094 92.5625 129.844C93.1354 129.594 93.7786 129.469 94.4922 129.469C95.3984 129.469 96.1641 129.635 96.7891 129.969C97.4141 130.302 97.8984 130.763 98.2422 131.352C98.5911 131.94 98.8047 132.615 98.8828 133.375H96.9297C96.8776 132.885 96.763 132.466 96.5859 132.117C96.4141 131.768 96.1589 131.503 95.8203 131.32C95.4818 131.133 95.0391 131.039 94.4922 131.039C94.0443 131.039 93.6536 131.122 93.3203 131.289C92.987 131.456 92.7083 131.701 92.4844 132.023C92.2604 132.346 92.0911 132.745 91.9766 133.219C91.8672 133.688 91.8125 134.224 91.8125 134.828V135.789C91.8125 136.362 91.862 136.883 91.9609 137.352C92.0651 137.815 92.2214 138.214 92.4297 138.547C92.6432 138.88 92.9141 139.138 93.2422 139.32C93.5703 139.503 93.9635 139.594 94.4219 139.594C94.9792 139.594 95.4297 139.505 95.7734 139.328C96.1224 139.151 96.3854 138.893 96.5625 138.555C96.7448 138.211 96.8646 137.792 96.9219 137.297ZM102.328 129V141H100.453V129H102.328ZM102 136.461L101.391 136.453C101.396 135.87 101.477 135.331 101.633 134.836C101.794 134.341 102.018 133.911 102.305 133.547C102.596 133.177 102.945 132.893 103.352 132.695C103.758 132.492 104.208 132.391 104.703 132.391C105.12 132.391 105.495 132.448 105.828 132.562C106.167 132.677 106.458 132.862 106.703 133.117C106.948 133.367 107.133 133.695 107.258 134.102C107.388 134.503 107.453 134.992 107.453 135.57V141H105.562V135.555C105.562 135.148 105.503 134.826 105.383 134.586C105.268 134.346 105.099 134.174 104.875 134.07C104.651 133.961 104.378 133.906 104.055 133.906C103.716 133.906 103.417 133.974 103.156 134.109C102.901 134.245 102.688 134.43 102.516 134.664C102.344 134.898 102.214 135.169 102.125 135.477C102.042 135.784 102 136.112 102 136.461ZM113.086 141.156C112.461 141.156 111.896 141.055 111.391 140.852C110.891 140.643 110.464 140.354 110.109 139.984C109.76 139.615 109.492 139.18 109.305 138.68C109.117 138.18 109.023 137.641 109.023 137.062V136.75C109.023 136.089 109.12 135.49 109.312 134.953C109.505 134.417 109.773 133.958 110.117 133.578C110.461 133.193 110.867 132.898 111.336 132.695C111.805 132.492 112.312 132.391 112.859 132.391C113.464 132.391 113.992 132.492 114.445 132.695C114.898 132.898 115.273 133.185 115.57 133.555C115.872 133.919 116.096 134.354 116.242 134.859C116.393 135.365 116.469 135.922 116.469 136.531V137.336H109.938V135.984H114.609V135.836C114.599 135.497 114.531 135.18 114.406 134.883C114.286 134.586 114.102 134.346 113.852 134.164C113.602 133.982 113.268 133.891 112.852 133.891C112.539 133.891 112.26 133.958 112.016 134.094C111.776 134.224 111.576 134.414 111.414 134.664C111.253 134.914 111.128 135.216 111.039 135.57C110.956 135.919 110.914 136.312 110.914 136.75V137.062C110.914 137.432 110.964 137.776 111.062 138.094C111.167 138.406 111.318 138.68 111.516 138.914C111.714 139.148 111.953 139.333 112.234 139.469C112.516 139.599 112.836 139.664 113.195 139.664C113.648 139.664 114.052 139.573 114.406 139.391C114.76 139.208 115.068 138.951 115.328 138.617L116.32 139.578C116.138 139.844 115.901 140.099 115.609 140.344C115.318 140.583 114.961 140.779 114.539 140.93C114.122 141.081 113.638 141.156 113.086 141.156ZM123.086 144.25V134.227L123.305 132.547H124.984V144.25H123.086ZM117.594 136.859V136.695C117.594 136.055 117.667 135.471 117.812 134.945C117.958 134.414 118.174 133.958 118.461 133.578C118.747 133.198 119.096 132.906 119.508 132.703C119.919 132.495 120.393 132.391 120.93 132.391C121.451 132.391 121.904 132.49 122.289 132.688C122.68 132.885 123.008 133.169 123.273 133.539C123.544 133.904 123.76 134.339 123.922 134.844C124.083 135.349 124.201 135.911 124.273 136.531V137.055C124.206 137.659 124.091 138.211 123.93 138.711C123.768 139.211 123.552 139.643 123.281 140.008C123.01 140.372 122.68 140.656 122.289 140.859C121.898 141.057 121.44 141.156 120.914 141.156C120.388 141.156 119.919 141.049 119.508 140.836C119.096 140.622 118.747 140.323 118.461 139.938C118.18 139.547 117.964 139.091 117.812 138.57C117.667 138.044 117.594 137.474 117.594 136.859ZM119.477 136.695V136.859C119.477 137.245 119.51 137.607 119.578 137.945C119.651 138.279 119.766 138.576 119.922 138.836C120.078 139.091 120.276 139.292 120.516 139.438C120.755 139.583 121.044 139.656 121.383 139.656C121.826 139.656 122.188 139.56 122.469 139.367C122.755 139.174 122.974 138.917 123.125 138.594C123.281 138.266 123.391 137.904 123.453 137.508V136.094C123.417 135.786 123.352 135.5 123.258 135.234C123.164 134.964 123.034 134.729 122.867 134.531C122.706 134.328 122.503 134.172 122.258 134.062C122.018 133.948 121.732 133.891 121.398 133.891C121.06 133.891 120.768 133.964 120.523 134.109C120.279 134.255 120.078 134.458 119.922 134.719C119.771 134.974 119.659 135.271 119.586 135.609C119.513 135.948 119.477 136.31 119.477 136.695ZM132.086 139.008V132.547H133.977V141H132.195L132.086 139.008ZM132.352 137.25L132.984 137.234C132.984 137.802 132.922 138.326 132.797 138.805C132.672 139.279 132.479 139.693 132.219 140.047C131.958 140.396 131.625 140.669 131.219 140.867C130.812 141.06 130.326 141.156 129.758 141.156C129.346 141.156 128.969 141.096 128.625 140.977C128.281 140.857 127.984 140.672 127.734 140.422C127.49 140.172 127.299 139.846 127.164 139.445C127.029 139.044 126.961 138.565 126.961 138.008V132.547H128.844V138.023C128.844 138.331 128.88 138.589 128.953 138.797C129.026 139 129.125 139.164 129.25 139.289C129.375 139.414 129.521 139.503 129.688 139.555C129.854 139.607 130.031 139.633 130.219 139.633C130.755 139.633 131.177 139.529 131.484 139.32C131.797 139.107 132.018 138.82 132.148 138.461C132.284 138.102 132.352 137.698 132.352 137.25ZM139.633 141.156C139.008 141.156 138.443 141.055 137.938 140.852C137.438 140.643 137.01 140.354 136.656 139.984C136.307 139.615 136.039 139.18 135.852 138.68C135.664 138.18 135.57 137.641 135.57 137.062V136.75C135.57 136.089 135.667 135.49 135.859 134.953C136.052 134.417 136.32 133.958 136.664 133.578C137.008 133.193 137.414 132.898 137.883 132.695C138.352 132.492 138.859 132.391 139.406 132.391C140.01 132.391 140.539 132.492 140.992 132.695C141.445 132.898 141.82 133.185 142.117 133.555C142.419 133.919 142.643 134.354 142.789 134.859C142.94 135.365 143.016 135.922 143.016 136.531V137.336H136.484V135.984H141.156V135.836C141.146 135.497 141.078 135.18 140.953 134.883C140.833 134.586 140.648 134.346 140.398 134.164C140.148 133.982 139.815 133.891 139.398 133.891C139.086 133.891 138.807 133.958 138.562 134.094C138.323 134.224 138.122 134.414 137.961 134.664C137.799 134.914 137.674 135.216 137.586 135.57C137.503 135.919 137.461 136.312 137.461 136.75V137.062C137.461 137.432 137.51 137.776 137.609 138.094C137.714 138.406 137.865 138.68 138.062 138.914C138.26 139.148 138.5 139.333 138.781 139.469C139.062 139.599 139.383 139.664 139.742 139.664C140.195 139.664 140.599 139.573 140.953 139.391C141.307 139.208 141.615 138.951 141.875 138.617L142.867 139.578C142.685 139.844 142.448 140.099 142.156 140.344C141.865 140.583 141.508 140.779 141.086 140.93C140.669 141.081 140.185 141.156 139.633 141.156Z" fill="#241F35"/>
</svg>
