<svg width="184" height="163" viewBox="0 0 184 163" fill="none" xmlns="http://www.w3.org/2000/svg">
<rect width="184" height="163" rx="10" fill="#241F35"/>
<circle cx="91" cy="67" r="40" fill="#3CCB93"/>
<path d="M71.6261 74.5938C71.8082 74.2936 71.785 73.9438 71.8567 73.6183C72.8532 69.1106 76.8234 65.8753 81.4392 65.8245C82.1422 65.8168 82.8451 65.83 83.548 65.8168C83.7554 65.8135 83.8349 65.8786 83.868 66.0838C84.0467 67.2116 84.3083 68.3327 84.401 69.467C84.4572 70.1523 84.2696 70.8585 84.1758 71.5537C83.8614 73.9008 83.5414 76.2479 83.2236 78.5949C83.1662 79.0187 83.3041 79.3729 83.5689 79.7017C84.7519 81.1715 85.9282 82.6469 87.1188 84.1354C86.9742 84.2469 86.8198 84.1928 86.6807 84.1928C82.2139 84.1961 77.7481 84.1829 73.2813 84.2083C72.5122 84.2127 71.9538 83.9942 71.625 83.2858C71.6261 80.387 71.6261 77.4904 71.6261 74.5938Z" fill="white"/>
<path d="M113.999 81.2146C113.855 81.2709 113.877 81.4165 113.843 81.5247C113.357 83.1103 111.966 84.1829 110.306 84.1884C106.777 84.2017 103.249 84.2061 99.7205 84.1873C97.679 84.1763 96.0625 82.5398 96.0437 80.494C96.0272 78.6192 96.0503 76.7444 96.0294 74.8707C96.0261 74.5331 96.143 74.5044 96.4244 74.5044C102.283 74.5121 108.14 74.5099 113.998 74.5099C113.999 76.7455 113.999 78.9801 113.999 81.2146Z" fill="white"/>
<path d="M113.999 72.0283C108.155 72.0283 102.312 72.0239 96.4679 72.0382C96.0917 72.0393 96.0365 71.9334 96.0288 71.5869C95.9923 69.8831 96.6577 68.5987 98.2037 67.8241C98.8073 67.5217 99.4639 67.4357 100.134 67.4809C100.404 67.4986 100.48 67.4158 100.474 67.1443C100.459 66.4701 100.447 65.7915 100.497 65.1195C100.602 63.7015 101.812 62.5517 103.233 62.5197C104.418 62.4932 105.604 62.4943 106.789 62.5186C108.232 62.5484 109.439 63.6993 109.543 65.1449C109.59 65.8169 109.579 66.4944 109.565 67.1697C109.559 67.4335 109.642 67.4963 109.889 67.4809C110.429 67.4478 110.966 67.4886 111.477 67.6773C112.696 68.1253 113.496 68.9695 113.866 70.2208C113.897 70.3256 113.85 70.479 113.999 70.5386C113.999 71.0352 113.999 71.5317 113.999 72.0283ZM105.015 67.4754C105.622 67.4754 106.229 67.4677 106.835 67.4798C107.034 67.4842 107.097 67.4301 107.091 67.2271C107.078 66.6621 107.083 66.0972 107.088 65.5311C107.09 65.1526 106.917 64.9849 106.532 64.9893C105.525 65.0003 104.519 65.0003 103.512 64.9893C103.132 64.9849 102.948 65.1415 102.95 65.5256C102.954 66.0905 102.963 66.6566 102.944 67.2216C102.936 67.4643 103.046 67.482 103.237 67.4798C103.83 67.471 104.423 67.4754 105.015 67.4754Z" fill="white"/>
<path d="M96.0403 55.0889C96.0282 59.6528 92.3062 63.3506 87.7367 63.3384C83.1739 63.3263 79.4773 59.6054 79.4883 55.0348C79.4993 50.472 83.2202 46.7754 87.7919 46.7864C92.3569 46.7974 96.0514 50.5172 96.0403 55.0889Z" fill="white"/>
<path d="M94.7921 84.183C92.6349 84.183 90.5438 84.183 88.4505 84.183C88.413 84.0396 88.5322 83.9833 88.594 83.906C89.7007 82.5157 90.8064 81.1242 91.9253 79.7438C92.2531 79.3399 92.348 78.9173 92.2762 78.4008C91.8702 75.4965 91.4674 72.5911 91.1176 69.679C91.0558 69.1659 91.2467 68.6208 91.3306 68.0922C91.4354 67.4257 91.5524 66.7615 91.6605 66.0961C91.6859 65.9383 91.7035 65.8114 91.9242 65.8158C93.2318 65.8412 94.5439 65.7441 95.8415 65.9934C95.9563 66.0155 96.0678 66.0541 96.2267 66.0972C95.1563 66.8861 94.3872 67.8495 93.9425 69.0611C93.6887 69.753 93.5585 70.4658 93.5585 71.2029C93.5585 74.2772 93.5585 77.3514 93.5585 80.4246C93.5574 81.7863 93.9623 83.02 94.7921 84.183Z" fill="white"/>
<path d="M89.7677 78.3831C89.7876 78.4604 89.6982 78.552 89.621 78.6491C89.0692 79.3365 88.5098 80.0185 87.9724 80.717C87.8047 80.9343 87.723 80.9288 87.5586 80.7148C87.0201 80.0174 86.465 79.3321 85.9067 78.6502C85.7897 78.5067 85.761 78.3666 85.7853 78.1944C86.1086 75.8209 86.433 73.4462 86.7442 71.0715C86.7729 70.8509 86.8303 70.7714 87.0631 70.7813C87.531 70.8012 88.0011 70.8012 88.4689 70.7813C88.7029 70.7714 88.7581 70.8542 88.7867 71.0727C89.0736 73.2708 89.3727 75.4678 89.6695 77.6648C89.6982 77.8822 89.7291 78.1006 89.7677 78.3831Z" fill="white"/>
<path d="M87.8036 65.8201C88.1898 65.8201 88.575 65.829 88.9601 65.8168C89.151 65.8102 89.194 65.8764 89.162 66.0541C89.0439 66.7316 88.9314 67.4102 88.8243 68.0889C88.7979 68.2599 88.7162 68.3107 88.5485 68.3073C88.0254 68.2974 87.5013 68.2941 86.9782 68.3084C86.7752 68.314 86.7222 68.2235 86.6947 68.0491C86.592 67.397 86.485 66.7459 86.368 66.096C86.3305 65.8874 86.368 65.8025 86.6053 65.8146C87.0047 65.8356 87.4042 65.8201 87.8036 65.8201Z" fill="white"/>
<path d="M46.5859 131.141L43.1875 141H41.1328L45.4141 129.625H46.7266L46.5859 131.141ZM49.4297 141L46.0234 131.141L45.875 129.625H47.1953L51.4922 141H49.4297ZM49.2656 136.781V138.336H43.0781V136.781H49.2656ZM57.7344 139.25V129H59.625V141H57.9141L57.7344 139.25ZM52.2344 136.867V136.703C52.2344 136.062 52.3099 135.479 52.4609 134.953C52.612 134.422 52.8307 133.966 53.1172 133.586C53.4036 133.201 53.7526 132.906 54.1641 132.703C54.5755 132.495 55.0391 132.391 55.5547 132.391C56.0651 132.391 56.513 132.49 56.8984 132.688C57.2839 132.885 57.612 133.169 57.8828 133.539C58.1536 133.904 58.3698 134.341 58.5312 134.852C58.6927 135.357 58.8073 135.919 58.875 136.539V137.062C58.8073 137.667 58.6927 138.219 58.5312 138.719C58.3698 139.219 58.1536 139.651 57.8828 140.016C57.612 140.38 57.2812 140.661 56.8906 140.859C56.5052 141.057 56.0547 141.156 55.5391 141.156C55.0286 141.156 54.5677 141.049 54.1562 140.836C53.75 140.622 53.4036 140.323 53.1172 139.938C52.8307 139.552 52.612 139.099 52.4609 138.578C52.3099 138.052 52.2344 137.482 52.2344 136.867ZM54.1172 136.703V136.867C54.1172 137.253 54.151 137.612 54.2188 137.945C54.2917 138.279 54.4036 138.573 54.5547 138.828C54.7057 139.078 54.901 139.276 55.1406 139.422C55.3854 139.562 55.6771 139.633 56.0156 139.633C56.4427 139.633 56.7943 139.539 57.0703 139.352C57.3464 139.164 57.5625 138.911 57.7188 138.594C57.8802 138.271 57.9896 137.911 58.0469 137.516V136.102C58.0156 135.794 57.9505 135.508 57.8516 135.242C57.7578 134.977 57.6302 134.745 57.4688 134.547C57.3073 134.344 57.1068 134.188 56.8672 134.078C56.6328 133.964 56.3542 133.906 56.0312 133.906C55.6875 133.906 55.3958 133.979 55.1562 134.125C54.9167 134.271 54.7188 134.471 54.5625 134.727C54.4115 134.982 54.2995 135.279 54.2266 135.617C54.1536 135.956 54.1172 136.318 54.1172 136.703ZM66.75 139.25V129H68.6406V141H66.9297L66.75 139.25ZM61.25 136.867V136.703C61.25 136.062 61.3255 135.479 61.4766 134.953C61.6276 134.422 61.8464 133.966 62.1328 133.586C62.4193 133.201 62.7682 132.906 63.1797 132.703C63.5911 132.495 64.0547 132.391 64.5703 132.391C65.0807 132.391 65.5286 132.49 65.9141 132.688C66.2995 132.885 66.6276 133.169 66.8984 133.539C67.1693 133.904 67.3854 134.341 67.5469 134.852C67.7083 135.357 67.8229 135.919 67.8906 136.539V137.062C67.8229 137.667 67.7083 138.219 67.5469 138.719C67.3854 139.219 67.1693 139.651 66.8984 140.016C66.6276 140.38 66.2969 140.661 65.9062 140.859C65.5208 141.057 65.0703 141.156 64.5547 141.156C64.0443 141.156 63.5833 141.049 63.1719 140.836C62.7656 140.622 62.4193 140.323 62.1328 139.938C61.8464 139.552 61.6276 139.099 61.4766 138.578C61.3255 138.052 61.25 137.482 61.25 136.867ZM63.1328 136.703V136.867C63.1328 137.253 63.1667 137.612 63.2344 137.945C63.3073 138.279 63.4193 138.573 63.5703 138.828C63.7214 139.078 63.9167 139.276 64.1562 139.422C64.401 139.562 64.6927 139.633 65.0312 139.633C65.4583 139.633 65.8099 139.539 66.0859 139.352C66.362 139.164 66.5781 138.911 66.7344 138.594C66.8958 138.271 67.0052 137.911 67.0625 137.516V136.102C67.0312 135.794 66.9661 135.508 66.8672 135.242C66.7734 134.977 66.6458 134.745 66.4844 134.547C66.3229 134.344 66.1224 134.188 65.8828 134.078C65.6484 133.964 65.3698 133.906 65.0469 133.906C64.7031 133.906 64.4115 133.979 64.1719 134.125C63.9323 134.271 63.7344 134.471 63.5781 134.727C63.4271 134.982 63.3151 135.279 63.2422 135.617C63.1693 135.956 63.1328 136.318 63.1328 136.703ZM82.2266 139.445V141H76.1875V139.445H82.2266ZM76.7422 129.625V141H74.7812V129.625H76.7422ZM81.4375 134.375V135.906H76.1875V134.375H81.4375ZM82.1875 129.625V131.188H76.1875V129.625H82.1875ZM85.5234 134.266V141H83.6406V132.547H85.4141L85.5234 134.266ZM85.2188 136.461L84.5781 136.453C84.5781 135.87 84.651 135.331 84.7969 134.836C84.9427 134.341 85.1562 133.911 85.4375 133.547C85.7188 133.177 86.0677 132.893 86.4844 132.695C86.9062 132.492 87.3932 132.391 87.9453 132.391C88.3307 132.391 88.6823 132.448 89 132.562C89.3229 132.672 89.6016 132.846 89.8359 133.086C90.0755 133.326 90.2578 133.633 90.3828 134.008C90.513 134.383 90.5781 134.836 90.5781 135.367V141H88.6953V135.531C88.6953 135.12 88.6328 134.797 88.5078 134.562C88.388 134.328 88.2135 134.161 87.9844 134.062C87.7604 133.958 87.4922 133.906 87.1797 133.906C86.8255 133.906 86.5234 133.974 86.2734 134.109C86.0286 134.245 85.8281 134.43 85.6719 134.664C85.5156 134.898 85.401 135.169 85.3281 135.477C85.2552 135.784 85.2188 136.112 85.2188 136.461ZM90.4609 135.961L89.5781 136.156C89.5781 135.646 89.6484 135.164 89.7891 134.711C89.9349 134.253 90.1458 133.852 90.4219 133.508C90.7031 133.159 91.0495 132.885 91.4609 132.688C91.8724 132.49 92.3438 132.391 92.875 132.391C93.3073 132.391 93.6927 132.451 94.0312 132.57C94.375 132.685 94.6667 132.867 94.9062 133.117C95.1458 133.367 95.3281 133.693 95.4531 134.094C95.5781 134.49 95.6406 134.969 95.6406 135.531V141H93.75V135.523C93.75 135.096 93.6875 134.766 93.5625 134.531C93.4427 134.297 93.2708 134.135 93.0469 134.047C92.8229 133.953 92.5547 133.906 92.2422 133.906C91.9505 133.906 91.6927 133.961 91.4688 134.07C91.25 134.174 91.0651 134.323 90.9141 134.516C90.763 134.703 90.6484 134.919 90.5703 135.164C90.4974 135.409 90.4609 135.674 90.4609 135.961ZM99.4688 134.172V144.25H97.5859V132.547H99.3203L99.4688 134.172ZM104.977 136.695V136.859C104.977 137.474 104.904 138.044 104.758 138.57C104.617 139.091 104.406 139.547 104.125 139.938C103.849 140.323 103.508 140.622 103.102 140.836C102.695 141.049 102.227 141.156 101.695 141.156C101.169 141.156 100.708 141.06 100.312 140.867C99.9219 140.669 99.5911 140.391 99.3203 140.031C99.0495 139.672 98.8307 139.25 98.6641 138.766C98.5026 138.276 98.388 137.74 98.3203 137.156V136.523C98.388 135.904 98.5026 135.341 98.6641 134.836C98.8307 134.331 99.0495 133.896 99.3203 133.531C99.5911 133.167 99.9219 132.885 100.312 132.688C100.703 132.49 101.159 132.391 101.68 132.391C102.211 132.391 102.682 132.495 103.094 132.703C103.505 132.906 103.852 133.198 104.133 133.578C104.414 133.953 104.625 134.406 104.766 134.938C104.906 135.464 104.977 136.049 104.977 136.695ZM103.094 136.859V136.695C103.094 136.305 103.057 135.943 102.984 135.609C102.911 135.271 102.797 134.974 102.641 134.719C102.484 134.464 102.284 134.266 102.039 134.125C101.799 133.979 101.51 133.906 101.172 133.906C100.839 133.906 100.552 133.964 100.312 134.078C100.073 134.188 99.8724 134.341 99.7109 134.539C99.5495 134.737 99.4245 134.969 99.3359 135.234C99.2474 135.495 99.1849 135.779 99.1484 136.086V137.602C99.2109 137.977 99.3177 138.32 99.4688 138.633C99.6198 138.945 99.8333 139.195 100.109 139.383C100.391 139.565 100.75 139.656 101.188 139.656C101.526 139.656 101.815 139.583 102.055 139.438C102.294 139.292 102.49 139.091 102.641 138.836C102.797 138.576 102.911 138.276 102.984 137.938C103.057 137.599 103.094 137.24 103.094 136.859ZM108.594 129V141H106.703V129H108.594ZM110.297 136.867V136.688C110.297 136.078 110.385 135.513 110.562 134.992C110.74 134.466 110.995 134.01 111.328 133.625C111.667 133.234 112.078 132.932 112.562 132.719C113.052 132.5 113.604 132.391 114.219 132.391C114.839 132.391 115.391 132.5 115.875 132.719C116.365 132.932 116.779 133.234 117.117 133.625C117.456 134.01 117.714 134.466 117.891 134.992C118.068 135.513 118.156 136.078 118.156 136.688V136.867C118.156 137.477 118.068 138.042 117.891 138.562C117.714 139.083 117.456 139.539 117.117 139.93C116.779 140.315 116.367 140.617 115.883 140.836C115.398 141.049 114.849 141.156 114.234 141.156C113.615 141.156 113.06 141.049 112.57 140.836C112.086 140.617 111.674 140.315 111.336 139.93C110.997 139.539 110.74 139.083 110.562 138.562C110.385 138.042 110.297 137.477 110.297 136.867ZM112.18 136.688V136.867C112.18 137.247 112.219 137.607 112.297 137.945C112.375 138.284 112.497 138.581 112.664 138.836C112.831 139.091 113.044 139.292 113.305 139.438C113.565 139.583 113.875 139.656 114.234 139.656C114.583 139.656 114.885 139.583 115.141 139.438C115.401 139.292 115.615 139.091 115.781 138.836C115.948 138.581 116.07 138.284 116.148 137.945C116.232 137.607 116.273 137.247 116.273 136.867V136.688C116.273 136.312 116.232 135.958 116.148 135.625C116.07 135.286 115.945 134.987 115.773 134.727C115.607 134.466 115.393 134.263 115.133 134.117C114.878 133.966 114.573 133.891 114.219 133.891C113.865 133.891 113.557 133.966 113.297 134.117C113.042 134.263 112.831 134.466 112.664 134.727C112.497 134.987 112.375 135.286 112.297 135.625C112.219 135.958 112.18 136.312 112.18 136.688ZM122.062 140.078L124.359 132.547H126.375L122.984 142.289C122.906 142.497 122.805 142.724 122.68 142.969C122.555 143.214 122.391 143.445 122.188 143.664C121.99 143.888 121.742 144.068 121.445 144.203C121.148 144.344 120.789 144.414 120.367 144.414C120.201 144.414 120.039 144.398 119.883 144.367C119.732 144.341 119.589 144.312 119.453 144.281L119.445 142.844C119.497 142.849 119.56 142.854 119.633 142.859C119.711 142.865 119.773 142.867 119.82 142.867C120.133 142.867 120.393 142.828 120.602 142.75C120.81 142.677 120.979 142.557 121.109 142.391C121.245 142.224 121.359 142 121.453 141.719L122.062 140.078ZM120.766 132.547L122.773 138.875L123.109 140.859L121.805 141.195L118.734 132.547H120.766ZM131.07 141.156C130.445 141.156 129.88 141.055 129.375 140.852C128.875 140.643 128.448 140.354 128.094 139.984C127.745 139.615 127.477 139.18 127.289 138.68C127.102 138.18 127.008 137.641 127.008 137.062V136.75C127.008 136.089 127.104 135.49 127.297 134.953C127.49 134.417 127.758 133.958 128.102 133.578C128.445 133.193 128.852 132.898 129.32 132.695C129.789 132.492 130.297 132.391 130.844 132.391C131.448 132.391 131.977 132.492 132.43 132.695C132.883 132.898 133.258 133.185 133.555 133.555C133.857 133.919 134.081 134.354 134.227 134.859C134.378 135.365 134.453 135.922 134.453 136.531V137.336H127.922V135.984H132.594V135.836C132.583 135.497 132.516 135.18 132.391 134.883C132.271 134.586 132.086 134.346 131.836 134.164C131.586 133.982 131.253 133.891 130.836 133.891C130.523 133.891 130.245 133.958 130 134.094C129.76 134.224 129.56 134.414 129.398 134.664C129.237 134.914 129.112 135.216 129.023 135.57C128.94 135.919 128.898 136.312 128.898 136.75V137.062C128.898 137.432 128.948 137.776 129.047 138.094C129.151 138.406 129.302 138.68 129.5 138.914C129.698 139.148 129.938 139.333 130.219 139.469C130.5 139.599 130.82 139.664 131.18 139.664C131.633 139.664 132.036 139.573 132.391 139.391C132.745 139.208 133.052 138.951 133.312 138.617L134.305 139.578C134.122 139.844 133.885 140.099 133.594 140.344C133.302 140.583 132.945 140.779 132.523 140.93C132.107 141.081 131.622 141.156 131.07 141.156ZM139.648 141.156C139.023 141.156 138.458 141.055 137.953 140.852C137.453 140.643 137.026 140.354 136.672 139.984C136.323 139.615 136.055 139.18 135.867 138.68C135.68 138.18 135.586 137.641 135.586 137.062V136.75C135.586 136.089 135.682 135.49 135.875 134.953C136.068 134.417 136.336 133.958 136.68 133.578C137.023 133.193 137.43 132.898 137.898 132.695C138.367 132.492 138.875 132.391 139.422 132.391C140.026 132.391 140.555 132.492 141.008 132.695C141.461 132.898 141.836 133.185 142.133 133.555C142.435 133.919 142.659 134.354 142.805 134.859C142.956 135.365 143.031 135.922 143.031 136.531V137.336H136.5V135.984H141.172V135.836C141.161 135.497 141.094 135.18 140.969 134.883C140.849 134.586 140.664 134.346 140.414 134.164C140.164 133.982 139.831 133.891 139.414 133.891C139.102 133.891 138.823 133.958 138.578 134.094C138.339 134.224 138.138 134.414 137.977 134.664C137.815 134.914 137.69 135.216 137.602 135.57C137.518 135.919 137.477 136.312 137.477 136.75V137.062C137.477 137.432 137.526 137.776 137.625 138.094C137.729 138.406 137.88 138.68 138.078 138.914C138.276 139.148 138.516 139.333 138.797 139.469C139.078 139.599 139.398 139.664 139.758 139.664C140.211 139.664 140.615 139.573 140.969 139.391C141.323 139.208 141.63 138.951 141.891 138.617L142.883 139.578C142.701 139.844 142.464 140.099 142.172 140.344C141.88 140.583 141.523 140.779 141.102 140.93C140.685 141.081 140.201 141.156 139.648 141.156Z" fill="white"/>
</svg>
