<svg width="146" height="27" viewBox="0 0 146 27" fill="none" xmlns="http://www.w3.org/2000/svg">
<path d="M41.6074 21H38.1709L38.193 18.801H41.6074C42.602 18.801 43.4344 18.5837 44.1048 18.1491C44.7825 17.7144 45.2908 17.092 45.6297 16.2816C45.9759 15.4713 46.149 14.5062 46.149 13.3865V12.5135C46.149 11.6443 46.0496 10.8744 45.8507 10.2041C45.6591 9.5337 45.3718 8.97015 44.9888 8.51341C44.6131 8.05668 44.149 7.71044 43.5965 7.47471C43.0513 7.23897 42.4215 7.1211 41.7069 7.1211H38.1046V4.91109H41.7069C42.7751 4.91109 43.7512 5.09157 44.6352 5.45254C45.5192 5.80614 46.2816 6.31813 46.9225 6.9885C47.5708 7.65887 48.0681 8.46185 48.4143 9.39742C48.7605 10.333 48.9336 11.3791 48.9336 12.5356V13.3865C48.9336 14.5431 48.7605 15.5891 48.4143 16.5247C48.0681 17.4603 47.5708 18.2633 46.9225 18.9336C46.2743 19.5966 45.5008 20.1086 44.602 20.4696C43.7106 20.8232 42.7125 21 41.6074 21ZM39.7068 4.91109V21H36.9333V4.91109H39.7068ZM58.1936 18.6021V12.9003C58.1936 12.473 58.1163 12.1047 57.9616 11.7953C57.8069 11.4859 57.5711 11.2465 57.2544 11.077C56.945 10.9076 56.5545 10.8229 56.083 10.8229C55.6484 10.8229 55.2727 10.8965 54.9559 11.0439C54.6392 11.1912 54.3924 11.3901 54.2156 11.6406C54.0388 11.8911 53.9504 12.1747 53.9504 12.4914H51.2984C51.2984 12.02 51.4125 11.5632 51.6409 11.1212C51.8693 10.6792 52.2008 10.2851 52.6354 9.93887C53.0701 9.59264 53.5894 9.32007 54.1935 9.12117C54.7976 8.92227 55.4753 8.82281 56.2267 8.82281C57.1254 8.82281 57.921 8.97383 58.6135 9.27587C59.3134 9.5779 59.8622 10.0346 60.26 10.6461C60.6651 11.2501 60.8677 12.0089 60.8677 12.9224V18.2375C60.8677 18.7826 60.9046 19.2725 60.9782 19.7071C61.0593 20.1344 61.1734 20.5064 61.3208 20.8232V21H58.5914C58.4662 20.7127 58.3667 20.348 58.2931 19.906C58.2268 19.4567 58.1936 19.022 58.1936 18.6021ZM58.5804 13.729L58.6025 15.3755H56.6908C56.1972 15.3755 55.7626 15.4234 55.3869 15.5192C55.0112 15.6076 54.6981 15.7402 54.4476 15.917C54.1972 16.0938 54.0093 16.3074 53.8841 16.5579C53.7588 16.8083 53.6962 17.092 53.6962 17.4087C53.6962 17.7255 53.7699 18.0165 53.9172 18.2817C54.0646 18.5395 54.2782 18.7421 54.5581 18.8894C54.8454 19.0368 55.1917 19.1104 55.5968 19.1104C56.142 19.1104 56.6171 18.9999 57.0223 18.7789C57.4348 18.5506 57.759 18.2743 57.9947 17.9502C58.2304 17.6187 58.3557 17.3056 58.3704 17.0109L59.2323 18.1933C59.1439 18.4953 58.9929 18.8195 58.7793 19.1657C58.5656 19.5119 58.2857 19.8434 57.9395 20.1602C57.6006 20.4696 57.1917 20.7237 56.7129 20.9226C56.2414 21.1216 55.6963 21.221 55.0775 21.221C54.2966 21.221 53.6005 21.0663 52.989 20.7569C52.3776 20.4401 51.8988 20.0165 51.5525 19.4861C51.2063 18.9484 51.0332 18.3406 51.0332 17.6629C51.0332 17.0293 51.151 16.4695 51.3868 15.9833C51.6299 15.4897 51.9835 15.0772 52.4476 14.7457C52.919 14.4142 53.4936 14.1637 54.1714 13.9943C54.8491 13.8174 55.6226 13.729 56.4919 13.729H58.5804ZM70.3597 17.7623C70.3597 17.4971 70.2934 17.2577 70.1608 17.0441C70.0282 16.8231 69.7741 16.6242 69.3984 16.4474C69.0301 16.2706 68.4849 16.1085 67.763 15.9612C67.1294 15.8212 66.5475 15.6554 66.0171 15.4639C65.494 15.265 65.0447 15.0256 64.669 14.7457C64.2933 14.4657 64.0023 14.1342 63.796 13.7511C63.5897 13.3681 63.4866 12.9261 63.4866 12.4251C63.4866 11.9389 63.5934 11.4785 63.8071 11.0439C64.0207 10.6092 64.3264 10.2262 64.7242 9.89467C65.122 9.56317 65.6045 9.30165 66.1718 9.11012C66.7464 8.91858 67.3873 8.82281 68.0945 8.82281C69.0964 8.82281 69.9546 8.99225 70.6691 9.33112C71.3911 9.66262 71.9436 10.1157 72.3267 10.6903C72.7097 11.2575 72.9013 11.8984 72.9013 12.613H70.2382C70.2382 12.2962 70.1572 12.0016 69.9951 11.729C69.8404 11.449 69.6047 11.2244 69.2879 11.0549C68.9711 10.8781 68.5733 10.7897 68.0945 10.7897C67.6377 10.7897 67.2584 10.8634 66.9563 11.0107C66.6617 11.1507 66.4407 11.3349 66.2933 11.5632C66.1534 11.7916 66.0834 12.0421 66.0834 12.3146C66.0834 12.5135 66.1202 12.694 66.1939 12.8561C66.2749 13.0108 66.4075 13.1544 66.5917 13.287C66.7758 13.4123 67.0263 13.5301 67.3431 13.6406C67.6672 13.7511 68.0724 13.858 68.5586 13.9611C69.4721 14.1526 70.2566 14.3994 70.9123 14.7015C71.5753 14.9961 72.0836 15.3792 72.4372 15.8507C72.7908 16.3148 72.9676 16.9041 72.9676 17.6187C72.9676 18.1491 72.8534 18.6353 72.625 19.0773C72.404 19.5119 72.0799 19.8913 71.6526 20.2154C71.2253 20.5322 70.7133 20.779 70.1166 20.9558C69.5273 21.1326 68.8643 21.221 68.1276 21.221C67.0447 21.221 66.1276 21.0295 65.3762 20.6464C64.6248 20.256 64.0538 19.7587 63.6634 19.1546C63.2803 18.5432 63.0888 17.9097 63.0888 17.254H65.6635C65.6929 17.7476 65.8292 18.1417 66.0723 18.4364C66.3228 18.7237 66.6322 18.9336 67.0005 19.0662C67.3762 19.1915 67.763 19.2541 68.1608 19.2541C68.6396 19.2541 69.0411 19.1915 69.3652 19.0662C69.6894 18.9336 69.9362 18.7568 70.1056 18.5358C70.275 18.3075 70.3597 18.0496 70.3597 17.7623ZM77.929 4.02708V21H75.277V4.02708H77.929ZM77.4649 14.5799L76.603 14.5689C76.6104 13.7438 76.7246 12.9813 76.9456 12.2815C77.174 11.5817 77.4907 10.9739 77.8959 10.4582C78.3084 9.93519 78.802 9.5337 79.3766 9.25377C79.9512 8.96647 80.5884 8.82281 81.2883 8.82281C81.8776 8.82281 82.408 8.90385 82.8795 9.06592C83.3583 9.22798 83.7709 9.4895 84.1171 9.85047C84.4633 10.2041 84.7248 10.6682 84.9016 11.2428C85.0858 11.81 85.1779 12.5025 85.1779 13.3202V21H82.5038V13.2981C82.5038 12.7235 82.4191 12.2668 82.2496 11.9279C82.0876 11.589 81.8481 11.3459 81.5314 11.1986C81.2146 11.0439 80.8279 10.9665 80.3711 10.9665C79.8923 10.9665 79.4687 11.0623 79.1004 11.2538C78.7394 11.4454 78.4374 11.7069 78.1943 12.0384C77.9511 12.3699 77.767 12.753 77.6417 13.1876C77.5239 13.6222 77.4649 14.0863 77.4649 14.5799ZM87.8852 4.02708H90.5482V18.4474L90.2941 21H87.8852V4.02708ZM98.3496 14.9114V15.1435C98.3496 16.0275 98.2501 16.8415 98.0512 17.5855C97.8597 18.3222 97.565 18.9631 97.1672 19.5082C96.7768 20.0534 96.2906 20.477 95.7086 20.779C95.134 21.0737 94.4673 21.221 93.7086 21.221C92.9645 21.221 92.3163 21.081 91.7637 20.8011C91.2112 20.5212 90.7471 20.1234 90.3714 19.6077C90.0031 19.092 89.7047 18.4769 89.4764 17.7623C89.248 17.0478 89.0859 16.2595 88.9902 15.3976V14.6573C89.0859 13.788 89.248 12.9997 89.4764 12.2925C89.7047 11.578 90.0031 10.9628 90.3714 10.4472C90.7471 9.92414 91.2076 9.52265 91.7527 9.24272C92.3052 8.96278 92.9498 8.82281 93.6865 8.82281C94.4526 8.82281 95.1267 8.97015 95.7086 9.26482C96.298 9.55949 96.7878 9.97939 97.1783 10.5245C97.5687 11.0623 97.8597 11.7032 98.0512 12.4472C98.2501 13.1913 98.3496 14.0127 98.3496 14.9114ZM95.6865 15.1435V14.9114C95.6865 14.3736 95.6423 13.869 95.5539 13.3975C95.4655 12.9187 95.3182 12.4988 95.1119 12.1378C94.913 11.7769 94.6405 11.4933 94.2942 11.287C93.9553 11.0733 93.5318 10.9665 93.0235 10.9665C92.552 10.9665 92.1468 11.0476 91.8079 11.2096C91.4691 11.3717 91.1855 11.5927 90.9571 11.8726C90.7287 12.1526 90.5482 12.4767 90.4156 12.845C90.2904 13.2134 90.2057 13.6112 90.1615 14.0385V16.0385C90.2278 16.591 90.3678 17.0993 90.5814 17.5634C90.8024 18.0202 91.1118 18.3885 91.5096 18.6684C91.9074 18.941 92.4194 19.0773 93.0456 19.0773C93.5391 19.0773 93.9553 18.9778 94.2942 18.7789C94.6331 18.58 94.902 18.3038 95.1009 17.9502C95.3071 17.5892 95.4545 17.1693 95.5429 16.6905C95.6386 16.2116 95.6865 15.696 95.6865 15.1435ZM100.096 15.1545V14.9004C100.096 14.0385 100.221 13.2392 100.471 12.5025C100.722 11.7585 101.083 11.1139 101.554 10.5687C102.033 10.0162 102.615 9.58895 103.3 9.28692C103.992 8.97752 104.773 8.82281 105.643 8.82281C106.519 8.82281 107.3 8.97752 107.985 9.28692C108.678 9.58895 109.263 10.0162 109.742 10.5687C110.221 11.1139 110.586 11.7585 110.836 12.5025C111.087 13.2392 111.212 14.0385 111.212 14.9004V15.1545C111.212 16.0164 111.087 16.8157 110.836 17.5524C110.586 18.289 110.221 18.9336 109.742 19.4861C109.263 20.0313 108.681 20.4585 107.996 20.7679C107.311 21.07 106.534 21.221 105.665 21.221C104.788 21.221 104.004 21.07 103.311 20.7679C102.626 20.4585 102.044 20.0313 101.565 19.4861C101.086 18.9336 100.722 18.289 100.471 17.5524C100.221 16.8157 100.096 16.0164 100.096 15.1545ZM102.759 14.9004V15.1545C102.759 15.6923 102.814 16.2006 102.924 16.6794C103.035 17.1583 103.208 17.5782 103.444 17.9391C103.679 18.3001 103.981 18.5837 104.35 18.79C104.718 18.9963 105.156 19.0994 105.665 19.0994C106.158 19.0994 106.586 18.9963 106.947 18.79C107.315 18.5837 107.617 18.3001 107.853 17.9391C108.088 17.5782 108.262 17.1583 108.372 16.6794C108.49 16.2006 108.549 15.6923 108.549 15.1545V14.9004C108.549 14.37 108.49 13.869 108.372 13.3975C108.262 12.9187 108.085 12.4951 107.842 12.1268C107.606 11.7585 107.304 11.4712 106.936 11.2649C106.575 11.0512 106.144 10.9444 105.643 10.9444C105.142 10.9444 104.707 11.0512 104.339 11.2649C103.978 11.4712 103.679 11.7585 103.444 12.1268C103.208 12.4951 103.035 12.9187 102.924 13.3975C102.814 13.869 102.759 14.37 102.759 14.9004ZM120.185 18.6021V12.9003C120.185 12.473 120.107 12.1047 119.952 11.7953C119.798 11.4859 119.562 11.2465 119.245 11.077C118.936 10.9076 118.545 10.8229 118.074 10.8229C117.639 10.8229 117.264 10.8965 116.947 11.0439C116.63 11.1912 116.383 11.3901 116.207 11.6406C116.03 11.8911 115.941 12.1747 115.941 12.4914H113.289C113.289 12.02 113.403 11.5632 113.632 11.1212C113.86 10.6792 114.192 10.2851 114.626 9.93887C115.061 9.59264 115.58 9.32007 116.184 9.12117C116.788 8.92227 117.466 8.82281 118.218 8.82281C119.116 8.82281 119.912 8.97383 120.604 9.27587C121.304 9.5779 121.853 10.0346 122.251 10.6461C122.656 11.2501 122.859 12.0089 122.859 12.9224V18.2375C122.859 18.7826 122.896 19.2725 122.969 19.7071C123.05 20.1344 123.164 20.5064 123.312 20.8232V21H120.582C120.457 20.7127 120.358 20.348 120.284 19.906C120.218 19.4567 120.185 19.022 120.185 18.6021ZM120.571 13.729L120.593 15.3755H118.682C118.188 15.3755 117.754 15.4234 117.378 15.5192C117.002 15.6076 116.689 15.7402 116.439 15.917C116.188 16.0938 116 16.3074 115.875 16.5579C115.75 16.8083 115.687 17.092 115.687 17.4087C115.687 17.7255 115.761 18.0165 115.908 18.2817C116.056 18.5395 116.269 18.7421 116.549 18.8894C116.836 19.0368 117.183 19.1104 117.588 19.1104C118.133 19.1104 118.608 18.9999 119.013 18.7789C119.426 18.5506 119.75 18.2743 119.986 17.9502C120.221 17.6187 120.347 17.3056 120.361 17.0109L121.223 18.1933C121.135 18.4953 120.984 18.8195 120.77 19.1657C120.557 19.5119 120.277 19.8434 119.93 20.1602C119.592 20.4696 119.183 20.7237 118.704 20.9226C118.232 21.1216 117.687 21.221 117.068 21.221C116.288 21.221 115.591 21.0663 114.98 20.7569C114.369 20.4401 113.89 20.0165 113.543 19.4861C113.197 18.9484 113.024 18.3406 113.024 17.6629C113.024 17.0293 113.142 16.4695 113.378 15.9833C113.621 15.4897 113.974 15.0772 114.439 14.7457C114.91 14.4142 115.485 14.1637 116.162 13.9943C116.84 13.8174 117.614 13.729 118.483 13.729H120.571ZM128.317 11.3201V21H125.654V9.04382H128.196L128.317 11.3201ZM131.975 8.96647L131.953 11.4417C131.791 11.4122 131.614 11.3901 131.422 11.3754C131.238 11.3606 131.054 11.3533 130.87 11.3533C130.413 11.3533 130.012 11.4196 129.666 11.5522C129.319 11.6774 129.028 11.8616 128.793 12.1047C128.564 12.3404 128.387 12.6277 128.262 12.9666C128.137 13.3055 128.063 13.6848 128.041 14.1048L127.433 14.149C127.433 13.3975 127.507 12.7014 127.654 12.0605C127.802 11.4196 128.023 10.856 128.317 10.3698C128.619 9.88362 128.995 9.50424 129.445 9.23167C129.901 8.9591 130.428 8.82281 131.025 8.82281C131.187 8.82281 131.36 8.83755 131.544 8.86702C131.736 8.89648 131.879 8.92963 131.975 8.96647ZM140.716 18.5248V4.02708H143.39V21H140.97L140.716 18.5248ZM132.936 15.1545V14.9225C132.936 14.0164 133.043 13.1913 133.257 12.4472C133.47 11.6958 133.78 11.0512 134.185 10.5135C134.59 9.96834 135.084 9.55212 135.666 9.26482C136.248 8.97015 136.903 8.82281 137.633 8.82281C138.355 8.82281 138.988 8.96278 139.533 9.24272C140.078 9.52265 140.542 9.92414 140.926 10.4472C141.309 10.9628 141.614 11.5817 141.843 12.3036C142.071 13.0182 142.233 13.8138 142.329 14.6904V15.4308C142.233 16.2853 142.071 17.0662 141.843 17.7734C141.614 18.4806 141.309 19.092 140.926 19.6077C140.542 20.1234 140.075 20.5212 139.522 20.8011C138.977 21.081 138.34 21.221 137.611 21.221C136.889 21.221 136.237 21.07 135.655 20.7679C135.08 20.4659 134.59 20.0423 134.185 19.4972C133.78 18.9521 133.47 18.3111 133.257 17.5745C133.043 16.8304 132.936 16.0238 132.936 15.1545ZM135.599 14.9225V15.1545C135.599 15.6996 135.647 16.2079 135.743 16.6794C135.846 17.1509 136.005 17.5671 136.218 17.9281C136.432 18.2817 136.708 18.5616 137.047 18.7679C137.393 18.9668 137.806 19.0662 138.285 19.0662C138.889 19.0662 139.386 18.9336 139.776 18.6684C140.167 18.4032 140.472 18.0459 140.693 17.5966C140.922 17.1398 141.077 16.6315 141.158 16.0717V14.0716C141.113 13.637 141.021 13.2318 140.881 12.8561C140.749 12.4804 140.568 12.1526 140.34 11.8726C140.112 11.5853 139.828 11.3643 139.489 11.2096C139.158 11.0476 138.763 10.9665 138.307 10.9665C137.82 10.9665 137.408 11.0697 137.069 11.2759C136.73 11.4822 136.45 11.7658 136.229 12.1268C136.016 12.4878 135.857 12.9077 135.754 13.3865C135.651 13.8653 135.599 14.3773 135.599 14.9225Z" fill="white"/>
<path d="M0.0927734 14.5729H8.05151V4.62451H0.0927734V14.5729ZM0.0927734 22.5317H8.05151V16.5626H0.0927734V22.5317ZM10.0412 22.5317H17.9999V12.5833H10.0412V22.5317ZM10.0412 4.62451V10.5936H17.9999V4.62451H10.0412Z" fill="white"/>
<path d="M10.0386 4.60742L18 4.60746V10.5936H10.0386L10.0386 4.60742Z" fill="#3CCB93"/>
<path d="M0.160156 16.6172H8.14062L8.07031 22.5312H0.0703125L0.160156 16.6172Z" fill="#3CCB93"/>
</svg>
