<svg width="171" height="41" viewBox="0 0 171 41" fill="none" xmlns="http://www.w3.org/2000/svg">
<path d="M5 0.5H166C168.485 0.5 170.5 2.51472 170.5 5V36C170.5 38.4853 168.485 40.5 166 40.5H5C2.51472 40.5 0.5 38.4853 0.5 36V5C0.5 2.51472 2.51472 0.5 5 0.5Z" fill="#3CCB93" stroke="#3CCB93"/>
<path d="M72.3604 26H70.0386L70.0532 24.2861H72.3604C72.9365 24.2861 73.4224 24.1567 73.8179 23.8979C74.2134 23.6343 74.5112 23.251 74.7114 22.748C74.9165 22.2451 75.019 21.6372 75.019 20.9243V20.4043C75.019 19.8574 74.9604 19.3765 74.8433 18.9614C74.731 18.5464 74.5625 18.1973 74.3379 17.9141C74.1133 17.6309 73.8374 17.4185 73.5103 17.2769C73.1831 17.1304 72.8071 17.0571 72.3823 17.0571H69.9946V15.3359H72.3823C73.0952 15.3359 73.7471 15.458 74.3379 15.7021C74.9336 15.9414 75.4487 16.2856 75.8833 16.7349C76.3179 17.1841 76.6523 17.7212 76.8867 18.3462C77.126 18.9663 77.2456 19.6572 77.2456 20.4189V20.9243C77.2456 21.6812 77.126 22.3721 76.8867 22.9971C76.6523 23.6221 76.3179 24.1592 75.8833 24.6084C75.4536 25.0527 74.9385 25.397 74.3379 25.6411C73.7422 25.8804 73.083 26 72.3604 26ZM71.2837 15.3359V26H69.0864V15.3359H71.2837ZM78.3735 22.1182V21.9644C78.3735 21.3833 78.4565 20.8486 78.6226 20.3604C78.7886 19.8672 79.0303 19.4399 79.3477 19.0786C79.665 18.7173 80.0557 18.4365 80.5195 18.2363C80.9834 18.0312 81.5156 17.9287 82.1162 17.9287C82.7168 17.9287 83.2515 18.0312 83.7202 18.2363C84.189 18.4365 84.582 18.7173 84.8994 19.0786C85.2217 19.4399 85.4658 19.8672 85.6318 20.3604C85.7979 20.8486 85.8809 21.3833 85.8809 21.9644V22.1182C85.8809 22.6943 85.7979 23.229 85.6318 23.7222C85.4658 24.2104 85.2217 24.6377 84.8994 25.0039C84.582 25.3652 84.1914 25.646 83.7275 25.8462C83.2637 26.0464 82.7314 26.1465 82.1309 26.1465C81.5303 26.1465 80.9956 26.0464 80.5269 25.8462C80.063 25.646 79.6699 25.3652 79.3477 25.0039C79.0303 24.6377 78.7886 24.2104 78.6226 23.7222C78.4565 23.229 78.3735 22.6943 78.3735 22.1182ZM80.4829 21.9644V22.1182C80.4829 22.4502 80.5122 22.7603 80.5708 23.0483C80.6294 23.3364 80.7222 23.5903 80.8491 23.8101C80.981 24.0249 81.1519 24.1934 81.3618 24.3154C81.5718 24.4375 81.8281 24.4985 82.1309 24.4985C82.4238 24.4985 82.6753 24.4375 82.8853 24.3154C83.0952 24.1934 83.2637 24.0249 83.3906 23.8101C83.5176 23.5903 83.6104 23.3364 83.6689 23.0483C83.7324 22.7603 83.7642 22.4502 83.7642 22.1182V21.9644C83.7642 21.6421 83.7324 21.3394 83.6689 21.0562C83.6104 20.7681 83.5151 20.5142 83.3833 20.2944C83.2563 20.0698 83.0879 19.894 82.8779 19.7671C82.668 19.6401 82.4141 19.5767 82.1162 19.5767C81.8184 19.5767 81.5645 19.6401 81.3545 19.7671C81.1494 19.894 80.981 20.0698 80.8491 20.2944C80.7222 20.5142 80.6294 20.7681 80.5708 21.0562C80.5122 21.3394 80.4829 21.6421 80.4829 21.9644ZM89.2427 19.7671V26H87.1333V18.0752H89.1108L89.2427 19.7671ZM88.9351 21.7593H88.3638C88.3638 21.1733 88.4395 20.646 88.5908 20.1772C88.7422 19.7036 88.9546 19.3008 89.228 18.9688C89.5015 18.6318 89.8262 18.3755 90.2021 18.1997C90.583 18.019 91.0078 17.9287 91.4766 17.9287C91.8477 17.9287 92.187 17.9824 92.4946 18.0898C92.8022 18.1973 93.0659 18.3682 93.2856 18.6025C93.5103 18.8369 93.6812 19.147 93.7983 19.5327C93.9204 19.9185 93.9814 20.3896 93.9814 20.9463V26H91.8574V20.939C91.8574 20.5874 91.8086 20.314 91.7109 20.1187C91.6133 19.9233 91.4692 19.7866 91.2788 19.7085C91.0933 19.6255 90.8638 19.584 90.5903 19.584C90.3071 19.584 90.0605 19.6401 89.8506 19.7524C89.6455 19.8647 89.4746 20.021 89.3379 20.2212C89.2061 20.4165 89.106 20.646 89.0376 20.9097C88.9692 21.1733 88.9351 21.4565 88.9351 21.7593ZM99.2329 26.1465C98.6177 26.1465 98.0659 26.0488 97.5776 25.8535C97.0894 25.6533 96.6743 25.3774 96.3325 25.0259C95.9956 24.6743 95.7368 24.2666 95.5562 23.8027C95.3755 23.334 95.2852 22.8359 95.2852 22.3086V22.0156C95.2852 21.415 95.3706 20.8657 95.5415 20.3677C95.7124 19.8696 95.9565 19.4375 96.2739 19.0713C96.5962 18.7051 96.9868 18.4243 97.4458 18.229C97.9048 18.0288 98.4224 17.9287 98.9985 17.9287C99.5601 17.9287 100.058 18.0215 100.493 18.207C100.927 18.3926 101.291 18.6562 101.584 18.998C101.882 19.3398 102.106 19.75 102.258 20.2285C102.409 20.7021 102.485 21.2295 102.485 21.8105V22.6895H96.186V21.2832H100.412V21.1221C100.412 20.8291 100.358 20.5679 100.251 20.3384C100.148 20.104 99.9922 19.9185 99.7822 19.7817C99.5723 19.645 99.3037 19.5767 98.9766 19.5767C98.6982 19.5767 98.459 19.6377 98.2588 19.7598C98.0586 19.8818 97.895 20.0527 97.7681 20.2725C97.646 20.4922 97.5532 20.751 97.4897 21.0488C97.4312 21.3418 97.4019 21.6641 97.4019 22.0156V22.3086C97.4019 22.626 97.4458 22.9189 97.5337 23.1875C97.6265 23.4561 97.7559 23.688 97.9219 23.8833C98.0928 24.0786 98.2979 24.23 98.5371 24.3374C98.7812 24.4448 99.0571 24.4985 99.3647 24.4985C99.7456 24.4985 100.1 24.4253 100.427 24.2788C100.759 24.1274 101.044 23.9004 101.284 23.5977L102.309 24.7109C102.143 24.9502 101.916 25.1797 101.628 25.3994C101.345 25.6191 101.003 25.7998 100.603 25.9414C100.202 26.0781 99.7456 26.1465 99.2329 26.1465Z" fill="white"/>
</svg>
