<svg width="43" height="38" viewBox="0 0 43 38" fill="none" xmlns="http://www.w3.org/2000/svg">
<path d="M0.00110347 27.8074C0.183176 27.5072 0.160003 27.1574 0.231728 26.8319C1.22816 22.3242 5.19844 19.0889 9.81424 19.0381C10.5172 19.0304 11.2201 19.0436 11.923 19.0304C12.1304 19.0271 12.2099 19.0922 12.243 19.2974C12.4217 20.4252 12.6833 21.5463 12.776 22.6807C12.8322 23.3659 12.6446 24.0721 12.5508 24.7673C12.2364 27.1144 11.9164 29.4615 11.5986 31.8086C11.5412 32.2323 11.6791 32.5865 11.9439 32.9153C13.1269 34.3851 14.3032 35.8605 15.4938 37.3491C15.3492 37.4605 15.1948 37.4064 15.0557 37.4064C10.5889 37.4098 6.12314 37.3965 1.65631 37.4219C0.887188 37.4263 0.328833 37.2078 0 36.4994C0.00110347 33.6006 0.00110347 30.704 0.00110347 27.8074Z" fill="#3CCB93"/>
<path d="M42.3743 34.4285C42.2298 34.4847 42.2519 34.6304 42.2176 34.7385C41.7321 36.3242 40.3406 37.3968 38.681 37.4023C35.1521 37.4155 31.6244 37.42 28.0955 37.4012C26.054 37.3902 24.4375 35.7537 24.4187 33.7079C24.4022 31.8331 24.4253 29.9583 24.4044 28.0846C24.4011 27.747 24.518 27.7183 24.7994 27.7183C30.6577 27.726 36.5149 27.7238 42.3732 27.7238C42.3743 29.9594 42.3743 32.1939 42.3743 34.4285Z" fill="#3CCB93"/>
<path d="M42.3737 25.242C36.5298 25.242 30.6869 25.2376 24.8429 25.252C24.4667 25.2531 24.4115 25.1471 24.4038 24.8006C24.3673 23.0969 25.0327 21.8125 26.5787 21.0378C27.1823 20.7355 27.8389 20.6494 28.5087 20.6946C28.779 20.7123 28.8551 20.6295 28.8485 20.3581C28.8342 19.6839 28.822 19.0052 28.8717 18.3332C28.9765 16.9153 30.187 15.7655 31.6083 15.7335C32.7934 15.707 33.9785 15.7081 35.1637 15.7324C36.607 15.7621 37.8142 16.9131 37.9179 18.3586C37.9654 19.0306 37.9543 19.7081 37.94 20.3835C37.9345 20.6472 38.0172 20.7101 38.2644 20.6946C38.804 20.6615 39.3414 20.7024 39.8523 20.8911C41.0705 21.3391 41.8706 22.1832 42.2413 23.4346C42.2722 23.5394 42.2248 23.6928 42.3737 23.7524C42.3737 24.2489 42.3737 24.7455 42.3737 25.242ZM33.3904 20.6891C33.9973 20.6891 34.6042 20.6814 35.21 20.6935C35.4086 20.698 35.4715 20.6439 35.466 20.4408C35.4528 19.8759 35.4583 19.3109 35.4627 18.7448C35.4649 18.3663 35.2917 18.1986 34.9066 18.203C33.9002 18.214 32.8938 18.214 31.8875 18.203C31.5068 18.1986 31.3225 18.3553 31.3247 18.7393C31.3291 19.3043 31.338 19.8704 31.3192 20.4353C31.3115 20.6781 31.4207 20.6957 31.6116 20.6935C32.2053 20.6847 32.7978 20.6891 33.3904 20.6891Z" fill="#3CCB93"/>
<path d="M24.4153 8.30252C24.4032 12.8665 20.6812 16.5642 16.1117 16.552C11.5489 16.5399 7.85227 12.819 7.86331 8.24845C7.87434 3.68561 11.5952 -0.01101 16.1669 2.46404e-05C20.7319 0.0110593 24.4264 3.73085 24.4153 8.30252Z" fill="#3CCB93"/>
<path d="M23.1671 37.3966C21.0099 37.3966 18.9188 37.3966 16.8255 37.3966C16.788 37.2532 16.9072 37.1969 16.969 37.1197C18.0757 35.7293 19.1814 34.3378 20.3003 32.9574C20.6281 32.5535 20.723 32.1309 20.6512 31.6145C20.2452 28.7101 19.8424 25.8047 19.4926 22.8927C19.4308 22.3795 19.6217 21.8344 19.7056 21.3059C19.8104 20.6394 19.9274 19.9751 20.0355 19.3097C20.0609 19.1519 20.0785 19.025 20.2992 19.0294C21.6068 19.0548 22.9189 18.9577 24.2165 19.2071C24.3313 19.2291 24.4428 19.2678 24.6017 19.3108C23.5313 20.0998 22.7622 21.0631 22.3175 22.2747C22.0637 22.9666 21.9335 23.6794 21.9335 24.4165C21.9335 27.4908 21.9335 30.5651 21.9335 33.6382C21.9324 34.9999 22.3373 36.2336 23.1671 37.3966Z" fill="#3CCB93"/>
<path d="M18.1427 31.5967C18.1626 31.674 18.0732 31.7656 17.996 31.8627C17.4442 32.5501 16.8848 33.2321 16.3474 33.9306C16.1797 34.148 16.098 34.1425 15.9336 33.9284C15.3951 33.231 14.84 32.5457 14.2817 31.8638C14.1647 31.7203 14.136 31.5802 14.1603 31.4081C14.4836 29.0345 14.808 26.6598 15.1192 24.2852C15.1479 24.0645 15.2053 23.985 15.4381 23.995C15.906 24.0148 16.3761 24.0148 16.8439 23.995C17.0779 23.985 17.1331 24.0678 17.1617 24.2863C17.4486 26.4844 17.7477 28.6814 18.0445 30.8784C18.0732 31.0958 18.1041 31.3143 18.1427 31.5967Z" fill="#3CCB93"/>
<path d="M16.1786 19.034C16.5648 19.034 16.95 19.0428 17.3351 19.0307C17.526 19.0241 17.569 19.0903 17.537 19.2679C17.4189 19.9455 17.3064 20.6241 17.1993 21.3027C17.1729 21.4738 17.0912 21.5245 16.9235 21.5212C16.4004 21.5113 15.8763 21.508 15.3532 21.5223C15.1502 21.5278 15.0972 21.4373 15.0697 21.263C14.967 20.6108 14.86 19.9598 14.743 19.3099C14.7055 19.1013 14.743 19.0163 14.9803 19.0285C15.3797 19.0494 15.7792 19.034 16.1786 19.034Z" fill="#3CCB93"/>
</svg>
