<svg width="96" height="40" viewBox="0 0 96 40" fill="none" xmlns="http://www.w3.org/2000/svg">
<rect x="0.5" y="0.5" width="95" height="39" rx="5.84" stroke="white"/>
<path d="M29.2261 22.0239H31.5088C31.4479 22.8319 31.2238 23.5485 30.8364 24.1738C30.4491 24.7936 29.9095 25.2806 29.2178 25.6348C28.526 25.9889 27.6877 26.166 26.7026 26.166C25.9445 26.166 25.2611 26.0332 24.6523 25.7676C24.0492 25.4964 23.5317 25.1118 23.1001 24.6138C22.674 24.1102 22.3475 23.507 22.1206 22.8042C21.8937 22.0959 21.7803 21.3018 21.7803 20.4219V19.5005C21.7803 18.6206 21.8965 17.8265 22.1289 17.1182C22.3613 16.4098 22.6934 15.8066 23.125 15.3086C23.5622 14.805 24.0851 14.4176 24.6938 14.1465C25.3081 13.8753 25.9943 13.7397 26.7524 13.7397C27.7375 13.7397 28.5703 13.9224 29.251 14.2876C29.9316 14.6473 30.4601 15.1426 30.8364 15.7734C31.2127 16.4043 31.4396 17.1292 31.5171 17.9482H29.2344C29.1901 17.4391 29.0794 17.0075 28.9023 16.6533C28.7308 16.2992 28.4707 16.0308 28.1221 15.8481C27.779 15.66 27.3224 15.5659 26.7524 15.5659C26.3097 15.5659 25.9196 15.6489 25.582 15.8149C25.25 15.981 24.9733 16.23 24.752 16.562C24.5306 16.8885 24.3646 17.298 24.2539 17.7905C24.1432 18.2775 24.0879 18.842 24.0879 19.4839V20.4219C24.0879 21.0361 24.1377 21.5868 24.2373 22.0737C24.3369 22.5607 24.4919 22.973 24.7021 23.3105C24.9124 23.6481 25.1836 23.9054 25.5156 24.0825C25.8477 24.2596 26.2433 24.3481 26.7026 24.3481C27.2616 24.3481 27.7153 24.2596 28.064 24.0825C28.4181 23.9054 28.6865 23.6453 28.8691 23.3022C29.0573 22.9591 29.1763 22.533 29.2261 22.0239ZM38.0581 24.0908V19.9487C38.0581 19.6444 38.0055 19.3815 37.9004 19.1602C37.7952 18.9388 37.6348 18.7673 37.4189 18.6455C37.2031 18.5238 36.9292 18.4629 36.5972 18.4629C36.3039 18.4629 36.0465 18.5127 35.8252 18.6123C35.6094 18.7119 35.4434 18.853 35.3271 19.0356C35.2109 19.2127 35.1528 19.4175 35.1528 19.6499H32.9531C32.9531 19.2791 33.0417 18.9277 33.2188 18.5957C33.3958 18.2581 33.6476 17.9593 33.9741 17.6992C34.3062 17.4336 34.7018 17.2261 35.1611 17.0767C35.626 16.9272 36.1462 16.8525 36.7217 16.8525C37.4023 16.8525 38.0083 16.9688 38.5396 17.2012C39.0763 17.4281 39.4969 17.7712 39.8013 18.2305C40.1112 18.6898 40.2661 19.2681 40.2661 19.9653V23.8833C40.2661 24.3315 40.2938 24.7161 40.3491 25.0371C40.41 25.3525 40.4985 25.6265 40.6147 25.8589V26H38.3818C38.2767 25.7731 38.1965 25.4854 38.1411 25.1367C38.0858 24.7826 38.0581 24.4339 38.0581 24.0908ZM38.3652 20.5298L38.3818 21.833H36.9956C36.6525 21.833 36.3509 21.869 36.0908 21.9409C35.8307 22.0073 35.6177 22.1069 35.4517 22.2397C35.2856 22.367 35.1611 22.522 35.0781 22.7046C34.9951 22.8817 34.9536 23.0837 34.9536 23.3105C34.9536 23.5319 35.0034 23.7311 35.103 23.9082C35.2082 24.0853 35.3576 24.2264 35.5513 24.3315C35.7505 24.4312 35.9829 24.481 36.2485 24.481C36.6359 24.481 36.9735 24.4035 37.2612 24.2485C37.549 24.0881 37.7731 23.8944 37.9336 23.6675C38.0941 23.4406 38.1799 23.2248 38.1909 23.02L38.8218 23.9663C38.7443 24.1932 38.6281 24.4339 38.4731 24.6885C38.3182 24.943 38.119 25.181 37.8755 25.4023C37.632 25.6237 37.3387 25.8063 36.9956 25.9502C36.6525 26.0941 36.2541 26.166 35.8003 26.166C35.2192 26.166 34.6991 26.0498 34.2397 25.8174C33.7804 25.585 33.418 25.2668 33.1523 24.8628C32.8867 24.4588 32.7539 23.9995 32.7539 23.4849C32.7539 23.009 32.8424 22.5884 33.0195 22.2231C33.1966 21.8579 33.4595 21.5508 33.8081 21.3018C34.1567 21.0472 34.5884 20.8563 35.103 20.729C35.6232 20.5962 36.2181 20.5298 36.8877 20.5298H38.3652ZM44.3916 18.936V26H42.2002V17.0186H44.2588L44.3916 18.936ZM44.043 21.1855H43.3955C43.401 20.5326 43.4896 19.9404 43.6611 19.4092C43.8327 18.8779 44.0734 18.4214 44.3833 18.0396C44.6987 17.6577 45.0723 17.3644 45.5039 17.1597C45.9355 16.9549 46.417 16.8525 46.9482 16.8525C47.3799 16.8525 47.77 16.9134 48.1187 17.0352C48.4673 17.1569 48.7661 17.3506 49.0151 17.6162C49.2697 17.8818 49.4634 18.2305 49.5962 18.6621C49.7345 19.0882 49.8037 19.6139 49.8037 20.2393V26H47.5957V20.2227C47.5957 19.8132 47.5348 19.4894 47.4131 19.2515C47.2969 19.0135 47.1253 18.8447 46.8984 18.7451C46.6771 18.6455 46.4032 18.5957 46.0767 18.5957C45.7391 18.5957 45.443 18.6649 45.1885 18.8032C44.9395 18.936 44.7292 19.1214 44.5576 19.3594C44.3916 19.5973 44.2643 19.8713 44.1758 20.1812C44.0872 20.491 44.043 20.8258 44.043 21.1855ZM55.4233 24.4395C55.7332 24.4395 56.0099 24.3786 56.2534 24.2568C56.4969 24.1351 56.6906 23.9635 56.8345 23.7422C56.9839 23.5208 57.0641 23.2635 57.0752 22.9702H59.1421C59.131 23.5789 58.9595 24.124 58.6274 24.6055C58.2954 25.0869 57.8527 25.4688 57.2993 25.751C56.7515 26.0277 56.1372 26.166 55.4565 26.166C54.7648 26.166 54.1616 26.0498 53.647 25.8174C53.1323 25.585 52.7035 25.2612 52.3604 24.8462C52.0228 24.4312 51.7682 23.9497 51.5967 23.4019C51.4307 22.854 51.3477 22.2674 51.3477 21.6421V21.3765C51.3477 20.7511 51.4307 20.1646 51.5967 19.6167C51.7682 19.0688 52.0228 18.5874 52.3604 18.1724C52.7035 17.7573 53.1323 17.4336 53.647 17.2012C54.1616 16.9688 54.762 16.8525 55.4482 16.8525C56.1732 16.8525 56.8096 16.9937 57.3574 17.2759C57.9108 17.5581 58.3424 17.9565 58.6523 18.4712C58.9678 18.9858 59.131 19.5918 59.1421 20.2891H57.0752C57.0641 19.9681 56.9922 19.6803 56.8594 19.4258C56.7266 19.1712 56.5384 18.9665 56.2949 18.8115C56.0514 18.6566 55.7554 18.5791 55.4067 18.5791C55.036 18.5791 54.7261 18.6566 54.4771 18.8115C54.2336 18.9665 54.0426 19.1795 53.9043 19.4507C53.7715 19.7163 53.6774 20.0151 53.6221 20.3472C53.5723 20.6737 53.5474 21.0168 53.5474 21.3765V21.6421C53.5474 22.0073 53.5723 22.356 53.6221 22.688C53.6774 23.02 53.7715 23.3188 53.9043 23.5845C54.0426 23.8446 54.2336 24.0521 54.4771 24.207C54.7261 24.362 55.0415 24.4395 55.4233 24.4395ZM64.6372 26.166C63.9565 26.166 63.3451 26.0553 62.8027 25.834C62.2604 25.6126 61.7983 25.3055 61.4165 24.9126C61.0402 24.5142 60.7497 24.0521 60.5449 23.5264C60.3457 22.9951 60.2461 22.4251 60.2461 21.8164V21.4844C60.2461 20.7926 60.3457 20.1646 60.5449 19.6001C60.7441 19.0301 61.0264 18.5404 61.3916 18.1309C61.7568 17.7214 62.194 17.4059 62.7031 17.1846C63.2122 16.9632 63.7739 16.8525 64.3882 16.8525C65.0246 16.8525 65.5863 16.9604 66.0732 17.1763C66.5602 17.3866 66.967 17.6854 67.2935 18.0728C67.62 18.4601 67.8662 18.925 68.0322 19.4673C68.1982 20.0041 68.2812 20.599 68.2812 21.252V22.1733H61.2422V20.6626H66.123V20.4966C66.112 20.1479 66.0456 19.8298 65.9238 19.542C65.8021 19.2487 65.6139 19.0163 65.3594 18.8447C65.1048 18.6676 64.7756 18.5791 64.3716 18.5791C64.0451 18.5791 63.7601 18.651 63.5166 18.7949C63.2786 18.9333 63.0794 19.1325 62.9189 19.3926C62.764 19.6471 62.6478 19.9515 62.5703 20.3057C62.4928 20.6598 62.4541 21.0527 62.4541 21.4844V21.8164C62.4541 22.1927 62.5039 22.5413 62.6035 22.8623C62.7087 23.1833 62.8608 23.4627 63.0601 23.7007C63.2648 23.9331 63.5083 24.1157 63.7905 24.2485C64.0783 24.3758 64.4048 24.4395 64.77 24.4395C65.2293 24.4395 65.6444 24.3509 66.0151 24.1738C66.3914 23.9912 66.7179 23.7228 66.9946 23.3687L68.0986 24.5142C67.9105 24.7909 67.6559 25.0565 67.335 25.311C67.0195 25.5656 66.6377 25.7731 66.1895 25.9336C65.7412 26.0885 65.2238 26.166 64.6372 26.166ZM72.0747 13.25V26H69.875V13.25H72.0747Z" fill="white"/>
</svg>
