<svg width="272" height="56" viewBox="0 0 272 56" fill="none" xmlns="http://www.w3.org/2000/svg">
<rect x="1" y="1" width="270" height="54" rx="9" fill="#3CCB93" stroke="#3CCB93" stroke-width="2"/>
<path d="M63.8428 29.5604H59.6548V27.3614H63.8428C64.5721 27.3614 65.1614 27.2435 65.6108 27.0078C66.0602 26.7721 66.388 26.4479 66.5943 26.0354C66.8079 25.6155 66.9147 25.1366 66.9147 24.5989C66.9147 24.0906 66.8079 23.6154 66.5943 23.1734C66.388 22.724 66.0602 22.3631 65.6108 22.0905C65.1614 21.8179 64.5721 21.6816 63.8428 21.6816H60.5057V35.5605H57.7321V19.4716H63.8428C65.0878 19.4716 66.1449 19.6926 67.0142 20.1346C67.8908 20.5693 68.5575 21.1733 69.0142 21.9469C69.471 22.713 69.6993 23.5896 69.6993 24.5768C69.6993 25.6155 69.471 26.5069 69.0142 27.2509C68.5575 27.9949 67.8908 28.5658 67.0142 28.9637C66.1449 29.3615 65.0878 29.5604 63.8428 29.5604ZM78.5283 33.1627V27.4608C78.5283 27.0336 78.451 26.6652 78.2963 26.3558C78.1416 26.0464 77.9058 25.807 77.5891 25.6376C77.2797 25.4681 76.8892 25.3834 76.4178 25.3834C75.9831 25.3834 75.6074 25.4571 75.2907 25.6044C74.9739 25.7518 74.7271 25.9507 74.5503 26.2011C74.3735 26.4516 74.2851 26.7352 74.2851 27.052H71.6331C71.6331 26.5805 71.7473 26.1238 71.9756 25.6818C72.204 25.2398 72.5355 24.8457 72.9701 24.4994C73.4048 24.1532 73.9241 23.8806 74.5282 23.6817C75.1323 23.4828 75.81 23.3834 76.5614 23.3834C77.4602 23.3834 78.2558 23.5344 78.9482 23.8364C79.6481 24.1385 80.1969 24.5952 80.5947 25.2066C80.9999 25.8107 81.2025 26.5695 81.2025 27.4829V32.798C81.2025 33.3432 81.2393 33.8331 81.313 34.2677C81.394 34.695 81.5082 35.067 81.6555 35.3837V35.5605H78.9261C78.8009 35.2732 78.7015 34.9086 78.6278 34.4666C78.5615 34.0172 78.5283 33.5826 78.5283 33.1627ZM78.9151 28.2896L78.9372 29.9361H77.0255C76.532 29.9361 76.0973 29.9839 75.7216 30.0797C75.3459 30.1681 75.0328 30.3007 74.7824 30.4775C74.5319 30.6543 74.344 30.8679 74.2188 31.1184C74.0936 31.3689 74.031 31.6525 74.031 31.9693C74.031 32.286 74.1046 32.577 74.252 32.8422C74.3993 33.1001 74.6129 33.3026 74.8929 33.45C75.1802 33.5973 75.5264 33.671 75.9316 33.671C76.4767 33.671 76.9519 33.5605 77.357 33.3395C77.7696 33.1111 78.0937 32.8349 78.3294 32.5107C78.5652 32.1792 78.6904 31.8661 78.7051 31.5715L79.567 32.7538C79.4786 33.0559 79.3276 33.38 79.114 33.7262C78.9004 34.0725 78.6204 34.404 78.2742 34.7207C77.9353 35.0301 77.5265 35.2843 77.0476 35.4832C76.5762 35.6821 76.031 35.7815 75.4122 35.7815C74.6313 35.7815 73.9352 35.6268 73.3237 35.3174C72.7123 35.0007 72.2335 34.5771 71.8872 34.0467C71.541 33.5089 71.3679 32.9012 71.3679 32.2234C71.3679 31.5899 71.4858 31.03 71.7215 30.5438C71.9646 30.0502 72.3182 29.6377 72.7823 29.3062C73.2538 28.9747 73.8284 28.7242 74.5061 28.5548C75.1838 28.378 75.9574 28.2896 76.8266 28.2896H78.9151ZM87.28 34.2566L90.5287 23.6044H93.3796L88.5839 37.3838C88.4734 37.6785 88.3298 37.9989 88.153 38.3452C87.9762 38.6914 87.7441 39.0192 87.4568 39.3286C87.1769 39.6454 86.8269 39.8995 86.407 40.0911C85.9871 40.29 85.4788 40.3894 84.8821 40.3894C84.6464 40.3894 84.418 40.3673 84.197 40.3231C83.9834 40.2863 83.7808 40.2458 83.5893 40.2016L83.5782 38.1684C83.6519 38.1757 83.7403 38.1831 83.8434 38.1905C83.9539 38.1978 84.0423 38.2015 84.1086 38.2015C84.5506 38.2015 84.919 38.1463 85.2136 38.0358C85.5083 37.9326 85.7477 37.7632 85.9319 37.5275C86.1234 37.2917 86.2855 36.975 86.4181 36.5772L87.28 34.2566ZM85.4457 23.6044L88.2856 32.5549L88.7607 35.3616L86.9153 35.8368L82.5727 23.6044H85.4457ZM97.5787 25.8807V35.5605H94.9156V23.6044H97.4571L97.5787 25.8807ZM101.236 23.527L101.214 26.0022C101.052 25.9728 100.875 25.9507 100.684 25.9359C100.5 25.9212 100.315 25.9138 100.131 25.9138C99.6745 25.9138 99.273 25.9801 98.9268 26.1127C98.5805 26.238 98.2896 26.4221 98.0538 26.6652C97.8255 26.901 97.6487 27.1883 97.5234 27.5271C97.3982 27.866 97.3245 28.2454 97.3024 28.6653L96.6947 28.7095C96.6947 27.9581 96.7683 27.2619 96.9157 26.621C97.063 25.9801 97.284 25.4166 97.5787 24.9304C97.8807 24.4442 98.2564 24.0648 98.7058 23.7922C99.1625 23.5196 99.6892 23.3834 100.286 23.3834C100.448 23.3834 100.621 23.3981 100.805 23.4276C100.997 23.457 101.14 23.4902 101.236 23.527ZM102.109 29.7151V29.4609C102.109 28.599 102.234 27.7997 102.485 27.063C102.735 26.319 103.096 25.6744 103.568 25.1293C104.047 24.5768 104.629 24.1495 105.314 23.8475C106.006 23.5381 106.787 23.3834 107.656 23.3834C108.533 23.3834 109.314 23.5381 109.999 23.8475C110.691 24.1495 111.277 24.5768 111.756 25.1293C112.235 25.6744 112.599 26.319 112.85 27.063C113.1 27.7997 113.226 28.599 113.226 29.4609V29.7151C113.226 30.577 113.1 31.3763 112.85 32.1129C112.599 32.8496 112.235 33.4942 111.756 34.0467C111.277 34.5918 110.695 35.0191 110.01 35.3285C109.325 35.6305 108.548 35.7815 107.678 35.7815C106.802 35.7815 106.017 35.6305 105.325 35.3285C104.64 35.0191 104.058 34.5918 103.579 34.0467C103.1 33.4942 102.735 32.8496 102.485 32.1129C102.234 31.3763 102.109 30.577 102.109 29.7151ZM104.772 29.4609V29.7151C104.772 30.2528 104.828 30.7611 104.938 31.24C105.049 31.7188 105.222 32.1387 105.457 32.4997C105.693 32.8606 105.995 33.1443 106.363 33.3505C106.732 33.5568 107.17 33.6599 107.678 33.6599C108.172 33.6599 108.599 33.5568 108.96 33.3505C109.329 33.1443 109.631 32.8606 109.866 32.4997C110.102 32.1387 110.275 31.7188 110.386 31.24C110.504 30.7611 110.563 30.2528 110.563 29.7151V29.4609C110.563 28.9305 110.504 28.4296 110.386 27.9581C110.275 27.4793 110.098 27.0557 109.855 26.6873C109.62 26.319 109.318 26.0317 108.949 25.8254C108.588 25.6118 108.157 25.505 107.656 25.505C107.155 25.505 106.721 25.6118 106.352 25.8254C105.991 26.0317 105.693 26.319 105.457 26.6873C105.222 27.0557 105.049 27.4793 104.938 27.9581C104.828 28.4296 104.772 28.9305 104.772 29.4609ZM118.309 18.5876V35.5605H115.634V18.5876H118.309ZM124.077 18.5876V35.5605H121.403V18.5876H124.077Z" fill="white"/>
<path d="M27.9992 16.6482C22.3998 17.5423 18.0739 22.3047 17.8586 28.1H19.8698C20.0963 23.0288 24.0998 18.9235 29.1281 18.5358V17.9764V16.5223V14.5605H27.9992V16.6482Z" fill="white"/>
<path d="M17.9792 30.453C18.8728 36.0525 23.6351 40.3783 29.431 40.5936V38.5825C24.3598 38.356 20.2545 34.3525 19.8669 29.3242H19.3075H17.8534H15.8916V30.453H17.9792Z" fill="white"/>
<path d="M31.7839 40.4732C37.3833 39.5797 41.7091 34.8174 41.9244 29.0215H39.9133C39.6868 34.0927 35.6833 38.198 30.655 38.5856V39.145V40.5997V42.5609H31.7839V40.4732Z" fill="white"/>
<path d="M41.8043 26.6679C40.9102 21.0685 36.1478 16.7426 30.3525 16.5273V18.5385C35.4237 18.765 39.529 22.7685 39.9167 27.7968H40.4761H41.9308H43.892V26.6679H41.8043Z" fill="white"/>
<path d="M38.0139 24.1797L37.4897 27.182L36.4433 26.3956L31.9374 31.4644C32.0068 31.6132 32.0474 31.7773 32.0474 31.952C32.0474 32.5867 31.5309 33.1032 30.8962 33.1032C30.2615 33.1032 29.745 32.5867 29.745 31.952C29.745 31.8732 29.7533 31.7962 29.7686 31.722L27.1427 29.8979C26.9662 30.0091 26.758 30.0744 26.535 30.0744C26.465 30.0744 26.3968 30.0667 26.3309 30.055L24.1703 32.9597C24.2821 33.1526 24.3362 33.3726 24.3239 33.5997C24.2903 34.2103 23.7862 34.6879 23.1756 34.6879C23.1545 34.6879 23.1333 34.6873 23.1121 34.6867C23.0656 34.6838 23.0215 34.6738 22.9768 34.6656C24.6674 36.5791 27.138 37.7873 29.8921 37.7873C34.9886 37.7873 39.1192 33.6556 39.1192 28.5603C39.1186 26.975 38.7186 25.4832 38.0139 24.1797Z" fill="white"/>
<path d="M37.8169 23.8352C36.2057 21.1393 33.2604 19.334 29.8916 19.334C24.7957 19.334 20.6646 23.4652 20.6646 28.561C20.6646 30.3363 21.1675 31.9946 22.0363 33.4022C22.1051 32.8275 22.5875 32.3875 23.1728 32.3875C23.194 32.3875 23.2151 32.3881 23.2369 32.3893C23.3063 32.3928 23.3746 32.4034 23.4404 32.4193L25.5722 29.5534C25.454 29.3716 25.384 29.1569 25.384 28.9246C25.384 28.2899 25.9004 27.7734 26.5351 27.7734C27.1698 27.7734 27.6863 28.2905 27.6863 28.9246C27.6863 29.0034 27.6781 29.0799 27.6628 29.1546L30.2887 30.9781C30.4651 30.8675 30.6734 30.8022 30.8969 30.8022C31.024 30.8022 31.1451 30.8246 31.2593 30.8622L35.7146 25.8499L34.7351 25.114L37.8169 23.8352ZM24.0387 31.0569L23.2934 32.0587C23.2798 32.0575 23.2675 32.0569 23.2546 32.0563C23.2257 32.0552 23.1993 32.054 23.1734 32.054C22.694 32.054 22.2628 32.2857 21.9916 32.6481C21.9746 32.6146 21.9575 32.5816 21.941 32.5481V26.6093H24.0387V31.0569ZM27.1075 27.5546C26.9316 27.481 26.7381 27.4399 26.5357 27.4399C25.7175 27.4399 25.0516 28.1057 25.0516 28.924C25.0516 29.131 25.0951 29.3352 25.1793 29.524L25.0093 29.7522V24.1805H27.1075V27.5546ZM30.1757 30.4934L30.014 30.381L28.0781 29.0363V22.6305H30.1757V30.4934ZM33.244 28.1275L31.2269 30.3969L31.1463 30.4875V20.734H33.244V28.1275Z" fill="white"/>
<path d="M245.093 19.5605L243 21.6755L249.799 28.5605L243 35.4455L245.093 37.5605L254 28.5605L245.093 19.5605Z" fill="white"/>
</svg>
