<svg width="419" height="294" viewBox="0 0 419 294" fill="none" xmlns="http://www.w3.org/2000/svg">
<circle cx="208.691" cy="70.6907" r="70.6907" fill="url(#paint0_linear_839_3548)"/>
<path d="M193.148 100.037L173.46 79.2454L179.212 73.5098L195.03 86.415L238.171 39.0957L243.923 41.9635L201.982 99.4637C201.485 100.146 200.844 100.71 200.104 101.117C199.364 101.525 198.543 101.764 197.7 101.819C196.857 101.873 196.011 101.742 195.225 101.434C194.438 101.126 193.729 100.649 193.148 100.037Z" fill="white"/>
<path d="M2.76562 270.938L7.19531 279.504L11.6367 270.938H14.2031L8.32031 281.625V288H6.05859V281.625L0.175781 270.938H2.76562ZM14.7188 281.801V281.531C14.7188 280.617 14.8516 279.77 15.1172 278.988C15.3828 278.199 15.7656 277.516 16.2656 276.938C16.7656 276.352 17.3711 275.898 18.082 275.578C18.793 275.25 19.5898 275.086 20.4727 275.086C21.3633 275.086 22.1641 275.25 22.875 275.578C23.5938 275.898 24.2031 276.352 24.7031 276.938C25.2109 277.516 25.5977 278.199 25.8633 278.988C26.1289 279.77 26.2617 280.617 26.2617 281.531V281.801C26.2617 282.715 26.1289 283.562 25.8633 284.344C25.5977 285.125 25.2109 285.809 24.7031 286.395C24.2031 286.973 23.5977 287.426 22.8867 287.754C22.1836 288.074 21.3867 288.234 20.4961 288.234C19.6055 288.234 18.8047 288.074 18.0938 287.754C17.3828 287.426 16.7734 286.973 16.2656 286.395C15.7656 285.809 15.3828 285.125 15.1172 284.344C14.8516 283.562 14.7188 282.715 14.7188 281.801ZM16.8867 281.531V281.801C16.8867 282.434 16.9609 283.031 17.1094 283.594C17.2578 284.148 17.4805 284.641 17.7773 285.07C18.082 285.5 18.4609 285.84 18.9141 286.09C19.3672 286.332 19.8945 286.453 20.4961 286.453C21.0898 286.453 21.6094 286.332 22.0547 286.09C22.5078 285.84 22.8828 285.5 23.1797 285.07C23.4766 284.641 23.6992 284.148 23.8477 283.594C24.0039 283.031 24.082 282.434 24.082 281.801V281.531C24.082 280.906 24.0039 280.316 23.8477 279.762C23.6992 279.199 23.4727 278.703 23.168 278.273C22.8711 277.836 22.4961 277.492 22.043 277.242C21.5977 276.992 21.0742 276.867 20.4727 276.867C19.8789 276.867 19.3555 276.992 18.9023 277.242C18.457 277.492 18.082 277.836 17.7773 278.273C17.4805 278.703 17.2578 279.199 17.1094 279.762C16.9609 280.316 16.8867 280.906 16.8867 281.531ZM36.7383 285.07V275.32H38.918V288H36.8438L36.7383 285.07ZM37.1484 282.398L38.0508 282.375C38.0508 283.219 37.9609 284 37.7812 284.719C37.6094 285.43 37.3281 286.047 36.9375 286.57C36.5469 287.094 36.0352 287.504 35.4023 287.801C34.7695 288.09 34 288.234 33.0938 288.234C32.4766 288.234 31.9102 288.145 31.3945 287.965C30.8867 287.785 30.4492 287.508 30.082 287.133C29.7148 286.758 29.4297 286.27 29.2266 285.668C29.0312 285.066 28.9336 284.344 28.9336 283.5V275.32H31.1016V283.523C31.1016 284.094 31.1641 284.566 31.2891 284.941C31.4219 285.309 31.5977 285.602 31.8164 285.82C32.043 286.031 32.293 286.18 32.5664 286.266C32.8477 286.352 33.1367 286.395 33.4336 286.395C34.3555 286.395 35.0859 286.219 35.625 285.867C36.1641 285.508 36.5508 285.027 36.7852 284.426C37.0273 283.816 37.1484 283.141 37.1484 282.398ZM44.3906 277.312V288H42.2227V275.32H44.332L44.3906 277.312ZM48.3516 275.25L48.3398 277.266C48.1602 277.227 47.9883 277.203 47.8242 277.195C47.668 277.18 47.4883 277.172 47.2852 277.172C46.7852 277.172 46.3438 277.25 45.9609 277.406C45.5781 277.562 45.2539 277.781 44.9883 278.062C44.7227 278.344 44.5117 278.68 44.3555 279.07C44.207 279.453 44.1094 279.875 44.0625 280.336L43.4531 280.688C43.4531 279.922 43.5273 279.203 43.6758 278.531C43.832 277.859 44.0703 277.266 44.3906 276.75C44.7109 276.227 45.1172 275.82 45.6094 275.531C46.1094 275.234 46.7031 275.086 47.3906 275.086C47.5469 275.086 47.7266 275.105 47.9297 275.145C48.1328 275.176 48.2734 275.211 48.3516 275.25ZM61.6172 275.32V276.984H54.7617V275.32H61.6172ZM57.082 272.238H59.25V284.859C59.25 285.289 59.3164 285.613 59.4492 285.832C59.582 286.051 59.7539 286.195 59.9648 286.266C60.1758 286.336 60.4023 286.371 60.6445 286.371C60.8242 286.371 61.0117 286.355 61.207 286.324C61.4102 286.285 61.5625 286.254 61.6641 286.23L61.6758 288C61.5039 288.055 61.2773 288.105 60.9961 288.152C60.7227 288.207 60.3906 288.234 60 288.234C59.4688 288.234 58.9805 288.129 58.5352 287.918C58.0898 287.707 57.7344 287.355 57.4688 286.863C57.2109 286.363 57.082 285.691 57.082 284.848V272.238ZM69.4219 288.234C68.5391 288.234 67.7383 288.086 67.0195 287.789C66.3086 287.484 65.6953 287.059 65.1797 286.512C64.6719 285.965 64.2812 285.316 64.0078 284.566C63.7344 283.816 63.5977 282.996 63.5977 282.105V281.613C63.5977 280.582 63.75 279.664 64.0547 278.859C64.3594 278.047 64.7734 277.359 65.2969 276.797C65.8203 276.234 66.4141 275.809 67.0781 275.52C67.7422 275.23 68.4297 275.086 69.1406 275.086C70.0469 275.086 70.8281 275.242 71.4844 275.555C72.1484 275.867 72.6914 276.305 73.1133 276.867C73.5352 277.422 73.8477 278.078 74.0508 278.836C74.2539 279.586 74.3555 280.406 74.3555 281.297V282.27H64.8867V280.5H72.1875V280.336C72.1562 279.773 72.0391 279.227 71.8359 278.695C71.6406 278.164 71.3281 277.727 70.8984 277.383C70.4688 277.039 69.8828 276.867 69.1406 276.867C68.6484 276.867 68.1953 276.973 67.7812 277.184C67.3672 277.387 67.0117 277.691 66.7148 278.098C66.418 278.504 66.1875 279 66.0234 279.586C65.8594 280.172 65.7773 280.848 65.7773 281.613V282.105C65.7773 282.707 65.8594 283.273 66.0234 283.805C66.1953 284.328 66.4414 284.789 66.7617 285.188C67.0898 285.586 67.4844 285.898 67.9453 286.125C68.4141 286.352 68.9453 286.465 69.5391 286.465C70.3047 286.465 70.9531 286.309 71.4844 285.996C72.0156 285.684 72.4805 285.266 72.8789 284.742L74.1914 285.785C73.918 286.199 73.5703 286.594 73.1484 286.969C72.7266 287.344 72.207 287.648 71.5898 287.883C70.9805 288.117 70.2578 288.234 69.4219 288.234ZM84.3633 285.832V279.305C84.3633 278.805 84.2617 278.371 84.0586 278.004C83.8633 277.629 83.5664 277.34 83.168 277.137C82.7695 276.934 82.2773 276.832 81.6914 276.832C81.1445 276.832 80.6641 276.926 80.25 277.113C79.8438 277.301 79.5234 277.547 79.2891 277.852C79.0625 278.156 78.9492 278.484 78.9492 278.836H76.7812C76.7812 278.383 76.8984 277.934 77.1328 277.488C77.3672 277.043 77.7031 276.641 78.1406 276.281C78.5859 275.914 79.1172 275.625 79.7344 275.414C80.3594 275.195 81.0547 275.086 81.8203 275.086C82.7422 275.086 83.5547 275.242 84.2578 275.555C84.9688 275.867 85.5234 276.34 85.9219 276.973C86.3281 277.598 86.5312 278.383 86.5312 279.328V285.234C86.5312 285.656 86.5664 286.105 86.6367 286.582C86.7148 287.059 86.8281 287.469 86.9766 287.812V288H84.7148C84.6055 287.75 84.5195 287.418 84.457 287.004C84.3945 286.582 84.3633 286.191 84.3633 285.832ZM84.7383 280.312L84.7617 281.836H82.5703C81.9531 281.836 81.4023 281.887 80.918 281.988C80.4336 282.082 80.0273 282.227 79.6992 282.422C79.3711 282.617 79.1211 282.863 78.9492 283.16C78.7773 283.449 78.6914 283.789 78.6914 284.18C78.6914 284.578 78.7812 284.941 78.9609 285.27C79.1406 285.598 79.4102 285.859 79.7695 286.055C80.1367 286.242 80.5859 286.336 81.1172 286.336C81.7812 286.336 82.3672 286.195 82.875 285.914C83.3828 285.633 83.7852 285.289 84.082 284.883C84.3867 284.477 84.5508 284.082 84.5742 283.699L85.5 284.742C85.4453 285.07 85.2969 285.434 85.0547 285.832C84.8125 286.23 84.4883 286.613 84.082 286.98C83.6836 287.34 83.207 287.641 82.6523 287.883C82.1055 288.117 81.4883 288.234 80.8008 288.234C79.9414 288.234 79.1875 288.066 78.5391 287.73C77.8984 287.395 77.3984 286.945 77.0391 286.383C76.6875 285.812 76.5117 285.176 76.5117 284.473C76.5117 283.793 76.6445 283.195 76.9102 282.68C77.1758 282.156 77.5586 281.723 78.0586 281.379C78.5586 281.027 79.1602 280.762 79.8633 280.582C80.5664 280.402 81.3516 280.312 82.2188 280.312H84.7383ZM92.0977 277.84V288H89.918V275.32H91.9805L92.0977 277.84ZM91.6523 281.18L90.6445 281.145C90.6523 280.277 90.7656 279.477 90.9844 278.742C91.2031 278 91.5273 277.355 91.957 276.809C92.3867 276.262 92.9219 275.84 93.5625 275.543C94.2031 275.238 94.9453 275.086 95.7891 275.086C96.3828 275.086 96.9297 275.172 97.4297 275.344C97.9297 275.508 98.3633 275.77 98.7305 276.129C99.0977 276.488 99.3828 276.949 99.5859 277.512C99.7891 278.074 99.8906 278.754 99.8906 279.551V288H97.7227V279.656C97.7227 278.992 97.6094 278.461 97.3828 278.062C97.1641 277.664 96.8516 277.375 96.4453 277.195C96.0391 277.008 95.5625 276.914 95.0156 276.914C94.375 276.914 93.8398 277.027 93.4102 277.254C92.9805 277.48 92.6367 277.793 92.3789 278.191C92.1211 278.59 91.9336 279.047 91.8164 279.562C91.707 280.07 91.6523 280.609 91.6523 281.18ZM99.8672 279.984L98.4141 280.43C98.4219 279.734 98.5352 279.066 98.7539 278.426C98.9805 277.785 99.3047 277.215 99.7266 276.715C100.156 276.215 100.684 275.82 101.309 275.531C101.934 275.234 102.648 275.086 103.453 275.086C104.133 275.086 104.734 275.176 105.258 275.355C105.789 275.535 106.234 275.812 106.594 276.188C106.961 276.555 107.238 277.027 107.426 277.605C107.613 278.184 107.707 278.871 107.707 279.668V288H105.527V279.645C105.527 278.934 105.414 278.383 105.188 277.992C104.969 277.594 104.656 277.316 104.25 277.16C103.852 276.996 103.375 276.914 102.82 276.914C102.344 276.914 101.922 276.996 101.555 277.16C101.188 277.324 100.879 277.551 100.629 277.84C100.379 278.121 100.188 278.445 100.055 278.812C99.9297 279.18 99.8672 279.57 99.8672 279.984ZM112.242 270V271.5C112.242 271.969 112.16 272.465 111.996 272.988C111.84 273.504 111.609 274.004 111.305 274.488C111 274.965 110.633 275.383 110.203 275.742L108.961 274.887C109.328 274.371 109.605 273.844 109.793 273.305C109.988 272.758 110.086 272.168 110.086 271.535V270H112.242ZM120.926 284.637C120.926 284.324 120.855 284.035 120.715 283.77C120.582 283.496 120.305 283.25 119.883 283.031C119.469 282.805 118.844 282.609 118.008 282.445C117.305 282.297 116.668 282.121 116.098 281.918C115.535 281.715 115.055 281.469 114.656 281.18C114.266 280.891 113.965 280.551 113.754 280.16C113.543 279.77 113.438 279.312 113.438 278.789C113.438 278.289 113.547 277.816 113.766 277.371C113.992 276.926 114.309 276.531 114.715 276.188C115.129 275.844 115.625 275.574 116.203 275.379C116.781 275.184 117.426 275.086 118.137 275.086C119.152 275.086 120.02 275.266 120.738 275.625C121.457 275.984 122.008 276.465 122.391 277.066C122.773 277.66 122.965 278.32 122.965 279.047H120.797C120.797 278.695 120.691 278.355 120.48 278.027C120.277 277.691 119.977 277.414 119.578 277.195C119.188 276.977 118.707 276.867 118.137 276.867C117.535 276.867 117.047 276.961 116.672 277.148C116.305 277.328 116.035 277.559 115.863 277.84C115.699 278.121 115.617 278.418 115.617 278.73C115.617 278.965 115.656 279.176 115.734 279.363C115.82 279.543 115.969 279.711 116.18 279.867C116.391 280.016 116.688 280.156 117.07 280.289C117.453 280.422 117.941 280.555 118.535 280.688C119.574 280.922 120.43 281.203 121.102 281.531C121.773 281.859 122.273 282.262 122.602 282.738C122.93 283.215 123.094 283.793 123.094 284.473C123.094 285.027 122.977 285.535 122.742 285.996C122.516 286.457 122.184 286.855 121.746 287.191C121.316 287.52 120.801 287.777 120.199 287.965C119.605 288.145 118.938 288.234 118.195 288.234C117.078 288.234 116.133 288.035 115.359 287.637C114.586 287.238 114 286.723 113.602 286.09C113.203 285.457 113.004 284.789 113.004 284.086H115.184C115.215 284.68 115.387 285.152 115.699 285.504C116.012 285.848 116.395 286.094 116.848 286.242C117.301 286.383 117.75 286.453 118.195 286.453C118.789 286.453 119.285 286.375 119.684 286.219C120.09 286.062 120.398 285.848 120.609 285.574C120.82 285.301 120.926 284.988 120.926 284.637ZM134.062 277.758V292.875H131.883V275.32H133.875L134.062 277.758ZM142.605 281.555V281.801C142.605 282.723 142.496 283.578 142.277 284.367C142.059 285.148 141.738 285.828 141.316 286.406C140.902 286.984 140.391 287.434 139.781 287.754C139.172 288.074 138.473 288.234 137.684 288.234C136.879 288.234 136.168 288.102 135.551 287.836C134.934 287.57 134.41 287.184 133.98 286.676C133.551 286.168 133.207 285.559 132.949 284.848C132.699 284.137 132.527 283.336 132.434 282.445V281.133C132.527 280.195 132.703 279.355 132.961 278.613C133.219 277.871 133.559 277.238 133.98 276.715C134.41 276.184 134.93 275.781 135.539 275.508C136.148 275.227 136.852 275.086 137.648 275.086C138.445 275.086 139.152 275.242 139.77 275.555C140.387 275.859 140.906 276.297 141.328 276.867C141.75 277.438 142.066 278.121 142.277 278.918C142.496 279.707 142.605 280.586 142.605 281.555ZM140.426 281.801V281.555C140.426 280.922 140.359 280.328 140.227 279.773C140.094 279.211 139.887 278.719 139.605 278.297C139.332 277.867 138.98 277.531 138.551 277.289C138.121 277.039 137.609 276.914 137.016 276.914C136.469 276.914 135.992 277.008 135.586 277.195C135.188 277.383 134.848 277.637 134.566 277.957C134.285 278.27 134.055 278.629 133.875 279.035C133.703 279.434 133.574 279.848 133.488 280.277V283.312C133.645 283.859 133.863 284.375 134.145 284.859C134.426 285.336 134.801 285.723 135.27 286.02C135.738 286.309 136.328 286.453 137.039 286.453C137.625 286.453 138.129 286.332 138.551 286.09C138.98 285.84 139.332 285.5 139.605 285.07C139.887 284.641 140.094 284.148 140.227 283.594C140.359 283.031 140.426 282.434 140.426 281.801ZM152.848 285.832V279.305C152.848 278.805 152.746 278.371 152.543 278.004C152.348 277.629 152.051 277.34 151.652 277.137C151.254 276.934 150.762 276.832 150.176 276.832C149.629 276.832 149.148 276.926 148.734 277.113C148.328 277.301 148.008 277.547 147.773 277.852C147.547 278.156 147.434 278.484 147.434 278.836H145.266C145.266 278.383 145.383 277.934 145.617 277.488C145.852 277.043 146.188 276.641 146.625 276.281C147.07 275.914 147.602 275.625 148.219 275.414C148.844 275.195 149.539 275.086 150.305 275.086C151.227 275.086 152.039 275.242 152.742 275.555C153.453 275.867 154.008 276.34 154.406 276.973C154.812 277.598 155.016 278.383 155.016 279.328V285.234C155.016 285.656 155.051 286.105 155.121 286.582C155.199 287.059 155.312 287.469 155.461 287.812V288H153.199C153.09 287.75 153.004 287.418 152.941 287.004C152.879 286.582 152.848 286.191 152.848 285.832ZM153.223 280.312L153.246 281.836H151.055C150.438 281.836 149.887 281.887 149.402 281.988C148.918 282.082 148.512 282.227 148.184 282.422C147.855 282.617 147.605 282.863 147.434 283.16C147.262 283.449 147.176 283.789 147.176 284.18C147.176 284.578 147.266 284.941 147.445 285.27C147.625 285.598 147.895 285.859 148.254 286.055C148.621 286.242 149.07 286.336 149.602 286.336C150.266 286.336 150.852 286.195 151.359 285.914C151.867 285.633 152.27 285.289 152.566 284.883C152.871 284.477 153.035 284.082 153.059 283.699L153.984 284.742C153.93 285.07 153.781 285.434 153.539 285.832C153.297 286.23 152.973 286.613 152.566 286.98C152.168 287.34 151.691 287.641 151.137 287.883C150.59 288.117 149.973 288.234 149.285 288.234C148.426 288.234 147.672 288.066 147.023 287.73C146.383 287.395 145.883 286.945 145.523 286.383C145.172 285.812 144.996 285.176 144.996 284.473C144.996 283.793 145.129 283.195 145.395 282.68C145.66 282.156 146.043 281.723 146.543 281.379C147.043 281.027 147.645 280.762 148.348 280.582C149.051 280.402 149.836 280.312 150.703 280.312H153.223ZM161.801 286.688L165.328 275.32H167.648L162.562 289.957C162.445 290.27 162.289 290.605 162.094 290.965C161.906 291.332 161.664 291.68 161.367 292.008C161.07 292.336 160.711 292.602 160.289 292.805C159.875 293.016 159.379 293.121 158.801 293.121C158.629 293.121 158.41 293.098 158.145 293.051C157.879 293.004 157.691 292.965 157.582 292.934L157.57 291.176C157.633 291.184 157.73 291.191 157.863 291.199C158.004 291.215 158.102 291.223 158.156 291.223C158.648 291.223 159.066 291.156 159.41 291.023C159.754 290.898 160.043 290.684 160.277 290.379C160.52 290.082 160.727 289.672 160.898 289.148L161.801 286.688ZM159.211 275.32L162.504 285.164L163.066 287.449L161.508 288.246L156.844 275.32H159.211ZM174.516 286.453C175.031 286.453 175.508 286.348 175.945 286.137C176.383 285.926 176.742 285.637 177.023 285.27C177.305 284.895 177.465 284.469 177.504 283.992H179.566C179.527 284.742 179.273 285.441 178.805 286.09C178.344 286.73 177.738 287.25 176.988 287.648C176.238 288.039 175.414 288.234 174.516 288.234C173.562 288.234 172.73 288.066 172.02 287.73C171.316 287.395 170.73 286.934 170.262 286.348C169.801 285.762 169.453 285.09 169.219 284.332C168.992 283.566 168.879 282.758 168.879 281.906V281.414C168.879 280.562 168.992 279.758 169.219 279C169.453 278.234 169.801 277.559 170.262 276.973C170.73 276.387 171.316 275.926 172.02 275.59C172.73 275.254 173.562 275.086 174.516 275.086C175.508 275.086 176.375 275.289 177.117 275.695C177.859 276.094 178.441 276.641 178.863 277.336C179.293 278.023 179.527 278.805 179.566 279.68H177.504C177.465 279.156 177.316 278.684 177.059 278.262C176.809 277.84 176.465 277.504 176.027 277.254C175.598 276.996 175.094 276.867 174.516 276.867C173.852 276.867 173.293 277 172.84 277.266C172.395 277.523 172.039 277.875 171.773 278.32C171.516 278.758 171.328 279.246 171.211 279.785C171.102 280.316 171.047 280.859 171.047 281.414V281.906C171.047 282.461 171.102 283.008 171.211 283.547C171.32 284.086 171.504 284.574 171.762 285.012C172.027 285.449 172.383 285.801 172.828 286.066C173.281 286.324 173.844 286.453 174.516 286.453ZM184.172 270V288H182.004V270H184.172ZM183.656 281.18L182.754 281.145C182.762 280.277 182.891 279.477 183.141 278.742C183.391 278 183.742 277.355 184.195 276.809C184.648 276.262 185.188 275.84 185.812 275.543C186.445 275.238 187.145 275.086 187.91 275.086C188.535 275.086 189.098 275.172 189.598 275.344C190.098 275.508 190.523 275.773 190.875 276.141C191.234 276.508 191.508 276.984 191.695 277.57C191.883 278.148 191.977 278.855 191.977 279.691V288H189.797V279.668C189.797 279.004 189.699 278.473 189.504 278.074C189.309 277.668 189.023 277.375 188.648 277.195C188.273 277.008 187.812 276.914 187.266 276.914C186.727 276.914 186.234 277.027 185.789 277.254C185.352 277.48 184.973 277.793 184.652 278.191C184.34 278.59 184.094 279.047 183.914 279.562C183.742 280.07 183.656 280.609 183.656 281.18ZM200.484 288.234C199.602 288.234 198.801 288.086 198.082 287.789C197.371 287.484 196.758 287.059 196.242 286.512C195.734 285.965 195.344 285.316 195.07 284.566C194.797 283.816 194.66 282.996 194.66 282.105V281.613C194.66 280.582 194.812 279.664 195.117 278.859C195.422 278.047 195.836 277.359 196.359 276.797C196.883 276.234 197.477 275.809 198.141 275.52C198.805 275.23 199.492 275.086 200.203 275.086C201.109 275.086 201.891 275.242 202.547 275.555C203.211 275.867 203.754 276.305 204.176 276.867C204.598 277.422 204.91 278.078 205.113 278.836C205.316 279.586 205.418 280.406 205.418 281.297V282.27H195.949V280.5H203.25V280.336C203.219 279.773 203.102 279.227 202.898 278.695C202.703 278.164 202.391 277.727 201.961 277.383C201.531 277.039 200.945 276.867 200.203 276.867C199.711 276.867 199.258 276.973 198.844 277.184C198.43 277.387 198.074 277.691 197.777 278.098C197.48 278.504 197.25 279 197.086 279.586C196.922 280.172 196.84 280.848 196.84 281.613V282.105C196.84 282.707 196.922 283.273 197.086 283.805C197.258 284.328 197.504 284.789 197.824 285.188C198.152 285.586 198.547 285.898 199.008 286.125C199.477 286.352 200.008 286.465 200.602 286.465C201.367 286.465 202.016 286.309 202.547 285.996C203.078 285.684 203.543 285.266 203.941 284.742L205.254 285.785C204.98 286.199 204.633 286.594 204.211 286.969C203.789 287.344 203.27 287.648 202.652 287.883C202.043 288.117 201.32 288.234 200.484 288.234ZM215.93 292.875V277.758L216.117 275.32H218.109V292.875H215.93ZM207.41 281.801V281.555C207.41 280.586 207.523 279.707 207.75 278.918C207.977 278.121 208.309 277.438 208.746 276.867C209.184 276.297 209.711 275.859 210.328 275.555C210.953 275.242 211.664 275.086 212.461 275.086C213.258 275.086 213.957 275.227 214.559 275.508C215.168 275.781 215.684 276.184 216.105 276.715C216.535 277.238 216.875 277.871 217.125 278.613C217.375 279.355 217.547 280.195 217.641 281.133V282.211C217.555 283.141 217.387 283.977 217.137 284.719C216.887 285.461 216.547 286.094 216.117 286.617C215.695 287.141 215.176 287.543 214.559 287.824C213.949 288.098 213.242 288.234 212.438 288.234C211.656 288.234 210.953 288.074 210.328 287.754C209.711 287.434 209.184 286.984 208.746 286.406C208.316 285.828 207.984 285.148 207.75 284.367C207.523 283.578 207.41 282.723 207.41 281.801ZM209.59 281.555V281.801C209.59 282.434 209.656 283.031 209.789 283.594C209.922 284.148 210.125 284.641 210.398 285.07C210.68 285.5 211.031 285.84 211.453 286.09C211.883 286.332 212.391 286.453 212.977 286.453C213.695 286.453 214.293 286.297 214.77 285.984C215.254 285.672 215.641 285.262 215.93 284.754C216.219 284.238 216.441 283.688 216.598 283.102V280.277C216.512 279.848 216.375 279.43 216.188 279.023C216.008 278.617 215.773 278.254 215.484 277.934C215.195 277.605 214.844 277.348 214.43 277.16C214.023 276.965 213.547 276.867 213 276.867C212.406 276.867 211.895 276.992 211.465 277.242C211.035 277.492 210.68 277.836 210.398 278.273C210.125 278.703 209.922 279.199 209.789 279.762C209.656 280.324 209.59 280.922 209.59 281.555ZM229.348 285.07V275.32H231.527V288H229.453L229.348 285.07ZM229.758 282.398L230.66 282.375C230.66 283.219 230.57 284 230.391 284.719C230.219 285.43 229.938 286.047 229.547 286.57C229.156 287.094 228.645 287.504 228.012 287.801C227.379 288.09 226.609 288.234 225.703 288.234C225.086 288.234 224.52 288.145 224.004 287.965C223.496 287.785 223.059 287.508 222.691 287.133C222.324 286.758 222.039 286.27 221.836 285.668C221.641 285.066 221.543 284.344 221.543 283.5V275.32H223.711V283.523C223.711 284.094 223.773 284.566 223.898 284.941C224.031 285.309 224.207 285.602 224.426 285.82C224.652 286.031 224.902 286.18 225.176 286.266C225.457 286.352 225.746 286.395 226.043 286.395C226.965 286.395 227.695 286.219 228.234 285.867C228.773 285.508 229.16 285.027 229.395 284.426C229.637 283.816 229.758 283.141 229.758 282.398ZM240.094 288.234C239.211 288.234 238.41 288.086 237.691 287.789C236.98 287.484 236.367 287.059 235.852 286.512C235.344 285.965 234.953 285.316 234.68 284.566C234.406 283.816 234.27 282.996 234.27 282.105V281.613C234.27 280.582 234.422 279.664 234.727 278.859C235.031 278.047 235.445 277.359 235.969 276.797C236.492 276.234 237.086 275.809 237.75 275.52C238.414 275.23 239.102 275.086 239.812 275.086C240.719 275.086 241.5 275.242 242.156 275.555C242.82 275.867 243.363 276.305 243.785 276.867C244.207 277.422 244.52 278.078 244.723 278.836C244.926 279.586 245.027 280.406 245.027 281.297V282.27H235.559V280.5H242.859V280.336C242.828 279.773 242.711 279.227 242.508 278.695C242.312 278.164 242 277.727 241.57 277.383C241.141 277.039 240.555 276.867 239.812 276.867C239.32 276.867 238.867 276.973 238.453 277.184C238.039 277.387 237.684 277.691 237.387 278.098C237.09 278.504 236.859 279 236.695 279.586C236.531 280.172 236.449 280.848 236.449 281.613V282.105C236.449 282.707 236.531 283.273 236.695 283.805C236.867 284.328 237.113 284.789 237.434 285.188C237.762 285.586 238.156 285.898 238.617 286.125C239.086 286.352 239.617 286.465 240.211 286.465C240.977 286.465 241.625 286.309 242.156 285.996C242.688 285.684 243.152 285.266 243.551 284.742L244.863 285.785C244.59 286.199 244.242 286.594 243.82 286.969C243.398 287.344 242.879 287.648 242.262 287.883C241.652 288.117 240.93 288.234 240.094 288.234ZM254.941 284.637C254.941 284.324 254.871 284.035 254.73 283.77C254.598 283.496 254.32 283.25 253.898 283.031C253.484 282.805 252.859 282.609 252.023 282.445C251.32 282.297 250.684 282.121 250.113 281.918C249.551 281.715 249.07 281.469 248.672 281.18C248.281 280.891 247.98 280.551 247.77 280.16C247.559 279.77 247.453 279.312 247.453 278.789C247.453 278.289 247.562 277.816 247.781 277.371C248.008 276.926 248.324 276.531 248.73 276.188C249.145 275.844 249.641 275.574 250.219 275.379C250.797 275.184 251.441 275.086 252.152 275.086C253.168 275.086 254.035 275.266 254.754 275.625C255.473 275.984 256.023 276.465 256.406 277.066C256.789 277.66 256.98 278.32 256.98 279.047H254.812C254.812 278.695 254.707 278.355 254.496 278.027C254.293 277.691 253.992 277.414 253.594 277.195C253.203 276.977 252.723 276.867 252.152 276.867C251.551 276.867 251.062 276.961 250.688 277.148C250.32 277.328 250.051 277.559 249.879 277.84C249.715 278.121 249.633 278.418 249.633 278.73C249.633 278.965 249.672 279.176 249.75 279.363C249.836 279.543 249.984 279.711 250.195 279.867C250.406 280.016 250.703 280.156 251.086 280.289C251.469 280.422 251.957 280.555 252.551 280.688C253.59 280.922 254.445 281.203 255.117 281.531C255.789 281.859 256.289 282.262 256.617 282.738C256.945 283.215 257.109 283.793 257.109 284.473C257.109 285.027 256.992 285.535 256.758 285.996C256.531 286.457 256.199 286.855 255.762 287.191C255.332 287.52 254.816 287.777 254.215 287.965C253.621 288.145 252.953 288.234 252.211 288.234C251.094 288.234 250.148 288.035 249.375 287.637C248.602 287.238 248.016 286.723 247.617 286.09C247.219 285.457 247.02 284.789 247.02 284.086H249.199C249.23 284.68 249.402 285.152 249.715 285.504C250.027 285.848 250.41 286.094 250.863 286.242C251.316 286.383 251.766 286.453 252.211 286.453C252.805 286.453 253.301 286.375 253.699 286.219C254.105 286.062 254.414 285.848 254.625 285.574C254.836 285.301 254.941 284.988 254.941 284.637ZM273.387 285.832V279.305C273.387 278.805 273.285 278.371 273.082 278.004C272.887 277.629 272.59 277.34 272.191 277.137C271.793 276.934 271.301 276.832 270.715 276.832C270.168 276.832 269.688 276.926 269.273 277.113C268.867 277.301 268.547 277.547 268.312 277.852C268.086 278.156 267.973 278.484 267.973 278.836H265.805C265.805 278.383 265.922 277.934 266.156 277.488C266.391 277.043 266.727 276.641 267.164 276.281C267.609 275.914 268.141 275.625 268.758 275.414C269.383 275.195 270.078 275.086 270.844 275.086C271.766 275.086 272.578 275.242 273.281 275.555C273.992 275.867 274.547 276.34 274.945 276.973C275.352 277.598 275.555 278.383 275.555 279.328V285.234C275.555 285.656 275.59 286.105 275.66 286.582C275.738 287.059 275.852 287.469 276 287.812V288H273.738C273.629 287.75 273.543 287.418 273.48 287.004C273.418 286.582 273.387 286.191 273.387 285.832ZM273.762 280.312L273.785 281.836H271.594C270.977 281.836 270.426 281.887 269.941 281.988C269.457 282.082 269.051 282.227 268.723 282.422C268.395 282.617 268.145 282.863 267.973 283.16C267.801 283.449 267.715 283.789 267.715 284.18C267.715 284.578 267.805 284.941 267.984 285.27C268.164 285.598 268.434 285.859 268.793 286.055C269.16 286.242 269.609 286.336 270.141 286.336C270.805 286.336 271.391 286.195 271.898 285.914C272.406 285.633 272.809 285.289 273.105 284.883C273.41 284.477 273.574 284.082 273.598 283.699L274.523 284.742C274.469 285.07 274.32 285.434 274.078 285.832C273.836 286.23 273.512 286.613 273.105 286.98C272.707 287.34 272.23 287.641 271.676 287.883C271.129 288.117 270.512 288.234 269.824 288.234C268.965 288.234 268.211 288.066 267.562 287.73C266.922 287.395 266.422 286.945 266.062 286.383C265.711 285.812 265.535 285.176 265.535 284.473C265.535 283.793 265.668 283.195 265.934 282.68C266.199 282.156 266.582 281.723 267.082 281.379C267.582 281.027 268.184 280.762 268.887 280.582C269.59 280.402 270.375 280.312 271.242 280.312H273.762ZM281.133 277.312V288H278.965V275.32H281.074L281.133 277.312ZM285.094 275.25L285.082 277.266C284.902 277.227 284.73 277.203 284.566 277.195C284.41 277.18 284.23 277.172 284.027 277.172C283.527 277.172 283.086 277.25 282.703 277.406C282.32 277.562 281.996 277.781 281.73 278.062C281.465 278.344 281.254 278.68 281.098 279.07C280.949 279.453 280.852 279.875 280.805 280.336L280.195 280.688C280.195 279.922 280.27 279.203 280.418 278.531C280.574 277.859 280.812 277.266 281.133 276.75C281.453 276.227 281.859 275.82 282.352 275.531C282.852 275.234 283.445 275.086 284.133 275.086C284.289 275.086 284.469 275.105 284.672 275.145C284.875 275.176 285.016 275.211 285.094 275.25ZM292.125 288.234C291.242 288.234 290.441 288.086 289.723 287.789C289.012 287.484 288.398 287.059 287.883 286.512C287.375 285.965 286.984 285.316 286.711 284.566C286.438 283.816 286.301 282.996 286.301 282.105V281.613C286.301 280.582 286.453 279.664 286.758 278.859C287.062 278.047 287.477 277.359 288 276.797C288.523 276.234 289.117 275.809 289.781 275.52C290.445 275.23 291.133 275.086 291.844 275.086C292.75 275.086 293.531 275.242 294.188 275.555C294.852 275.867 295.395 276.305 295.816 276.867C296.238 277.422 296.551 278.078 296.754 278.836C296.957 279.586 297.059 280.406 297.059 281.297V282.27H287.59V280.5H294.891V280.336C294.859 279.773 294.742 279.227 294.539 278.695C294.344 278.164 294.031 277.727 293.602 277.383C293.172 277.039 292.586 276.867 291.844 276.867C291.352 276.867 290.898 276.973 290.484 277.184C290.07 277.387 289.715 277.691 289.418 278.098C289.121 278.504 288.891 279 288.727 279.586C288.562 280.172 288.48 280.848 288.48 281.613V282.105C288.48 282.707 288.562 283.273 288.727 283.805C288.898 284.328 289.145 284.789 289.465 285.188C289.793 285.586 290.188 285.898 290.648 286.125C291.117 286.352 291.648 286.465 292.242 286.465C293.008 286.465 293.656 286.309 294.188 285.996C294.719 285.684 295.184 285.266 295.582 284.742L296.895 285.785C296.621 286.199 296.273 286.594 295.852 286.969C295.43 287.344 294.91 287.648 294.293 287.883C293.684 288.117 292.961 288.234 292.125 288.234ZM304.969 281.801V281.531C304.969 280.617 305.102 279.77 305.367 278.988C305.633 278.199 306.016 277.516 306.516 276.938C307.016 276.352 307.621 275.898 308.332 275.578C309.043 275.25 309.84 275.086 310.723 275.086C311.613 275.086 312.414 275.25 313.125 275.578C313.844 275.898 314.453 276.352 314.953 276.938C315.461 277.516 315.848 278.199 316.113 278.988C316.379 279.77 316.512 280.617 316.512 281.531V281.801C316.512 282.715 316.379 283.562 316.113 284.344C315.848 285.125 315.461 285.809 314.953 286.395C314.453 286.973 313.848 287.426 313.137 287.754C312.434 288.074 311.637 288.234 310.746 288.234C309.855 288.234 309.055 288.074 308.344 287.754C307.633 287.426 307.023 286.973 306.516 286.395C306.016 285.809 305.633 285.125 305.367 284.344C305.102 283.562 304.969 282.715 304.969 281.801ZM307.137 281.531V281.801C307.137 282.434 307.211 283.031 307.359 283.594C307.508 284.148 307.73 284.641 308.027 285.07C308.332 285.5 308.711 285.84 309.164 286.09C309.617 286.332 310.145 286.453 310.746 286.453C311.34 286.453 311.859 286.332 312.305 286.09C312.758 285.84 313.133 285.5 313.43 285.07C313.727 284.641 313.949 284.148 314.098 283.594C314.254 283.031 314.332 282.434 314.332 281.801V281.531C314.332 280.906 314.254 280.316 314.098 279.762C313.949 279.199 313.723 278.703 313.418 278.273C313.121 277.836 312.746 277.492 312.293 277.242C311.848 276.992 311.324 276.867 310.723 276.867C310.129 276.867 309.605 276.992 309.152 277.242C308.707 277.492 308.332 277.836 308.027 278.273C307.73 278.703 307.508 279.199 307.359 279.762C307.211 280.316 307.137 280.906 307.137 281.531ZM321.398 278.027V288H319.23V275.32H321.281L321.398 278.027ZM320.883 281.18L319.98 281.145C319.988 280.277 320.117 279.477 320.367 278.742C320.617 278 320.969 277.355 321.422 276.809C321.875 276.262 322.414 275.84 323.039 275.543C323.672 275.238 324.371 275.086 325.137 275.086C325.762 275.086 326.324 275.172 326.824 275.344C327.324 275.508 327.75 275.773 328.102 276.141C328.461 276.508 328.734 276.984 328.922 277.57C329.109 278.148 329.203 278.855 329.203 279.691V288H327.023V279.668C327.023 279.004 326.926 278.473 326.73 278.074C326.535 277.668 326.25 277.375 325.875 277.195C325.5 277.008 325.039 276.914 324.492 276.914C323.953 276.914 323.461 277.027 323.016 277.254C322.578 277.48 322.199 277.793 321.879 278.191C321.566 278.59 321.32 279.047 321.141 279.562C320.969 280.07 320.883 280.609 320.883 281.18ZM343.758 275.32V276.984H336.902V275.32H343.758ZM339.223 272.238H341.391V284.859C341.391 285.289 341.457 285.613 341.59 285.832C341.723 286.051 341.895 286.195 342.105 286.266C342.316 286.336 342.543 286.371 342.785 286.371C342.965 286.371 343.152 286.355 343.348 286.324C343.551 286.285 343.703 286.254 343.805 286.23L343.816 288C343.645 288.055 343.418 288.105 343.137 288.152C342.863 288.207 342.531 288.234 342.141 288.234C341.609 288.234 341.121 288.129 340.676 287.918C340.23 287.707 339.875 287.355 339.609 286.863C339.352 286.363 339.223 285.691 339.223 284.848V272.238ZM348.469 270V288H346.301V270H348.469ZM347.953 281.18L347.051 281.145C347.059 280.277 347.188 279.477 347.438 278.742C347.688 278 348.039 277.355 348.492 276.809C348.945 276.262 349.484 275.84 350.109 275.543C350.742 275.238 351.441 275.086 352.207 275.086C352.832 275.086 353.395 275.172 353.895 275.344C354.395 275.508 354.82 275.773 355.172 276.141C355.531 276.508 355.805 276.984 355.992 277.57C356.18 278.148 356.273 278.855 356.273 279.691V288H354.094V279.668C354.094 279.004 353.996 278.473 353.801 278.074C353.605 277.668 353.32 277.375 352.945 277.195C352.57 277.008 352.109 276.914 351.562 276.914C351.023 276.914 350.531 277.027 350.086 277.254C349.648 277.48 349.27 277.793 348.949 278.191C348.637 278.59 348.391 279.047 348.211 279.562C348.039 280.07 347.953 280.609 347.953 281.18ZM364.781 288.234C363.898 288.234 363.098 288.086 362.379 287.789C361.668 287.484 361.055 287.059 360.539 286.512C360.031 285.965 359.641 285.316 359.367 284.566C359.094 283.816 358.957 282.996 358.957 282.105V281.613C358.957 280.582 359.109 279.664 359.414 278.859C359.719 278.047 360.133 277.359 360.656 276.797C361.18 276.234 361.773 275.809 362.438 275.52C363.102 275.23 363.789 275.086 364.5 275.086C365.406 275.086 366.188 275.242 366.844 275.555C367.508 275.867 368.051 276.305 368.473 276.867C368.895 277.422 369.207 278.078 369.41 278.836C369.613 279.586 369.715 280.406 369.715 281.297V282.27H360.246V280.5H367.547V280.336C367.516 279.773 367.398 279.227 367.195 278.695C367 278.164 366.688 277.727 366.258 277.383C365.828 277.039 365.242 276.867 364.5 276.867C364.008 276.867 363.555 276.973 363.141 277.184C362.727 277.387 362.371 277.691 362.074 278.098C361.777 278.504 361.547 279 361.383 279.586C361.219 280.172 361.137 280.848 361.137 281.613V282.105C361.137 282.707 361.219 283.273 361.383 283.805C361.555 284.328 361.801 284.789 362.121 285.188C362.449 285.586 362.844 285.898 363.305 286.125C363.773 286.352 364.305 286.465 364.898 286.465C365.664 286.465 366.312 286.309 366.844 285.996C367.375 285.684 367.84 285.266 368.238 284.742L369.551 285.785C369.277 286.199 368.93 286.594 368.508 286.969C368.086 287.344 367.566 287.648 366.949 287.883C366.34 288.117 365.617 288.234 364.781 288.234ZM381.41 285.75L384.668 275.32H386.098L385.816 277.395L382.5 288H381.105L381.41 285.75ZM379.219 275.32L381.996 285.867L382.195 288H380.73L377.051 275.32H379.219ZM389.215 285.785L391.863 275.32H394.02L390.34 288H388.887L389.215 285.785ZM386.414 275.32L389.602 285.574L389.965 288H388.582L385.172 277.371L384.891 275.32H386.414ZM403.723 285.832V279.305C403.723 278.805 403.621 278.371 403.418 278.004C403.223 277.629 402.926 277.34 402.527 277.137C402.129 276.934 401.637 276.832 401.051 276.832C400.504 276.832 400.023 276.926 399.609 277.113C399.203 277.301 398.883 277.547 398.648 277.852C398.422 278.156 398.309 278.484 398.309 278.836H396.141C396.141 278.383 396.258 277.934 396.492 277.488C396.727 277.043 397.062 276.641 397.5 276.281C397.945 275.914 398.477 275.625 399.094 275.414C399.719 275.195 400.414 275.086 401.18 275.086C402.102 275.086 402.914 275.242 403.617 275.555C404.328 275.867 404.883 276.34 405.281 276.973C405.688 277.598 405.891 278.383 405.891 279.328V285.234C405.891 285.656 405.926 286.105 405.996 286.582C406.074 287.059 406.188 287.469 406.336 287.812V288H404.074C403.965 287.75 403.879 287.418 403.816 287.004C403.754 286.582 403.723 286.191 403.723 285.832ZM404.098 280.312L404.121 281.836H401.93C401.312 281.836 400.762 281.887 400.277 281.988C399.793 282.082 399.387 282.227 399.059 282.422C398.73 282.617 398.48 282.863 398.309 283.16C398.137 283.449 398.051 283.789 398.051 284.18C398.051 284.578 398.141 284.941 398.32 285.27C398.5 285.598 398.77 285.859 399.129 286.055C399.496 286.242 399.945 286.336 400.477 286.336C401.141 286.336 401.727 286.195 402.234 285.914C402.742 285.633 403.145 285.289 403.441 284.883C403.746 284.477 403.91 284.082 403.934 283.699L404.859 284.742C404.805 285.07 404.656 285.434 404.414 285.832C404.172 286.23 403.848 286.613 403.441 286.98C403.043 287.34 402.566 287.641 402.012 287.883C401.465 288.117 400.848 288.234 400.16 288.234C399.301 288.234 398.547 288.066 397.898 287.73C397.258 287.395 396.758 286.945 396.398 286.383C396.047 285.812 395.871 285.176 395.871 284.473C395.871 283.793 396.004 283.195 396.27 282.68C396.535 282.156 396.918 281.723 397.418 281.379C397.918 281.027 398.52 280.762 399.223 280.582C399.926 280.402 400.711 280.312 401.578 280.312H404.098ZM412.676 286.688L416.203 275.32H418.523L413.438 289.957C413.32 290.27 413.164 290.605 412.969 290.965C412.781 291.332 412.539 291.68 412.242 292.008C411.945 292.336 411.586 292.602 411.164 292.805C410.75 293.016 410.254 293.121 409.676 293.121C409.504 293.121 409.285 293.098 409.02 293.051C408.754 293.004 408.566 292.965 408.457 292.934L408.445 291.176C408.508 291.184 408.605 291.191 408.738 291.199C408.879 291.215 408.977 291.223 409.031 291.223C409.523 291.223 409.941 291.156 410.285 291.023C410.629 290.898 410.918 290.684 411.152 290.379C411.395 290.082 411.602 289.672 411.773 289.148L412.676 286.688ZM410.086 275.32L413.379 285.164L413.941 287.449L412.383 288.246L407.719 275.32H410.086Z" fill="#3CCB93"/>
<path d="M40.4811 225.239H30.6439V219.034H40.4811C42.0013 219.034 43.2386 218.787 44.1932 218.292C45.1477 217.779 45.846 217.072 46.2879 216.17C46.7298 215.269 46.9508 214.253 46.9508 213.121C46.9508 211.972 46.7298 210.903 46.2879 209.913C45.846 208.923 45.1477 208.128 44.1932 207.527C43.2386 206.926 42.0013 206.625 40.4811 206.625H33.4015V239H25.447V200.394H40.4811C43.5038 200.394 46.0934 200.942 48.25 202.038C50.4242 203.116 52.0859 204.61 53.2348 206.519C54.3838 208.428 54.9583 210.611 54.9583 213.068C54.9583 215.561 54.3838 217.717 53.2348 219.538C52.0859 221.359 50.4242 222.764 48.25 223.754C46.0934 224.744 43.5038 225.239 40.4811 225.239ZM75.1364 232.53V219.75C75.1364 218.831 74.9861 218.044 74.6856 217.39C74.3851 216.718 73.9167 216.197 73.2803 215.826C72.6616 215.455 71.8573 215.269 70.8674 215.269C70.0189 215.269 69.2854 215.419 68.6667 215.72C68.048 216.003 67.5707 216.418 67.2348 216.966C66.899 217.496 66.7311 218.124 66.7311 218.848H59.0947C59.0947 217.629 59.3775 216.471 59.9432 215.375C60.5088 214.279 61.3308 213.316 62.4091 212.485C63.4874 211.636 64.7689 210.973 66.2538 210.496C67.7563 210.019 69.4356 209.78 71.2917 209.78C73.5189 209.78 75.4987 210.152 77.2311 210.894C78.9634 211.636 80.3245 212.75 81.3144 214.235C82.322 215.72 82.8258 217.576 82.8258 219.803V232.08C82.8258 233.653 82.923 234.943 83.1174 235.951C83.3119 236.941 83.5947 237.807 83.9659 238.549V239H76.25C75.8788 238.222 75.596 237.25 75.4015 236.083C75.2247 234.899 75.1364 233.715 75.1364 232.53ZM76.1439 221.527L76.197 225.848H71.928C70.9205 225.848 70.0455 225.963 69.303 226.193C68.5606 226.423 67.9508 226.75 67.4735 227.174C66.9962 227.581 66.6427 228.058 66.4129 228.606C66.2008 229.154 66.0947 229.755 66.0947 230.409C66.0947 231.063 66.2449 231.655 66.5455 232.186C66.846 232.698 67.279 233.105 67.8447 233.405C68.4104 233.688 69.0732 233.83 69.8333 233.83C70.9823 233.83 71.9811 233.6 72.8295 233.14C73.678 232.681 74.3321 232.115 74.7917 231.443C75.2689 230.771 75.5164 230.135 75.5341 229.534L77.5492 232.769C77.2664 233.494 76.8775 234.245 76.3826 235.023C75.9053 235.801 75.2955 236.534 74.553 237.223C73.8106 237.895 72.9179 238.452 71.875 238.894C70.8321 239.318 69.5947 239.53 68.1629 239.53C66.3422 239.53 64.6894 239.168 63.2045 238.443C61.7374 237.701 60.5707 236.684 59.7045 235.394C58.8561 234.086 58.4318 232.601 58.4318 230.939C58.4318 229.437 58.7146 228.102 59.2803 226.936C59.846 225.769 60.6768 224.788 61.7727 223.992C62.8864 223.179 64.274 222.569 65.9356 222.163C67.5972 221.739 69.524 221.527 71.7159 221.527H76.1439ZM96.7992 235.765L104.409 210.311H112.602L101.068 243.322C100.821 244.047 100.485 244.824 100.061 245.655C99.654 246.486 99.0972 247.273 98.3901 248.015C97.7008 248.775 96.8258 249.394 95.7651 249.871C94.7222 250.348 93.4407 250.587 91.9204 250.587C91.1957 250.587 90.6035 250.543 90.1439 250.455C89.6843 250.366 89.1364 250.242 88.5 250.083V244.489C88.6944 244.489 88.8977 244.489 89.1098 244.489C89.322 244.506 89.5252 244.515 89.7197 244.515C90.7273 244.515 91.5492 244.4 92.1856 244.17C92.822 243.941 93.3346 243.587 93.7235 243.11C94.1124 242.65 94.4217 242.049 94.6515 241.307L96.7992 235.765ZM93.6174 210.311L99.8485 231.098L100.936 239.186L95.7386 239.742L85.4242 210.311H93.6174ZM123.288 216.568V239H115.652V210.311H122.837L123.288 216.568ZM131.932 210.125L131.799 217.205C131.428 217.152 130.977 217.107 130.447 217.072C129.934 217.019 129.466 216.992 129.042 216.992C127.963 216.992 127.027 217.134 126.231 217.417C125.453 217.682 124.799 218.08 124.269 218.61C123.756 219.14 123.367 219.785 123.102 220.545C122.855 221.306 122.713 222.172 122.678 223.144L121.14 222.667C121.14 220.811 121.326 219.105 121.697 217.549C122.068 215.976 122.607 214.606 123.314 213.439C124.039 212.273 124.923 211.371 125.966 210.735C127.009 210.098 128.202 209.78 129.545 209.78C129.97 209.78 130.403 209.816 130.845 209.886C131.287 209.939 131.649 210.019 131.932 210.125ZM133.523 224.947V224.39C133.523 222.287 133.823 220.351 134.424 218.583C135.025 216.798 135.9 215.251 137.049 213.943C138.198 212.635 139.612 211.619 141.292 210.894C142.971 210.152 144.898 209.78 147.072 209.78C149.246 209.78 151.182 210.152 152.879 210.894C154.576 211.619 155.999 212.635 157.148 213.943C158.314 215.251 159.198 216.798 159.799 218.583C160.4 220.351 160.701 222.287 160.701 224.39V224.947C160.701 227.033 160.4 228.968 159.799 230.754C159.198 232.521 158.314 234.068 157.148 235.394C155.999 236.702 154.585 237.718 152.905 238.443C151.226 239.168 149.299 239.53 147.125 239.53C144.951 239.53 143.015 239.168 141.318 238.443C139.639 237.718 138.216 236.702 137.049 235.394C135.9 234.068 135.025 232.521 134.424 230.754C133.823 228.968 133.523 227.033 133.523 224.947ZM141.159 224.39V224.947C141.159 226.149 141.265 227.271 141.477 228.314C141.689 229.357 142.025 230.277 142.485 231.072C142.962 231.85 143.581 232.46 144.341 232.902C145.101 233.343 146.029 233.564 147.125 233.564C148.186 233.564 149.096 233.343 149.856 232.902C150.616 232.46 151.226 231.85 151.686 231.072C152.145 230.277 152.481 229.357 152.693 228.314C152.923 227.271 153.038 226.149 153.038 224.947V224.39C153.038 223.223 152.923 222.128 152.693 221.102C152.481 220.059 152.136 219.14 151.659 218.345C151.199 217.532 150.59 216.895 149.83 216.436C149.069 215.976 148.15 215.746 147.072 215.746C145.994 215.746 145.074 215.976 144.314 216.436C143.572 216.895 142.962 217.532 142.485 218.345C142.025 219.14 141.689 220.059 141.477 221.102C141.265 222.128 141.159 223.223 141.159 224.39ZM173.455 198.273V239H165.792V198.273H173.455ZM187.826 198.273V239H180.163V198.273H187.826ZM215.72 210.311V239H208.057V210.311H215.72ZM207.58 202.833C207.58 201.72 207.968 200.801 208.746 200.076C209.524 199.351 210.567 198.989 211.875 198.989C213.165 198.989 214.199 199.351 214.977 200.076C215.773 200.801 216.17 201.72 216.17 202.833C216.17 203.947 215.773 204.866 214.977 205.591C214.199 206.316 213.165 206.678 211.875 206.678C210.567 206.678 209.524 206.316 208.746 205.591C207.968 204.866 207.58 203.947 207.58 202.833ZM237.542 231.072C237.542 230.524 237.383 230.029 237.064 229.587C236.746 229.145 236.154 228.739 235.288 228.367C234.439 227.979 233.211 227.625 231.602 227.307C230.153 226.989 228.8 226.591 227.545 226.114C226.308 225.619 225.23 225.027 224.311 224.337C223.409 223.648 222.702 222.835 222.189 221.898C221.677 220.943 221.42 219.856 221.42 218.636C221.42 217.434 221.677 216.303 222.189 215.242C222.72 214.182 223.471 213.245 224.443 212.432C225.433 211.601 226.635 210.956 228.049 210.496C229.481 210.019 231.09 209.78 232.875 209.78C235.367 209.78 237.506 210.178 239.292 210.973C241.095 211.769 242.473 212.865 243.428 214.261C244.4 215.64 244.886 217.213 244.886 218.981H237.25C237.25 218.239 237.091 217.576 236.773 216.992C236.472 216.391 235.995 215.923 235.341 215.587C234.705 215.234 233.874 215.057 232.848 215.057C232 215.057 231.266 215.207 230.648 215.508C230.029 215.79 229.552 216.179 229.216 216.674C228.898 217.152 228.739 217.682 228.739 218.265C228.739 218.707 228.827 219.105 229.004 219.458C229.198 219.794 229.508 220.104 229.932 220.386C230.356 220.669 230.904 220.934 231.576 221.182C232.265 221.412 233.114 221.624 234.121 221.818C236.189 222.242 238.037 222.799 239.663 223.489C241.289 224.16 242.58 225.08 243.534 226.246C244.489 227.395 244.966 228.907 244.966 230.78C244.966 232.053 244.683 233.22 244.117 234.28C243.552 235.341 242.739 236.269 241.678 237.064C240.617 237.842 239.345 238.452 237.86 238.894C236.393 239.318 234.74 239.53 232.902 239.53C230.232 239.53 227.97 239.053 226.114 238.098C224.275 237.144 222.879 235.933 221.924 234.466C220.987 232.981 220.519 231.461 220.519 229.905H227.758C227.793 230.948 228.058 231.788 228.553 232.424C229.066 233.061 229.711 233.52 230.489 233.803C231.284 234.086 232.141 234.227 233.061 234.227C234.05 234.227 234.872 234.095 235.527 233.83C236.181 233.547 236.675 233.176 237.011 232.716C237.365 232.239 237.542 231.691 237.542 231.072ZM280.39 232.742V198.273H288.08V239H281.159L280.39 232.742ZM262.254 225V224.443C262.254 222.251 262.501 220.263 262.996 218.477C263.491 216.674 264.216 215.128 265.17 213.837C266.125 212.547 267.3 211.548 268.697 210.841C270.093 210.134 271.684 209.78 273.47 209.78C275.149 209.78 276.616 210.134 277.871 210.841C279.144 211.548 280.222 212.556 281.106 213.864C282.008 215.154 282.732 216.683 283.28 218.451C283.828 220.201 284.226 222.119 284.473 224.205V225.424C284.226 227.422 283.828 229.278 283.28 230.992C282.732 232.707 282.008 234.21 281.106 235.5C280.222 236.773 279.144 237.763 277.871 238.47C276.598 239.177 275.114 239.53 273.417 239.53C271.631 239.53 270.04 239.168 268.644 238.443C267.265 237.718 266.098 236.702 265.144 235.394C264.207 234.086 263.491 232.548 262.996 230.78C262.501 229.013 262.254 227.086 262.254 225ZM269.89 224.443V225C269.89 226.184 269.979 227.289 270.155 228.314C270.35 229.34 270.659 230.25 271.083 231.045C271.525 231.823 272.091 232.433 272.78 232.875C273.487 233.299 274.345 233.511 275.352 233.511C276.66 233.511 277.739 233.22 278.587 232.636C279.436 232.035 280.081 231.213 280.523 230.17C280.982 229.128 281.247 227.926 281.318 226.564V223.091C281.265 221.977 281.106 220.979 280.841 220.095C280.593 219.193 280.222 218.424 279.727 217.788C279.25 217.152 278.649 216.657 277.924 216.303C277.217 215.949 276.378 215.773 275.405 215.773C274.415 215.773 273.567 216.003 272.86 216.462C272.153 216.904 271.578 217.514 271.136 218.292C270.712 219.069 270.394 219.989 270.182 221.049C269.987 222.092 269.89 223.223 269.89 224.443ZM292.826 224.947V224.39C292.826 222.287 293.126 220.351 293.727 218.583C294.328 216.798 295.203 215.251 296.352 213.943C297.501 212.635 298.915 211.619 300.595 210.894C302.274 210.152 304.201 209.78 306.375 209.78C308.549 209.78 310.485 210.152 312.182 210.894C313.879 211.619 315.302 212.635 316.451 213.943C317.617 215.251 318.501 216.798 319.102 218.583C319.703 220.351 320.004 222.287 320.004 224.39V224.947C320.004 227.033 319.703 228.968 319.102 230.754C318.501 232.521 317.617 234.068 316.451 235.394C315.302 236.702 313.888 237.718 312.208 238.443C310.529 239.168 308.602 239.53 306.428 239.53C304.254 239.53 302.318 239.168 300.621 238.443C298.942 237.718 297.519 236.702 296.352 235.394C295.203 234.068 294.328 232.521 293.727 230.754C293.126 228.968 292.826 227.033 292.826 224.947ZM300.462 224.39V224.947C300.462 226.149 300.568 227.271 300.78 228.314C300.992 229.357 301.328 230.277 301.788 231.072C302.265 231.85 302.884 232.46 303.644 232.902C304.404 233.343 305.332 233.564 306.428 233.564C307.489 233.564 308.399 233.343 309.159 232.902C309.919 232.46 310.529 231.85 310.989 231.072C311.448 230.277 311.784 229.357 311.996 228.314C312.226 227.271 312.341 226.149 312.341 224.947V224.39C312.341 223.223 312.226 222.128 311.996 221.102C311.784 220.059 311.439 219.14 310.962 218.345C310.503 217.532 309.893 216.895 309.133 216.436C308.372 215.976 307.453 215.746 306.375 215.746C305.297 215.746 304.378 215.976 303.617 216.436C302.875 216.895 302.265 217.532 301.788 218.345C301.328 219.14 300.992 220.059 300.78 221.102C300.568 222.128 300.462 223.223 300.462 224.39ZM332.174 216.436V239H324.538V210.311H331.697L332.174 216.436ZM331.061 223.648H328.992C328.992 221.527 329.266 219.617 329.814 217.92C330.362 216.206 331.131 214.747 332.121 213.545C333.111 212.326 334.287 211.398 335.648 210.761C337.027 210.107 338.564 209.78 340.261 209.78C341.605 209.78 342.833 209.975 343.947 210.364C345.061 210.753 346.015 211.371 346.811 212.22C347.624 213.068 348.242 214.191 348.667 215.587C349.109 216.984 349.33 218.689 349.33 220.705V239H341.64V220.678C341.64 219.405 341.463 218.415 341.11 217.708C340.756 217.001 340.235 216.506 339.545 216.223C338.874 215.923 338.043 215.773 337.053 215.773C336.028 215.773 335.135 215.976 334.375 216.383C333.633 216.789 333.014 217.355 332.519 218.08C332.042 218.787 331.679 219.617 331.432 220.572C331.184 221.527 331.061 222.552 331.061 223.648ZM368.341 239.53C366.114 239.53 364.116 239.177 362.348 238.47C360.581 237.745 359.078 236.746 357.841 235.473C356.621 234.201 355.684 232.725 355.03 231.045C354.376 229.348 354.049 227.545 354.049 225.636V224.576C354.049 222.402 354.359 220.413 354.977 218.61C355.596 216.807 356.48 215.242 357.629 213.917C358.795 212.591 360.21 211.574 361.871 210.867C363.533 210.143 365.407 209.78 367.492 209.78C369.525 209.78 371.328 210.116 372.902 210.788C374.475 211.46 375.792 212.414 376.852 213.652C377.931 214.889 378.744 216.374 379.292 218.106C379.84 219.821 380.114 221.73 380.114 223.833V227.015H357.311V221.924H372.61V221.341C372.61 220.28 372.415 219.335 372.027 218.504C371.655 217.655 371.09 216.984 370.33 216.489C369.569 215.994 368.597 215.746 367.413 215.746C366.405 215.746 365.539 215.967 364.814 216.409C364.09 216.851 363.497 217.47 363.038 218.265C362.596 219.061 362.26 219.997 362.03 221.076C361.818 222.136 361.712 223.303 361.712 224.576V225.636C361.712 226.785 361.871 227.846 362.189 228.818C362.525 229.79 362.994 230.63 363.595 231.337C364.213 232.044 364.956 232.592 365.822 232.981C366.706 233.37 367.705 233.564 368.818 233.564C370.197 233.564 371.479 233.299 372.663 232.769C373.865 232.221 374.899 231.399 375.765 230.303L379.477 234.333C378.876 235.199 378.054 236.03 377.011 236.826C375.986 237.621 374.749 238.275 373.299 238.788C371.85 239.283 370.197 239.53 368.341 239.53ZM393.08 200.394L392.205 227.201H385.841L384.939 200.394H393.08ZM384.727 235.5C384.727 234.369 385.116 233.432 385.894 232.689C386.689 231.929 387.732 231.549 389.023 231.549C390.331 231.549 391.374 231.929 392.151 232.689C392.929 233.432 393.318 234.369 393.318 235.5C393.318 236.596 392.929 237.524 392.151 238.284C391.374 239.044 390.331 239.424 389.023 239.424C387.732 239.424 386.689 239.044 385.894 238.284C385.116 237.524 384.727 236.596 384.727 235.5Z" fill="#383874"/>
<defs>
<linearGradient id="paint0_linear_839_3548" x1="259.791" y1="23.892" x2="161.892" y2="124.122" gradientUnits="userSpaceOnUse">
<stop stop-color="#6CF4BF"/>
<stop offset="1" stop-color="#48A983"/>
</linearGradient>
</defs>
</svg>
