<svg width="184" height="163" viewBox="0 0 184 163" fill="none" xmlns="http://www.w3.org/2000/svg">
<rect width="184" height="163" rx="10" fill="#241F35"/>
<circle cx="92" cy="67" r="40" fill="#3CCB93"/>
<path d="M89.8108 50.8987C82.0359 52.1402 76.0294 58.7528 75.7305 66.7996H78.523C78.8375 59.7582 84.3964 54.058 91.3782 53.5197V52.743V50.7239V48H89.8108V50.8987Z" fill="white"/>
<path d="M75.8987 70.0669C77.1394 77.8417 83.752 83.8483 91.7996 84.1472V81.3547C84.7582 81.0402 79.058 75.4813 78.5197 68.4995H77.743H75.7239H73V70.0669H75.8987Z" fill="#383874"/>
<path d="M95.0654 83.9794C102.84 82.7387 108.847 76.1261 109.146 68.0785H106.353C106.039 75.1199 100.48 80.8201 93.498 81.3584V82.1351V84.155V86.8781H95.0654V83.9794Z" fill="white"/>
<path d="M108.981 64.8115C107.739 57.0367 101.127 51.0301 93.0801 50.7312V53.5237C100.121 53.8382 105.822 59.3971 106.36 66.3789H107.137H109.157H111.88V64.8115H108.981Z" fill="#383874"/>
<path d="M103.717 61.3564L102.989 65.5252L101.536 64.4332L95.2797 71.4713C95.3761 71.678 95.4325 71.9059 95.4325 72.1484C95.4325 73.0297 94.7154 73.7469 93.8341 73.7469C92.9528 73.7469 92.2356 73.0297 92.2356 72.1484C92.2356 72.039 92.2471 71.932 92.2683 71.8291L88.6223 69.2963C88.3772 69.4506 88.0881 69.5413 87.7785 69.5413C87.6813 69.5413 87.5866 69.5307 87.4951 69.5143L84.4951 73.5476C84.6503 73.8155 84.7254 74.1209 84.7083 74.4362C84.6617 75.284 83.9618 75.9472 83.114 75.9472C83.0846 75.9472 83.0552 75.9464 83.0257 75.9456C82.9612 75.9415 82.9 75.9276 82.8379 75.9162C85.1853 78.5731 88.6157 80.2508 92.4398 80.2508C99.5163 80.2508 105.252 74.5138 105.252 67.4389C105.251 65.2377 104.695 63.1664 103.717 61.3564Z" fill="#383874"/>
<path d="M103.443 60.877C101.206 57.1337 97.1165 54.6271 92.4388 54.6271C85.3631 54.6271 79.627 60.3633 79.627 67.4389C79.627 69.9039 80.3253 72.2064 81.5317 74.1609C81.6272 73.363 82.297 72.752 83.1097 72.752C83.1391 72.752 83.1685 72.7528 83.1987 72.7545C83.2951 72.7594 83.3898 72.7741 83.4813 72.7961L86.4413 68.8168C86.2771 68.5644 86.1799 68.2663 86.1799 67.9437C86.1799 67.0624 86.897 66.3453 87.7783 66.3453C88.6596 66.3453 89.3767 67.0632 89.3767 67.9437C89.3767 68.0531 89.3653 68.1593 89.3441 68.2631L92.9901 70.795C93.2352 70.6415 93.5243 70.5508 93.8347 70.5508C94.0111 70.5508 94.1794 70.5819 94.3378 70.6341L100.524 63.6744L99.1641 62.6527L103.443 60.877ZM84.3119 70.9045L83.2771 72.2954C83.2583 72.2938 83.2412 72.293 83.2232 72.2922C83.1832 72.2905 83.1464 72.2889 83.1105 72.2889C82.4448 72.2889 81.8461 72.6107 81.4696 73.1139C81.4459 73.0673 81.4222 73.0216 81.3993 72.975V64.7289H84.3119V70.9045ZM88.573 66.0414C88.3288 65.9393 88.0601 65.8822 87.7791 65.8822C86.643 65.8822 85.7184 66.8068 85.7184 67.9429C85.7184 68.2304 85.7789 68.5138 85.8957 68.776L85.6596 69.0929V61.3564H88.573V66.0414ZM92.8333 70.122L92.6087 69.966L89.9207 68.0989V59.2043H92.8333V70.122ZM97.0936 66.837L94.2929 69.9881L94.181 70.1139V56.571H97.0936V66.837Z" fill="white"/>
<path d="M52.1562 130.625H56.1797C57.0443 130.625 57.7812 130.755 58.3906 131.016C59 131.276 59.4661 131.661 59.7891 132.172C60.1172 132.677 60.2812 133.302 60.2812 134.047C60.2812 134.615 60.1771 135.115 59.9688 135.547C59.7604 135.979 59.4661 136.344 59.0859 136.641C58.7057 136.932 58.2526 137.159 57.7266 137.32L57.1328 137.609H53.5156L53.5 136.055H56.2109C56.6797 136.055 57.0703 135.971 57.3828 135.805C57.6953 135.638 57.9297 135.411 58.0859 135.125C58.2474 134.833 58.3281 134.505 58.3281 134.141C58.3281 133.745 58.25 133.401 58.0938 133.109C57.9427 132.812 57.7083 132.586 57.3906 132.43C57.0729 132.268 56.6693 132.188 56.1797 132.188H54.1172V142H52.1562V130.625ZM58.6484 142L55.9766 136.891L58.0312 136.883L60.7422 141.898V142H58.6484ZM67.1328 140.008V133.547H69.0234V142H67.2422L67.1328 140.008ZM67.3984 138.25L68.0312 138.234C68.0312 138.802 67.9688 139.326 67.8438 139.805C67.7188 140.279 67.526 140.693 67.2656 141.047C67.0052 141.396 66.6719 141.669 66.2656 141.867C65.8594 142.06 65.3724 142.156 64.8047 142.156C64.3932 142.156 64.0156 142.096 63.6719 141.977C63.3281 141.857 63.0312 141.672 62.7812 141.422C62.5365 141.172 62.3464 140.846 62.2109 140.445C62.0755 140.044 62.0078 139.565 62.0078 139.008V133.547H63.8906V139.023C63.8906 139.331 63.9271 139.589 64 139.797C64.0729 140 64.1719 140.164 64.2969 140.289C64.4219 140.414 64.5677 140.503 64.7344 140.555C64.901 140.607 65.0781 140.633 65.2656 140.633C65.8021 140.633 66.224 140.529 66.5312 140.32C66.8438 140.107 67.0651 139.82 67.1953 139.461C67.3307 139.102 67.3984 138.698 67.3984 138.25ZM72.8203 135.352V142H70.9375V133.547H72.7109L72.8203 135.352ZM72.4844 137.461L71.875 137.453C71.8802 136.854 71.9635 136.305 72.125 135.805C72.2917 135.305 72.5208 134.875 72.8125 134.516C73.1094 134.156 73.4635 133.88 73.875 133.688C74.2865 133.49 74.7448 133.391 75.25 133.391C75.6562 133.391 76.0234 133.448 76.3516 133.562C76.6849 133.672 76.9688 133.852 77.2031 134.102C77.4427 134.352 77.625 134.677 77.75 135.078C77.875 135.474 77.9375 135.961 77.9375 136.539V142H76.0469V136.531C76.0469 136.125 75.987 135.805 75.8672 135.57C75.7526 135.331 75.5833 135.161 75.3594 135.062C75.1406 134.958 74.8672 134.906 74.5391 134.906C74.2161 134.906 73.9271 134.974 73.6719 135.109C73.4167 135.245 73.2005 135.43 73.0234 135.664C72.8516 135.898 72.7188 136.169 72.625 136.477C72.5312 136.784 72.4844 137.112 72.4844 137.461ZM88.3516 137.758H85.3906V136.203H88.3516C88.8672 136.203 89.2839 136.12 89.6016 135.953C89.9193 135.786 90.151 135.557 90.2969 135.266C90.4479 134.969 90.5234 134.63 90.5234 134.25C90.5234 133.891 90.4479 133.555 90.2969 133.242C90.151 132.924 89.9193 132.669 89.6016 132.477C89.2839 132.284 88.8672 132.188 88.3516 132.188H85.9922V142H84.0312V130.625H88.3516C89.2318 130.625 89.9792 130.781 90.5938 131.094C91.2135 131.401 91.6849 131.828 92.0078 132.375C92.3307 132.917 92.4922 133.536 92.4922 134.234C92.4922 134.969 92.3307 135.599 92.0078 136.125C91.6849 136.651 91.2135 137.055 90.5938 137.336C89.9792 137.617 89.2318 137.758 88.3516 137.758ZM98.7344 140.305V136.273C98.7344 135.971 98.6797 135.711 98.5703 135.492C98.4609 135.273 98.2943 135.104 98.0703 134.984C97.8516 134.865 97.5755 134.805 97.2422 134.805C96.9349 134.805 96.6693 134.857 96.4453 134.961C96.2214 135.065 96.0469 135.206 95.9219 135.383C95.7969 135.56 95.7344 135.76 95.7344 135.984H93.8594C93.8594 135.651 93.9401 135.328 94.1016 135.016C94.263 134.703 94.4974 134.424 94.8047 134.18C95.112 133.935 95.4792 133.742 95.9062 133.602C96.3333 133.461 96.8125 133.391 97.3438 133.391C97.9792 133.391 98.5417 133.497 99.0312 133.711C99.526 133.924 99.9141 134.247 100.195 134.68C100.482 135.107 100.625 135.643 100.625 136.289V140.047C100.625 140.432 100.651 140.779 100.703 141.086C100.76 141.388 100.841 141.651 100.945 141.875V142H99.0156C98.9271 141.797 98.8568 141.539 98.8047 141.227C98.7578 140.909 98.7344 140.602 98.7344 140.305ZM99.0078 136.859L99.0234 138.023H97.6719C97.3229 138.023 97.0156 138.057 96.75 138.125C96.4844 138.188 96.263 138.281 96.0859 138.406C95.9089 138.531 95.776 138.682 95.6875 138.859C95.599 139.036 95.5547 139.237 95.5547 139.461C95.5547 139.685 95.6068 139.891 95.7109 140.078C95.8151 140.26 95.9661 140.404 96.1641 140.508C96.3672 140.612 96.612 140.664 96.8984 140.664C97.2839 140.664 97.6198 140.586 97.9062 140.43C98.1979 140.268 98.4271 140.073 98.5938 139.844C98.7604 139.609 98.849 139.388 98.8594 139.18L99.4688 140.016C99.4062 140.229 99.2995 140.458 99.1484 140.703C98.9974 140.948 98.7995 141.182 98.5547 141.406C98.3151 141.625 98.026 141.805 97.6875 141.945C97.3542 142.086 96.9688 142.156 96.5312 142.156C95.9792 142.156 95.487 142.047 95.0547 141.828C94.6224 141.604 94.2839 141.305 94.0391 140.93C93.7943 140.549 93.6719 140.12 93.6719 139.641C93.6719 139.193 93.7552 138.797 93.9219 138.453C94.0938 138.104 94.3438 137.812 94.6719 137.578C95.0052 137.344 95.4115 137.167 95.8906 137.047C96.3698 136.922 96.9167 136.859 97.5312 136.859H99.0078ZM104.922 141.078L107.219 133.547H109.234L105.844 143.289C105.766 143.497 105.664 143.724 105.539 143.969C105.414 144.214 105.25 144.445 105.047 144.664C104.849 144.888 104.602 145.068 104.305 145.203C104.008 145.344 103.648 145.414 103.227 145.414C103.06 145.414 102.898 145.398 102.742 145.367C102.591 145.341 102.448 145.312 102.312 145.281L102.305 143.844C102.357 143.849 102.419 143.854 102.492 143.859C102.57 143.865 102.633 143.867 102.68 143.867C102.992 143.867 103.253 143.828 103.461 143.75C103.669 143.677 103.839 143.557 103.969 143.391C104.104 143.224 104.219 143 104.312 142.719L104.922 141.078ZM103.625 133.547L105.633 139.875L105.969 141.859L104.664 142.195L101.594 133.547H103.625ZM112.203 135.156V142H110.32V133.547H112.117L112.203 135.156ZM114.789 133.492L114.773 135.242C114.659 135.221 114.534 135.206 114.398 135.195C114.268 135.185 114.138 135.18 114.008 135.18C113.685 135.18 113.401 135.227 113.156 135.32C112.911 135.409 112.706 135.539 112.539 135.711C112.378 135.878 112.253 136.081 112.164 136.32C112.076 136.56 112.023 136.828 112.008 137.125L111.578 137.156C111.578 136.625 111.63 136.133 111.734 135.68C111.839 135.227 111.995 134.828 112.203 134.484C112.417 134.141 112.682 133.872 113 133.68C113.323 133.487 113.695 133.391 114.117 133.391C114.232 133.391 114.354 133.401 114.484 133.422C114.62 133.443 114.721 133.466 114.789 133.492ZM115.406 137.867V137.688C115.406 137.078 115.495 136.513 115.672 135.992C115.849 135.466 116.104 135.01 116.438 134.625C116.776 134.234 117.188 133.932 117.672 133.719C118.161 133.5 118.714 133.391 119.328 133.391C119.948 133.391 120.5 133.5 120.984 133.719C121.474 133.932 121.888 134.234 122.227 134.625C122.565 135.01 122.823 135.466 123 135.992C123.177 136.513 123.266 137.078 123.266 137.688V137.867C123.266 138.477 123.177 139.042 123 139.562C122.823 140.083 122.565 140.539 122.227 140.93C121.888 141.315 121.477 141.617 120.992 141.836C120.508 142.049 119.958 142.156 119.344 142.156C118.724 142.156 118.169 142.049 117.68 141.836C117.195 141.617 116.784 141.315 116.445 140.93C116.107 140.539 115.849 140.083 115.672 139.562C115.495 139.042 115.406 138.477 115.406 137.867ZM117.289 137.688V137.867C117.289 138.247 117.328 138.607 117.406 138.945C117.484 139.284 117.607 139.581 117.773 139.836C117.94 140.091 118.154 140.292 118.414 140.438C118.674 140.583 118.984 140.656 119.344 140.656C119.693 140.656 119.995 140.583 120.25 140.438C120.51 140.292 120.724 140.091 120.891 139.836C121.057 139.581 121.18 139.284 121.258 138.945C121.341 138.607 121.383 138.247 121.383 137.867V137.688C121.383 137.312 121.341 136.958 121.258 136.625C121.18 136.286 121.055 135.987 120.883 135.727C120.716 135.466 120.503 135.263 120.242 135.117C119.987 134.966 119.682 134.891 119.328 134.891C118.974 134.891 118.667 134.966 118.406 135.117C118.151 135.263 117.94 135.466 117.773 135.727C117.607 135.987 117.484 136.286 117.406 136.625C117.328 136.958 117.289 137.312 117.289 137.688ZM126.859 130V142H124.969V130H126.859ZM130.938 130V142H129.047V130H130.938Z" fill="white"/>
</svg>
