<svg width="272" height="56" viewBox="0 0 272 56" fill="none" xmlns="http://www.w3.org/2000/svg">
<rect x="1" y="1" width="270" height="54" rx="9" fill="#3CCB93" stroke="#3CCB93" stroke-width="2"/>
<path d="M63.8738 29.0328H59.7743L59.7522 27.0106H63.3324C63.9364 27.0106 64.4484 26.9222 64.8683 26.7454C65.2956 26.5612 65.6197 26.2997 65.8407 25.9608C66.0617 25.6146 66.1722 25.1984 66.1722 24.7122C66.1722 24.1744 66.0691 23.7361 65.8628 23.3972C65.6566 23.0584 65.3398 22.8116 64.9125 22.6569C64.4926 22.5022 63.9549 22.4248 63.2992 22.4248H60.6141V36.3037H57.8405V20.2148H63.2992C64.1832 20.2148 64.9715 20.2995 65.6639 20.469C66.3638 20.6384 66.9568 20.9036 67.443 21.2646C67.9366 21.6182 68.3086 22.0675 68.5591 22.6127C68.8169 23.1578 68.9458 23.8061 68.9458 24.5575C68.9458 25.2205 68.7874 25.8282 68.4707 26.3807C68.1539 26.9259 67.6861 27.3716 67.0673 27.7178C66.4485 28.064 65.6787 28.2703 64.7578 28.3366L63.8738 29.0328ZM63.7523 36.3037H58.9013L60.15 34.1047H63.7523C64.3785 34.1047 64.9015 34.0016 65.3214 33.7953C65.7413 33.5817 66.0544 33.2907 66.2606 32.9224C66.4743 32.5467 66.5811 32.1084 66.5811 31.6074C66.5811 31.0844 66.489 30.6313 66.3048 30.2483C66.1207 29.8578 65.8297 29.5595 65.4319 29.3532C65.0341 29.1396 64.5147 29.0328 63.8738 29.0328H60.7577L60.7798 27.0106H64.8352L65.465 27.7731C66.349 27.8025 67.0747 27.9977 67.6419 28.3587C68.2165 28.7197 68.6438 29.1875 68.9237 29.7621C69.2037 30.3367 69.3436 30.9555 69.3436 31.6185C69.3436 32.6425 69.1189 33.5007 68.6696 34.1931C68.2276 34.8856 67.5903 35.4123 66.7579 35.7733C65.9255 36.1269 64.9236 36.3037 63.7523 36.3037ZM78.6146 33.9058V28.204C78.6146 27.7767 78.5373 27.4084 78.3826 27.099C78.2279 26.7896 77.9921 26.5502 77.6754 26.3807C77.366 26.2113 76.9755 26.1266 76.5041 26.1266C76.0694 26.1266 75.6937 26.2003 75.377 26.3476C75.0602 26.4949 74.8134 26.6938 74.6366 26.9443C74.4598 27.1948 74.3714 27.4784 74.3714 27.7952H71.7194C71.7194 27.3237 71.8336 26.8669 72.0619 26.4249C72.2903 25.9829 72.6218 25.5888 73.0564 25.2426C73.4911 24.8963 74.0104 24.6238 74.6145 24.4249C75.2186 24.226 75.8963 24.1265 76.6477 24.1265C77.5465 24.1265 78.3421 24.2775 79.0345 24.5796C79.7344 24.8816 80.2832 25.3384 80.681 25.9498C81.0862 26.5539 81.2888 27.3126 81.2888 28.2261V33.5412C81.2888 34.0863 81.3256 34.5762 81.3993 35.0109C81.4803 35.4381 81.5945 35.8101 81.7418 36.1269V36.3037H79.0124C78.8872 36.0164 78.7878 35.6518 78.7141 35.2098C78.6478 34.7604 78.6146 34.3257 78.6146 33.9058ZM79.0014 29.0328L79.0235 30.6792H77.1118C76.6183 30.6792 76.1836 30.7271 75.8079 30.8229C75.4322 30.9113 75.1191 31.0439 74.8687 31.2207C74.6182 31.3975 74.4303 31.6111 74.3051 31.8616C74.1799 32.112 74.1173 32.3957 74.1173 32.7124C74.1173 33.0292 74.1909 33.3202 74.3383 33.5854C74.4856 33.8432 74.6992 34.0458 74.9792 34.1931C75.2665 34.3405 75.6127 34.4141 76.0179 34.4141C76.563 34.4141 77.0382 34.3036 77.4433 34.0826C77.8559 33.8543 78.18 33.578 78.4157 33.2539C78.6515 32.9224 78.7767 32.6093 78.7914 32.3146L79.6533 33.497C79.5649 33.799 79.4139 34.1232 79.2003 34.4694C78.9867 34.8156 78.7067 35.1471 78.3605 35.4639C78.0216 35.7733 77.6128 36.0275 77.1339 36.2264C76.6625 36.4253 76.1173 36.5247 75.4985 36.5247C74.7176 36.5247 74.0215 36.37 73.41 36.0606C72.7986 35.7438 72.3198 35.3203 71.9735 34.7899C71.6273 34.2521 71.4542 33.6443 71.4542 32.9666C71.4542 32.333 71.5721 31.7732 71.8078 31.287C72.0509 30.7934 72.4045 30.3809 72.8686 30.0494C73.3401 29.7179 73.9147 29.4674 74.5924 29.298C75.2701 29.1212 76.0436 29.0328 76.9129 29.0328H79.0014ZM86.7143 26.9001V36.3037H84.0513V24.3475H86.5596L86.7143 26.9001ZM86.2392 29.8836L85.3773 29.8726C85.3846 29.0254 85.5025 28.2482 85.7309 27.541C85.9666 26.8338 86.2908 26.226 86.7033 25.7177C87.1232 25.2094 87.6241 24.819 88.2061 24.5464C88.7881 24.2665 89.4363 24.1265 90.1509 24.1265C90.7255 24.1265 91.2449 24.2076 91.709 24.3696C92.1804 24.5243 92.5819 24.7785 92.9134 25.1321C93.2523 25.4857 93.5101 25.9461 93.6869 26.5133C93.8637 27.0732 93.9521 27.762 93.9521 28.5797V36.3037H91.278V28.5687C91.278 27.9941 91.1933 27.541 91.0239 27.2095C90.8618 26.8706 90.6224 26.6312 90.3056 26.4912C89.9962 26.3439 89.6095 26.2702 89.1454 26.2702C88.6886 26.2702 88.2798 26.366 87.9188 26.5575C87.5578 26.7491 87.2521 27.0106 87.0016 27.3421C86.7585 27.6736 86.5707 28.0567 86.4381 28.4913C86.3055 28.9259 86.2392 29.39 86.2392 29.8836ZM99.3556 19.3308V36.3037H96.6815V19.3308H99.3556ZM106.781 24.3475L101.577 30.1157L98.7258 33.0329L98.0296 30.7787L100.184 28.1156L103.566 24.3475H106.781ZM104.14 36.3037L100.262 30.6903L101.941 28.8228L107.223 36.3037H104.14ZM111.323 24.3475V36.3037H108.649V24.3475H111.323ZM108.472 21.2093C108.472 20.8041 108.605 20.469 108.87 20.2037C109.142 19.9312 109.518 19.7949 109.997 19.7949C110.468 19.7949 110.84 19.9312 111.113 20.2037C111.385 20.469 111.522 20.8041 111.522 21.2093C111.522 21.6071 111.385 21.9386 111.113 22.2038C110.84 22.469 110.468 22.6016 109.997 22.6016C109.518 22.6016 109.142 22.469 108.87 22.2038C108.605 21.9386 108.472 21.6071 108.472 21.2093ZM116.881 26.9001V36.3037H114.218V24.3475H116.726L116.881 26.9001ZM116.406 29.8836L115.544 29.8726C115.551 29.0254 115.669 28.2482 115.898 27.541C116.133 26.8338 116.457 26.226 116.87 25.7177C117.29 25.2094 117.791 24.819 118.373 24.5464C118.955 24.2665 119.603 24.1265 120.318 24.1265C120.892 24.1265 121.412 24.2076 121.876 24.3696C122.347 24.5243 122.749 24.7785 123.08 25.1321C123.419 25.4857 123.677 25.9461 123.854 26.5133C124.03 27.0732 124.119 27.762 124.119 28.5797V36.3037H121.445V28.5687C121.445 27.9941 121.36 27.541 121.191 27.2095C121.029 26.8706 120.789 26.6312 120.472 26.4912C120.163 26.3439 119.776 26.2702 119.312 26.2702C118.855 26.2702 118.446 26.366 118.086 26.5575C117.725 26.7491 117.419 27.0106 117.168 27.3421C116.925 27.6736 116.737 28.0567 116.605 28.4913C116.472 28.9259 116.406 29.39 116.406 29.8836ZM134.495 24.3475H136.915V35.9722C136.915 37.0477 136.686 37.9612 136.23 38.7126C135.773 39.464 135.136 40.035 134.318 40.4254C133.5 40.8232 132.554 41.0221 131.478 41.0221C131.021 41.0221 130.513 40.9558 129.953 40.8232C129.401 40.6906 128.863 40.477 128.34 40.1823C127.824 39.895 127.393 39.5156 127.047 39.0441L128.296 37.475C128.723 37.9833 129.195 38.3553 129.71 38.5911C130.226 38.8268 130.767 38.9447 131.335 38.9447C131.946 38.9447 132.465 38.8305 132.893 38.6021C133.327 38.3811 133.662 38.0533 133.898 37.6187C134.134 37.184 134.252 36.6536 134.252 36.0275V27.0548L134.495 24.3475ZM126.373 30.4582V30.2262C126.373 29.3201 126.484 28.495 126.705 27.751C126.926 26.9995 127.242 26.355 127.655 25.8172C128.067 25.2721 128.568 24.8558 129.158 24.5685C129.747 24.2739 130.414 24.1265 131.158 24.1265C131.931 24.1265 132.591 24.2665 133.136 24.5464C133.688 24.8264 134.149 25.2279 134.517 25.7509C134.885 26.2666 135.173 26.8854 135.379 27.6073C135.593 28.3219 135.751 29.1175 135.854 29.9941V30.7345C135.758 31.589 135.596 32.3699 135.368 33.0771C135.139 33.7843 134.837 34.3957 134.462 34.9114C134.086 35.4271 133.622 35.8249 133.069 36.1048C132.524 36.3847 131.88 36.5247 131.136 36.5247C130.406 36.5247 129.747 36.3737 129.158 36.0717C128.576 35.7696 128.075 35.346 127.655 34.8009C127.242 34.2558 126.926 33.6149 126.705 32.8782C126.484 32.1341 126.373 31.3275 126.373 30.4582ZM129.036 30.2262V30.4582C129.036 31.0034 129.088 31.5117 129.191 31.9831C129.301 32.4546 129.467 32.8708 129.688 33.2318C129.916 33.5854 130.204 33.8653 130.55 34.0716C130.904 34.2705 131.32 34.3699 131.799 34.3699C132.425 34.3699 132.937 34.2373 133.335 33.9721C133.74 33.7069 134.049 33.3497 134.263 32.9003C134.484 32.4436 134.639 31.9352 134.727 31.3754V29.3753C134.683 28.9407 134.591 28.5355 134.451 28.1598C134.318 27.7841 134.138 27.4563 133.909 27.1763C133.681 26.889 133.394 26.668 133.047 26.5133C132.701 26.3513 132.292 26.2702 131.821 26.2702C131.342 26.2702 130.926 26.3734 130.572 26.5796C130.218 26.7859 129.928 27.0695 129.699 27.4305C129.478 27.7915 129.312 28.2114 129.202 28.6902C129.091 29.169 129.036 29.681 129.036 30.2262Z" fill="white"/>
<path d="M33.0619 30.6407C33.0619 33.9814 33.0577 37.3228 33.0694 40.6635C33.0702 40.9425 32.998 41.0006 32.7289 40.9998C29.6889 40.989 26.6488 40.9931 23.6088 40.9931C22.4006 40.9931 21.7462 40.3371 21.7462 39.1264C21.7454 32.9426 21.7479 26.7587 21.7388 20.5748C21.7388 20.2966 21.8085 20.231 22.0809 20.2352C23.1496 20.2526 24.2183 20.251 25.287 20.236C25.5411 20.2327 25.5901 20.3141 25.5868 20.5482C25.5727 21.3778 25.581 22.2082 25.5818 23.0386C25.5818 23.4197 25.7263 23.6231 25.9887 23.6157C26.2486 23.6082 26.3839 23.4056 26.3839 23.0203C26.3848 22.1799 26.3906 21.3396 26.3798 20.4992C26.3773 20.2983 26.4271 20.2327 26.6355 20.2385C27.216 20.2526 27.7981 20.2518 28.3785 20.2393C28.5795 20.2352 28.6409 20.2883 28.6376 20.4968C28.6251 21.3579 28.6318 22.219 28.6326 23.0801C28.6335 23.4189 28.7705 23.6065 29.0171 23.6148C29.2753 23.624 29.4331 23.4239 29.4339 23.0734C29.4364 22.243 29.4447 21.4135 29.429 20.5831C29.424 20.3257 29.4663 20.2285 29.7586 20.2352C30.7543 20.2576 31.7507 20.2534 32.7463 20.2368C33.0046 20.2327 33.0702 20.2958 33.0694 20.5574C33.0586 23.9171 33.0619 27.2785 33.0619 30.6407ZM24.3902 32.3447C24.3902 33.3303 24.3869 34.316 24.391 35.3017C24.3943 36.0183 24.8344 36.5282 25.5444 36.5439C26.8506 36.5722 28.1593 36.573 29.4655 36.5439C30.1705 36.5282 30.6222 36.0075 30.6239 35.2992C30.6272 33.3486 30.6272 31.398 30.6239 29.4466C30.6231 28.6877 30.1149 28.1811 29.3542 28.1786C28.1194 28.1745 26.8847 28.1745 25.6499 28.1786C24.8834 28.1811 24.3927 28.6777 24.3902 29.4491C24.3877 30.4149 24.3902 31.3798 24.3902 32.3447Z" fill="white"/>
<path d="M30.4331 15.2406C34.4912 15.2406 38.5485 15.2398 42.6066 15.2414C43.735 15.2423 44.5638 15.8651 44.7938 16.8906C44.8361 17.0799 44.8395 17.2817 44.8395 17.4777C44.8428 19.0554 44.8436 20.6323 44.8411 22.21C44.8386 23.5735 43.9676 24.4371 42.6007 24.4388C41.7911 24.4396 40.9815 24.433 40.1727 24.4429C39.9825 24.4454 39.9261 24.3948 39.9277 24.2013C39.936 22.9557 39.9352 21.711 39.9286 20.4654C39.9277 20.2844 39.9867 20.2321 40.1602 20.2395C40.4401 20.2512 40.7207 20.2453 41.0006 20.242C41.2588 20.2387 41.4482 20.1382 41.4664 19.8517C41.4822 19.5976 41.3087 19.4498 40.9906 19.4473C40.3263 19.4424 39.662 19.4457 38.9977 19.4457C32.7084 19.4457 26.4199 19.4457 20.1305 19.4457C20.0168 19.4457 19.9013 19.4415 19.7884 19.4515C19.5584 19.4723 19.4264 19.6043 19.4214 19.8343C19.4164 20.0668 19.5501 20.213 19.776 20.2287C20.0857 20.2503 20.3979 20.2503 20.7093 20.2387C20.8945 20.2321 20.9609 20.2794 20.9593 20.4787C20.9501 21.7243 20.9518 22.969 20.9584 24.2146C20.9593 24.3898 20.9103 24.4438 20.7317 24.4421C19.8499 24.433 18.9672 24.4496 18.0853 24.4346C16.9659 24.4155 16.0641 23.532 16.0525 22.4143C16.0334 20.7021 16.0334 18.9898 16.0517 17.2775C16.0641 16.11 16.9834 15.2506 18.1999 15.2431C19.8291 15.234 21.4583 15.2406 23.0875 15.2406C25.5347 15.2398 27.9835 15.2406 30.4331 15.2406Z" fill="white"/>
<path d="M33.8665 30.6388C33.8665 27.2766 33.8698 23.9143 33.8599 20.5521C33.859 20.2864 33.9313 20.2332 34.1845 20.2349C35.7307 20.2474 37.2769 20.2449 38.8231 20.2374C39.0456 20.2366 39.1453 20.2623 39.1453 20.5322C39.1361 26.7584 39.1395 32.9855 39.137 39.2117C39.1361 40.3153 38.4519 40.9895 37.3442 40.992C36.2854 40.9945 35.2267 40.9845 34.1688 40.9987C33.928 41.002 33.8607 40.9439 33.8607 40.6956C33.869 37.3433 33.8665 33.991 33.8665 30.6388Z" fill="white"/>
<path d="M24.3907 32.3451C24.3907 31.3802 24.3882 30.4153 24.3916 29.4504C24.3941 28.6789 24.8848 28.1824 25.6513 28.1799C26.886 28.1757 28.1208 28.1757 29.3556 28.1799C30.1154 28.1824 30.6236 28.6889 30.6253 29.4479C30.6286 31.3984 30.6286 33.349 30.6253 35.3004C30.6236 36.0079 30.1719 36.5294 29.4669 36.5452C28.1607 36.5742 26.852 36.5734 25.5458 36.5452C24.8358 36.5294 24.3949 36.0195 24.3924 35.3029C24.3874 34.3172 24.3907 33.3307 24.3907 32.3451ZM26.201 32.3575C26.201 31.3204 26.2026 30.2832 26.1985 29.2469C26.1985 29.1622 26.25 29.0534 26.1462 28.9928C25.7451 28.7603 25.1879 29.0717 25.1879 29.5326C25.1854 31.0671 25.1871 32.6025 25.1871 34.1371C25.1871 34.4999 25.1838 34.8628 25.1879 35.2257C25.1929 35.6334 25.3199 35.7546 25.736 35.7605C25.7982 35.7613 25.8622 35.7513 25.922 35.7621C26.1669 35.8053 26.2093 35.6915 26.2068 35.4682C26.1943 34.4318 26.201 33.3947 26.201 32.3575ZM28.4115 32.9853C28.8051 32.9853 29.1995 32.972 29.5923 32.9903C29.7949 32.9994 29.8364 32.9288 29.8256 32.7453C29.8107 32.4871 29.8082 32.2272 29.8264 31.9689C29.8405 31.7696 29.7691 31.7298 29.5823 31.7323C28.8059 31.7431 28.0286 31.7414 27.2522 31.7331C27.0745 31.7314 26.9857 31.758 27.0006 31.9648C27.0189 32.233 27.0172 32.5037 27.0015 32.7719C26.9898 32.9596 27.0671 32.9928 27.2323 32.9878C27.6243 32.9787 28.0179 32.9853 28.4115 32.9853ZM28.0112 34.8113C28.0112 34.7283 28.0112 34.6461 28.0112 34.563C28.0112 33.7684 28.0112 33.7733 27.2282 33.785C27.0596 33.7875 26.9907 33.8232 26.999 34.0058C27.0131 34.3363 27.0031 34.6677 27.0031 34.999C27.0031 35.8244 27.0031 35.8202 27.8352 35.7654C27.9672 35.7571 28.0179 35.7239 28.0137 35.5877C28.0054 35.3295 28.0112 35.0704 28.0112 34.8113ZM28.8159 34.7806C28.8159 34.9467 28.8159 35.1128 28.8159 35.278C28.8159 35.7746 28.8159 35.7746 29.3074 35.7605C29.6894 35.7497 29.819 35.6151 29.8223 35.224C29.8239 35.0065 29.8223 34.7881 29.8223 34.5705C29.8223 33.7509 29.8223 33.7576 29.0118 33.7833C28.8374 33.7891 28.8067 33.8514 28.8125 34.0017C28.8225 34.2616 28.8159 34.5215 28.8159 34.7806ZM28.0112 29.9685C28.0112 29.8963 28.0112 29.8232 28.0112 29.751C28.0112 28.9397 28.0112 28.9447 27.1883 28.9804C27.0355 28.987 26.999 29.0318 27.0006 29.1763C27.0081 29.7045 27.0073 30.2334 27.0015 30.7624C26.9998 30.8936 27.0363 30.9343 27.1742 30.9434C28.0112 30.9982 28.0112 31.0023 28.0112 30.1861C28.0112 30.113 28.0112 30.0408 28.0112 29.9685ZM28.8159 29.9469C28.8225 29.9469 28.8291 29.9469 28.835 29.9469C28.835 30.2658 28.7411 30.6312 28.869 30.8869C28.9512 31.0513 29.3639 30.9218 29.628 30.9392C29.6379 30.9401 29.6487 30.9384 29.6587 30.9392C29.7733 30.9534 29.8256 30.9168 29.8239 30.7881C29.8173 30.3123 29.8239 29.8365 29.8173 29.3607C29.8148 29.1747 29.7052 29.0294 29.5292 29.0044C29.3074 28.9737 29.0525 28.9372 28.8615 29.0194C28.7353 29.0742 28.8283 29.3407 28.8175 29.5126C28.8084 29.6571 28.8159 29.8024 28.8159 29.9469Z" fill="#F9F9F9"/>
<path d="M26.201 32.3576C26.201 33.3947 26.1944 34.4319 26.206 35.4682C26.2085 35.6916 26.1662 35.8053 25.9212 35.7621C25.8606 35.7513 25.7966 35.7613 25.7352 35.7605C25.3192 35.7538 25.1921 35.6334 25.1871 35.2257C25.183 34.8628 25.1863 34.5 25.1863 34.1371C25.1863 32.6025 25.1847 31.0671 25.1871 29.5326C25.188 29.0717 25.7452 28.7595 26.1454 28.9928C26.25 29.0535 26.1977 29.1622 26.1977 29.2469C26.2027 30.2841 26.201 31.3212 26.201 32.3576Z" fill="#3CCB93"/>
<path d="M28.4115 32.9847C28.0179 32.9847 27.6243 32.9773 27.2307 32.9881C27.0655 32.9922 26.9882 32.9598 26.9999 32.7722C27.0156 32.504 27.0181 32.2332 26.999 31.965C26.9849 31.7574 27.0729 31.7309 27.2506 31.7334C28.027 31.7425 28.8043 31.7433 29.5807 31.7325C29.7675 31.73 29.8389 31.7707 29.8248 31.9692C29.8066 32.2266 29.809 32.4873 29.824 32.7456C29.8348 32.9291 29.7933 32.9997 29.5907 32.9906C29.1987 32.9723 28.8051 32.9847 28.4115 32.9847Z" fill="#3CCB93"/>
<path d="M28.0108 34.811C28.0108 35.0692 28.005 35.3283 28.0133 35.5866C28.0175 35.7227 27.9668 35.756 27.8348 35.7643C27.0027 35.8191 27.0028 35.8232 27.0028 34.9978C27.0028 34.6665 27.0127 34.3352 26.9986 34.0047C26.9911 33.822 27.0592 33.7863 27.2278 33.7838C28.0108 33.7722 28.0108 33.7672 28.0108 34.5619C28.0108 34.6457 28.0108 34.7288 28.0108 34.811Z" fill="#3CCB93"/>
<path d="M28.8156 34.7799C28.8156 34.5208 28.8223 34.2609 28.8131 34.0019C28.8073 33.8507 28.8381 33.7885 29.0124 33.7835C29.8229 33.7577 29.8229 33.7511 29.8229 34.5707C29.8229 34.7882 29.8246 35.0066 29.8229 35.2242C29.8196 35.6161 29.69 35.7498 29.3081 35.7606C28.8165 35.7747 28.8165 35.7747 28.8165 35.2782C28.8156 35.1121 28.8156 34.946 28.8156 34.7799Z" fill="#3CCB93"/>
<path d="M28.0112 29.9677C28.0112 30.04 28.0112 30.113 28.0112 30.1853C28.0112 31.0015 28.0112 30.9974 27.1742 30.9426C27.0363 30.9334 26.9998 30.8928 27.0014 30.7616C27.0072 30.2334 27.0089 29.7045 27.0006 29.1755C26.9981 29.031 27.0355 28.9862 27.1883 28.9796C28.0112 28.9438 28.0112 28.938 28.0112 29.7502C28.0112 29.8224 28.0112 29.8946 28.0112 29.9677Z" fill="#3CCB93"/>
<path d="M28.8157 29.9465C28.8157 29.802 28.8083 29.6567 28.8174 29.5122C28.8282 29.3411 28.7352 29.0738 28.8614 29.0189C29.0524 28.9367 29.3073 28.9733 29.529 29.004C29.7051 29.0289 29.8147 29.1734 29.8172 29.3602C29.8238 29.836 29.8163 30.3119 29.8238 30.7877C29.8255 30.9164 29.7732 30.9529 29.6586 30.9388C29.6486 30.9371 29.6378 30.9396 29.6278 30.9388C29.3638 30.9214 28.9511 31.0509 28.8689 30.8865C28.741 30.6316 28.8348 30.2654 28.8348 29.9465C28.829 29.9465 28.8224 29.9465 28.8157 29.9465Z" fill="#3CCB93"/>
<path d="M245.093 20.3037L243 22.4187L249.799 29.3037L243 36.1887L245.093 38.3037L254 29.3037L245.093 20.3037Z" fill="white"/>
</svg>
