<svg width="214" height="55" viewBox="0 0 214 55" fill="none" xmlns="http://www.w3.org/2000/svg">
<path d="M93.8584 20.0703L88.4613 35.3339H83.8232L78.3418 20.0703H82.5583L85.3411 29.3465L86.1844 32.3824L87.0277 29.4309L89.8949 20.1546H93.8584V20.0703Z" fill="#3CCB93"/>
<path d="M99.7614 35.5868C98.4964 35.5868 97.4001 35.3338 96.4725 34.8278C95.5449 34.3218 94.786 33.6472 94.28 32.8039C93.774 31.8763 93.521 30.8643 93.521 29.5151C93.521 28.2501 93.774 27.1538 94.28 26.2262C94.786 25.2986 95.4606 24.624 96.3882 24.2023C97.3158 23.6963 98.3278 23.4434 99.5084 23.4434C100.689 23.4434 101.785 23.6963 102.629 24.118C103.472 24.624 104.146 25.2143 104.568 26.0576C104.99 26.9009 105.243 27.8285 105.243 28.9248C105.243 29.1777 105.243 29.5151 105.243 29.768C105.243 30.021 105.243 30.274 105.158 30.4427H95.9666V28.3344H103.388L101.448 29.0934C101.448 28.1658 101.279 27.4912 100.942 26.9852C100.605 26.4792 100.099 26.2262 99.424 26.2262C98.9181 26.2262 98.4964 26.3106 98.1591 26.5635C97.8218 26.8165 97.5688 27.1538 97.4001 27.6598C97.2315 28.1658 97.1472 28.7561 97.1472 29.5151C97.1472 30.274 97.2315 30.8643 97.4845 31.3703C97.6531 31.7919 97.9905 32.2136 98.3278 32.3823C98.6651 32.6352 99.1711 32.7196 99.677 32.7196C100.267 32.7196 100.689 32.6352 101.111 32.3823C101.448 32.1293 101.701 31.7919 101.87 31.3703L104.99 32.4666C104.737 33.1412 104.399 33.6472 103.893 34.1532C103.388 34.5748 102.713 34.9121 102.038 35.1651C101.364 35.5024 100.52 35.5868 99.7614 35.5868Z" fill="#3CCB93"/>
<path d="M107.52 35.3339V23.7808H110.977L111.146 26.3107C111.399 25.4674 111.905 24.7928 112.495 24.2868C113.085 23.7808 113.844 23.5278 114.688 23.5278C114.94 23.5278 115.193 23.5278 115.446 23.6122C115.615 23.6965 115.784 23.6965 115.952 23.7808L115.531 26.9853C115.362 26.901 115.193 26.901 114.941 26.8167C114.688 26.8167 114.435 26.7323 114.097 26.7323C113.676 26.7323 113.17 26.8167 112.832 27.0696C112.411 27.2383 112.073 27.5756 111.905 27.9973C111.652 28.4189 111.567 28.9249 111.567 29.5152V35.3339H107.52Z" fill="#3CCB93"/>
<path d="M121.603 35.2499C120.675 35.2499 119.832 34.9969 119.073 34.5753C118.314 34.0693 117.808 33.3947 117.386 32.5514C116.965 31.6238 116.796 30.6118 116.796 29.3469C116.796 28.0819 116.965 26.9856 117.386 26.058C117.808 25.1304 118.398 24.4558 119.073 24.0341C119.832 23.5282 120.675 23.2752 121.603 23.2752C122.615 23.2752 123.458 23.6125 124.133 24.2028C124.807 24.8774 125.144 25.6364 125.397 26.6483L125.06 27.1543V18.5527H129.024V35.0813H125.482L125.229 31.1178L125.65 31.4551C125.566 32.214 125.313 32.8887 124.976 33.479C124.639 34.0693 124.133 34.4909 123.542 34.8282C122.952 35.0812 122.362 35.2499 121.603 35.2499ZM122.952 32.3827C123.374 32.3827 123.795 32.2984 124.133 32.0454C124.47 31.7924 124.723 31.4551 124.892 30.9491C125.06 30.4431 125.144 29.8528 125.144 29.1782C125.144 28.5036 125.06 27.9976 124.892 27.4916C124.723 27.07 124.47 26.6483 124.133 26.4797C123.795 26.2267 123.458 26.1424 122.952 26.1424C122.277 26.1424 121.771 26.3953 121.35 26.9013C120.928 27.4073 120.759 28.1662 120.759 29.2625C120.759 30.3588 120.928 31.1178 121.35 31.6238C121.771 32.1297 122.277 32.3827 122.952 32.3827Z" fill="#3CCB93"/>
<path d="M137.457 35.2503C136.192 35.2503 135.095 34.9973 134.168 34.4914C133.24 33.9854 132.481 33.3108 131.975 32.4675C131.469 31.5399 131.216 30.5279 131.216 29.1786C131.216 27.9137 131.469 26.8174 131.975 25.8898C132.481 24.9622 133.156 24.2875 134.083 23.8659C135.011 23.3599 136.023 23.1069 137.204 23.1069C138.384 23.1069 139.481 23.3599 140.324 23.7816C141.167 24.2875 141.842 24.8779 142.263 25.7211C142.685 26.5644 142.938 27.492 142.938 28.5883C142.938 28.8413 142.938 29.1786 142.938 29.4316C142.938 29.6846 142.938 29.9376 142.854 30.1062H133.662V27.998H141.083L139.143 28.757C139.143 27.8294 138.975 27.1547 138.637 26.6488C138.3 26.1428 137.794 25.8898 137.119 25.8898C136.613 25.8898 136.192 25.9741 135.854 26.2271C135.517 26.4801 135.264 26.8174 135.095 27.3234C134.927 27.8294 134.842 28.4197 134.842 29.1786C134.842 29.9376 134.927 30.5279 135.18 31.0339C135.348 31.4555 135.686 31.8772 136.023 32.0458C136.36 32.2988 136.866 32.3831 137.372 32.3831C137.963 32.3831 138.384 32.2988 138.806 32.0458C139.143 31.7928 139.396 31.4555 139.565 31.0339L142.685 32.1302C142.432 32.8048 142.095 33.3108 141.589 33.8167C141.083 34.2384 140.408 34.5757 139.734 34.8287C139.059 35.166 138.3 35.2503 137.457 35.2503Z" fill="#3CCB93"/>
<path d="M145.468 35.3339V20.0703H152.889C154.744 20.0703 156.178 20.4076 157.021 21.1666C157.948 21.8412 158.37 22.8532 158.37 24.2024C158.37 25.0457 158.117 25.8047 157.611 26.395C157.105 26.9853 156.346 27.4069 155.25 27.5756C156.431 27.7443 157.274 28.1659 157.864 28.7562C158.454 29.4308 158.707 30.1898 158.707 31.1174C158.707 32.4667 158.286 33.4787 157.358 34.1533C156.431 34.9123 155.081 35.2496 153.226 35.2496H145.468V35.3339ZM149.347 26.3107H152.214C153.648 26.3107 154.322 25.7204 154.322 24.6241C154.322 23.5278 153.648 22.9375 152.214 22.9375H149.347V26.3107ZM149.347 32.551H152.636C153.395 32.551 153.901 32.3824 154.238 32.1294C154.575 31.8764 154.744 31.3704 154.744 30.8644C154.744 30.3585 154.575 29.9368 154.238 29.5995C153.901 29.3465 153.31 29.1778 152.636 29.1778H149.347V32.551Z" fill="white"/>
<path d="M166.55 23.5278C167.731 23.5278 168.827 23.7808 169.755 24.2025C170.682 24.7084 171.357 25.3831 171.947 26.2263C172.453 27.154 172.706 28.2503 172.706 29.5152C172.706 30.7801 172.453 31.8764 171.947 32.804C171.441 33.7317 170.682 34.4063 169.755 34.8279C168.827 35.3339 167.731 35.5026 166.55 35.5026C165.369 35.5026 164.273 35.2496 163.346 34.8279C162.418 34.322 161.659 33.6473 161.153 32.804C160.647 31.9607 160.394 30.7801 160.394 29.5152C160.394 28.2503 160.647 27.154 161.153 26.2263C161.659 25.2987 162.418 24.6241 163.346 24.2025C164.273 23.7808 165.369 23.5278 166.55 23.5278ZM166.55 26.3107C166.128 26.3107 165.707 26.395 165.369 26.648C165.032 26.901 164.779 27.2383 164.611 27.66C164.442 28.1659 164.357 28.7562 164.357 29.5152C164.357 30.2742 164.442 30.8645 164.611 31.3704C164.779 31.8764 165.032 32.2137 165.369 32.3824C165.707 32.6354 166.044 32.7197 166.55 32.7197C166.972 32.7197 167.393 32.6354 167.731 32.3824C168.068 32.1294 168.321 31.7921 168.49 31.3704C168.658 30.8645 168.743 30.2742 168.743 29.5152C168.743 28.7562 168.658 28.1659 168.49 27.66C168.321 27.154 168.068 26.8167 167.731 26.648C167.393 26.4793 166.972 26.3107 166.55 26.3107Z" fill="white"/>
<path d="M180.38 23.5278C181.561 23.5278 182.657 23.7808 183.585 24.2025C184.512 24.7084 185.187 25.3831 185.777 26.2263C186.283 27.154 186.536 28.2503 186.536 29.5152C186.536 30.7801 186.283 31.8764 185.777 32.804C185.271 33.7317 184.512 34.4063 183.585 34.8279C182.657 35.3339 181.561 35.5026 180.38 35.5026C179.2 35.5026 178.103 35.2496 177.176 34.8279C176.248 34.322 175.489 33.6473 174.983 32.804C174.477 31.9607 174.224 30.7801 174.224 29.5152C174.224 28.2503 174.477 27.154 174.983 26.2263C175.489 25.2987 176.248 24.6241 177.176 24.2025C178.188 23.7808 179.2 23.5278 180.38 23.5278ZM180.38 26.3107C179.958 26.3107 179.537 26.395 179.2 26.648C178.862 26.901 178.609 27.2383 178.441 27.66C178.272 28.1659 178.188 28.7562 178.188 29.5152C178.188 30.2742 178.272 30.8645 178.441 31.3704C178.609 31.8764 178.862 32.2137 179.2 32.3824C179.537 32.6354 179.874 32.7197 180.38 32.7197C180.802 32.7197 181.223 32.6354 181.561 32.3824C181.898 32.1294 182.151 31.7921 182.32 31.3704C182.488 30.8645 182.573 30.2742 182.573 29.5152C182.573 28.7562 182.488 28.1659 182.32 27.66C182.151 27.154 181.898 26.8167 181.561 26.648C181.308 26.4793 180.886 26.3107 180.38 26.3107Z" fill="white"/>
<path d="M192.692 18.8901V35.4187H188.729V18.8901H192.692ZM201.462 23.7812L195.896 29.6843L195.138 29.8529L191.849 33.5634V29.5156L197.077 23.6969H201.462V23.7812ZM196.571 27.2387L201.8 35.3343H197.414L193.957 29.5156L196.571 27.2387Z" fill="white"/>
<path d="M207.956 35.5869C206.775 35.5869 205.763 35.4182 204.751 34.9966C203.739 34.6593 202.896 34.069 202.221 33.3943L204.076 31.2018C204.498 31.7078 205.004 32.1294 205.594 32.4667C206.269 32.804 206.944 32.9727 207.703 32.9727C208.209 32.9727 208.63 32.8884 208.883 32.804C209.22 32.6354 209.305 32.4667 209.305 32.1294C209.305 31.8764 209.22 31.7078 209.052 31.6234C208.883 31.4548 208.63 31.3704 208.124 31.2861L206.522 30.9488C205.088 30.6958 203.992 30.1898 203.402 29.5995C202.811 29.0092 202.474 28.2503 202.474 27.3226C202.474 26.648 202.643 26.0577 203.064 25.5517C203.486 24.9614 204.076 24.5398 204.835 24.1181C205.679 23.7808 206.691 23.5278 207.871 23.5278C209.052 23.5278 210.064 23.6965 210.991 24.0338C211.919 24.3711 212.594 24.8771 213.184 25.5517L211.244 27.66C210.907 27.154 210.401 26.8167 209.811 26.5637C209.221 26.3107 208.63 26.142 208.04 26.142C207.703 26.142 207.365 26.142 207.112 26.2263C206.859 26.3107 206.691 26.395 206.522 26.5637C206.438 26.7323 206.353 26.8167 206.353 26.9853C206.353 27.154 206.438 27.3226 206.606 27.4913C206.775 27.6599 207.197 27.7443 207.703 27.9129L209.811 28.3346C210.991 28.5876 211.835 28.9249 212.341 29.5152C212.847 30.1055 213.1 30.7801 213.1 31.6234C213.1 32.3824 212.931 33.057 212.509 33.6473C212.088 34.2376 211.497 34.7436 210.738 35.0809C210.148 35.4182 209.136 35.5869 207.956 35.5869Z" fill="white"/>
<path d="M24.2868 40.5621C25.6361 37.7792 26.9853 35.165 28.2503 32.4665C29.5995 29.6836 30.9488 26.8164 32.3824 24.0336C36.5988 15.938 45.6221 11.5529 54.7296 13.0708C63.5842 14.5887 70.4992 21.7567 71.7641 30.6956C73.535 42.9233 63.6685 54.4764 50.8505 54.3077C44.6945 54.2234 39.6347 51.9465 35.4182 47.4771C34.8279 46.8024 34.6593 46.2965 35.0809 45.4532C36.5989 42.4173 37.9481 39.2971 39.3817 36.2613C39.5504 35.924 39.719 35.671 39.972 35.165C40.3937 36.2613 40.6467 37.1889 41.1526 38.1165C43.2609 42.1643 46.634 44.3569 51.1878 44.2726C55.6572 44.1882 59.0304 41.9957 60.97 37.8635C63.4155 32.6351 61.1386 26.3948 55.9945 23.7806C50.7661 21.1664 44.2728 23.0216 41.49 28.1657C40.3093 30.2739 39.3817 32.5508 38.3698 34.8277C35.4182 41.068 32.4667 47.3927 29.5152 53.6331C29.3465 53.9704 28.8406 54.2234 28.4189 54.2234C25.5517 54.3077 22.7689 54.3077 19.9017 54.2234C19.48 54.2234 18.8897 53.7174 18.7211 53.2114C16.2755 47.983 13.9143 42.7546 11.4688 37.5262C7.92695 29.768 4.38512 22.094 0.843291 14.3357C0.590304 13.8297 0.421646 13.3238 0 12.4805C3.03585 12.6491 5.90306 12.5648 8.68592 13.0708C10.7941 13.4081 12.2277 15.0103 13.1554 16.9499C15.0106 20.9977 16.9502 24.9612 18.8054 29.009C20.4077 32.4665 22.0942 35.924 23.6965 39.4658C23.8652 39.8874 24.0338 40.1404 24.2868 40.5621Z" fill="white"/>
<path d="M30.1899 24.6241C30.1899 16.2755 30.1899 8.17993 30.1899 0C32.5512 0 34.575 0.674633 36.346 2.10823C38.7915 4.13213 39.9721 6.74632 40.1408 9.95083C40.3094 12.4807 39.8878 14.2516 37.4422 15.6852C34.575 17.2875 32.5512 20.0703 31.0332 23.0218C30.7802 23.5278 30.6116 23.9495 30.1899 24.6241Z" fill="#3CCB93"/>
</svg>
