<svg width="123" height="41" viewBox="0 0 123 41" fill="none" xmlns="http://www.w3.org/2000/svg">
<g filter="url(#filter0_i_544_2368)">
<rect width="122.357" height="40.7856" rx="8.15712" fill="#241F35"/>
</g>
<path d="M37.8076 23.2861V25H32.439V23.2861H37.8076ZM33.1494 14.3359V25H30.9521V14.3359H33.1494ZM42.583 25.1465C41.9678 25.1465 41.416 25.0488 40.9277 24.8535C40.4395 24.6533 40.0244 24.3774 39.6826 24.0259C39.3457 23.6743 39.0869 23.2666 38.9062 22.8027C38.7256 22.334 38.6353 21.8359 38.6353 21.3086V21.0156C38.6353 20.415 38.7207 19.8657 38.8916 19.3677C39.0625 18.8696 39.3066 18.4375 39.624 18.0713C39.9463 17.7051 40.3369 17.4243 40.7959 17.229C41.2549 17.0288 41.7725 16.9287 42.3486 16.9287C42.9102 16.9287 43.4082 17.0215 43.8428 17.207C44.2773 17.3926 44.6411 17.6562 44.9341 17.998C45.2319 18.3398 45.4565 18.75 45.6079 19.2285C45.7593 19.7021 45.835 20.2295 45.835 20.8105V21.6895H39.5361V20.2832H43.7622V20.1221C43.7622 19.8291 43.7085 19.5679 43.6011 19.3384C43.4985 19.104 43.3423 18.9185 43.1323 18.7817C42.9224 18.645 42.6538 18.5767 42.3267 18.5767C42.0483 18.5767 41.8091 18.6377 41.6089 18.7598C41.4087 18.8818 41.2451 19.0527 41.1182 19.2725C40.9961 19.4922 40.9033 19.751 40.8398 20.0488C40.7812 20.3418 40.752 20.6641 40.752 21.0156V21.3086C40.752 21.626 40.7959 21.9189 40.8838 22.1875C40.9766 22.4561 41.106 22.688 41.272 22.8833C41.4429 23.0786 41.6479 23.23 41.8872 23.3374C42.1313 23.4448 42.4072 23.4985 42.7148 23.4985C43.0957 23.4985 43.4497 23.4253 43.7769 23.2788C44.1089 23.1274 44.3945 22.9004 44.6338 22.5977L45.6592 23.7109C45.4932 23.9502 45.2661 24.1797 44.978 24.3994C44.6948 24.6191 44.353 24.7998 43.9526 24.9414C43.5522 25.0781 43.0957 25.1465 42.583 25.1465ZM50.918 17.0752V18.5693H46.3037V17.0752H50.918ZM47.4463 15.1196H49.5557V22.6123C49.5557 22.8418 49.585 23.0176 49.6436 23.1396C49.707 23.2617 49.7998 23.3472 49.9219 23.396C50.0439 23.4399 50.1978 23.4619 50.3833 23.4619C50.5151 23.4619 50.6323 23.457 50.7349 23.4473C50.8423 23.4326 50.9326 23.418 51.0059 23.4033L51.0132 24.9561C50.8325 25.0146 50.6372 25.061 50.4272 25.0952C50.2173 25.1294 49.9854 25.1465 49.7314 25.1465C49.2676 25.1465 48.8623 25.0708 48.5156 24.9194C48.1738 24.7632 47.9102 24.5142 47.7246 24.1724C47.5391 23.8306 47.4463 23.3813 47.4463 22.8247V15.1196ZM54.1626 13.75V14.8633C54.1626 15.1807 54.1016 15.5078 53.9795 15.8447C53.8623 16.1816 53.7036 16.5015 53.5034 16.8042C53.3032 17.1021 53.0835 17.356 52.8442 17.5659L51.8555 16.9946C52.0361 16.7065 52.1899 16.394 52.3169 16.0571C52.4438 15.7153 52.5073 15.3198 52.5073 14.8706V13.75H54.1626ZM58.5425 22.8101C58.5425 22.6587 58.4985 22.522 58.4106 22.3999C58.3228 22.2778 58.1592 22.1655 57.9199 22.063C57.6855 21.9556 57.3462 21.8579 56.9019 21.77C56.5015 21.6821 56.1279 21.5723 55.7812 21.4404C55.4395 21.3037 55.1416 21.1401 54.8877 20.9497C54.6387 20.7593 54.4434 20.5347 54.3018 20.2759C54.1602 20.0122 54.0894 19.7119 54.0894 19.375C54.0894 19.043 54.1602 18.7305 54.3018 18.4375C54.4482 18.1445 54.6558 17.8857 54.9243 17.6611C55.1978 17.4316 55.5298 17.2534 55.9204 17.1265C56.3159 16.9946 56.7603 16.9287 57.2534 16.9287C57.9419 16.9287 58.5327 17.0386 59.0259 17.2583C59.5239 17.478 59.9048 17.7808 60.1685 18.1665C60.437 18.5474 60.5713 18.9819 60.5713 19.4702H58.4619C58.4619 19.2651 58.418 19.082 58.3301 18.9209C58.2471 18.7549 58.1152 18.6255 57.9346 18.5327C57.7588 18.4351 57.5293 18.3862 57.2461 18.3862C57.0117 18.3862 56.8091 18.4277 56.6382 18.5107C56.4673 18.5889 56.3354 18.6963 56.2427 18.833C56.1548 18.9648 56.1108 19.1113 56.1108 19.2725C56.1108 19.3945 56.1353 19.5044 56.1841 19.6021C56.2378 19.6948 56.3232 19.7803 56.4404 19.8584C56.5576 19.9365 56.709 20.0098 56.8945 20.0781C57.085 20.1416 57.3193 20.2002 57.5977 20.2539C58.1689 20.3711 58.6792 20.5249 59.1284 20.7153C59.5776 20.9009 59.9341 21.1548 60.1978 21.4771C60.4614 21.7944 60.5933 22.2119 60.5933 22.7295C60.5933 23.0811 60.5151 23.4033 60.3589 23.6963C60.2026 23.9893 59.978 24.2456 59.6851 24.4653C59.3921 24.6802 59.0405 24.8486 58.6304 24.9707C58.2251 25.0879 57.7686 25.1465 57.2607 25.1465C56.5234 25.1465 55.8984 25.0146 55.3857 24.751C54.8779 24.4873 54.4922 24.1528 54.2285 23.7476C53.9697 23.3374 53.8403 22.9175 53.8403 22.4878H55.8398C55.8496 22.7759 55.9229 23.0078 56.0596 23.1836C56.2012 23.3594 56.3794 23.4863 56.5942 23.5645C56.814 23.6426 57.0508 23.6816 57.3047 23.6816C57.5781 23.6816 57.8052 23.645 57.9858 23.5718C58.1665 23.4937 58.3032 23.3911 58.396 23.2642C58.4937 23.1323 58.5425 22.981 58.5425 22.8101ZM65.8301 14.3359H69.8071C70.6226 14.3359 71.3232 14.458 71.9092 14.7021C72.5 14.9463 72.9541 15.3076 73.2715 15.7861C73.5889 16.2646 73.7476 16.853 73.7476 17.5513C73.7476 18.1226 73.6499 18.6133 73.4546 19.0234C73.2642 19.4287 72.9932 19.7681 72.6416 20.0415C72.2949 20.3101 71.8872 20.5249 71.4185 20.686L70.7227 21.0522H67.2656L67.251 19.3384H69.8218C70.2075 19.3384 70.5273 19.27 70.7812 19.1333C71.0352 18.9966 71.2256 18.8062 71.3525 18.562C71.4844 18.3179 71.5503 18.0347 71.5503 17.7124C71.5503 17.3706 71.4868 17.0752 71.3599 16.8262C71.2329 16.5771 71.04 16.3867 70.7812 16.2549C70.5225 16.123 70.1978 16.0571 69.8071 16.0571H68.0273V25H65.8301V14.3359ZM71.792 25L69.3604 20.2466L71.6821 20.2319L74.1431 24.8975V25H71.792ZM79.9951 23.103V17.0752H82.1045V25H80.1196L79.9951 23.103ZM80.2295 21.4771L80.8521 21.4624C80.8521 21.9897 80.791 22.4805 80.6689 22.9346C80.5469 23.3838 80.3638 23.7744 80.1196 24.1064C79.8755 24.4336 79.5679 24.6899 79.1968 24.8755C78.8257 25.0562 78.3887 25.1465 77.8857 25.1465C77.5 25.1465 77.1436 25.0928 76.8164 24.9854C76.4941 24.873 76.2158 24.6997 75.9814 24.4653C75.752 24.2261 75.5713 23.9209 75.4395 23.5498C75.3125 23.1738 75.249 22.7222 75.249 22.1948V17.0752H77.3584V22.2095C77.3584 22.4438 77.3853 22.6416 77.439 22.8027C77.4976 22.9639 77.5781 23.0957 77.6807 23.1982C77.7832 23.3008 77.9028 23.374 78.0396 23.418C78.1812 23.4619 78.3374 23.4839 78.5083 23.4839C78.9429 23.4839 79.2847 23.396 79.5337 23.2202C79.7876 23.0444 79.9658 22.8052 80.0684 22.5024C80.1758 22.1948 80.2295 21.853 80.2295 21.4771ZM85.7812 18.7671V25H83.6719V17.0752H85.6494L85.7812 18.7671ZM85.4736 20.7593H84.9023C84.9023 20.1733 84.978 19.646 85.1294 19.1772C85.2808 18.7036 85.4932 18.3008 85.7666 17.9688C86.04 17.6318 86.3647 17.3755 86.7407 17.1997C87.1216 17.019 87.5464 16.9287 88.0151 16.9287C88.3862 16.9287 88.7256 16.9824 89.0332 17.0898C89.3408 17.1973 89.6045 17.3682 89.8242 17.6025C90.0488 17.8369 90.2197 18.147 90.3369 18.5327C90.459 18.9185 90.52 19.3896 90.52 19.9463V25H88.396V19.939C88.396 19.5874 88.3472 19.314 88.2495 19.1187C88.1519 18.9233 88.0078 18.7866 87.8174 18.7085C87.6318 18.6255 87.4023 18.584 87.1289 18.584C86.8457 18.584 86.5991 18.6401 86.3892 18.7524C86.1841 18.8647 86.0132 19.021 85.8765 19.2212C85.7446 19.4165 85.6445 19.646 85.5762 19.9097C85.5078 20.1733 85.4736 20.4565 85.4736 20.7593Z" fill="white"/>
<defs>
<filter id="filter0_i_544_2368" x="0" y="0" width="122.357" height="44.7856" filterUnits="userSpaceOnUse" color-interpolation-filters="sRGB">
<feFlood flood-opacity="0" result="BackgroundImageFix"/>
<feBlend mode="normal" in="SourceGraphic" in2="BackgroundImageFix" result="shape"/>
<feColorMatrix in="SourceAlpha" type="matrix" values="0 0 0 0 0 0 0 0 0 0 0 0 0 0 0 0 0 0 127 0" result="hardAlpha"/>
<feOffset dy="4"/>
<feGaussianBlur stdDeviation="2"/>
<feComposite in2="hardAlpha" operator="arithmetic" k2="-1" k3="1"/>
<feColorMatrix type="matrix" values="0 0 0 0 0 0 0 0 0 0 0 0 0 0 0 0 0 0 0.25 0"/>
<feBlend mode="normal" in2="shape" result="effect1_innerShadow_544_2368"/>
</filter>
</defs>
</svg>
