<svg width="272" height="56" viewBox="0 0 272 56" fill="none" xmlns="http://www.w3.org/2000/svg">
<path d="M63.8741 29.0318H59.7745L59.7524 27.0096H63.3326C63.9367 27.0096 64.4487 26.9212 64.8686 26.7444C65.2959 26.5602 65.62 26.2987 65.841 25.9599C66.062 25.6136 66.1725 25.1974 66.1725 24.7112C66.1725 24.1734 66.0694 23.7351 65.8631 23.3962C65.6568 23.0574 65.3401 22.8106 64.9128 22.6559C64.4929 22.5012 63.9551 22.4238 63.2995 22.4238H60.6143V36.3027H57.8407V20.2138H63.2995C64.1835 20.2138 64.9717 20.2985 65.6642 20.468C66.364 20.6374 66.957 20.9026 67.4433 21.2636C67.9368 21.6172 68.3088 22.0666 68.5593 22.6117C68.8171 23.1568 68.9461 23.8051 68.9461 24.5565C68.9461 25.2195 68.7877 25.8273 68.4709 26.3798C68.1541 26.9249 67.6864 27.3706 67.0675 27.7168C66.4487 28.0631 65.6789 28.2693 64.7581 28.3356L63.8741 29.0318ZM63.7525 36.3027H58.9015L60.1502 34.1038H63.7525C64.3787 34.1038 64.9017 34.0006 65.3216 33.7944C65.7415 33.5807 66.0546 33.2897 66.2609 32.9214C66.4745 32.5457 66.5813 32.1074 66.5813 31.6065C66.5813 31.0834 66.4893 30.6304 66.3051 30.2473C66.1209 29.8569 65.8299 29.5585 65.4321 29.3522C65.0343 29.1386 64.515 29.0318 63.8741 29.0318H60.758L60.7801 27.0096H64.8354L65.4653 27.7721C66.3493 27.8015 67.0749 27.9968 67.6422 28.3577C68.2168 28.7187 68.644 29.1865 68.924 29.7611C69.2039 30.3357 69.3439 30.9545 69.3439 31.6175C69.3439 32.6415 69.1192 33.4997 68.6698 34.1922C68.2278 34.8846 67.5906 35.4114 66.7581 35.7723C65.9257 36.1259 64.9238 36.3027 63.7525 36.3027ZM78.6149 33.9049V28.203C78.6149 27.7758 78.5375 27.4074 78.3828 27.098C78.2281 26.7886 77.9924 26.5492 77.6756 26.3798C77.3662 26.2103 76.9758 26.1256 76.5043 26.1256C76.0697 26.1256 75.694 26.1993 75.3772 26.3466C75.0604 26.4939 74.8137 26.6929 74.6369 26.9433C74.46 27.1938 74.3716 27.4774 74.3716 27.7942H71.7196C71.7196 27.3227 71.8338 26.866 72.0622 26.424C72.2906 25.982 72.6221 25.5878 73.0567 25.2416C73.4913 24.8954 74.0107 24.6228 74.6148 24.4239C75.2188 24.225 75.8966 24.1255 76.648 24.1255C77.5467 24.1255 78.3423 24.2766 79.0348 24.5786C79.7346 24.8806 80.2834 25.3374 80.6812 25.9488C81.0864 26.5529 81.289 27.3117 81.289 28.2251V33.5402C81.289 34.0854 81.3258 34.5752 81.3995 35.0099C81.4805 35.4371 81.5947 35.8092 81.7421 36.1259V36.3027H79.0127C78.8874 36.0154 78.788 35.6508 78.7143 35.2088C78.648 34.7594 78.6149 34.3248 78.6149 33.9049ZM79.0016 29.0318L79.0237 30.6782H77.1121C76.6185 30.6782 76.1839 30.7261 75.8082 30.8219C75.4325 30.9103 75.1194 31.0429 74.8689 31.2197C74.6184 31.3965 74.4306 31.6101 74.3053 31.8606C74.1801 32.1111 74.1175 32.3947 74.1175 32.7115C74.1175 33.0282 74.1912 33.3192 74.3385 33.5844C74.4858 33.8423 74.6995 34.0448 74.9794 34.1922C75.2667 34.3395 75.6129 34.4132 76.0181 34.4132C76.5632 34.4132 77.0384 34.3027 77.4436 34.0817C77.8561 33.8533 78.1802 33.577 78.416 33.2529C78.6517 32.9214 78.7769 32.6083 78.7917 32.3137L79.6536 33.496C79.5652 33.7981 79.4142 34.1222 79.2005 34.4684C78.9869 34.8147 78.707 35.1462 78.3607 35.4629C78.0219 35.7723 77.613 36.0265 77.1342 36.2254C76.6627 36.4243 76.1176 36.5237 75.4988 36.5237C74.7179 36.5237 74.0217 36.369 73.4103 36.0596C72.7989 35.7429 72.32 35.3193 71.9738 34.7889C71.6275 34.2511 71.4544 33.6433 71.4544 32.9656C71.4544 32.3321 71.5723 31.7722 71.808 31.286C72.0511 30.7924 72.4047 30.3799 72.8688 30.0484C73.3403 29.7169 73.9149 29.4664 74.5927 29.297C75.2704 29.1202 76.0439 29.0318 76.9132 29.0318H79.0016ZM86.7146 26.8991V36.3027H84.0515V24.3466H86.5599L86.7146 26.8991ZM86.2394 29.8826L85.3775 29.8716C85.3849 29.0244 85.5028 28.2472 85.7311 27.54C85.9669 26.8328 86.291 26.2251 86.7035 25.7168C87.1234 25.2085 87.6244 24.818 88.2063 24.5455C88.7883 24.2655 89.4366 24.1255 90.1512 24.1255C90.7258 24.1255 91.2451 24.2066 91.7092 24.3687C92.1807 24.5234 92.5822 24.7775 92.9137 25.1311C93.2525 25.4847 93.5104 25.9451 93.6872 26.5124C93.864 27.0722 93.9524 27.761 93.9524 28.5787V36.3027H91.2783V28.5677C91.2783 27.9931 91.1935 27.54 91.0241 27.2085C90.862 26.8697 90.6226 26.6302 90.3059 26.4903C89.9965 26.3429 89.6097 26.2693 89.1456 26.2693C88.6889 26.2693 88.28 26.365 87.919 26.5566C87.5581 26.7481 87.2524 27.0096 87.0019 27.3411C86.7588 27.6726 86.5709 28.0557 86.4383 28.4903C86.3057 28.925 86.2394 29.3891 86.2394 29.8826ZM99.3559 19.3298V36.3027H96.6818V19.3298H99.3559ZM106.782 24.3466L101.577 30.1147L98.726 33.0319L98.0299 30.7777L100.185 28.1146L103.566 24.3466H106.782ZM104.141 36.3027L100.262 30.6893L101.942 28.8218L107.224 36.3027H104.141ZM111.323 24.3466V36.3027H108.649V24.3466H111.323ZM108.472 21.2083C108.472 20.8032 108.605 20.468 108.87 20.2028C109.143 19.9302 109.518 19.7939 109.997 19.7939C110.469 19.7939 110.841 19.9302 111.113 20.2028C111.386 20.468 111.522 20.8032 111.522 21.2083C111.522 21.6061 111.386 21.9376 111.113 22.2028C110.841 22.468 110.469 22.6006 109.997 22.6006C109.518 22.6006 109.143 22.468 108.87 22.2028C108.605 21.9376 108.472 21.6061 108.472 21.2083ZM116.881 26.8991V36.3027H114.218V24.3466H116.727L116.881 26.8991ZM116.406 29.8826L115.544 29.8716C115.552 29.0244 115.669 28.2472 115.898 27.54C116.134 26.8328 116.458 26.2251 116.87 25.7168C117.29 25.2085 117.791 24.818 118.373 24.5455C118.955 24.2655 119.603 24.1255 120.318 24.1255C120.892 24.1255 121.412 24.2066 121.876 24.3687C122.347 24.5234 122.749 24.7775 123.08 25.1311C123.419 25.4847 123.677 25.9451 123.854 26.5124C124.031 27.0722 124.119 27.761 124.119 28.5787V36.3027H121.445V28.5677C121.445 27.9931 121.36 27.54 121.191 27.2085C121.029 26.8697 120.789 26.6302 120.473 26.4903C120.163 26.3429 119.776 26.2693 119.312 26.2693C118.856 26.2693 118.447 26.365 118.086 26.5566C117.725 26.7481 117.419 27.0096 117.169 27.3411C116.925 27.6726 116.738 28.0557 116.605 28.4903C116.472 28.925 116.406 29.3891 116.406 29.8826ZM134.495 24.3466H136.915V35.9712C136.915 37.0468 136.687 37.9602 136.23 38.7117C135.773 39.4631 135.136 40.034 134.318 40.4244C133.501 40.8222 132.554 41.0211 131.478 41.0211C131.022 41.0211 130.513 40.9548 129.954 40.8222C129.401 40.6896 128.863 40.476 128.34 40.1813C127.825 39.894 127.394 39.5146 127.047 39.0432L128.296 37.474C128.723 37.9823 129.195 38.3544 129.71 38.5901C130.226 38.8258 130.768 38.9437 131.335 38.9437C131.946 38.9437 132.466 38.8295 132.893 38.6012C133.327 38.3801 133.663 38.0523 133.898 37.6177C134.134 37.1831 134.252 36.6527 134.252 36.0265V27.0538L134.495 24.3466ZM126.373 30.4572V30.2252C126.373 29.3191 126.484 28.494 126.705 27.75C126.926 26.9986 127.243 26.354 127.655 25.8162C128.068 25.2711 128.569 24.8549 129.158 24.5676C129.747 24.2729 130.414 24.1255 131.158 24.1255C131.932 24.1255 132.591 24.2655 133.136 24.5455C133.688 24.8254 134.149 25.2269 134.517 25.7499C134.886 26.2656 135.173 26.8844 135.379 27.6063C135.593 28.3209 135.751 29.1165 135.854 29.9931V30.7335C135.759 31.588 135.596 32.3689 135.368 33.0761C135.14 33.7833 134.838 34.3948 134.462 34.9104C134.086 35.4261 133.622 35.8239 133.07 36.1038C132.525 36.3838 131.88 36.5237 131.136 36.5237C130.407 36.5237 129.747 36.3727 129.158 36.0707C128.576 35.7686 128.075 35.3451 127.655 34.7999C127.243 34.2548 126.926 33.6139 126.705 32.8772C126.484 32.1332 126.373 31.3265 126.373 30.4572ZM129.036 30.2252V30.4572C129.036 31.0024 129.088 31.5107 129.191 31.9822C129.302 32.4536 129.467 32.8698 129.688 33.2308C129.917 33.5844 130.204 33.8644 130.55 34.0706C130.904 34.2695 131.32 34.369 131.799 34.369C132.425 34.369 132.937 34.2364 133.335 33.9712C133.74 33.706 134.049 33.3487 134.263 32.8993C134.484 32.4426 134.639 31.9343 134.727 31.3744V29.3743C134.683 28.9397 134.591 28.5345 134.451 28.1588C134.318 27.7831 134.138 27.4553 133.909 27.1754C133.681 26.8881 133.394 26.6671 133.048 26.5124C132.701 26.3503 132.292 26.2693 131.821 26.2693C131.342 26.2693 130.926 26.3724 130.572 26.5787C130.219 26.7849 129.928 27.0686 129.699 27.4295C129.478 27.7905 129.313 28.2104 129.202 28.6892C129.092 29.1681 129.036 29.6801 129.036 30.2252Z" fill="white"/>
<path d="M33.0621 30.6402C33.0621 33.9809 33.058 37.3223 33.0696 40.663C33.0704 40.942 32.9982 41.0001 32.7292 40.9993C29.6891 40.9885 26.6491 40.9926 23.609 40.9926C22.4008 40.9926 21.7465 40.3366 21.7465 39.1259C21.7457 32.9421 21.7481 26.7582 21.739 20.5743C21.739 20.2961 21.8088 20.2305 22.0811 20.2347C23.1498 20.2521 24.2185 20.2505 25.2872 20.2355C25.5413 20.2322 25.5903 20.3136 25.587 20.5477C25.5729 21.3773 25.5812 22.2077 25.582 23.0381C25.582 23.4192 25.7265 23.6227 25.9889 23.6152C26.2488 23.6077 26.3842 23.4051 26.3842 23.0198C26.385 22.1795 26.3908 21.3391 26.38 20.4988C26.3775 20.2978 26.4274 20.2322 26.6358 20.238C27.2162 20.2521 27.7983 20.2513 28.3788 20.2388C28.5797 20.2347 28.6412 20.2878 28.6378 20.4963C28.6254 21.3574 28.632 22.2185 28.6329 23.0796C28.6337 23.4184 28.7707 23.6061 29.0173 23.6144C29.2756 23.6235 29.4334 23.4234 29.4342 23.0729C29.4367 22.2426 29.445 21.413 29.4292 20.5826C29.4242 20.3252 29.4666 20.228 29.7589 20.2347C30.7545 20.2571 31.751 20.253 32.7466 20.2364C33.0048 20.2322 33.0704 20.2953 33.0696 20.5569C33.0588 23.9166 33.0621 27.278 33.0621 30.6402ZM24.3904 32.3442C24.3904 33.3299 24.3871 34.3155 24.3913 35.3012C24.3946 36.0178 24.8347 36.5277 25.5447 36.5434C26.8509 36.5717 28.1595 36.5725 29.4657 36.5434C30.1707 36.5277 30.6225 36.007 30.6241 35.2987C30.6274 33.3481 30.6274 31.3975 30.6241 29.4461C30.6233 28.6872 30.1151 28.1806 29.3545 28.1781C28.1197 28.174 26.8849 28.174 25.6501 28.1781C24.8837 28.1806 24.3929 28.6772 24.3904 29.4486C24.3879 30.4144 24.3904 31.3793 24.3904 32.3442Z" fill="#3CCB93"/>
<path d="M30.4334 15.2406C34.4914 15.2406 38.5487 15.2398 42.6068 15.2414C43.7353 15.2423 44.564 15.8651 44.794 16.8906C44.8364 17.0799 44.8397 17.2817 44.8397 17.4777C44.843 19.0554 44.8439 20.6323 44.8414 22.21C44.8389 23.5735 43.9678 24.4371 42.601 24.4388C41.7914 24.4396 40.9817 24.433 40.1729 24.4429C39.9828 24.4454 39.9263 24.3948 39.928 24.2013C39.9363 22.9557 39.9354 21.711 39.9288 20.4654C39.928 20.2844 39.9869 20.2321 40.1605 20.2395C40.4403 20.2512 40.721 20.2453 41.0008 20.242C41.2591 20.2387 41.4484 20.1382 41.4667 19.8517C41.4825 19.5976 41.3089 19.4498 40.9909 19.4473C40.3266 19.4424 39.6622 19.4457 38.9979 19.4457C32.7086 19.4457 26.4201 19.4457 20.1308 19.4457C20.017 19.4457 19.9016 19.4415 19.7887 19.4515C19.5586 19.4723 19.4266 19.6043 19.4216 19.8343C19.4166 20.0668 19.5503 20.213 19.7762 20.2287C20.0859 20.2503 20.3982 20.2503 20.7096 20.2387C20.8947 20.2321 20.9612 20.2794 20.9595 20.4787C20.9504 21.7243 20.952 22.969 20.9587 24.2146C20.9595 24.3898 20.9105 24.4438 20.732 24.4421C19.8501 24.433 18.9674 24.4496 18.0855 24.4346C16.9662 24.4155 16.0644 23.532 16.0528 22.4143C16.0337 20.7021 16.0337 18.9898 16.0519 17.2775C16.0644 16.11 16.9836 15.2506 18.2001 15.2431C19.8293 15.234 21.4586 15.2406 23.0878 15.2406C25.5349 15.2398 27.9837 15.2406 30.4334 15.2406Z" fill="white"/>
<path d="M33.8668 30.6383C33.8668 27.2761 33.8701 23.9138 33.8601 20.5516C33.8593 20.2859 33.9315 20.2328 34.1848 20.2344C35.731 20.2469 37.2771 20.2444 38.8233 20.2369C39.0459 20.2361 39.1455 20.2618 39.1455 20.5317C39.1364 26.7579 39.1397 32.985 39.1372 39.2112C39.1364 40.3148 38.4521 40.989 37.3444 40.9915C36.2857 40.994 35.2269 40.9841 34.169 40.9982C33.9282 41.0015 33.8609 40.9434 33.8609 40.6951C33.8692 37.3428 33.8668 33.9906 33.8668 30.6383Z" fill="#3CCB93"/>
<path d="M24.3907 32.3441C24.3907 31.3792 24.3882 30.4143 24.3916 29.4494C24.3941 28.678 24.8848 28.1814 25.6513 28.1789C26.886 28.1747 28.1208 28.1747 29.3556 28.1789C30.1154 28.1814 30.6236 28.6879 30.6253 29.4469C30.6286 31.3975 30.6286 33.348 30.6253 35.2994C30.6236 36.0069 30.1719 36.5284 29.4669 36.5442C28.1607 36.5733 26.852 36.5724 25.5458 36.5442C24.8358 36.5284 24.3949 36.0186 24.3924 35.3019C24.3874 34.3163 24.3907 33.3298 24.3907 32.3441ZM26.201 32.3566C26.201 31.3194 26.2026 30.2823 26.1985 29.2459C26.1985 29.1612 26.25 29.0525 26.1462 28.9918C25.7451 28.7593 25.1879 29.0707 25.1879 29.5316C25.1854 31.0661 25.1871 32.6015 25.1871 34.1361C25.1871 34.499 25.1838 34.8618 25.1879 35.2247C25.1929 35.6324 25.3199 35.7537 25.736 35.7595C25.7982 35.7603 25.8622 35.7503 25.922 35.7611C26.1669 35.8043 26.2093 35.6906 26.2068 35.4672C26.1943 34.4309 26.201 33.3937 26.201 32.3566ZM28.4115 32.9843C28.8051 32.9843 29.1995 32.971 29.5923 32.9893C29.7949 32.9984 29.8364 32.9279 29.8256 32.7443C29.8107 32.4861 29.8082 32.2262 29.8264 31.9679C29.8405 31.7686 29.7691 31.7288 29.5823 31.7313C28.8059 31.7421 28.0286 31.7404 27.2522 31.7321C27.0745 31.7304 26.9857 31.757 27.0006 31.9638C27.0189 32.232 27.0172 32.5027 27.0015 32.7709C26.9898 32.9586 27.0671 32.9918 27.2323 32.9868C27.6243 32.9777 28.0179 32.9843 28.4115 32.9843ZM28.0112 34.8103C28.0112 34.7273 28.0112 34.6451 28.0112 34.5621C28.0112 33.7674 28.0112 33.7724 27.2282 33.784C27.0596 33.7865 26.9907 33.8222 26.999 34.0049C27.0131 34.3354 27.0031 34.6667 27.0031 34.998C27.0031 35.8234 27.0031 35.8193 27.8352 35.7645C27.9672 35.7562 28.0179 35.7229 28.0137 35.5868C28.0054 35.3285 28.0112 35.0694 28.0112 34.8103ZM28.8159 34.7796C28.8159 34.9457 28.8159 35.1118 28.8159 35.277C28.8159 35.7736 28.8159 35.7736 29.3074 35.7595C29.6894 35.7487 29.819 35.6142 29.8223 35.223C29.8239 35.0055 29.8223 34.7871 29.8223 34.5695C29.8223 33.7499 29.8223 33.7566 29.0118 33.7823C28.8374 33.7881 28.8067 33.8504 28.8125 34.0007C28.8225 34.2606 28.8159 34.5205 28.8159 34.7796ZM28.0112 29.9675C28.0112 29.8953 28.0112 29.8222 28.0112 29.75C28.0112 28.9387 28.0112 28.9437 27.1883 28.9794C27.0355 28.986 26.999 29.0309 27.0006 29.1754C27.0081 29.7035 27.0073 30.2324 27.0015 30.7614C26.9998 30.8926 27.0363 30.9333 27.1742 30.9424C28.0112 30.9972 28.0112 31.0014 28.0112 30.1851C28.0112 30.112 28.0112 30.0398 28.0112 29.9675ZM28.8159 29.946C28.8225 29.946 28.8291 29.946 28.835 29.946C28.835 30.2648 28.7411 30.6302 28.869 30.8859C28.9512 31.0504 29.3639 30.9208 29.628 30.9383C29.6379 30.9391 29.6487 30.9374 29.6587 30.9383C29.7733 30.9524 29.8256 30.9158 29.8239 30.7871C29.8173 30.3113 29.8239 29.8355 29.8173 29.3597C29.8148 29.1737 29.7052 29.0284 29.5292 29.0035C29.3074 28.9727 29.0525 28.9362 28.8615 29.0184C28.7353 29.0732 28.8283 29.3398 28.8175 29.5117C28.8084 29.6561 28.8159 29.8015 28.8159 29.946Z" fill="#F9F9F9"/>
<path d="M26.2013 32.3581C26.2013 33.3952 26.1946 34.4324 26.2063 35.4687C26.2088 35.692 26.1664 35.8058 25.9215 35.7626C25.8608 35.7518 25.7969 35.7618 25.7354 35.761C25.3194 35.7543 25.1924 35.6339 25.1874 35.2262C25.1832 34.8633 25.1866 34.5004 25.1866 34.1376C25.1866 32.603 25.1849 31.0676 25.1874 29.5331C25.1882 29.0722 25.7454 28.76 26.1457 28.9933C26.2503 29.054 26.198 29.1627 26.198 29.2474C26.203 30.2846 26.2013 31.3217 26.2013 32.3581Z" fill="#3CCB93"/>
<path d="M28.4118 32.9847C28.0182 32.9847 27.6245 32.9773 27.2309 32.9881C27.0657 32.9922 26.9885 32.9598 27.0001 32.7722C27.0159 32.504 27.0184 32.2332 26.9993 31.965C26.9852 31.7574 27.0732 31.7309 27.2509 31.7334C28.0273 31.7425 28.8045 31.7433 29.5809 31.7325C29.7678 31.73 29.8392 31.7707 29.8251 31.9692C29.8068 32.2266 29.8093 32.4873 29.8242 32.7456C29.835 32.9291 29.7935 32.9997 29.5909 32.9906C29.199 32.9723 28.8054 32.9847 28.4118 32.9847Z" fill="#3CCB93"/>
<path d="M28.0111 34.811C28.0111 35.0692 28.0053 35.3283 28.0136 35.5866C28.0177 35.7227 27.9671 35.756 27.835 35.7643C27.003 35.8191 27.003 35.8232 27.003 34.9978C27.003 34.6665 27.013 34.3352 26.9988 34.0047C26.9914 33.822 27.0595 33.7863 27.228 33.7838C28.0111 33.7722 28.0111 33.7672 28.0111 34.5619C28.0111 34.6457 28.0111 34.7288 28.0111 34.811Z" fill="#3CCB93"/>
<path d="M28.8156 34.7794C28.8156 34.5204 28.8223 34.2605 28.8131 34.0014C28.8073 33.8502 28.8381 33.788 29.0124 33.783C29.8229 33.7572 29.8229 33.7506 29.8229 34.5702C29.8229 34.7877 29.8246 35.0061 29.8229 35.2237C29.8196 35.6156 29.69 35.7493 29.3081 35.7601C28.8165 35.7742 28.8165 35.7742 28.8165 35.2777C28.8156 35.1116 28.8156 34.9455 28.8156 34.7794Z" fill="#3CCB93"/>
<path d="M28.0112 29.9687C28.0112 30.0409 28.0112 30.114 28.0112 30.1863C28.0112 31.0025 28.0112 30.9984 27.1742 30.9436C27.0363 30.9344 26.9998 30.8937 27.0014 30.7625C27.0072 30.2344 27.0089 29.7055 27.0006 29.1765C26.9981 29.032 27.0355 28.9872 27.1883 28.9805C28.0112 28.9448 28.0112 28.939 28.0112 29.7511C28.0112 29.8234 28.0112 29.8956 28.0112 29.9687Z" fill="#3CCB93"/>
<path d="M28.8157 29.9465C28.8157 29.802 28.8083 29.6567 28.8174 29.5122C28.8282 29.3411 28.7352 29.0738 28.8614 29.0189C29.0524 28.9367 29.3073 28.9733 29.529 29.004C29.7051 29.0289 29.8147 29.1734 29.8172 29.3602C29.8238 29.836 29.8163 30.3119 29.8238 30.7877C29.8255 30.9164 29.7732 30.9529 29.6586 30.9388C29.6486 30.9371 29.6378 30.9396 29.6278 30.9388C29.3638 30.9214 28.9511 31.0509 28.8689 30.8865C28.741 30.6316 28.8348 30.2654 28.8348 29.9465C28.829 29.9465 28.8224 29.9465 28.8157 29.9465Z" fill="#3CCB93"/>
<path d="M245.093 20.3047L243 22.4197L249.799 29.3047L243 36.1897L245.093 38.3047L254 29.3047L245.093 20.3047Z" fill="#3CCB93"/>
</svg>
