<svg width="18" height="18" viewBox="0 0 18 18" fill="none" xmlns="http://www.w3.org/2000/svg">
<path d="M17.075 15.1003L13.5594 11.5847C14.509 10.15 14.8919 8.41376 14.6339 6.7127C14.3759 5.01165 13.4953 3.46705 12.1629 2.37848C10.8306 1.2899 9.14143 0.734946 7.42309 0.821243C5.70475 0.907541 4.07969 1.62894 2.8631 2.84553C1.64652 4.06211 0.925119 5.68717 0.838821 7.40551C0.752524 9.12386 1.30748 10.813 2.39605 12.1454C3.48463 13.4777 5.02923 14.3583 6.73028 14.6163C8.43133 14.8744 10.1676 14.4914 11.6023 13.5418L15.1179 17.0574C15.3789 17.3095 15.7285 17.449 16.0914 17.4459C16.4543 17.4427 16.8015 17.2971 17.0581 17.0405C17.3147 16.7839 17.4603 16.4368 17.4634 16.0739C17.4666 15.711 17.3271 15.3613 17.075 15.1003ZM3.63969 7.77436C3.63969 6.95312 3.88322 6.15033 4.33947 5.4675C4.79573 4.78466 5.44422 4.25246 6.20294 3.93819C6.96166 3.62391 7.79654 3.54169 8.602 3.7019C9.40745 3.86212 10.1473 4.25758 10.728 4.83828C11.3087 5.41898 11.7042 6.15884 11.8644 6.9643C12.0246 7.76975 11.9424 8.60463 11.6281 9.36335C11.3138 10.1221 10.7816 10.7706 10.0988 11.2268C9.41596 11.6831 8.61317 11.9266 7.79193 11.9266C6.69069 11.9266 5.63455 11.4891 4.85586 10.7104C4.07716 9.93174 3.63969 8.8756 3.63969 7.77436Z" fill="white"/>
</svg>
